<svg version="1.1" id="IMG_x5F_01" xmlns="http://www.w3.org/2000/svg" xmlns:xlink="http://www.w3.org/1999/xlink" x="0px" y="0px" width="274px" height="274px" viewBox="0 0 274 274" xml:space="preserve"><style type="text/css">.st0{fill:#F7ADB4;} .st1{clip-path:url(#XMLID_18_);} .st2{fill:#F498A1;} .st3{clip-path:url(#XMLID_18_);fill:#F498A1;} .st4{fill:#F1848E;} .st5{clip-path:url(#XMLID_18_);fill:#ED5463;} .st6{fill:#A4795C;} .st7{fill:#956341;} .st8{fill:#B9E6F7;} .st9{clip-path:url(#XMLID_19_);} .st10{fill:#C38256;} .st11{fill:#C78B62;} .st12{fill:#451A00;} .st13{fill:#F6F7FA;} .st14{fill:#B16F43;} .st15{fill:#49CFAE;} .st16{opacity:0.2;fill:#F6F7FA;} .st17{fill:#BD7645;} .st18{fill:none;stroke:#B16F43;stroke-linecap:round;stroke-miterlimit:10;} .st19{fill:none;stroke:#14C196;stroke-linecap:round;stroke-miterlimit:10;} .st20{fill:#AD92ED;} .st21{fill:#977BDC;} .st22{fill:none;stroke:#7651D1;stroke-linecap:round;stroke-miterlimit:10;} .st23{opacity:0.3;} .st24{fill:#9D6F50;}</style><g id="XMLID_1889_"><circle id="XMLID_1890_" class="st0" cx="136.4" cy="136.4" r="136.4"/><g id="XMLID_1891_"><defs><circle id="XMLID_6_" cx="136.4" cy="136.4" r="136.4"/></defs><clipPath id="XMLID_18_"><use xlink:href="#XMLID_6_" overflow="visible"/></clipPath><g id="XMLID_1892_" class="st1"><path id="XMLID_2659_" transform="rotate(45.001 219.694 53.505)" class="st2" d="M69.4 44H370v19H69.4z"/><path id="XMLID_2658_" transform="rotate(45.001 52.855 220.348)" class="st2" d="M-97.5 210.8h300.6v19H-97.5z"/><path id="XMLID_2657_" transform="rotate(45.001 80.661 192.54)" class="st2" d="M-69.6 183H231v19H-69.6z"/><path id="XMLID_2656_" transform="rotate(45.001 108.468 164.734)" class="st2" d="M-41.8 155.2h300.6v19H-41.8z"/><path id="XMLID_2655_" transform="rotate(45.001 136.275 136.926)" class="st2" d="M-14 127.4h300.6v19H-14z"/><path id="XMLID_2654_" transform="rotate(45.001 164.081 109.12)" class="st2" d="M13.8 99.6h300.6v19H13.8z"/><path id="XMLID_2653_" transform="rotate(45.001 191.888 81.312)" class="st2" d="M41.6 71.8h300.6v19H41.6z"/></g><path id="XMLID_2651_" class="st3" d="M.4 247.3h274v24.6H.4z"/><g id="XMLID_1893_" class="st1"><path id="XMLID_2650_" class="st4" d="M64.9 247.3h5v24.6h-5z"/><path id="XMLID_2649_" class="st4" d="M84.9 247.3h5v24.6h-5z"/><path id="XMLID_2648_" class="st4" d="M104.9 247.3h5v24.6h-5z"/><path id="XMLID_2647_" class="st4" d="M124.9 247.3h5v24.6h-5z"/><path id="XMLID_2646_" class="st4" d="M144.9 247.3h5v24.6h-5z"/><path id="XMLID_2645_" class="st4" d="M164.9 247.3h5v24.6h-5z"/><path id="XMLID_2644_" class="st4" d="M184.9 247.3h5v24.6h-5z"/><path id="XMLID_2643_" class="st4" d="M204.9 247.3h5v24.6h-5z"/></g><path id="XMLID_2641_" class="st5" d="M.4 239.6h274v7.7H.4z"/><g id="XMLID_1894_" class="st1"><g id="XMLID_1895_"><path id="XMLID_2640_" class="st6" d="M198.9 231.2h-85.2c-.6 0-1-.4-1-1V22.8c0-.6.4-1 1-1h85.2c.6 0 1 .4 1 1v207.4c0 .5-.4 1-1 1z"/><path id="XMLID_2639_" class="st6" d="M200.6 236.2h-88.5c-.6 0-1 .4-1 1v3.6c0 .6.4 1 1 1h88.5c.6 0 1-.4 1-1v-3.6c0-.6-.5-1-1-1z"/><path id="XMLID_2638_" class="st6" d="M111.5 241.7H91.7c-.6 0-1 .4-1 1v3.6c0 .6.4 1 1 1h19.8c.6 0 1-.4 1-1v-3.6c0-.6-.4-1-1-1z"/><path id="XMLID_2637_" class="st6" d="M111.5 241.7H91.7c-.6 0-1 .4-1 1v3.6c0 .6.4 1 1 1h19.8c.6 0 1-.4 1-1v-3.6c0-.6-.4-1-1-1z"/><path id="XMLID_2636_" class="st6" d="M221 242h-19.8c-.6 0-1 .4-1 1v3.6c0 .6.4 1 1 1H221c.6 0 1-.4 1-1V243c0-.6-.4-1-1-1z"/><path id="XMLID_2635_" class="st7" d="M122.4 31.5h67.9v190h-67.9z"/><path id="XMLID_2634_" class="st8" d="M125.3 34.4h62v184.2h-62z"/><g id="XMLID_1896_"><defs><path id="XMLID_581_" d="M125.3 34.4h62v184.2h-62z"/></defs><clipPath id="XMLID_19_"><use xlink:href="#XMLID_581_" overflow="visible"/></clipPath><g id="XMLID_1897_" class="st9"><path id="XMLID_1898_" class="st10" d="M141.7 130l4.1-9.7-.1-7.6 11.6-6.3 12.3 4.4.9 9.5 1.9 8.3c1.3 4.3 1.5 11.7 2.7 24.5l4.4 27.1 8.5 51.7-3.8 1.6-15.2-53.4-7.3-25.9-4.3-15.3v-.1h-.2l.6 15.8.8 22.9 2 53.5-4.6 1-8-53.7-3.5-23.2s-4.3-18.5-2.8-25.1z"/><path id="XMLID_1899_" class="st11" d="M170.5 80.1l11.3 34.2-6.9 3.9-6.3-32.7z"/><path id="XMLID_1900_" class="st12" d="M156.6 26.3c1 .1 11-6.4 20.4 10.4 5.2 9.3 2.8 21.9-4.2 34.3 0 0-6.4 11.1-10.9 11.1-16.5 0-24-18.7-24-18.7-5.2-9.2-4.4-40.1 18.7-37.1z"/><path id="XMLID_2630_" class="st10" d="M160.4 80.7l-2.8-20.8h-6.9l1.7 19.9 4.9 6.4z"/><path id="XMLID_2629_" class="st10" d="M163.4 79.6s4.4 11.2.2 12.9c-19.3 8-15.6-12-14.8-12.1 1.1-.2 7-1.4 7-1.4l7.6.6z"/><path id="XMLID_2628_" class="st11" d="M141.5 81.4l-23.9 27.7 2.5 6.2 3.8-1.5L143 92l.7 6.9s5.9-16.8 4.2-18.5c-.2-.4-6 .9-6.4 1z"/><path id="XMLID_2627_" class="st11" d="M117.9 116.4l24.4 10.1.9-3.4-23.8-15.8c0 .1-4.5 2.3-1.5 9.1z"/><path id="XMLID_1901_" class="st13" d="M148 80.4l1.3-.2s-4.7 14.6 9.6 13.3c9.1-.8 4.9-14.1 4.9-14.1l1.7.2c.7.1 5.4 15.7 5.4 15.7l-.5 21.4s-9.6-7.7-12.9-7.6c-3 .1-12.2 8.4-12.2 8.4l-2.6-21.1c.1-.1 4.8-15.9 5.3-16z"/><path id="XMLID_2625_" class="st12" d="M169.8 40.7c-.5-1.1 24.1 32.5 12.6 48.4-9.4 13-7.9 17.5-5.9 24.7 1.8 6.3-13.8-16.3-15.7-27.1-1.9-10.8-1.5-26 1.4-32.9 3-7 9.3-9.5 7.6-13.1z"/><path id="XMLID_1902_" class="st10" d="M145.4 45c4.1-4.2 10.8-6.4 11.1-6.4 10.8 0 11.3-.5 16.9 10.3.3.5.6.9 1.1 1.2v.2c1 10.7-5.8 22.6-15.3 23.5-12.5 1.1-19.4-7.6-20.3-17 0-.8.2-7.1 6.5-11.8z"/><g id="XMLID_1903_"><ellipse id="XMLID_2623_" transform="rotate(174.867 146.755 56.328) scale(1.00001)" cx="146.8" cy="56.3" rx="1.6" ry="2.5"/><ellipse id="XMLID_2622_" transform="matrix(-.996 .08907 -.08907 -.996 335.119 93.558)" cx="165.5" cy="54.3" rx="1.6" ry="2.5"/><path id="XMLID_2621_" class="st14" d="M155.5 60.1c0 .3 2.7.2 2.7-.1 0-.3-.6-.5-1.4-.5-.7.1-1.3.3-1.3.6z"/><path id="XMLID_1904_" class="st12" d="M161.1 47.2l.2 2.1s3.7-1.2 4.9-1.2c2.2.1 4.3.8 4.3.8l-.7-2.1s-1.9-.8-3.9-.8c-1-.1-4.8 1.2-4.8 1.2z"/><path id="XMLID_1905_" class="st12" d="M150.5 47.2l-.2 2.1s-3.7-1.2-4.9-1.2c-2.2.1-4.3.8-4.3.8l.7-2.1s1.9-.8 3.9-.8c1-.1 4.8 1.2 4.8 1.2z"/></g><path id="XMLID_2617_" class="st10" d="M144.1 57.7c1.4 2.9 1.6 5.2-.4 6.2-2 .9-6.4 0-7.8-2.9-1.4-2.9-1-6.1 1-7 1.9-1 5.8.8 7.2 3.7z"/><path id="XMLID_1906_" class="st12" d="M157 35.8s3.2 9.1 10.8 12.7c7.6 3.6 7.9 11.3 5.5 17-2.3 5.7 12.3-11.7 7.4-21.4-4.8-9.8-22.7-20-23.7-8.3z"/><path id="XMLID_2615_" class="st11" d="M176.9 120.1l-12.1-9.3 1.7-3.2 15.4 6.7c-.1 0 .1 5.2-5 5.8z"/><path id="XMLID_2614_" class="st11" d="M169.8 109.3c-.5-.1-5.1-5.2-5.1-5.2l-8.3-3.1-.4 1 5.9 3.1-6.8-.7-.7.3.5 1.6.7.7-1.4.6.4 1.6 1.4.5-1.8.6.5 1 14 1.5 1.1-3.5z"/><path id="XMLID_1907_" class="st15" d="M141.9 238c1.8.3 4 .9 4.2 2.1.1.8.3 1.5.5 1.9-.1 0-.1.1-.2.1-.6.3-7 .3-7.7.5-.5.1-.4-2-.4-2s1.5-1.1 3.6-2.6z"/><path id="XMLID_1908_" class="st15" d="M160.7 229.7l.6 4s-1.2.8-3 1.9c-.3-3.1 1.2-5 2.4-5.9z"/><path id="XMLID_1909_" class="st15" d="M183.2 231.7c.9.4 2.5 1.3 3 3.1.3 1 .5 1.8.6 2.5-2.2-.5-3.5-.8-3.5-.8l-.1-4.8z"/><path id="XMLID_1910_" class="st15" d="M198 236.9c.7-1.4 3.1-1.8 4.9-1.8 2.2 1 3.8 1.7 3.8 1.7s.4 2 0 2c-.7 0-7.8.9-8.4.8-.4-.1-.8-.1-1.2-.2.2-.8.5-1.7.9-2.5z"/><path id="XMLID_1911_" class="st15" d="M160.5 219.9H154c-.1-.4-.1-.8-.2-1.2h6.7v1.2z"/><path id="XMLID_1912_" class="st15" d="M160.5 222.6h-6.1c-.1-.4-.2-.8-.2-1.2h6.3v1.2z"/><path id="XMLID_1913_" class="st15" d="M160.6 225.3H155c-.1-.4-.2-.8-.2-1.2h5.8v1.2z"/><path id="XMLID_1914_" class="st15" d="M187.1 218.8c.1.4.1.8.2 1.2l-8.2.9-.3-1.2 8.3-.9z"/><path id="XMLID_1915_" class="st15" d="M187.4 221c0 .4.1.8.1 1.2l-7.7.9c-.2-.4-.3-.8-.4-1.2l8-.9z"/><path id="XMLID_1916_" class="st15" d="M187.5 223v1.2l-7 .8c-.2-.4-.3-.8-.5-1.2l7.5-.8z"/><path id="XMLID_1917_" class="st15" d="M187.6 225v1.2l-6.1.7c-.2-.4-.4-.8-.5-1.2l6.6-.7z"/><path id="XMLID_1918_" class="st15" d="M187.6 227.3v1.2l-5 .6c-.2-.3-.4-.7-.6-1.2l5.6-.6z"/><path id="XMLID_2601_" class="st10" d="M169.6 57.7c-1.4 2.9-1.6 5.2.4 6.2 2 .9 6.4 0 7.8-2.9 1.4-2.9 1-6.1-1-7-1.9-1-5.8.8-7.2 3.7z"/><path id="XMLID_2600_" transform="rotate(-45.001 156.688 94.31)" class="st16" d="M70.8 89.1h171.8v10.4H70.8z"/><path id="XMLID_2599_" transform="rotate(-45.001 142.235 69.682)" class="st16" d="M56.3 66.7h171.8v5.9H56.3z"/><ellipse id="XMLID_1919_" class="st17" cx="157.9" cy="119" rx="0.5" ry="0.6"/><path id="XMLID_2597_" class="st18" d="M153.6 65.9s2.9-1.7 6.5-.6"/><path id="XMLID_1920_" class="st19" d="M150.8 122.5"/><g id="XMLID_1921_"><path id="XMLID_1922_" class="st20" d="M157.2 138.9s1.7 8.6 1.9 8.6c1.7 0 6.3-1.5 10.2-3.2 4.4-1.9 5.3-2.8 5.3-2.8l-1.9-13.7-2-5.7-25.9.3-3.8 8.2-.8 12.2s4.7 2.1 6.9 2.8c3.8 1.1 8.7 1.1 10.5 1.4.3.1-.4-8.1-.4-8.1z"/><circle id="XMLID_1923_" class="st21" cx="157.2" cy="124.3" r="1.2"/><path id="XMLID_1924_" class="st22" d="M164.5 122.8l8.4 5.3"/><path id="XMLID_1925_" class="st22" d="M150.1 123l-5.9 3.9"/></g><path id="XMLID_818_" class="st11" d="M143.2 123.1c.8 1 1 3 1 3l.8 6.9-1 .4-1.1-3-1.3 5.3.7 6.3-1.7-.1-2.4-5.9.5-11.2 4.5-1.7z"/><path id="XMLID_586_" transform="rotate(-45.001 154.54 114.942)" class="st16" d="M68.6 111.4h171.8v7.1H68.6z"/></g></g><path id="XMLID_541_" class="st23" d="M125.3 34.4h62v2.9h-62z"/><path id="XMLID_540_" class="st24" d="M200 117.1h7.8v130.5H200z"/><path id="XMLID_539_" class="st24" d="M105.1 116.8h7.8v130.5h-7.8z"/></g><g id="XMLID_1926_"><path id="XMLID_537_" class="st12" d="M108.8 45.8c-.6-1.2 26.5 35.7 13.8 53.1-10.3 14.2-8.7 19.2-6.4 27.1 2 6.9-15.2-17.9-17.3-29.7-2.1-11.9-1.6-28.6 1.6-36.1 3.2-7.6 10.1-10.5 8.3-14.4z"/><path id="XMLID_311_" class="st10" d="M101.7 88.5s4.8 12.2.2 14.1c-21.1 8.8-17.1-13.2-16.2-13.3 1.2-.2 7.7-1.5 7.7-1.5l8.3.7z"/><path id="XMLID_310_" class="st10" d="M98.5 89.6l-3.1-22.8-7.6.1 1.9 21.8 5.4 7z"/><path id="XMLID_309_" class="st10" d="M80.5 64.5c1.5 3.2 1.7 5.7-.4 6.8-2.1 1-7 0-8.6-3.2-1.5-3.2-1.1-6.7 1.1-7.7 2.2-1.1 6.4.9 7.9 4.1z"/><path id="XMLID_308_" class="st11" d="M114.4 130.8l-16.2-19 3.2-2.3 20.6 17c0 .1-2.3 6.3-7.6 4.3z"/><path id="XMLID_307_" class="st11" d="M101.9 110c-.4-.3-2.4-7.6-2.4-7.6L93 95.2l-.8.8 4.2 5.9-6.3-4.1h-.9l-.3 1.8.4 1-1.6-.2-.4 1.7 1.1 1.2-2.1-.3-.1 1.3 12.9 8.5 2.8-2.8z"/><path id="XMLID_1927_" class="st10" d="M77.9 143.8l4.5-10.7.3-4.5 25.3-.6 1.4 5.1 2 9.1c1.5 4.7 1.6 12.8 3 26.9l4.9 29.8 9.3 56.7-4.2 1.8-16.6-58.6-8-28.4-4.7-16.8v-.1h-.2l.6 17.4.9 25.1 2.2 58.7-5.1.9-8.8-59-3.8-25.4c.1.1-4.6-20.2-3-27.4z"/><path id="XMLID_1928_" class="st11" d="M108.3 107.9l6.9 22.5 6.9-3.8-9.2-35c-.4-1.6-1.8-2.7-3.4-2.8l-6.2-.3-6.9 12.6 9.9 7.6 2-.8z"/><path id="XMLID_100_" class="st10" d="M98.6 251.9l.9 5.5s-11.3 1.9-20 1.3c-.7 0-6.8-3.4-7.6-3.7-.5-.2.7-2.1.7-2.1s21.3-2.3 20.5-2.1c-.2 0 5.5 1.1 5.5 1.1z"/><path id="XMLID_99_" class="st10" d="M123.5 253.9v6.7s9.2.4 17.4-.3c.7-.1 7.9-3.1 8.7-3.3.5-.1-.6-2.1-.6-2.1s-15.8-1.1-20.7-2.9c-.1-.1-4.8 1.9-4.8 1.9z"/><path id="XMLID_98_" class="st11" d="M77.7 90.5l-26.2 30.4 2.8 6.8 4.2-1.6 21-24 .8 7.6s7.6-1.6 8.8-5.7c1.6-5.3-3.1-13.6-4.2-14.6-.4-.4-6.7.9-7.2 1.1z"/><path id="XMLID_28_" class="st11" d="M51.9 128.9L78.7 140l1-3.7L53.6 119c-.1-.1-5 2.4-1.7 9.9z"/><path id="XMLID_1929_" class="st13" d="M84.9 89.3l1.4-.2s2.3 3.4 8.9 3.4c5 0 7-4.2 7-4.2l1.8.2c.4.1-2.6 2.5-3.2 11-.4 6 9.1 6.9 9.1 6.9l-.5 23.1-27.4.8-2.8-23.5s8.7-2.8 8.6-7.4c-.2-6.6-3.2-10-2.9-10.1z"/><path id="XMLID_1930_" class="st20" d="M94.9 153.5s1.3 7.5 1.5 7.5c1.8.1 18.1-4.6 17.9-5.7l-2.7-14.4-1.8-5.7-28.5.3-3.5 8.2v15l5 1.3c3.8.9 10.2 1.1 12.5 1.1.3.1-.4-7.6-.4-7.6z"/><path id="XMLID_25_" class="st11" d="M79.6 136.2c.9 1.1 1.1 3.3 1.1 3.3l-1.5 4.8-1.4 5.8.8 6.9-1.8-.1-2.7-6.4.6-12.2 4.9-2.1z"/><path id="XMLID_1931_" class="st12" d="M94.3 30c1.1.1 12.1-7 22.3 11.4 5.7 10.2 3 24-4.6 37.6 0 0-7 12.2-11.9 12.2-18 0-26.3-20.5-26.3-20.5-5.7-10.1-4.9-44 20.5-40.7z"/></g></g></g></g></svg>