<svg version="1.1" id="IMG_x5F_actividad" xmlns="http://www.w3.org/2000/svg" x="0px" y="0px" width="274px" height="274px" viewBox="0 0 274 274" xml:space="preserve"><style type="text/css">.st0{fill:#FBD6D9;} .st1{fill:#FFFFFF;} .st2{fill:#F498A1;} .st3{fill:#F1848E;} .st4{fill:#ED5463;} .st5{fill:#956341;} .st6{fill:#A4795C;} .st7{fill:#B6947D;} .st8{fill:#3BAFDA;} .st9{fill:#382120;} .st10{fill:#B67950;} .st11{fill:#BB825C;} .st12{fill:#B26146;} .st13{fill:#B16F43;} .st14{fill:#D79266;} .st15{fill:#543924;} .st16{fill:#D1814E;} .st17{fill:#DC4453;} .st18{fill:#CD7740;} .st19{fill:#4FC1EA;} .st20{fill:#CDD0DA;} .st21{fill:#A9B2BD;} .st22{fill:#F6BB43;} .st23{fill:#FFCE54;} .st24{fill:#FFC83F;} .st25{fill:#D9976D;}</style><g id="XMLID_2120_"><g id="XMLID_2121_"><path id="XMLID_3239_" class="st0" d="M0 0h274v274H0z"/><g id="XMLID_2122_"><circle id="XMLID_2123_" class="st1" cx="195.7" cy="208.2" r="8.9"/><circle id="XMLID_2124_" class="st1" cx="195.7" cy="151.3" r="8.9"/><path id="XMLID_2125_" class="st1" d="M223.9 57.2c-4.9 0-8.9 4-8.9 8.9s4 8.9 8.9 8.9 8.9-4 8.9-8.9c0-5-4-8.9-8.9-8.9z"/><circle id="XMLID_2126_" class="st1" cx="195.7" cy="37.8" r="8.9"/><path id="XMLID_2127_" class="st1" d="M223.9.3c-4.9 0-8.9 4-8.9 8.9s4 8.9 8.9 8.9 8.9-4 8.9-8.9-4-8.9-8.9-8.9z"/><circle id="XMLID_2128_" class="st1" cx="195.7" cy="94.6" r="8.9"/><path id="XMLID_2129_" class="st1" d="M166.8.3c-4.9 0-8.9 4-8.9 8.9s4 8.9 8.9 8.9 8.9-4 8.9-8.9-4-8.9-8.9-8.9z"/><path id="XMLID_2130_" class="st1" d="M166.8 57.2c-4.9 0-8.9 4-8.9 8.9s4 8.9 8.9 8.9 8.9-4 8.9-8.9c0-5-4-8.9-8.9-8.9z"/><path id="XMLID_2131_" class="st1" d="M166.8 113.9c-4.9 0-8.9 4-8.9 8.9s4 8.9 8.9 8.9 8.9-4 8.9-8.9c0-5-4-8.9-8.9-8.9z"/><path id="XMLID_2132_" class="st1" d="M166.8 227.6c-4.9 0-8.9 4-8.9 8.9s4 8.9 8.9 8.9 8.9-4 8.9-8.9-4-8.9-8.9-8.9z"/><path id="XMLID_2133_" class="st1" d="M166.8 170.7c-4.9 0-8.9 4-8.9 8.9s4 8.9 8.9 8.9 8.9-4 8.9-8.9-4-8.9-8.9-8.9z"/><path id="XMLID_2134_" class="st1" d="M271.4 9.2c0 2.5 1 4.7 2.6 6.3V2.9c-1.6 1.6-2.6 3.8-2.6 6.3z"/><path id="XMLID_2135_" class="st1" d="M274 242.8v-12.6c-1.6 1.6-2.6 3.8-2.6 6.3 0 2.4 1 4.7 2.6 6.3z"/><path id="XMLID_2136_" class="st1" d="M274 72.3V59.8c-1.6 1.6-2.6 3.8-2.6 6.3 0 2.4 1 4.6 2.6 6.2z"/><path id="XMLID_2137_" class="st1" d="M274 129v-12.6c-1.6 1.6-2.6 3.8-2.6 6.3s1 4.7 2.6 6.3z"/><path id="XMLID_2138_" class="st1" d="M274 185.9v-12.6c-1.6 1.6-2.6 3.8-2.6 6.3 0 2.4 1 4.7 2.6 6.3z"/><path id="XMLID_2139_" class="st1" d="M223.9 113.9c-4.9 0-8.9 4-8.9 8.9s4 8.9 8.9 8.9 8.9-4 8.9-8.9c0-5-4-8.9-8.9-8.9z"/><path id="XMLID_2140_" class="st1" d="M223.9 170.7c-4.9 0-8.9 4-8.9 8.9s4 8.9 8.9 8.9 8.9-4 8.9-8.9-4-8.9-8.9-8.9z"/><path id="XMLID_2141_" class="st1" d="M223.9 227.6c-4.9 0-8.9 4-8.9 8.9s4 8.9 8.9 8.9 8.9-4 8.9-8.9-4-8.9-8.9-8.9z"/><circle id="XMLID_2142_" class="st1" cx="252.3" cy="94.6" r="8.9"/><circle id="XMLID_2143_" class="st1" cx="252.3" cy="37.8" r="8.9"/><circle id="XMLID_2144_" class="st1" cx="252.3" cy="151.3" r="8.9"/><circle id="XMLID_2145_" class="st1" cx="252.3" cy="208.2" r="8.9"/><circle id="XMLID_2146_" class="st1" cx="24.9" cy="208.1" r="8.9"/><circle id="XMLID_2147_" class="st1" cx="24.9" cy="37.8" r="8.9"/><circle id="XMLID_2148_" class="st1" cx="24.9" cy="94.6" r="8.9"/><path id="XMLID_2149_" class="st1" d="M0 17.1c2.9-1.5 4.9-4.4 4.9-7.9 0-3.4-2-6.4-4.9-7.9v15.8z"/><circle id="XMLID_2150_" class="st1" cx="24.9" cy="151.3" r="8.9"/><path id="XMLID_2151_" class="st1" d="M53.1 57.1c-4.9 0-8.9 4-8.9 8.9s4 8.9 8.9 8.9 8.9-4 8.9-8.9-4-8.9-8.9-8.9z"/><path id="XMLID_2152_" class="st1" d="M53.1 170.7c-4.9 0-8.9 4-8.9 8.9s4 8.9 8.9 8.9 8.9-4 8.9-8.9-4-8.9-8.9-8.9z"/><path id="XMLID_2153_" class="st1" d="M53.1 227.6c-4.9 0-8.9 4-8.9 8.9s4 8.9 8.9 8.9 8.9-4 8.9-8.9c0-5-4-8.9-8.9-8.9z"/><path id="XMLID_2154_" class="st1" d="M53.1 113.8c-4.9 0-8.9 4-8.9 8.9s4 8.9 8.9 8.9 8.9-4 8.9-8.9-4-8.9-8.9-8.9z"/><path id="XMLID_2155_" class="st1" d="M53.1.3c-4.9 0-8.9 4-8.9 8.9s4 8.9 8.9 8.9 8.9-4 8.9-8.9S58 .3 53.1.3z"/><path id="XMLID_2156_" class="st1" d="M0 171.7v15.8c2.9-1.5 4.9-4.4 4.9-7.9s-2-6.4-4.9-7.9z"/><path id="XMLID_2157_" class="st1" d="M0 114.8v15.8c2.9-1.5 4.9-4.4 4.9-7.9 0-3.4-2-6.4-4.9-7.9z"/><path id="XMLID_2158_" class="st1" d="M0 58.1v15.8c2.9-1.5 4.9-4.4 4.9-7.9 0-3.4-2-6.4-4.9-7.9z"/><path id="XMLID_2159_" class="st1" d="M0 228.6v15.8c2.9-1.5 4.9-4.4 4.9-7.9s-2-6.5-4.9-7.9z"/><path id="XMLID_2160_" class="st1" d="M110 113.9c-4.9 0-8.9 4-8.9 8.9s4 8.9 8.9 8.9 8.9-4 8.9-8.9c0-5-4-8.9-8.9-8.9z"/><path id="XMLID_2161_" class="st1" d="M110 227.6c-4.9 0-8.9 4-8.9 8.9s4 8.9 8.9 8.9 8.9-4 8.9-8.9-4-8.9-8.9-8.9z"/><path id="XMLID_2162_" class="st1" d="M110 170.7c-4.9 0-8.9 4-8.9 8.9s4 8.9 8.9 8.9 8.9-4 8.9-8.9-4-8.9-8.9-8.9z"/><circle id="XMLID_2163_" class="st1" cx="138.4" cy="208.2" r="8.9"/><path id="XMLID_2164_" class="st1" d="M110 57.2c-4.9 0-8.9 4-8.9 8.9s4 8.9 8.9 8.9 8.9-4 8.9-8.9c0-5-4-8.9-8.9-8.9z"/><path id="XMLID_2165_" class="st1" d="M110 .3c-4.9 0-8.9 4-8.9 8.9s4 8.9 8.9 8.9 8.9-4 8.9-8.9-4-8.9-8.9-8.9z"/><circle id="XMLID_2166_" class="st1" cx="138.4" cy="37.8" r="8.9"/><circle id="XMLID_2167_" class="st1" cx="138.4" cy="94.6" r="8.9"/><circle id="XMLID_2168_" class="st1" cx="138.4" cy="151.3" r="8.9"/><circle id="XMLID_2169_" class="st1" cx="81.5" cy="208.1" r="8.9"/><circle id="XMLID_2170_" class="st1" cx="81.5" cy="37.8" r="8.9"/><circle id="XMLID_2171_" class="st1" cx="81.5" cy="94.6" r="8.9"/><circle id="XMLID_2172_" class="st1" cx="81.5" cy="151.3" r="8.9"/></g><path id="XMLID_3166_" class="st2" d="M0 249.6h274v24.6H0z"/><g id="XMLID_2173_"><path id="XMLID_3165_" class="st3" d="M4.5 249.6h5v24.6h-5z"/><path id="XMLID_3164_" class="st3" d="M24.5 249.6h5v24.6h-5z"/><path id="XMLID_3163_" class="st3" d="M44.5 249.6h5v24.6h-5z"/><path id="XMLID_3162_" class="st3" d="M64.5 249.6h5v24.6h-5z"/><path id="XMLID_3161_" class="st3" d="M84.5 249.6h5v24.6h-5z"/><path id="XMLID_3160_" class="st3" d="M104.5 249.6h5v24.6h-5z"/><path id="XMLID_3159_" class="st3" d="M124.5 249.6h5v24.6h-5z"/><path id="XMLID_3158_" class="st3" d="M144.5 249.6h5v24.6h-5z"/><path id="XMLID_3157_" class="st3" d="M164.5 249.6h5v24.6h-5z"/><path id="XMLID_3156_" class="st3" d="M184.5 249.6h5v24.6h-5z"/><path id="XMLID_3155_" class="st3" d="M204.5 249.6h5v24.6h-5z"/><path id="XMLID_3154_" class="st3" d="M224.5 249.6h5v24.6h-5z"/><path id="XMLID_3153_" class="st3" d="M244.5 249.6h5v24.6h-5z"/><path id="XMLID_3152_" class="st3" d="M264.5 249.6h5v24.6h-5z"/></g><path id="XMLID_3150_" class="st4" d="M0 241.9h274v7.7H0z"/></g><g id="XMLID_2174_"><g id="XMLID_2175_"><path id="XMLID_3148_" class="st5" d="M245.1 92.5S197 79.3 136.6 79.3c-61.5 0-104.1 13.2-104.1 13.2v129.4H245V92.5z"/><g id="XMLID_2176_"><path id="XMLID_3147_" class="st6" d="M39 105.1H27c-1.1 0-2 .9-2 2v101.1c0 1.1.9 2 2 2h12c1.1 0 2-.9 2-2V107.1c0-1.1-.9-2-2-2z"/><path id="XMLID_3146_" class="st6" d="M39 100.6H27c-1.1 0-2-.9-2-2V86.8c0-1.1.9-2 2-2h12c1.1 0 2 .9 2 2v11.8c0 1.1-.9 2-2 2z"/><path id="XMLID_3145_" class="st7" d="M26.4 100.6h13.1v4.6H26.4z"/></g><path id="XMLID_3143_" class="st7" d="M239.9 249.3h-11c-1.1 0-2-.9-2-2v-16.7h15v16.7c0 1.1-.9 2-2 2z"/><path id="XMLID_3142_" class="st7" d="M49.2 249.3h-11c-1.1 0-2-.9-2-2v-16.7h15v16.7c0 1.1-.9 2-2 2z"/><circle id="XMLID_2177_" class="st6" cx="33" cy="76.6" r="9.1"/><g id="XMLID_2178_"><path id="XMLID_3140_" class="st6" d="M251.4 105.1h-12.1c-1.1 0-2 .9-2 2v101.1c0 1.1.9 2 2 2h12.1c1.1 0 2-.9 2-2V107.1c0-1.1-.9-2-2-2z"/><path id="XMLID_3139_" class="st6" d="M251.4 100.6h-12.1c-1.1 0-2-.9-2-2V86.8c0-1.1.9-2 2-2h12.1c1.1 0 2 .9 2 2v11.8c0 1.1-.9 2-2 2z"/><path id="XMLID_3138_" class="st7" d="M238.8 100.6h13.1v4.6h-13.1z"/></g><circle id="XMLID_2179_" class="st6" cx="245.4" cy="76.6" r="9.1"/><path id="XMLID_3135_" class="st8" d="M252.4 161.9H25.7c-1.1 0-2 .9-2 2v51.6c0 1.1.9 2 2 2h226.7c1.1 0 2-.9 2-2v-51.6c0-1.1-.9-2-2-2z"/><path id="XMLID_3134_" class="st5" d="M23.7 217.5h230.7v13.8H23.7z"/><path id="XMLID_3133_" class="st8" d="M192.4 105.5s-40.5-2.6-54-2.6c-13.3 0-53.1 2.6-53.1 2.6s-3.5 11.6-4 27.6c-.2 7.4-.3 19.7 1.3 28.8h112.9s2.5-9.7 2-27.9c-.5-18.8-5.1-28.5-5.1-28.5z"/></g><g id="XMLID_2180_"><path id="XMLID_2181_" class="st9" d="M160.5 67.1c-3.9 2.9-5.6 6.3-7.1 10.6-1.7 4.9-3.4 50.1-3.3 59.4 0 0-3 6.2 33.2 3 0 .9 14.8-3.7 14.8-3.7-2-19.9 3.2-60.9-12.5-71-2.8-1.8-14.2-6.2-25.1 1.7z"/><path id="XMLID_3130_" class="st10" d="M156.9 120.5l-6.4 28.3c-.1.9 1 2.4 1.7 3 0 0 3.1.9 4-.4l11.7-27.5c.3-1 0-2-.8-2.7-1.4-1.3-3.9-3.2-6.3-3.4-.7-.1-1.8.3-2.7.7-.6.5-1.1 1.2-1.2 2z"/><path id="XMLID_3129_" class="st11" d="M160.6 117.8s9.4-2 15.6-1.3c6.2.7 14 1.6 14.9 3.2.6 1.1-5.7 24.4-5.7 37.8 0 .9 3 14.4 3 14.4s-30.2-4.4-30.3-5.8c-.3-3 4.3-10.1 4-12.3-.6-4.2.2-8.4-.5-14.7-.3-2.7-2.6-1.8-2.7-4.5-.1-1.9 1.3-3.3 1.6-5.8.6-4.3.3-9.8.1-11z"/><path id="XMLID_3128_" class="st11" d="M170.7 117.9l2.9-21.1 7.1.1-1.8 20.2-5 6.5z"/><path id="XMLID_2182_" class="st11" d="M176.4 79.1c-10.9 0-15.2-4.3-20.8 6.5-.3.5-.7.9-1.1 1.2v.2c-1 10.8 5.9 23 15.5 23.9 12.7 1.1 20.1-11.8 21-22.7.5-6.2-14.2-9.1-14.6-9.1z"/><ellipse id="XMLID_3126_" transform="rotate(5.133 179.716 93.245) scale(1.00001)" cx="179.7" cy="93.2" rx="1.6" ry="2.5"/><ellipse id="XMLID_3125_" transform="matrix(.996 .08907 -.08907 .996 8.756 -13.952)" cx="160.7" cy="91.1" rx="1.6" ry="2.5"/><path id="XMLID_3124_" class="st11" d="M167.8 116.9s-1.8 5.5 2.5 7.2c9.1 3.6 13.1-6.3 12.3-6.4-1.1-.2-7.1-1.4-7.1-1.4l-7.7.6z"/><path id="XMLID_3123_" class="st12" d="M171.1 103.2c0 .4-.9 1.1-1.7 1-.8 0-1.5-.8-1.5-1.2 0-.4.8-.7 1.7-.6.9 0 1.6.4 1.5.8z"/><path id="XMLID_3122_" class="st13" d="M170.9 97.1c0 .3-2.8.2-2.8-.1 0-.3.6-.5 1.4-.5s1.4.3 1.4.6z"/><path id="XMLID_2183_" class="st9" d="M154 88.1s16.5-1.3 37.7 2.7c0 0-1.3-17.8-18.7-18.9-17.4-1-19 16.2-19 16.2z"/></g><g id="XMLID_2184_"><g id="XMLID_2185_"><path id="XMLID_3114_" class="st14" d="M116 175.3c.1-2.6 2.7-7.1 2.7-13 0-11 .3-14.7.6-17.5l2.9 15.4c.2 0 7.4-3.4 8.8-3.7 0 0-3.4-28.5-6.7-38.2-.9-2.5-7-5-7.2-5.1-6.6-2.2-10.7-3.7-18.6-3.4-8.5.4-15 1.1-19.1 5.4-.7.6 3.9 11.6 3.9 11.6 0 .3 0 22.1-.2 36.7-.1 6.4 1.3 11.3 1.4 12 .9 2 30.8.8 31.5-.2z"/><path id="XMLID_2186_" class="st14" d="M108.2 103.7c-3.3-2.5-11.1-.6-11.2.3v5.6s-.7 5.3 6 5.2c6.4-.1 5.3-6.1 5.3-6.1s.5-4.7-.1-5z"/><path id="XMLID_818_" class="st14" d="M120.5 89.3c-.5 10.9-7.5 17.7-18.1 17.6-9.5-.1-17.1-9.9-17.5-20.8-.4-10.9 5.1-20.7 15.5-20.7 16-.1 21.1 3.9 20.1 23.9z"/><path id="XMLID_586_" class="st15" d="M82.2 68.5c3.9-6.8 17.2-11 31.3-7.5 9 2.2 10 12.3 7.7 14.7C117.3 80 90 73.5 88.4 73c-.9 10.2-.6 15.5.2 22.5.2 2-3 1.8-3.2 1.1-1.7-7.9-6.4-22.5-3.2-28.1z"/><path id="XMLID_585_" class="st14" d="M90.1 89.1c1.2 2.6 1.2 4.6-.5 5.4-1.7.8-5.6-.2-6.8-2.8-1.2-2.6-.7-5.4 1-6.1 1.8-.8 5.1.9 6.3 3.5z"/><path id="XMLID_581_" d="M94.5 86c0 1.4.7 2.6 1.6 2.6.9 0 1.7-1.1 1.7-2.5s-.7-2.6-1.6-2.6c-.9 0-1.6 1.1-1.7 2.5z"/><ellipse id="XMLID_580_" transform="matrix(-.9997 -.02351 .02351 -.9997 227.803 174.898)" cx="114.9" cy="86.1" rx="1.6" ry="2.5"/><path id="XMLID_541_" class="st15" d="M99.4 78.8s-2.3.1-4 .8c-1.2.5-2.8 1.7-2.8 1.7l1.2 1.5s1.3-.5 2.6-1.1c1.3-.6 3.4-.6 3.4-.6l-.4-2.3z"/><path id="XMLID_540_" class="st15" d="M111.3 78.9s2.3.1 4 .8c1.2.5 2.9 1.7 2.9 1.7l-1.2 1.5s-1.3-.5-2.6-1.1c-1.3-.6-3.4-.6-3.4-.6l.3-2.3z"/><path id="XMLID_2187_" class="st16" d="M104.9 92.7c0-.4.6-.8 1.4-.8s1.4.3 1.4.8-2.8.4-2.8 0z"/><path id="XMLID_2188_" class="st14" d="M66.5 139L86 128l-6.3-13.4c-.3.9-24.1 19.9-24.1 19.9-.9.8-1.2 1.8-1 3.1.9 5.1 11.9 1.4 11.9 1.4z"/><path id="XMLID_310_" class="st17" d="M105.6 100.2c-.5 0-.9-.1-1.2-.2-.6-.3-.4-1.3.3-1.3h1.2c.8 0 1.1 1.1.4 1.4-.3 0-.5.1-.7.1z"/></g><circle id="XMLID_2189_" class="st18" cx="112.7" cy="134.4" r="1.1"/><circle id="XMLID_2191_" class="st18" cx="95.8" cy="134.9" r="1.1"/></g><path id="XMLID_2192_" class="st19" d="M25.7 161.9s16.3-2.5 29.5-8.5c12.6-5.7 29.9-15.7 40-15.7 20.7 0 34.6 16.6 43.3 16.9 4.5.2 19.4 3.6 20.4-9.7.4-5.8-3.8-14.5.4-17.5.8-.6 14.3-.3 22 4.5 10.8 6.7 21.9 20.2 31.5 24.3 10.4 4.4 34.2 4.4 40.3 5.7.7.1 1.2.7 1.4 1.4 1.3 5.9 7.6 33.4 9.1 38.8 1.7 6-1.3 18.7-27.3 18.7s-222-11-225.7-15.3c-2.7-3.2 6.6-41.8 15.1-43.6z"/><path id="XMLID_100_" class="st10" d="M194.8 147.3l-8.7.2s-5.9 1.8-7.1 2.1l-23.9-4.9s-1.7 1.3-1.9 1.8c-1.8 4.2-.7 5.3-.7 5.3l26.1 2.1 12.7 4.4 1-.8-.4-.9 1.1.4 1.4-1.2-3.1-3.3 4.3 2.8 1-.8-2.7-3-5.8-2 6.7-.9v-1.3z"/><path id="XMLID_99_" class="st11" d="M191.3 119.9l3.6 19.3-5.2 4.4-1.5-4-4.2-13.8c.1 0 4.9-9.2 7.3-5.9z"/><path id="XMLID_98_" class="st10" d="M176.2 103.8l3.4 8s.8 6.1 1 7.3l14.4 19.7s-.5 2-.9 2.5c-3.1 3.4-4.6 2.8-4.6 2.8l-12.7-22.9-11.9-12.4.4-1.6 4.7 4.1-4.8-5.4.6-1 5.8 5.5-5.4-6.3.6-1.7 6.2 6.8-5.3-6.7.3-1.2 4.9 5.2 4.3 4.5-1.9-6.5.9-.7z"/><g id="XMLID_2193_"><path id="XMLID_28_" transform="rotate(-45.001 106.747 132.223)" class="st20" d="M99.9 124.8h13.6v14.9H99.9z"/><path id="XMLID_27_" class="st21" d="M114.2 133.3l-6.4 6.4c-.4.4-1 .4-1.4 0l-7.1-7.1c-.4-.4-.4-1 0-1.4l6.4-6.4c.4-.4 1-.4 1.4 0l7.1 7.1c.4.4.4 1 0 1.4z"/><circle id="XMLID_26_" class="st22" cx="106.7" cy="132.2" r="4.9"/><circle id="XMLID_25_" class="st23" cx="106.7" cy="132.2" r="4"/><path id="XMLID_24_" class="st24" d="M104.5 132.4c-.1-1.2.8-2.2 2-2.2s2.2.8 2.2 2c.1 1.2-4.1 1.4-4.2.2z"/></g><path id="XMLID_7_" class="st25" d="M86.3 138.3c0 .7-.2 6.1-.2 6.1-9.2-1.6-22.1-2.1-26-2.3-1.1-.1-5-2.9-5-2.9s-2.5-4 3.7-6.9c1-.5 5.1-.1 5.1-.1l22.4 6.1z"/><path id="XMLID_2194_" class="st25" d="M86.3 138.3l10.3-2.9 10 1 .9 1.9-4.2 1-1 8.8-3.7 1-12.5-4.7z"/></g></g></svg>