<svg version="1.1" id="IMG_x5F_actividad" xmlns="http://www.w3.org/2000/svg" x="0px" y="0px" width="274px" height="274px" viewBox="0 0 274 274" xml:space="preserve"><style type="text/css">.st0{fill:#FBD6D9;} .st1{fill:#FFFFFF;} .st2{fill:#F498A1;} .st3{fill:#F1848E;} .st4{fill:#ED5463;} .st5{fill:#BB825C;} .st6{fill:#434A54;} .st7{fill:#4B89DC;} .st8{fill:#32383F;} .st9{fill:#422D15;} .st10{fill:#AD683A;} .st11{fill:#B71E2C;} .st12{fill:#543924;} .st13{fill:#D79266;} .st14{fill:#EA573F;} .st15{fill:#AD92ED;} .st16{fill:#D38655;} .st17{fill:#735053;} .st18{fill:#977BDC;} .st19{fill:#49CFAE;} .st20{fill:#A9B2BD;} .st21{fill:#FFCE54;} .st22{fill:none;stroke:#AD683A;stroke-miterlimit:10;} .st23{fill:#F6BB43;} .st24{fill:#48341D;}</style><g id="XMLID_2407_"><g id="XMLID_2408_"><path id="XMLID_3266_" class="st0" d="M0 0h274v274H0z"/><g id="XMLID_2409_"><circle id="XMLID_2410_" class="st1" cx="195.7" cy="208.2" r="8.9"/><circle id="XMLID_2411_" class="st1" cx="195.7" cy="151.3" r="8.9"/><path id="XMLID_2412_" class="st1" d="M223.9 57.2c-4.9 0-8.9 4-8.9 8.9s4 8.9 8.9 8.9 8.9-4 8.9-8.9c0-5-4-8.9-8.9-8.9z"/><circle id="XMLID_2413_" class="st1" cx="195.7" cy="37.8" r="8.9"/><path id="XMLID_2414_" class="st1" d="M223.9.3c-4.9 0-8.9 4-8.9 8.9s4 8.9 8.9 8.9 8.9-4 8.9-8.9-4-8.9-8.9-8.9z"/><circle id="XMLID_2415_" class="st1" cx="195.7" cy="94.6" r="8.9"/><path id="XMLID_2416_" class="st1" d="M166.8.3c-4.9 0-8.9 4-8.9 8.9s4 8.9 8.9 8.9 8.9-4 8.9-8.9-4-8.9-8.9-8.9z"/><path id="XMLID_2417_" class="st1" d="M166.8 57.2c-4.9 0-8.9 4-8.9 8.9s4 8.9 8.9 8.9 8.9-4 8.9-8.9c0-5-4-8.9-8.9-8.9z"/><path id="XMLID_2418_" class="st1" d="M166.8 113.9c-4.9 0-8.9 4-8.9 8.9s4 8.9 8.9 8.9 8.9-4 8.9-8.9c0-5-4-8.9-8.9-8.9z"/><path id="XMLID_2419_" class="st1" d="M166.8 227.6c-4.9 0-8.9 4-8.9 8.9s4 8.9 8.9 8.9 8.9-4 8.9-8.9-4-8.9-8.9-8.9z"/><path id="XMLID_2420_" class="st1" d="M166.8 170.7c-4.9 0-8.9 4-8.9 8.9s4 8.9 8.9 8.9 8.9-4 8.9-8.9-4-8.9-8.9-8.9z"/><path id="XMLID_2421_" class="st1" d="M271.4 9.2c0 2.5 1 4.7 2.6 6.3V2.9c-1.6 1.6-2.6 3.8-2.6 6.3z"/><path id="XMLID_2422_" class="st1" d="M274 242.8v-12.6c-1.6 1.6-2.6 3.8-2.6 6.3 0 2.4 1 4.7 2.6 6.3z"/><path id="XMLID_2423_" class="st1" d="M274 72.3V59.8c-1.6 1.6-2.6 3.8-2.6 6.3 0 2.4 1 4.6 2.6 6.2z"/><path id="XMLID_2424_" class="st1" d="M274 129v-12.6c-1.6 1.6-2.6 3.8-2.6 6.3s1 4.7 2.6 6.3z"/><path id="XMLID_2425_" class="st1" d="M274 185.9v-12.6c-1.6 1.6-2.6 3.8-2.6 6.3 0 2.4 1 4.7 2.6 6.3z"/><path id="XMLID_2426_" class="st1" d="M223.9 113.9c-4.9 0-8.9 4-8.9 8.9s4 8.9 8.9 8.9 8.9-4 8.9-8.9c0-5-4-8.9-8.9-8.9z"/><path id="XMLID_2427_" class="st1" d="M223.9 170.7c-4.9 0-8.9 4-8.9 8.9s4 8.9 8.9 8.9 8.9-4 8.9-8.9-4-8.9-8.9-8.9z"/><path id="XMLID_2428_" class="st1" d="M223.9 227.6c-4.9 0-8.9 4-8.9 8.9s4 8.9 8.9 8.9 8.9-4 8.9-8.9-4-8.9-8.9-8.9z"/><circle id="XMLID_2429_" class="st1" cx="252.3" cy="94.6" r="8.9"/><circle id="XMLID_2430_" class="st1" cx="252.3" cy="37.8" r="8.9"/><circle id="XMLID_2431_" class="st1" cx="252.3" cy="151.3" r="8.9"/><circle id="XMLID_2432_" class="st1" cx="252.3" cy="208.2" r="8.9"/><circle id="XMLID_2433_" class="st1" cx="24.9" cy="208.1" r="8.9"/><circle id="XMLID_2434_" class="st1" cx="24.9" cy="37.8" r="8.9"/><circle id="XMLID_2435_" class="st1" cx="24.9" cy="94.6" r="8.9"/><path id="XMLID_2436_" class="st1" d="M0 17.1c2.9-1.5 4.9-4.4 4.9-7.9 0-3.4-2-6.4-4.9-7.9v15.8z"/><circle id="XMLID_2437_" class="st1" cx="24.9" cy="151.3" r="8.9"/><path id="XMLID_2438_" class="st1" d="M53.1 57.1c-4.9 0-8.9 4-8.9 8.9s4 8.9 8.9 8.9 8.9-4 8.9-8.9-4-8.9-8.9-8.9z"/><path id="XMLID_2439_" class="st1" d="M53.1 170.7c-4.9 0-8.9 4-8.9 8.9s4 8.9 8.9 8.9 8.9-4 8.9-8.9-4-8.9-8.9-8.9z"/><path id="XMLID_2440_" class="st1" d="M53.1 227.6c-4.9 0-8.9 4-8.9 8.9s4 8.9 8.9 8.9 8.9-4 8.9-8.9c0-5-4-8.9-8.9-8.9z"/><path id="XMLID_2441_" class="st1" d="M53.1 113.8c-4.9 0-8.9 4-8.9 8.9s4 8.9 8.9 8.9 8.9-4 8.9-8.9-4-8.9-8.9-8.9z"/><path id="XMLID_2442_" class="st1" d="M53.1.3c-4.9 0-8.9 4-8.9 8.9s4 8.9 8.9 8.9 8.9-4 8.9-8.9S58 .3 53.1.3z"/><path id="XMLID_2443_" class="st1" d="M0 171.7v15.8c2.9-1.5 4.9-4.4 4.9-7.9s-2-6.4-4.9-7.9z"/><path id="XMLID_2444_" class="st1" d="M0 114.8v15.8c2.9-1.5 4.9-4.4 4.9-7.9 0-3.4-2-6.4-4.9-7.9z"/><path id="XMLID_2445_" class="st1" d="M0 58.1v15.8c2.9-1.5 4.9-4.4 4.9-7.9 0-3.4-2-6.4-4.9-7.9z"/><path id="XMLID_2446_" class="st1" d="M0 228.6v15.8c2.9-1.5 4.9-4.4 4.9-7.9s-2-6.5-4.9-7.9z"/><path id="XMLID_2447_" class="st1" d="M110 113.9c-4.9 0-8.9 4-8.9 8.9s4 8.9 8.9 8.9 8.9-4 8.9-8.9c0-5-4-8.9-8.9-8.9z"/><path id="XMLID_2448_" class="st1" d="M110 227.6c-4.9 0-8.9 4-8.9 8.9s4 8.9 8.9 8.9 8.9-4 8.9-8.9-4-8.9-8.9-8.9z"/><path id="XMLID_2449_" class="st1" d="M110 170.7c-4.9 0-8.9 4-8.9 8.9s4 8.9 8.9 8.9 8.9-4 8.9-8.9-4-8.9-8.9-8.9z"/><circle id="XMLID_2450_" class="st1" cx="138.4" cy="208.2" r="8.9"/><path id="XMLID_2451_" class="st1" d="M110 57.2c-4.9 0-8.9 4-8.9 8.9s4 8.9 8.9 8.9 8.9-4 8.9-8.9c0-5-4-8.9-8.9-8.9z"/><path id="XMLID_2452_" class="st1" d="M110 .3c-4.9 0-8.9 4-8.9 8.9s4 8.9 8.9 8.9 8.9-4 8.9-8.9-4-8.9-8.9-8.9z"/><circle id="XMLID_2453_" class="st1" cx="138.4" cy="37.8" r="8.9"/><circle id="XMLID_2454_" class="st1" cx="138.4" cy="94.6" r="8.9"/><circle id="XMLID_2455_" class="st1" cx="138.4" cy="151.3" r="8.9"/><circle id="XMLID_2456_" class="st1" cx="81.5" cy="208.1" r="8.9"/><circle id="XMLID_2457_" class="st1" cx="81.5" cy="37.8" r="8.9"/><circle id="XMLID_2458_" class="st1" cx="81.5" cy="94.6" r="8.9"/><circle id="XMLID_2459_" class="st1" cx="81.5" cy="151.3" r="8.9"/></g><path id="XMLID_3194_" class="st2" d="M0 249.6h274v24.6H0z"/><g id="XMLID_2460_"><path id="XMLID_3193_" class="st3" d="M4.5 249.6h5v24.6h-5z"/><path id="XMLID_3192_" class="st3" d="M24.5 249.6h5v24.6h-5z"/><path id="XMLID_3190_" class="st3" d="M44.5 249.6h5v24.6h-5z"/><path id="XMLID_3189_" class="st3" d="M64.5 249.6h5v24.6h-5z"/><path id="XMLID_3188_" class="st3" d="M84.5 249.6h5v24.6h-5z"/><path id="XMLID_3187_" class="st3" d="M104.5 249.6h5v24.6h-5z"/><path id="XMLID_3186_" class="st3" d="M124.5 249.6h5v24.6h-5z"/><path id="XMLID_3185_" class="st3" d="M144.5 249.6h5v24.6h-5z"/><path id="XMLID_3184_" class="st3" d="M164.5 249.6h5v24.6h-5z"/><path id="XMLID_3183_" class="st3" d="M184.5 249.6h5v24.6h-5z"/><path id="XMLID_3182_" class="st3" d="M204.5 249.6h5v24.6h-5z"/><path id="XMLID_3181_" class="st3" d="M224.5 249.6h5v24.6h-5z"/><path id="XMLID_3180_" class="st3" d="M244.5 249.6h5v24.6h-5z"/><path id="XMLID_3179_" class="st3" d="M264.5 249.6h5v24.6h-5z"/></g><path id="XMLID_3177_" class="st4" d="M0 241.9h274v7.7H0z"/></g><g id="XMLID_2461_"><g id="XMLID_2462_"><g id="XMLID_2463_"><path id="XMLID_3175_" class="st5" d="M31.6 91.1S24 97.3 20 100.6c-3.3 2.7-14.2 12.9-14.2 12.9l.4 5.1 7.6 3.1s10.9-5.1 13.9-7.1c2.2-1.5 8.7-7.9 8.7-7.9s3.3-11.2 1-15.3c-.7-1.1-4.6-.6-5.8-.3z"/><path id="XMLID_3174_" class="st6" d="M70.3 240.2l-.1 7.4s31.1.6 33.9.6c.6 0 0-3 0-3-23.3-4.7-23.2-5.5-25.6-5.4.9-.1-8.2.4-8.2.4z"/><path id="XMLID_3173_" class="st6" d="M48.3 240.7l-.5 8.1s20.3 5.6 22.4 5.7c.4 0 4.7-.7 4.7-.7s.5-2.4-.5-2.7c-6.8-2-19.8-10.7-19.3-10.7.8.1-6.8.3-6.8.3z"/><path id="XMLID_2464_" class="st7" d="M84.1 235.3l.3-72.4-.6-9.9c-2.9-5-24.5-12.5-24.5-12.5-5.8 1.2-17.6 4-19.6 7.8l.1 17.4c0 .5 0 1 .1 1.5l6.1 70.6c.3 3.1 1.8 5.4 4.9 5.3l6-.2c2.2-.1 3.9-1.8 3.9-4l1.5-72.7 5.9 70.5c.3 3 3 5.2 5.9 4.8l5.2-.7c2.8-.5 4.8-2.8 4.8-5.5z"/><path id="XMLID_3171_" class="st5" d="M83.9 89.4s8.4 4.6 12 7.3c5.2 4 12 10.4 12 10.4l-4.3 10s-8.8-4.8-14.2-8.2c-4.2-2.6-10-6.7-10-6.7s1.1-14.5 4.5-12.8z"/><path id="XMLID_2465_" class="st6" d="M70.5 157.2c7.7.1 13.8 0 13.9-.3 5.2-22.9-1.9-37.5-1.1-44.2 0 0 .2-23.7-.1-23.6-3.2-.9-17.7-3.7-25.8-3.3-9.6.5-24 4.9-25.1 5.2-.2 0 5.1 20.3 5.1 20.3 0 .1-1.6 13.6-1.3 25.8.2 10.2 2.4 19.5 2.4 19.5s18.5.4 32 .6"/><path id="XMLID_3169_" class="st5" d="M90.1 128c-1.4-.4-10 2.9-10 2.9l6.2 11.1 7.3-9.3-3.5-4.7z"/><path id="XMLID_3168_" class="st5" d="M109.8 117.5l-16.1 15.2-3.5-4.7 13.4-24.5s6.8 5 8.3 7.9c.8 1.6 0 3.7-2.1 6.1z"/><path id="XMLID_3167_" class="st5" d="M14.2 114l-6.4-2.3s-6.9 5-2.9 9.6l24.6 15.6 7 8.3 6.9-10.1-10-5.3L14.2 114z"/></g><path id="XMLID_2466_" class="st8" d="M32.4 90.9l5.1 20.3s.9-1.8 0-12c-.2-1.8-2-9.2-2-9.2l-3.1.9z"/><path id="XMLID_2467_" class="st8" d="M83.3 112.6L83.2 89l-2.7-.6s-.2 10.9.3 15.2c.4 4.2 2.5 9 2.5 9z"/><path id="XMLID_2468_" class="st8" d="M51.4 86.3l-2.5.6s3 6.4 10.9 6.1c9-.4 10.2-6.4 10.2-6.4s-12.1-2.2-18.6-.3z"/><path id="XMLID_3162_" class="st1" d="M64.3 73.5c-.2-.1-.5-.1-.7-.2 0-.2.1-.4.1-.4l.6.6z"/><path id="XMLID_2469_" class="st5" d="M57.1 38.9c-10 .7-15.5 10.7-15 21.7.4 9 1 14.8 8.4 19.7l.2 6.4s2.6 4 8.7 4.1c5.1.1 8.1-3.6 8.1-3.6v-5.6c5.6-2.6 8.5-5.2 9.1-14.8 1.2-20.1-.9-29.3-19.5-27.9z"/><path id="XMLID_3160_" class="st9" d="M37.6 42.5C41.9 31.1 56 30.2 62.2 31.4c3.7.8 6.4 2.5 7.6 7.8.3 1.2 3.2 3.1.2 4.6-7.5 3.8-13.2.3-20.9 2.1-5.8 1.4-4.4 3.5-5.9 11.8-.5 2.6-1.2 3.1.3 13.8.8 5.9-6.3 3.6-5.7 3.2 2.9-1.5 1.1-5.5-1-20.8-.4-3.2-.8-7.3.8-11.4z"/><ellipse id="XMLID_3159_" transform="rotate(.783 70.43 61.567)" cx="70.4" cy="61.6" rx="1.5" ry="2.2"/><ellipse id="XMLID_3158_" transform="rotate(.769 54.415 61.483) scale(.99999)" cx="54.4" cy="61.5" rx="1.5" ry="2.2"/><path id="XMLID_3157_" class="st9" d="M65.4 55.8s4.7-1.6 6.6-1.7c1.4-.1 3.5.9 3.5.9l-.1 1.2s-.6-.1-3 .2c-1.5.2-6.1 1.4-6.1 1.4l-.9-2z"/><path id="XMLID_3156_" class="st9" d="M59.9 55.8s-4.7-1.5-6.6-1.6c-1.4-.1-3.5 1-3.5 1l.1 1.2s.6-.1 3 .2c1.5.2 6.1 1.3 6.1 1.3l.9-2.1z"/><path id="XMLID_3155_" class="st5" d="M46 63.2c1.1 2.6 1.2 4.7-.5 5.5-1.7.8-5.4-.2-6.6-2.8-1.1-2.6-.7-5.4 1-6.2 1.7-.9 4.9.8 6.1 3.5z"/><path id="XMLID_3154_" class="st1" d="M66.5 75.1c-.7.1-1.1-.6-3.7-.5-2.4.1-6 1.6-6.6.9-.1-.1-.8-2.9-.3-4 .4-.8 1.2-1.2 2.1-1.1 1.2.1 5.5 1.4 6.1 1.5 2.5.5 3.7.7 3.7.7s-.4 2.3-1.3 2.5z"/><path id="XMLID_3153_" class="st9" d="M76.7 62.1s1.8-12.8 1.2-16.1c-2.4-12.2-11.1-12.2-13.6-12.7-2.5-.4 4.5 9.2 6.4 9.9 5.1 2 6 18.9 6 18.9z"/><path id="XMLID_2470_" class="st10" d="M61.2 66.4c0-.5.7-.9 1.5-.9s1.5.4 1.5.9c.1.5-3 .5-3 0z"/></g><g id="XMLID_2471_"><path id="XMLID_2472_" class="st11" d="M159.2 177.3c1.6-.4 19.8-9.9 19.8-9.9l-3.2-18.6-20.6 1.6 4 26.9z"/><path id="XMLID_3149_" class="st12" d="M148.3 56.4c-2.5 4.4-7.6 49.9-9.3 55.8 0 0 3.4 8 40.3 4.5 4.5-.4 10.9-23.3 14.9-26.2 1.8-1.3-1.9-22.5-1.9-22.5s2-16.7-16.6-22.5c-10-3.1-18-5.6-27.4 10.9z"/><path id="XMLID_3148_" class="st13" d="M149.3 99.3l-6.7 31.6 3.3 5.1 2.5 1.4 6.9-29.2c0-.1-.1-21.4-6-8.9z"/><path id="XMLID_3147_" class="st13" d="M129.7 111c-.3-.2-1.6-1-3-2-2.5-1.6-13.1-1.2-13.1-1.2l-.2 1.4 7.4 1.7s-1.8 2.8 2.6 4.7c4.4 1.9 12.8.3 6.3-4.6z"/><path id="XMLID_3146_" class="st13" d="M147.1 138.8c-2.4.5-6.3-4.8-7.6-6.7l-11-16.9 2.7-2.8 14.7 15.8c0-.1 4.8 9.9 1.2 10.6z"/><path id="XMLID_3145_" class="st12" d="M199.3 113.8s-21 7.8-21.9 5c-1.4-4.3 5.4-58.9 2-62.5-1.6-1.7-30.1 6.9-30.1 6.9s-.2-20.3 19.4-21.3c30-1.6 28.3 49 30.6 71.9z"/><path id="XMLID_3144_" class="st13" d="M167.3 147.2l-2.2 96.1-3.9 1-8.7-93.2s12.1-10 14.8-3.9z"/><path id="XMLID_3143_" class="st13" d="M168.7 150.6l6.5 96.3 3.4-1.3 6.1-94.5c-.1 0-15.2-7.3-16-.5z"/><path id="XMLID_3142_" class="st14" d="M152.4 95.3s11.9-1.9 17.9-1.2c6 .7 16.3 1.6 17.2 3.1.6 1-6.6 23.6-6.6 36.6 0 .9 6.2 12.6 6.2 12.6s-37-3-37.2-4.3c-.3-2.9 4.7-9.8 4.4-11.9-1.3-9.7-1.3-30.6-1.9-34.9z"/><path id="XMLID_3141_" class="st13" d="M165 95.4l2.8-20.5 6.8.1-1.7 19.6-4.9 6.2z"/><path id="XMLID_2473_" class="st13" d="M179.1 52.9c-.3.1-.7.2-1 .2-10.6 0-22.3.5-27.8 11-.3.5-.6.9-1 1.1v.2c-.9 10.5 5.7 22.3 15 23.1 12.3 1.1 19.4-11.5 20.4-21.9.4-6-1.7-10.7-5.6-13.7z"/><path id="XMLID_3139_" class="st12" d="M155 55.5c-.4.3-9.2 13.6-9.2 13.6s21.5-5.7 26.2-14.4c4.7-8.7-11.4-3.9-17 .8z"/><path id="XMLID_3138_" class="st12" d="M188.2 57.6c.2.4.5 14.4.5 14.4s-18.1-13.4-17.1-22.1c.9-8.6 13.6 1.6 16.6 7.7z"/><ellipse id="XMLID_3137_" transform="matrix(.996 .08974 -.08974 .996 6.965 -15.312)" cx="173.8" cy="69.8" rx="1.5" ry="2.3"/><ellipse id="XMLID_3136_" transform="matrix(.996 .08896 -.08896 .996 6.792 -13.537)" cx="155.3" cy="69.4" rx="1.5" ry="2.3"/><path id="XMLID_3135_" class="st13" d="M162.3 94s-1.7 5.3 2.5 7c8.8 3.5 12.7-6.1 11.9-6.2-1-.2-6.9-1.4-6.9-1.4l-7.5.6z"/><path id="XMLID_3134_" class="st13" d="M186.8 96.5l23.1 26.2-2.5 6.1-3.7-1.4-20.5-22.5c0-.1 0-10.2 3.6-8.4z"/><path id="XMLID_3133_" class="st13" d="M210.2 128.5l-19.9 10.3-1.7-4.1L208 121c.1-.1 5 3.3 2.2 7.5z"/><path id="XMLID_3132_" class="st1" d="M168 79.2c.6.6 1 3.5-.1 4.6-.5.5.1.2-4.5-.2-1.1-.1-2.9.3-3.8-.6-.9-.8-.4-2.2.3-2.9.3-.3 2.5 0 3.9-.2 2.1-.5 3.7-1.2 4.2-.7z"/><ellipse id="XMLID_2474_" class="st14" cx="156.7" cy="113.3" rx="6.8" ry="6.6"/><path id="XMLID_2475_" class="st15" d="M181.1 133.1s-27.1.2-28.3.2c-1.2 0-4.9 8.8-4.9 15.9s2.4 42.6 2.4 42.6l35.7.1s2.5-31.1 2.3-40.8c-.2-6-4-11.8-4.1-12.2-.3-.9-3.1-5.8-3.1-5.8z"/><path id="XMLID_3129_" class="st13" d="M181.2 136.9c0-.5 8.8-2.8 8.8-2.8l2.5 2.5-7.9 9.6c-.1-.1-3.6-7.7-3.4-9.3z"/><path id="XMLID_3128_" class="st13" d="M165.7 244.8c0-1.1-.8-4.4-.8-4.4s-15 6.3-18.5 7.7h.1c-2.8 1-4.9 1.8-4.9 1.8s-.2 1.5.3 1.4c.7-.1 7.4-.1 8-.3 7.1-1.6 16.4-3.5 16.4-3.5l-.6-2.7z"/><path id="XMLID_3127_" class="st13" d="M174.1 245.4c0-1.1.7-4.5.7-4.5s15.2 6 18.7 7.2h-.1c2.8.9 5 1.6 5 1.6s.3 1.5-.2 1.4c-.7-.1-7.4 0-8-.1-7.2-1.4-16.5-3.1-16.5-3.1l.4-2.5z"/><path id="XMLID_3126_" class="st12" d="M170.8 64s2-1 3.7-1.4c1.2-.3 3.2-.4 3.2-.4l-.2.9s-1 .4-2.3.7c-1.3.3-3.6 1.5-3.6 1.5l-.8-1.3z"/><path id="XMLID_3125_" class="st12" d="M159 64s-2-1-3.7-1.4c-1.2-.3-3.2-.4-3.2-.4l.2.9s1 .4 2.3.7c1.3.3 3.6 1.5 3.6 1.5l.8-1.3z"/><path id="XMLID_2476_" class="st16" d="M161.9 74.5c0-.4.8-.8 1.8-.8s1.8.4 1.8.8c0 .5-3.6.4-3.6 0z"/><path id="XMLID_2477_" class="st17" d="M141.5 252.5l.1-2.7 9.4-4 2.9 2.2 11.8-4.2.8 5.1-17.1 4z"/><path id="XMLID_2478_" class="st17" d="M173.9 244.3l-.3 5.5 16.4 2.9 8.6-1.3-.2-1.6-8.5-3.5-2.3 1.7z"/><path id="XMLID_2479_" class="st18" d="M152.7 133.2l.6-5.2 28.1.4-.2 4.7z"/></g><g id="XMLID_2480_"><path id="XMLID_2481_" class="st9" d="M256.6 76.7s12.6 25.9 5.8 34.5c-3.4 4.3-6.8 7-8.2 9.6-2.3 4.2.9 6.4.9 6.4s-14.8-5.2-9.4-18.9c1.5-3.8 6.9-12.9 5.2-19.3-1.7-6.5 5.7-12.3 5.7-12.3z"/><path id="XMLID_3113_" class="st19" d="M226.8 259.6l-1.4-88.7c-.2-5.1 2.5-20 10.7-21.3 7.4-1.1 17.7 17.8 17.7 17.8l-1.7 88.7-5.5-.2-7.1-81.8c-.1-.6-.2-.4-.4.3l-6.8 85.4-5.5-.2z"/><path id="XMLID_2482_" class="st9" d="M224.3 72.3s-13.4 15.2-4.7 36.2c5 12.1-2.4 11.2-2.4 11.2l20.2 2.8 4.3-14.4-17.4-35.8z"/><path id="XMLID_586_" class="st20" d="M244 234.8c3.7.7 6.8.9 10 0l-.5 21.8c4.5 1.9 9.9 4.1 11.9 4.8h-.1c2.8.9 4.9 1.7 4.9 1.7s.4 1.9 0 1.9c-.7 0-7 .7-7.6.6-6.9-1.1-16-2.6-16-2.6v-1.2l-2.6-27z"/><path id="XMLID_585_" class="st20" d="M209.1 263.1s2.2-.6 5-1.3h-.1c2-.6 7.5-2.4 12-4l-.8-23.3c3.1.9 6.2 1.1 9.7.7l-2 24c0 .8-.1 1.5-.2 1.9l-.2 3.4s-9.1.9-16.1 1.6c-.6.1-6.8-1.1-7.5-1.1-.4 0 .2-1.9.2-1.9z"/><path id="XMLID_581_" class="st5" d="M227.4 117.8l-9 26 4 4.8 2.5-3.3 8.8-22.7c.1 0-3.6-7.4-6.3-4.8z"/><path id="XMLID_580_" class="st21" d="M227.3 117.5s8.5-2.2 14.2-1.8c5.7.4 14 2.2 14.7 2.4 1.1.4-8 18.8-5.8 29.5 1.1 5.3 2.8 10.4 3.5 14.7.8 5.2.6 9.1.6 9.1s-29.8-.3-30-1.5c-.2-1.1 0-3.8 1-8.2 1.3-5.6 4.7-14.8 4.1-18.6-1.7-11.3-1.6-21.5-2.3-25.6z"/><path id="XMLID_541_" class="st5" d="M238.5 115.4l1.9-18.8 6.4-.2-.7 19.6s-.1 2.8-4.9 2.8c-2.8 0-2.7-3.4-2.7-3.4z"/><path id="XMLID_540_" class="st5" d="M220.4 89.7c-.5 9.9 6.6 20.8 15.8 21.2 12.2.5 18.7-11.7 19.2-21.6.5-9.9-6.8-15.6-17.1-16-10.5-.5-17.4 6.4-17.9 16.4z"/><path id="XMLID_539_" d="M245.1 93.3c-.1 1.3-.8 2.3-1.6 2.3s-1.5-1.1-1.4-2.4c.1-1.3.8-1.2 1.6-1.1.8-.1 1.4-.1 1.4 1.2z"/><path id="XMLID_538_" d="M227.6 92.1c-.1 1.3-.8 2.3-1.6 2.3s-1.5-1.1-1.4-2.4c.1-1.3.8-1.2 1.6-1.1.8 0 1.5 0 1.4 1.2z"/><path id="XMLID_537_" class="st22" d="M236.9 103.2c-.5-.4-1.2-.7-2-.8-1.5-.2-2.8 0-3.9.6"/><g id="XMLID_2483_"><path id="XMLID_311_" d="M245.9 89.1c-1.7-3.5-5.1-2.8-5.3-2.8l-.2-1.1s4.4-.9 6.5 3.4l-1 .5z"/></g><g id="XMLID_2484_"><path id="XMLID_309_" d="M229.7 86.7c-3.7-1.2-5.6 1.8-5.6 1.9l-1-.6s2.4-3.9 6.9-2.4l-.3 1.1z"/></g><path id="XMLID_307_" class="st9" d="M259.7 93.7s-8.1 10.1-8 7.3c.5-8.7-1-21.5-8.2-22.4-2.1-.3-23.1 8.3-23.1 8.3s-2.4-20.1 17.7-21.8c15.9-1.4 29.1 8.7 21.6 28.6z"/><path id="XMLID_102_" class="st9" d="M245.8 77.5s-6.9 5.3-12.1 7.5-5.5 1.7-5.5 1.7l4.7-4.5 6-4.7h6.9z"/><path id="XMLID_2485_" class="st10" d="M234.4 97.2c0-.4-.5-.8-1.1-.8s-1.1.4-1.1.8c0 .5 2.2.5 2.2 0z"/><path id="XMLID_100_" class="st23" d="M223.7 123.8l4.2 1.9s.6-7.5-.7-8.1c0 0-.9.1-1.8 1.3s-1.7 4.9-1.7 4.9z"/><path id="XMLID_2486_" class="st23" d="M238.5 115.4l-2 .5s.3 4.1 4.4 4.5 7.6-3.8 7.6-3.8l-2.4-.6s-2.2 2.7-4.5 2.6c-2.6 0-3.1-3.2-3.1-3.2z"/><ellipse id="XMLID_2487_" class="st5" cx="251.9" cy="95.9" rx="3.2" ry="4.2"/><path id="XMLID_28_" class="st5" d="M231.9 146.1c-.4 0-5.8-3.8-5.8-3.8l-7.5-1.4v1l5.7 1.8-5.3.9-2.5 2 .7.8 3.8-1.6-3.2 2.4 1 1.3 1-.2-.5.8.7.9 12.1-2.1-.2-2.8z"/><path id="XMLID_27_" class="st5" d="M254.4 143.5l-24.5 2.1.1 3.4 25.2 1.4c-.1 0 4.7-6-.8-6.9z"/><path id="XMLID_26_" class="st5" d="M242.4 142.3c.5.1 6.9-2.6 6.9-2.6l8.9.5v1.1l-6.7.4 6.5 2.2.8.8-.2 1.5-3.2-.5 3.7 3.2-1.2 1.1-1.2-.5.6 1-.9.8-14.2-5.8.2-3.2z"/><path id="XMLID_25_" class="st5" d="M221.9 149.9l21.6-3.9-.1-3.8-24.8.9c.1 0-1.6 4.2 3.3 6.8z"/><path id="XMLID_2488_" class="st24" d="M247 80c-.2-.3 9.8 9.3 14.9 7.4 0 0 3.7 3.5-10.6 4.2 0 0 0-5.3-4.3-11.6z"/><path id="XMLID_8_" class="st5" d="M257 120l-.1 27.1-2.5.9-3.5-1.7-2.8-20.1c.1 0 7.9-10.1 8.9-6.2z"/><path id="XMLID_7_" class="st23" d="M258.6 125.3l-11.3 1s2.6-9.1 8.9-8.1c0 0 .7 1.3 1.3 2.6s1.1 4.5 1.1 4.5z"/></g></g></g></svg>