<svg version="1.1" id="IMG_x5F_01" xmlns="http://www.w3.org/2000/svg" xmlns:xlink="http://www.w3.org/1999/xlink" x="0px" y="0px" width="274px" height="274px" viewBox="0 0 274 274" xml:space="preserve"><style type="text/css">.st0{fill:#F7ADB4;} .st1{clip-path:url(#XMLID_18_);} .st2{fill:#F498A1;} .st3{clip-path:url(#XMLID_18_);fill:#F498A1;} .st4{fill:#F1848E;} .st5{clip-path:url(#XMLID_18_);fill:#ED5463;} .st6{fill:#DFA885;} .st7{fill:#8DC050;} .st8{fill:#4B89DC;} .st9{fill:#F6F7FA;} .st10{fill:#59300F;} .st11{fill:#FFFFFF;} .st12{fill:#D8966C;} .st13{fill:#26456E;} .st14{fill:#F6BB43;} .st15{clip-path:url(#XMLID_19_);} .st16{fill:#FFCE54;} .st17{fill:#5D9BEC;} .st18{fill:#646D78;} .st19{fill:#3D7FD9;} .st20{fill:#DE8F5B;} .st21{fill:#E1996A;} .st22{fill:#FB6E52;} .st23{fill:#D97D41;} .st24{fill:#EA573F;} .st25{fill:#4FC1EA;}</style><g id="XMLID_1889_"><circle id="XMLID_1890_" class="st0" cx="136.4" cy="136.4" r="136.4"/><g id="XMLID_1891_"><defs><circle id="XMLID_6_" cx="136.4" cy="136.4" r="136.4"/></defs><clipPath id="XMLID_18_"><use xlink:href="#XMLID_6_" overflow="visible"/></clipPath><g id="XMLID_1892_" class="st1"><path id="XMLID_2654_" transform="rotate(45.001 219.694 53.505)" class="st2" d="M69.4 44H370v19H69.4z"/><path id="XMLID_2653_" transform="rotate(45.001 52.855 220.348)" class="st2" d="M-97.5 210.8h300.6v19H-97.5z"/><path id="XMLID_2652_" transform="rotate(45.001 80.661 192.54)" class="st2" d="M-69.6 183H231v19H-69.6z"/><path id="XMLID_2651_" transform="rotate(45.001 108.468 164.734)" class="st2" d="M-41.8 155.2h300.6v19H-41.8z"/><path id="XMLID_2650_" transform="rotate(45.001 136.275 136.926)" class="st2" d="M-14 127.4h300.6v19H-14z"/><path id="XMLID_2649_" transform="rotate(45.001 164.081 109.12)" class="st2" d="M13.8 99.6h300.6v19H13.8z"/><path id="XMLID_2648_" transform="rotate(45.001 191.888 81.312)" class="st2" d="M41.6 71.8h300.6v19H41.6z"/></g><path id="XMLID_2646_" class="st3" d="M.4 247.3h274v24.6H.4z"/><g id="XMLID_1893_" class="st1"><path id="XMLID_2645_" class="st4" d="M64.9 247.3h5v24.6h-5z"/><path id="XMLID_2644_" class="st4" d="M84.9 247.3h5v24.6h-5z"/><path id="XMLID_2643_" class="st4" d="M104.9 247.3h5v24.6h-5z"/><path id="XMLID_2642_" class="st4" d="M124.9 247.3h5v24.6h-5z"/><path id="XMLID_2641_" class="st4" d="M144.9 247.3h5v24.6h-5z"/><path id="XMLID_2640_" class="st4" d="M164.9 247.3h5v24.6h-5z"/><path id="XMLID_2639_" class="st4" d="M184.9 247.3h5v24.6h-5z"/><path id="XMLID_2638_" class="st4" d="M204.9 247.3h5v24.6h-5z"/></g><path id="XMLID_2636_" class="st5" d="M.4 239.6h274v7.7H.4z"/><g id="XMLID_1894_" class="st1"><g id="XMLID_1895_"><path id="XMLID_2635_" class="st6" d="M161.6 129.9l4.1 8.4s11.6 1.6 12-6.6l-11.3-48.4 1.7-3.6.9-10.4 4-11.6-2.1-1.1-6 10 4-16.7-3.3-1.9-5.4 16.9-.7-18.8-3.4.5-.6 18.4-6.9-15.2-2.3 2.1 5.1 16-.4 4.5c-.1.9-1.2 1.4-1.9.8l-6.9-3.9c-2.3-1.1-3.3-.8-3.8.3l6.7 7.4 5.8 6.2 5 3.1 5.7 43.6z"/><path id="XMLID_1896_" class="st7" d="M121.1 241.6l-71.6.9s85.4 61.7 78.8 31.8c-4-18.1-7.2-32.7-7.2-32.7z"/><path id="XMLID_2633_" class="st6" d="M.6 89.3L2.9 81l21.3-30.4-5.8 15.8.2 4.5c0 .9 1.1 1.5 1.9.9l7.1-3.6c2.3-1 3.4-.7 3.8.5l-7 7-6 6-5.1 2.9-1.5 8.2L.6 89.3z"/><path id="XMLID_1897_" class="st8" d="M180.4 151.9c1.7 0 2.7-.1 2.7-.1l-11-61.1-19 2 6.4 39.8-42.2-.5c-7.3-1.6-19.9-4-32.3-4.4-14-.3-24.8 2.2-31.3 4.4l-46.4-1.5L15.6 91 .2 88.7v61.9l46.6 5.1.8 89.8s76.6 1.7 76.4-.1c-2.6-20.1-3.1-62.9-2.1-89.6l58.5-3.9z"/><path id="XMLID_1898_" class="st9" d="M62.6 129.5s16.9 26.6 21 28.7c4.1 2.1 17.6-26.7 17.6-28.3 0-1.7-15.6-18.4-38.6-.4z"/><path id="XMLID_1899_" class="st10" d="M111.1 45.4s12.8 20.7 2.8 49.2c-2.7 7.6-30.8-45.3-29.5-46 1.4-.6 22.1-13.1 26.7-3.2z"/><path id="XMLID_2629_" class="st11" d="M91.7 103.7c-.4-.1-.9-.2-1.3-.3.1-.4.1-.7.1-.8l1.2 1.1z"/><path id="XMLID_2628_" class="st6" d="M93.4 130.1l-.1-26-24.1.6.8 24.5 12.8 7.5z"/><path id="XMLID_2627_" class="st6" d="M115.1 91.1c-.5 20.1-17.4 28.4-34.9 27.6-22.7-1.1-28.9-17.6-31-37.6-3.9-37.6 8.5-38.4 27.7-38.9 29.5-.7 39.1 12.1 38.2 48.9z"/><path id="XMLID_1900_" class="st10" d="M107.9 40.4c-19.1-9.5-51.3-10.8-61.1 8.2-5.2 10.1-6.1 34.8-2.6 48.6.3 1.3 10.8 9.4 10.3 5.8-1.8-12.2-3.7-24.5-.8-42.6-.5-4.1 6.6-20.5 53.6-5.9 1.9.4 4.5 3.1 5.6 2.6.5-3.2 0-12.8-5-16.7z"/><ellipse id="XMLID_1901_" cx="70" cy="80.4" rx="3.3" ry="5.1"/><ellipse id="XMLID_1902_" cx="101.1" cy="80" rx="3.3" ry="5.1"/><path id="XMLID_2623_" class="st6" d="M58.9 86.5c2.3 4.8 2.5 8.5-.7 10s-10.4-.1-12.6-4.8c-2.3-4.8-1.5-9.9 1.6-11.4s9.4 1.5 11.7 6.2z"/><path id="XMLID_2622_" class="st10" d="M93.6 69.4s6.1-1.6 9.8-1.4c2.6.1 6.8.8 6.8.8l-1.2 3.3s-3.5.6-6.4.8c-4.3.4-7.3 1.6-7.3 1.6l-1.7-5.1z"/><path id="XMLID_2621_" class="st10" d="M79.9 69.9s-6-2.1-9.7-2.3c-2.6-.1-6.9.2-6.9.2l.8 3.4s3.5.9 6.3 1.4c4.3.8 7.2 2.3 7.2 2.3l2.3-5z"/><path id="XMLID_1903_" class="st10" d="M87.2 43.1c9.3-3.8-11 20.2-20.3 29.7-2.7 2.7-13.5 16.1-13.5 16.1S45 53.8 57.6 44.3c12.6-9.5 29.6-1.2 29.6-1.2z"/><path id="XMLID_2619_" class="st10" d="M86.3 49.5S82.8 65 76.1 73.2c-6.6 8.2-4.5 6.6-4.5 6.6S89 70 94.3 63.3c5.3-6.7 8-14.6 8-14.6s-10.5-6.6-16 .8z"/><path id="XMLID_1904_" class="st12" d="M86.1 92.4c0-.9 1-1.5 2.3-1.5 1.3 0 2.3.7 2.3 1.5s-4.6.8-4.6 0z"/><path id="XMLID_1905_" class="st11" d="M76.4 105.8c.2.9 1.1 1.5 2 1.3 1.8-.4 5-1 9.7-1 3.8 0 5.9.5 7 1 .8.3 1.8 0 2.2-.8.8-1.7 1.5-5.4 0-6.4-2.2-1.4-6 .4-9.9.4-3.2-.1-8.1-2.1-10-1-1.8 1-1.3 4.7-1 6.5z"/><path id="XMLID_1906_" class="st13" d="M46.5 171l75.3.4-.3 8-74.8-1.6z"/><path id="XMLID_1907_" class="st13" d="M46.8 180.6l.2 7.9 74.3 2 .1-8.3z"/></g><g id="XMLID_1908_"><path id="XMLID_1909_" class="st14" d="M254.4 162.6c-1.2-4.5-5.6-8.5-8.2-8.2l-.1.1c-1.8-.4-14.9 3.2-27.2 3.2-7.9 0-18.6-3.1-26.8-2.9-3.9.1-7.1 3-7.7 6.8l-12.3 78 14.2 2.2 62.7-.1c7.1-1.5 9.4-7.4 9.4-7.4s-2.5-65.9-4-71.7z"/><g id="XMLID_1910_"><defs><path id="XMLID_1918_" d="M254.4 162.6c-1.2-4.5-5.6-8.5-8.2-8.2l-.1.1c-1.8-.4-14.9 3.2-27.2 3.2-7.9 0-18.6-3.1-26.8-2.9-3.9.1-7.1 3-7.7 6.8l-12.3 78 5.8 2.9 71.2-.8c-.1-2.5 7.7-4.7 7.7-4.7l1.7-2.7c-.1.2-2.6-65.9-4.1-71.7z"/></defs><clipPath id="XMLID_19_"><use xlink:href="#XMLID_1918_" overflow="visible"/></clipPath><g id="XMLID_1911_" class="st15"><path id="XMLID_1912_" class="st16" d="M241.1 233h-48.8l-24.5-2.5-.5 5.3 24.7 2.4h48.5l18.2-1.8-.5-5.2z"/><path id="XMLID_1913_" class="st16" d="M241.1 221.7h-48.8l-24.5-2.4-.5 5.2 24.4 2.4v.1h48.8l18.2-1.8-.5-5.2z"/><path id="XMLID_1914_" class="st16" d="M241.1 210.5h-48.8l-24.5-2.4-.5 5.2 25.3 2.5h47.9l18.2-1.8-.5-5.2z"/><path id="XMLID_1915_" class="st16" d="M241.1 199.3h-48.8l-24.5-2.4-.5 5.2 25.3 2.5v-.1h47.9l18.2-1.8-.5-5.2z"/><path id="XMLID_1916_" class="st16" d="M241.1 188.2l-48.8-.1-24.5-2.5-.5 5.2 25.3 2.6v-.1h47.9l18.2-1.8-.5-5.2z"/><path id="XMLID_1917_" class="st16" d="M192.6 182.1h47.9l18.2-1.8-.5-5.2-17.1 1.7h-48.8l-24.5-2.4-.5 5.2z"/></g></g><path id="XMLID_1919_" class="st17" d="M235.9 241.8v-43.7h-2.4l2.7-42.9H230l-2.7 42.9h-29.2l4.3-43.5h-6.2l-4.3 43.5h-3.5v43.4H184c-.3 2.2-.8 12.7-1.4 28-.1 3.2 53.3-27.7 53.3-27.7z"/><circle id="XMLID_1920_" class="st18" cx="195" cy="204.6" r="3.6"/><circle id="XMLID_1921_" class="st18" cx="228.9" cy="204.6" r="3.6"/><path id="XMLID_1922_" class="st8" d="M220.3 230l-10.5 4.5-9.7-4.5v-15h20.2z"/><path id="XMLID_1923_" class="st19" d="M200 223v-2.9h20.3v2.9z"/><path id="XMLID_1924_" class="st8" d="M215.3 250.3l.1-3.1-1.8.4-.1 3.6z"/><path id="XMLID_1925_" class="st8" d="M205.6 256l.1-9.2h2.3l-.3 8z"/><path id="XMLID_1926_" class="st8" d="M194.9 248.7s-1.5 13.8-12.3 14.6l.4-3s9-.4 9.4-11.6h2.5z"/><path id="XMLID_580_" class="st20" d="M181.3 179.1l13.1 10.8s5.6 11.4 6.9 13.2l54.1 25.2s1 3.9.7 5.1c-2.3 8.6-5.3 8.9-5.3 8.9L198 208.7l-24.6-8.5-.5-2.4 1.8-1-2.2-.8-.6-3.5 8.7-1.3-9.8-.9-.5-2.3 7.7-1.2 11.3 3.9-9-9.4 1-2.2z"/><path id="XMLID_541_" class="st21" d="M174.5 234.6l59.8-10.2s1-.2 1.7-.4l2.9-5s8.1-6.2 10.1-7.2 1.7-.1 1.6.9c-.1 1-5.7 4.3-5.9 6.1-.1 1-.7 2.1-1 3 6.6-1.8 14-3.7 14.4-3.4 2.4 2.3.3 16.1.3 16.1l-22.9-2-56.1 14.4c-2.6.6-5.3-.5-6.7-2.8-1.8-2.9-2.9-7 1.8-9.5z"/><path id="XMLID_1927_" d="M211 64.6s25.4 0 38.9 18 12 55 12 55-9 15.7-45.7 14.2-47.1-12-47.1-12-17.2-66.2 41.9-75.2z"/><path id="XMLID_1928_" class="st21" d="M203.8 70.3c21.3.1 36.7 11.6 36.6 33-.1 13.5-5 29.1-14.9 38.7l-.3 14.8c.6 1.4-4.5 10.3-15 8.6-4.5-.7-.6-13.5-.6-13.5-2.1.4-4.3-.7-6.7-.7-18.9-.1-34.4-22.8-34.3-44.1.3-21.5 13.9-36.9 35.2-36.8z"/><path id="XMLID_1929_" class="st22" d="M165.9 122.9c2.1 3.2 5 5.2 8.2 5.5l5.9.5h.9c4.9 0 9.4-3.8 11.3-8.9 1.2-1.1 2.7-1.7 4.3-1.5 0 0 .6 0 1.3.3 1.9 5.5 7 9.8 12.4 9.8h.5l6.5-.3c6-.3 10.9-5.3 11.8-11.6h1.7c1 0 .9-.2 1.8-.2.3-.5 1.1-1.3 1.5-1.8.5-.7 1.1-1.2 1.8-1.6.5-.2 1-.4 1.4-.6.1 0 .2 0 .3-.1-.2-.2-.4-.3-.8-.3 0 0-5.4-.2-7.6-.3-.8-6.2-5.9-10.1-13.2-9.8l-6.5.3c-3.5.2-6.7 1.4-9 3.5-2.5 2.2-3.7 5.4-3.6 8.9 0 .2 0 .4.1.6h-.3c-1.3-.1-2.5 0-3.7.5v-.5c.6-6.8-3.7-11.8-10.7-12.4l-5.9-.5c-.4 0-.8-.1-1.3-.1-6.5 0-11.2 4.3-11.8 10.7-.1 3.2.8 6.9 2.7 9.9zm35-8.6c-.1-2.4.7-4.4 2.3-5.9 1.6-1.5 3.9-2.3 6.6-2.5l6.5-.3c5.4-.2 9 2.4 9.3 7l-.2.8v.2c.2 4.9-3.1 10.3-8.3 10.5l-6.5.3c-5.3.5-9.5-5.1-9.7-10.1zm-33.6-1.2c.4-4.4 3.5-7.2 7.9-7.2h.9l5.9.5c3.8.3 7.7 2.7 7.3 8.3v.9c-.5 5.3-4.6 9.6-8.9 9.2l-5.9-.5c-2-.2-3.9-1.5-5.3-3.7-1.5-2.1-2.2-4.9-1.9-7.5z"/><path id="XMLID_309_" d="M174.6 116.1c0 2.7 1.5 4.9 3.4 4.9s3.4-2.2 3.5-4.8c0-2.7-1.5-2.9-3.4-3-1.9 0-3.4.2-3.5 2.9z"/><path id="XMLID_308_" d="M211.4 115.9c0 2.7 1.5 4.9 3.4 4.9s3.4-2.2 3.4-4.8c0-2.7-1.5-2.9-3.4-3-1.9 0-3.4.2-3.4 2.9z"/><path id="XMLID_1933_" class="st23" d="M197.7 130.1c0-.7-1.3-1.3-3-1.3-1.6 0-3 .6-3 1.3s6 .8 6 0z"/><path id="XMLID_1934_" class="st14" d="M176.6 80.7s9-16.5 35.9-15.3c20.6.9 34.4 25.9 28.8 47.2l-4.1 1.1-9-15.8-51.6-17.2z"/><path id="XMLID_1935_" d="M235.9 112.9s-8.6-11.4-42.5-9.7c-22.1 1.1-25.4 1.1-25.4 1.1s-5.6-32.9 38.2-31.1c34 1.6 29.7 39.7 29.7 39.7z"/><path id="XMLID_100_" class="st21" d="M232.6 121.7c-.2 4.8 1.2 8 4.8 8.2 3.6.1 9.8-3.8 9.9-8.6.2-4.8-2.7-8.8-6.3-9-3.5-.2-8.2 4.6-8.4 9.4z"/><g id="XMLID_1936_"><path id="XMLID_1937_" class="st24" d="M204.2 142.4h-12.8c-.9 0-1.6-.7-1.6-1.6 0-.9.7-1.6 1.6-1.6h12.8c.9 0 1.6.7 1.6 1.6 0 .9-.7 1.6-1.6 1.6z"/></g><ellipse id="XMLID_1938_" class="st25" cx="214.8" cy="120.9" rx="3.6" ry="1.2"/><ellipse id="XMLID_1939_" class="st25" cx="178.2" cy="121.1" rx="3.6" ry="1.2"/><path id="XMLID_1940_" class="st25" d="M224.8 126.8s-1.2 2.9-1 3.7c.1.5.8 1.4 2.3 1.2.6-.1 1-1 1-1.7.1-1.6-2.3-3.2-2.3-3.2z"/><path id="XMLID_25_" class="st25" d="M171.8 128.9s-1.9 2.5-1.8 3.4c0 .5.5 1.6 2 1.8.6.1 1.2-.7 1.4-1.4.3-1.7-1.6-3.8-1.6-3.8z"/><path id="XMLID_24_" class="st25" d="M221.1 139.7s-1.9 2.5-1.8 3.4c0 .5.5 1.6 2 1.8.6.1 1.2-.7 1.4-1.4.3-1.8-1.6-3.8-1.6-3.8z"/></g></g></g></g></svg>