<svg version="1.1" id="Layer_1" xmlns="http://www.w3.org/2000/svg" x="0px" y="0px" width="328px" height="492px" viewBox="0 0 328 492" xml:space="preserve"><style type="text/css">.st0{fill:#BB653B;} .st1{fill:#735053;} .st2{fill:#543924;} .st3{fill:#EA573F;} .st4{fill:#3A1F17;} .st5{fill:#4A312A;} .st6{fill:#FBCA8E;} .st7{fill:#FFFFFF;} .st8{fill:#A7401F;} .st9{fill:#DC4453;} .st10{fill:#ED87C0;} .st11{fill:#977BDC;} .st12{fill:#FFCE54;} .st13{fill:#3BAFDA;} .st14{fill:none;stroke:#DC4453;stroke-miterlimit:10;} .st15{fill:#A1D469;} .st16{fill:#D52032;} .st17{fill:#F6BB43;} .st18{fill:#D870AD;} .st19{fill:#8DC050;} .st20{fill:#0070C2;} .st21{fill:#4FC1E9;} .st22{fill:#E84D3F;} .st23{fill:#FB6E52;} .st24{fill:#B04D1C;} .st25{fill:#3A1E0A;} .st26{fill:#4B89DC;} .st27{fill:#D0D6DC;} .st28{opacity:0.6;fill:#274470;} .st29{opacity:0.6;} .st30{fill:#274470;} .st31{opacity:0.5;fill:#65AAF1;} .st32{fill:#ACC8EF;} .st33{fill:#EEA84B;} .st34{fill:#462C14;} .st35{fill:#C37752;} .st36{fill:#2F1202;} .st37{fill:#B96136;} .st38{fill:#2E76D5;} .st39{fill:#B85F33;} .st40{fill:#434A54;} .st41{fill:#ED5463;} .st42{opacity:0.2;} .st43{opacity:0.6;fill:#D93343;} .st44{fill:#646D78;} .st45{fill:#D93343;} .st46{fill:#382120;} .st47{fill:#D72B3C;} .st48{fill:#663821;} .st49{fill:#BD6940;} .st50{fill:#A22032;} .st51{fill:#682D09;} .st52{fill:#AD592C;} .st53{fill:#B76D45;} .st54{fill:#E2D8C8;} .st55{fill:#E36874;} .st56{fill:#B06944;} .st57{fill:#4E1C00;}</style><g id="XMLID_5_"><g id="XMLID_4916_"><g id="XMLID_4995_"><path id="XMLID_5202_" class="st0" d="M102.8 248.2l1.6-36.3-5.7-3.2-7.3 43z"/><path id="XMLID_5201_" class="st0" d="M95.3 267.3l34.3-24.9.1.2c.8-.7-4.8-9.8-4.8-9.8l-38.9 16c-6.1 9.4 9.3 18.5 9.3 18.5z"/><path id="XMLID_5200_" class="st1" d="M71.2 440.2l-6.8 10.6s14.1 12.3 24.9 21.8c1 .8 12.5 6.5 13.7 7.3.7.5 2-3.1 2-3.1S80.5 447.3 81.7 448c1.2.7-10.5-7.8-10.5-7.8z"/><path id="XMLID_2571_" class="st0" d="M115.8 356.8c-2.8.5-13.7 2.8-21.5 10.3-6.3 6-19.2 54.5-24.3 74.6-.5.8-.9 1.4-1.1 1.9l-3.2 4.8s.8.7 2.2 1.8v.2c-1.1 3.9 1 4.1 3.6 2.7 5.2 4.2 13 10.6 19.6 16.1 1 .8 12.5 6.5 13.7 7.2.8.5 1.8-2.7 1.8-2.7s-3.1-3.3-7-7.6c.1.1.2.1.2.1-3.2-3.6-13-15.6-19.4-23.5 11-17.8 36-61 39-67.3 3.6-7.7-.9-19.1-3.6-18.6z"/><path id="XMLID_2572_" class="st2" d="M107.2 97.9s2.5-3.8.1-7.2c-2.4-3.6-5.4-2.2-5.4-2.2l5.3 9.4z"/><path id="XMLID_2573_" class="st3" d="M29.3 93.3s-2.6-3.9-.7-7.4 6.2-1.6 6.2-1.6l-5.5 9z"/><g id="XMLID_2574_"><path id="XMLID_2575_" class="st4" d="M31.1 86.6s-3.3-5.5.4-9.9c3.9-4.5 9.6-.3 9.6-.3l-10 10.2z"/><path id="XMLID_2576_" class="st3" d="M36.9 80.9s-3.5-5.1-.3-8.3c3.2-3.2 7.8 1.7 7.8 1.7l-7.5 6.6z"/><path id="XMLID_2577_" class="st4" d="M40 78.3s-4.3-6.8.4-10.4 10.4 2.3 10.4 2.3L40 78.3z"/><path id="XMLID_2578_" class="st3" d="M45.6 73.7s-3.3-6.8-.4-8.7c2.9-1.9 7.5 4.9 7.5 4.9l-7.1 3.8z"/><path id="XMLID_2579_" class="st5" d="M47.1 72.2s-3.1-7.6 2.8-10.4c7.6-3.6 10.1 5.1 10.1 5.1l-12.9 5.3z"/><path id="XMLID_2580_" class="st3" d="M55.8 69.6s-2.2-8.3 1.3-8.8c3.5-.6 6.1 6.5 6.1 6.5l-7.4 2.3z"/><path id="XMLID_2581_" class="st5" d="M56.9 67.2s-.7-9.5 7.4-9.9c6.1-.3 7.5 7.7 7.5 7.7l-14.9 2.2z"/><path id="XMLID_2582_" class="st3" d="M66.6 67.2s-.7-8.3 3.5-8.4 5.8 8 5.8 8l-9.3.4z"/><path id="XMLID_2583_" class="st5" d="M85 67.8s-.1-9.1-7-9.6c-9-.6-10 7.8-10 7.8l17 1.8z"/><path id="XMLID_2584_" class="st3" d="M78.8 67.8s1.9-7.4 7-6.5c5.1.9 4.3 9.3 4.3 9.3l-11.3-2.8z"/><path id="XMLID_2585_" class="st5" d="M82.6 68.5s4.5-7.2 10.6-4.6C99.3 66.5 97 74 97 74l-14.4-5.5z"/><path id="XMLID_2586_" class="st3" d="M89 70.8s5.9-2.8 9.1-.9c3.2 1.9 2.9 8.7 2.9 8.7l-12-7.8z"/><path id="XMLID_2587_" class="st5" d="M104 84.3s1.2-6.5-2-10.1c-3.2-3.6-9.4-1.9-9.4-1.9l11.4 12z"/></g><path id="XMLID_2588_" class="st0" d="M2 251.6l9.4-37.3 21.5 7.9-13.7 35.7z"/><path id="XMLID_2589_" class="st5" d="M50.5 140.1c-6.9-4.1-2.7.5-8.8-4.4-10-8.8-20.5-36.4-19.6-40 4.2-18.4 24.5-26.9 32.1-27.3 14.5-.9 19 42.2 8.6 76.8-7.3-2.8-5.7-1.1-12.3-5.1z"/><path id="XMLID_5180_" class="st1" d="M81 461.2s12.1-3.4 13.2-2.2c1.1 1.2 5.6 5.8 5.6 5.8s-10.2 1.3-11.3 2.9c-1.1 1.5-7.5-6.5-7.5-6.5z"/><path id="XMLID_5179_" class="st6" d="M115.7 363.9l-20.7-75s-32.5-6.5-31.7 5.9l35.5 75.6c5.5 1.4 15.2-1.9 16.9-6.5z"/><path id="XMLID_2590_" class="st7" d="M102.8 176.6c0-.1-.1-.2-.2-.3-2.2-1.6-23.8-8.2-35.7-9.3-8.1-.7-23.8 1.5-33.1 3-2.1 0-4.2.5-5.6.9-1.1.2-1.7.3-1.7.3v.1c-8 1.4-18.1 47.2-18.1 47.2l23.4 8.4c-.8 3.8-1.5 7.9-1.6 12.7 0 2.1 3.3 3.9 3.3 4.6 0 1 57.9 3.8 62.3 1.3 3.3-1.9 5.4-2.7 5.7-6.5.6-7.6-2.2-18.5-2.7-26.6l5.7 5.6s11.5-12.4 11.6-12.8c.7-4-4.4-23.9-13.3-28.6z"/><path id="XMLID_2591_" class="st0" d="M76.7 156.5c22.6-.3 32.4-24.3 31.1-45.2-1.3-20.9-13.3-38.9-34.2-37.6-20.9 1.3-37.6 17.1-36.3 38 1 15.3 6.6 32.5 20.6 40.4l-.4 14.5-8.8 1.4 3.1 16.6s8.1 1.6 16.5 1.7c8.7.1 15.1-1.6 15.1-1.6l2.9-13.8c-1-.4-5.9-1.6-11.1-2.9l-.4-11.6c.7.1 1.3.1 1.9.1z"/><path id="XMLID_5176_" d="M55.3 120.3c.2 2.8 1.8 5 3.6 4.8 1.8-.1 3.1-2.5 2.9-5.3-.2-2.8-1.8-5-3.6-4.9-1.7.2-3.1 2.6-2.9 5.4z"/><path id="XMLID_5175_" d="M89.4 122c.2 2.8 1.8 5 3.6 4.8 1.8-.1 3.1-2.5 2.9-5.3-.2-2.8-1.8-5-3.6-4.9-1.8.3-3.1 2.7-2.9 5.4z"/><path id="XMLID_5174_" class="st0" d="M44 118.5c1.1 4.9.5 8.3-2.6 9-3.1.7-9.3-2.3-10.3-7.2-1.1-4.9.6-9.4 3.8-10 3.1-.7 8.1 3.4 9.1 8.2z"/><g id="XMLID_2592_"><path id="XMLID_5173_" class="st8" d="M75.5 146.2c3.4-.1 7.2-.8 11.3-2.4l-1.3-3.4c-3.8 1.5-7.2 2.1-10.1 2.2-3.8.1-6.8-.8-9.3-2.4l-1.9 3c3.1 2 6.9 3.1 11.3 3z"/></g><path id="XMLID_5171_" class="st1" d="M74.4 465.7l1.4 13.3s-18.7 4.6-33 8.3c-1.3.3-14.6-.1-16 .1-.9.1-.4-3.9-.4-3.9s36.4-15.7 34.9-15.6c-1.6 0 13.1-2.2 13.1-2.2z"/><path id="XMLID_2593_" class="st0" d="M75 470.1c0-1.8-.6-6.3-1-8.8l1.6-82.1-13.4-104.5c-5-12.5-26.2 5.8-26.2 5.8l10.3 98.4 18 85.1c-9.6 4.3-23.5 10.4-28.1 12.2h.2c-5.7 2.1-10 3.7-10 3.7s-.5 3.4.4 3.4c1.5-.1 14.7.2 16-.1 14.3-3.1 33-7 33-7l-.8-6.1z"/><path id="XMLID_5169_" class="st1" d="M46.8 484.1s-9.6-9-11.1-8.5c-1.6.5-7.8 2.7-7.8 2.7s8.8 6.2 9 8.2c.2 2 9.9-2.4 9.9-2.4z"/><path id="XMLID_5168_" class="st1" d="M63.9 465l10.4-1.2-.4-3.4-10.2-.1z"/><path id="XMLID_5167_" class="st1" d="M83.9 436.9l-10.1-5.2-1.8 3.4 9.1 6.3z"/><path id="XMLID_5166_" class="st4" d="M62.6 107.3s-4.3-.3-7.7.2c-2.4.4-6 1.7-6 1.7l1.1 1.5s2.1.1 4.7-.4 7.6.1 7.6.1l.3-3.1z"/><path id="XMLID_5165_" class="st4" d="M87.8 107.3s4.3-.3 7.7.2c2.4.4 6 1.7 6 1.7l-1.1 1.5s-2.1.1-4.7-.4-7.6.1-7.6.1l-.3-3.1z"/><path id="XMLID_2594_" class="st9" d="M23.2 394.4c3.5.6 3.3 6 6.6 5.6 3.3-.4 7-3.7 7.9-1.5 1 2.1 6.4 5.6 8.9 4.2 2.5-1.4 5.1-6.1 8.7-3.8 1.9 1.2 7.5 3.8 10.6 1.6 2-1.4.6-5.4 2.9-5.2 2.3.2 7.7 4.2 9.5 2.3s4.2-5.8 5.6-4.8c1.4 1 6.2 3.9 7.9 1.7 1.7-2.1 3.7-6.6 5-5.6 1.4 1 6.8 4.8 9.3 1.9 2.5-2.9.8-7.5 5-6 0 0 3.9 3.4 6.5 2.4s2.5-8 4.5-8.1c2-.1 2.6 5.7 4.6 5.4.4-.1 2.2-4 1.3-8.4-3.3-16.6-11.8-72.8-16.7-98-4.9-25.5-14.7-20.3-15.4-21.5l-61.7-.2s-14.3 1.6-15.1 32.7C18.6 314.9 0 392.6 0 392.6s1.9 1.9 7.7-2.2c1.9-1.4 2.3 2.9 4.1 4.3 1.7 1.5 6.3-1.2 11.4-.3z"/><path id="XMLID_2595_" class="st10" d="M33.4 243.9l62.9 1.1.7 12.6-63.2-1.3z"/><path id="XMLID_2596_" class="st5" d="M39.6 75.4c9.2-9.2 25.4-11.7 27.8-11 1.9-.9 23.1 1.8 32.4 11.5 1.4 1.5 2.6 3.5 3.6 5.8 12 16.3 3.6 42.2 3.6 42.2s-19.2-17.3-23.6-22.4c-2.6-3.1-6.3-8.8-9.6-14-3.9 6.3-37.2 24.6-37.5 22.6-1.6-9.4-3.5-27.9 3.3-34.7z"/><g id="XMLID_2597_"><g id="XMLID_2598_"><circle id="XMLID_5161_" class="st11" cx="33.7" cy="100.6" r="5"/><circle id="XMLID_5160_" class="st11" cx="32.3" cy="114.3" r="5"/><circle id="XMLID_5159_" class="st11" cx="26.1" cy="106.7" r="5"/><circle id="XMLID_5158_" class="st11" cx="39.9" cy="108.2" r="5"/><circle id="XMLID_5157_" class="st12" cx="32.7" cy="107.1" r="5"/></g><g id="XMLID_2599_"><circle id="XMLID_5155_" class="st3" cx="47" cy="65.3" r="3.6"/><circle id="XMLID_5154_" class="st3" cx="40.6" cy="73" r="3.6"/><circle id="XMLID_5153_" class="st3" cx="40" cy="65.9" r="3.6"/><circle id="XMLID_5152_" class="st3" cx="47.6" cy="72.4" r="3.6"/><circle id="XMLID_5151_" class="st12" cx="43.7" cy="68.8" r="3.6"/></g><g id="XMLID_2600_"><circle id="XMLID_5149_" class="st13" cx="36.1" cy="72" r="5.3"/><circle id="XMLID_5148_" class="st13" cx="40.7" cy="86.1" r="5.3"/><circle id="XMLID_5147_" class="st13" cx="31.3" cy="81.4" r="5.3"/><circle id="XMLID_5146_" class="st13" cx="45.4" cy="76.7" r="5.3"/><circle id="XMLID_5145_" class="st12" cx="37.9" cy="78.9" r="5.3"/></g></g><path id="XMLID_2601_" class="st11" d="M39.8 255.8s-10.7 5.2-10.4 32.5c.3 27.2-11.9 76.2-11.9 76.2s25.8 9.7 64.9 2.6c25.8-4.6 35.6-12.8 35.6-12.8s-5.1-20.1-6.7-33.3c-4.3-37.4-10.6-66.3-24.3-65.3l-47.2.1z"/><path id="XMLID_2602_" class="st0" d="M43.2 335.4L38 320.7s-5.4-9.9-5.5-10.7l-.4.2-7.6-48.8c-1.6-4-5.2-15.4-10.4-15.8-8.9-.8-12.3 6.4-12.3 6.4l21.5 67.1.7 21.1 1.8.9 1.2-1.6 1.1 1.5 2.7.7 1.5-5 3.3 14.2 2.5-.7-1.1-12.5-.9-12 5.2 10.5 1.9-.8z"/><g id="XMLID_2603_"><g id="XMLID_2604_"><path id="XMLID_5139_" class="st9" d="M34.5 84.7c1.9-2.2 3.8-4.6 5-7.2.5 0 1 0 1.4-.3.3-.3.2-.6-.1-.9-.2-.2-.6-.4-.9-.5-.3-.1-.6-.1-.9 0-.3.1-.3.4-.2.7.1.2.2.5.4.7v.2c-1.4 2.6-3.4 4.7-5.1 7.1-.2.1.2.4.4.2z"/><path id="XMLID_5137_" class="st9" d="M47.2 94.4c.2-.7-.3-1.3-.9-1.5-.5-.2-1 0-1.4.4-2.5-1.5-5.2-2.7-8-3.3-.3-.1-.4.4-.1.5 2.8.7 5.5 2 8 3.4.1.9 2.1 1.8 2.4.5z"/><path id="XMLID_5135_" class="st9" d="M28 84.6c-1.4-1.7-3.1-3.3-4.9-4.5 0-.1 0-.1-.1-.2 0-.4-.1-.9-.5-1.1-.3-.2-.7-.1-.9.2-.5.5-.7 1.6.2 1.7.2 0 .5 0 .8-.2h.1c1.8 1.3 3.4 2.7 4.9 4.4.3.2.6-.1.4-.3z"/><path id="XMLID_5133_" class="st9" d="M17.6 97.4c.3-.2.5-.5.5-.8 0 0 .1 0 .1-.1 2.2-1.8 4.4-3.4 6.9-4.5.2-.1.5-.5.3-.4-2.6 1-4.5 2.6-6.5 4.4 0-.2-.8-.3-.9-.2-.3-.1-.8-.1-1.1.1-.4.3-.8 1.1-.3 1.4.3.3.7.3 1 .1z"/><path id="XMLID_5131_" class="st9" d="M31.9 104.1c.3 0 .7-.1 1-.3.3-.2.5-.6.3-.9-.1-.1 0-.2-.1-.3-.1-.1-.1-.1-.1-.2 0-2.4-.8-4.5-.4-6.9 0-.3-.5-.4-.6-.1-.6 2.3-.7 4.7-.1 7 0 0-.1 0-.1.1-.3.3-.8.7-.7 1.2.1.3.5.4.8.4z"/></g><g id="XMLID_2605_"><path id="XMLID_5128_" class="st9" d="M37.1 103.6c2.7.7 2.4-4.5 2.2-6.6 1.3.5 3.9 1.9 4-.1.1-2.5-2.5-4.5-4.2-6.2 2.5-.8 5.5-1.7 7.1-4 1.4-2.1-.8-2.8-2.5-2.9h-1.8c-.4 0 .8-1.2 1.1-1.6.4-.5.5-.9 0-1.3-1.3-1.3-4.9-.2-6.5.7.6-2.1.7-5.3-.5-7.1-1.4-2.1-3.1 1-3.9 2.5-1.1-2.2-4.6-4.1-6.2-1.5-1.6 2.6.3 6 1.6 8.5-2.2-1.1-4.7-1.8-7-1-1.7.6-2.1 1.9-1 3-1 .5-2.6 1-2.8 2.1-.2 1.2.3 2.1 1.2 2.8 1.6 1.2 4 1.3 6.2 1.3-2.8 1.5-5.6 4.9-1.8 5.9.5.1 1.1.2 1.5.5.7.4.4 1.9.4 2.5.1 1.1 1.1 1.6 2.1 1.8 1.2.2 2.6-1.3 3.3-2.1 1.1-1.3 1.6-3.1 2.3-4.6.5 1.3 1.4 2.6 2.1 3.8.6 1.3 1.7 3.3 3.1 3.6z"/><path id="XMLID_5126_" class="st12" d="M33.7 93.9c2.3-1.3 3.2-5 2-7.3-.6-1.5-2.4-2.2-4.2-2-2.8.3-4.6 3.5-4 6.1.5 2.7 3.6 4.7 6.2 3.2z"/></g></g><g id="XMLID_2606_"><path id="XMLID_2607_" class="st14" d="M86.2 188l3.5-16.2"/><path id="XMLID_2608_" class="st14" d="M45.6 168l3.7 18.7"/><path id="XMLID_2609_" class="st14" d="M88.8 188.2l3.6-15.4"/><path id="XMLID_2610_" class="st14" d="M42.7 168.4l3.9 18.3"/><path id="XMLID_2611_" class="st14" d="M33.8 211.9s40.7 5.7 65.2.9"/><path id="XMLID_2612_" class="st14" d="M35.2 186.7l67.2 1.9"/><path id="XMLID_2613_" class="st14" d="M27.2 170.8s13.1 7.6 7 40.8"/><path id="XMLID_2614_" class="st14" d="M102.3 176.3s3.2 2.9-3.3 36.2"/><path id="XMLID_2615_" class="st14" d="M8.8 215.7l24.2 8.2"/></g><path id="XMLID_5112_" class="st15" d="M89 211.1c.5-.4.2-1.5-.2-1.9-.5-.4-1.1-.4-1.4 0h-.1l-.1.1c-.8-1-1.8-1.9-2.9-2.4 1.5-.1 3-.3 4.5-.6.2.5.6 1 1.1.9.4-.1.7-.4.8-.8.1-.6-.4-.9-.9-1-.4-.1-.8.2-.9.5-.8.1-1.7.3-2.5.4.5-.5.9-1 1.2-1.6.4.1.8-.1 1-.4.2-.3.3-.8 0-1.2-.3-.4-1-.2-1.3 0-.4.3-.4 1-.1 1.4h.1c-.4.6-.7 1.2-1.2 1.8-1.5.2-3 .3-4.6.1 1.4-.6 2.4-2.1 3-3.5.4.1.9-.1 1.1-.6.2-.5 0-1.2-.5-1.4-.5-.3-1.4-.3-1.5.4-.1.4.1.9.4 1.2 0 .1 0 .2.1.2 0 0 .1 0 .1.1-.8 1.5-1.5 2.8-3 3.6-1.7-.2-3.3-.5-4.9-.9 1.5-.7 2.8-2.3 3.6-3.9.5.1 1.1-.3 1.1-.8s-.3-1-.7-1.2c-.6-.3-1.2.1-1.4.7-.1.5.1 1 .6 1.2-1.1 1.5-1.9 3-3.5 3.9-.8-.2-1.6-.4-2.4-.5-.1 0-.1.1 0 .1 1.5.6 3.1 1.1 4.7 1.4.8.5 1.4 1 2 1.8.4.5.8 1.2 1.2 1.7-.1.1-.2.3-.2.5-.1 0-.1 0-.1.1-.1.8.4 1.5 1.2 1.4.6-.1 1.3-.6 1.4-1.3.1-.7-.6-1.6-1.4-1.3-.2.1-.4.2-.6.4-.6-1.2-1.7-2.4-2.8-3.1 1.6.3 3.2.4 4.8.3 1.3.7 2.2 1.7 3.2 2.7-.1.4.1.9.5 1.2.4.5 1.1.6 1.5.3z"/><path id="XMLID_5110_" class="st15" d="M50.6 209.9c.4-.3.5-.8.4-1.2 1-1.1 1.8-2.1 3.1-2.9 1.6 0 3.2-.2 4.8-.5-1.1.7-2.1 2-2.7 3.1-.2-.2-.4-.3-.6-.4-.7-.2-1.4.6-1.3 1.4.1.7.8 1.2 1.4 1.3.8.1 1.3-.7 1.1-1.4 0-.1-.1-.1-.1-.1 0-.2-.1-.3-.2-.5.4-.6.7-1.2 1.1-1.7.6-.8 1.2-1.3 2-1.8 1.6-.4 3.2-.9 4.7-1.5.1 0 0-.1 0-.1l-2.4.6c-1.6-.9-2.5-2.4-3.6-3.8.4-.2.7-.7.5-1.2-.2-.6-.8-1-1.4-.7-.4.2-.7.8-.7 1.2.1.5.7.9 1.2.8.9 1.5 2.2 3.1 3.7 3.7-1.6.4-3.2.8-4.8 1-1.6-.7-2.3-2.1-3.1-3.5 0 0 .1 0 .1-.1.1 0 .1-.1.1-.2.3-.3.4-.8.3-1.2-.2-.7-1-.6-1.5-.4-.5.3-.7 1-.5 1.5.2.5.6.6 1.1.5.7 1.4 1.8 2.8 3.2 3.4-1.6.2-3.1.1-4.6 0-.5-.6-.9-1.1-1.2-1.7h.1c.3-.4.3-1.1-.2-1.4-.3-.2-1-.4-1.3.1-.2.4-.1.9.1 1.2.2.3.6.4 1 .3.3.6.8 1.1 1.3 1.6-.8-.1-1.7-.2-2.5-.3-.1-.4-.4-.6-.9-.5-.5.1-1 .5-.9 1.1.1.4.4.8.8.8.5.1.9-.5 1.1-1 1.5.3 3 .4 4.5.4-1.1.5-2.1 1.4-2.9 2.5l-.1-.1h-.1c-.4-.4-1-.4-1.4 0-.5.5-.7 1.5-.2 1.9.3.3 1 .2 1.5-.2z"/><g id="XMLID_2616_"><g id="XMLID_2617_"><path id="XMLID_5108_" class="st16" d="M70.4 198.1c1.3-1.5 2.6-3.2 3.5-5 .3 0 .7 0 .9-.2.2-.2.1-.4 0-.6-.2-.2-.4-.3-.6-.3-.2-.1-.4-.1-.6 0-.2.1-.2.3-.2.5s.3.5.3.6c-.9 1.8-2.4 3.3-3.5 4.9-.2 0 .1.2.2.1z"/><path id="XMLID_5106_" class="st16" d="M79.2 204.7c.1-.5-.2-.9-.6-1.1-.3-.1-.7 0-.9.3-1.7-1-3.6-1.9-5.6-2.3-.2 0-.3.3-.1.3 1.9.5 3.8 1.4 5.6 2.3 0 .9 1.3 1.5 1.6.5z"/><path id="XMLID_5104_" class="st16" d="M65.9 198c-1-1.2-2.1-2.3-3.4-3.1 0 0-.1-.7-.4-.9-.2-.2-.5 0-.6.1-.3.3-.5 1.1.2 1.2.2 0 .6-.1.6-.1 1.2.9 2.4 1.9 3.4 3 .1.2.3 0 .2-.2z"/><path id="XMLID_5102_" class="st16" d="M58.7 206.9c.2-.1.4-.6.4-.6 1.5-1.2 3-2.3 4.8-3.1.2-.1 0-.4-.1-.3-1.8.7-2.8 1.8-4.8 3.1 0-.2-.7-.2-.9 0-.3.2-.5.7-.1 1 .2 0 .5 0 .7-.1z"/><path id="XMLID_5100_" class="st16" d="M68.6 211.5c.2 0 .5-.1.7-.2.2-.1.3-.4.2-.6-.2-.4-.5-.4-.5-.4-.7-2.1-.1-3 .1-4.7 0-.2-.3-.3-.4-.1-.4 1.6-.5 3.3-.1 4.9 0 0-.7.1-.5.9 0 .1.3.2.5.2z"/></g><g id="XMLID_2618_"><path id="XMLID_5097_" class="st9" d="M72.2 211.2c1.9.5 1.6-3.1 1.5-4.5.9.4 2.7 1.3 2.8-.1.1-1.7-1.7-3.1-2.9-4.3 1.7-.6 3.8-1.2 4.9-2.8 1-1.5-.6-2-1.7-2h-1.3c-.3 0 .6-.9.8-1.1.3-.3.3-.6 0-.9-.9-.9-3.4-.1-4.5.5.4-1.5.5-3.7-.3-4.9-1-1.5-2.2.7-2.7 1.7-.7-1.5-3.2-2.8-4.3-1-1.1 1.8.2 4.2 1.1 5.9-1.5-.7-3.2-1.2-4.9-.7-1.2.4-1.4 1.3-.7 2.1-.7.3-1.8.7-1.9 1.5-.2.8.2 1.4.8 1.9 1.1.8 2.8.9 4.3.9-1.9 1-3.9 3.4-1.3 4.1.4.1.7.2 1.1.3.5.3.3 1.3.3 1.8.1.8.7 1.1 1.4 1.2.8.1 1.8-.9 2.3-1.4.8-.9 1.1-2.1 1.6-3.2.3.9.9 1.8 1.5 2.6.3.7 1.1 2.1 2.1 2.4z"/><path id="XMLID_5095_" class="st17" d="M69.9 204.4c1.6-.9 2.2-3.5 1.4-5.1-.4-1-1.7-1.5-2.9-1.4-2 .2-3.2 2.4-2.8 4.3.3 1.9 2.4 3.3 4.3 2.2z"/><path id="XMLID_5093_" class="st12" d="M68.6 203.3c.7-.1 1.3-.8 1.5-1.5l.1-.1c.2-1-.3-2-1.4-2.1-1-.1-2 .5-2.2 1.5-.1 1.1.8 2.4 2 2.2z"/></g></g><g id="XMLID_2619_"><path id="XMLID_5089_" class="st10" d="M37.6 194.5c1.7 1.8 6.6 1.5 6.9 1.2.2-.2.6-4.1.2-5.9-.1-.5-.3-1.3-.9-1.5-.7-.2-1.2.4-1.7.9-1.5-1.6-4.6.4-3.3 2.6-.7 0-1.4.2-1.8.9-.2.7.2 1.4.6 1.8z"/><path id="XMLID_5088_" class="st18" d="M42.5 193.8c.9-.7 1.8-.7 2.3-.6-.1 1.3-.2 2.5-.3 2.6-.2.2-1.5.3-3 .2 0-.6.1-1.5 1-2.2z"/></g><g id="XMLID_2620_"><path id="XMLID_5085_" class="st10" d="M99.7 195.3c-.3-.7-1-1-1.7-1.1 1.5-2.1-1.5-4.4-3.1-2.9-.4-.5-.9-1.1-1.6-1-.6.1-.9.9-1 1.4-.5 1.8-.4 5.7-.2 5.9.3.3 5.2 1 7-.7.4-.3.8-1.1.6-1.6z"/><path id="XMLID_5084_" class="st18" d="M94.2 195.8c-.8-.8-1.7-.8-2.3-.8 0 1.3 0 2.5.1 2.6.2.2 1.5.4 3 .4.1-.5.1-1.4-.8-2.2z"/></g><path id="XMLID_5082_" class="st19" d="M36.1 200.9c-.1-1.1.9-2 1.9-2.5 1-.5 2.3-.8 3.3-.5l1.5-1.2c.4-.3.8-.6 1.1-1l.1.1c-.3.3-.7.6-1 .8l-.2.2c.9.6 1.3 1.9 1.1 2.9-.1.9-1 2-2.1 1.8-.9-.2-.5-1.6-.4-2.2.2-.6.4-1.1.7-1.6.1-.2.2-.4.3-.5-.4.3-.7.6-1.1.8v.1c-.5 1.5-1.3 2.9-2.8 3.7-.5.3-1.1.5-1.6.3-.6-.1-.8-.7-.8-1.2z"/><path id="XMLID_5081_" class="st19" d="M99.9 203.8c.2-1.1-.7-2.1-1.7-2.7-.9-.6-2.2-1-3.2-.8-.4-.5-.9-.9-1.4-1.3-.4-.3-.7-.7-1.1-1.1 0 0-.1 0-.1.1l.9.9.2.2c-.9.5-1.4 1.7-1.4 2.8.1.9.9 2.1 2 1.9.9-.1.7-1.6.6-2.2-.1-.6-.3-1.1-.5-1.7l-.3-.6c.3.3.7.6 1.1.9v.1c.4 1.5 1 3 2.5 4 .5.3 1 .6 1.6.5.4 0 .7-.5.8-1z"/><g id="XMLID_2621_"><g id="XMLID_2622_"><path id="XMLID_5079_" class="st20" d="M50.4 201.1c.5 1.1 1.2 2 1.7 3.2v.1c-.1.1-.1.2-.2.3 0 .1 0 .2.1.3.1.1.2.1.3 0 .1 0 .2-.1.3-.2.1-.1.1-.3.1-.4-.1-.1-.3-.2-.5-.2-.4-1.2-1-2.2-1.6-3.2-.1-.1-.3 0-.2.1z"/><path id="XMLID_5077_" class="st20" d="M54.7 197.5c-1 .5-2 1-3.1 1.2-.1 0-.1.2 0 .2 1.1-.2 2.1-.6 3.1-1.2.1.2.3.3.5.2.2-.1.4-.3.4-.6 0-.6-.8-.3-.9.2z"/><path id="XMLID_5075_" class="st20" d="M48 200.7c-.6.7-1.3 1.2-2 1.7-.1-.1-.2-.1-.3-.1-.3 0-.3.5-.1.7.1.1.2.2.3.1.1-.1.2-.3.2-.5v-.1c.7-.5 1.4-1.1 2-1.8.1.1 0-.1-.1 0z"/><path id="XMLID_5073_" class="st20" d="M44.2 195.1c-.2.1-.2.4 0 .6.1.1 0 .1.1.1s-.2 0-.2-.1c3 .9 1.9 1.6 2.8 2.1.1 0 .5-.1.4-.2-.9-.6-1.7-1.3-2.4-2.1 0-.1 0-.3-.1-.4-.3-.1-.5-.1-.6 0z"/><path id="XMLID_5071_" class="st20" d="M49.9 192.9c-.1.2.1.4.2.5h.1c-.3 1-.3 2-.2 3 0 .1.9.1.9 0 0-1 1.1-1.9 1.1-2.9l-.7-.1c.1 0-.4-.1-.4-.1.1-.1-.1-.3-.2-.4-.1-.1-.3-.1-.4-.2-.1 0-.3 0-.4.2z"/></g><g id="XMLID_2623_"><path id="XMLID_5068_" class="st21" d="M50.8 194.4c-.3.5-.7 1-.9 1.5-.2-.7-.3-1.4-.7-2-.2-.3-.7-1-1.2-1-.4 0-.8.2-.8.7 0 .3 0 .9-.2 1.1-.2.1-.4.1-.6.2-1.4.3-.5 1.9.5 2.6-.8-.1-1.7-.1-2.4.4-.4.3-.6.6-.5 1.1.1.5.6.8 1 1-.4.5-.3 1 .3 1.3.9.4 1.8.2 2.7-.2-.6 1-1.4 2.4-.9 3.6.5 1.1 1.9.4 2.4-.5.2.7.8 2 1.4 1.2.5-.7.6-2.1.4-3 .6.4 1.9 1 2.4.5.2-.2.2-.4 0-.6-.1-.1-.5-.7-.4-.7h.7c.6 0 1.5-.2 1-1.1-.5-1-1.6-1.5-2.5-1.9.7-.7 1.7-1.5 1.8-2.5 0-.9-1-.4-1.5-.2.1-.9.4-3.1-.6-2.8-.6.1-1.1.9-1.4 1.3z"/><path id="XMLID_5066_" class="st17" d="M48.1 198.3c-.3 1.1.3 2.5 1.3 2.7.7.1 1.4-.1 1.6-.7.5-.9.3-2.5-.5-3.2-.9-.7-2.1 0-2.4 1.2z"/><path id="XMLID_5064_" class="st12" d="M48.7 199c.1.6.6 1 1.1 1 .6 0 .9-.6.8-1.2v-.1c-.1-.5-.4-.9-.8-1-.6-.1-1.2.6-1.1 1.3z"/></g></g><g id="XMLID_2624_"><g id="XMLID_2625_"><path id="XMLID_5060_" class="st20" d="M87.3 201.2c.5 1.1 1.2 2 1.7 3.2v.1c-.1.1-.1.2-.2.3 0 .1 0 .2.1.3.1.1.2.1.3 0 .1 0 .2-.1.3-.2.1-.1.1-.3.1-.4-.1-.1-.3-.2-.5-.2-.4-1.2-1-2.2-1.6-3.2-.1-.1-.2 0-.2.1z"/><path id="XMLID_5058_" class="st20" d="M91.6 197.6c-1 .5-2 1-3.1 1.2-.1 0-.1.2 0 .2 1.1-.2 2.1-.6 3.1-1.2.1.2.3.3.5.2.2-.1.4-.3.4-.6 0-.6-.8-.3-.9.2z"/><path id="XMLID_5056_" class="st20" d="M84.9 200.8c-.6.7-1.3 1.2-2 1.7-.1-.1-.2-.1-.3-.1-.3 0-.3.5-.1.7.1.1.2.2.3.1.1-.1.2-.3.2-.5v-.1c.7-.5 1.4-1.1 2-1.8.1.1 0-.1-.1 0z"/><path id="XMLID_5054_" class="st20" d="M81.1 195.2c-.2.1-.1.4 0 .6.1.1.5.1.6.1.1 0 .3 0 .3-.1 0 .9 1.4 1.6 2.3 2.1.1 0 .1-.1.1-.2-.9-.6-1.8-1.3-2.5-2.1h-.1c0-.1-.1-.3-.2-.4-.2-.1-.4-.1-.5 0z"/><path id="XMLID_5052_" class="st20" d="M86.9 193c-.1.2.1.4.2.5h.1c-.3 1-.3 2-.1 3 0 .1-.1.1-.2 0 0-1 .1-1.9.1-2.9 0 0 .2-.1.3-.1.1 0 0-.1 0-.2.1-.1.2-.3 0-.4-.1-.1-.2-.1-.3-.2 0 .1-.1.1-.1.3z"/></g><g id="XMLID_2626_"><path id="XMLID_5049_" class="st21" d="M87.7 194.5c-.3.5-.7 1-.9 1.5-.2-.7-.3-1.4-.7-2-.2-.3-.7-1-1.2-1-.4 0-.8.2-.8.7 0 .3 0 .9-.2 1.1-.2.1-.4.1-.6.2-1.4.3-.5 1.9.5 2.6-.8-.1-1.7-.1-2.4.4-.4.3-.6.6-.5 1.1.1.5.6.8 1 1-.4.5-.3 1 .3 1.3.9.4 1.8.2 2.7-.2-.6 1-1.4 2.4-.9 3.6.5 1.1 1.9.4 2.4-.5.2.7.8 2 1.4 1.2.5-.7.6-2.1.4-3 .6.4 1.9 1 2.4.5.2-.2.2-.4 0-.6-.1-.1-.5-.7-.4-.7h.7c.6 0 1.5-.2 1-1.1-.5-1-1.6-1.5-2.5-1.9.7-.7 1.7-1.5 1.8-2.5 0-.9-1-.4-1.5-.2.1-.9.4-3.1-.6-2.8-.6.1-1.1.9-1.4 1.3z"/><path id="XMLID_5047_" class="st17" d="M85 198.4c-.3 1.1.3 2.5 1.3 2.7.7.1 1.4-.1 1.6-.7.5-.9.3-2.5-.5-3.2-.9-.7-2.1 0-2.4 1.2z"/><path id="XMLID_5045_" class="st12" d="M85.6 199.1c.1.6.6 1 1.1 1 .6 0 .9-.6.8-1.2v-.1c-.1-.5-.4-.9-.8-1-.6-.1-1.1.6-1.1 1.3z"/></g></g><path id="XMLID_5041_" class="st19" d="M98.5 177.7s-.1 0 0 0c-.9 1-1.5 2.6-.8 3.8l.3-.1.4-.1s.5-1 .7-1.5c.1-.7 0-1.5-.3-2.1 0-.1-.3 0-.3 0z"/><path id="XMLID_5039_" class="st19" d="M92.2 185c1.2.6 2.9.7 3.9-.3l-.2-.3-.2-.3s-1.1-.3-1.7-.2c-.7.1-1.4.4-2 .9l.2.2z"/><g id="XMLID_2627_"><g id="XMLID_2628_"><path id="XMLID_5037_" class="st22" d="M97.3 184.1c.3.5.7.9.9 1.4l-.1.1v.1h.2c.1 0 .1 0 .2-.1.1 0 .1-.1 0-.2s-.2-.1-.3-.1c-.2-.3-.5-.8-.9-1.2 0-.1-.1 0 0 0z"/><path id="XMLID_5035_" class="st22" d="M99.6 182.5c-.5.2-1.1.4-1.7.5-.1 0 0 .1 0 .1.6 0 1.2-.2 1.7-.6.1.2.2.2.3.2.1 0 .2-.1.2-.3-.1-.2-.5-.1-.5.1z"/><path id="XMLID_5033_" class="st22" d="M96 183.9c-.3.3-.7.5-1 .8h-.2c-.2 0-.2.2-.1.3 0 0 .1.1.2 0 .1 0 .1-.1.1-.2.4-.2.7-.5 1-.9.1.1 0 0 0 0z"/><path id="XMLID_5031_" class="st22" d="M94 181.5c-.1.1-.1.2 0 .3.1.1.1.1.2 0h.1c.7.4.8.7 1.3.9 0 0 .1 0 .1-.1-.5-.3-.9-.6-1.3-.9 0-.1 0-.1-.1-.2-.2-.1-.3-.1-.3 0z"/><path id="XMLID_5029_" class="st22" d="M97 180.5c0 .1.1.2.1.2-.2.4-.1.9-.1 1.3 0 .1.2 0 .2 0 0-.5.3-.8.3-1.3h-.1s-.1 0-.1-.1c.1-.1 0-.1 0-.2-.1 0-.1-.1-.2-.1 0 .1-.1.1-.1.2z"/></g><g id="XMLID_2629_"><path id="XMLID_5026_" class="st23" d="M97.5 181.2c-.2.2-.4.4-.5.7-.1-.3-.2-.6-.4-.9-.1-.2-.4-.5-.6-.4-.2 0-.4.1-.4.3 0 .1 0 .4-.1.5-.1 0-.2.1-.3.1-.8.1-.3.8.3 1.1-.4 0-.9 0-1.3.2-.2.1-.3.3-.3.5s.3.3.5.4c-.2.2-.2.5.1.6.5.2 1 .1 1.4-.1-.3.5-.7 1.1-.5 1.6.3.5 1 .2 1.3-.2.1.3.4.9.7.5.3-.3.3-.9.2-1.3.3.2 1 .4 1.3.2.1-.1.1-.2 0-.3 0-.1-.3-.3-.2-.3h.4c.3 0 .8-.1.5-.5-.3-.4-.8-.7-1.3-.8.4-.3.9-.6.9-1.1 0-.4-.5-.2-.8-.1.1-.4.2-1.4-.3-1.3-.2 0-.5.4-.6.6z"/><path id="XMLID_5024_" class="st17" d="M96 182.9c-.2.5.1 1.1.7 1.2.4.1.7-.1.9-.3.3-.4.2-1.1-.3-1.4-.5-.4-1.1 0-1.3.5z"/><path id="XMLID_5022_" class="st12" d="M96.4 183.2c0 .3.3.5.6.4.3 0 .5-.3.4-.5 0-.2-.2-.4-.4-.4-.4-.2-.7.2-.6.5z"/></g></g><path id="XMLID_5018_" class="st19" d="M37.7 175.9c-.3.7-.5 1.4-.4 2.1.1.6.6 1.5.6 1.6 0 0 .3.2.4.1l.3.1c.8-1.2.3-2.8-.5-3.8H38c-.1-.1-.3-.1-.3-.1z"/><path id="XMLID_5016_" class="st19" d="M43.9 183.3c-.5-.5-1.2-.9-1.9-1-.6-.1-1.6.1-1.7.1l-.2.3-.2.3c1 1.1 2.6 1 3.8.6v-.1c.1.1.3-.2.2-.2z"/><g id="XMLID_2630_"><g id="XMLID_2631_"><path id="XMLID_5014_" class="st22" d="M38.7 182.4c-.4.4-.7.9-1 1.4-.1 0-.2 0-.3.1-.1 0 0 .1 0 .2 0 0 .1.1.2.1h.2s.1-.1 0-.1c0 0 0-.1-.1-.1.4-.7.8-1.1 1-1.6.1 0 .1-.1 0 0z"/><path id="XMLID_5012_" class="st22" d="M36.1 180.6c0 .1.1.3.2.3s.2 0 .3-.1c.5.3 1.1.5 1.6.6.1 0 .1-.1 0-.1-.6-.1-1.1-.4-1.6-.6 0-.2-.4-.4-.5-.1z"/><path id="XMLID_5010_" class="st22" d="M40 182.4c.3.3.6.6 1 .8 0 .1 0 .2.1.2h.2c.1-.1.1-.3-.1-.3H41c-.3-.2-.6-.5-1-.7 0-.1 0-.1 0 0z"/><path id="XMLID_5008_" class="st22" d="M42 179.9c-.1 0-.1.1-.1.2-.4.3-.9.6-1.4.9 0 0 0 .1.1.1.5-.2.7-.5 1.4-.8 0 0 0 .1.1 0h.2c.1-.1.1-.2 0-.3-.1-.1-.2-.1-.3-.1z"/><path id="XMLID_5006_" class="st22" d="M39.1 178.7c-.1 0-.1 0-.2.1-.1 0-.1.1-.1.2 0 0-.1 0-.1.1h-.1c0 .4.3.9.3 1.3 0 0 .2.1.2 0 .1-.4.1-.9 0-1.3.1-.1.2-.1.1-.2 0-.2 0-.2-.1-.2z"/></g><g id="XMLID_2632_"><path id="XMLID_5003_" class="st23" d="M38.1 178.8c-.5-.1-.4.9-.4 1.2-.3-.1-.8-.4-.8 0 0 .5.5.9.9 1.2-.5.2-1.1.3-1.4.8-.3.4.2.5.5.5h.4c.1 0-.2.2-.2.3-.1.1-.1.2 0 .3.3.2 1 0 1.3-.1-.1.4-.1 1 .1 1.3.3.4.6-.2.8-.5.2.4.9.8 1.2.3.3-.5-.1-1.1-.4-1.6.4.2.9.3 1.4.2.3-.1.4-.4.2-.6.2-.1.5-.2.5-.4s-.1-.4-.3-.5c-.3-.2-.8-.2-1.3-.2.5-.3 1.1-.9.3-1.1-.1 0-.2 0-.3-.1-.1-.1-.1-.4-.1-.5 0-.2-.2-.3-.4-.3s-.5.2-.6.4c-.2.2-.3.6-.4.9-.1-.2-.3-.5-.4-.7-.1-.4-.3-.7-.6-.8z"/><path id="XMLID_5001_" class="st17" d="M38.8 180.6c-.5.3-.6 1-.3 1.4.1.3.5.4.9.4.6-.1.9-.7.8-1.2-.2-.5-.9-.9-1.4-.6z"/><path id="XMLID_4999_" class="st12" d="M39.2 180.9c-.2 0-.4.2-.4.4 0 .3.1.5.4.6.3 0 .6-.1.6-.4 0-.3-.3-.6-.6-.6z"/></g></g><path id="XMLID_2633_" class="st24" d="M73.1 132.2c0-1 1.5-1.7 3.3-1.7 1.8 0 3.3.8 3.3 1.7-.1.9-6.6.9-6.6 0z"/></g><g id="XMLID_4917_"><path id="XMLID_4994_" class="st25" d="M199.8 457.1l-.4 14.6s59.3 3.3 64.1 3.4c1 0 0-5.9 0-5.9s-51.1-12.3-49.5-12.3c1.8-.1-14.2.2-14.2.2z"/><path id="XMLID_4993_" class="st25" d="M166.7 455.1l-1 17.1s-39.4 10-44.3 10.6c-1 .1-11.2-.4-11.2-.4s-1.7-4.7.6-5.6c15.5-5.5 39.6-20.6 38.4-20.5-1.7.2 17.5-1.2 17.5-1.2z"/><path id="XMLID_2634_" class="st26" d="M219 458.5l-8.5-225c-6.5-9.8-70.6 13.7-77.4 14.7l13.8 210.6 22.4 1.2 7.9-158.6 17.5 159.4 24.3-2.3z"/><path id="XMLID_2635_" class="st27" d="M226.7 144.5h-.1c0-.3 0-.6-.1-.8 0 0-35.9-14.2-56.9-13.4-20.8.8-58.8 10.8-61.7 18.2l-.3.3-17.3 70.6 7.5 6.3 17-.3 8.6-31.5c3.4 23.4 11.7 65.9 11.7 65.9s72.1-1.5 72.4-2.1c6.4-9.9 7.5-50.9 7.8-64.9.1-2.5.2-5 .5-7.3l13.8 39.8 17.6 3.6 5.7-11.2-26.2-73.2z"/><path id="XMLID_2636_" class="st28" d="M210.2 250.3h-77c.3 1.8.6 3.3.9 4.6h74.7c.5-1.2 1-2.8 1.4-4.6z"/><path id="XMLID_2637_" class="st28" d="M212.8 235.3h-82.4c.3 1.6.6 3.1.9 4.6h80.9c.2-1.5.4-3 .6-4.6z"/><g id="XMLID_2638_" class="st29"><path id="XMLID_2639_" class="st30" d="M214.1 220.2h-86.4c.3 1.6.5 3.1.8 4.6h85.3c.1-1.5.2-3 .3-4.6z"/></g><g id="XMLID_2640_" class="st29"><path id="XMLID_2641_" class="st30" d="M214.9 205.1h-89.8c.3 1.5.5 3.1.8 4.6h88.8c0-1.5.1-3.1.2-4.6z"/><path id="XMLID_2642_" class="st30" d="M249.7 208.9l-1.3-3.8h-25.9l1.6 4.7h25.6z"/><path id="XMLID_2643_" class="st30" d="M92.6 209.8H119l1.2-4.7H93.7z"/></g><g id="XMLID_2644_" class="st29"><path id="XMLID_2645_" class="st30" d="M215.2 192.8c0-.9.1-1.8.1-2.7H97.4l-1.1 4.6h26.8l.2-.8c0 .3.1.6.1.8h91.7c.1-.7.1-1.3.1-1.9z"/><path id="XMLID_2646_" class="st30" d="M243 190.1h-25.7l1.6 4.6h25.7z"/></g><path id="XMLID_2647_" class="st28" d="M100 179.6h139.2l-1.6-4.6H101.1z"/><path id="XMLID_2648_" class="st28" d="M103.7 164.6h130.2l-1.7-4.7H104.8z"/><path id="XMLID_2649_" class="st28" d="M228.5 149.5l-1.7-4.6H111.6c-1.9 1.2-3.2 2.5-3.7 3.6l-.3.3-.2.8h121.1z"/><path id="XMLID_2650_" class="st28" d="M197.8 134.4c-9.7-2.5-20.1-4.5-28.3-4.2-7.8.3-18.1 1.9-28 4.2h56.3z"/><path id="XMLID_2651_" class="st31" d="M101 225.6l4.7-.1v-68.9l-4.7 18.9z"/><path id="XMLID_2652_" class="st31" d="M116.1 220.3l4.6-16.9v-62.8c-1.7.6-3.2 1.3-4.6 1.9v77.8z"/><path id="XMLID_2653_" class="st31" d="M131.2 239.4c2.2 11.7 3.8 20.3 3.8 20.3h.8V135.9c-1.6.4-3.1.8-4.6 1.3v102.2z"/><path id="XMLID_2654_" class="st31" d="M146.2 259.5c1.4 0 3-.1 4.6-.1V132.5c-1.5.3-3.1.6-4.6.9v126.1z"/><path id="XMLID_2655_" class="st31" d="M161.3 259.1c1.5 0 3.1-.1 4.6-.1V130.5c-1.5.1-3 .3-4.6.5v128.1z"/><path id="XMLID_2656_" class="st31" d="M176.4 258.8c1.6 0 3.1-.1 4.6-.1V131c-1.6-.2-3.1-.4-4.6-.5v128.3z"/><path id="XMLID_2657_" class="st31" d="M191.4 258.4c1.6 0 3.2-.1 4.6-.1V134c-1.5-.4-3.1-.8-4.6-1.1v125.5z"/><path id="XMLID_2658_" class="st31" d="M206.5 257.8c.6 0 .9-.1.9-.1 1.5-2.3 2.7-6.4 3.7-11.5V138.3c-1.5-.5-3-1-4.6-1.4v120.9z"/><path id="XMLID_2659_" class="st31" d="M221.6 202.4l4.6 13.3v-72.2c-.6-.2-2.2-.9-4.6-1.7v60.6z"/><path id="XMLID_2660_" class="st31" d="M236.6 226.8l4.7.9v-42.4l-4.7-13z"/><path id="XMLID_4944_" class="st32" d="M145.6 133l-.4 20.6 15-8.4 9.7 1-16.4-12.2 3.3-2.5-.1-5.3c0-.2-10.4 3.2-11.1 6.8z"/><path id="XMLID_4943_" class="st32" d="M191.3 132.9l2.4 16.9-15.4-6.1-8.4 2.4 12.2-11.7-7.3-3.7-.5-5.5c0 .1 16.3 2.7 17 7.7z"/><path id="XMLID_2661_" class="st33" d="M133.7 28.8S145.9 1 151.9.6s6.4 5.2 13.5 5.2c7.7 0 5.1-5.8 11.8-5.8 6.7 0 19.1 29.6 19.1 29.6s-36.8 5.2-62.6-.8z"/><path id="XMLID_2662_" class="st33" d="M133.7 28.8S145.9 1 151.9.6s6.4 5.2 13.5 5.2c7.7 0 5.1-5.8 11.8-5.8 6.7 0 21 29.3 21 29.3s-38.7 5.5-64.5-.5z"/><path id="XMLID_2663_" class="st34" d="M197.4 32.8s-1.6-7.5-5.1-14.2c-23.1-2.5-43.9-1.1-54.2.3-3.3 6.2-4.5 13.4-4.5 13.4 25.9 5.9 63.8.5 63.8.5z"/><path id="XMLID_2664_" class="st33" d="M124.5 95.9S96.1 83.2 99.1 51.8s30.6-35.2 45.4-29.4c17.5 6.8 26.4 5.6 35.3 1s38.1-9.9 46 12.9.8 43.8-14.7 57.6c-37.1 33-86.6 2-86.6 2z"/><path id="XMLID_2665_" class="st4" d="M140.4 111.3s-8.5-3.1-12.9-7.7c-2.8-3-1.6-7.3-3.1-9.7-1.3-2.2-4.8-4.6-5.4-7.3-1.5-6.2 1.1-12.8 1.9-13.9 2.1-2.9 3.9-18.2 7.3-20.3 3.5-2.1 7.3 18 7.3 18s15.9 48 4.9 40.9z"/><path id="XMLID_2666_" class="st4" d="M204.9 68.6s2.9 10.8 2.1 17.6c-.8 6.8-7.9 13.5-7.9 13.5l1.4-29.4 4.4-1.7z"/><path id="XMLID_2667_" class="st35" d="M160.8 37.8c-21.2.1-28.5 17-28.1 38.9-2.3-1-4.6-1.3-6.2-.6-3.7 1.7-4.6 7.4-2.1 12.9 1.7 3.8 6.1 5.9 9.8 6.3 2 12.9 6.8 23.6 18.9 27.9l.3 10.9 16.4 12.2 12.4-11.8-.2-11.7c11.7-4 20.5-13.1 21.1-28.3 1.9-41.9-8.8-56.8-42.3-56.7z"/><path id="XMLID_4935_" d="M147.2 81.5c-.1 2.8 1.4 5.1 3.2 5.1 1.8 0 3.3-2.2 3.4-5 .1-2.8-1.4-5.1-3.2-5.1-1.8-.1-3.3 2.2-3.4 5z"/><path id="XMLID_4934_" d="M184.1 81.4c-.1 2.8 1.4 5.1 3.2 5.1 1.8 0 3.3-2.2 3.4-5 .1-2.8-1.4-5.1-3.2-5.1-1.9 0-3.4 2.2-3.4 5z"/><path id="XMLID_4933_" class="st36" d="M158.2 68.1s-4.8-1-8.5-.6c-2.7.3-6.7 1.9-6.7 1.9l1.6 3.6s2.9-.3 5.9-.8c2.9-.5 7.2.6 7.2.6l.5-4.7z"/><path id="XMLID_4932_" class="st36" d="M178.9 68.3s4.7-1.2 8.5-1c2.7.2 6.8 1.5 6.8 1.5l-1.4 3.7s-2.9-.2-5.9-.5c-2.9-.3-7.2.9-7.2.9l-.8-4.6z"/><path id="XMLID_4931_" class="st37" d="M170.4 106.8c-2.1-.1-4.4-.6-6.9-1.5-1 .3-2 .7-2.7 1.2l-.4.8c3.5 1.5 6.8 2.2 9.8 2.4 3.8.2 7.2-.5 10-2l-.2-.4c-.7-.6-1.7-1.1-2.8-1.5-1.9.7-4.2 1.1-6.8 1z"/><path id="XMLID_2668_" class="st4" d="M132.3 79s3.1-2.5 3.3-8.7 8.9-15.6 19.1-14.9c5.5.4 17.4.5 28.4-.4 12-1 15-.2 15.7 2.5.8 2.7 4.2 15.1 4.2 15.1s3.1-1.9 3.1-5-.6-5.6-2.7-10.8-5-21.4-33-20.9c-28 .6-35.2 8.3-40 13.1-5.2 5.2-4.8 14.7-6.4 16-1.5 1.4 4.1 11.7 8.3 14z"/><path id="XMLID_2669_" class="st4" d="M159.7 99.1s-7.7 2.3-10.8 10.8c0 0 12.8-3.5 23.9-3.4 12.2.1 17.8 1.6 17.8 1.6s-8.2-8.8-10.9-9.2c-1.5-.2-4.8-.6-9-.8-5.4-.1-11 1-11 1z"/><path id="XMLID_4926_" class="st38" d="M212.3 283.9h-.3c-3.3.3-7.5.5-10.4-.6-10.5-3.8-13.4-13.3-14.2-16.6-.6-2.3-.7-4.4-.8-5.5 5.4-.3 19.4-.7 23.5-1.4-.2-.8-.3-1.7-.5-2.5-2.2.3-4.8.9-7.9.9-6.7 0-15.2.8-23.8.9l-1.6-.1v.1H174c-8.8 0-17.4-.4-24.3-.9-.6 0-1.3-.1-2-.2h-.2v.1c-2.7-.2-5.1-.4-7-.5-.3.8-.6 1.5-.8 2.3 2.1.2 13.6.8 16.8 1.1 0 .8 0 1.8-.1 2.9-.3 3.4-3.2 16.7-12.2 21.4-2.1 1.4-5 2.1-7.4 2.4-.4.1-.8.1-1.1.1l.2 1.9c2.7-.3 6.7-1 9.6-3 10.9-7.1 12.6-19.1 13-22.7.1-1.1.1-2.1.1-2.9 5 .3 2 .2 8.2.4 0 1.1 0 2.6.1 4.3.2 4 .6 9.2 1.6 13.1 2 7.7 6.7 10.1 6.8 10.1l1.1.5 1.3-28c5.5 0 1.7-.1 6.6-.3.1 1.2.2 3.5.9 6 .9 3.5 3.8 14.1 15.5 17.9 3.5 1.2 8.1.9 11.6.6.1-.5.1-1.1 0-1.8zm-37.2 3.1c-1.4-1.1-3.7-3.6-4.9-8.3-1-3.8-1.4-8.9-1.6-12.8-.1-1.6-.1-3.1-.1-4.2 2 0 3.9.1 5.9.1h1.9l-1.2 25.2z"/><path id="XMLID_2670_" class="st35" d="M142.7 262.1c-.1-.2-.3-.3-.4-.4l-26.9-38.5 1-5.8-15.5-14.4s-15.5 9.7-10.5 22l39.4 42.2 5.5 20.9 3-.3c3-1.2 8.1-.6 15.2-13l-10.8-12.7z"/><path id="XMLID_2673_" class="st35" d="M243.8 205l-17.3 12.5 2 5.2-30.9 41h.1l-7 11c2.1 3.2 5.7 7.7 13.9 9.4l5.1.2 3.2-15.9 40.9-43.4c2-14.2-10-20-10-20z"/><path id="XMLID_4923_" class="st32" d="M91.4 198.7s-.8 7.5-2.6 13.9c-1.9 6.4 30.7 8.8 30.7 8.8l1.6-12.7s-8.7-4.4-17.5-7.4c-6.3-2.2-12.5-2.9-12.2-2.6z"/><path id="XMLID_4922_" class="st32" d="M251.7 196.5s.8 7.5 2.7 13.9c1.9 6.4-30.7 9-30.7 9l-4.4-10.9s11.4-6.3 20.3-9.4c6.2-2.1 12.3-2.8 12.1-2.6z"/><path id="XMLID_2674_" class="st39" d="M168.1 95c0-1 1.5-1.7 3.3-1.7 1.8 0 3.3.8 3.3 1.7-.1 1-6.6 1-6.6 0z"/><g id="XMLID_2675_"><path id="XMLID_4920_" class="st0" d="M120.7 231.3l-4 .4c-.6.1-1.1.5-1.2 1.1v.2c-.1.7.4 1.4 1.1 1.5l5.1.5-6.7 1.6s-1.6.7-1.5 2.2c.1 1.5 2 1.4 2 1.4l8.8-1.3-8.2 3.6s-2.1 1-1.5 2.2c.6 1.1 2.9 1.1 2.9 1.1l9.4-3.2-6.6 5.4s-1.9 1.5-1 2.5 3.8-.2 3.8-.2l9.1-5.6s2-1.7 1.6-2.9c-.4-1.2-1.6-1.7-1.6-1.7s1-1 .3-2.6c-.3-.7-1.8-.7-1.8-.7s.5-1.4 0-2.3c-.4-.9-2.2-.8-2.2-.8s.7-1.6-.6-2.1c-1.2-.4-7.2-.3-7.2-.3z"/></g><path id="XMLID_4918_" class="st0" d="M120.8 231.6s-.8-4.6.1-6.1-1.3-2.9-4-.7l3.9 6.8z"/></g></g><g id="XMLID_2569_"><path id="XMLID_4915_" transform="matrix(-.9999 .0116 -.0116 -.9999 535.075 892.966)" class="st35" d="M258 430.7h13.8v34.8H258z"/><path id="XMLID_4914_" transform="matrix(-.9999 .0116 -.0116 -.9999 458.491 894.297)" class="st35" d="M219.7 431.1h13.8v34.8h-13.8z"/><path id="XMLID_4913_" d="M234.1 464.1l.9 13.8s-53.2 5.3-57.5 5.5c-.9.1-.2-5.6-.2-5.6s44.6-13.3 43.2-13.2c-1.6 0 13.6-.5 13.6-.5z"/><path id="XMLID_4912_" d="M257 462.6l1.1 15s33.5 8.1 37.6 8.6c.9.1 9.5-.5 9.5-.5s1.4-4.2-.6-4.9c-13.2-4.6-33.8-17.4-32.7-17.3 1.3.1-14.9-.9-14.9-.9z"/><path id="XMLID_2570_" class="st40" d="M216.9 459L214 269.7s69.2-.2 75.5.7l-15.2 187.2-18.6 1-8.1-134.3-10.4 136.1-20.3-1.4z"/><path id="XMLID_4907_" class="st41" d="M176.5 247.1l29.1 45.8 20.3-1.7c4.7-.2 46.9.7 54.4 1.7L292 299l34.4-48.8c1.6-2.1.8-6.7-.2-8.9l-19.5-53.6c-1.5-1.6-2.8-3-4.1-4.1-7.9-8.3-31.5-21.9-47.9-22.6-15.5-.7-41.1 14.3-50.7 20.4-2 .8-4.1 2.3-6 4.6 0 0-22.1 56.6-22 58.5 0 0-.1 1.7.5 2.6zm112.2 18.8c1.7-17.7 3.9-39.1 5.2-49.4.1-1 .3-1.9.4-2.8l9.8 32.6-15.4 19.6zM200 245.6l8.6-23.7c.9 8.4 1.1 23.9 1.8 38.4L200 245.6z"/><path id="XMLID_4898_" class="st42" d="M247.7 161.4l-2 97.2.3 30.4c2.1 0 4.2.2 6.4.4l-1.2-128.5c-1.1.1-2.3.2-3.5.5zm-49.8 24.4l-3.3 8.8.7 82 6.4 10.1-.4-39.1-1.6-2.2 1.5-4.2-.5-58.2c-.9.7-1.8 1.6-2.8 2.8zm-19.8 63.7l-.1-11s-2 4.7-2 6.4c-.1 2 2.1 4.6 2.1 4.6zm48-80.2c-2.2 1-4.3 2.1-6.3 3.1l1.1 120.8 4.9-2.3c.5 0 .9 0 1.4-.1l-1.1-121.5zm100 71.8l-6.1-16.8.3 34.3 6.3-8.9c0-.1-.3-8.5-.5-8.6zm-49-74.1c-2.1-.9-4.2-1.8-6.4-2.6l1.2 127c2.2.3 4.4.6 6.4.9L277.1 167zm23.5 14.5c-1.8-1.6-3.9-3.2-6.4-4.9l.3 37.8 6.6 21.8-.5-54.7zm.6 68l-6.3 8 .3 36.5 6.3-8.9-.3-35.6z"/><path id="XMLID_4888_" class="st43" d="M308 276.1l-113.1-.2 4 6.4 104.6.2 4.5-6.4zm-102-47.6h-24.1l-2 5.5c.3.3.5.6.8.9h23.1l2.2-6.4zm-17-19.1l125.6.2-2.3-6.4-120.9-.2-2.4 6.4zm8.8-23.3l107.7.2c-1-1.1-2-2-2.9-2.8-1-1.1-2.4-2.3-3.9-3.5l-92.4-.1c-.9.5-1.7 1-2.4 1.5-2 .8-4.1 2.3-6 4.6l-.1.1zm126 48.5l-2.2-6h-22.8l1.9 6.4s20.6 1.2 23.1-.4zm-34.6 24.5c.2-2.1.4-4.2.6-6.4l-79.9-.1c.1 2.1.2 4.2.3 6.4l79 .1zm-84.2-6.5h-24.9l4 6.4h25.4l-4.5-6.4zm88.7 6.5h26.2l4.5-6.3h-25.7l-5 6.3zm-84.4-24.3l82.4.1c.2-2.2.5-4.3.7-6.4l-83.4-.1c.1 2 .2 4.2.3 6.4z"/><path id="XMLID_4887_" class="st44" d="M280.7 457.1s-.7 5.4-1.5 10.1c-.8 4.6-24.3-2.8-24.3-2.8l-.1-10c0-.1 29.1 1.9 25.9 2.7z"/><path id="XMLID_4886_" class="st44" d="M242.1 455.4s-.2 5.5-.5 10.2c-.3 4.7-26.7 0-26.7 0l-1.3-10s31.9-1.4 28.5-.2z"/><path id="XMLID_4885_" class="st45" d="M277.8 164.6l4.7 19-21.3-7-8.9 2.8 18.1-13.8-4.8-2.8.1-6c.1-.1 11.3 3.8 12.1 7.8z"/><path id="XMLID_4884_" class="st45" d="M228.6 164.6l-4.8 18 19.4-6.3 9.1 3.1-15.9-14.6 9.9-2.7.5-6.2c.1 0-17.4 3-18.2 8.7z"/><path id="XMLID_4883_" class="st35" d="M283 306.6c-5.3-3.3-10.2-7-15-10.9l7.6-11.5c3.7-4.1 16.5 2.8 16.5 2.8l-6.4 20-2.7-.4z"/><path id="XMLID_4882_" class="st35" d="M218.2 306.9c5.5-3 10.5-6.5 15.5-10.2l-7.1-11.9c-3.5-4.3-16.6 2-16.6 2l5.4 20.3 2.8-.2z"/><path id="XMLID_4881_" class="st45" d="M300.6 290.5s-2.6 4.8-5 8.9c-2.4 4.1-23.1-12-23.1-12l4.8-8.7c.1 0 26.6 12.2 23.3 11.8z"/><path id="XMLID_4880_" class="st45" d="M207.7 298.4s-2.2-5-3.9-9.4c-1.8-4.4 21.4-9.2 21.4-9.2l5.2 8.6s-22.3 11.1-22.7 10z"/><path id="XMLID_4879_" class="st7" d="M246.5 144c.4-.1.9-.2 1.4-.3-.1-.4-.1-.7-.1-.8l-1.3 1.1z"/><path id="XMLID_2676_" class="st35" d="M258.9 75.6c20.2.5 33.6 23.2 32.3 44.4-1.1 18.7-7 34.5-24.7 38.7l-.3 9.9-13.7 10.9-11.5-10.7.3-11.3c-10.8-3.9-18.9-12.5-19.3-26.8-.9-38.9 6.1-55.8 36.9-55.1z"/><path id="XMLID_4872_" class="st46" d="M295.2 81.5c-7.2-13.4-44.3-12.6-58.6-7.9-2.2.7-.3 2.4-.6 8.9-.7 15.4 26.5 9.1 44.3 21.9 3.6 2.2 9.2 14.2 5.7 38.8-.5 4 6.2-9.7 6.6-11.2 3.6-15.3 8.4-39.6 2.6-50.5z"/><path id="XMLID_4871_" class="st35" d="M281.1 124.8c-2.4 5-2.6 9 .7 10.6 3.3 1.6 10.9-.1 13.3-5.1 2.4-5 1.6-10.4-1.7-12-3.4-1.7-10 1.4-12.3 6.5z"/><path id="XMLID_2697_" class="st47" d="M249.9 152.6c6.7.2 11.3-3.1 13.4-10.6l-24-.6c-.1-.1 1.9 10.9 10.6 11.2z"/><path id="XMLID_2313_" class="st7" d="M263 141.8c-3 3-7.6 4.4-13.5 4.2-4.8-.1-7.9-1.9-9.8-3.8-.2-.5-.3-.9-.3-.9l23.6.5z"/><path id="XMLID_2698_" class="st46" d="M225 111.4s-1.3-14.3 7.7-21.8c3.3-2.7 8.9-16.9 3.8-16.1-5.1.7-13.2 1.2-13.6 13.8-.4 11.2-1.7 29.7-1.7 29.7l3.8-5.6z"/><path id="XMLID_2699_" class="st48" d="M291.4 117.6s-8.7-.2-11.5-.3c-.8-4.7-4.8-7.9-10.5-8.1l-5.9-.2c-6.6-.3-11.5 3.8-11.7 9.8v1.1c-.9-.5-1.6-.5-2.7-.6-1.2-.1-2.2 0-3.2.6v-.7c.1-6-4-10-10.1-10.1h-5.5c-6 0-10.3 4.2-10.4 10.1-.1 6 4.3 12.8 10.3 12.8h5.4c5 0 9.2-4.5 10.1-10.2.9-.6 1.9-.9 3-.8 0 0 1.7.1 3.2.8 1.1 5 5.2 9.8 10.5 10l5.9.2h.4c5.4 0 10.1-4.5 11-10.2 2.3-.2 5.1-.3 6.1-.3 0 0 .6-1.1 2.4-2.4s4.1-1.3 4.1-1.3c-.1-.1-.4-.2-.9-.2zm-55.7 12v1.2-1.2h-5.4c-4.1 0-7.9-5.1-7.8-10.3.1-5.3 4-7.7 8-7.7h5.4c4.8 0 7.7 3 7.6 7.7l.1.7c-.2 5.2-3.7 9.6-7.9 9.6zm41.8-9.3c-.2 5.1-4.2 9.4-8.7 9.4l-6.2-.2c-5-.2-8.7-5.9-8.5-10.6.2-5.1 4.5-7.4 8.7-7.4h.5l5.9.2c4.2.2 8.6 2.3 8.3 7.8v.8z"/><path id="XMLID_1356_" d="M230.5 120.8c0 2.6 1.4 4.7 3.2 4.7 1.8 0 3.3-2.1 3.3-4.7s-1.4-4.7-3.2-4.7c-1.8 0-3.3 2.1-3.3 4.7z"/><ellipse id="XMLID_352_" transform="matrix(-1 -.00563 .00563 -1 530.864 243.997)" cx="265.8" cy="121.3" rx="3.3" ry="4.7"/><path id="XMLID_2703_" class="st49" d="M251.2 134.2c0-1.4-1.6-1.4-3.5-1.4s-3.5.1-3.5 1.4c.1 1.4 7 1.4 7 0z"/></g><g id="XMLID_2704_"><path id="XMLID_2705_" class="st50" d="M122.8 391.1l29.8-21.6s4 13.7-8 20.6c-13 7.4-21.8 1-21.8 1z"/><path id="XMLID_2706_" class="st51" d="M163.7 349.7s-21-4.9-35.2 2.5c0 0 23 4.3 32.7 2.1l2.5-4.6z"/><path id="XMLID_2707_" class="st52" d="M162.9 460.6s-3.3 5.6 4.9 28.6H181l-1.2-8-16.9-20.6z"/><path id="XMLID_2708_" class="st53" d="M181 489.2l34.5-.3-1.5-46.3c-33.9-27.5-34.5-44.7-34.5-44.7l-40.1-2.5 5.8 93.4h-.5l-4.5.8-.2 1.7h10.5v-2.5l-.6-48.3 31.1 48.7z"/><path id="XMLID_2709_" class="st52" d="M160.4 491.2h25.1v-2.4h-20.4l-4.5.8z"/><path id="XMLID_2710_" class="st54" d="M149.8 440.4l31.3 50.8h15.6l-.1-2.8-3.5-14.2s-3.9-13.2.4-17.5l-36.4-47.1-7.4 9.7 4.7-1-5.3 8.4 3.9.4s-4.5 3.9-3.5 11.7c.1.8.2 1.5.3 2.1v-.5z"/><path id="XMLID_2711_" class="st53" d="M179.4 397.9l7.5-29.8s3.7-15.4-11.7-18.7l-.2-4.7-3.3 3.5s-3.7-5.3-6.8-4.9c0 0 4.1 3.3 4.1 6.2 0 0-8.8-2.3-25.5 6.6-16.7 8.8-35.2 21-35.2 21s25.9 16.9 42.5-2.8c0 0 6.2 8.5-6.3 15.9s-21.8 1-21.8 1 12.6 9.9 17.3 9.8c12.8-.4 39.4-3.1 39.4-3.1z"/><path id="XMLID_2712_" d="M113.5 379.6l1.2-7.6-9.4 4.1z"/><path id="XMLID_2713_" class="st55" d="M152.2 380.5s-7.4-.4-10.1 2.9-.2 26.9 4.5 27.3c4.8.4 5.6-30.2 5.6-30.2z"/><path id="XMLID_2714_" class="st56" d="M215.1 480.5s11.1-3.5 21.8-18.9c10.7-15.4 16-45.4 16-45.4s13.2 17.9-3.5 38.2l6 2.1-11.3 6.8s3.7 8.6 2.9 10.1c-.8 1.4-10.5.2-10.5.2s-.4 12.5-1.6 13.4c-1.2.8-6.4-4.3-6.4-4.3l-1.4 7.6-13.2-.6 1.2-9.2z"/><ellipse id="XMLID_2715_" cx="167.4" cy="356.4" rx="2" ry="3.3"/><ellipse id="XMLID_2716_" cx="152.3" cy="356.4" rx="2" ry="3.3"/><path id="XMLID_2717_" class="st57" d="M179.9 353l-.9 9.2s.7 3.4 3.4 2.9 7.1-10.2 7.1-10.2l-9.6-1.9z"/><path id="XMLID_2718_" class="st51" d="M179.9 353l11.1-2.5s8.8 10.1 11.9 33.7c.1.1-15.6-12.2-23-31.2z"/><path id="XMLID_2719_" class="st53" d="M182.8 488.8l-.4-48-10.7-12.7.4.8 5.6 59.9h-.7l-4.4.8-.3 1.6h10.5v-2.4z"/><path id="XMLID_2720_" class="st53" d="M190.4 491.2h25.1v-2.4h-20.4l-4.4.8z"/></g></g></svg>