<svg version="1.1" id="IMG_x5F_01" xmlns="http://www.w3.org/2000/svg" xmlns:xlink="http://www.w3.org/1999/xlink" x="0px" y="0px" width="274px" height="274px" viewBox="0 0 274 274" xml:space="preserve"><style type="text/css">.st0{fill:#F7ADB4;} .st1{clip-path:url(#XMLID_18_);} .st2{fill:#F498A1;} .st3{fill:#4A3426;} .st4{fill:#DC4453;} .st5{fill:#E1996A;} .st6{fill:none;stroke:#DC4453;stroke-linecap:round;stroke-miterlimit:10;} .st7{fill:#DB854D;} .st8{fill:#E7E9EE;} .st9{fill:#783426;} .st10{fill:#C38256;} .st11{fill:#49CFAE;} .st12{fill:#646D78;} .st13{fill:#543924;} .st14{fill:#BB713F;} .st15{fill:none;stroke:#BB713F;stroke-miterlimit:10;}</style><g id="XMLID_1894_"><circle id="XMLID_1895_" class="st0" cx="136.4" cy="136.4" r="136.4"/><g id="XMLID_1896_"><defs><circle id="XMLID_6_" cx="136.4" cy="136.4" r="136.4"/></defs><clipPath id="XMLID_18_"><use xlink:href="#XMLID_6_" overflow="visible"/></clipPath><g id="XMLID_1897_" class="st1"><path id="XMLID_2598_" transform="rotate(45.001 219.694 53.505)" class="st2" d="M69.4 44H370v19H69.4z"/><path id="XMLID_2597_" transform="rotate(45.001 52.855 220.348)" class="st2" d="M-97.5 210.8h300.6v19H-97.5z"/><path id="XMLID_2596_" transform="rotate(45.001 80.661 192.54)" class="st2" d="M-69.6 183H231v19H-69.6z"/><path id="XMLID_2595_" transform="rotate(45.001 108.468 164.734)" class="st2" d="M-41.8 155.2h300.6v19H-41.8z"/><path id="XMLID_2594_" transform="rotate(45.001 136.275 136.926)" class="st2" d="M-14 127.4h300.6v19H-14z"/><path id="XMLID_2593_" transform="rotate(45.001 164.081 109.12)" class="st2" d="M13.8 99.6h300.6v19H13.8z"/><path id="XMLID_2592_" transform="rotate(45.001 191.888 81.312)" class="st2" d="M41.6 71.8h300.6v19H41.6z"/></g><g id="XMLID_1898_" class="st1"><g id="XMLID_1899_"><path id="XMLID_1900_" class="st3" d="M167.9 154.5c7.6 6.3 51.4 24.4 68 14.8-13.3-3-1.2-45.2 2.3-56.3 3.1-9.8 3.2-24.7-4.3-33.2-4.2-4.8-13.6-9.5-19.5-6.6 0 0-15.4-8.1-50.1 14.1-5.7 12.4-19 48.3 3.6 67.2z"/><path id="XMLID_2588_" class="st4" d="M159.5 273.4l-.5-28.9c-.2-3.6-.8-13.1 3.6-24.3 3.4-8.9 35.6-10.7 41.9-1.6 4 5.9 2.6 42.4 2.6 42.4l-22.8 7-1.1-13.2c0-.2-.6 6.6-1.5 17.4-.3 2.2-22.2 1.2-22.2 1.2z"/><path id="XMLID_2587_" class="st5" d="M161.2 154.7l-11.2 47 4.7 4.6 5.3-1.7 12.7-42.7c0 .1-7.2-12-11.5-7.2z"/><path id="XMLID_2586_" class="st5" d="M162.4 153.8s14.5-3.8 24.1-3.1c9.6.7 25.7 4.8 26.7 5.2 1.6.6-11.7 24.1-12.2 42.2-.1 2.4-33.8 5.7-34.8-.9-2.8-19.2-2.5-36.5-3.8-43.4z"/><path id="XMLID_2585_" class="st5" d="M181.4 150.3l3.2-31.9 10.9-.3-1.1 33.2s-.2 4.8-8.4 4.8c-4.7-.1-4.6-5.8-4.6-5.8z"/><path id="XMLID_2584_" class="st5" d="M163.6 96.2c-6.2 15.7-.7 37 13.9 42.6 19.3 7.4 36.4-8.7 42.6-24.4 6.2-15.7-2.4-28.7-18.9-35.1-16.4-6.2-31.4 1.2-37.6 16.9z"/><ellipse id="XMLID_2583_" transform="rotate(21.21 199 114.558)" cx="199" cy="114.6" rx="2.6" ry="4"/><ellipse id="XMLID_2582_" transform="rotate(21.21 171.497 103.21)" cx="171.5" cy="103.2" rx="2.6" ry="4"/><path id="XMLID_2581_" class="st6" d="M183.5 127c-.8-1.3-2-2.4-3.7-3.1-2.2-.8-4.3-1-6.2-.5"/><g id="XMLID_1901_"><path id="XMLID_2580_" class="st3" d="M207.7 110.7c-.6-1.3-3.4-4.9-3.4-4.9s-6.1-3.9-6.3-3.9l.9-2.7c.1 0 5.5 3.6 6.6 4.5.7.6 2 3.9 2.2 4.9v2.1z"/></g><g id="XMLID_1902_"><path id="XMLID_2578_" d="M179.2 98.3c-3.6-5.5-9.2-3.6-9.5-3.5l-.6-1.8c.1 0 7.3-2.5 11.7 4.3l-1.6 1z"/></g><path id="XMLID_2576_" class="st7" d="M182.1 116c.2-.7-.4-1.6-1.4-1.9-1-.3-2 0-2.2.7-.2.7 3.4 1.9 3.6 1.2z"/><path id="XMLID_2575_" class="st5" d="M151.9 203.9l-14.4-37.1 5.3 1.2 16.1 24.6 3.5 9s-2 2.9-2.8 3.5c-1.6 1.2-6.3 1.7-7.7-1.2z"/><path id="XMLID_2569_" class="st3" d="M206.7 73.4l-5.5 8.3c.6 2.9 7.4 1.8 12.8 14.2 5.4 12.1 5 32.7-11 44.3 8.2-4.8 17.3-12.2 21.2-20.8 3.6-8 5.6-18.3 4.5-27.2-.9-7.7-13.5-24.4-22-18.8z"/><path id="XMLID_2568_" class="st3" d="M209.9 65.9c-8.9-5.4-29.2-2-37.6 5.7-6.4 6-15.5 15.9-19.8 34.2-3.3 14.2-.7 28 5.7 32.3-2.5-7.1-4.5-15 1.1-24.9 5.6-10 9.1-11.8 16.1-12.6 7-.8 16.3-3.7 24-6.9 10.7-4.5 16-13.5 16-13.5 5.8-7-2.2-12.3-5.5-14.3z"/><path id="XMLID_1903_" class="st8" d="M202.4 201.3c.6 3.8 6.2 21.6 4.7 22.4-3.9 2-12.8 5.8-25.2 5.5-19.2-.5-22-7.4-22-7.4s3.3-14 3.9-21.4c.4-5.8-1.2-25.2-1.2-25.2l-1.3-21.9s5.6-.7 7.2-1c1.2-.2 4.5-.7 4.5-.7s-3.8 15.5 7.9 16.3c16.6 1.2 20.1-15 20.1-15l12.4 3-8.2 23.3c0 .1-3.3 18.8-2.8 22.1z"/><path id="XMLID_586_" class="st9" d="M214.8 81.1s-11.1 3.3-23.9 7.6c-9.7 3.2-25.2 9.6-30.7 16.9-5.5 7.2-9.7 20.7-2.6 30.9 0 0-11.7-12.5-1-32.4s58.2-23 58.2-23z"/><path id="XMLID_585_" class="st9" d="M215.1 84.2s20.6 26.1-12.1 55.9c0 0 13.4-5.3 19.6-25.9 6.2-20.5-7.5-30-7.5-30z"/><ellipse id="XMLID_581_" transform="rotate(-161.334 215.641 122.964)" class="st5" cx="215.6" cy="123" rx="5.4" ry="7.2"/><path id="XMLID_580_" class="st10" d="M148.5 179c.4-.1 9.2-5.2 11.2-6.2 0 0-6.3-19-14.2-34.4-2.1-4-11-17.3-14.1-16.2-15 .3 17.1 56.8 17.1 56.8z"/><path id="XMLID_1904_" class="st10" d="M164.1 219.7c.4-9.1-.3-35.3-4.5-46.9-.7-1.8-6-.5-6-.5l-5.1 6.7 2.9 13.9 4.9 27.9c.2.7-3.2 10.4-3.2 10.4l1.5 13.1 2.3-.7.4-8.9 3.6 8.2.4 12.7 3.8-1.4 5.3-13.7-6.3-20.8z"/><path id="XMLID_540_" class="st11" d="M129.1 111.7s11.7 14.8 20.3 31.2l-15.5 9.1-13.7-23.2 8.9-17.1z"/><path id="XMLID_1905_" class="st5" d="M213.3 155.9c-6.7-2.1-10.6 6.8-10.6 6.8l-9.8 31.7-22.7-9.6v-.1c-.7-.1-9-7.6-9-7.6l-12.4-3.9-.2 1.7 9.2 4.1-11 .2.4 2.6 4.6.2-4.5.9v1.9l3.1.4-3 .8.1 2.5 3-.2-2.9 1.1.5 1.5 20.2-.7 27.7 18s2.9-1 4.4-3.8c0 0 15.6-34.7 15.8-35.2 3.6-8.6.1-12.3-2.9-13.3z"/><path id="XMLID_538_" class="st5" d="M137.5 166.8c.3-.7-2.4-11.5-2.4-11.5l2.4-12.8 1.6.7-.7 10 5.4-9.6 2.1 1.6-2 4.1 2.9-3.5 1.7.9-1.1 3 2.1-2.3 2.1 1.3-1.6 2.5 2.4-2.1 1.1 1.1-11.7 18.6-4.3-2z"/></g><g id="XMLID_1906_"><g id="XMLID_1907_"><path id="XMLID_1908_" class="st12" d="M116.4 197.8c-6.1-.3-12.2.2-18.4 1l-1.2-8.3s-23.7-12.8-30.6-4.5l-2 79.8L91 272l3-36.5.4.2 1.5 37.2 26.6 1.5 3.4-74c-5.5-.8-3.9-2.2-9.5-2.6z"/><path id="XMLID_310_" class="st10" d="M57.7 181.3c-.4-.1-10.1-2.9-12.3-3.3 0 0 4.7-35.7 8.7-52.6 1-4.4 5.2-9.2 7.8-12.3 14.5-3.1-4.2 68.2-4.2 68.2z"/><path id="XMLID_1909_" class="st10" d="M64.8 246l2.4.2-1.6-13s-5.6-8.6-5.6-9.4l-1.9-28.3-.4-14.2S45.6 176 45.4 178c-1.4 12.2 4.2 37.8 6.8 46.6L51 246.2l8.4 12.1 4 .4-2.7-12.4 1.5-8.8 2.6 8.5z"/><path id="XMLID_1910_" class="st11" d="M127.2 217.2l-62.6-1 1.9-71.9-1.2 6.7-18.3-3.8s8.7-32.5 13.3-34.5c7.1-3 20.6-5.1 34.1-5.7 10.6-.5 34.7 4.8 34.7 4.8l-1.9 105.4z"/><path id="XMLID_1911_" class="st10" d="M83.9 94.9c5.6-4.2 18.9-1.1 19.2.5v9.7s1.2 9.1-10.3 8.9c-11-.2-9.1-10.4-9.1-10.4s-.7-8.2.2-8.7z"/><path id="XMLID_102_" class="st10" d="M62.8 70.3c.9 18.7 12.8 30.2 31 30.1 16.3-.1 29.3-16.9 30-35.6.7-18.7-.7-35.9-26.6-35.5-27.4.3-36.1 6.8-34.4 41z"/><path id="XMLID_101_" class="st13" d="M132.1 33c-6.6-11.6-34.3-17.2-57-7.1-22.6 10.2-17.4 16-13.5 20.2 6.7 7.3 53.5-3.7 56.2-4.6 1.6 17.5 1 27.6-.3 39.5-.4 3.5 5.2 3.1 5.4 1.8 2.9-13.5 14.6-40.3 9.2-49.8z"/><path id="XMLID_100_" class="st10" d="M114.9 68c-2 4.5-2.1 7.9.9 9.3 3 1.3 9.6-.3 11.6-4.8s1.2-9.2-1.8-10.5c-2.9-1.4-8.7 1.5-10.7 6z"/><path id="XMLID_99_" d="M104.6 63c.1 2.4-1.1 4.4-2.7 4.4-1.5 0-2.8-1.9-2.9-4.3-.1-2.4 1.1-4.4 2.7-4.4s2.9 1.9 2.9 4.3z"/><path id="XMLID_98_" d="M77.2 63.1c.1 2.4-1.1 4.4-2.7 4.4-1.5 0-2.8-1.9-2.9-4.3-.1-2.4 1.1-4.4 2.7-4.4 1.6-.1 2.9 1.9 2.9 4.3z"/><path id="XMLID_28_" class="st13" d="M95.4 54.2s3.4-2.1 6.4-2.8c2.2-.5 5.6-.4 5.6-.4l-.2 3.2s-2.3.6-4.7 1c-2.4.4-5.4 2.4-5.4 2.4l-1.7-3.4z"/><path id="XMLID_27_" class="st13" d="M81.4 55.3s-3-2.6-5.9-3.8c-2-.8-5.5-1.3-5.5-1.3l-.3 3.2s2.2.9 4.5 1.8c2.3.8 4.9 3.3 4.9 3.3l2.3-3.2z"/><path id="XMLID_1912_" class="st14" d="M90 74.3c0-.7-1.1-1.3-2.3-1.3-1.3 0-2.3.6-2.3 1.3s4.6.7 4.6 0z"/><path id="XMLID_1913_" class="st15" d="M83.4 85.4l6.7.2"/></g></g></g></g></g></svg>