<svg version="1.1" id="IMG_x5F_01" xmlns="http://www.w3.org/2000/svg" xmlns:xlink="http://www.w3.org/1999/xlink" x="0px" y="0px" width="274px" height="274px" viewBox="0 0 274 274" xml:space="preserve"><style type="text/css">.st0{fill:#F7ADB4;} .st1{clip-path:url(#XMLID_18_);} .st2{fill:#F498A1;} .st3{fill:#F1848E;} .st4{fill:#ED5463;} .st5{fill:#BB825C;} .st6{fill:#434A54;} .st7{fill:#4B89DC;} .st8{fill:#32383F;} .st9{fill:#FFFFFF;} .st10{fill:#422D15;} .st11{fill:#AD683A;} .st12{fill:#B71E2C;} .st13{fill:#543924;} .st14{fill:#D79266;} .st15{fill:#EA573F;} .st16{fill:#AD92ED;} .st17{fill:#D38655;} .st18{fill:#735053;} .st19{fill:#977BDC;} .st20{fill:#49CFAE;} .st21{fill:#A9B2BD;} .st22{fill:#FFCE54;} .st23{fill:none;stroke:#AD683A;stroke-miterlimit:10;} .st24{fill:#F6BB43;} .st25{fill:#48341D;}</style><g id="XMLID_1889_"><circle id="XMLID_1890_" class="st0" cx="136.4" cy="136.4" r="136.4"/><g id="XMLID_1891_"><defs><circle id="XMLID_6_" cx="136.4" cy="136.4" r="136.4"/></defs><clipPath id="XMLID_18_"><use xlink:href="#XMLID_6_" overflow="visible"/></clipPath><g id="XMLID_1892_" class="st1"><path id="XMLID_2673_" transform="rotate(45.001 219.694 53.505)" class="st2" d="M69.4 44H370v19H69.4z"/><path id="XMLID_2672_" transform="rotate(45.001 52.855 220.348)" class="st2" d="M-97.5 210.8h300.6v19H-97.5z"/><path id="XMLID_2671_" transform="rotate(45.001 80.661 192.54)" class="st2" d="M-69.6 183H231v19H-69.6z"/><path id="XMLID_2670_" transform="rotate(45.001 108.468 164.734)" class="st2" d="M-41.8 155.2h300.6v19H-41.8z"/><path id="XMLID_2669_" transform="rotate(45.001 136.275 136.926)" class="st2" d="M-14 127.4h300.6v19H-14z"/><path id="XMLID_2668_" transform="rotate(45.001 164.081 109.12)" class="st2" d="M13.8 99.6h300.6v19H13.8z"/><path id="XMLID_2667_" transform="rotate(45.001 191.888 81.312)" class="st2" d="M41.6 71.8h300.6v19H41.6z"/></g><g id="XMLID_1893_" class="st1"><g id="XMLID_1894_"><path id="XMLID_2665_" class="st2" d="M-.8 250.7h274v24.6H-.8z"/><g id="XMLID_1895_"><path id="XMLID_2664_" class="st3" d="M3.7 250.7h5v24.6h-5z"/><path id="XMLID_2663_" class="st3" d="M23.7 250.7h5v24.6h-5z"/><path id="XMLID_2659_" class="st3" d="M43.7 250.7h5v24.6h-5z"/><path id="XMLID_2658_" class="st3" d="M63.7 250.7h5v24.6h-5z"/><path id="XMLID_2657_" class="st3" d="M83.7 250.7h5v24.6h-5z"/><path id="XMLID_2655_" class="st3" d="M103.7 250.7h5v24.6h-5z"/><path id="XMLID_2654_" class="st3" d="M123.7 250.7h5v24.6h-5z"/><path id="XMLID_2653_" class="st3" d="M143.7 250.7h5v24.6h-5z"/><path id="XMLID_2652_" class="st3" d="M163.7 250.7h5v24.6h-5z"/><path id="XMLID_2651_" class="st3" d="M183.7 250.7h5v24.6h-5z"/><path id="XMLID_2650_" class="st3" d="M203.7 250.7h5v24.6h-5z"/><path id="XMLID_2649_" class="st3" d="M223.7 250.7h5v24.6h-5z"/><path id="XMLID_2648_" class="st3" d="M243.7 250.7h5v24.6h-5z"/><path id="XMLID_2647_" class="st3" d="M263.7 250.7h5v24.6h-5z"/></g><path id="XMLID_2645_" class="st4" d="M-.8 243h274v7.7H-.8z"/></g><g id="XMLID_1896_"><g id="XMLID_1897_"><g id="XMLID_1898_"><path id="XMLID_2643_" class="st5" d="M30.8 92.2s-7.6 6.2-11.6 9.5c-3.3 2.8-14.2 13-14.2 13l.4 5.1 7.6 3.1s10.9-5.1 13.9-7.1c2.2-1.5 8.7-7.9 8.7-7.9s3.3-11.2 1-15.3c-.7-1.1-4.6-.6-5.8-.4z"/><path id="XMLID_2642_" class="st6" d="M69.5 241.3l-.1 7.4s31.1.6 33.9.6c.6 0 0-3 0-3-23.3-4.7-23.2-5.5-25.6-5.4.9 0-8.2.4-8.2.4z"/><path id="XMLID_2641_" class="st6" d="M47.5 241.9L47 250s20.3 5.6 22.4 5.7c.4 0 4.7-.7 4.7-.7s.5-2.4-.5-2.7c-6.8-2-19.8-10.7-19.3-10.7.8 0-6.8.3-6.8.3z"/><path id="XMLID_1899_" class="st7" d="M83.3 236.4l.3-72.4-.6-9.9c-2.9-5-24.5-12.5-24.5-12.5-5.8 1.2-17.6 4-19.6 7.8l.1 17.4c0 .5 0 1 .1 1.5l6.1 70.6c.3 3.1 1.8 5.4 4.9 5.3l6-.2c2.2-.1 3.9-1.8 3.9-4l1.5-72.7 5.9 70.5c.3 3 3 5.2 5.9 4.8l5.2-.7c2.8-.4 4.8-2.7 4.8-5.5z"/><path id="XMLID_2639_" class="st5" d="M83.1 90.6s8.4 4.6 12 7.3c5.2 4 12 10.4 12 10.4l-4.3 10s-8.8-4.8-14.2-8.2c-4.2-2.6-10-6.7-10-6.7s1.1-14.6 4.5-12.8z"/><path id="XMLID_1900_" class="st6" d="M69.7 158.3c7.7.1 13.8 0 13.9-.3 5.2-22.9-1.9-37.5-1.1-44.2 0 0 .2-23.7-.1-23.6-3.2-.9-17.7-3.7-25.8-3.3-9.6.5-24 4.9-25.1 5.2-.2 0 5.1 20.3 5.1 20.3 0 .1-1.6 13.6-1.3 25.8.2 10.2 2.4 19.5 2.4 19.5s18.5.5 32 .6"/><path id="XMLID_2637_" class="st5" d="M89.3 129.1c-1.4-.4-10 2.9-10 2.9l6.2 11.1 7.3-9.3-3.5-4.7z"/><path id="XMLID_2636_" class="st5" d="M109 118.7l-16.1 15.2-3.5-4.7 13.4-24.5s6.8 5 8.3 7.9c.8 1.5 0 3.6-2.1 6.1z"/><path id="XMLID_2635_" class="st5" d="M13.4 115.2L7 112.9s-6.9 5-2.9 9.6l24.6 15.6 7 8.3 6.9-10.1-10-5.3-19.2-15.8z"/></g><path id="XMLID_1901_" class="st8" d="M31.6 92.1l5.1 20.3s.9-1.8 0-12c-.2-1.8-2-9.2-2-9.2l-3.1.9z"/><path id="XMLID_1902_" class="st8" d="M82.5 113.8l-.1-23.6-2.7-.6s-.2 10.9.3 15.2c.4 4.1 2.5 9 2.5 9z"/><path id="XMLID_1903_" class="st8" d="M50.6 87.4l-2.5.6s3 6.4 10.9 6.1c9-.4 10.2-6.4 10.2-6.4s-12.1-2.1-18.6-.3z"/><path id="XMLID_2630_" class="st9" d="M63.5 74.6c-.2-.1-.5-.1-.7-.2 0-.2.1-.4.1-.4l.6.6z"/><path id="XMLID_1904_" class="st5" d="M56.3 40c-10 .7-15.5 10.7-15 21.7.4 9 1 14.8 8.4 19.7l.2 6.4s2.6 4 8.7 4.1c5.1.1 8.1-3.6 8.1-3.6v-5.6c5.6-2.6 8.5-5.2 9.1-14.8C77 47.8 74.9 38.6 56.3 40z"/><path id="XMLID_2628_" class="st10" d="M36.8 43.7c4.3-11.4 18.4-12.3 24.6-11.1 3.7.8 6.4 2.5 7.6 7.8.3 1.2 3.2 3.1.2 4.6-7.5 3.8-13.2.3-20.9 2.1-5.8 1.4-4.4 3.5-5.9 11.8-.5 2.6-1.2 3.1.3 13.8.8 5.9-6.3 3.6-5.7 3.2 2.9-1.5 1.1-5.5-1-20.8-.4-3.2-.8-7.4.8-11.4z"/><ellipse id="XMLID_2627_" transform="rotate(.783 69.625 62.722)" cx="69.6" cy="62.7" rx="1.5" ry="2.2"/><ellipse id="XMLID_2626_" transform="rotate(.769 53.612 62.633) scale(.99999)" cx="53.6" cy="62.6" rx="1.5" ry="2.2"/><path id="XMLID_2625_" class="st10" d="M64.6 57s4.7-1.6 6.6-1.7c1.4-.1 3.5.9 3.5.9l-.1 1.2s-.6-.1-3 .2c-1.5.2-6.1 1.4-6.1 1.4l-.9-2z"/><path id="XMLID_2624_" class="st10" d="M59.1 57s-4.7-1.5-6.6-1.6c-1.4-.1-3.5 1-3.5 1l.1 1.2s.6-.1 3 .2c1.5.2 6.1 1.3 6.1 1.3l.9-2.1z"/><path id="XMLID_2623_" class="st5" d="M45.2 64.3c1.1 2.6 1.2 4.7-.5 5.5-1.7.8-5.4-.2-6.6-2.8-1.1-2.6-.7-5.4 1-6.2 1.7-.8 4.9.9 6.1 3.5z"/><path id="XMLID_2622_" class="st9" d="M65.7 76.2c-.7.1-1.1-.6-3.7-.5-2.4.1-6 1.6-6.6.9-.1-.1-.8-2.9-.3-4 .4-.8 1.2-1.2 2.1-1.1 1.2.1 5.5 1.4 6.1 1.5 2.5.5 3.7.7 3.7.7s-.4 2.4-1.3 2.5z"/><path id="XMLID_2621_" class="st10" d="M75.9 63.3s1.8-12.8 1.2-16.1C74.7 35 66 35 63.5 34.5c-2.5-.4 4.5 9.2 6.4 9.9 5.1 2 6 18.9 6 18.9z"/><path id="XMLID_1905_" class="st11" d="M60.4 67.5c0-.5.7-.9 1.5-.9s1.5.4 1.5.9c.1.6-3 .6-3 0z"/></g><g id="XMLID_1906_"><path id="XMLID_1907_" class="st12" d="M128.4 178.4c1.6-.4 19.8-9.9 19.8-9.9l-3.2-18.6-20.6 1.6 4 26.9z"/><path id="XMLID_2617_" class="st13" d="M117.5 57.6c-2.5 4.4-7.6 49.9-9.3 55.8 0 0 3.4 8 40.3 4.5 4.5-.4 10.9-23.3 14.9-26.2 1.8-1.3-1.9-22.5-1.9-22.5s2-16.7-16.6-22.5c-10-3.1-18-5.7-27.4 10.9z"/><path id="XMLID_2616_" class="st14" d="M118.5 100.4l-6.7 31.6 3.3 5.1 2.5 1.4 6.9-29.2c0-.1-.1-21.3-6-8.9z"/><path id="XMLID_2615_" class="st14" d="M98.9 112.1c-.3-.2-1.6-1-3-2-2.5-1.6-13.1-1.2-13.1-1.2l-.2 1.4L90 112s-1.8 2.8 2.6 4.7c4.4 2 12.8.3 6.3-4.6z"/><path id="XMLID_2614_" class="st14" d="M116.3 140c-2.4.5-6.3-4.8-7.6-6.7l-11-16.9 2.7-2.8 14.7 15.8c0-.2 4.8 9.8 1.2 10.6z"/><path id="XMLID_2613_" class="st13" d="M168.5 115s-21 7.8-21.9 5c-1.4-4.3 5.4-58.9 2-62.5-1.6-1.7-30.1 6.9-30.1 6.9s-.2-20.3 19.4-21.3c30-1.7 28.3 49 30.6 71.9z"/><path id="XMLID_2612_" class="st14" d="M136.5 148.4l-2.2 96.1-3.9 1-8.7-93.2s12.1-10.1 14.8-3.9z"/><path id="XMLID_2611_" class="st14" d="M137.9 151.8l6.5 96.3 3.4-1.3 6.1-94.5c-.1-.1-15.2-7.4-16-.5z"/><path id="XMLID_2610_" class="st15" d="M121.6 96.4s11.9-1.9 17.9-1.2c6 .7 16.3 1.6 17.2 3.1.6 1-6.6 23.6-6.6 36.6 0 .9 6.2 12.6 6.2 12.6s-37-3-37.2-4.3c-.3-2.9 4.7-9.8 4.4-11.9-1.3-9.6-1.3-30.5-1.9-34.9z"/><path id="XMLID_2609_" class="st14" d="M134.2 96.5l2.8-20.4 6.8.1-1.7 19.5-4.9 6.3z"/><path id="XMLID_1908_" class="st14" d="M148.3 54.1c-.3.1-.7.2-1 .2-10.6 0-22.3.5-27.8 11-.3.5-.6.9-1 1.1v.2c-.9 10.5 5.7 22.3 15 23.1 12.3 1.1 19.4-11.5 20.4-21.9.4-6.1-1.7-10.7-5.6-13.7z"/><path id="XMLID_2607_" class="st13" d="M124.2 56.7c-.4.3-9.2 13.6-9.2 13.6s21.5-5.7 26.2-14.4c4.7-8.7-11.4-3.9-17 .8z"/><path id="XMLID_2606_" class="st13" d="M157.4 58.8c.2.4.5 14.4.5 14.4s-18.1-13.4-17.1-22.1c.9-8.6 13.6 1.6 16.6 7.7z"/><ellipse id="XMLID_2605_" transform="matrix(.996 .08974 -.08974 .996 6.944 -12.543)" cx="143" cy="71" rx="1.5" ry="2.3"/><ellipse id="XMLID_2604_" transform="matrix(.996 .08896 -.08896 .996 6.773 -10.792)" cx="124.5" cy="70.6" rx="1.5" ry="2.3"/><path id="XMLID_2603_" class="st14" d="M131.5 95.1s-1.7 5.3 2.5 7c8.8 3.5 12.7-6.1 11.9-6.2-1-.2-6.9-1.4-6.9-1.4l-7.5.6z"/><path id="XMLID_2602_" class="st14" d="M156 97.6l23.1 26.2-2.5 6.1-3.7-1.4-20.5-22.5s0-10.1 3.6-8.4z"/><path id="XMLID_2601_" class="st14" d="M179.4 129.6l-19.9 10.3-1.7-4.1 19.4-13.7c.1 0 5 3.3 2.2 7.5z"/><path id="XMLID_2600_" class="st9" d="M137.2 80.4c.6.6 1 3.5-.1 4.6-.5.5.1.2-4.5-.2-1.1-.1-2.9.3-3.8-.6-.9-.8-.4-2.2.3-2.9.3-.3 2.5 0 3.9-.2 2.1-.5 3.7-1.2 4.2-.7z"/><ellipse id="XMLID_1909_" class="st15" cx="125.9" cy="114.4" rx="6.8" ry="6.6"/><path id="XMLID_1910_" class="st16" d="M150.3 134.2s-27.1.2-28.3.2c-1.2 0-4.9 8.8-4.9 15.9s2.4 42.6 2.4 42.6l35.7.1s2.5-31.1 2.3-40.8c-.2-6-4-11.8-4.1-12.2-.3-.8-3.1-5.8-3.1-5.8z"/><path id="XMLID_2597_" class="st14" d="M150.4 138c0-.5 8.8-2.8 8.8-2.8l2.5 2.5-7.9 9.6c-.1 0-3.6-7.6-3.4-9.3z"/><path id="XMLID_2596_" class="st14" d="M134.9 246c0-1.1-.8-4.4-.8-4.4s-15 6.3-18.5 7.7h.1c-2.8 1-4.9 1.8-4.9 1.8s-.2 1.5.3 1.4c.7-.1 7.4-.1 8-.3 7.1-1.6 16.4-3.5 16.4-3.5l-.6-2.7z"/><path id="XMLID_2595_" class="st14" d="M143.3 246.6c0-1.1.7-4.5.7-4.5s15.2 6 18.7 7.2h-.1c2.8.9 5 1.6 5 1.6s.3 1.5-.2 1.4c-.7-.1-7.4 0-8-.1-7.2-1.4-16.5-3.1-16.5-3.1l.4-2.5z"/><path id="XMLID_2594_" class="st13" d="M140 65.2s2-1 3.7-1.4c1.2-.3 3.2-.4 3.2-.4l-.2.9s-1 .4-2.3.7c-1.3.3-3.6 1.5-3.6 1.5l-.8-1.3z"/><path id="XMLID_2593_" class="st13" d="M128.2 65.2s-2-1-3.7-1.4c-1.2-.3-3.2-.4-3.2-.4l.2.9s1 .4 2.3.7c1.3.3 3.6 1.5 3.6 1.5l.8-1.3z"/><path id="XMLID_1911_" class="st17" d="M131.1 75.7c0-.4.8-.8 1.8-.8s1.8.4 1.8.8-3.6.4-3.6 0z"/><path id="XMLID_1912_" class="st18" d="M110.7 253.6l.1-2.7 9.4-3.9 2.9 2.2 11.8-4.2.8 5-17.1 4.1z"/><path id="XMLID_1913_" class="st18" d="M143.1 245.5l-.3 5.5 16.4 2.9 8.6-1.3-.2-1.7-8.5-3.5-2.3 1.8z"/><path id="XMLID_1914_" class="st19" d="M121.9 134.4l.6-5.2 28.1.3-.2 4.7z"/></g><g id="XMLID_1915_"><path id="XMLID_1916_" class="st10" d="M226.7 72.2s12.6 25.9 5.8 34.5c-3.4 4.3-6.8 7-8.2 9.6-2.3 4.2.9 6.4.9 6.4s-14.8-5.2-9.4-18.9c1.5-3.8 6.9-12.9 5.2-19.3-1.6-6.5 5.7-12.3 5.7-12.3z"/><path id="XMLID_2586_" class="st20" d="M196.9 255.1l-1.4-88.7c-.2-5.1 2.5-20 10.7-21.3 7.4-1.1 17.7 17.8 17.7 17.8l-1.7 88.7-5.5-.2-7.1-81.8c-.1-.6-.2-.4-.4.3l-6.8 85.4-5.5-.2z"/><path id="XMLID_1917_" class="st10" d="M194.5 67.9s-13.4 15.2-4.7 36.2c5 12.1-2.4 11.2-2.4 11.2l20.2 2.8 4.3-14.4-17.4-35.8z"/><path id="XMLID_2579_" class="st21" d="M214.2 230.3c3.7.7 6.8.9 10 0l-.5 21.8c4.5 1.9 9.9 4.1 11.9 4.8h-.1c2.8.9 4.9 1.7 4.9 1.7s.4 1.9 0 1.9c-.7 0-7 .7-7.6.6-6.9-1.1-16-2.6-16-2.6v-1.2l-2.6-27z"/><path id="XMLID_2578_" class="st21" d="M179.2 258.7s2.2-.6 5-1.3h-.1c2-.6 7.5-2.4 12-4l-.8-23.3c3.1.9 6.2 1.1 9.7.7l-2 24c0 .8-.1 1.5-.2 1.9l-.2 3.4s-9.1.9-16.1 1.6c-.6.1-6.8-1.1-7.5-1.1-.3-.1.2-1.9.2-1.9z"/><path id="XMLID_818_" class="st5" d="M197.6 113.3l-9 26 4 4.8 2.5-3.3 8.8-22.7c.1 0-3.6-7.4-6.3-4.8z"/><path id="XMLID_586_" class="st22" d="M197.5 113s8.5-2.2 14.2-1.8c5.7.4 14 2.2 14.7 2.4 1.1.4-8 18.8-5.8 29.5 1.1 5.3 2.8 10.4 3.5 14.7.8 5.2.6 9.1.6 9.1s-29.8-.3-30-1.5c-.2-1.1 0-3.8 1-8.2 1.3-5.6 4.7-14.8 4.1-18.6-1.7-11.3-1.6-21.5-2.3-25.6z"/><path id="XMLID_585_" class="st5" d="M208.6 111l1.9-18.8 6.5-.2-.7 19.6s-.1 2.8-4.9 2.8c-2.8-.1-2.8-3.4-2.8-3.4z"/><path id="XMLID_581_" class="st5" d="M190.6 85.2c-.5 9.9 6.6 20.8 15.8 21.2 12.2.5 18.7-11.7 19.2-21.6.5-9.9-6.8-15.6-17.1-16-10.5-.5-17.5 6.4-17.9 16.4z"/><path id="XMLID_580_" d="M215.2 88.8c-.1 1.3-.8 2.3-1.6 2.3s-1.5-1.1-1.4-2.4c.1-1.3.8-1.2 1.6-1.1.9 0 1.5-.1 1.4 1.2z"/><path id="XMLID_541_" d="M197.8 87.7c-.1 1.3-.8 2.3-1.6 2.3s-1.5-1.1-1.4-2.4c.1-1.3.8-1.2 1.6-1.1.8-.1 1.4-.1 1.4 1.2z"/><path id="XMLID_540_" class="st23" d="M207.1 98.7c-.5-.4-1.2-.7-2-.8-1.5-.2-2.8 0-3.9.6"/><g id="XMLID_1918_"><path id="XMLID_539_" d="M216 84.6c-1.7-3.5-5.1-2.8-5.3-2.8l-.2-1.1s4.4-.9 6.5 3.4l-1 .5z"/></g><g id="XMLID_1919_"><path id="XMLID_537_" d="M199.9 82.3c-3.7-1.2-5.6 1.8-5.6 1.9l-1-.6s2.4-3.9 6.9-2.4l-.3 1.1z"/></g><path id="XMLID_310_" class="st10" d="M229.9 89.2s-8.1 10.1-8 7.3c.5-8.7-1-21.5-8.2-22.4-2.1-.3-23.1 8.3-23.1 8.3s-2.4-20.1 17.7-21.8c15.9-1.4 29.1 8.8 21.6 28.6z"/><path id="XMLID_309_" class="st10" d="M216 73.1s-6.9 5.3-12.1 7.5c-5.3 2.1-5.5 1.7-5.5 1.7l4.7-4.5 6-4.7h6.9z"/><path id="XMLID_1920_" class="st11" d="M204.6 92.7c0-.4-.5-.8-1.1-.8-.6 0-1.1.4-1.1.8s2.2.5 2.2 0z"/><path id="XMLID_307_" class="st24" d="M193.9 119.3l4.2 1.9s.6-7.5-.7-8.1c0 0-.9.1-1.8 1.3s-1.7 4.9-1.7 4.9z"/><path id="XMLID_1921_" class="st24" d="M208.6 111l-2 .5s.3 4.1 4.4 4.5c4.1.4 7.6-3.8 7.6-3.8l-2.4-.6s-2.2 2.7-4.5 2.6c-2.5-.1-3.1-3.2-3.1-3.2z"/><ellipse id="XMLID_1922_" class="st5" cx="222.1" cy="91.4" rx="3.2" ry="4.2"/><path id="XMLID_100_" class="st5" d="M202.1 141.6c-.4 0-5.8-3.8-5.8-3.8l-7.5-1.4v1l5.7 1.8-5.3.9-2.5 2 .7.8 3.8-1.6-3.2 2.4 1 1.3 1-.2-.5.8.7.9 12.1-2.1-.2-2.8z"/><path id="XMLID_99_" class="st5" d="M224.6 139l-24.5 2.1.1 3.4 25.2 1.4c-.1.1 4.7-5.9-.8-6.9z"/><path id="XMLID_98_" class="st5" d="M212.6 137.8c.5.1 6.9-2.6 6.9-2.6l8.9.5v1.1l-6.7.4 6.5 2.2.8.8-.2 1.5-3.2-.5 3.7 3.2-1.2 1.1-1.2-.5.6 1-.9.8-14.2-5.8.2-3.2z"/><path id="XMLID_28_" class="st5" d="M192.1 145.4l21.6-3.9-.1-3.8-24.8.9s-1.6 4.2 3.3 6.8z"/><path id="XMLID_1923_" class="st25" d="M217.2 75.5c-.2-.3 9.8 9.3 14.9 7.4 0 0 3.7 3.5-10.6 4.2 0 .1-.1-5.3-4.3-11.6z"/><path id="XMLID_26_" class="st5" d="M227.2 115.5l-.1 27.1-2.5.9-3.5-1.7-2.8-20.1s7.8-10.1 8.9-6.2z"/><path id="XMLID_25_" class="st24" d="M228.7 120.8l-11.3 1s2.6-9.1 8.9-8.1c0 0 .7 1.3 1.3 2.6.6 1.4 1.1 4.5 1.1 4.5z"/></g></g></g></g></g></svg>