<svg version="1.1" id="IMG_x5F_01" xmlns="http://www.w3.org/2000/svg" xmlns:xlink="http://www.w3.org/1999/xlink" x="0px" y="0px" width="274px" height="274px" viewBox="0 0 274 274" xml:space="preserve"><style type="text/css">.st0{fill:#F7ADB4;} .st1{clip-path:url(#XMLID_20_);} .st2{fill:#F498A1;} .st3{fill:#956341;} .st4{fill:#3BAFDA;} .st5{fill:#382120;} .st6{fill:#B67950;} .st7{fill:#BB825C;} .st8{fill:#B26146;} .st9{fill:#B16F43;} .st10{fill:#D79266;} .st11{fill:#543924;} .st12{fill:#D1814E;} .st13{fill:#DC4453;} .st14{fill:#CD7740;} .st15{fill:#4FC1EA;} .st16{fill:#CDD0DA;} .st17{fill:#A9B2BD;} .st18{fill:#F6BB43;} .st19{fill:#FFCE54;} .st20{fill:#FFC83F;} .st21{fill:#D9976D;}</style><g id="XMLID_1889_"><circle id="XMLID_1890_" class="st0" cx="136.4" cy="136.4" r="136.4"/><g id="XMLID_1891_"><defs><circle id="XMLID_6_" cx="136.4" cy="136.4" r="136.4"/></defs><clipPath id="XMLID_20_"><use xlink:href="#XMLID_6_" overflow="visible"/></clipPath><g id="XMLID_1892_" class="st1"><path id="XMLID_2594_" transform="rotate(45.001 219.694 53.505)" class="st2" d="M69.4 44H370v19H69.4z"/><path id="XMLID_2593_" transform="rotate(45.001 52.855 220.348)" class="st2" d="M-97.5 210.8h300.6v19H-97.5z"/><path id="XMLID_2592_" transform="rotate(45.001 80.661 192.54)" class="st2" d="M-69.6 183H231v19H-69.6z"/><path id="XMLID_2591_" transform="rotate(45.001 108.468 164.734)" class="st2" d="M-41.8 155.2h300.6v19H-41.8z"/><path id="XMLID_2590_" transform="rotate(45.001 136.275 136.926)" class="st2" d="M-14 127.4h300.6v19H-14z"/><path id="XMLID_2589_" transform="rotate(45.001 164.081 109.12)" class="st2" d="M13.8 99.6h300.6v19H13.8z"/><path id="XMLID_2588_" transform="rotate(45.001 191.888 81.312)" class="st2" d="M41.6 71.8h300.6v19H41.6z"/></g><g id="XMLID_1893_" class="st1"><path id="XMLID_1894_" class="st3" d="M6.3 95.3c-4.1 13-6.3 26.7-6.3 41 0 75.3 61.1 136.4 136.4 136.4s136.4-61.1 136.4-136.4c0-14.5-2.3-28.5-6.5-41.6-29.8-5.7-77-12.6-130.5-12.6-56.3.1-102.1 7.5-129.5 13.2z"/><path id="XMLID_2585_" class="st4" d="M229.9 118.3s-66.8-4.4-89-4.4c-21.9 0-87.6 4.4-87.6 4.4s-5.8 19.1-6.5 45.4c-.3 12.2-.5 32.5 2.2 47.4h186s4.1-15.9 3.3-46c-.9-30.9-8.4-46.8-8.4-46.8z"/><g id="XMLID_1895_"><path id="XMLID_1896_" class="st5" d="M177.4 55c-6.4 4.7-9.2 10.4-11.6 17.5-2.7 8.1-5.6 82.6-5.4 97.9 0 0-5 10.3 54.7 5 0 1.6 24.3-6.1 24.3-6.1-3.3-32.8 5.3-100.4-20.5-117.1-4.8-3.1-23.7-10.3-41.5 2.8z"/><path id="XMLID_2583_" class="st6" d="M171.4 143l-10.6 46.7c-.2 1.5 1.7 3.9 2.8 4.9 0 0 5.1 1.5 6.6-.6l19.3-45.3c.4-1.6-.1-3.3-1.3-4.4-2.4-2.1-6.5-5.2-10.3-5.6-1.2-.1-3 .4-4.4 1.2-1.2.5-1.9 1.7-2.1 3.1z"/><path id="XMLID_2582_" class="st7" d="M177.5 138.5s15.5-3.3 25.7-2.1c10.2 1.2 23 2.7 24.6 5.2 1.1 1.8-9.4 40.2-9.4 62.3 0 1.5 5 23.7 5 23.7s-49.8-7.3-50-9.5c-.5-5 7.1-16.7 6.6-20.2-1-7 .4-13.9-.9-24.2-.5-4.4-4.2-3-4.5-7.4-.2-3.1 2.2-5.4 2.7-9.5.9-7.3.5-16.4.2-18.3z"/><path id="XMLID_2581_" class="st7" d="M194.2 138.7l4.7-34.8 11.6.2-2.8 33.3-8.3 10.6z"/><path id="XMLID_1897_" class="st7" d="M203.5 74.7c-18 0-25-7.1-34.3 10.8-.5.9-1.1 1.5-1.8 2v.4c-1.6 17.8 9.7 37.9 25.5 39.3 20.9 1.9 33.1-19.5 34.7-37.3.9-10.4-23.5-15.2-24.1-15.2z"/><path id="XMLID_2579_" d="M211.6 98.3c-.2 2.3-1.5 4-3 3.9-1.5-.1-2.5-2.1-2.3-4.3.2-2.3 1.5-4 3-3.9 1.5.1 2.5 2 2.3 4.3z"/><ellipse id="XMLID_2578_" transform="matrix(.996 .08907 -.08907 .996 9.13 -15.447)" cx="177.7" cy="94.6" rx="2.6" ry="4.1"/><path id="XMLID_2577_" class="st7" d="M189.3 137s-2.9 9 4.2 11.9c15 6 21.6-10.4 20.3-10.6-1.8-.3-11.7-2.3-11.7-2.3l-12.8 1z"/><path id="XMLID_2576_" class="st8" d="M194.8 114.5c0 .6-1.4 1.7-2.8 1.7-1.4-.1-2.5-1.4-2.4-2 0-.6 1.4-1.1 2.7-1 1.4 0 2.6.7 2.5 1.3z"/><path id="XMLID_2575_" class="st9" d="M194.4 104.4c0 .5-4.6.4-4.6-.1s1-.9 2.3-.9c1.3.1 2.3.5 2.3 1z"/><path id="XMLID_1898_" class="st5" d="M166.6 89.6s27.2-2.2 62.2 4.4c0 0-2.2-29.3-30.9-31.1-28.7-1.7-31.3 26.7-31.3 26.7z"/></g><g id="XMLID_1899_"><g id="XMLID_1900_"><path id="XMLID_2572_" class="st10" d="M104 233.3c.2-4.2 4.5-11.7 4.4-21.5 0-18.1.5-24.3 1-28.9l4.7 25.5c.4-.1 12.3-5.6 14.5-6.2 0 0-5.6-47-11-63-1.4-4.1-11.5-8.3-11.8-8.4-11-3.7-17.6-6.1-30.7-5.5-13.9.6-24.7 1.8-31.4 8.9-1.1.9 6.5 19.2 6.5 19.2.1.5-.1 36.4-.3 60.5-.1 10.5 2.2 18.7 2.3 19.7 1.4 3.3 50.7 1.4 51.8-.3z"/><path id="XMLID_1901_" class="st10" d="M91.1 115.2c-5.4-4.1-18.2-1.1-18.4.5v9.3s-1.1 8.8 9.9 8.6c10.6-.2 8.8-10 8.8-10s.6-7.9-.3-8.4z"/><path id="XMLID_2565_" class="st10" d="M111.4 91.5c-.9 18-12.3 29.1-29.8 29-15.7-.1-28.2-16.3-28.9-34.3C52 68.2 61.1 52 78.3 52c26.4-.1 34.7 6.6 33.1 39.5z"/><path id="XMLID_2564_" class="st11" d="M48.3 57.3c6.4-11.1 28.4-18.1 51.6-12.4 14.9 3.6 16.5 20.2 12.7 24.2-6.5 7-51.5-3.6-54.1-4.4-1.5 16.8-1 25.6.3 37 .4 3.4-5 3-5.2 1.7-2.8-12.9-10.5-37-5.3-46.1z"/><path id="XMLID_818_" class="st10" d="M61.3 91.2c1.9 4.3 2 7.6-.8 8.9-2.9 1.3-9.3-.3-11.2-4.6-1.9-4.3-1.2-8.8 1.7-10.1 2.8-1.3 8.3 1.5 10.3 5.8z"/><path id="XMLID_586_" d="M68.6 86.1c-.1 2.3 1.1 4.2 2.6 4.2s2.7-1.8 2.8-4.1c.1-2.3-1.1-4.2-2.6-4.2s-2.8 1.8-2.8 4.1z"/><ellipse id="XMLID_585_" transform="matrix(-.9997 -.02351 .02351 -.9997 202.36 174.937)" cx="102.2" cy="86.3" rx="2.7" ry="4.2"/><path id="XMLID_581_" class="st11" d="M76.5 74.3s-3.8.2-6.6 1.3c-2 .8-4.7 2.8-4.7 2.8l2 2.4s2.2-.8 4.3-1.8c2.1-.9 5.6-1 5.6-1l-.6-3.7z"/><path id="XMLID_580_" class="st11" d="M96.2 74.4s3.8.2 6.6 1.3c2 .8 4.7 2.7 4.7 2.7l-2 2.4s-2.2-.8-4.3-1.7c-2.1-.9-5.6-1-5.6-1l.6-3.7z"/><path id="XMLID_1902_" class="st12" d="M85.7 97.1c0-.7 1-1.3 2.3-1.3 1.2 0 2.3.6 2.3 1.3s-4.6.7-4.6 0z"/><path id="XMLID_1903_" class="st10" d="M22.5 173.5l32.1-18.1-10.4-22.1c-.5 1.5-39.8 32.8-39.8 32.8-1.5 1.3-2 2.9-1.6 5.1 1.5 8.3 19.7 2.3 19.7 2.3z"/><path id="XMLID_537_" class="st13" d="M86.8 109.5c-.8 0-1.5-.1-2-.4-1-.5-.6-2.1.5-2.1l2-.1c1.3 0 1.8 1.7.6 2.3-.3.2-.7.3-1.1.3z"/></g><circle id="XMLID_1904_" class="st14" cx="98.5" cy="165.8" r="1.8"/><circle id="XMLID_1906_" class="st14" cx="70.7" cy="166.7" r="1.8"/></g><path id="XMLID_307_" class="st7" d="M218.6 143.6l5.4 29.1-7.8 6.7-2.2-6-6.3-20.8c-.1 0 7.2-14 10.9-9z"/><path id="XMLID_1907_" class="st15" d="M263.4 201.8c-15.8-6.8-34.2-29-51.9-40-12.8-7.9-35-8.4-36.3-7.4-6.8 4.9.1 19.3-.6 28.8-1.6 21.8-26.1 16.2-33.6 15.9-14.3-.5-37.3-27.9-71.3-27.9-16.6 0-45 16.3-65.7 25.7 23.7 50.6 75.1 85.6 134.6 85.6 56.8 0 106.2-31.9 131.2-78.7-2.4-.5-4.5-1.2-6.4-2z"/><path id="XMLID_101_" class="st6" d="M223.8 185.2l-13.2.3s-8.9 2.8-10.7 3.2l-36.1-7.5s-2.5 1.9-2.9 2.8c-2.8 6.4-1.1 8.1-1.1 8.1l39.4 3.1 19.2 6.7 1.5-1.3-.6-1.4 1.7.5 2.1-1.9-4.7-5 6.5 4.2 1.4-1.2-4.1-4.5-8.8-3.1 10.1-1.4.3-1.6z"/><path id="XMLID_100_" class="st6" d="M195.6 119.4l5.2 12.2s1.2 9.3 1.5 11l21.7 29.8s-.7 3.1-1.4 3.8c-4.6 5.1-6.9 4.3-6.9 4.3l-19.1-34.6-18.1-18.8.7-2.5 7.1 6.2-7.2-8.2.8-1.5 8.8 8.3-8.2-9.6.8-2.6 9.4 10.3-8-10.2.5-1.8 7.4 7.9 6.5 6.7-2.9-9.8 1.4-.9z"/><g id="XMLID_1908_"><path id="XMLID_99_" transform="rotate(-45.001 90.637 162.312)" class="st16" d="M80.3 151h20.6v22.6H80.3z"/><path id="XMLID_98_" class="st17" d="M102.3 163.6L91.9 174c-.4.4-1 .4-1.4 0L79 162.5c-.4-.4-.4-1 0-1.4l10.4-10.4c.4-.4 1-.4 1.4 0l11.5 11.5c.4.4.4 1 0 1.4z"/><circle id="XMLID_28_" class="st18" cx="90.6" cy="162.3" r="7.4"/><circle id="XMLID_27_" class="st19" cx="90.6" cy="162.3" r="6.1"/><path id="XMLID_26_" class="st20" d="M87.3 162.6c-.1-1.8 1.3-3.3 3-3.3s3.3 1.3 3.3 3c.1 1.8-6.2 2.1-6.3.3z"/></g><path id="XMLID_24_" class="st21" d="M59.8 171.6c0 1.1-.3 9.2-.3 9.2-13.9-2.4-33.5-3.1-39.3-3.4-1.7-.1-7.6-4.4-7.6-4.4s-3.8-6.1 5.6-10.4c1.5-.7 7.7-.1 7.7-.1l33.9 9.1z"/><path id="XMLID_1909_" class="st21" d="M59.8 171.6l15.5-4.4 15.1 1.4 1.4 2.9-6.4 1.6-1.5 13.2-5.6 1.6-18.9-7.1z"/></g></g></g></svg>