<svg version="1.1" id="IMG_x5F_actividad" xmlns="http://www.w3.org/2000/svg" xmlns:xlink="http://www.w3.org/1999/xlink" x="0px" y="0px" width="274px" height="274px" viewBox="0 0 274 274" xml:space="preserve"><style type="text/css">.st0{fill:#FBD6D9;} .st1{fill:#FFFFFF;} .st2{fill:#F498A1;} .st3{fill:#F1848E;} .st4{fill:#ED5463;} .st5{fill:#E7E9EE;} .st6{fill:#F6BB43;} .st7{clip-path:url(#XMLID_17_);} .st8{fill:#FFCE54;} .st9{fill:#5D9BEC;} .st10{fill:#646D78;} .st11{fill:#4B89DC;} .st12{fill:#3D7FD9;} .st13{fill:#DE8F5B;} .st14{fill:#E1996A;} .st15{fill:#FB6E52;} .st16{fill:#D97D41;} .st17{fill:#EA573F;} .st18{fill:#4FC1EA;} .st19{fill:#9A563C;} .st20{fill:#8DC050;} .st21{fill:#DFA885;} .st22{fill:#F6F7FA;} .st23{fill:#59300F;} .st24{fill:#D8966C;} .st25{fill:#26456E;}</style><g id="XMLID_2018_"><g id="XMLID_2019_"><path id="XMLID_3248_" class="st0" d="M0 0h274v274H0z"/><g id="XMLID_2020_"><circle id="XMLID_2021_" class="st1" cx="195.7" cy="208.2" r="8.9"/><circle id="XMLID_2022_" class="st1" cx="195.7" cy="151.3" r="8.9"/><path id="XMLID_2023_" class="st1" d="M223.9 57.2c-4.9 0-8.9 4-8.9 8.9s4 8.9 8.9 8.9 8.9-4 8.9-8.9c0-5-4-8.9-8.9-8.9z"/><circle id="XMLID_2024_" class="st1" cx="195.7" cy="37.8" r="8.9"/><path id="XMLID_2025_" class="st1" d="M223.9.3c-4.9 0-8.9 4-8.9 8.9s4 8.9 8.9 8.9 8.9-4 8.9-8.9-4-8.9-8.9-8.9z"/><circle id="XMLID_2026_" class="st1" cx="195.7" cy="94.6" r="8.9"/><path id="XMLID_2027_" class="st1" d="M166.8.3c-4.9 0-8.9 4-8.9 8.9s4 8.9 8.9 8.9 8.9-4 8.9-8.9-4-8.9-8.9-8.9z"/><path id="XMLID_2028_" class="st1" d="M166.8 57.2c-4.9 0-8.9 4-8.9 8.9s4 8.9 8.9 8.9 8.9-4 8.9-8.9c0-5-4-8.9-8.9-8.9z"/><path id="XMLID_2029_" class="st1" d="M166.8 113.9c-4.9 0-8.9 4-8.9 8.9s4 8.9 8.9 8.9 8.9-4 8.9-8.9c0-5-4-8.9-8.9-8.9z"/><path id="XMLID_2030_" class="st1" d="M166.8 227.6c-4.9 0-8.9 4-8.9 8.9s4 8.9 8.9 8.9 8.9-4 8.9-8.9-4-8.9-8.9-8.9z"/><path id="XMLID_2031_" class="st1" d="M166.8 170.7c-4.9 0-8.9 4-8.9 8.9s4 8.9 8.9 8.9 8.9-4 8.9-8.9-4-8.9-8.9-8.9z"/><path id="XMLID_2032_" class="st1" d="M271.4 9.2c0 2.5 1 4.7 2.6 6.3V2.9c-1.6 1.6-2.6 3.8-2.6 6.3z"/><path id="XMLID_2033_" class="st1" d="M274 242.8v-12.6c-1.6 1.6-2.6 3.8-2.6 6.3 0 2.4 1 4.7 2.6 6.3z"/><path id="XMLID_2034_" class="st1" d="M274 72.3V59.8c-1.6 1.6-2.6 3.8-2.6 6.3 0 2.4 1 4.6 2.6 6.2z"/><path id="XMLID_2035_" class="st1" d="M274 129v-12.6c-1.6 1.6-2.6 3.8-2.6 6.3s1 4.7 2.6 6.3z"/><path id="XMLID_2036_" class="st1" d="M274 185.9v-12.6c-1.6 1.6-2.6 3.8-2.6 6.3 0 2.4 1 4.7 2.6 6.3z"/><path id="XMLID_2037_" class="st1" d="M223.9 113.9c-4.9 0-8.9 4-8.9 8.9s4 8.9 8.9 8.9 8.9-4 8.9-8.9c0-5-4-8.9-8.9-8.9z"/><path id="XMLID_2038_" class="st1" d="M223.9 170.7c-4.9 0-8.9 4-8.9 8.9s4 8.9 8.9 8.9 8.9-4 8.9-8.9-4-8.9-8.9-8.9z"/><path id="XMLID_2039_" class="st1" d="M223.9 227.6c-4.9 0-8.9 4-8.9 8.9s4 8.9 8.9 8.9 8.9-4 8.9-8.9-4-8.9-8.9-8.9z"/><circle id="XMLID_2040_" class="st1" cx="252.3" cy="94.6" r="8.9"/><circle id="XMLID_2041_" class="st1" cx="252.3" cy="37.8" r="8.9"/><circle id="XMLID_2042_" class="st1" cx="252.3" cy="151.3" r="8.9"/><circle id="XMLID_2043_" class="st1" cx="252.3" cy="208.2" r="8.9"/><circle id="XMLID_2044_" class="st1" cx="24.9" cy="208.1" r="8.9"/><circle id="XMLID_2045_" class="st1" cx="24.9" cy="37.8" r="8.9"/><circle id="XMLID_2046_" class="st1" cx="24.9" cy="94.6" r="8.9"/><path id="XMLID_2047_" class="st1" d="M0 17.1c2.9-1.5 4.9-4.4 4.9-7.9 0-3.4-2-6.4-4.9-7.9v15.8z"/><circle id="XMLID_2048_" class="st1" cx="24.9" cy="151.3" r="8.9"/><path id="XMLID_2049_" class="st1" d="M53.1 57.1c-4.9 0-8.9 4-8.9 8.9s4 8.9 8.9 8.9 8.9-4 8.9-8.9-4-8.9-8.9-8.9z"/><path id="XMLID_2050_" class="st1" d="M53.1 170.7c-4.9 0-8.9 4-8.9 8.9s4 8.9 8.9 8.9 8.9-4 8.9-8.9-4-8.9-8.9-8.9z"/><path id="XMLID_2051_" class="st1" d="M53.1 227.6c-4.9 0-8.9 4-8.9 8.9s4 8.9 8.9 8.9 8.9-4 8.9-8.9c0-5-4-8.9-8.9-8.9z"/><path id="XMLID_2052_" class="st1" d="M53.1 113.8c-4.9 0-8.9 4-8.9 8.9s4 8.9 8.9 8.9 8.9-4 8.9-8.9-4-8.9-8.9-8.9z"/><path id="XMLID_2053_" class="st1" d="M53.1.3c-4.9 0-8.9 4-8.9 8.9s4 8.9 8.9 8.9 8.9-4 8.9-8.9S58 .3 53.1.3z"/><path id="XMLID_2054_" class="st1" d="M0 171.7v15.8c2.9-1.5 4.9-4.4 4.9-7.9s-2-6.4-4.9-7.9z"/><path id="XMLID_2055_" class="st1" d="M0 114.8v15.8c2.9-1.5 4.9-4.4 4.9-7.9 0-3.4-2-6.4-4.9-7.9z"/><path id="XMLID_2056_" class="st1" d="M0 58.1v15.8c2.9-1.5 4.9-4.4 4.9-7.9 0-3.4-2-6.4-4.9-7.9z"/><path id="XMLID_2057_" class="st1" d="M0 228.6v15.8c2.9-1.5 4.9-4.4 4.9-7.9s-2-6.5-4.9-7.9z"/><path id="XMLID_2058_" class="st1" d="M110 113.9c-4.9 0-8.9 4-8.9 8.9s4 8.9 8.9 8.9 8.9-4 8.9-8.9c0-5-4-8.9-8.9-8.9z"/><path id="XMLID_2059_" class="st1" d="M110 227.6c-4.9 0-8.9 4-8.9 8.9s4 8.9 8.9 8.9 8.9-4 8.9-8.9-4-8.9-8.9-8.9z"/><path id="XMLID_2060_" class="st1" d="M110 170.7c-4.9 0-8.9 4-8.9 8.9s4 8.9 8.9 8.9 8.9-4 8.9-8.9-4-8.9-8.9-8.9z"/><circle id="XMLID_2061_" class="st1" cx="138.4" cy="208.2" r="8.9"/><path id="XMLID_2062_" class="st1" d="M110 57.2c-4.9 0-8.9 4-8.9 8.9s4 8.9 8.9 8.9 8.9-4 8.9-8.9c0-5-4-8.9-8.9-8.9z"/><path id="XMLID_2063_" class="st1" d="M110 .3c-4.9 0-8.9 4-8.9 8.9s4 8.9 8.9 8.9 8.9-4 8.9-8.9-4-8.9-8.9-8.9z"/><circle id="XMLID_2064_" class="st1" cx="138.4" cy="37.8" r="8.9"/><circle id="XMLID_2065_" class="st1" cx="138.4" cy="94.6" r="8.9"/><circle id="XMLID_2066_" class="st1" cx="138.4" cy="151.3" r="8.9"/><circle id="XMLID_2067_" class="st1" cx="81.5" cy="208.1" r="8.9"/><circle id="XMLID_2068_" class="st1" cx="81.5" cy="37.8" r="8.9"/><circle id="XMLID_2069_" class="st1" cx="81.5" cy="94.6" r="8.9"/><circle id="XMLID_2070_" class="st1" cx="81.5" cy="151.3" r="8.9"/></g><path id="XMLID_3175_" class="st2" d="M0 249.6h274v24.6H0z"/><g id="XMLID_2071_"><path id="XMLID_3174_" class="st3" d="M4.5 249.6h5v24.6h-5z"/><path id="XMLID_3173_" class="st3" d="M24.5 249.6h5v24.6h-5z"/><path id="XMLID_3172_" class="st3" d="M44.5 249.6h5v24.6h-5z"/><path id="XMLID_3171_" class="st3" d="M64.5 249.6h5v24.6h-5z"/><path id="XMLID_3170_" class="st3" d="M84.5 249.6h5v24.6h-5z"/><path id="XMLID_3169_" class="st3" d="M104.5 249.6h5v24.6h-5z"/><path id="XMLID_3168_" class="st3" d="M124.5 249.6h5v24.6h-5z"/><path id="XMLID_3167_" class="st3" d="M144.5 249.6h5v24.6h-5z"/><path id="XMLID_3166_" class="st3" d="M164.5 249.6h5v24.6h-5z"/><path id="XMLID_3165_" class="st3" d="M184.5 249.6h5v24.6h-5z"/><path id="XMLID_3164_" class="st3" d="M204.5 249.6h5v24.6h-5z"/><path id="XMLID_3163_" class="st3" d="M224.5 249.6h5v24.6h-5z"/><path id="XMLID_3162_" class="st3" d="M244.5 249.6h5v24.6h-5z"/><path id="XMLID_3161_" class="st3" d="M264.5 249.6h5v24.6h-5z"/></g><path id="XMLID_3159_" class="st4" d="M0 241.9h274v7.7H0z"/></g><g id="XMLID_2072_"><g id="XMLID_2073_"><path id="XMLID_3157_" class="st5" d="M187.3 251.2l-.3 8.8s27.3 3 28.1 3c.5 0 .1-3.5.1-3.5s-21.2-7.6-20.4-7.6c.9 0-7.5-.7-7.5-.7z"/><path id="XMLID_3156_" class="st5" d="M171.9 251.1l-.5 8.8s-27.5 0-28.3-.1c-.5 0 .2-3.5.2-3.5s21.9-6.5 21.1-6.6c-.9 0 7.5 1.4 7.5 1.4z"/><path id="XMLID_2074_" class="st6" d="M204.4 89.3c-.6-2.4-3.1-4.6-4.5-4.5l-.1.1c-1-.2-8.1 1.8-14.8 1.8-4.3 0-10.1-1.7-14.6-1.6-2.1 0-3.9 1.6-4.2 3.7l-6.7 42.5 7.7 1.2h34.1c3.8-.8 5.1-4 5.1-4s-1.2-36.1-2-39.2z"/><g id="XMLID_2075_"><defs><path id="XMLID_2083_" d="M204.4 89.3c-.6-2.4-3.1-4.6-4.5-4.5l-.1.1c-1-.2-8.1 1.8-14.8 1.8-4.3 0-10.1-1.7-14.6-1.6-2.1 0-3.9 1.6-4.2 3.7l-6.7 42.5 3.1 1.6 38.7-.4c0-1.3 4.2-2.6 4.2-2.6l.9-1.5c.1 0-1.2-36-2-39.1z"/></defs><clipPath id="XMLID_17_"><use xlink:href="#XMLID_2083_" overflow="visible"/></clipPath><g id="XMLID_2076_" class="st7"><path id="XMLID_2077_" class="st8" d="M197.1 127.6h-26.6l-26.2-2.7-.3 2.8 26.4 2.7h26.4l26.7-2.6-.2-2.8z"/><path id="XMLID_2078_" class="st8" d="M197.1 121.4h-26.6l-26.2-2.6-.3 2.8 26.2 2.7h26.6l26.7-2.6-.2-2.8z"/><path id="XMLID_2079_" class="st8" d="M197.1 115.3h-26.6l-26.2-2.6-.3 2.8 26.7 2.7h26.1l26.7-2.6-.2-2.8z"/><path id="XMLID_2080_" class="st8" d="M197.1 109.2h-26.6l-26.2-2.7-.3 2.9 26.7 2.7h26.1l26.7-2.6-.2-2.8z"/><path id="XMLID_2081_" class="st8" d="M197.1 103.2l-26.6-.1-26.2-2.7-.3 2.9 26.7 2.7h26.1l26.7-2.6-.2-2.9z"/><path id="XMLID_2082_" class="st8" d="M170.7 99.9h26.1l26.7-2.6-.2-2.9-26.2 2.6h-26.6l-26.2-2.7-.3 2.9z"/></g></g><path id="XMLID_2084_" class="st9" d="M200.2 132.4h-5.9v-23.8H193l1.5-23.4h-3.4l-1.5 23.4h-15.9l2.4-23.7h-3.4l-2.4 23.7h-1.9v23.6H166c-.9 5.7-3.9 117.6-3.9 118.2 4.6.2 2.6.4 9.8.3 1.2 0 8.3-92.1 9.5-92 1.4.1 4.1 92.9 5.4 92.9 7.4-.3 4.1.6 8.7-.3.1 0 4.8-114.3 4.7-118.9z"/><circle id="XMLID_2085_" class="st10" cx="172" cy="112.1" r="2"/><circle id="XMLID_2086_" class="st10" cx="190.5" cy="112.1" r="2"/><path id="XMLID_2087_" class="st11" d="M185.8 125.9l-5.7 2.5-5.3-2.5v-8.1h11z"/><path id="XMLID_2088_" class="st12" d="M174.8 122.2v-1.7l11 .1v1.6z"/><path id="XMLID_2089_" class="st11" d="M179.1 135.1l-.4 10.8 3 4.2.4-14.6 1.1-.2-.9 17.3-4.6-6.3.2-11.2z"/><path id="XMLID_2090_" class="st11" d="M172 136.1s-.8 7.5-6.7 7.9l.2-1.6s4.9-.2 5.1-6.3h1.4z"/><path id="XMLID_2091_" class="st11" d="M191.3 135.9s-.6 9 7.5 9.2v-1.6s-6.3.6-6.7-7.7l-.8.1z"/><path id="XMLID_3137_" class="st13" d="M164.6 98.2l7.1 5.9s3 6.2 3.8 7.2l29.4 13.7s.5 2.1.4 2.8c-1.2 4.7-2.9 4.9-2.9 4.9l-28.7-18.3-13.4-4.6-.3-1.3 1-.5-1.2-.4-.3-1.9 4.7-.7-5.3-.5-.3-1.3 4.2-.7 6.1 2.1-4.9-5.1.6-1.3z"/><path id="XMLID_3136_" class="st14" d="M160.9 128.4l32.5-5.6s.5-.1.9-.2l1.6-2.7s4.4-3.4 5.5-3.9c1.1-.6.9-.1.9.5 0 .5-3.1 2.3-3.2 3.3-.1.6-.4 1.1-.5 1.7 3.6-1 7.6-2 7.8-1.8 1.3 1.2.2 8.8.2 8.8l-12.5-1.1-30.5 7.9c-1.4.3-2.9-.3-3.6-1.5-1.1-1.8-1.7-4 .9-5.4z"/><path id="XMLID_2092_" d="M180.7 35.9s13.8 0 21.2 9.8c7.3 9.8 6.5 29.9 6.5 29.9s-4.9 8.6-24.8 7.7c-20-.8-25.7-6.5-25.7-6.5s-9.3-36 22.8-40.9z"/><path id="XMLID_2093_" class="st14" d="M176.8 39c11.6.1 20 6.3 19.9 17.9 0 7.3-2.7 15.8-8.1 21l-.1 8c.3.7-2.4 5.6-8.2 4.7-2.4-.4-1.6-3.9-.5-5.1l.2-3c-1.1.2-2.4.4-3.6.3-10.3 0-18.7-12.4-18.7-24 .1-11.4 7.5-19.8 19.1-19.8z"/><path id="XMLID_2094_" class="st15" d="M156.2 67.6c1.1 1.8 2.7 2.8 4.5 3l3.2.3h.5c2.7 0 5.1-2 6.1-4.9.7-.6 1.4-.9 2.3-.8 0 0 .3 0 .7.2 1.1 3 3.8 5.3 6.8 5.3h.3l3.6-.2c3.3-.1 5.9-2.9 6.4-6.3h.9c.6 0 .5-.1 1-.1.2-.3.6-.7.8-1 .3-.4.6-.7 1-.9.3-.1.5-.2.8-.3h.1c-.1-.1-.2-.2-.4-.2 0 0-2.9-.1-4.1-.2-.4-3.4-3.2-5.5-7.2-5.3l-3.6.2c-1.9.1-3.7.8-4.9 1.9-1.3 1.2-2 2.9-1.9 4.8v.3h-.1c-.7-.1-1.4 0-2 .3v-.3c.3-3.7-2-6.4-5.8-6.8l-3.2-.3h-.7c-3.5 0-6.1 2.3-6.4 5.8-.2 1.9.3 3.9 1.3 5.5zm19-4.6c-.1-1.3.4-2.4 1.3-3.2.9-.8 2.1-1.3 3.6-1.3l3.6-.2c3-.1 4.9 1.3 5.1 3.8l-.1.4v.1c.1 2.7-1.7 5.6-4.5 5.7l-3.6.2c-3 .2-5.3-2.8-5.4-5.5zm-18.3-.6c.2-2.4 1.9-3.9 4.3-3.9h.5l3.2.3c2.1.2 4.2 1.5 3.9 4.5v.6c-.3 2.9-2.5 5.2-4.8 5l-3.2-.3c-1.1-.1-2.1-.8-2.9-2-.7-1.3-1.1-2.8-1-4.2z"/><path id="XMLID_3129_" d="M161 64c0 1.5.8 2.7 1.8 2.7s1.9-1.2 1.9-2.6c0-1.5-.8-1.6-1.8-1.6-1.1-.1-1.9 0-1.9 1.5z"/><path id="XMLID_3128_" d="M180.9 63.9c0 1.5.8 2.7 1.8 2.7s1.9-1.2 1.9-2.6c0-1.5-.8-1.6-1.8-1.6-1-.1-1.9 0-1.9 1.5z"/><path id="XMLID_2098_" class="st16" d="M173.5 71.6c0-.4-.7-.7-1.6-.7s-1.6.3-1.6.7c-.1.4 3.2.4 3.2 0z"/><path id="XMLID_2099_" class="st6" d="M162 44.7s4.9-9 19.5-8.3c11.2.5 18.7 14.1 15.7 25.7l-2.2.6-4.9-8.6-28.1-9.4z"/><path id="XMLID_2100_" d="M194.3 62.2s-4.7-6.2-23.1-5.3c-12 .6-13.8.6-13.8.6s-3.1-17.9 20.8-16.9c18.4.9 16.1 21.6 16.1 21.6z"/><path id="XMLID_3124_" class="st14" d="M192.5 67c-.1 2.6.6 4.4 2.6 4.4 2 .1 5.3-2.1 5.4-4.7.1-2.6-1.4-4.8-3.4-4.9-2 0-4.5 2.6-4.6 5.2z"/><g id="XMLID_2101_"><path id="XMLID_2102_" class="st17" d="M177 78.3h-7c-.5 0-.9-.4-.9-.9s.4-.9.9-.9h7c.5 0 .9.4.9.9s-.4.9-.9.9z"/></g><ellipse id="XMLID_2103_" class="st18" cx="182.8" cy="66.6" rx="2" ry="0.7"/><ellipse id="XMLID_2104_" class="st18" cx="162.9" cy="66.7" rx="2" ry="0.7"/><path id="XMLID_2105_" class="st18" d="M188.3 69.8s-.7 1.6-.5 2c.1.3.5.8 1.3.7.3 0 .5-.6.5-.9-.1-1-1.3-1.8-1.3-1.8z"/><path id="XMLID_3113_" class="st18" d="M159.4 70.9s-1 1.4-1 1.8c0 .3.3.9 1.1 1 .3 0 .6-.4.7-.8.3-.8-.8-2-.8-2z"/><path id="XMLID_818_" class="st18" d="M186.2 76.8s-1 1.4-1 1.8c0 .3.3.9 1.1 1 .3 0 .6-.4.7-.8.3-.9-.8-2-.8-2z"/></g><g id="XMLID_2106_"><path id="XMLID_585_" class="st19" d="M96.4 253.7l-.4-3.3c0-.7-.2-2.1-.3-3.4l-.2-6.1-7.4 1.6-.4 5.6c-4.9 2.1-10.7 4.6-12.8 5.4h.1c-3.1 1.1-5.5 2-5.5 2s-.3 1.9.2 1.8l-.2.1s-.3 2.2.2 2.1c.8-.1 8 .2 8.7 0 7.8-1.9 18-4.3 18-4.3l-.1-1.5h.1z"/><path id="XMLID_581_" class="st19" d="M119.1 256.2s-2.1-1.6-4.8-3.7h.1c-1.8-1.4-6.6-5.5-10.7-9.1l3.8-8.7-8-1.8-2.6 4.6c-.1 0-.1-.1-.1-.1s-2.1 3.9-2.5 5.2l-1.4 3s.1 0 .2.1l-.6 1.4s9.4 5.6 16.6 10c.6.4 7.9 2.5 8.7 2.8.5.2.9-2 .9-2l-.2-.2c.3.4.6-1.5.6-1.5z"/><path id="XMLID_2107_" class="st20" d="M110.4 132.3l-36.2.5 12.3 115 10-1.1-2-93.9 17.5 37.8c-3.5 8.8-12.4 37.1-15.6 46.2 1.7.9 8.3 3.9 10 5 4.3-7.2 13.9-39.7 17.4-47.7.9-2 1.2-4.2 1.1-6-.1-.2-14.5-55.8-14.5-55.8z"/><path id="XMLID_541_" class="st11" d="M114 73.5s-10.7-3-21.1-3.2c-13-.3-21 4-21 4l.6 60.1s41.7 1 41.6-.1c-2-15.5-1.7-55.6-.1-60.8z"/><path id="XMLID_540_" class="st21" d="M74.4 21c-.7 0-15.3 14.9-15.3 14.9l2.5 3.8 17.7-10.9c0 .1-2.8-7.7-4.9-7.8z"/><path id="XMLID_2108_" class="st11" d="M79.4 74.8L55.8 53.2 72 35.8l-8-6.7-23.4 24.3s.4.3 1.1.8l32.9 36.2s6.3-10.7 4.8-15.6z"/><path id="XMLID_538_" class="st21" d="M105.6 25.3c.6-.2 18.2 11.1 18.2 11.1l-1.6 4.3-19.7-6.7c0 .1 1.1-8.1 3.1-8.7z"/><path id="XMLID_2109_" class="st11" d="M145.8 49.4l-28.3-18.5-6.3 8.3 18.1 12.3-21.1 21.8c-1.3 5 3.2 17.4 3.2 17.4l33.4-40.3c.6-.5 1-1 1-1z"/><path id="XMLID_2110_" class="st22" d="M80.7 71.3s9.2 14.5 11.4 15.6c2.2 1.1 9.6-14.5 9.6-15.4 0-.9-8.5-10-21-.2z"/><path id="XMLID_2111_" class="st23" d="M107.1 25.5s7 11.3 1.5 26.8c-1.5 4.2-16.7-24.7-16-25 .7-.4 12-7.2 14.5-1.8z"/><path id="XMLID_309_" class="st1" d="M96.6 57.2c-.2-.1-.5-.1-.7-.2 0-.2.1-.4.1-.4l.6.6z"/><path id="XMLID_308_" class="st21" d="M97.5 71.6l-.1-14.2-13.1.3.4 13.4 7 4.1z"/><path id="XMLID_307_" class="st21" d="M109.3 50.4c-.3 11-9.5 15.5-19 15-12.3-.6-15.7-9.6-16.8-20.5-2.2-20.5 4.6-20.9 15-21.2 16-.3 21.3 6.7 20.8 26.7z"/><path id="XMLID_2112_" class="st23" d="M105.3 22.8c-10.4-5.2-27.9-5.9-33.3 4.5-2.8 5.5-3.3 18.9-1.4 26.5.2.7 5.9 5.1 5.6 3.2-1-6.7-2-13.4-.4-23.2-.2-2.2 3.6-11.1 29.1-3.2 1 .2 2.5 1.7 3.1 1.4.4-1.9.1-7.1-2.7-9.2z"/><ellipse id="XMLID_2113_" cx="84.7" cy="44.5" rx="1.8" ry="2.8"/><ellipse id="XMLID_2114_" cx="101.7" cy="44.3" rx="1.8" ry="2.8"/><path id="XMLID_99_" class="st21" d="M78.7 47.9c1.2 2.6 1.4 4.6-.4 5.4-1.7.8-5.6 0-6.9-2.6-1.2-2.6-.8-5.4.9-6.2 1.7-.8 5.1.8 6.4 3.4z"/><path id="XMLID_98_" class="st23" d="M97.6 38.5s3.3-.9 5.3-.8c1.4.1 3.7.4 3.7.4L106 40s-1.9.3-3.5.5c-2.3.2-4 .9-4 .9l-.9-2.9z"/><path id="XMLID_28_" class="st23" d="M90.1 38.8s-3.2-1.2-5.3-1.2c-1.4-.1-3.7.1-3.7.1l.5 1.8s1.9.5 3.4.8c2.3.4 3.9 1.2 3.9 1.2l1.2-2.7z"/><path id="XMLID_2115_" class="st23" d="M94.1 24.2c5.1-2.1-6 11-11 16.2-1.5 1.5-7.4 8.8-7.4 8.8S71.2 30.1 78 24.9c6.8-5.1 16.1-.7 16.1-.7z"/><path id="XMLID_26_" class="st23" d="M93.6 27.7s-1.9 8.5-5.5 12.9c-3.6 4.5-2.5 3.6-2.5 3.6s9.5-5.4 12.4-9c2.9-3.6 4.4-7.9 4.4-7.9s-5.8-3.6-8.8.4z"/><path id="XMLID_2116_" class="st24" d="M93.5 51.1c0-.5.6-.8 1.2-.8.7 0 1.2.4 1.2.8s-2.4.4-2.4 0z"/><path id="XMLID_2117_" class="st1" d="M88.2 58.4c.1.5.6.8 1.1.7 1-.2 2.7-.5 5.3-.5 2.1 0 3.2.3 3.8.5.5.2 1 0 1.2-.4.5-.9.8-3 0-3.5-1.2-.8-3.3.2-5.4.2-1.8 0-4.4-1.2-5.5-.5-.9.5-.7 2.5-.5 3.5z"/><path id="XMLID_2118_" class="st25" d="M72 93.8l40.9.3-.1 4.3-40.7-.9z"/><path id="XMLID_2119_" class="st25" d="M72.1 99l.1 4.4 40.4 1.1.1-4.6z"/></g></g></g></svg>