<svg version="1.1" id="Capa_1" xmlns="http://www.w3.org/2000/svg" xmlns:xlink="http://www.w3.org/1999/xlink" x="0px" y="0px" width="870px" height="122px" viewBox="0 0 870 122" xml:space="preserve"><style type="text/css">.st0{opacity:0.3;} .st1{fill:#A4795C;} .st2{fill:#956341;} .st3{fill:#FB6E52;} .st4{fill:#E74227;} .st5{fill:#FFCE54;} .st6{fill:#F6F7FA;} .st7{opacity:0.2;} .st8{fill:#36BB9B;} .st9{clip-path:url(#XMLID_2_);} .st10{clip-path:url(#XMLID_3_);} .st11{fill:#49CFAE;} .st12{fill:#92E2CE;} .st13{fill:#06008B;} .st14{fill:#ED5463;} .st15{fill:#3BAFDA;} .st16{fill:#4FC1EA;} .st17{fill:#8DC050;} .st18{fill:#A1D469;} .st19{fill:#FC8B75;} .st20{fill:#EA573F;} .st21{fill:#F6BB43;} .st22{fill:#506C2D;} .st23{fill:#6A903C;} .st24{fill:#FFD876;} .st25{fill:#5D9BEC;} .st26{fill:none;stroke:#8DC050;stroke-linecap:round;stroke-miterlimit:10;} .st27{fill:#4B89DC;} .st28{clip-path:url(#XMLID_4_);} .st29{fill:#D83243;} .st30{fill:#FFFFFF;} .st31{fill:#FFF2D1;} .st32{opacity:0.2;fill:#F6F7FA;} .st33{opacity:0.1;} .st34{fill:#2B333E;} .st35{font-family:Arial;font-weight:bold;} .st36{font-size:22px;}</style><g id="XMLID_5_"><g id="XMLID_2147_"><path id="XMLID_2151_" class="st0" d="M868.4 121.8H135.6c-.6 0-1-.4-1-1v-18c0-.6.4-1 1-1h732.9c.6 0 1 .4 1 1v18c-.1.6-.5 1-1.1 1z"/><path id="XMLID_2150_" class="st1" d="M868.4 119.8H135.6c-.6 0-1-.4-1-1v-18c0-.6.4-1 1-1h732.9c.6 0 1 .4 1 1v18c-.1.6-.5 1-1.1 1z"/><path id="XMLID_2149_" class="st2" d="M868.4 108.3H135.6c-.6 0-1-.4-1-1v-1c0-.6.4-1 1-1h732.9c.6 0 1 .4 1 1v1c-.1.6-.5 1-1.1 1z"/><path id="XMLID_2148_" class="st2" d="M868.4 115.3H135.6c-.6 0-1-.4-1-1v-1c0-.6.4-1 1-1h732.9c.6 0 1 .4 1 1v1c-.1.6-.5 1-1.1 1z"/></g><g id="XMLID_1364_"><path id="XMLID_2146_" class="st3" d="M233.3 0h117v100h-117z"/><path id="XMLID_2145_" class="st4" d="M235.3 2h113v96h-113z"/><path id="XMLID_2144_" class="st5" d="M242.8 9.5h98v81h-98z"/><path id="XMLID_2143_" class="st6" d="M246.3 12.5h91v75h-91z"/><path id="XMLID_2142_" class="st7" d="M246.3 12.5h91v2h-91z"/><path id="XMLID_2141_" class="st8" d="M254.8 21.1h74V79h-74z"/><g id="XMLID_1365_"><defs><path id="XMLID_1366_" d="M256.7 23h70.2v54.1h-70.2z"/></defs><use xlink:href="#XMLID_1366_" overflow="visible" fill="#49CFAE"/><clipPath id="XMLID_2_"><use xlink:href="#XMLID_1366_" overflow="visible"/></clipPath><g id="XMLID_1753_" class="st9"><defs><path id="XMLID_1754_" d="M256.7 23h70.2v54.1h-70.2z"/></defs><use xlink:href="#XMLID_1754_" overflow="visible" fill="#49CFAE"/><clipPath id="XMLID_3_"><use xlink:href="#XMLID_1754_" overflow="visible"/></clipPath><g id="XMLID_1755_" class="st10"><g id="XMLID_1756_"><g id="XMLID_2016_"><g id="XMLID_2139_"><circle id="XMLID_2140_" class="st11" cx="265.5" cy="32.3" r="1.1"/></g><g id="XMLID_2137_"><circle id="XMLID_2138_" class="st11" cx="256.6" cy="23.5" r="1.1"/></g><g id="XMLID_2100_"><g id="XMLID_2120_"><g id="XMLID_2129_"><g id="XMLID_2132_"><g id="XMLID_2133_"><path id="XMLID_2134_" class="st11" d="M263.1 21.1c-3.3.8-3.3 4.1 0 4.8.8 3.3 4.1 3.3 4.8 0 3.3-.8 3.3-4.1 0-4.8-.8-3.4-4.1-3.4-4.8 0zm4.5.9c.9.2 1.5.7 1.7 1.2.1.4 0 .7-.3 1-.3.3-.8.5-1.4.7l-.6.1-.1.6c-.1.6-.4 1.1-.7 1.4-.3.3-.7.4-1 .3-.5-.2-1-.8-1.2-1.7l-.1-.6-.6-.1c-.9-.2-1.5-.7-1.7-1.2-.1-.4 0-.7.3-1 .3-.3.8-.5 1.4-.7l.6-.1.1-.6c.1-.6.4-1.1.7-1.4.3-.3.7-.4 1-.3.5.2 1 .8 1.2 1.7l.1.6.6.1z"/></g></g><g id="XMLID_2130_"><circle id="XMLID_2131_" class="st11" cx="265.5" cy="23.5" r="1.1"/></g></g><g id="XMLID_2121_"><g id="XMLID_2124_"><g id="XMLID_2125_"><path id="XMLID_2126_" class="st11" d="M263.1 38.8c-3.3.8-3.3 4.1 0 4.8.8 3.3 4.1 3.3 4.8 0 3.3-.8 3.3-4.1 0-4.8-.8-3.3-4.1-3.3-4.8 0zm4.5 1c.9.2 1.5.7 1.7 1.2.1.4 0 .7-.3 1-.3.3-.8.5-1.4.7l-.6.1-.1.6c-.1.6-.4 1.1-.7 1.4-.3.3-.7.4-1 .3-.5-.2-1-.8-1.2-1.7l-.1-.6-.6-.1c-.9-.2-1.5-.7-1.7-1.2-.1-.4 0-.7.3-1 .3-.3.8-.5 1.4-.7l.6-.1.1-.7c.1-.6.4-1.1.7-1.4.3-.3.7-.4 1-.3.5.2 1 .8 1.2 1.7l.1.6.6.2z"/></g></g><g id="XMLID_2122_"><circle id="XMLID_2123_" class="st11" cx="265.5" cy="41.2" r="1.1"/></g></g></g><g id="XMLID_2101_"><g id="XMLID_2112_"><g id="XMLID_2115_"><g id="XMLID_2116_"><path id="XMLID_2117_" class="st11" d="M254.2 34.7c.8 3.3 4.1 3.3 4.8 0 3.3-.8 3.3-4.1 0-4.8-.8-3.3-4.1-3.3-4.8 0-3.3.8-3.3 4.1 0 4.8zm.9-4.6c.2-.9.7-1.5 1.2-1.7.4-.1.7 0 1 .3.3.3.5.8.7 1.4l.1.6.6.1c.6.1 1.1.4 1.4.7.3.3.4.7.3 1-.2.5-.8 1-1.7 1.2l-.6.1-.1.6c-.2.9-.7 1.5-1.2 1.7-.4.1-.7 0-1-.3-.3-.3-.5-.8-.7-1.4l-.1-.6-.6-.1c-.6-.1-1.1-.4-1.4-.7-.3-.3-.4-.7-.3-1 .2-.5.8-1 1.7-1.2l.6-.1.1-.6z"/></g></g><g id="XMLID_2113_"><circle id="XMLID_2114_" class="st11" cx="256.6" cy="32.3" r="1.1"/></g></g><g id="XMLID_2102_"><g id="XMLID_2107_"><g id="XMLID_2108_"><path id="XMLID_2109_" class="st11" d="M271.9 34.7c.8 3.3 4.1 3.3 4.8 0 3.3-.8 3.3-4.1 0-4.8-.8-3.3-4.1-3.3-4.8 0-3.3.8-3.3 4.1 0 4.8zm1-4.6c.2-.9.7-1.5 1.2-1.7.4-.1.7 0 1 .3.3.3.5.8.7 1.4l.1.6.6.1c.6.1 1.1.4 1.4.7.3.3.4.7.3 1-.2.5-.8 1-1.7 1.2l-.6.1-.1.6c-.2.9-.7 1.5-1.2 1.7-.4.1-.7 0-1-.3-.3-.3-.5-.8-.7-1.4l-.1-.6-.6-.1c-.6-.1-1.1-.4-1.4-.7-.3-.3-.4-.7-.3-1 .2-.5.8-1 1.7-1.2l.6-.1.1-.6z"/></g></g><g id="XMLID_2105_"><circle id="XMLID_2106_" class="st11" cx="274.3" cy="32.3" r="1.1"/></g><g id="XMLID_2103_"><circle id="XMLID_2104_" class="st11" cx="274.3" cy="23.5" r="1.1"/></g></g></g></g><g id="XMLID_2098_"><circle id="XMLID_2099_" class="st11" cx="283.2" cy="32.3" r="1.1"/></g><g id="XMLID_2096_"><circle id="XMLID_2097_" class="st11" cx="274.2" cy="41.3" r="1.1"/></g><g id="XMLID_2094_"><circle id="XMLID_2095_" class="st11" cx="256.6" cy="41.3" r="1.1"/></g><g id="XMLID_2066_"><g id="XMLID_2077_"><g id="XMLID_2086_"><g id="XMLID_2089_"><g id="XMLID_2090_"><path id="XMLID_2091_" class="st11" d="M280.8 21.1c-3.3.8-3.3 4.1 0 4.8.8 3.3 4.1 3.3 4.8 0 3.3-.8 3.3-4.1 0-4.8-.7-3.4-4-3.4-4.8 0zm4.6.9c.9.2 1.5.7 1.7 1.2.1.4 0 .7-.3 1-.3.3-.8.5-1.4.7l-.6.1-.1.6c-.1.6-.4 1.1-.7 1.4-.3.3-.7.4-1 .3-.5-.2-1-.8-1.2-1.7l-.1-.6-.6-.1c-.9-.2-1.5-.7-1.7-1.2-.1-.4 0-.7.3-1 .3-.3.8-.5 1.4-.7l.6-.1.1-.6c.1-.6.4-1.1.7-1.4.3-.3.7-.4 1-.3.5.2 1 .8 1.2 1.7l.1.6.6.1z"/></g></g><g id="XMLID_2087_"><circle id="XMLID_2088_" class="st11" cx="283.2" cy="23.5" r="1.1"/></g></g><g id="XMLID_2078_"><g id="XMLID_2081_"><g id="XMLID_2082_"><path id="XMLID_2083_" class="st11" d="M280.8 38.8c-3.3.8-3.3 4.1 0 4.8.8 3.3 4.1 3.3 4.8 0 3.3-.8 3.3-4.1 0-4.8-.7-3.3-4-3.3-4.8 0zm4.6 1c.9.2 1.5.7 1.7 1.2.1.4 0 .7-.3 1-.3.3-.8.5-1.4.7l-.6.1-.1.6c-.1.6-.4 1.1-.7 1.4-.3.3-.7.4-1 .3-.5-.2-1-.8-1.2-1.7l-.1-.6-.6-.1c-.9-.2-1.5-.7-1.7-1.2-.1-.4 0-.7.3-1 .3-.3.8-.5 1.4-.7l.6-.1.1-.6c.1-.6.4-1.1.7-1.4.3-.3.7-.4 1-.3.5.2 1 .8 1.2 1.7l.1.6.6.1z"/></g></g><g id="XMLID_2079_"><circle id="XMLID_2080_" class="st11" cx="283.2" cy="41.2" r="1.1"/></g></g></g><g id="XMLID_2067_"><g id="XMLID_2072_"><g id="XMLID_2073_"><path id="XMLID_2074_" class="st11" d="M289.7 34.7c.8 3.3 4.1 3.3 4.8 0 3.3-.8 3.3-4.1 0-4.8-.8-3.3-4.1-3.3-4.8 0-3.3.8-3.3 4.1 0 4.8zm.9-4.6c.2-.9.7-1.5 1.2-1.7.4-.1.7 0 1 .3.3.3.5.8.7 1.4l.1.6.6.1c.6.1 1.1.4 1.4.7.3.3.4.7.3 1-.2.5-.8 1-1.7 1.2l-.6.1-.1.6c-.2.9-.7 1.5-1.2 1.7-.4.1-.7 0-1-.3-.3-.3-.5-.8-.7-1.4l-.1-.6-.6-.1c-.6-.1-1.1-.4-1.4-.7-.3-.3-.4-.7-.3-1 .2-.5.8-1 1.7-1.2l.6-.1.1-.6z"/></g></g><g id="XMLID_2070_"><circle id="XMLID_2071_" class="st11" cx="292.1" cy="32.3" r="1.1"/></g><g id="XMLID_2068_"><circle id="XMLID_2069_" class="st11" cx="292.1" cy="23.5" r="1.1"/></g></g></g><g id="XMLID_2064_"><circle id="XMLID_2065_" class="st11" cx="265.5" cy="50.1" r="1.1"/></g><g id="XMLID_2036_"><g id="XMLID_2054_"><g id="XMLID_2059_"><g id="XMLID_2060_"><path id="XMLID_2061_" class="st11" d="M263.1 56.5c-3.3.8-3.3 4.1 0 4.8.8 3.3 4.1 3.3 4.8 0 3.3-.8 3.3-4.1 0-4.8-.8-3.3-4.1-3.3-4.8 0zm4.5 1c.9.2 1.5.7 1.7 1.2.1.4 0 .7-.3 1-.3.3-.8.5-1.4.7l-.6.1-.1.6c-.1.6-.4 1.1-.7 1.4-.3.3-.7.4-1 .3-.5-.2-1-.8-1.2-1.7l-.1-.6-.6-.1c-.9-.2-1.5-.7-1.7-1.2-.1-.4 0-.7.3-1 .3-.3.8-.5 1.4-.7l.6-.1.1-.6c.1-.6.4-1.1.7-1.4.3-.3.7-.4 1-.3.5.2 1 .8 1.2 1.7l.1.6.6.1z"/></g></g><g id="XMLID_2057_"><circle id="XMLID_2058_" class="st11" cx="265.5" cy="58.9" r="1.1"/></g><g id="XMLID_2055_"><circle id="XMLID_2056_" class="st11" cx="256.6" cy="58.9" r="1.1"/></g></g><g id="XMLID_2037_"><g id="XMLID_2046_"><g id="XMLID_2049_"><g id="XMLID_2050_"><path id="XMLID_2051_" class="st11" d="M254.2 52.5c.8 3.3 4.1 3.3 4.8 0 3.3-.8 3.3-4.1 0-4.8-.8-3.3-4.1-3.3-4.8 0-3.3.7-3.3 4 0 4.8zm.9-4.6c.2-.9.7-1.5 1.2-1.7.4-.1.7 0 1 .3.3.3.5.8.7 1.4l.1.6.6.1c.6.1 1.1.4 1.4.7.3.3.4.7.3 1-.2.5-.8 1-1.7 1.2l-.6.1-.1.6c-.2.9-.7 1.5-1.2 1.7-.4.1-.7 0-1-.3-.3-.3-.5-.8-.7-1.4l-.1-.6-.6-.1c-.6-.1-1.1-.4-1.4-.7-.3-.3-.4-.7-.3-1 .2-.5.8-1 1.7-1.2l.6-.1.1-.6z"/></g></g><g id="XMLID_2047_"><circle id="XMLID_2048_" class="st11" cx="256.6" cy="50.1" r="1.1"/></g></g><g id="XMLID_2038_"><g id="XMLID_2041_"><g id="XMLID_2042_"><path id="XMLID_2043_" class="st11" d="M271.9 52.5c.8 3.3 4.1 3.3 4.8 0 3.3-.8 3.3-4.1 0-4.8-.8-3.3-4.1-3.3-4.8 0-3.3.7-3.3 4 0 4.8zm1-4.6c.2-.9.7-1.5 1.2-1.7.4-.1.7 0 1 .3.3.3.5.8.7 1.4l.1.6.6.1c.6.1 1.1.4 1.4.7.3.3.4.7.3 1-.2.5-.8 1-1.7 1.2l-.6.1-.1.6c-.2.9-.7 1.5-1.2 1.7-.4.1-.7 0-1-.3-.3-.3-.5-.8-.7-1.4l-.1-.6-.6-.1c-.6-.1-1.1-.4-1.4-.7-.3-.3-.4-.7-.3-1 .2-.5.8-1 1.7-1.2l.6-.1.1-.6z"/></g></g><g id="XMLID_2039_"><circle id="XMLID_2040_" class="st11" cx="274.3" cy="50.1" r="1.1"/></g></g></g></g><g id="XMLID_2034_"><circle id="XMLID_2035_" class="st11" cx="283.2" cy="50.1" r="1.1"/></g><g id="XMLID_2017_"><g id="XMLID_2026_"><g id="XMLID_2029_"><g id="XMLID_2030_"><path id="XMLID_2031_" class="st11" d="M280.8 56.5c-3.3.8-3.3 4.1 0 4.8.8 3.3 4.1 3.3 4.8 0 3.3-.8 3.3-4.1 0-4.8-.7-3.3-4-3.3-4.8 0zm4.6 1c.9.2 1.5.7 1.7 1.2.1.4 0 .7-.3 1-.3.3-.8.5-1.4.7l-.6.1-.1.6c-.1.6-.4 1.1-.7 1.4-.3.3-.7.4-1 .3-.5-.2-1-.8-1.2-1.7l-.1-.6-.6-.1c-.9-.2-1.5-.7-1.7-1.2-.1-.4 0-.7.3-1 .3-.3.8-.5 1.4-.7l.6-.1.1-.6c.1-.6.4-1.1.7-1.4.3-.3.7-.4 1-.3.5.2 1 .8 1.2 1.7l.1.6.6.1z"/></g></g><g id="XMLID_2027_"><circle id="XMLID_2028_" class="st11" cx="283.2" cy="58.9" r="1.1"/></g></g><g id="XMLID_2018_"><g id="XMLID_2021_"><g id="XMLID_2022_"><path id="XMLID_2023_" class="st11" d="M289.7 52.5c.8 3.3 4.1 3.3 4.8 0 3.3-.8 3.3-4.1 0-4.8-.8-3.3-4.1-3.3-4.8 0-3.3.7-3.3 4 0 4.8zm.9-4.6c.2-.9.7-1.5 1.2-1.7.4-.1.7 0 1 .3.3.3.5.8.7 1.4l.1.6.6.1c.6.1 1.1.4 1.4.7.3.3.4.7.3 1-.2.5-.8 1-1.7 1.2l-.6.1-.1.6c-.2.9-.7 1.5-1.2 1.7-.4.1-.7 0-1-.3-.3-.3-.5-.8-.7-1.4l-.1-.6-.6-.1c-.6-.1-1.1-.4-1.4-.7-.3-.3-.4-.7-.3-1 .2-.5.8-1 1.7-1.2l.6-.1.1-.6z"/></g></g><g id="XMLID_2019_"><circle id="XMLID_2020_" class="st11" cx="292.1" cy="50.1" r="1.1"/></g></g></g></g><g id="XMLID_1905_"><g id="XMLID_2014_"><circle id="XMLID_2015_" class="st11" cx="301" cy="32.3" r="1.1"/></g><g id="XMLID_2012_"><circle id="XMLID_2013_" class="st11" cx="292.1" cy="41.2" r="1.1"/></g><g id="XMLID_1984_"><g id="XMLID_1995_"><g id="XMLID_2004_"><g id="XMLID_2007_"><g id="XMLID_2008_"><path id="XMLID_2009_" class="st11" d="M298.6 21.1c-3.3.8-3.3 4.1 0 4.8.8 3.3 4.1 3.3 4.8 0 3.3-.8 3.3-4.1 0-4.8-.8-3.4-4.1-3.4-4.8 0zm4.6.9c.9.2 1.5.7 1.7 1.2.1.4 0 .7-.3 1-.3.3-.8.5-1.4.7l-.6.1-.1.6c-.1.6-.4 1.1-.7 1.4-.3.3-.7.4-1 .3-.5-.2-1-.8-1.2-1.7l-.1-.6-.6-.1c-.9-.2-1.5-.7-1.7-1.2-.1-.4 0-.7.3-1 .3-.3.8-.5 1.4-.7l.6-.1.1-.6c.1-.6.4-1.1.7-1.4.3-.3.7-.4 1-.3.5.2 1 .8 1.2 1.7l.1.6.6.1z"/></g></g><g id="XMLID_2005_"><circle id="XMLID_2006_" class="st11" cx="301" cy="23.5" r="1.1"/></g></g><g id="XMLID_1996_"><g id="XMLID_1999_"><g id="XMLID_2000_"><path id="XMLID_2001_" class="st11" d="M298.6 38.8c-3.3.8-3.3 4.1 0 4.8.8 3.3 4.1 3.3 4.8 0 3.3-.8 3.3-4.1 0-4.8-.8-3.3-4.1-3.3-4.8 0zm4.6 1c.9.2 1.5.7 1.7 1.2.1.4 0 .7-.3 1-.3.3-.8.5-1.4.7l-.6.1-.1.6c-.1.6-.4 1.1-.7 1.4-.3.3-.7.4-1 .3-.5-.2-1-.8-1.2-1.7l-.1-.6-.6-.1c-.9-.2-1.5-.7-1.7-1.2-.1-.4 0-.7.3-1 .3-.3.8-.5 1.4-.7l.6-.1.1-.6c.1-.6.4-1.1.7-1.4.3-.3.7-.4 1-.3.5.2 1 .8 1.2 1.7l.1.6.6.1z"/></g></g><g id="XMLID_1997_"><circle id="XMLID_1998_" class="st11" cx="301" cy="41.2" r="1.1"/></g></g></g><g id="XMLID_1985_"><g id="XMLID_1990_"><g id="XMLID_1991_"><path id="XMLID_1992_" class="st11" d="M307.4 34.7c.8 3.3 4.1 3.3 4.8 0 3.3-.8 3.3-4.1 0-4.8-.8-3.3-4.1-3.3-4.8 0-3.3.8-3.3 4.1 0 4.8zm1-4.6c.2-.9.7-1.5 1.2-1.7.4-.1.7 0 1 .3.3.3.5.8.7 1.4l.1.6.6.1c.6.1 1.1.4 1.4.7.3.3.4.7.3 1-.2.5-.8 1-1.7 1.2l-.6.1-.1.6c-.2.9-.7 1.5-1.2 1.7-.4.1-.7 0-1-.3-.3-.3-.5-.8-.7-1.4l-.1-.6-.6-.1c-.6-.1-1.1-.4-1.4-.7-.3-.3-.4-.7-.3-1 .2-.5.8-1 1.7-1.2l.6-.1.1-.6z"/></g></g><g id="XMLID_1988_"><circle id="XMLID_1989_" class="st11" cx="309.9" cy="32.3" r="1.1"/></g><g id="XMLID_1986_"><circle id="XMLID_1987_" class="st11" cx="309.9" cy="23.5" r="1.1"/></g></g></g><g id="XMLID_1982_"><circle id="XMLID_1983_" class="st11" cx="318.7" cy="32.3" r="1.1"/></g><g id="XMLID_1980_"><circle id="XMLID_1981_" class="st11" cx="327.6" cy="23.5" r="1.1"/></g><g id="XMLID_1978_"><circle id="XMLID_1979_" class="st11" cx="309.7" cy="41.3" r="1.1"/></g><g id="XMLID_1950_"><g id="XMLID_1959_"><g id="XMLID_1970_"><g id="XMLID_1973_"><g id="XMLID_1974_"><path id="XMLID_1975_" class="st11" d="M316.3 21.1c-3.3.8-3.3 4.1 0 4.8.8 3.3 4.1 3.3 4.8 0 3.3-.8 3.3-4.1 0-4.8-.7-3.4-4-3.4-4.8 0zm4.6.9c.9.2 1.5.7 1.7 1.2.1.4 0 .7-.3 1-.3.3-.8.5-1.4.7l-.6.1-.1.6c-.1.6-.4 1.1-.7 1.4-.3.3-.7.4-1 .3-.5-.2-1-.8-1.2-1.7l-.1-.6-.6-.1c-.9-.2-1.5-.7-1.7-1.2-.1-.4 0-.7.3-1 .3-.3.8-.5 1.4-.7l.6-.1.1-.6c.1-.6.4-1.1.7-1.4.3-.3.7-.4 1-.3.5.2 1 .8 1.2 1.7l.1.6.6.1z"/></g></g><g id="XMLID_1971_"><circle id="XMLID_1972_" class="st11" cx="318.7" cy="23.5" r="1.1"/></g></g><g id="XMLID_1960_"><g id="XMLID_1965_"><g id="XMLID_1966_"><path id="XMLID_1967_" class="st11" d="M316.3 38.8c-3.3.8-3.3 4.1 0 4.8.8 3.3 4.1 3.3 4.8 0 3.3-.8 3.3-4.1 0-4.8-.7-3.3-4-3.3-4.8 0zm4.6 1c.9.2 1.5.7 1.7 1.2.1.4 0 .7-.3 1-.3.3-.8.5-1.4.7l-.6.1-.1.6c-.1.6-.4 1.1-.7 1.4-.3.3-.7.4-1 .3-.5-.2-1-.8-1.2-1.7l-.1-.6-.6-.1c-.9-.2-1.5-.7-1.7-1.2-.1-.4 0-.7.3-1 .3-.3.8-.5 1.4-.7l.6-.1.1-.6c.1-.6.4-1.1.7-1.4.3-.3.7-.4 1-.3.5.2 1 .8 1.2 1.7l.1.6.6.1z"/></g></g><g id="XMLID_1963_"><circle id="XMLID_1964_" class="st11" cx="318.7" cy="41.2" r="1.1"/></g><g id="XMLID_1961_"><circle id="XMLID_1962_" class="st11" cx="327.6" cy="41.2" r="1.1"/></g></g></g><g id="XMLID_1951_"><g id="XMLID_1954_"><g id="XMLID_1955_"><path id="XMLID_1956_" class="st11" d="M325.2 34.7c.8 3.3 4.1 3.3 4.8 0 3.3-.8 3.3-4.1 0-4.8-.8-3.3-4.1-3.3-4.8 0-3.3.8-3.3 4.1 0 4.8zm1-4.6c.2-.9.7-1.5 1.2-1.7.4-.1.7 0 1 .3.3.3.5.8.7 1.4l.1.6.6.1c.6.1 1.1.4 1.4.7.3.3.4.7.3 1-.2.5-.8 1-1.7 1.2l-.6.1-.1.6c-.2.9-.7 1.5-1.2 1.7-.4.1-.7 0-1-.3-.3-.3-.5-.8-.7-1.4l-.1-.6-.6-.1c-.6-.1-1.1-.4-1.4-.7-.3-.3-.4-.7-.3-1 .2-.5.8-1 1.7-1.2l.6-.1.1-.6z"/></g></g><g id="XMLID_1952_"><circle id="XMLID_1953_" class="st11" cx="327.6" cy="32.3" r="1.1"/></g></g></g><g id="XMLID_1948_"><circle id="XMLID_1949_" class="st11" cx="301" cy="50.1" r="1.1"/></g><g id="XMLID_1946_"><circle id="XMLID_1947_" class="st11" cx="292" cy="59.1" r="1.1"/></g><g id="XMLID_1944_"><circle id="XMLID_1945_" class="st11" cx="309.8" cy="59.1" r="1.1"/></g><g id="XMLID_1927_"><g id="XMLID_1936_"><g id="XMLID_1939_"><g id="XMLID_1940_"><path id="XMLID_1941_" class="st11" d="M298.6 56.5c-3.3.8-3.3 4.1 0 4.8.8 3.3 4.1 3.3 4.8 0 3.3-.8 3.3-4.1 0-4.8-.8-3.3-4.1-3.3-4.8 0zm4.6 1c.9.2 1.5.7 1.7 1.2.1.4 0 .7-.3 1-.3.3-.8.5-1.4.7l-.6.1-.1.6c-.1.6-.4 1.1-.7 1.4-.3.3-.7.4-1 .3-.5-.2-1-.8-1.2-1.7l-.1-.6-.6-.1c-.9-.2-1.5-.7-1.7-1.2-.1-.4 0-.7.3-1 .3-.3.8-.5 1.4-.7l.6-.1.1-.6c.1-.6.4-1.1.7-1.4.3-.3.7-.4 1-.3.5.2 1 .8 1.2 1.7l.1.6.6.1z"/></g></g><g id="XMLID_1937_"><circle id="XMLID_1938_" class="st11" cx="301" cy="58.9" r="1.1"/></g></g><g id="XMLID_1928_"><g id="XMLID_1931_"><g id="XMLID_1932_"><path id="XMLID_1933_" class="st11" d="M307.4 52.5c.8 3.3 4.1 3.3 4.8 0 3.3-.8 3.3-4.1 0-4.8-.8-3.3-4.1-3.3-4.8 0-3.3.7-3.3 4 0 4.8zm1-4.6c.2-.9.7-1.5 1.2-1.7.4-.1.7 0 1 .3.3.3.5.8.7 1.4l.1.6.6.1c.6.1 1.1.4 1.4.7.3.3.4.7.3 1-.2.5-.8 1-1.7 1.2l-.6.1-.1.6c-.2.9-.7 1.5-1.2 1.7-.4.1-.7 0-1-.3-.3-.3-.5-.8-.7-1.4l-.1-.6-.6-.1c-.6-.1-1.1-.4-1.4-.7-.3-.3-.4-.7-.3-1 .2-.5.8-1 1.7-1.2l.6-.1.1-.6z"/></g></g><g id="XMLID_1929_"><circle id="XMLID_1930_" class="st11" cx="309.9" cy="50.1" r="1.1"/></g></g></g><g id="XMLID_1925_"><circle id="XMLID_1926_" class="st11" cx="318.7" cy="50.1" r="1.1"/></g><g id="XMLID_1906_"><g id="XMLID_1915_"><g id="XMLID_1920_"><g id="XMLID_1921_"><path id="XMLID_1922_" class="st11" d="M316.3 56.5c-3.3.8-3.3 4.1 0 4.8.8 3.3 4.1 3.3 4.8 0 3.3-.8 3.3-4.1 0-4.8-.7-3.3-4-3.3-4.8 0zm4.6 1c.9.2 1.5.7 1.7 1.2.1.4 0 .7-.3 1-.3.3-.8.5-1.4.7l-.6.1-.1.6c-.1.6-.4 1.1-.7 1.4-.3.3-.7.4-1 .3-.5-.2-1-.8-1.2-1.7l-.1-.6-.6-.1c-.9-.2-1.5-.7-1.7-1.2-.1-.4 0-.7.3-1 .3-.3.8-.5 1.4-.7l.6-.1.1-.6c.1-.6.4-1.1.7-1.4.3-.3.7-.4 1-.3.5.2 1 .8 1.2 1.7l.1.6.6.1z"/></g></g><g id="XMLID_1918_"><circle id="XMLID_1919_" class="st11" cx="318.7" cy="58.9" r="1.1"/></g><g id="XMLID_1916_"><circle id="XMLID_1917_" class="st11" cx="327.6" cy="58.9" r="1.1"/></g></g><g id="XMLID_1907_"><g id="XMLID_1910_"><g id="XMLID_1911_"><path id="XMLID_1912_" class="st11" d="M325.2 52.5c.8 3.3 4.1 3.3 4.8 0 3.3-.8 3.3-4.1 0-4.8-.8-3.3-4.1-3.3-4.8 0-3.3.7-3.3 4 0 4.8zm1-4.6c.2-.9.7-1.5 1.2-1.7.4-.1.7 0 1 .3.3.3.5.8.7 1.4l.1.6.6.1c.6.1 1.1.4 1.4.7.3.3.4.7.3 1-.2.5-.8 1-1.7 1.2l-.6.1-.1.6c-.2.9-.7 1.5-1.2 1.7-.4.1-.7 0-1-.3-.3-.3-.5-.8-.7-1.4l-.1-.6-.6-.1c-.6-.1-1.1-.4-1.4-.7-.3-.3-.4-.7-.3-1 .2-.5.8-1 1.7-1.2l.6-.1.1-.6z"/></g></g><g id="XMLID_1908_"><circle id="XMLID_1909_" class="st11" cx="327.6" cy="50.1" r="1.1"/></g></g></g></g><g id="XMLID_1851_"><g id="XMLID_1903_"><circle id="XMLID_1904_" class="st11" cx="265.5" cy="67.8" r="1.1"/></g><g id="XMLID_1901_"><circle id="XMLID_1902_" class="st11" cx="274.3" cy="58.9" r="1.1"/></g><g id="XMLID_1875_"><g id="XMLID_1893_"><g id="XMLID_1896_"><g id="XMLID_1897_"><path id="XMLID_1898_" class="st11" d="M263.1 74.2c-3.3.8-3.3 4.1 0 4.8.8 3.3 4.1 3.3 4.8 0 3.3-.8 3.3-4.1 0-4.8-.8-3.3-4.1-3.3-4.8 0zm4.5 1c.9.2 1.5.7 1.7 1.2.1.3 0 .7-.3 1-.3.3-.8.5-1.4.7l-.6.1-.1.6c-.1.6-.4 1.1-.7 1.4-.3.3-.7.4-1 .3-.5-.2-1-.8-1.2-1.7l-.1-.6-.6-.1c-.9-.2-1.5-.7-1.7-1.2-.1-.4 0-.7.3-1 .3-.3.8-.5 1.4-.7l.6-.1.1-.6c.1-.6.4-1.1.7-1.4.3-.3.7-.4 1-.3.5.2 1 .8 1.2 1.7l.1.6.6.1z"/></g></g><g id="XMLID_1894_"><circle id="XMLID_1895_" class="st11" cx="265.5" cy="76.7" r="1.1"/></g></g><g id="XMLID_1876_"><g id="XMLID_1885_"><g id="XMLID_1888_"><g id="XMLID_1889_"><path id="XMLID_1890_" class="st11" d="M254.2 70.2c.8 3.3 4.1 3.3 4.8 0 3.3-.8 3.3-4.1 0-4.8-.8-3.3-4.1-3.3-4.8 0-3.3.7-3.3 4 0 4.8zm.9-4.6c.2-.9.7-1.5 1.2-1.7.4-.1.7 0 1 .3.3.3.5.8.7 1.4l.1.6.6.1c.6.1 1.1.4 1.4.7.3.3.4.7.3 1-.2.5-.8 1-1.7 1.2l-.6.1-.1.7c-.2.9-.7 1.5-1.2 1.7-.4.1-.7 0-1-.3-.3-.3-.5-.8-.7-1.4l-.1-.6-.6-.1c-.6-.1-1.1-.4-1.4-.7-.3-.3-.4-.7-.3-1 .2-.5.8-1 1.7-1.2l.6-.1.1-.7z"/></g></g><g id="XMLID_1886_"><circle id="XMLID_1887_" class="st11" cx="256.6" cy="67.8" r="1.1"/></g></g><g id="XMLID_1877_"><g id="XMLID_1880_"><g id="XMLID_1881_"><path id="XMLID_1882_" class="st11" d="M271.9 70.2c.8 3.3 4.1 3.3 4.8 0 3.3-.8 3.3-4.1 0-4.8-.8-3.3-4.1-3.3-4.8 0-3.3.7-3.3 4 0 4.8zm1-4.6c.2-.9.7-1.5 1.2-1.7.4-.1.7 0 1 .3.3.3.5.8.7 1.4l.1.6.6.1c.6.1 1.1.4 1.4.7.3.3.4.7.3 1-.2.5-.8 1-1.7 1.2l-.6.1-.1.6c-.2.9-.7 1.5-1.2 1.7-.4.1-.7 0-1-.3-.3-.3-.5-.8-.7-1.4l-.1-.6-.6-.1c-.6-.1-1.1-.4-1.4-.7-.3-.3-.4-.7-.3-1 .2-.5.8-1 1.7-1.2l.6-.1.1-.6z"/></g></g><g id="XMLID_1878_"><circle id="XMLID_1879_" class="st11" cx="274.3" cy="67.8" r="1.1"/></g></g></g></g><g id="XMLID_1873_"><circle id="XMLID_1874_" class="st11" cx="283.2" cy="67.8" r="1.1"/></g><g id="XMLID_1871_"><circle id="XMLID_1872_" class="st11" cx="274.2" cy="76.8" r="1.1"/></g><g id="XMLID_1869_"><circle id="XMLID_1870_" class="st11" cx="256.6" cy="76.8" r="1.1"/></g><g id="XMLID_1852_"><g id="XMLID_1861_"><g id="XMLID_1864_"><g id="XMLID_1865_"><path id="XMLID_1866_" class="st11" d="M280.8 74.2c-3.3.8-3.3 4.1 0 4.8.8 3.3 4.1 3.3 4.8 0 3.3-.8 3.3-4.1 0-4.8-.7-3.3-4-3.3-4.8 0zm4.6 1c.9.2 1.5.7 1.7 1.2.1.3 0 .7-.3 1-.3.3-.8.5-1.4.7l-.6.1-.1.6c-.1.6-.4 1.1-.7 1.4-.3.3-.7.4-1 .3-.5-.2-1-.8-1.2-1.7l-.1-.6-.6-.1c-.9-.2-1.5-.7-1.7-1.2-.1-.4 0-.7.3-1 .3-.3.8-.5 1.4-.7l.6-.1.1-.6c.1-.6.4-1.1.7-1.4.3-.3.7-.4 1-.3.5.2 1 .8 1.2 1.7l.1.6.6.1z"/></g></g><g id="XMLID_1862_"><circle id="XMLID_1863_" class="st11" cx="283.2" cy="76.7" r="1.1"/></g></g><g id="XMLID_1853_"><g id="XMLID_1856_"><g id="XMLID_1857_"><path id="XMLID_1858_" class="st11" d="M289.7 70.2c.8 3.3 4.1 3.3 4.8 0 3.3-.8 3.3-4.1 0-4.8-.8-3.3-4.1-3.3-4.8 0-3.3.7-3.3 4 0 4.8zm.9-4.6c.2-.9.7-1.5 1.2-1.7.4-.1.7 0 1 .3.3.3.5.8.7 1.4l.1.6.6.1c.6.1 1.1.4 1.4.7.3.3.4.7.3 1-.2.5-.8 1-1.7 1.2l-.6.1-.1.6c-.2.9-.7 1.5-1.2 1.7-.4.1-.7 0-1-.3-.3-.3-.5-.8-.7-1.4l-.1-.6-.6-.1c-.6-.1-1.1-.4-1.4-.7-.3-.3-.4-.7-.3-1 .2-.5.8-1 1.7-1.2l.6-.1.1-.6z"/></g></g><g id="XMLID_1854_"><circle id="XMLID_1855_" class="st11" cx="292.1" cy="67.8" r="1.1"/></g></g></g></g><g id="XMLID_1757_"><g id="XMLID_1802_"><g id="XMLID_1849_"><path id="XMLID_1850_" class="st11" d="M298.8 61.1c.2.2-.2 1-1 1.8l-1.7 1.7c-.8.8-1.6 1.2-1.8 1-.2-.2.2-1 1-1.8l1.7-1.7c.8-.7 1.6-1.2 1.8-1z"/></g><g id="XMLID_1847_"><path id="XMLID_1848_" class="st11" d="M307.6 65.6c-.2.2-1-.2-1.8-1l-1.7-1.7c-.8-.8-1.2-1.6-1-1.8.2-.2 1 .2 1.8 1l1.7 1.7c.8.8 1.3 1.6 1 1.8z"/></g><g id="XMLID_1845_"><path id="XMLID_1846_" class="st11" d="M298.8 56.8c-.2.2-1-.2-1.8-1l-1.7-1.7c-.8-.8-1.2-1.6-1-1.8.2-.2 1 .2 1.8 1l1.7 1.7c.8.8 1.3 1.6 1 1.8z"/></g><g id="XMLID_1843_"><path id="XMLID_1844_" class="st11" d="M290 47.9c-.2.2-1-.2-1.8-1l-1.7-1.7c-.8-.8-1.2-1.6-1-1.8.2-.2 1 .2 1.8 1l1.7 1.7c.7.8 1.2 1.6 1 1.8z"/></g><g id="XMLID_1841_"><path id="XMLID_1842_" class="st11" d="M307.6 30.3c-.2.2-1-.2-1.8-1l-1.7-1.7c-.8-.8-1.2-1.6-1-1.8.2-.2 1 .2 1.8 1l1.7 1.7c.8.7 1.3 1.5 1 1.8z"/></g><g id="XMLID_1839_"><path id="XMLID_1840_" class="st11" d="M316.6 39.2c-.2.2-1-.2-1.8-1l-1.7-1.7c-.8-.8-1.2-1.6-1-1.8.2-.2 1 .2 1.8 1l1.7 1.7c.7.8 1.2 1.6 1 1.8z"/></g><g id="XMLID_1837_"><path id="XMLID_1838_" class="st11" d="M325.4 48c-.2.2-1-.2-1.8-1l-1.7-1.7c-.8-.8-1.2-1.6-1-1.8.2-.2 1 .2 1.8 1l1.7 1.7c.8.8 1.2 1.6 1 1.8z"/></g><g id="XMLID_1835_"><path id="XMLID_1836_" class="st11" d="M281.1 39.1c-.2.2-1-.2-1.8-1l-1.7-1.7c-.8-.8-1.2-1.6-1-1.8.2-.2 1 .2 1.8 1l1.7 1.7c.8.8 1.2 1.6 1 1.8z"/></g><g id="XMLID_1833_"><path id="XMLID_1834_" class="st11" d="M263.3 57c-.2.2-1-.2-1.8-1l-1.7-1.7c-.8-.8-1.2-1.6-1-1.8.2-.2 1 .2 1.8 1l1.7 1.7c.7.8 1.2 1.6 1 1.8z"/></g><g id="XMLID_1831_"><path id="XMLID_1832_" class="st11" d="M271.9 65.5c-.2.2-1-.2-1.8-1l-1.7-1.7c-.8-.8-1.2-1.6-1-1.8.2-.2 1 .2 1.8 1l1.7 1.7c.7.8 1.2 1.6 1 1.8z"/></g><g id="XMLID_1829_"><path id="XMLID_1830_" class="st11" d="M280.9 74.6c-.2.2-1-.2-1.8-1l-1.7-1.7c-.8-.8-1.2-1.6-1-1.8.2-.2 1 .2 1.8 1l1.7 1.7c.8.8 1.2 1.6 1 1.8z"/></g><g id="XMLID_1827_"><path id="XMLID_1828_" class="st11" d="M272.2 30.2c-.2.2-1-.2-1.8-1l-1.7-1.7c-.8-.8-1.2-1.6-1-1.8.2-.2 1 .2 1.8 1l1.7 1.7c.7.8 1.2 1.6 1 1.8z"/></g><g id="XMLID_1825_"><path id="XMLID_1826_" class="st11" d="M316.5 74.5c-.2.2-1-.2-1.8-1l-1.7-1.7c-.8-.8-1.2-1.6-1-1.8.2-.2 1 .2 1.8 1l1.7 1.7c.7.8 1.2 1.6 1 1.8z"/></g><g id="XMLID_1823_"><path id="XMLID_1824_" class="st11" d="M289.8 70.1c.2.2-.2 1-1 1.8l-1.7 1.7c-.8.8-1.6 1.2-1.8 1-.2-.2.2-1 1-1.8l1.7-1.7c.8-.7 1.6-1.2 1.8-1z"/></g><g id="XMLID_1821_"><path id="XMLID_1822_" class="st11" d="M325.4 70.1c.2.2-.2 1-1 1.8l-1.7 1.7c-.8.8-1.6 1.2-1.8 1-.2-.2.2-1 1-1.8l1.7-1.7c.8-.8 1.5-1.2 1.8-1z"/></g><g id="XMLID_1819_"><path id="XMLID_1820_" class="st11" d="M272 52.3c.2.2-.2 1-1 1.8l-1.7 1.7c-.8.8-1.6 1.2-1.8 1-.2-.2.2-1 1-1.8l1.7-1.7c.8-.8 1.6-1.3 1.8-1z"/></g><g id="XMLID_1817_"><path id="XMLID_1818_" class="st11" d="M263.1 61.1c.2.2-.2 1-1 1.8l-1.7 1.7c-.8.8-1.6 1.2-1.8 1-.2-.2.2-1 1-1.8l1.7-1.7c.8-.7 1.6-1.2 1.8-1z"/></g><g id="XMLID_1815_"><path id="XMLID_1816_" class="st11" d="M280.8 43.4c.2.2-.2 1-1 1.8l-1.7 1.7c-.8.8-1.6 1.2-1.8 1-.2-.2.2-1 1-1.8l1.7-1.7c.8-.7 1.6-1.2 1.8-1z"/></g><g id="XMLID_1813_"><path id="XMLID_1814_" class="st11" d="M263.2 25.9c.2.2-.2 1-1 1.8l-1.7 1.7c-.8.8-1.6 1.2-1.8 1-.2-.2.2-1 1-1.8l1.7-1.7c.8-.8 1.6-1.3 1.8-1z"/></g><g id="XMLID_1811_"><path id="XMLID_1812_" class="st11" d="M289.8 34.5c.2.2-.2 1-1 1.8L287 38c-.8.8-1.6 1.2-1.8 1-.2-.2.2-1 1-1.8l1.7-1.7c.9-.8 1.6-1.2 1.9-1z"/></g><g id="XMLID_1809_"><path id="XMLID_1810_" class="st11" d="M298.6 25.6c.2.2-.2 1-1 1.8l-1.7 1.7c-.8.8-1.6 1.2-1.8 1-.2-.2.2-1 1-1.8l1.7-1.7c.8-.7 1.6-1.2 1.8-1z"/></g><g id="XMLID_1807_"><path id="XMLID_1808_" class="st11" d="M307.6 52.3c.2.2-.2 1-1 1.8l-1.7 1.7c-.8.8-1.6 1.2-1.8 1-.2-.2.2-1 1-1.8l1.7-1.7c.8-.7 1.6-1.2 1.8-1z"/></g><g id="XMLID_1805_"><path id="XMLID_1806_" class="st11" d="M316.5 43.5c.2.2-.2 1-1 1.8l-1.7 1.7c-.8.8-1.6 1.2-1.8 1-.2-.2.2-1 1-1.8l1.7-1.7c.8-.8 1.6-1.3 1.8-1z"/></g><g id="XMLID_1803_"><path id="XMLID_1804_" class="st11" d="M325.4 34.6c.2.2-.2 1-1 1.8l-1.7 1.7c-.8.8-1.6 1.2-1.8 1-.2-.2.2-1 1-1.8l1.7-1.7c.8-.8 1.6-1.2 1.8-1z"/></g></g><g id="XMLID_1800_"><circle id="XMLID_1801_" class="st11" cx="301" cy="67.8" r="1.1"/></g><g id="XMLID_1798_"><circle id="XMLID_1799_" class="st11" cx="292.1" cy="76.7" r="1.1"/></g><g id="XMLID_1781_"><g id="XMLID_1790_"><g id="XMLID_1793_"><g id="XMLID_1794_"><path id="XMLID_1795_" class="st11" d="M298.6 74.2c-3.3.8-3.3 4.1 0 4.8.8 3.3 4.1 3.3 4.8 0 3.3-.8 3.3-4.1 0-4.8-.8-3.3-4.1-3.3-4.8 0zm4.6 1c.9.2 1.5.7 1.7 1.2.1.3 0 .7-.3 1-.3.3-.8.5-1.4.7l-.6.1-.1.6c-.1.6-.4 1.1-.7 1.4-.3.3-.7.4-1 .3-.5-.2-1-.8-1.2-1.7l-.1-.6-.6-.1c-.9-.2-1.5-.7-1.7-1.2-.1-.4 0-.7.3-1 .3-.3.8-.5 1.4-.7l.6-.1.1-.6c.1-.6.4-1.1.7-1.4.3-.3.7-.4 1-.3.5.2 1 .8 1.2 1.7l.1.6.6.1z"/></g></g><g id="XMLID_1791_"><circle id="XMLID_1792_" class="st11" cx="301" cy="76.7" r="1.1"/></g></g><g id="XMLID_1782_"><g id="XMLID_1785_"><g id="XMLID_1786_"><path id="XMLID_1787_" class="st11" d="M307.4 70.2c.8 3.3 4.1 3.3 4.8 0 3.3-.8 3.3-4.1 0-4.8-.8-3.3-4.1-3.3-4.8 0-3.3.7-3.3 4 0 4.8zm1-4.6c.2-.9.7-1.5 1.2-1.7.4-.1.7 0 1 .3.3.3.5.8.7 1.4l.1.6.6.1c.6.1 1.1.4 1.4.7.3.3.4.7.3 1-.2.5-.8 1-1.7 1.2l-.6.1-.1.6c-.2.9-.7 1.5-1.2 1.7-.4.1-.7 0-1-.3-.3-.3-.5-.8-.7-1.4l-.1-.6-.6-.1c-.6-.1-1.1-.4-1.4-.7-.3-.3-.4-.7-.3-1 .2-.5.8-1 1.7-1.2l.6-.1.1-.6z"/></g></g><g id="XMLID_1783_"><circle id="XMLID_1784_" class="st11" cx="309.9" cy="67.8" r="1.1"/></g></g></g><g id="XMLID_1779_"><circle id="XMLID_1780_" class="st11" cx="318.7" cy="67.8" r="1.1"/></g><g id="XMLID_1777_"><circle id="XMLID_1778_" class="st11" cx="309.7" cy="76.8" r="1.1"/></g><g id="XMLID_1758_"><g id="XMLID_1767_"><g id="XMLID_1772_"><g id="XMLID_1773_"><path id="XMLID_1774_" class="st11" d="M316.3 74.2c-3.3.8-3.3 4.1 0 4.8.8 3.3 4.1 3.3 4.8 0 3.3-.8 3.3-4.1 0-4.8-.7-3.3-4-3.3-4.8 0zm4.6 1c.9.2 1.5.7 1.7 1.2.1.3 0 .7-.3 1-.3.3-.8.5-1.4.7l-.6.1-.1.6c-.1.6-.4 1.1-.7 1.4-.3.3-.7.4-1 .3-.5-.2-1-.8-1.2-1.7l-.1-.6-.6-.1c-.9-.2-1.5-.7-1.7-1.2-.1-.4 0-.7.3-1 .3-.3.8-.5 1.4-.7l.6-.1.1-.6c.1-.6.4-1.1.7-1.4.3-.3.7-.4 1-.3.5.2 1 .8 1.2 1.7l.1.6.6.1z"/></g></g><g id="XMLID_1770_"><circle id="XMLID_1771_" class="st11" cx="318.7" cy="76.7" r="1.1"/></g><g id="XMLID_1768_"><circle id="XMLID_1769_" class="st11" cx="327.6" cy="76.7" r="1.1"/></g></g><g id="XMLID_1759_"><g id="XMLID_1762_"><g id="XMLID_1763_"><path id="XMLID_1764_" class="st11" d="M325.2 70.2c.8 3.3 4.1 3.3 4.8 0 3.3-.8 3.3-4.1 0-4.8-.8-3.3-4.1-3.3-4.8 0-3.3.7-3.3 4 0 4.8zm1-4.6c.2-.9.7-1.5 1.2-1.7.4-.1.7 0 1 .3.3.3.5.8.7 1.4l.1.6.6.1c.6.1 1.1.4 1.4.7.3.3.4.7.3 1-.2.5-.8 1-1.7 1.2l-.6.1-.1.6c-.2.9-.7 1.5-1.2 1.7-.4.1-.7 0-1-.3-.3-.3-.5-.8-.7-1.4l-.1-.6-.6-.1c-.6-.1-1.1-.4-1.4-.7-.3-.3-.4-.7-.3-1 .2-.5.8-1 1.7-1.2l.6-.1.1-.6z"/></g></g><g id="XMLID_1760_"><circle id="XMLID_1761_" class="st11" cx="327.6" cy="67.8" r="1.1"/></g></g></g></g></g></g></g><g id="XMLID_1367_" class="st9"><g id="XMLID_1368_"><g id="XMLID_1628_"><g id="XMLID_1751_"><circle id="XMLID_1752_" class="st12" cx="265.5" cy="32.3" r="1.1"/></g><g id="XMLID_1749_"><circle id="XMLID_1750_" class="st12" cx="256.6" cy="23.5" r="1.1"/></g><g id="XMLID_1712_"><g id="XMLID_1732_"><g id="XMLID_1741_"><g id="XMLID_1744_"><g id="XMLID_1745_"><path id="XMLID_1746_" class="st12" d="M263.1 21.1c-3.3.8-3.3 4.1 0 4.8.8 3.3 4.1 3.3 4.8 0 3.3-.8 3.3-4.1 0-4.8-.8-3.4-4.1-3.4-4.8 0zm4.5.9c.9.2 1.5.7 1.7 1.2.1.4 0 .7-.3 1-.3.3-.8.5-1.4.7l-.6.1-.1.6c-.1.6-.4 1.1-.7 1.4-.3.3-.7.4-1 .3-.5-.2-1-.8-1.2-1.7l-.1-.6-.6-.1c-.9-.2-1.5-.7-1.7-1.2-.1-.4 0-.7.3-1 .3-.3.8-.5 1.4-.7l.6-.1.1-.6c.1-.6.4-1.1.7-1.4.3-.3.7-.4 1-.3.5.2 1 .8 1.2 1.7l.1.6.6.1z"/></g></g><g id="XMLID_1742_"><circle id="XMLID_1743_" class="st12" cx="265.5" cy="23.5" r="1.1"/></g></g><g id="XMLID_1733_"><g id="XMLID_1736_"><g id="XMLID_1737_"><path id="XMLID_1738_" class="st12" d="M263.1 38.8c-3.3.8-3.3 4.1 0 4.8.8 3.3 4.1 3.3 4.8 0 3.3-.8 3.3-4.1 0-4.8-.8-3.3-4.1-3.3-4.8 0zm4.5 1c.9.2 1.5.7 1.7 1.2.1.4 0 .7-.3 1-.3.3-.8.5-1.4.7l-.6.1-.1.6c-.1.6-.4 1.1-.7 1.4-.3.3-.7.4-1 .3-.5-.2-1-.8-1.2-1.7l-.1-.6-.6-.1c-.9-.2-1.5-.7-1.7-1.2-.1-.4 0-.7.3-1 .3-.3.8-.5 1.4-.7l.6-.1.1-.7c.1-.6.4-1.1.7-1.4.3-.3.7-.4 1-.3.5.2 1 .8 1.2 1.7l.1.6.6.2z"/></g></g><g id="XMLID_1734_"><circle id="XMLID_1735_" class="st12" cx="265.5" cy="41.2" r="1.1"/></g></g></g><g id="XMLID_1713_"><g id="XMLID_1724_"><g id="XMLID_1727_"><g id="XMLID_1728_"><path id="XMLID_1729_" class="st12" d="M254.2 34.7c.8 3.3 4.1 3.3 4.8 0 3.3-.8 3.3-4.1 0-4.8-.8-3.3-4.1-3.3-4.8 0-3.3.8-3.3 4.1 0 4.8zm.9-4.6c.2-.9.7-1.5 1.2-1.7.4-.1.7 0 1 .3.3.3.5.8.7 1.4l.1.6.6.1c.6.1 1.1.4 1.4.7.3.3.4.7.3 1-.2.5-.8 1-1.7 1.2l-.6.1-.1.6c-.2.9-.7 1.5-1.2 1.7-.4.1-.7 0-1-.3-.3-.3-.5-.8-.7-1.4l-.1-.6-.6-.1c-.6-.1-1.1-.4-1.4-.7-.3-.3-.4-.7-.3-1 .2-.5.8-1 1.7-1.2l.6-.1.1-.6z"/></g></g><g id="XMLID_1725_"><circle id="XMLID_1726_" class="st12" cx="256.6" cy="32.3" r="1.1"/></g></g><g id="XMLID_1714_"><g id="XMLID_1719_"><g id="XMLID_1720_"><path id="XMLID_1721_" class="st12" d="M271.9 34.7c.8 3.3 4.1 3.3 4.8 0 3.3-.8 3.3-4.1 0-4.8-.8-3.3-4.1-3.3-4.8 0-3.3.8-3.3 4.1 0 4.8zm1-4.6c.2-.9.7-1.5 1.2-1.7.4-.1.7 0 1 .3.3.3.5.8.7 1.4l.1.6.6.1c.6.1 1.1.4 1.4.7.3.3.4.7.3 1-.2.5-.8 1-1.7 1.2l-.6.1-.1.6c-.2.9-.7 1.5-1.2 1.7-.4.1-.7 0-1-.3-.3-.3-.5-.8-.7-1.4l-.1-.6-.6-.1c-.6-.1-1.1-.4-1.4-.7-.3-.3-.4-.7-.3-1 .2-.5.8-1 1.7-1.2l.6-.1.1-.6z"/></g></g><g id="XMLID_1717_"><circle id="XMLID_1718_" class="st12" cx="274.3" cy="32.3" r="1.1"/></g><g id="XMLID_1715_"><circle id="XMLID_1716_" class="st12" cx="274.3" cy="23.5" r="1.1"/></g></g></g></g><g id="XMLID_1710_"><circle id="XMLID_1711_" class="st12" cx="283.2" cy="32.3" r="1.1"/></g><g id="XMLID_1708_"><circle id="XMLID_1709_" class="st12" cx="274.2" cy="41.3" r="1.1"/></g><g id="XMLID_1706_"><circle id="XMLID_1707_" class="st12" cx="256.6" cy="41.3" r="1.1"/></g><g id="XMLID_1678_"><g id="XMLID_1689_"><g id="XMLID_1698_"><g id="XMLID_1701_"><g id="XMLID_1702_"><path id="XMLID_1703_" class="st12" d="M280.8 21.1c-3.3.8-3.3 4.1 0 4.8.8 3.3 4.1 3.3 4.8 0 3.3-.8 3.3-4.1 0-4.8-.7-3.4-4-3.4-4.8 0zm4.6.9c.9.2 1.5.7 1.7 1.2.1.4 0 .7-.3 1-.3.3-.8.5-1.4.7l-.6.1-.1.6c-.1.6-.4 1.1-.7 1.4-.3.3-.7.4-1 .3-.5-.2-1-.8-1.2-1.7l-.1-.6-.6-.1c-.9-.2-1.5-.7-1.7-1.2-.1-.4 0-.7.3-1 .3-.3.8-.5 1.4-.7l.6-.1.1-.6c.1-.6.4-1.1.7-1.4.3-.3.7-.4 1-.3.5.2 1 .8 1.2 1.7l.1.6.6.1z"/></g></g><g id="XMLID_1699_"><circle id="XMLID_1700_" class="st12" cx="283.2" cy="23.5" r="1.1"/></g></g><g id="XMLID_1690_"><g id="XMLID_1693_"><g id="XMLID_1694_"><path id="XMLID_1695_" class="st12" d="M280.8 38.8c-3.3.8-3.3 4.1 0 4.8.8 3.3 4.1 3.3 4.8 0 3.3-.8 3.3-4.1 0-4.8-.7-3.3-4-3.3-4.8 0zm4.6 1c.9.2 1.5.7 1.7 1.2.1.4 0 .7-.3 1-.3.3-.8.5-1.4.7l-.6.1-.1.6c-.1.6-.4 1.1-.7 1.4-.3.3-.7.4-1 .3-.5-.2-1-.8-1.2-1.7l-.1-.6-.6-.1c-.9-.2-1.5-.7-1.7-1.2-.1-.4 0-.7.3-1 .3-.3.8-.5 1.4-.7l.6-.1.1-.6c.1-.6.4-1.1.7-1.4.3-.3.7-.4 1-.3.5.2 1 .8 1.2 1.7l.1.6.6.1z"/></g></g><g id="XMLID_1691_"><circle id="XMLID_1692_" class="st12" cx="283.2" cy="41.2" r="1.1"/></g></g></g><g id="XMLID_1679_"><g id="XMLID_1684_"><g id="XMLID_1685_"><path id="XMLID_1686_" class="st12" d="M289.7 34.7c.8 3.3 4.1 3.3 4.8 0 3.3-.8 3.3-4.1 0-4.8-.8-3.3-4.1-3.3-4.8 0-3.3.8-3.3 4.1 0 4.8zm.9-4.6c.2-.9.7-1.5 1.2-1.7.4-.1.7 0 1 .3.3.3.5.8.7 1.4l.1.6.6.1c.6.1 1.1.4 1.4.7.3.3.4.7.3 1-.2.5-.8 1-1.7 1.2l-.6.1-.1.6c-.2.9-.7 1.5-1.2 1.7-.4.1-.7 0-1-.3-.3-.3-.5-.8-.7-1.4l-.1-.6-.6-.1c-.6-.1-1.1-.4-1.4-.7-.3-.3-.4-.7-.3-1 .2-.5.8-1 1.7-1.2l.6-.1.1-.6z"/></g></g><g id="XMLID_1682_"><circle id="XMLID_1683_" class="st12" cx="292.1" cy="32.3" r="1.1"/></g><g id="XMLID_1680_"><circle id="XMLID_1681_" class="st12" cx="292.1" cy="23.5" r="1.1"/></g></g></g><g id="XMLID_1676_"><circle id="XMLID_1677_" class="st12" cx="265.5" cy="50.1" r="1.1"/></g><g id="XMLID_1648_"><g id="XMLID_1666_"><g id="XMLID_1671_"><g id="XMLID_1672_"><path id="XMLID_1673_" class="st12" d="M263.1 56.5c-3.3.8-3.3 4.1 0 4.8.8 3.3 4.1 3.3 4.8 0 3.3-.8 3.3-4.1 0-4.8-.8-3.3-4.1-3.3-4.8 0zm4.5 1c.9.2 1.5.7 1.7 1.2.1.4 0 .7-.3 1-.3.3-.8.5-1.4.7l-.6.1-.1.6c-.1.6-.4 1.1-.7 1.4-.3.3-.7.4-1 .3-.5-.2-1-.8-1.2-1.7l-.1-.6-.6-.1c-.9-.2-1.5-.7-1.7-1.2-.1-.4 0-.7.3-1 .3-.3.8-.5 1.4-.7l.6-.1.1-.6c.1-.6.4-1.1.7-1.4.3-.3.7-.4 1-.3.5.2 1 .8 1.2 1.7l.1.6.6.1z"/></g></g><g id="XMLID_1669_"><circle id="XMLID_1670_" class="st12" cx="265.5" cy="58.9" r="1.1"/></g><g id="XMLID_1667_"><circle id="XMLID_1668_" class="st12" cx="256.6" cy="58.9" r="1.1"/></g></g><g id="XMLID_1649_"><g id="XMLID_1658_"><g id="XMLID_1661_"><g id="XMLID_1662_"><path id="XMLID_1663_" class="st12" d="M254.2 52.5c.8 3.3 4.1 3.3 4.8 0 3.3-.8 3.3-4.1 0-4.8-.8-3.3-4.1-3.3-4.8 0-3.3.7-3.3 4 0 4.8zm.9-4.6c.2-.9.7-1.5 1.2-1.7.4-.1.7 0 1 .3.3.3.5.8.7 1.4l.1.6.6.1c.6.1 1.1.4 1.4.7.3.3.4.7.3 1-.2.5-.8 1-1.7 1.2l-.6.1-.1.6c-.2.9-.7 1.5-1.2 1.7-.4.1-.7 0-1-.3-.3-.3-.5-.8-.7-1.4l-.1-.6-.6-.1c-.6-.1-1.1-.4-1.4-.7-.3-.3-.4-.7-.3-1 .2-.5.8-1 1.7-1.2l.6-.1.1-.6z"/></g></g><g id="XMLID_1659_"><circle id="XMLID_1660_" class="st12" cx="256.6" cy="50.1" r="1.1"/></g></g><g id="XMLID_1650_"><g id="XMLID_1653_"><g id="XMLID_1654_"><path id="XMLID_1655_" class="st12" d="M271.9 52.5c.8 3.3 4.1 3.3 4.8 0 3.3-.8 3.3-4.1 0-4.8-.8-3.3-4.1-3.3-4.8 0-3.3.7-3.3 4 0 4.8zm1-4.6c.2-.9.7-1.5 1.2-1.7.4-.1.7 0 1 .3.3.3.5.8.7 1.4l.1.6.6.1c.6.1 1.1.4 1.4.7.3.3.4.7.3 1-.2.5-.8 1-1.7 1.2l-.6.1-.1.6c-.2.9-.7 1.5-1.2 1.7-.4.1-.7 0-1-.3-.3-.3-.5-.8-.7-1.4l-.1-.6-.6-.1c-.6-.1-1.1-.4-1.4-.7-.3-.3-.4-.7-.3-1 .2-.5.8-1 1.7-1.2l.6-.1.1-.6z"/></g></g><g id="XMLID_1651_"><circle id="XMLID_1652_" class="st12" cx="274.3" cy="50.1" r="1.1"/></g></g></g></g><g id="XMLID_1646_"><circle id="XMLID_1647_" class="st12" cx="283.2" cy="50.1" r="1.1"/></g><g id="XMLID_1629_"><g id="XMLID_1638_"><g id="XMLID_1641_"><g id="XMLID_1642_"><path id="XMLID_1643_" class="st12" d="M280.8 56.5c-3.3.8-3.3 4.1 0 4.8.8 3.3 4.1 3.3 4.8 0 3.3-.8 3.3-4.1 0-4.8-.7-3.3-4-3.3-4.8 0zm4.6 1c.9.2 1.5.7 1.7 1.2.1.4 0 .7-.3 1-.3.3-.8.5-1.4.7l-.6.1-.1.6c-.1.6-.4 1.1-.7 1.4-.3.3-.7.4-1 .3-.5-.2-1-.8-1.2-1.7l-.1-.6-.6-.1c-.9-.2-1.5-.7-1.7-1.2-.1-.4 0-.7.3-1 .3-.3.8-.5 1.4-.7l.6-.1.1-.6c.1-.6.4-1.1.7-1.4.3-.3.7-.4 1-.3.5.2 1 .8 1.2 1.7l.1.6.6.1z"/></g></g><g id="XMLID_1639_"><circle id="XMLID_1640_" class="st12" cx="283.2" cy="58.9" r="1.1"/></g></g><g id="XMLID_1630_"><g id="XMLID_1633_"><g id="XMLID_1634_"><path id="XMLID_1635_" class="st12" d="M289.7 52.5c.8 3.3 4.1 3.3 4.8 0 3.3-.8 3.3-4.1 0-4.8-.8-3.3-4.1-3.3-4.8 0-3.3.7-3.3 4 0 4.8zm.9-4.6c.2-.9.7-1.5 1.2-1.7.4-.1.7 0 1 .3.3.3.5.8.7 1.4l.1.6.6.1c.6.1 1.1.4 1.4.7.3.3.4.7.3 1-.2.5-.8 1-1.7 1.2l-.6.1-.1.6c-.2.9-.7 1.5-1.2 1.7-.4.1-.7 0-1-.3-.3-.3-.5-.8-.7-1.4l-.1-.6-.6-.1c-.6-.1-1.1-.4-1.4-.7-.3-.3-.4-.7-.3-1 .2-.5.8-1 1.7-1.2l.6-.1.1-.6z"/></g></g><g id="XMLID_1631_"><circle id="XMLID_1632_" class="st12" cx="292.1" cy="50.1" r="1.1"/></g></g></g></g><g id="XMLID_1517_"><g id="XMLID_1626_"><circle id="XMLID_1627_" class="st12" cx="301" cy="32.3" r="1.1"/></g><g id="XMLID_1624_"><circle id="XMLID_1625_" class="st12" cx="292.1" cy="41.2" r="1.1"/></g><g id="XMLID_1596_"><g id="XMLID_1607_"><g id="XMLID_1616_"><g id="XMLID_1619_"><g id="XMLID_1620_"><path id="XMLID_1621_" class="st12" d="M298.6 21.1c-3.3.8-3.3 4.1 0 4.8.8 3.3 4.1 3.3 4.8 0 3.3-.8 3.3-4.1 0-4.8-.8-3.4-4.1-3.4-4.8 0zm4.6.9c.9.2 1.5.7 1.7 1.2.1.4 0 .7-.3 1-.3.3-.8.5-1.4.7l-.6.1-.1.6c-.1.6-.4 1.1-.7 1.4-.3.3-.7.4-1 .3-.5-.2-1-.8-1.2-1.7l-.1-.6-.6-.1c-.9-.2-1.5-.7-1.7-1.2-.1-.4 0-.7.3-1 .3-.3.8-.5 1.4-.7l.6-.1.1-.6c.1-.6.4-1.1.7-1.4.3-.3.7-.4 1-.3.5.2 1 .8 1.2 1.7l.1.6.6.1z"/></g></g><g id="XMLID_1617_"><circle id="XMLID_1618_" class="st12" cx="301" cy="23.5" r="1.1"/></g></g><g id="XMLID_1608_"><g id="XMLID_1611_"><g id="XMLID_1612_"><path id="XMLID_1613_" class="st12" d="M298.6 38.8c-3.3.8-3.3 4.1 0 4.8.8 3.3 4.1 3.3 4.8 0 3.3-.8 3.3-4.1 0-4.8-.8-3.3-4.1-3.3-4.8 0zm4.6 1c.9.2 1.5.7 1.7 1.2.1.4 0 .7-.3 1-.3.3-.8.5-1.4.7l-.6.1-.1.6c-.1.6-.4 1.1-.7 1.4-.3.3-.7.4-1 .3-.5-.2-1-.8-1.2-1.7l-.1-.6-.6-.1c-.9-.2-1.5-.7-1.7-1.2-.1-.4 0-.7.3-1 .3-.3.8-.5 1.4-.7l.6-.1.1-.6c.1-.6.4-1.1.7-1.4.3-.3.7-.4 1-.3.5.2 1 .8 1.2 1.7l.1.6.6.1z"/></g></g><g id="XMLID_1609_"><circle id="XMLID_1610_" class="st12" cx="301" cy="41.2" r="1.1"/></g></g></g><g id="XMLID_1597_"><g id="XMLID_1602_"><g id="XMLID_1603_"><path id="XMLID_1604_" class="st12" d="M307.4 34.7c.8 3.3 4.1 3.3 4.8 0 3.3-.8 3.3-4.1 0-4.8-.8-3.3-4.1-3.3-4.8 0-3.3.8-3.3 4.1 0 4.8zm1-4.6c.2-.9.7-1.5 1.2-1.7.4-.1.7 0 1 .3.3.3.5.8.7 1.4l.1.6.6.1c.6.1 1.1.4 1.4.7.3.3.4.7.3 1-.2.5-.8 1-1.7 1.2l-.6.1-.1.6c-.2.9-.7 1.5-1.2 1.7-.4.1-.7 0-1-.3-.3-.3-.5-.8-.7-1.4l-.1-.6-.6-.1c-.6-.1-1.1-.4-1.4-.7-.3-.3-.4-.7-.3-1 .2-.5.8-1 1.7-1.2l.6-.1.1-.6z"/></g></g><g id="XMLID_1600_"><circle id="XMLID_1601_" class="st12" cx="309.9" cy="32.3" r="1.1"/></g><g id="XMLID_1598_"><circle id="XMLID_1599_" class="st12" cx="309.9" cy="23.5" r="1.1"/></g></g></g><g id="XMLID_1594_"><circle id="XMLID_1595_" class="st12" cx="318.7" cy="32.3" r="1.1"/></g><g id="XMLID_1592_"><circle id="XMLID_1593_" class="st12" cx="327.6" cy="23.5" r="1.1"/></g><g id="XMLID_1590_"><circle id="XMLID_1591_" class="st12" cx="309.7" cy="41.3" r="1.1"/></g><g id="XMLID_1562_"><g id="XMLID_1571_"><g id="XMLID_1582_"><g id="XMLID_1585_"><g id="XMLID_1586_"><path id="XMLID_1587_" class="st12" d="M316.3 21.1c-3.3.8-3.3 4.1 0 4.8.8 3.3 4.1 3.3 4.8 0 3.3-.8 3.3-4.1 0-4.8-.7-3.4-4-3.4-4.8 0zm4.6.9c.9.2 1.5.7 1.7 1.2.1.4 0 .7-.3 1-.3.3-.8.5-1.4.7l-.6.1-.1.6c-.1.6-.4 1.1-.7 1.4-.3.3-.7.4-1 .3-.5-.2-1-.8-1.2-1.7l-.1-.6-.6-.1c-.9-.2-1.5-.7-1.7-1.2-.1-.4 0-.7.3-1 .3-.3.8-.5 1.4-.7l.6-.1.1-.6c.1-.6.4-1.1.7-1.4.3-.3.7-.4 1-.3.5.2 1 .8 1.2 1.7l.1.6.6.1z"/></g></g><g id="XMLID_1583_"><circle id="XMLID_1584_" class="st12" cx="318.7" cy="23.5" r="1.1"/></g></g><g id="XMLID_1572_"><g id="XMLID_1577_"><g id="XMLID_1578_"><path id="XMLID_1579_" class="st12" d="M316.3 38.8c-3.3.8-3.3 4.1 0 4.8.8 3.3 4.1 3.3 4.8 0 3.3-.8 3.3-4.1 0-4.8-.7-3.3-4-3.3-4.8 0zm4.6 1c.9.2 1.5.7 1.7 1.2.1.4 0 .7-.3 1-.3.3-.8.5-1.4.7l-.6.1-.1.6c-.1.6-.4 1.1-.7 1.4-.3.3-.7.4-1 .3-.5-.2-1-.8-1.2-1.7l-.1-.6-.6-.1c-.9-.2-1.5-.7-1.7-1.2-.1-.4 0-.7.3-1 .3-.3.8-.5 1.4-.7l.6-.1.1-.6c.1-.6.4-1.1.7-1.4.3-.3.7-.4 1-.3.5.2 1 .8 1.2 1.7l.1.6.6.1z"/></g></g><g id="XMLID_1575_"><circle id="XMLID_1576_" class="st12" cx="318.7" cy="41.2" r="1.1"/></g><g id="XMLID_1573_"><circle id="XMLID_1574_" class="st12" cx="327.6" cy="41.2" r="1.1"/></g></g></g><g id="XMLID_1563_"><g id="XMLID_1566_"><g id="XMLID_1567_"><path id="XMLID_1568_" class="st12" d="M325.2 34.7c.8 3.3 4.1 3.3 4.8 0 3.3-.8 3.3-4.1 0-4.8-.8-3.3-4.1-3.3-4.8 0-3.3.8-3.3 4.1 0 4.8zm1-4.6c.2-.9.7-1.5 1.2-1.7.4-.1.7 0 1 .3.3.3.5.8.7 1.4l.1.6.6.1c.6.1 1.1.4 1.4.7.3.3.4.7.3 1-.2.5-.8 1-1.7 1.2l-.6.1-.1.6c-.2.9-.7 1.5-1.2 1.7-.4.1-.7 0-1-.3-.3-.3-.5-.8-.7-1.4l-.1-.6-.6-.1c-.6-.1-1.1-.4-1.4-.7-.3-.3-.4-.7-.3-1 .2-.5.8-1 1.7-1.2l.6-.1.1-.6z"/></g></g><g id="XMLID_1564_"><circle id="XMLID_1565_" class="st12" cx="327.6" cy="32.3" r="1.1"/></g></g></g><g id="XMLID_1560_"><circle id="XMLID_1561_" class="st12" cx="301" cy="50.1" r="1.1"/></g><g id="XMLID_1558_"><circle id="XMLID_1559_" class="st12" cx="292" cy="59.1" r="1.1"/></g><g id="XMLID_1556_"><circle id="XMLID_1557_" class="st12" cx="309.8" cy="59.1" r="1.1"/></g><g id="XMLID_1539_"><g id="XMLID_1548_"><g id="XMLID_1551_"><g id="XMLID_1552_"><path id="XMLID_1553_" class="st12" d="M298.6 56.5c-3.3.8-3.3 4.1 0 4.8.8 3.3 4.1 3.3 4.8 0 3.3-.8 3.3-4.1 0-4.8-.8-3.3-4.1-3.3-4.8 0zm4.6 1c.9.2 1.5.7 1.7 1.2.1.4 0 .7-.3 1-.3.3-.8.5-1.4.7l-.6.1-.1.6c-.1.6-.4 1.1-.7 1.4-.3.3-.7.4-1 .3-.5-.2-1-.8-1.2-1.7l-.1-.6-.6-.1c-.9-.2-1.5-.7-1.7-1.2-.1-.4 0-.7.3-1 .3-.3.8-.5 1.4-.7l.6-.1.1-.6c.1-.6.4-1.1.7-1.4.3-.3.7-.4 1-.3.5.2 1 .8 1.2 1.7l.1.6.6.1z"/></g></g><g id="XMLID_1549_"><circle id="XMLID_1550_" class="st12" cx="301" cy="58.9" r="1.1"/></g></g><g id="XMLID_1540_"><g id="XMLID_1543_"><g id="XMLID_1544_"><path id="XMLID_1545_" class="st12" d="M307.4 52.5c.8 3.3 4.1 3.3 4.8 0 3.3-.8 3.3-4.1 0-4.8-.8-3.3-4.1-3.3-4.8 0-3.3.7-3.3 4 0 4.8zm1-4.6c.2-.9.7-1.5 1.2-1.7.4-.1.7 0 1 .3.3.3.5.8.7 1.4l.1.6.6.1c.6.1 1.1.4 1.4.7.3.3.4.7.3 1-.2.5-.8 1-1.7 1.2l-.6.1-.1.6c-.2.9-.7 1.5-1.2 1.7-.4.1-.7 0-1-.3-.3-.3-.5-.8-.7-1.4l-.1-.6-.6-.1c-.6-.1-1.1-.4-1.4-.7-.3-.3-.4-.7-.3-1 .2-.5.8-1 1.7-1.2l.6-.1.1-.6z"/></g></g><g id="XMLID_1541_"><circle id="XMLID_1542_" class="st12" cx="309.9" cy="50.1" r="1.1"/></g></g></g><g id="XMLID_1537_"><circle id="XMLID_1538_" class="st12" cx="318.7" cy="50.1" r="1.1"/></g><g id="XMLID_1518_"><g id="XMLID_1527_"><g id="XMLID_1532_"><g id="XMLID_1533_"><path id="XMLID_1534_" class="st12" d="M316.3 56.5c-3.3.8-3.3 4.1 0 4.8.8 3.3 4.1 3.3 4.8 0 3.3-.8 3.3-4.1 0-4.8-.7-3.3-4-3.3-4.8 0zm4.6 1c.9.2 1.5.7 1.7 1.2.1.4 0 .7-.3 1-.3.3-.8.5-1.4.7l-.6.1-.1.6c-.1.6-.4 1.1-.7 1.4-.3.3-.7.4-1 .3-.5-.2-1-.8-1.2-1.7l-.1-.6-.6-.1c-.9-.2-1.5-.7-1.7-1.2-.1-.4 0-.7.3-1 .3-.3.8-.5 1.4-.7l.6-.1.1-.6c.1-.6.4-1.1.7-1.4.3-.3.7-.4 1-.3.5.2 1 .8 1.2 1.7l.1.6.6.1z"/></g></g><g id="XMLID_1530_"><circle id="XMLID_1531_" class="st12" cx="318.7" cy="58.9" r="1.1"/></g><g id="XMLID_1528_"><circle id="XMLID_1529_" class="st12" cx="327.6" cy="58.9" r="1.1"/></g></g><g id="XMLID_1519_"><g id="XMLID_1522_"><g id="XMLID_1523_"><path id="XMLID_1524_" class="st12" d="M325.2 52.5c.8 3.3 4.1 3.3 4.8 0 3.3-.8 3.3-4.1 0-4.8-.8-3.3-4.1-3.3-4.8 0-3.3.7-3.3 4 0 4.8zm1-4.6c.2-.9.7-1.5 1.2-1.7.4-.1.7 0 1 .3.3.3.5.8.7 1.4l.1.6.6.1c.6.1 1.1.4 1.4.7.3.3.4.7.3 1-.2.5-.8 1-1.7 1.2l-.6.1-.1.6c-.2.9-.7 1.5-1.2 1.7-.4.1-.7 0-1-.3-.3-.3-.5-.8-.7-1.4l-.1-.6-.6-.1c-.6-.1-1.1-.4-1.4-.7-.3-.3-.4-.7-.3-1 .2-.5.8-1 1.7-1.2l.6-.1.1-.6z"/></g></g><g id="XMLID_1520_"><circle id="XMLID_1521_" class="st12" cx="327.6" cy="50.1" r="1.1"/></g></g></g></g><g id="XMLID_1463_"><g id="XMLID_1515_"><circle id="XMLID_1516_" class="st12" cx="265.5" cy="67.8" r="1.1"/></g><g id="XMLID_1513_"><circle id="XMLID_1514_" class="st12" cx="274.3" cy="58.9" r="1.1"/></g><g id="XMLID_1487_"><g id="XMLID_1505_"><g id="XMLID_1508_"><g id="XMLID_1509_"><path id="XMLID_1510_" class="st12" d="M263.1 74.2c-3.3.8-3.3 4.1 0 4.8.8 3.3 4.1 3.3 4.8 0 3.3-.8 3.3-4.1 0-4.8-.8-3.3-4.1-3.3-4.8 0zm4.5 1c.9.2 1.5.7 1.7 1.2.1.3 0 .7-.3 1-.3.3-.8.5-1.4.7l-.6.1-.1.6c-.1.6-.4 1.1-.7 1.4-.3.3-.7.4-1 .3-.5-.2-1-.8-1.2-1.7l-.1-.6-.6-.1c-.9-.2-1.5-.7-1.7-1.2-.1-.4 0-.7.3-1 .3-.3.8-.5 1.4-.7l.6-.1.1-.6c.1-.6.4-1.1.7-1.4.3-.3.7-.4 1-.3.5.2 1 .8 1.2 1.7l.1.6.6.1z"/></g></g><g id="XMLID_1506_"><circle id="XMLID_1507_" class="st12" cx="265.5" cy="76.7" r="1.1"/></g></g><g id="XMLID_1488_"><g id="XMLID_1497_"><g id="XMLID_1500_"><g id="XMLID_1501_"><path id="XMLID_1502_" class="st12" d="M254.2 70.2c.8 3.3 4.1 3.3 4.8 0 3.3-.8 3.3-4.1 0-4.8-.8-3.3-4.1-3.3-4.8 0-3.3.7-3.3 4 0 4.8zm.9-4.6c.2-.9.7-1.5 1.2-1.7.4-.1.7 0 1 .3.3.3.5.8.7 1.4l.1.6.6.1c.6.1 1.1.4 1.4.7.3.3.4.7.3 1-.2.5-.8 1-1.7 1.2l-.6.1-.1.7c-.2.9-.7 1.5-1.2 1.7-.4.1-.7 0-1-.3-.3-.3-.5-.8-.7-1.4l-.1-.6-.6-.1c-.6-.1-1.1-.4-1.4-.7-.3-.3-.4-.7-.3-1 .2-.5.8-1 1.7-1.2l.6-.1.1-.7z"/></g></g><g id="XMLID_1498_"><circle id="XMLID_1499_" class="st12" cx="256.6" cy="67.8" r="1.1"/></g></g><g id="XMLID_1489_"><g id="XMLID_1492_"><g id="XMLID_1493_"><path id="XMLID_1494_" class="st12" d="M271.9 70.2c.8 3.3 4.1 3.3 4.8 0 3.3-.8 3.3-4.1 0-4.8-.8-3.3-4.1-3.3-4.8 0-3.3.7-3.3 4 0 4.8zm1-4.6c.2-.9.7-1.5 1.2-1.7.4-.1.7 0 1 .3.3.3.5.8.7 1.4l.1.6.6.1c.6.1 1.1.4 1.4.7.3.3.4.7.3 1-.2.5-.8 1-1.7 1.2l-.6.1-.1.6c-.2.9-.7 1.5-1.2 1.7-.4.1-.7 0-1-.3-.3-.3-.5-.8-.7-1.4l-.1-.6-.6-.1c-.6-.1-1.1-.4-1.4-.7-.3-.3-.4-.7-.3-1 .2-.5.8-1 1.7-1.2l.6-.1.1-.6z"/></g></g><g id="XMLID_1490_"><circle id="XMLID_1491_" class="st12" cx="274.3" cy="67.8" r="1.1"/></g></g></g></g><g id="XMLID_1485_"><circle id="XMLID_1486_" class="st12" cx="283.2" cy="67.8" r="1.1"/></g><g id="XMLID_1483_"><circle id="XMLID_1484_" class="st12" cx="274.2" cy="76.8" r="1.1"/></g><g id="XMLID_1481_"><circle id="XMLID_1482_" class="st12" cx="256.6" cy="76.8" r="1.1"/></g><g id="XMLID_1464_"><g id="XMLID_1473_"><g id="XMLID_1476_"><g id="XMLID_1477_"><path id="XMLID_1478_" class="st12" d="M280.8 74.2c-3.3.8-3.3 4.1 0 4.8.8 3.3 4.1 3.3 4.8 0 3.3-.8 3.3-4.1 0-4.8-.7-3.3-4-3.3-4.8 0zm4.6 1c.9.2 1.5.7 1.7 1.2.1.3 0 .7-.3 1-.3.3-.8.5-1.4.7l-.6.1-.1.6c-.1.6-.4 1.1-.7 1.4-.3.3-.7.4-1 .3-.5-.2-1-.8-1.2-1.7l-.1-.6-.6-.1c-.9-.2-1.5-.7-1.7-1.2-.1-.4 0-.7.3-1 .3-.3.8-.5 1.4-.7l.6-.1.1-.6c.1-.6.4-1.1.7-1.4.3-.3.7-.4 1-.3.5.2 1 .8 1.2 1.7l.1.6.6.1z"/></g></g><g id="XMLID_1474_"><circle id="XMLID_1475_" class="st12" cx="283.2" cy="76.7" r="1.1"/></g></g><g id="XMLID_1465_"><g id="XMLID_1468_"><g id="XMLID_1469_"><path id="XMLID_1470_" class="st12" d="M289.7 70.2c.8 3.3 4.1 3.3 4.8 0 3.3-.8 3.3-4.1 0-4.8-.8-3.3-4.1-3.3-4.8 0-3.3.7-3.3 4 0 4.8zm.9-4.6c.2-.9.7-1.5 1.2-1.7.4-.1.7 0 1 .3.3.3.5.8.7 1.4l.1.6.6.1c.6.1 1.1.4 1.4.7.3.3.4.7.3 1-.2.5-.8 1-1.7 1.2l-.6.1-.1.6c-.2.9-.7 1.5-1.2 1.7-.4.1-.7 0-1-.3-.3-.3-.5-.8-.7-1.4l-.1-.6-.6-.1c-.6-.1-1.1-.4-1.4-.7-.3-.3-.4-.7-.3-1 .2-.5.8-1 1.7-1.2l.6-.1.1-.6z"/></g></g><g id="XMLID_1466_"><circle id="XMLID_1467_" class="st12" cx="292.1" cy="67.8" r="1.1"/></g></g></g></g><g id="XMLID_1369_"><g id="XMLID_1414_"><g id="XMLID_1461_"><path id="XMLID_1462_" class="st12" d="M298.8 61.1c.2.2-.2 1-1 1.8l-1.7 1.7c-.8.8-1.6 1.2-1.8 1-.2-.2.2-1 1-1.8l1.7-1.7c.8-.7 1.6-1.2 1.8-1z"/></g><g id="XMLID_1459_"><path id="XMLID_1460_" class="st12" d="M307.6 65.6c-.2.2-1-.2-1.8-1l-1.7-1.7c-.8-.8-1.2-1.6-1-1.8.2-.2 1 .2 1.8 1l1.7 1.7c.8.8 1.3 1.6 1 1.8z"/></g><g id="XMLID_1457_"><path id="XMLID_1458_" class="st12" d="M298.8 56.8c-.2.2-1-.2-1.8-1l-1.7-1.7c-.8-.8-1.2-1.6-1-1.8.2-.2 1 .2 1.8 1l1.7 1.7c.8.8 1.3 1.6 1 1.8z"/></g><g id="XMLID_1455_"><path id="XMLID_1456_" class="st12" d="M290 47.9c-.2.2-1-.2-1.8-1l-1.7-1.7c-.8-.8-1.2-1.6-1-1.8.2-.2 1 .2 1.8 1l1.7 1.7c.7.8 1.2 1.6 1 1.8z"/></g><g id="XMLID_1453_"><path id="XMLID_1454_" class="st12" d="M307.6 30.3c-.2.2-1-.2-1.8-1l-1.7-1.7c-.8-.8-1.2-1.6-1-1.8.2-.2 1 .2 1.8 1l1.7 1.7c.8.7 1.3 1.5 1 1.8z"/></g><g id="XMLID_1451_"><path id="XMLID_1452_" class="st12" d="M316.6 39.2c-.2.2-1-.2-1.8-1l-1.7-1.7c-.8-.8-1.2-1.6-1-1.8.2-.2 1 .2 1.8 1l1.7 1.7c.7.8 1.2 1.6 1 1.8z"/></g><g id="XMLID_1449_"><path id="XMLID_1450_" class="st12" d="M325.4 48c-.2.2-1-.2-1.8-1l-1.7-1.7c-.8-.8-1.2-1.6-1-1.8.2-.2 1 .2 1.8 1l1.7 1.7c.8.8 1.2 1.6 1 1.8z"/></g><g id="XMLID_1447_"><path id="XMLID_1448_" class="st12" d="M281.1 39.1c-.2.2-1-.2-1.8-1l-1.7-1.7c-.8-.8-1.2-1.6-1-1.8.2-.2 1 .2 1.8 1l1.7 1.7c.8.8 1.2 1.6 1 1.8z"/></g><g id="XMLID_1445_"><path id="XMLID_1446_" class="st12" d="M263.3 57c-.2.2-1-.2-1.8-1l-1.7-1.7c-.8-.8-1.2-1.6-1-1.8.2-.2 1 .2 1.8 1l1.7 1.7c.7.8 1.2 1.6 1 1.8z"/></g><g id="XMLID_1443_"><path id="XMLID_1444_" class="st12" d="M271.9 65.5c-.2.2-1-.2-1.8-1l-1.7-1.7c-.8-.8-1.2-1.6-1-1.8.2-.2 1 .2 1.8 1l1.7 1.7c.7.8 1.2 1.6 1 1.8z"/></g><g id="XMLID_1441_"><path id="XMLID_1442_" class="st12" d="M280.9 74.6c-.2.2-1-.2-1.8-1l-1.7-1.7c-.8-.8-1.2-1.6-1-1.8.2-.2 1 .2 1.8 1l1.7 1.7c.8.8 1.2 1.6 1 1.8z"/></g><g id="XMLID_1439_"><path id="XMLID_1440_" class="st12" d="M272.2 30.2c-.2.2-1-.2-1.8-1l-1.7-1.7c-.8-.8-1.2-1.6-1-1.8.2-.2 1 .2 1.8 1l1.7 1.7c.7.8 1.2 1.6 1 1.8z"/></g><g id="XMLID_1437_"><path id="XMLID_1438_" class="st12" d="M316.5 74.5c-.2.2-1-.2-1.8-1l-1.7-1.7c-.8-.8-1.2-1.6-1-1.8.2-.2 1 .2 1.8 1l1.7 1.7c.7.8 1.2 1.6 1 1.8z"/></g><g id="XMLID_1435_"><path id="XMLID_1436_" class="st12" d="M289.8 70.1c.2.2-.2 1-1 1.8l-1.7 1.7c-.8.8-1.6 1.2-1.8 1-.2-.2.2-1 1-1.8l1.7-1.7c.8-.7 1.6-1.2 1.8-1z"/></g><g id="XMLID_1433_"><path id="XMLID_1434_" class="st12" d="M325.4 70.1c.2.2-.2 1-1 1.8l-1.7 1.7c-.8.8-1.6 1.2-1.8 1-.2-.2.2-1 1-1.8l1.7-1.7c.8-.8 1.5-1.2 1.8-1z"/></g><g id="XMLID_1431_"><path id="XMLID_1432_" class="st12" d="M272 52.3c.2.2-.2 1-1 1.8l-1.7 1.7c-.8.8-1.6 1.2-1.8 1-.2-.2.2-1 1-1.8l1.7-1.7c.8-.8 1.6-1.3 1.8-1z"/></g><g id="XMLID_1429_"><path id="XMLID_1430_" class="st12" d="M263.1 61.1c.2.2-.2 1-1 1.8l-1.7 1.7c-.8.8-1.6 1.2-1.8 1-.2-.2.2-1 1-1.8l1.7-1.7c.8-.7 1.6-1.2 1.8-1z"/></g><g id="XMLID_1427_"><path id="XMLID_1428_" class="st12" d="M280.8 43.4c.2.2-.2 1-1 1.8l-1.7 1.7c-.8.8-1.6 1.2-1.8 1-.2-.2.2-1 1-1.8l1.7-1.7c.8-.7 1.6-1.2 1.8-1z"/></g><g id="XMLID_1425_"><path id="XMLID_1426_" class="st12" d="M263.2 25.9c.2.2-.2 1-1 1.8l-1.7 1.7c-.8.8-1.6 1.2-1.8 1-.2-.2.2-1 1-1.8l1.7-1.7c.8-.8 1.6-1.3 1.8-1z"/></g><g id="XMLID_1423_"><path id="XMLID_1424_" class="st12" d="M289.8 34.5c.2.2-.2 1-1 1.8L287 38c-.8.8-1.6 1.2-1.8 1-.2-.2.2-1 1-1.8l1.7-1.7c.9-.8 1.6-1.2 1.9-1z"/></g><g id="XMLID_1421_"><path id="XMLID_1422_" class="st12" d="M298.6 25.6c.2.2-.2 1-1 1.8l-1.7 1.7c-.8.8-1.6 1.2-1.8 1-.2-.2.2-1 1-1.8l1.7-1.7c.8-.7 1.6-1.2 1.8-1z"/></g><g id="XMLID_1419_"><path id="XMLID_1420_" class="st12" d="M307.6 52.3c.2.2-.2 1-1 1.8l-1.7 1.7c-.8.8-1.6 1.2-1.8 1-.2-.2.2-1 1-1.8l1.7-1.7c.8-.7 1.6-1.2 1.8-1z"/></g><g id="XMLID_1417_"><path id="XMLID_1418_" class="st12" d="M316.5 43.5c.2.2-.2 1-1 1.8l-1.7 1.7c-.8.8-1.6 1.2-1.8 1-.2-.2.2-1 1-1.8l1.7-1.7c.8-.8 1.6-1.3 1.8-1z"/></g><g id="XMLID_1415_"><path id="XMLID_1416_" class="st12" d="M325.4 34.6c.2.2-.2 1-1 1.8l-1.7 1.7c-.8.8-1.6 1.2-1.8 1-.2-.2.2-1 1-1.8l1.7-1.7c.8-.8 1.6-1.2 1.8-1z"/></g></g><g id="XMLID_1412_"><circle id="XMLID_1413_" class="st12" cx="301" cy="67.8" r="1.1"/></g><g id="XMLID_1410_"><circle id="XMLID_1411_" class="st12" cx="292.1" cy="76.7" r="1.1"/></g><g id="XMLID_1393_"><g id="XMLID_1402_"><g id="XMLID_1405_"><g id="XMLID_1406_"><path id="XMLID_1407_" class="st12" d="M298.6 74.2c-3.3.8-3.3 4.1 0 4.8.8 3.3 4.1 3.3 4.8 0 3.3-.8 3.3-4.1 0-4.8-.8-3.3-4.1-3.3-4.8 0zm4.6 1c.9.2 1.5.7 1.7 1.2.1.3 0 .7-.3 1-.3.3-.8.5-1.4.7l-.6.1-.1.6c-.1.6-.4 1.1-.7 1.4-.3.3-.7.4-1 .3-.5-.2-1-.8-1.2-1.7l-.1-.6-.6-.1c-.9-.2-1.5-.7-1.7-1.2-.1-.4 0-.7.3-1 .3-.3.8-.5 1.4-.7l.6-.1.1-.6c.1-.6.4-1.1.7-1.4.3-.3.7-.4 1-.3.5.2 1 .8 1.2 1.7l.1.6.6.1z"/></g></g><g id="XMLID_1403_"><circle id="XMLID_1404_" class="st12" cx="301" cy="76.7" r="1.1"/></g></g><g id="XMLID_1394_"><g id="XMLID_1397_"><g id="XMLID_1398_"><path id="XMLID_1399_" class="st12" d="M307.4 70.2c.8 3.3 4.1 3.3 4.8 0 3.3-.8 3.3-4.1 0-4.8-.8-3.3-4.1-3.3-4.8 0-3.3.7-3.3 4 0 4.8zm1-4.6c.2-.9.7-1.5 1.2-1.7.4-.1.7 0 1 .3.3.3.5.8.7 1.4l.1.6.6.1c.6.1 1.1.4 1.4.7.3.3.4.7.3 1-.2.5-.8 1-1.7 1.2l-.6.1-.1.6c-.2.9-.7 1.5-1.2 1.7-.4.1-.7 0-1-.3-.3-.3-.5-.8-.7-1.4l-.1-.6-.6-.1c-.6-.1-1.1-.4-1.4-.7-.3-.3-.4-.7-.3-1 .2-.5.8-1 1.7-1.2l.6-.1.1-.6z"/></g></g><g id="XMLID_1395_"><circle id="XMLID_1396_" class="st12" cx="309.9" cy="67.8" r="1.1"/></g></g></g><g id="XMLID_1391_"><circle id="XMLID_1392_" class="st12" cx="318.7" cy="67.8" r="1.1"/></g><g id="XMLID_1389_"><circle id="XMLID_1390_" class="st12" cx="309.7" cy="76.8" r="1.1"/></g><g id="XMLID_1370_"><g id="XMLID_1379_"><g id="XMLID_1384_"><g id="XMLID_1385_"><path id="XMLID_1386_" class="st12" d="M316.3 74.2c-3.3.8-3.3 4.1 0 4.8.8 3.3 4.1 3.3 4.8 0 3.3-.8 3.3-4.1 0-4.8-.7-3.3-4-3.3-4.8 0zm4.6 1c.9.2 1.5.7 1.7 1.2.1.3 0 .7-.3 1-.3.3-.8.5-1.4.7l-.6.1-.1.6c-.1.6-.4 1.1-.7 1.4-.3.3-.7.4-1 .3-.5-.2-1-.8-1.2-1.7l-.1-.6-.6-.1c-.9-.2-1.5-.7-1.7-1.2-.1-.4 0-.7.3-1 .3-.3.8-.5 1.4-.7l.6-.1.1-.6c.1-.6.4-1.1.7-1.4.3-.3.7-.4 1-.3.5.2 1 .8 1.2 1.7l.1.6.6.1z"/></g></g><g id="XMLID_1382_"><circle id="XMLID_1383_" class="st12" cx="318.7" cy="76.7" r="1.1"/></g><g id="XMLID_1380_"><circle id="XMLID_1381_" class="st12" cx="327.6" cy="76.7" r="1.1"/></g></g><g id="XMLID_1371_"><g id="XMLID_1374_"><g id="XMLID_1375_"><path id="XMLID_1376_" class="st12" d="M325.2 70.2c.8 3.3 4.1 3.3 4.8 0 3.3-.8 3.3-4.1 0-4.8-.8-3.3-4.1-3.3-4.8 0-3.3.7-3.3 4 0 4.8zm1-4.6c.2-.9.7-1.5 1.2-1.7.4-.1.7 0 1 .3.3.3.5.8.7 1.4l.1.6.6.1c.6.1 1.1.4 1.4.7.3.3.4.7.3 1-.2.5-.8 1-1.7 1.2l-.6.1-.1.6c-.2.9-.7 1.5-1.2 1.7-.4.1-.7 0-1-.3-.3-.3-.5-.8-.7-1.4l-.1-.6-.6-.1c-.6-.1-1.1-.4-1.4-.7-.3-.3-.4-.7-.3-1 .2-.5.8-1 1.7-1.2l.6-.1.1-.6z"/></g></g><g id="XMLID_1372_"><circle id="XMLID_1373_" class="st12" cx="327.6" cy="67.8" r="1.1"/></g></g></g></g></g></g></g></g><g id="XMLID_1176_"><path id="XMLID_1363_" d="M745.9 70c0 11-14.2 14.7-19.9 14.7s-7.6-1.9-7.6-3.5-1.7-3.3-1.7-3.3-3.7.3-3.7 3.6 1.5 4.2 4.5 7.2 2.9 5 2.1 6.3c-.8 1.3-2.5.8-2.5 2.7s2.7 2 3.7 1.5 1.9-1.4 1.9-1.4 1.1.9 1.6 1.5c.6.6 2.2 1.2 3.6-.2s0-2.5 0-2.5-2.5-.5-2.5-2.2c0-1.8 1.8-2.4 1.8-2.4l8.3-1h34.4l8.3 1s1.8.7 1.8 2.4c0 1.8-2.5 2.2-2.5 2.2s-1.4 1 0 2.5c1.4 1.4 3 .8 3.6.2.6-.6 1.6-1.5 1.6-1.5s.9.9 1.9 1.4c1 .5 3.7.4 3.7-1.5s-1.7-1.4-2.5-2.7c-.8-1.3-.9-3.3 2.1-6.3s4.5-3.9 4.5-7.2-3.7-3.6-3.7-3.6-1.7 1.7-1.7 3.3c0 1.6-1.9 3.5-7.6 3.5S759.3 81 759.3 70h-13.4z"/><g id="XMLID_1179_"><circle id="XMLID_1362_" class="st13" cx="752.4" cy="48.2" r="48.2"/><circle id="XMLID_1361_" class="st14" cx="752.4" cy="48.2" r="46.8"/><path id="XMLID_1360_" class="st15" d="M748.8 4.7s-.1-1.8-4.9-.7-3.8 2.9-3.8 2.9-2.8-1.2-5.8.3-3.7 3-3.7 3-2.1-.3-4.2 1.3-3 4.2-3 4.2-2.3-.7-5.1 2.9c-2.7 3.4-2 5-2 5s-2.2 1.1-3.3 3c-1.1 2-.9 4.4-.9 4.4s-2.4 2.6-3.2 5.3c-.8 2.6.1 4.4.1 4.4s-2.1 2.4-2.1 5.3 1.6 4.4 1.6 4.4-1.1 4.6-.3 7.4c.8 2.8 3.2 4.5 3.2 4.5s-.8 3.4.8 5.9c1.6 2.5 4.4 3.4 4.4 3.4s0 2.6 1.3 4.4c1.3 1.7 4.2 2.5 4.2 2.5s1.2 4.2 4.2 5.8c3 1.6 4.9 1.2 4.9 1.2s1.8 2.5 4.1 3.2 4.5 0 4.5 0 1.6 2.8 5.3 3.2c3.7.4 6.3-1.6 6.3-1.6s2.4 1.7 5.1 1.5c2.8-.3 5.3-2.5 5.3-2.5s4.5 1.7 8.7-.5 4.5-4 4.5-4 3.7 0 6.1-2c2.4-2 2.4-4.5 2.4-4.5s4-.5 6.2-3.7 1.3-5.8 1.3-5.8 3-1.5 4-4.2 0-4.7 0-4.7 2.4-2.8 2.8-6.6c.4-3.8-1.6-5.3-1.6-5.3s2-2.9 1.7-6.5c-.3-3.6-2.4-5.4-2.4-5.4s.7-3.7-.9-6.9-3.4-2.8-3.4-2.8-.7-4-2.5-6.3c-1.8-2.4-4.1-1.8-4.1-1.8s-1.2-3.6-2.6-4.9-4.4-2-4.4-2-1.8-2.4-4.2-3.6-5.4-.9-5.4-.9-1.1-1.8-3.7-2.5-4.7-.4-4.7-.4-3-1.8-5.5-1.6c-3.6.2-5.3 2.3-5.3 2.3z"/><g id="XMLID_1333_"><path id="XMLID_1359_" class="st16" d="M732.4 14.1L730 11s-1.3.1-3.4 1.6c-2 1.5-2.3 3.6-2.3 3.6l2 2.4 6.1-4.5z"/><path id="XMLID_1358_" class="st16" d="M733.7 13.2l-2-3s1.8-1.6 3.2-2.3c2.1-1 4.9-.3 4.9-.3l1 2.8-7.1 2.8z"/><path id="XMLID_1357_" class="st16" d="M742.1 10.1l-1.2-3.3s1.4-1.6 3.2-1.9 4.1.5 4.1.5l1.1 3.3-7.2 1.4z"/><path id="XMLID_1356_" class="st16" d="M750.5 8.7l-1-3.6s2.7-1.9 4.8-1.8 4.2 1.8 4.2 1.8l.3 4.5-8.3-.9z"/><path id="XMLID_1355_" class="st16" d="M760.2 9.5l-.2-4.4s1.2-.8 3.8-.1 3.3 2.6 3.3 2.6l-.3 3.6-6.6-1.7z"/><path id="XMLID_1354_" class="st16" d="M768 11.6l.4-3.4s1.8-1 4.8.4 3.3 3.6 3.3 3.6l-1.7 3.6-6.8-4.2z"/><path id="XMLID_1353_" class="st16" d="M775.8 16.3l1.8-3.6s1.8.1 3.6 1.8c1.7 1.7 2.1 3.6 2.1 3.6l-1.8 2.8-5.7-4.6z"/><path id="XMLID_1352_" class="st16" d="M782.5 21.9l1.7-2.9s2.1.4 3.8 2.8c1.7 2.4 1.8 4.4 1.8 4.4l-2.3 2.6-5-6.9z"/><path id="XMLID_1351_" class="st16" d="M788.3 30l2.9 7.4 3-1.4s.7-2.6-.6-5.5c-1.3-2.8-2.8-3.2-2.8-3.2l-2.5 2.7z"/><path id="XMLID_1350_" class="st16" d="M791.6 38.7l3-1.5s1.3 1.4 1.6 4.1c.3 2.8-.7 5.1-.7 5.1l-3 1.5-.9-9.2z"/><path id="XMLID_1349_" class="st16" d="M792.4 49.5l2.6-1s1.4 2.5 1.1 4.8S794 59 794 59h-3.2l1.6-9.5z"/><path id="XMLID_1348_" class="st16" d="M790.4 60.2h3.2s1.2 1.5.1 4.4c-1 2.5-3.1 3.3-3.1 3.3l-3.4-.6 3.2-7.1z"/><path id="XMLID_1347_" class="st16" d="M786.7 68.3l3.3.4s.7 2.7-1.2 5.3c-2 2.6-5.4 3.5-5.4 3.5l-2.9-1.5 6.2-7.7z"/><path id="XMLID_1346_" class="st16" d="M779.6 76.6l2.6 1.5s-.4 2.1-1.8 3.3c-1.5 1.2-5.2 2.3-5.2 2.3l-2.5-2.2 6.9-4.9z"/><path id="XMLID_1345_" class="st16" d="M771.8 82.4l2.1 1.8s-1.8 2.6-4.3 3.6c-2.4 1-6.6.7-6.6.7l-1.7-2.4 10.5-3.7z"/><path id="XMLID_1344_" class="st16" d="M760.3 86.3l1 2s-1.5 2-4.1 2.4-4.6-.9-4.6-.9l-1.3-2.7 9-.8z"/><path id="XMLID_1343_" class="st16" d="M750.1 87l.9 2.4s-3.1 1.8-5.6 1.1c-2.5-.6-4.8-2.3-4.8-2.3l.6-2.8 8.9 1.6z"/><path id="XMLID_1342_" class="st16" d="M740.2 85.1l-.6 2.3s-2 .6-4.4-.2c-2.5-.8-2.6-2.5-2.6-2.5l.8-2.7 6.8 3.1z"/><path id="XMLID_1341_" class="st16" d="M732.1 81.7l-1 2.8s-3.2-.3-5.2-2-2.6-3.6-2.6-3.6l2.1-2 6.7 4.8z"/><path id="XMLID_1340_" class="st16" d="M724.6 76l-2.3 1.6s-2.4-1.1-3.7-2.7c-1.3-1.6-1.2-3.4-1.2-3.4l2.3-1.5 4.9 6z"/><path id="XMLID_1339_" class="st16" d="M719.1 68.8l-2.4 1.7s-2.6-1.1-3.7-3.5c-1.1-2.5-.5-4.3-.5-4.3l2.7-1.1 3.9 7.2z"/><path id="XMLID_1338_" class="st16" d="M714.7 60.4l-2.7.9s-2.2-1.4-2.9-4.9c-.7-3.6.4-5.1.4-5.1l3.5-.2 1.7 9.3z"/><path id="XMLID_1337_" class="st16" d="M712.7 49.6l-2.9.4s-1.6-1.4-1.4-4.3c.2-2.9 1.2-3.5 1.2-3.5l3.5.1-.4 7.3z"/><path id="XMLID_1336_" class="st16" d="M713.2 41.2l-3-.5s-.7-2.2 0-4.6 2.3-3.6 2.3-3.6l2.5 1.2-1.8 7.5z"/><path id="XMLID_1335_" class="st16" d="M715.8 32.5l-2.7-1.3s-.4-2.2.9-4.1c1.3-2 2.5-2.4 2.5-2.4l3.1 1.4-3.8 6.4z"/><path id="XMLID_1334_" class="st16" d="M720.5 24.9l-3.3-1.4s0-2.3 2-4.5c1.9-2.2 3.8-2.4 3.8-2.4l2.5 2.8-5 5.5z"/></g><ellipse id="XMLID_1332_" class="st15" cx="752.4" cy="48.2" rx="40.3" ry="40.1"/><circle id="XMLID_1331_" class="st6" cx="752.4" cy="48.2" r="38.6"/><circle id="XMLID_1330_" class="st17" cx="752.4" cy="48.2" r="38.1"/><circle id="XMLID_1329_" class="st18" cx="752.4" cy="48.2" r="36.4"/><path id="XMLID_1314_" class="st6" d="M788.1 54.6c.2-1.1-.1-1.9-.4-2.4-.2-.2-.3-.4-.5-.6.2-.7.6-2.2-.3-3-.6-.6-1.2-.7-1.6-.7v-.4c0-.7-.3-1.3-.8-1.8.7-.9 1-1.7 1-2.5 0-.7-.5-1.5-1.4-2.5-.6-.7-1.3-1.2-1.3-1.2l-.3-.2-.3.2s-.7.4-1.3 1c-.5.5-.8.9-1.1 1.3.1-.8.2-1.8.2-2.9 0-1.6-1-3.3-1.9-4.3.1-.1.2-.1.2-.2.4-.3.6-.7.7-1.2.2-.8 0-1.6-.2-2.2.6-.5.8-1.2.8-2.2 0-.8-.5-1.5-1-1.9.1-.2.2-.5.2-.8.1-.9-.2-1.6-.8-2.1-.5-.4-1-.5-1.5-.5s-.9.2-1.2.3c-.4-.3-1-.7-2-.7h-.2c-.6 0-1.2.2-1.6.5-.4-.2-1-.4-1.8-.4h-.3c-.4 0-.7.2-1 .4-.6-.6-1.3-1-2-1.4-1.1-.5-2.4-.8-3.8-.8-.5 0-1 0-1.5.1-.7.1-1.3.2-2 .4.9-.9 1.3-2 1.3-2.1l.1-.3-.2-.2s-.5-.6-1.3-1.2c-1-.8-2-1.2-2.7-1.2h-.3c-.6.1-1.2.6-1.8 1.6-.5-.3-1.1-.4-1.5-.4 0-.2-.1-.4-.2-.7-.3-.8-.9-1.4-1.8-1.7-.3-.1-.6-.2-.9-.2-.9 0-1.6.4-2 .8 0-.1-.1-.1-.1-.2-.4-.6-1-.9-1.7-.9h-.4c-.9.2-1.4.6-1.7.9l-.2.2c-.4-.2-.9-.3-1.4-.3-.4 0-.8.1-1.1.3-.8.5-1 1.5-1.1 2-.3 0-.7.1-1 .2-1 .3-1.4.8-1.5 1.2-.3.8-.1 1.5.1 2-.3.1-.6.3-.9.7-.3-.1-.7-.1-1-.1h-.2c-1 .1-1.9.5-2.6 1.4-.5.6-.8 1.2-.8 1.3l-.1.2.1.2s.2.6.8 1.2c.4.5.9.8 1.4 1-2.2.5-3.9 1.4-5.1 2.9-1.1 1.3-1.6 2.9-1.9 4.4-.4-.2-.7-.4-1.2-.4h-.3c-.7.1-1.3.5-1.7 1.2-.2-.1-.5-.1-.7-.1-.3 0-.5 0-.8.1-.5.2-.9.6-1 1.1 0 .2-.1.3-.1.5h-.5c-.6 0-1 .2-1.5.5-.7.6-1 1.2-1 1.9 0 .6.4 1.2.7 1.7l.9.9c-.1.5-.2 1 0 1.6.1.5.4 1 .7 1.3.3.3.7.4 1.1.5 0 .3.1.6.1.8.2.6.5.9.8 1.2.4.2.9.4 1.3.4-.1.3-.1.7-.1 1-.1.9 0 1.8.2 2.8.2.9.5 1.9 1 2.7.1.2.2.4.3.5-.3-.2-.5-.3-.8-.4-.7-.2-1.3-.3-1.8-.3h-.8l-.1.2s-.5.7-.7 1.6c-.3 1.3-.1 2.4.7 3.3.6.6 1.3 1.1 2 1.2-.2.6-.1 1.2.1 1.5-.2.1-.4.3-.5.5-.6.7-.9 1.5-.7 2.3.2 1.2.9 1.9 1.7 2.3-.2.2-.3.4-.4.6-.2.6-.1 1.3.3 2.1.3.5.7.9 1 1.1.3.2.7.3 1.1.3h.1v.2c0 .4 0 .9.2 1.2.2.5.6.9 1.1 1.1.7.4 1.4.6 2 .6.4 0 .7-.1 1-.2.1.2.3.4.5.7.6.8 1.4 1.2 2.3 1.2h.3c.8-.1 1.4-.3 1.7-.8.1-.1.1-.2.2-.3.2.2.5.3.9.3-.1.4-.1.9 0 1.4.2.5.6.9 1.2 1.2 1.9.9 4.2.8 4.3.8h.4l.1-.3s.2-.7.2-1.6V76c.3.3.7.5 1.1.7 1.3.7 2.9 1.1 4.6 1.1.8 0 1.6-.1 2.4-.2.2 0 .4-.1.6-.1.1.6.3 1 .6 1.4.7.6 1.4.9 1.8 1 .2.7.7 1.3 1.6 1.6.5.2.9.3 1.3.3.3 0 .6 0 .9-.1.3.6.7 1 1.3 1.2.3.1.7.2 1 .2.6 0 1.2-.2 1.7-.6.4-.4.7-.9.8-1.4v-.2c.5-.1 1-.4 1.3-.9.3-.5.4-.9.4-1.5 0-.2-.1-.5-.2-.8.7-.4 1.4-1 1.6-1.8.2-.5.1-1.1-.2-1.6-.1-.1-.1-.2-.2-.3 1-.3 1.9-.6 2.8-1.2 1.5-.9 2.8-2.2 3.9-3.8.5-.7.9-1.5 1.2-2.3.1.6.4 1.3.9 2.2.5.8.9 1.5 1 1.5l.2.3.4-.2s.9-.4 1.8-1.1c1.3-.9 2-1.9 2-2.8 0-.7-.2-1.4-.7-2.1.2-.1.3-.3.4-.4.2.1.5.2.8.2.5 0 1.1-.2 1.9-.5 1.4-.7 1.8-1.8 1.9-2.5v-.8h.2c1 0 1.7-.4 2.2-1.1.8-1.1.6-2.2.3-2.9.6 0 1.1-.6 1.3-1.9zm-14 8.8c.1.4.2.8.5 1.1l-.6.6c.1-.6.1-.9.1-1.7zm3.3-16.7c-.2.6-.5 1.4-1.2 1.9l-.9.6c-.3.2-.7.4-1 .7 0-.2-.1-.5-.2-.7-.1-.2-.1-.3-.2-.5 1.5-.7 2.7-1.4 3.5-2zm-5.1 10.6c0-.1.1-.1.1-.2.1.2.3.3.4.4.8.6 1.3 1.2 1.6 1.9.4.9.3 1.9-.2 3 0 0 0 .1-.1.1l-.1.2c0-.2 0-.4-.1-.7-.2-1.8-.9-3.5-1.6-4.7zm7.9-12.2c-.4.3-.6.6-.6.7v.2l-.2.7c-.3-.5-.6-.9-.8-1.1.4-.6.7-1.2.9-1.9 0 .3.2.8.7 1.4zm-25.4-20.6c-1.2 1.1-2.2 2.4-3 4-.2 0-.3-.1-.5-.1.3-.5.6-.9.8-1.4.5-1.3 1.8-2.1 2.7-2.5zm1.1-1.3s-.2-.1-.5-.2c0 0 0-.1.1-.1.4.2.8.3 1.1.3-.1.1-.2.1-.3.2l-.4-.2zm-12 6.2c-.3.2-.6.3-.8.5-.3-.4-.8-.9-1.5-1.3-.2-.1-.4-.3-.6-.4.6.1 1.3.3 1.7.6l1.2.6zm-5.5-2.7c.1 0 .2.1.3.1-.1.3-.1.6-.1.6v.1c-.3-.1-.6-.1-1-.1.3-.2.6-.5.8-.7zm.7 43.3c-.4-.8-.2-1.9.1-3 .1-.3.2-.7.2-1l.2.2c-.1 1.4 0 3.8.9 6l-.3-.4c-.1 0-.4-.4-1.1-1.8zm-.6-7.5c-.1-.1-.1-.1 0 0 0-.1 0-.1 0 0 0-.1 0 0 0 0zm-8.9-4.1c1.6.7 3.2 1 4.7 1.1 0 .4.2.8.4 1.2 0 .1.1.1.1.2-.5-.1-1-.2-1.5-.2-.6-.1-1.2-.2-1.6-.3-1.4-.3-2-1.5-2-1.6l-.1-.4c-.1 0 0 0 0 0zM740.1 73c0-.1-.1-.3-.1-.4l.4-.3c.2.5.4 1 .6 1.4 0 0 0 .1.1.1-.3-.1-.7-.2-1-.2 0-.2.1-.4 0-.6zM729 58.1l-.1.6c-.4-.3-.8-.5-1.1-.5 0-.4-.1-.8-.2-1.2.4.5.9.8 1.4 1.1z"/><g id="XMLID_1207_"><g id="XMLID_1277_"><path id="XMLID_1313_" class="st11" d="M743.9 32.3s-5.8-4.8-10-2.7c-4.2 2.1-4.8 12.6-4.8 12.6s-5.3 5.3-1.9 11.3c3.3 6.1 11.4 4.5 11.4 4.5l6.3-12.1-1-13.6z"/><path id="XMLID_1312_" class="st11" d="M742.5 63.9s-2.7 8.9 2.5 10.9 12.8-2.2 12.8-2.2 9.8 2.5 13.3-5.2-3.4-12.3-3.4-12.3l-13.4 1.8-11.8 7z"/><path id="XMLID_1311_" class="st11" d="M770.7 49.3s7.6-3.8 7.1-8.5-7.8-8.5-7.8-8.5-2.1-7.9-8.2-7.8c-6.1.1-9.9 6.6-9.9 6.6l7.5 10.9 11.3 7.3z"/><g id="XMLID_1300_"><path id="XMLID_1310_" transform="rotate(45.001 742.307 50.885)" class="st8" d="M741.7 41h1.1v19.7h-1.1z"/><path id="XMLID_1309_" transform="rotate(45.001 739.608 46.99)" class="st8" d="M739 33.3h1.1v27.4H739z"/><path id="XMLID_1308_" transform="rotate(45.001 736.517 43.485)" class="st8" d="M735.9 29.9h1.1V57h-1.1z"/><path id="XMLID_1307_" transform="rotate(45.001 734.172 39.235)" class="st8" d="M733.6 27.5h1.1v23.6h-1.1z"/><path id="XMLID_1306_" transform="rotate(45.001 733.501 33.31)" class="st8" d="M732.9 27.2h1.1v12.3h-1.1z"/><path id="XMLID_1305_" transform="rotate(134.999 731.287 51.35)" class="st8" d="M730.7 44.5h1.1v13.6h-1.1z"/><path id="XMLID_1304_" transform="rotate(134.999 734.49 47.958)" class="st8" d="M733.9 39.3h1.1v17.3h-1.1z"/><path id="XMLID_1303_" transform="rotate(134.999 736.568 43.44)" class="st8" d="M736 32.7h1.1v21.6H736z"/><path id="XMLID_1302_" transform="rotate(134.999 738.896 39.173)" class="st8" d="M738.3 27.2h1.1v23.9h-1.1z"/><path id="XMLID_1301_" transform="rotate(134.999 742.718 36.4)" class="st8" d="M742.1 25.7h1.1v21.4h-1.1z"/></g><g id="XMLID_1289_"><path id="XMLID_1299_" transform="rotate(105.611 763.352 46.381)" class="st8" d="M762.8 36.5h1.1v19.7h-1.1z"/><path id="XMLID_1298_" transform="rotate(105.611 763.792 41.662)" class="st8" d="M763.2 28h1.1v27.4h-1.1z"/><path id="XMLID_1297_" transform="rotate(105.611 764.765 37.092)" class="st8" d="M764.2 23.5h1.1v27.1h-1.1z"/><path id="XMLID_1296_" transform="rotate(105.611 764.722 32.238)" class="st8" d="M764.1 20.5h1.1v23.6h-1.1z"/><path id="XMLID_1295_" transform="rotate(105.611 762.4 26.747)" class="st8" d="M761.8 20.6h1.1v12.3h-1.1z"/><path id="XMLID_1294_" transform="rotate(15.613 773.144 41.34)" class="st8" d="M772.6 34.6h1.1v13.6h-1.1z"/><path id="XMLID_1293_" transform="rotate(15.613 768.688 39.957)" class="st8" d="M768.1 31.4h1.1v17.3h-1.1z"/><path id="XMLID_1292_" transform="rotate(15.613 764.66 37.041)" class="st8" d="M764.1 26.3h1.1v21.6h-1.1z"/><path id="XMLID_1291_" transform="rotate(15.613 760.538 34.466)" class="st8" d="M760 22.6h1.1v23.9H760z"/><path id="XMLID_1290_" transform="rotate(15.613 755.848 33.926)" class="st8" d="M755.3 23.3h1.1v21.4h-1.1z"/></g><g id="XMLID_1278_"><path id="XMLID_1288_" transform="scale(-1) rotate(47.026 134.289 -1722.148)" class="st8" d="M748.7 49.2h1.1v18.4h-1.1z"/><path id="XMLID_1287_" transform="scale(-1) rotate(47.026 141.876 -1729.727)" class="st8" d="M752 48.1h1.1v27.4H752z"/><path id="XMLID_1286_" transform="scale(-1) rotate(47.026 149.26 -1737.525)" class="st8" d="M755.4 51.4h1.1v27.1h-1.1z"/><path id="XMLID_1285_" transform="scale(-1) rotate(47.026 153.663 -1748.521)" class="st8" d="M760.2 54.2h1.1v25.3h-1.1z"/><path id="XMLID_1284_" transform="scale(-1) rotate(47.026 156.058 -1761.674)" class="st8" d="M765.9 61.1h1.1v13.6h-1.1z"/><path id="XMLID_1283_" transform="scale(-1) rotate(-42.974 -177.542 1899.983)" class="st8" d="M747.4 63.1h1.1v13.6h-1.1z"/><path id="XMLID_1282_" transform="scale(-1) rotate(-42.974 -169.713 1908.879)" class="st8" d="M750.9 58.2h1.1v17.3h-1.1z"/><path id="XMLID_1281_" transform="scale(-1) rotate(-42.974 -164.844 1920.533)" class="st8" d="M755.5 54.1h1.1v21.6h-1.1z"/><path id="XMLID_1280_" transform="scale(-1) rotate(-42.974 -159.317 1931.575)" class="st8" d="M759.8 50.8h1.1v23.9h-1.1z"/><path id="XMLID_1279_" transform="scale(-1) rotate(-42.974 -149.863 1938.958)" class="st8" d="M762.7 48.3h1.1v21.4h-1.1z"/></g></g><path id="XMLID_1276_" class="st19" d="M728.2 42.3l.6-.4-.7-5.5s-.6-1.5-1.9-1.3-1.6 1.8-1.6 1.8l3.6 5.4z"/><path id="XMLID_1275_" class="st3" d="M728.3 42.3l-2.2-4.5s-1.2-2-2.9-1.5c-1.7.6-.1 3.2-.1 3.2l5.5 3.3-.3-.5z"/><path id="XMLID_1274_" class="st19" d="M729 43.5l-3.6 3.9s-.7.4-1.8-.2c-1.1-.6-.7-2.9-.7-2.9l5.5-1.3.6.5z"/><path id="XMLID_1273_" class="st3" d="M721.4 41.6s-.6 1.1-.4 2.2c.3 1.1 1.1 1.5 1.8 1.4.7-.2 5.5-2.2 5.5-2.2v-.7l-6.9-.7z"/><path id="XMLID_1272_" class="st20" d="M727.8 42.2l-4.6-3.6s-1.8-1.3-3-.3c-1.2 1.1-.9 1.9-.2 2.9s1.6 1.1 1.6 1.1l6.4.3-.2-.4z"/><path id="XMLID_1271_" class="st5" d="M743.4 31.1s-2-3.9-7.8-3c-5.8.8-7 4.3-7.7 7.4s-.5 4.9 1.8 5.9c2.4 1.1 4.1-.3 4.4-1.7.3-1.4-.2-2.9-1.2-3.3-1-.4-1.9-.9-1.5-2.4.7-2.8 2.6-3.4 4.8-3.7 3.9-.6 6.8 2.1 6.8 2.1l.4-1.3z"/><path id="XMLID_1270_" class="st5" d="M736.3 57.3s-5 .3-7.2-3.2-.9-6.9-.9-6.9.4 1.9 2.4 2c2 .1 3-2.2 2.6-3.6-.4-1.4-1.8-2.5-3.7-2.5-2 0-4.2 2.5-4.4 5.9s1.7 7.5 4.9 8.9 5.7 1.1 7 .7l-.7-1.3z"/><circle id="XMLID_1269_" class="st21" cx="729.2" cy="42.5" r="1.7"/><path id="XMLID_1268_" class="st17" d="M726.9 60s1.2-1.8-.1-3.7-3.8-1.5-3.8-1.5-1.7 2.5 0 4.4c1.6 1.9 3.9.8 3.9.8z"/><path id="XMLID_1267_" class="st17" d="M738 75s-1.1 2 .7 2.8c1.8.8 4.1.8 4.1.8s.7-2.7-.5-3.9c-1.2-1.2-3.9-.8-3.9-.8L738 75z"/><path id="XMLID_1266_" class="st14" d="M729.9 60.5s-1.7-3.3-3.8-1.1c-1.9 1.9-.7 3-.7 3s-1.8.9-1.5 2.6c.3 1.7 1.8 2.3 2.6 2.1 0 0-2.3.7-1 2.8 1.3 2.1 2.6.9 2.6.9s-1.1 2 .7 3c1.8 1.1 2.9.2 2.9.2s.8 2.2 2.7 2 1.7-1.7 1.7-1.7.8 1.8 2.7.3c1.9-1.5.7-2.2.1-2.9s-.8-8.4-.8-8.4l-8.2-2.8z"/><path id="XMLID_1265_" class="st22" d="M736.4 70.4s-3 1.3-5.5-1.5c-2.5-2.7.4-6.3.4-6.3l6.7.6-1.6 7.2z"/><path id="XMLID_1264_" class="st13" d="M735.6 68.3s-1.4.8-2.6-.6c-1.2-1.4.3-3.8.3-3.8l4.7-.7-2.4 5.1z"/><path id="XMLID_1263_" class="st23" d="M738.1 62.7s.8 1.3.8 2.6-1.1 3.3-.3 4.8 1.1 1.9 1.1 1.9-1.5.9-3.4-1.6c-1.9-2.6-.1-5.3.3-5.8.4-.6.7-1 .7-1s-2.4 1.6-4.3 1.1-3.3-1.4-3.6-2.9c-.3-1.5 0-2.8 0-2.8s.7 1.4 2.3 1.8 5.4.5 6.4 1.9z"/><path id="XMLID_1262_" class="st19" d="M757.8 72.6l-5.2 3.6s-.5 1.7.3 2.5 1.8.9 1.8.9l2.1-2.9 1-4.1z"/><path id="XMLID_1261_" class="st3" d="M757.8 72.6l-2.9 6.1s-.7 1.8 1.2 2.5 2.9-.5 2.9-.5l-.3-5.3-.9-2.8z"/><path id="XMLID_1260_" class="st19" d="M759.7 72l4.5 1.5s1.8.9 1.3 2.2c-.4 1.4-2.3 2-2.3 2l-3.1-2.4-1.7-3.2 1.3-.1z"/><path id="XMLID_1259_" class="st3" d="M758.4 72.6l4.4 3.9s2.1 1.5 1 3.2c-.7 1-1.7.7-1.7.7l-3.9-7 .2-.8z"/><path id="XMLID_1258_" class="st20" d="M757.8 72.6l.5 7.3s-.2 2.1 1.4 2.6c1.5.5 2.6-.4 2.8-1.5.2-1.1-1-2.7-1-2.7l-3.7-5.7z"/><path id="XMLID_1257_" class="st5" d="M743.1 64.8s-1 6 1.4 8 5.4 1.4 5.4 1.4-.5-1.6.2-2.8c.7-1.1 2.5-2.4 4.4-1.9 1.9.4 2.4 2.5 2.4 3.2s-1.1 3.8-5.5 4.6c-4.4.8-7.9-.6-9.8-4-2.1-3.8-1.4-8.5-1.4-8.5h2.9z"/><path id="XMLID_1256_" class="st5" d="M768.3 57.4s3 2.6 2.7 5.3-.9 4.5-2.7 6.1c-1.8 1.6-3 2.4-4.6 2.2 0 0 .8-1.5-.1-2.6-1-1.1-2.8-1.4-3.9-.5-1.1.8-1.7 2.2-1.1 3.6.6 1.4 2.3 2.6 4.4 2.5 2.1-.2 5.8-.5 9-5.2 4.1-6-1-12.6-1-12.6l-2.7 1.2z"/><circle id="XMLID_1255_" class="st21" cx="757.9" cy="73" r="1.7"/><path id="XMLID_1254_" class="st17" d="M776.9 63.3s-2.9 1.6-3 3c0 1.4 1.8 3.9 1.8 3.9s3.4-1.5 3.6-3.4c.1-1.9-2.4-3.5-2.4-3.5z"/><path id="XMLID_1253_" class="st17" d="M782.3 47s-2.7-2.4-2.6-3.9c.1-1.5 2.6-3.1 2.6-3.1s2.5 2 2.5 3.3c0 1.9-2.5 3.7-2.5 3.7z"/><path id="XMLID_1252_" class="st14" d="M779.2 48.3l.6-2.3s.7-1.5 3.1-.6 1.6 3 1.6 3 .9-.5 1.9.4c1 .9.1 2.8.1 2.8s1.4.9 1 2.7c-.4 1.8-1.3 2.1-1.3 2.1s.8 1.5-.1 2.8c-.9 1.3-2.7.7-2.7.7s1 2.3-1.4 3.4-2.5-.1-2.5-.1-.5 1.6-2.9 1.4c-2.3-.3-2.3-1.8-2-2.2.3-.4 1.5-4.9 1.5-4.9l-4-4 7.1-5.2z"/><path id="XMLID_1251_" class="st22" d="M778.6 49.3s3.4 2.2 3.1 5.8c-.3 3.6-5.3 4-5.3 4l-4-5.3 6.2-4.5z"/><path id="XMLID_1250_" class="st13" d="M777.4 50.8s2.3 2 1.9 4.1c-.4 2.3-4 2.2-4 2.2l-2.9-3.3 5-3z"/><path id="XMLID_1249_" class="st23" d="M777.9 45.7s-.1 2.2-1.6 3.3c-1.5 1.1-4.5 2.5-4.3 4.7 0 0-.4 2.4 1 3.4s2.8 2.8 1.5 5.6c0 0 2.9-.9 2.9-4s-4.4-5-4.4-5 4.8-.6 5.9-3.3c1.3-2.7-1-4.7-1-4.7z"/><path id="XMLID_1248_" class="st19" d="M771.5 31.9l5.4 2.7s1.3 0 1.6-1.3c.3-1.3-.4-2.5-.4-2.5l-6.6.2v.9z"/><path id="XMLID_1247_" class="st3" d="M771.8 31.1s3.2.7 5 .4 2.3-1.4 2.2-2.5-1.3-2-1.3-2l-6 3.6.1.5z"/><path id="XMLID_1246_" class="st19" d="M770.3 30.7l-1.8-5.3s-.2-1.5 1-1.5c1.2-.1 2.1.6 2.1.6l-.8 6-.5.2z"/><path id="XMLID_1245_" class="st3" d="M770.6 30.8l.5-5.4s.3-1.7 2.1-1.6c1.8.1 2.1 1.2 2.1 1.2l-3.9 5.7-.8.1z"/><path id="XMLID_1244_" class="st20" d="M771.4 30.6l2.2-3.6 1.7-2.4s1.1-.8 2.4.1.3 2.6.3 2.6-.5.6-1.9 1.3-4.7 2.2-4.7 2.2v-.2z"/><path id="XMLID_1243_" class="st5" d="M767.9 48.2s8-3.2 8.4-6.7c.5-3.5-2.1-5.8-2.1-5.8s0 1.6-1.3 2.2c-1.4.7-3.2.2-4-1.3-.9-1.8.1-3.8 1.1-4.6 1-.8 2.6-.6 4 0 1.5.5 5.2 4 5.2 6.9 0 2.9-.4 5.1-1.8 6.8s-7.7 4-7.7 4l-1.8-1.5z"/><path id="XMLID_1242_" class="st5" d="M753.4 30.8s2.6-5.1 7.6-5.7c5-.5 5.8 2.5 5.8 2.5s-2.3 0-2.8 1.8c-.6 1.9.4 3.4 1.5 3.7 1.3.4 2.9.7 4.3-1.1s.4-5.5-.7-7.1c-1.2-1.6-3.6-3.3-7.7-2.8-4 .5-7.6 3-9.5 7.4l1.5 1.3z"/><circle id="XMLID_1241_" class="st21" cx="770.8" cy="31.4" r="1.5"/><path id="XMLID_1240_" class="st17" d="M753.8 21.2s1.2-3.4 2.4-3.6c1.7-.2 3.9 2.2 3.9 2.2s-.8 2.3-2.6 2.9c-1.7.6-3.7-1.5-3.7-1.5z"/><path id="XMLID_1239_" class="st17" d="M738.8 24.8s-1-1.9-3.1-1.8-2.9 2.3-2.9 2.3.9 2.5 3.4 2.2 2.6-2.7 2.6-2.7z"/><path id="XMLID_1238_" class="st14" d="M754.4 23.6s1.3-1.3.7-3.1-2.8-1.6-2.8-1.6.1-1.8-1.6-2.4c-1.7-.6-2.9 1-2.9 1s-.4-1.7-1.9-1.4c-1.5.3-1.8 1.2-1.8 1.2s-1.5-.9-2.4-.3c-.9.6-.9 2.1-.9 2.1s-2.1-.1-2.5 1.1.3 2.1.3 2.1-2.1.3-1.5 2.5c.6 2.2 4.2 2 4.2 2l6.9 2.1 6.2-5.3z"/><path id="XMLID_1237_" class="st22" d="M751.6 23.8s-2.1-2.9-5.7-2.5c-3.6.4-4.7 4.5-4.7 4.5l6.4 2.5 4-4.5z"/><path id="XMLID_1236_" class="st13" d="M750.4 25.2s-1.5-1.6-3.9-1.3-3 2.6-3 2.6l4.1 1.8 2.8-3.1z"/><path id="XMLID_1235_" class="st23" d="M748.1 28.7s-.8-2.5 1.2-4.7 6.4-.3 6.4-.3-3 .8-4 3.2c-1.1 2.3-2.9 3.5-3.2 3.6-.3 0-4.1-1.2-5.4-1.9-1.3-.7-3.9-1-3.9-1s.2-2 2.4-2.5c1.8-.5 5 .2 6.5 3.6z"/><g id="XMLID_1221_"><path id="XMLID_1234_" class="st24" d="M759.9 41.9s-.3-6.4-2.2-7.1c-1.9-.7-7.9-2.5-9.1-1.8-1.2.7-6.4 6.2-7 8.8-.6 2.6 1.6 4.4 1.6 4.4s-6.9 3.7-5.5 9.4c1.3 5.6 2.3 5.5 2.3 5.5s6.1 4 9.9 2.3 4.3-5.5 4.3-5.5 4.6 4.4 8.7 2.5c4.1-1.9 7.5-7.5 7.5-7.5s-2.3-6.7-4.8-8.4-5.7-2.6-5.7-2.6z"/><circle id="XMLID_1233_" class="st13" cx="745.8" cy="41.6" r="1.8"/><circle id="XMLID_1232_" class="st13" cx="749.6" cy="37" r="1.8"/><circle id="XMLID_1231_" class="st13" cx="750.8" cy="45.9" r="1.8"/><circle id="XMLID_1230_" class="st13" cx="755.4" cy="40.5" r="1.8"/><circle id="XMLID_1229_" class="st13" cx="755.8" cy="51.1" r="1.8"/><circle id="XMLID_1228_" class="st13" cx="761.9" cy="46.6" r="1.8"/><circle id="XMLID_1227_" class="st13" cx="758.8" cy="56.1" r="1.8"/><circle id="XMLID_1226_" class="st13" cx="765.2" cy="52.6" r="1.8"/><circle id="XMLID_1225_" class="st13" cx="742.6" cy="57.9" r="1.8"/><circle id="XMLID_1224_" class="st13" cx="748.9" cy="57.2" r="1.8"/><circle id="XMLID_1223_" class="st13" cx="743.8" cy="51.3" r="1.8"/><circle id="XMLID_1222_" class="st13" cx="750" cy="50.6" r="1.8"/></g><path id="XMLID_1220_" class="st13" d="M759.1 42.7s2.4-2.8.8-6.1c-1.6-3.3-6.7-3.9-6.7-3.9s-.6-.4-.2-.7c.4-.4 1.1-1-.2-2.2s-4.2-1-4.2 2.4 6.1 3.3 6.1 3.3 2.7-.1 4 2.2c1.3 2.3-.2 5.4-.2 5.4l.6-.4z"/><path id="XMLID_1219_" class="st13" d="M759.1 42.7s1.1-1.7 4-.8c2.9.9 4.8 3.9 5.4 5.6.5 1.7 1 1.3 1.7.8.7-.4 2.7-.6 3.3 1s-.8 3.7-2.5 3.7-3.3-.1-4.3-2.7c-1-2.3-1.2-5.1-3.1-6.3-1.9-1.2-2.9-1.7-4.9-.9l.4-.4z"/><path id="XMLID_1218_" class="st13" d="M754.1 57.6s2.5 2.4 4.9 2.8 5.5-2.3 6.1-3.6c.6-1.3 1.6-3.5 2.9-3.9 1.3-.4 3.3.1 3.6 1.3.4 1.2.6 2.1 0 3.2s-2.4.7-2.6.3c-.2-.4-1.1.2-1.3.7-.2.4-2.6 3.4-5.8 3.3s-5.6-.8-8-3.8l.2-.3z"/><path id="XMLID_1217_" class="st13" d="M753.8 57.8s-.3 2.6-2.8 3.5c-2.5.9-4.5 0-5.7-.4-1.2-.4-4.1-1-5.2.2-1.1 1.2-1.5 2.2-1.1 3.3s1.3 2 2.7 1.6c1.4-.4 1.9-1.5 2-2 0-.4.5-.6 1.4-.4.8.2 4.7.7 7-.7 2.3-1.5 1.9-4.8 1.9-4.8l-.2-.3z"/><path id="XMLID_1216_" class="st13" d="M743.8 46.1s-3.6 1.5-5.1 5.2c-1.5 3.7 1.9 6 2 7.4.1 1.5-.5 2.4-1.5 2.9s-3.1.5-4-1.2c-.8-1.8.1-3.2.6-2.9.8.4.9-.2.9-.6 0-.4-1-4.2.3-6.7s6.2-4.1 6.2-4.1h.6z"/><path id="XMLID_1215_" class="st13" d="M743.8 46.1s-2.6-1.7-1.7-4.1 4.4-4 5.6-6.1c1.2-2.1 1.1-5.1-.7-5.9s-3.1-.1-3.6.6-.6 2.2-.4 2.6c.2.5.7 1.2 1 1.1.3-.1.4.4 0 .8s-4.1 3.6-4 6.7c.2 3.1 3.3 4.1 3.3 4.1l.5.2z"/><path id="XMLID_1214_" class="st25" d="M752.8 48.1s1.2-2.4.6-4.2c-.6-1.8-3.2-4.4-3.2-4.4s-1.6 2.6-.6 5.4c1 2.8 2.6 3.4 2.6 3.4l.6-.2z"/><path id="XMLID_1213_" class="st25" d="M751.5 48.9s-2.9 1.3-5.4.5c-2.5-.8-3.3-3.4-3.3-3.4s2.5-1.2 4.9-.5c2.4.7 4.2 2.9 4.2 2.9l-.4.5z"/><path id="XMLID_1212_" class="st25" d="M751.7 49.5s0 2.9-1.8 4.2c-1.8 1.4-5.5 2-5.5 2s.1-2.7 1.6-4.2 5.2-2.4 5.2-2.4l.5.4z"/><path id="XMLID_1211_" class="st25" d="M754.4 58.9s-2.5-2-2.8-4.7c-.3-2.6.4-4.7.4-4.7l.7-.1s2.3 1.6 2.9 3.7c.7 2.6-1.2 5.8-1.2 5.8z"/><path id="XMLID_1210_" class="st25" d="M753 48.6s.3-3 1.1-4c1.6-2 5.1-1.9 5.1-1.9s-.4 3.4-1.9 4.6-3.9 1.7-3.9 1.7l-.4-.4z"/><path id="XMLID_1209_" class="st25" d="M752.8 49.5s2.3 2.3 4.8 2.9 5.1-.4 5.1-.4-1.8-3.3-3.8-3.6-5.7.8-5.7.8l-.4.3z"/><circle id="XMLID_1208_" class="st21" cx="752.3" cy="49.3" r="1.4"/></g><g id="XMLID_1180_"><circle id="XMLID_1206_" class="st13" cx="711.8" cy="36.4" r="1.1"/><circle id="XMLID_1205_" class="st13" cx="715.7" cy="28.2" r="1.1"/><circle id="XMLID_1204_" class="st13" cx="720.6" cy="20.5" r="1.1"/><circle id="XMLID_1203_" class="st13" cx="727.8" cy="14.9" r="1.1"/><circle id="XMLID_1202_" class="st13" cx="735.7" cy="9.9" r="1.1"/><circle id="XMLID_1201_" class="st13" cx="744.7" cy="6.9" r="1.1"/><circle id="XMLID_1200_" class="st13" cx="753.9" cy="5.5" r="1.1"/><circle id="XMLID_1199_" class="st13" cx="763.3" cy="7.2" r="1.1"/><circle id="XMLID_1198_" class="st13" cx="772.1" cy="10.6" r="1.1"/><circle id="XMLID_1197_" class="st13" cx="779.8" cy="15.8" r="1.1"/><circle id="XMLID_1196_" class="st13" cx="786.2" cy="23" r="1.1"/><circle id="XMLID_1195_" class="st13" cx="791.9" cy="31.4" r="1.1"/><circle id="XMLID_1194_" class="st13" cx="794.5" cy="41.9" r="1.1"/><circle id="XMLID_1193_" class="st13" cx="794.4" cy="53.5" r="1.1"/><circle id="XMLID_1192_" class="st13" cx="791.8" cy="63.8" r="1.1"/><circle id="XMLID_1191_" class="st13" cx="786.6" cy="72.6" r="1.1"/><circle id="XMLID_1190_" class="st13" cx="778.6" cy="80.4" r="1.1"/><circle id="XMLID_1189_" class="st13" cx="768.4" cy="86.5" r="1.1"/><circle id="XMLID_1188_" class="st13" cx="757.1" cy="89.1" r="1.1"/><circle id="XMLID_1187_" class="st13" cx="745.4" cy="89" r="1.1"/><circle id="XMLID_1186_" class="st13" cx="735.6" cy="85.8" r="1.1"/><circle id="XMLID_1185_" class="st13" cx="726.9" cy="81.1" r="1.1"/><circle id="XMLID_1184_" class="st13" cx="720.2" cy="74.1" r="1.1"/><circle id="XMLID_1183_" class="st13" cx="714.9" cy="66.4" r="1.1"/><circle id="XMLID_1182_" class="st13" cx="711.1" cy="56.3" r="1.1"/><circle id="XMLID_1181_" class="st13" cx="710.1" cy="46" r="1.1"/></g></g><path id="XMLID_1178_" d="M785 78.8s-.9-.5-.9-1.2.5-1.3 2-1.3 2.4 1.7 2.4 1.7 3.7.3 3.7 3.6-1.5 4.2-4.5 7.2l-2.1-5.6c.8-.6 1.1-1.3 1.1-2 .1-1.6-1.7-2.4-1.7-2.4z"/><path id="XMLID_1177_" d="M720.2 78.8s.9-.5.9-1.2-.5-1.3-2-1.3-2.4 1.7-2.4 1.7-3.7.3-3.7 3.6 1.5 4.2 4.5 7.2l2.1-5.6c-.8-.6-1.1-1.3-1.1-2-.1-1.6 1.7-2.4 1.7-2.4z"/></g><g id="XMLID_1166_"><path id="XMLID_1175_" class="st18" d="M669.4 34.4s-3 .3-6.8 7.3c-3.7 6.7-3 9.9-3 9.9s3.2-.2 7.3-7.8c4.2-7.8 2.5-9.4 2.5-9.4z"/><path id="XMLID_1174_" class="st18" d="M664.3 23.9s-2.5.2-5.6 6c-3.1 5.6-2.5 8.2-2.5 8.2s2.6-.2 6-6.4c3.5-6.4 2.1-7.8 2.1-7.8z"/><path id="XMLID_1173_" class="st18" d="M659.3 18.7s-2.2.2-5.1 5.5c-2.8 5.1-2.2 7.4-2.2 7.4s2.4-.1 5.5-5.8c3.1-5.8 1.8-7.1 1.8-7.1z"/><path id="XMLID_1172_" class="st18" d="M654.3 13.4s-1.9.2-4.4 4.7c-2.4 4.3-1.9 6.3-1.9 6.3s2.1-.1 4.8-5c2.7-4.9 1.5-6 1.5-6z"/><path id="XMLID_1171_" class="st26" d="M660.3 50.5s-2.8-14.3-16.1-31"/><path id="XMLID_1170_" class="st17" d="M639.9 36.9s1.6-1.9 8.1-1.3c6.3.6 8.1 2.5 8.1 2.5s-1.6 2.1-8.7 1.4c-7.2-.7-7.5-2.6-7.5-2.6z"/><path id="XMLID_1169_" class="st17" d="M637.4 27.7s1.7-1.4 7.5.3c5.5 1.7 6.8 3.7 6.8 3.7s-1.8 1.6-8-.3c-6.3-1.9-6.3-3.7-6.3-3.7z"/><path id="XMLID_1168_" class="st17" d="M637 12.4s-.4 1.9 3.3 5.6c3.5 3.5 5.6 3.6 5.6 3.6s.5-2-3.5-6c-4.1-4-5.4-3.2-5.4-3.2z"/><path id="XMLID_1167_" class="st27" d="M669.7 72.9h-2.4v-20h1.6c.5 0 .4-.6.4-1.1v-1.1c0-.5-.2-.8-.8-.8h-12.2c-.5 0-1.1.1-1.1.6v1.7c0 .5.1.7.7.7h1.3v20h-1.8c-3.3 0-6.2 1.8-6.2 5.1v18.9c0 1.1 1.1 2.9 2.2 2.9h21.2c1.3-.1 2.6-1.8 2.6-2.9V78c.1-3.3-2.2-5.1-5.5-5.1z"/></g><g id="XMLID_1064_"><path id="XMLID_1165_" class="st14" d="M237.2 90.8l12.2 1.3s5 0 5-4.9-4.8-8.1-3.9-12.6 12-9.7 12-9.7 2.9-1.1 2.6-2.4c-.3-1.3-7.9-3.9-15.1-1.3s-10.7 9-10.7 12.4c0 3.4 7.5 14.2 7.5 14.2h-9.6v3z"/><g id="XMLID_1101_"><defs><path id="XMLID_1102_" d="M237.2 90.8l12.2 1.3s5 0 5-4.9-4.8-8.1-3.9-12.6 12-9.7 12-9.7 2.9-1.1 2.6-2.4c-.3-1.3-7.9-3.9-15.1-1.3s-10.7 9-10.7 12.4c0 3.4 7.5 14.2 7.5 14.2h-9.6v3z"/></defs><use xlink:href="#XMLID_1102_" overflow="visible" fill="#ED5463"/><clipPath id="XMLID_4_"><use xlink:href="#XMLID_1102_" overflow="visible"/></clipPath><g id="XMLID_1103_" class="st28"><circle id="XMLID_1164_" class="st29" cx="241.7" cy="89.3" r="0.8"/><circle id="XMLID_1163_" class="st29" cx="244.3" cy="90.6" r="0.8"/><circle id="XMLID_1162_" class="st29" cx="244.6" cy="88.4" r="0.8"/><circle id="XMLID_1161_" class="st29" cx="246.9" cy="90" r="0.8"/><circle id="XMLID_1160_" class="st29" cx="249.8" cy="91.3" r="0.8"/><circle id="XMLID_1159_" class="st29" cx="250.8" cy="88.7" r="0.8"/><circle id="XMLID_1158_" class="st29" cx="253" cy="90.3" r="0.8"/><circle id="XMLID_1157_" class="st29" cx="254" cy="87.4" r="0.8"/><circle id="XMLID_1156_" class="st29" cx="248.2" cy="87.1" r="0.8"/><circle id="XMLID_1155_" class="st29" cx="251.7" cy="86.1" r="0.8"/><circle id="XMLID_1154_" class="st29" cx="249.5" cy="85.1" r="0.8"/><circle id="XMLID_1153_" class="st29" cx="247.5" cy="83.5" r="0.8"/><circle id="XMLID_1152_" class="st29" cx="245.6" cy="82.2" r="0.8"/><circle id="XMLID_1151_" class="st29" cx="246.6" cy="79.9" r="0.8"/><circle id="XMLID_1150_" class="st29" cx="248.5" cy="81.6" r="0.8"/><circle id="XMLID_1149_" class="st29" cx="250.4" cy="82.9" r="0.8"/><circle id="XMLID_1148_" class="st29" cx="252.4" cy="83.8" r="0.8"/><circle id="XMLID_1147_" class="st29" cx="250.4" cy="79.3" r="0.8"/><circle id="XMLID_1146_" class="st29" cx="248.2" cy="78" r="0.8"/><circle id="XMLID_1145_" class="st29" cx="245.9" cy="76.4" r="0.8"/><circle id="XMLID_1144_" class="st29" cx="244" cy="74.8" r="0.8"/><circle id="XMLID_1143_" class="st29" cx="242.4" cy="73.1" r="0.8"/><circle id="XMLID_1142_" class="st29" cx="244.6" cy="78.6" r="0.8"/><circle id="XMLID_1141_" class="st29" cx="242" cy="77.3" r="0.8"/><circle id="XMLID_1140_" class="st29" cx="243.3" cy="81.2" r="0.8"/><circle id="XMLID_1139_" class="st29" cx="240.4" cy="75.1" r="0.8"/><circle id="XMLID_1138_" class="st29" cx="240.4" cy="71.2" r="0.8"/><circle id="XMLID_1137_" class="st29" cx="245.9" cy="73.1" r="0.8"/><circle id="XMLID_1136_" class="st29" cx="247.9" cy="74.8" r="0.8"/><circle id="XMLID_1135_" class="st29" cx="250.1" cy="76.4" r="0.8"/><circle id="XMLID_1134_" class="st29" cx="244" cy="71.2" r="0.8"/><circle id="XMLID_1133_" class="st29" cx="242" cy="69.3" r="0.8"/><circle id="XMLID_1132_" class="st29" cx="243.3" cy="67" r="0.8"/><circle id="XMLID_1131_" class="st29" cx="247.5" cy="71.5" r="0.8"/><circle id="XMLID_1130_" class="st29" cx="249.5" cy="73.1" r="0.8"/><circle id="XMLID_1129_" class="st29" cx="251.4" cy="71.5" r="0.8"/><circle id="XMLID_1128_" class="st29" cx="249.5" cy="69.6" r="0.8"/><circle id="XMLID_1127_" class="st29" cx="247.2" cy="68" r="0.8"/><circle id="XMLID_1126_" class="st29" cx="245.3" cy="68.9" r="0.8"/><circle id="XMLID_1125_" class="st29" cx="245.3" cy="65.4" r="0.8"/><circle id="XMLID_1124_" class="st29" cx="247.9" cy="63.7" r="0.8"/><circle id="XMLID_1123_" class="st29" cx="249.5" cy="66" r="0.8"/><circle id="XMLID_1122_" class="st29" cx="251.4" cy="68" r="0.8"/><circle id="XMLID_1121_" class="st29" cx="253.4" cy="70.2" r="0.8"/><circle id="XMLID_1120_" class="st29" cx="255.6" cy="68.6" r="0.8"/><circle id="XMLID_1119_" class="st29" cx="253.7" cy="66.7" r="0.8"/><circle id="XMLID_1118_" class="st29" cx="251.7" cy="64.7" r="0.8"/><circle id="XMLID_1117_" class="st29" cx="249.8" cy="62.5" r="0.8"/><circle id="XMLID_1116_" class="st29" cx="254" cy="63.4" r="0.8"/><circle id="XMLID_1115_" class="st29" cx="256" cy="65.4" r="0.8"/><circle id="XMLID_1114_" class="st29" cx="257.9" cy="67.3" r="0.8"/><circle id="XMLID_1113_" class="st29" cx="252.4" cy="61.2" r="0.8"/><circle id="XMLID_1112_" class="st29" cx="256.3" cy="62.1" r="0.8"/><circle id="XMLID_1111_" class="st29" cx="257.9" cy="64.1" r="0.8"/><circle id="XMLID_1110_" class="st29" cx="259.8" cy="66.3" r="0.8"/><circle id="XMLID_1109_" class="st29" cx="254.7" cy="60.5" r="0.8"/><circle id="XMLID_1108_" class="st29" cx="258.5" cy="60.8" r="0.8"/><circle id="XMLID_1107_" class="st29" cx="260.2" cy="62.5" r="0.8"/><circle id="XMLID_1106_" class="st29" cx="261.8" cy="64.7" r="0.8"/><circle id="XMLID_1105_" class="st29" cx="264.1" cy="63.7" r="0.8"/><circle id="XMLID_1104_" class="st29" cx="262.1" cy="61.5" r="0.8"/></g></g><path id="XMLID_1100_" class="st14" d="M224.2 39.9l4.1.4-4.1 5.4-4.4 1.9z"/><path id="XMLID_1099_" class="st25" d="M208.8 99.9h3.9l.5-17.8 12.8 3.2 12.5 2.3.7-3.6s2.4-14.7-12.8-14.7c0 0-6.2 1.3-6.2-8l1.9-5.4s1.7-.7 2.4-1.7c.8-1.2.6-3.2.6-3.2l7.7-10.9-4.9-.7-6.2 6.1 4.3-6.6-3.2 1s-2.1 1.3-4.7 4.2c-2.6 2.9-12.6 20.7-12.6 20.7s-2.1 4.4-2.1 7.4c0 3.1 6.6 17.7 6.6 17.7l1 4.7c0 .1-2.4 3.3-2.2 5.3z"/><path id="XMLID_1098_" class="st27" d="M219.4 55.9c.6 1.3 1.6 1.8 2.2 1.9l.6-1.8s1.7-.7 2.4-1.7c.8-1.2.6-3.2.6-3.2l7.7-10.9-4.9-.7-2.7 2.8c-1.2 1.4-2.5 2.8-3.7 3.7-3.5 2.6-3.2 7.8-2.2 9.9z"/><path id="XMLID_1097_" class="st27" d="M226.4 69.3s-5 1-6-5.5l-4.9-2.3-2.1 15.5-.3 5 12.6 3.2 12.3 4.4 1.2-5.7c0 .1 2.4-14.6-12.8-14.6z"/><path id="XMLID_1096_" class="st25" d="M231.1 76.3c-7-.7-7.1 7.4-5.4 9.1l5.5 5.1v5.2s-6.9 1.6-6.9 4.2H236l2.8-13.7v-.1c0-.1-.7-9.1-7.7-9.8z"/><path id="XMLID_1095_" class="st25" d="M218.3 58.8s-1.6 2.8 1.5 4.4c3.1 1.6 8.3 4.9 8.9 3.7s.3-5-1.8-6.8c-2.1-1.8-6.4-2.3-6.4-2.3s-1.1-.3-2.2 1z"/><path id="XMLID_1094_" class="st5" d="M219.5 59.4s-1.4 2.3 1.2 3.7 6.9 4.1 7.5 3.1c.5-1 .3-4.2-1.5-5.7s-5.3-1.9-5.3-1.9-1-.3-1.9.8z"/><path id="XMLID_1093_" class="st30" d="M219.9 55s2.4-.2 3.1-1.1.1-2.1-.6-2.5c-.7-.4-1.5-.1-2.1.4-.5.5-.4 3.2-.4 3.2z"/><path id="XMLID_1092_" class="st13" d="M212.1 53.7c-3.3 5.5-6.5 11.3-6.5 11.3s-2.1 4.4-2.1 7.4c0 .9.6 2.8 1.4 5.1 5.8-2.6 9.8-8.3 9.8-15-.1-3.3-1-6.3-2.6-8.8z"/><path id="XMLID_1091_" class="st14" d="M211.2 55.1c-3 5-5.7 9.9-5.7 9.9s-2.1 4.4-2.1 7.4c0 .7.4 2.1.9 3.7 5.2-2.4 8.8-7.6 8.8-13.6 0-2.7-.7-5.2-1.9-7.4z"/><path id="XMLID_1090_" class="st27" d="M203.4 72.4c0 .5.2 1.2.4 2.1 4.5-2.1 7.7-6.7 7.7-12.1 0-2-.5-4-1.3-5.7-2.6 4.4-4.7 8.2-4.7 8.2s-2.1 4.4-2.1 7.5z"/><path id="XMLID_1089_" class="st14" d="M213.9 80.2l2.7-3.9.5 4.8z"/><path id="XMLID_1088_" class="st14" d="M217.3 81.2l2.7-4 .5 4.8z"/><path id="XMLID_1087_" class="st14" d="M220.5 82l2.7-3.9.6 4.7z"/><path id="XMLID_1086_" class="st14" d="M225.5 83.5l2.7-3.6.3 4.5z"/><path id="XMLID_1085_" class="st14" d="M228.4 84.5l4.3-1.7-2.1 4z"/><path id="XMLID_1084_" class="st14" d="M230.6 86.8l4.4-1.1-2.6 3.7z"/><path id="XMLID_1083_" class="st14" d="M232.3 89.3l4.3 1.6-4.3 1.6z"/><path id="XMLID_1082_" class="st14" d="M232.3 92.5l3.1 1.1-3.1 1.2z"/><path id="XMLID_1081_" class="st14" d="M232.3 94.8l2.5.9-2.5.9z"/><path id="XMLID_1080_" class="st13" d="M205.9 66.1s0 3.1 3 2.6c0 0 .1-2.9-3-2.6z"/><path id="XMLID_1079_" class="st13" d="M204.8 68.1s-2.1 2.2.4 3.9c0 0 2-2-.4-3.9z"/><path id="XMLID_1078_" class="st13" d="M206.9 63.7s1.8 2.5 3.9.3c0 0-1.6-2.4-3.9-.3z"/><path id="XMLID_1077_" class="st13" d="M209.2 59.5s-.2-.1-.5-.1c-.5.8-.9 1.6-1.3 2.3.8-.1 1.6-.6 1.8-2.2z"/><path id="XMLID_1076_" class="st13" d="M228 39.5l-2.2 2.3c.6.9 1.9 2.4 3.9 2.9l3.2-4.5-4.9-.7z"/><path id="XMLID_1075_" class="st30" d="M224.2 39.6l-4.4 8.5 9.5-8.4-1.2-.3-5.6 5.3 3.6-5.7z"/><ellipse id="XMLID_1074_" transform="rotate(-147.544 221.703 52.917)" class="st20" cx="221.7" cy="52.9" rx="1.3" ry="1"/><ellipse id="XMLID_1073_" transform="rotate(-147.544 221.73 52.998)" cx="221.7" cy="53" rx="0.7" ry="0.5"/><path id="XMLID_1072_" class="st5" d="M203.8 69.9c2.2-1.7 3.7-4.4 3.7-7.4v-.8c-1.1 2-1.9 3.3-1.9 3.3s-1.2 2.4-1.8 4.9z"/><circle id="XMLID_1071_" class="st13" cx="218.9" cy="65.3" r="0.8"/><circle id="XMLID_1070_" class="st13" cx="219.9" cy="68.3" r="0.8"/><circle id="XMLID_1069_" class="st30" cx="217.4" cy="68.1" r="0.8"/><circle id="XMLID_1068_" class="st30" cx="219.8" cy="71" r="0.8"/><circle id="XMLID_1067_" class="st30" cx="216.7" cy="71.2" r="0.8"/><circle id="XMLID_1066_" class="st13" cx="222.8" cy="70.2" r="0.8"/><circle id="XMLID_1065_" class="st13" cx="225.8" cy="71.2" r="0.8"/></g><g id="XMLID_6_"><path id="XMLID_1063_" class="st3" d="M303.8 30h260v70h-260z"/><path id="XMLID_1062_" class="st4" d="M305.8 32h256v66h-256z"/><path id="XMLID_1061_" class="st5" d="M310.8 37h246v56h-246z"/><path id="XMLID_1060_" class="st31" d="M313.8 40h240v50h-240z"/><path id="XMLID_1052_" class="st5" d="M313.8 40v11.5h.7v-1.2c.5.6 1.2.9 1.9.9s1.4-.8 1.4-1.5c0-.8-.7-1.4-1.3-1.4-.6 0-1 .4-1 1 0 .5.4.7.8.8.2 0 .3-.1.4-.3 0-.2-.1-.3-.3-.4-.1 0-.2-.1-.2-.1 0-.2.1-.4.4-.4.3 0 .6.3.6.7 0 .4-.4.9-.8.9-.5 0-1.8-.2-1.8-2.3 0-2 1.3-2.3 1.8-2.3.3 0 .8.4.8.9 0 .4-.4.7-.6.7-.3 0-.4-.2-.4-.4 0 0 .1-.1.2-.1.2 0 .3-.2.3-.4s-.2-.3-.4-.3c-.4 0-.8.3-.8.8 0 .6.5 1 1 1s1-.4 1.2-.9c.2.1.4.2.8.2.6 0 1.1-.2 1.5-.6.5-.5.7-1.2.7-2 0-1.1.1-1.3.4-1.7.1-.1.5-.2.7-.1.2.1.4.2.4.5 0 .1 0 .2-.1.2-.2.1-.6.1-.8.1-.2 0-.3.1-.4.3 0 .2.1.3.3.4.1 0 .9.2 1.3-.2.1-.1.3-.3.3-.7 0-.5-.3-.9-.8-1.1h-.1l1.3-1c.2-.2.8-.6 1.3-.6.6 0 1.2.4 1.2 1s-.6.8-.7.8c-.3 0-.4 0-.4-.3 0-.4.4-.4.5-.4.2 0 .3-.2.3-.4s-.2-.3-.4-.3c-.4 0-1.1.3-1.1 1s.4 1 1 1c.4 0 1.4-.4 1.4-1.4 0-.6-.4-1.1-.9-1.3h2.1V40h-13.7zm.6.7h2.2c-.8 0-1.2.6-1.2 1.1 0 .3 0 .5.1.7-.5.2-1 .6-1.2 1.1v-2.9zm6.9 0h2.3c-.4.2-.6.4-.7.4l-1.4 1c.1-.2.1-.4.1-.6.1-.3-.1-.6-.3-.8zm-1.3 2c-1 0-1.4-.4-1.7-.9-.1-.1-.1-.2-.2-.3-.2-.4-.4-.9-1.1-.9h2.6c-.2.2-.3.5-.3.8 0 .6.4 1 .9 1 .2 0 .3-.1.3-.3s-.1-.3-.3-.3c-.2 0-.3-.2-.3-.3 0-.2.1-.5.4-.5.5 0 .7.2.7.5 0 .2-.3 1.2-1 1.2zm-2.2 3.2c.1-.1.3-.4.7-.2.1 0 .2.1.2.2s-.2.2-.2.2c-.2 0-.3.1-.3.3s.2.3.3.3c.4 0 .8-.4.8-.8 0-.1.1-.6-.6-.9-.1 0-.1 0-.2-.1l1.4-1v1c0 .6-.2 1.2-.5 1.5-.3.3-.6.4-1 .4-.2 0-.4-.1-.5-.2-.2-.1-.2-.5-.1-.7zM315 44c0-.6.6-1.1 1.2-1.1.2 0 .3.1.5.2.1.1.2.2.1.3 0 .2-.2.4-.4.5-.1.1-.2.1-.4 0s-.4 0-.4.2c-.1.2 0 .4.2.4.3.1.7.1 1-.1.4-.2.6-.6.7-1 0-.3-.1-.6-.3-.8.2-.1.3-.2.3-.2.1-.1.1-.3-.1-.5-.1-.1-.3-.1-.5 0 0 0-.2.2-.6.2-.2 0-.3 0-.3-.5 0-.1.2-.5.7-.5.3 0 .4.2.6.6.1.1.1.3.2.4.3.4.8 1.1 2.1 1.1l-2.4 1.7s-.3.3-1.1.3c-.6.1-1.1-.4-1.1-1.2zm-.6 2.2v-1.5c.1.4.4.7.7.9-.3.2-.5.4-.7.6z"/><path id="XMLID_1044_" class="st5" d="M539.7 40v.7h2.1c-.5.2-.9.7-.9 1.3 0 1 1 1.4 1.4 1.4.7 0 1-.3 1-1 0-.8-.7-1-1.1-1-.2 0-.3.1-.4.3 0 .2.1.3.3.4 0 0 .5 0 .5.4 0 .3-.1.3-.4.3-.1 0-.7-.2-.7-.8 0-.6.7-1 1.2-1s1.1.4 1.3.6l1.3 1h-.1c-.5.2-.8.6-.8 1.1 0 .4.2.6.3.7.5.4 1.2.2 1.3.2.2 0 .3-.2.3-.4s-.2-.3-.4-.3-.6.1-.8-.1c0 0-.1-.1-.1-.2 0-.3.2-.4.4-.5.3-.1.6-.1.7.1.4.4.5.6.4 1.7 0 .8.2 1.5.7 2 .4.4.9.6 1.5.6.4 0 .6-.1.8-.2.2.6.7.9 1.2.9.6 0 1-.4 1-1 0-.5-.4-.7-.8-.8-.2 0-.3.1-.4.3 0 .2.1.3.3.4.1 0 .2.1.2.1 0 .2-.1.4-.4.4-.3 0-.6-.3-.6-.7 0-.4.4-.9.8-.9.5 0 1.8.2 1.8 2.3 0 2-1.3 2.3-1.8 2.3-.3 0-.8-.4-.8-.9 0-.4.4-.7.6-.7.3 0 .4.2.4.4 0 0-.1.1-.2.1-.2 0-.3.2-.3.4s.2.3.4.3c.4 0 .8-.3.8-.8 0-.6-.5-1-1-1-.6 0-1.3.6-1.3 1.4 0 .8.7 1.5 1.4 1.5s1.4-.3 1.9-.9v1.2h.7V40h-13.7zm13.4 3.5c-.2-.5-.6-.9-1.2-1.1.1-.2.1-.4.1-.7 0-.4-.4-1.1-1.2-1.1h2.2v2.9zm-7.3-2c0 .1 0 .3.1.6l-1.4-1c-.1-.1-.3-.2-.7-.4h2.3c-.2.2-.3.5-.3.8zm.7 0c0-.3.2-.5.7-.5.3 0 .4.3.4.5 0 .1 0 .3-.3.3-.2 0-.3.2-.3.3s.2.3.3.3c.5 0 .9-.4.9-1 0-.3-.1-.6-.3-.8h2.6c-.6 0-.9.5-1.1.9-.1.1-.1.2-.2.3-.3.4-.7.9-1.7.9-.7 0-1-1-1-1.2zm3.1 5.2c-.1.1-.3.2-.5.2-.4 0-.7-.1-1-.4-.4-.4-.6-.9-.5-1.5v-1l1.4 1c-.1 0-.1 0-.2.1-.7.3-.6.8-.6.9.1.4.5.8.8.8.2 0 .3-.1.3-.3s-.1-.3-.3-.3c-.1 0-.2-.1-.2-.2s.1-.2.2-.2c.4-.2.7.1.7.2s.1.5-.1.7zm1.6-1.4c-.8 0-1.1-.3-1.1-.3l-2.4-1.7c1.3-.1 1.8-.8 2.1-1.1.1-.1.2-.3.2-.4.2-.4.3-.6.6-.6.5 0 .7.4.7.5 0 .4-.1.5-.3.5-.4 0-.5-.1-.6-.2-.1-.1-.3-.2-.5 0-.1.1-.2.3-.1.5 0 0 .1.1.3.2-.2.2-.3.5-.3.8 0 .4.3.8.7 1 .3.2.7.2 1 .1.2-.1.2-.3.2-.4-.1-.2-.3-.2-.4-.2-.1.1-.2 0-.4 0-.2-.1-.3-.4-.4-.5 0-.1 0-.2.1-.3.1-.1.3-.2.5-.2.7 0 1.2.5 1.2 1.1.2.7-.3 1.2-1.1 1.2zm1.2.3c.3-.2.5-.5.7-.9v1.5c-.2-.2-.5-.4-.7-.6z"/><path id="XMLID_1036_" class="st5" d="M327.8 90v-.7h-2.1c.5-.2.9-.7.9-1.3 0-1-1-1.4-1.4-1.4-.7 0-1 .3-1 1 0 .8.7 1 1.1 1 .2 0 .3-.1.4-.3 0-.2-.1-.3-.3-.4 0 0-.5 0-.5-.4 0-.3.1-.3.4-.3.1 0 .7.2.7.8 0 .6-.7 1-1.2 1s-1.1-.4-1.3-.6l-1.3-1h.1c.5-.2.8-.6.8-1.1 0-.4-.2-.6-.3-.7-.5-.4-1.2-.2-1.3-.2-.2 0-.3.2-.3.4s.2.3.4.3.6-.1.8.1c0 0 .1.1.1.2 0 .3-.2.4-.4.5-.3.1-.6.1-.7-.1-.4-.4-.5-.6-.4-1.7 0-.8-.2-1.5-.7-2-.4-.4-.9-.6-1.5-.6-.4 0-.6.1-.8.2-.2-.6-.7-.9-1.2-.9-.6 0-1 .4-1 1 0 .5.4.7.8.8.2 0 .3-.1.4-.3 0-.2-.1-.3-.3-.4-.1 0-.2-.1-.2-.1 0-.2.1-.4.4-.4.3 0 .6.3.6.7 0 .4-.4.9-.8.9-.5 0-1.8-.2-1.8-2.3 0-2 1.3-2.3 1.8-2.3.3 0 .8.4.8.9 0 .4-.4.7-.6.7-.3 0-.4-.2-.4-.4 0 0 .1-.1.2-.1.2 0 .3-.2.3-.4s-.2-.3-.4-.3c-.4 0-.8.3-.8.8 0 .6.5 1 1 1 .6 0 1.3-.6 1.3-1.4 0-.8-.7-1.5-1.4-1.5s-1.4.3-1.9.9v-1.2h-.7V90h13.7zm-13.4-3.5c.2.5.6.9 1.2 1.1-.1.2-.1.4-.1.7 0 .4.4 1.1 1.2 1.1h-2.2v-2.9zm7.3 1.9c0-.1 0-.3-.1-.6l1.4 1c.1.1.3.2.7.4h-2.3c.1-.1.3-.4.3-.8zm-.7.1c0 .3-.2.5-.7.5-.3 0-.4-.3-.4-.5 0-.1 0-.3.3-.3.2 0 .3-.2.3-.3 0-.2-.2-.3-.3-.3-.5 0-.9.4-.9 1 0 .3.1.6.3.8H317c.6 0 .9-.5 1.1-.9.1-.1.1-.2.2-.3.3-.4.7-.9 1.7-.9.7 0 1 .9 1 1.2zm-3.1-5.2c.1-.1.3-.2.5-.2.4 0 .7.1 1 .4.4.4.6.9.5 1.5v1l-1.4-1c.1 0 .1 0 .2-.1.7-.3.6-.8.6-.9-.1-.4-.5-.8-.8-.8-.2 0-.3.1-.3.3 0 .2.1.3.3.3.1 0 .2.1.2.2s-.1.2-.2.2c-.4.2-.7-.1-.7-.2-.1-.1-.1-.5.1-.7zm-1.6 1.3c.8 0 1.1.3 1.1.3l2.4 1.7c-1.3.1-1.8.8-2.1 1.1-.1.1-.2.3-.2.4-.2.4-.3.6-.6.6-.5 0-.7-.4-.7-.5 0-.4.1-.5.3-.5.4 0 .5.1.6.2.1.1.3.2.5 0 .1-.1.2-.3.1-.5 0 0-.1-.1-.3-.2.2-.2.3-.5.3-.8 0-.4-.3-.8-.7-1-.3-.2-.7-.2-1-.1-.2.1-.2.3-.2.4.1.2.3.2.4.2.1-.1.2 0 .4 0 .2.1.3.4.4.5 0 .1 0 .2-.1.3-.1.1-.3.2-.5.2-.7 0-1.2-.5-1.2-1.1-.2-.7.3-1.2 1.1-1.2zm-1.2-.3c-.3.2-.5.5-.7.9v-1.5c.2.3.4.5.7.6z"/><path id="XMLID_1028_" class="st5" d="M553.7 90V78.5h-.7v1.2c-.5-.6-1.2-.9-1.9-.9s-1.4.8-1.4 1.5c0 .8.7 1.4 1.3 1.4.6 0 1-.4 1-1 0-.5-.4-.7-.8-.8-.2 0-.3.1-.4.3 0 .2.1.3.3.4.1 0 .2.1.2.1 0 .2-.1.4-.4.4-.3 0-.6-.3-.6-.7 0-.4.4-.9.8-.9.5 0 1.8.2 1.8 2.3 0 2-1.3 2.3-1.8 2.3-.3 0-.8-.4-.8-.9 0-.4.4-.7.6-.7.3 0 .4.2.4.4 0 0-.1.1-.2.1-.2 0-.3.2-.3.4s.2.3.4.3c.4 0 .8-.3.8-.8 0-.6-.5-1-1-1s-1 .4-1.2.9c-.2-.1-.4-.2-.8-.2-.6 0-1.1.2-1.5.6-.5.5-.7 1.2-.7 2 0 1.1-.1 1.3-.4 1.7-.1.1-.5.2-.7.1-.2-.1-.4-.2-.4-.5 0-.1 0-.2.1-.2.2-.1.6-.1.8-.1.2 0 .3-.1.4-.3 0-.2-.1-.3-.3-.4-.1 0-.9-.2-1.3.2-.1.1-.3.3-.3.7 0 .5.3.9.8 1.1h.1l-1.3 1c-.2.2-.8.6-1.3.6-.6 0-1.2-.4-1.2-1s.6-.8.7-.8c.3 0 .4 0 .4.3 0 .4-.4.4-.5.4-.2 0-.3.2-.3.4s.2.3.4.3c.4 0 1.1-.3 1.1-1s-.4-1-1-1c-.4 0-1.4.4-1.4 1.4 0 .6.4 1.1.9 1.3H540v.6h13.7zm-.6-.7h-2.2c.8 0 1.2-.6 1.2-1.1 0-.3 0-.5-.1-.7.5-.2 1-.6 1.2-1.1v2.9zm-6.9 0h-2.3c.4-.2.6-.4.7-.4l1.4-1c-.1.2-.1.4-.1.6-.1.3 0 .6.3.8zm1.3-2c1 0 1.4.4 1.7.9.1.1.1.2.2.3.2.4.4.9 1.1.9h-2.6c.2-.2.3-.5.3-.8 0-.6-.4-1-.9-1-.2 0-.3.1-.3.3 0 .2.1.3.3.3.2 0 .3.2.3.3 0 .2-.1.5-.4.5-.5 0-.7-.2-.7-.5s.3-1.2 1-1.2zm2.2-3.2c-.1.1-.3.4-.7.2-.1 0-.2-.1-.2-.2s.2-.2.2-.2c.2 0 .3-.1.3-.3 0-.2-.2-.3-.3-.3-.4 0-.8.4-.8.8 0 .1-.1.6.6.9.1 0 .1 0 .2.1l-1.4 1v-1c0-.6.2-1.2.5-1.5.3-.3.6-.4 1-.4.2 0 .4.1.5.2.2.1.1.5.1.7zm2.8 1.9c0 .6-.6 1.1-1.2 1.1-.2 0-.3-.1-.5-.2-.1-.1-.2-.2-.1-.3 0-.2.2-.4.4-.5.1-.1.2-.1.4 0s.4 0 .4-.2c.1-.2 0-.4-.2-.4-.3-.1-.7-.1-1 .1-.4.2-.6.6-.7 1 0 .3.1.6.3.8-.2.1-.3.2-.3.2-.1.1-.1.3.1.5.1.1.3.1.5 0 0 0 .2-.2.6-.2.2 0 .3 0 .3.5 0 .1-.2.5-.7.5-.3 0-.4-.2-.6-.6-.1-.1-.1-.3-.2-.4-.3-.4-.8-1.1-2.1-1.1l2.4-1.7s.3-.3 1.1-.3c.6-.2 1.1.3 1.1 1.2zm.6-2.2v1.5c-.1-.4-.4-.7-.7-.9.2-.2.5-.4.7-.6z"/><path id="XMLID_1026_" class="st7" d="M313.8 40h240v1h-240z"/><path id="XMLID_1025_" class="st32" d="M313.8 90l-10 10h260l-10-10z"/><path id="XMLID_1023_" class="st33" d="M313.8 40l-10-10h260l-10 10z"/><g id="XMLID_1019_"><path id="XMLID_1022_" class="st5" d="M429 80.6c-2.4-1-4.5.3-6.4 1.8s-3.2 2-3.2 2-2.1.7-3.4-.8c-.8-.9-.5-1.9-.2-2.5 0 .4.4.8.9.8s.9-.4.9-.9-.4-.9-.9-.9c-.1 0-.3 0-.4.1v-.1c-1.5.1-3 4.2.7 5.3 3.7 1 5.9-1.9 7.5-3.2 1.6-1.3 4.8-1.5 5.5.4.4 1.2-.1 1.9-.5 2.3v-.1c0-.5-.4-.9-.9-.9s-.9.4-.9.9.4.9.9.9c.2 0 .3-.1.5-.2 2.1-.9 2.3-3.8-.1-4.9z"/><path id="XMLID_1021_" class="st5" d="M398.5 80.6c2.4-1 4.5.3 6.4 1.8s3.2 2 3.2 2 2.1.7 3.4-.8c.8-.9.5-1.9.2-2.5 0 .4-.4.8-.9.8s-.9-.4-.9-.9.4-.9.9-.9c.1 0 .3 0 .4.1v-.1c1.5.1 3 4.2-.7 5.3-3.7 1-5.9-1.9-7.5-3.2-1.6-1.3-4.8-1.5-5.5.4-.4 1.2.1 1.9.5 2.3v-.1c0-.5.4-.9.9-.9s.9.4.9.9-.4.9-.9.9c-.2 0-.3-.1-.5-.2-2.1-.9-2.3-3.8.1-4.9z"/><circle id="XMLID_1020_" class="st5" cx="413.7" cy="86.1" r="1.2"/></g><g id="XMLID_12_"><text id="XMLID_18_" transform="translate(328.169 72.516)" class="st34 st35 st36">Datos de inters</text></g></g></g></svg>