<svg version="1.1" id="IMG_x5F_actividad" xmlns="http://www.w3.org/2000/svg" xmlns:xlink="http://www.w3.org/1999/xlink" x="0px" y="0px" width="274px" height="274px" viewBox="0 0 274 274" xml:space="preserve"><style type="text/css">.st0{fill:#FBD6D9;} .st1{fill:#FFFFFF;} .st2{fill:#F498A1;} .st3{fill:#F1848E;} .st4{fill:#ED5463;} .st5{fill:#A4795C;} .st6{fill:#956341;} .st7{fill:#B9E6F7;} .st8{clip-path:url(#XMLID_17_);} .st9{fill:#C38256;} .st10{fill:#C78B62;} .st11{fill:#451A00;} .st12{fill:#F6F7FA;} .st13{fill:#B16F43;} .st14{opacity:0.2;fill:#F6F7FA;} .st15{fill:#BD7645;} .st16{fill:none;stroke:#B16F43;stroke-linecap:round;stroke-miterlimit:10;} .st17{fill:none;stroke:#14C196;stroke-linecap:round;stroke-miterlimit:10;} .st18{fill:#AD92ED;} .st19{fill:#977BDC;} .st20{fill:none;stroke:#7651D1;stroke-linecap:round;stroke-miterlimit:10;} .st21{opacity:0.3;} .st22{fill:#9D6F50;}</style><g id="XMLID_2195_"><g id="XMLID_2196_"><path id="XMLID_3239_" class="st0" d="M0 0h274v274H0z"/><g id="XMLID_2197_"><circle id="XMLID_2198_" class="st1" cx="195.7" cy="208.2" r="8.9"/><circle id="XMLID_2199_" class="st1" cx="195.7" cy="151.3" r="8.9"/><path id="XMLID_2200_" class="st1" d="M223.9 57.2c-4.9 0-8.9 4-8.9 8.9s4 8.9 8.9 8.9 8.9-4 8.9-8.9c0-5-4-8.9-8.9-8.9z"/><circle id="XMLID_2201_" class="st1" cx="195.7" cy="37.8" r="8.9"/><path id="XMLID_2202_" class="st1" d="M223.9.3c-4.9 0-8.9 4-8.9 8.9s4 8.9 8.9 8.9 8.9-4 8.9-8.9-4-8.9-8.9-8.9z"/><circle id="XMLID_2203_" class="st1" cx="195.7" cy="94.6" r="8.9"/><path id="XMLID_2204_" class="st1" d="M166.8.3c-4.9 0-8.9 4-8.9 8.9s4 8.9 8.9 8.9 8.9-4 8.9-8.9-4-8.9-8.9-8.9z"/><path id="XMLID_2205_" class="st1" d="M166.8 57.2c-4.9 0-8.9 4-8.9 8.9s4 8.9 8.9 8.9 8.9-4 8.9-8.9c0-5-4-8.9-8.9-8.9z"/><path id="XMLID_2206_" class="st1" d="M166.8 113.9c-4.9 0-8.9 4-8.9 8.9s4 8.9 8.9 8.9 8.9-4 8.9-8.9c0-5-4-8.9-8.9-8.9z"/><path id="XMLID_2207_" class="st1" d="M166.8 227.6c-4.9 0-8.9 4-8.9 8.9s4 8.9 8.9 8.9 8.9-4 8.9-8.9-4-8.9-8.9-8.9z"/><path id="XMLID_2208_" class="st1" d="M166.8 170.7c-4.9 0-8.9 4-8.9 8.9s4 8.9 8.9 8.9 8.9-4 8.9-8.9-4-8.9-8.9-8.9z"/><path id="XMLID_2209_" class="st1" d="M271.4 9.2c0 2.5 1 4.7 2.6 6.3V2.9c-1.6 1.6-2.6 3.8-2.6 6.3z"/><path id="XMLID_2210_" class="st1" d="M274 242.8v-12.6c-1.6 1.6-2.6 3.8-2.6 6.3 0 2.4 1 4.7 2.6 6.3z"/><path id="XMLID_2211_" class="st1" d="M274 72.3V59.8c-1.6 1.6-2.6 3.8-2.6 6.3 0 2.4 1 4.6 2.6 6.2z"/><path id="XMLID_2212_" class="st1" d="M274 129v-12.6c-1.6 1.6-2.6 3.8-2.6 6.3s1 4.7 2.6 6.3z"/><path id="XMLID_2213_" class="st1" d="M274 185.9v-12.6c-1.6 1.6-2.6 3.8-2.6 6.3 0 2.4 1 4.7 2.6 6.3z"/><path id="XMLID_2214_" class="st1" d="M223.9 113.9c-4.9 0-8.9 4-8.9 8.9s4 8.9 8.9 8.9 8.9-4 8.9-8.9c0-5-4-8.9-8.9-8.9z"/><path id="XMLID_2215_" class="st1" d="M223.9 170.7c-4.9 0-8.9 4-8.9 8.9s4 8.9 8.9 8.9 8.9-4 8.9-8.9-4-8.9-8.9-8.9z"/><path id="XMLID_2216_" class="st1" d="M223.9 227.6c-4.9 0-8.9 4-8.9 8.9s4 8.9 8.9 8.9 8.9-4 8.9-8.9-4-8.9-8.9-8.9z"/><circle id="XMLID_2217_" class="st1" cx="252.3" cy="94.6" r="8.9"/><circle id="XMLID_2218_" class="st1" cx="252.3" cy="37.8" r="8.9"/><circle id="XMLID_2219_" class="st1" cx="252.3" cy="151.3" r="8.9"/><circle id="XMLID_2220_" class="st1" cx="252.3" cy="208.2" r="8.9"/><circle id="XMLID_2221_" class="st1" cx="24.9" cy="208.1" r="8.9"/><circle id="XMLID_2222_" class="st1" cx="24.9" cy="37.8" r="8.9"/><circle id="XMLID_2223_" class="st1" cx="24.9" cy="94.6" r="8.9"/><path id="XMLID_2224_" class="st1" d="M0 17.1c2.9-1.5 4.9-4.4 4.9-7.9 0-3.4-2-6.4-4.9-7.9v15.8z"/><circle id="XMLID_2225_" class="st1" cx="24.9" cy="151.3" r="8.9"/><path id="XMLID_2226_" class="st1" d="M53.1 57.1c-4.9 0-8.9 4-8.9 8.9s4 8.9 8.9 8.9 8.9-4 8.9-8.9-4-8.9-8.9-8.9z"/><path id="XMLID_2227_" class="st1" d="M53.1 170.7c-4.9 0-8.9 4-8.9 8.9s4 8.9 8.9 8.9 8.9-4 8.9-8.9-4-8.9-8.9-8.9z"/><path id="XMLID_2228_" class="st1" d="M53.1 227.6c-4.9 0-8.9 4-8.9 8.9s4 8.9 8.9 8.9 8.9-4 8.9-8.9c0-5-4-8.9-8.9-8.9z"/><path id="XMLID_2229_" class="st1" d="M53.1 113.8c-4.9 0-8.9 4-8.9 8.9s4 8.9 8.9 8.9 8.9-4 8.9-8.9-4-8.9-8.9-8.9z"/><path id="XMLID_2230_" class="st1" d="M53.1.3c-4.9 0-8.9 4-8.9 8.9s4 8.9 8.9 8.9 8.9-4 8.9-8.9S58 .3 53.1.3z"/><path id="XMLID_2231_" class="st1" d="M0 171.7v15.8c2.9-1.5 4.9-4.4 4.9-7.9s-2-6.4-4.9-7.9z"/><path id="XMLID_2232_" class="st1" d="M0 114.8v15.8c2.9-1.5 4.9-4.4 4.9-7.9 0-3.4-2-6.4-4.9-7.9z"/><path id="XMLID_2233_" class="st1" d="M0 58.1v15.8c2.9-1.5 4.9-4.4 4.9-7.9 0-3.4-2-6.4-4.9-7.9z"/><path id="XMLID_2234_" class="st1" d="M0 228.6v15.8c2.9-1.5 4.9-4.4 4.9-7.9s-2-6.5-4.9-7.9z"/><path id="XMLID_2235_" class="st1" d="M110 113.9c-4.9 0-8.9 4-8.9 8.9s4 8.9 8.9 8.9 8.9-4 8.9-8.9c0-5-4-8.9-8.9-8.9z"/><path id="XMLID_2236_" class="st1" d="M110 227.6c-4.9 0-8.9 4-8.9 8.9s4 8.9 8.9 8.9 8.9-4 8.9-8.9-4-8.9-8.9-8.9z"/><path id="XMLID_2237_" class="st1" d="M110 170.7c-4.9 0-8.9 4-8.9 8.9s4 8.9 8.9 8.9 8.9-4 8.9-8.9-4-8.9-8.9-8.9z"/><circle id="XMLID_2238_" class="st1" cx="138.4" cy="208.2" r="8.9"/><path id="XMLID_2239_" class="st1" d="M110 57.2c-4.9 0-8.9 4-8.9 8.9s4 8.9 8.9 8.9 8.9-4 8.9-8.9c0-5-4-8.9-8.9-8.9z"/><path id="XMLID_2240_" class="st1" d="M110 .3c-4.9 0-8.9 4-8.9 8.9s4 8.9 8.9 8.9 8.9-4 8.9-8.9-4-8.9-8.9-8.9z"/><circle id="XMLID_2241_" class="st1" cx="138.4" cy="37.8" r="8.9"/><circle id="XMLID_2242_" class="st1" cx="138.4" cy="94.6" r="8.9"/><circle id="XMLID_2243_" class="st1" cx="138.4" cy="151.3" r="8.9"/><circle id="XMLID_2244_" class="st1" cx="81.5" cy="208.1" r="8.9"/><circle id="XMLID_2245_" class="st1" cx="81.5" cy="37.8" r="8.9"/><circle id="XMLID_2246_" class="st1" cx="81.5" cy="94.6" r="8.9"/><circle id="XMLID_2247_" class="st1" cx="81.5" cy="151.3" r="8.9"/></g><path id="XMLID_3166_" class="st2" d="M0 249.6h274v24.6H0z"/><g id="XMLID_2248_"><path id="XMLID_3165_" class="st3" d="M4.5 249.6h5v24.6h-5z"/><path id="XMLID_3164_" class="st3" d="M24.5 249.6h5v24.6h-5z"/><path id="XMLID_3163_" class="st3" d="M44.5 249.6h5v24.6h-5z"/><path id="XMLID_3162_" class="st3" d="M64.5 249.6h5v24.6h-5z"/><path id="XMLID_3161_" class="st3" d="M84.5 249.6h5v24.6h-5z"/><path id="XMLID_3160_" class="st3" d="M104.5 249.6h5v24.6h-5z"/><path id="XMLID_3159_" class="st3" d="M124.5 249.6h5v24.6h-5z"/><path id="XMLID_3158_" class="st3" d="M144.5 249.6h5v24.6h-5z"/><path id="XMLID_3157_" class="st3" d="M164.5 249.6h5v24.6h-5z"/><path id="XMLID_3156_" class="st3" d="M184.5 249.6h5v24.6h-5z"/><path id="XMLID_3155_" class="st3" d="M204.5 249.6h5v24.6h-5z"/><path id="XMLID_3154_" class="st3" d="M224.5 249.6h5v24.6h-5z"/><path id="XMLID_3153_" class="st3" d="M244.5 249.6h5v24.6h-5z"/><path id="XMLID_3152_" class="st3" d="M264.5 249.6h5v24.6h-5z"/></g><path id="XMLID_3150_" class="st4" d="M0 241.9h274v7.7H0z"/></g><g id="XMLID_2249_"><g id="XMLID_2250_"><path id="XMLID_3148_" class="st5" d="M199.6 234.9h-85.2c-.6 0-1-.4-1-1V26.6c0-.6.4-1 1-1h85.2c.6 0 1 .4 1 1V234c0 .5-.5.9-1 .9z"/><path id="XMLID_3147_" class="st5" d="M201.2 240h-88.5c-.6 0-1 .4-1 1v3.6c0 .6.4 1 1 1h88.5c.6 0 1-.4 1-1V241c0-.6-.5-1-1-1z"/><path id="XMLID_3146_" class="st5" d="M112.1 245.5H92.3c-.6 0-1 .4-1 1v3.6c0 .6.4 1 1 1h19.8c.6 0 1-.4 1-1v-3.6c0-.6-.4-1-1-1z"/><path id="XMLID_3145_" class="st5" d="M112.1 245.5H92.3c-.6 0-1 .4-1 1v3.6c0 .6.4 1 1 1h19.8c.6 0 1-.4 1-1v-3.6c0-.6-.4-1-1-1z"/><path id="XMLID_3144_" class="st5" d="M221.7 245.8h-19.8c-.6 0-1 .4-1 1v3.6c0 .6.4 1 1 1h19.8c.6 0 1-.4 1-1v-3.6c0-.6-.5-1-1-1z"/><path id="XMLID_3143_" class="st6" d="M123 35.3h67.9v190H123z"/><path id="XMLID_3142_" class="st7" d="M125.9 38.2h62v184.2h-62z"/><g id="XMLID_2251_"><defs><path id="XMLID_538_" d="M125.9 38.2h62v184.2h-62z"/></defs><clipPath id="XMLID_17_"><use xlink:href="#XMLID_538_" overflow="visible"/></clipPath><g id="XMLID_2252_" class="st8"><path id="XMLID_2253_" class="st9" d="M142.3 133.8l4.1-9.7-.1-7.6 11.6-6.3 12.3 4.4.9 9.5 1.9 8.3c1.3 4.3 1.5 11.7 2.7 24.5l4.4 27.1 8.5 51.7-3.8 1.6-15.1-53.4-7.3-25.9-4.3-15.3v-.1h-.2l.6 15.8.8 22.9 2 53.5-4.6.8-8-53.7-3.5-23.2c0 .2-4.4-18.3-2.9-24.9z"/><path id="XMLID_2254_" class="st10" d="M171.1 83.9l11.4 34.2-7 3.9-6.2-32.7z"/><path id="XMLID_2255_" class="st11" d="M157.2 30c1 .1 11-6.4 20.4 10.4 5.2 9.3 2.8 21.9-4.2 34.3 0 0-6.4 11.1-10.9 11.1-16.5 0-24-18.7-24-18.7-5.2-9.1-4.4-40.1 18.7-37.1z"/><path id="XMLID_3138_" class="st9" d="M161.1 84.4l-2.9-20.8-6.9.1 1.7 19.9 4.9 6.4z"/><path id="XMLID_3137_" class="st9" d="M164 83.4s4.4 11.2.2 12.9c-19.3 8-15.6-12-14.8-12.1 1.1-.2 7-1.4 7-1.4l7.6.6z"/><path id="XMLID_3136_" class="st10" d="M142.1 85.2l-23.9 27.7 2.5 6.2 3.8-1.5 19.2-21.8.7 6.9s5.9-16.8 4.2-18.5c-.3-.4-6.1.9-6.5 1z"/><path id="XMLID_2256_" class="st12" d="M148.6 84.2l1.3-.2s-4.7 14.6 9.6 13.3c9.1-.8 4.9-14.1 4.9-14.1l1.7.2c.7.1 5.4 15.7 5.4 15.7l-.5 21.4s-9.6-7.7-12.9-7.6c-3 .1-12.2 8.4-12.2 8.4l-2.6-21.1c.1-.1 4.8-15.9 5.3-16z"/><path id="XMLID_3134_" class="st11" d="M170.4 44.4c-.5-1.1 24.1 32.5 12.6 48.4-9.4 13-7.9 17.5-5.9 24.7 1.8 6.3-13.8-16.3-15.7-27.1-1.9-10.8-1.5-26 1.4-32.9 3-6.9 9.3-9.5 7.6-13.1z"/><path id="XMLID_2257_" class="st9" d="M146 48.8c4.1-4.2 10.8-6.4 11.1-6.4 10.8 0 11.3-.5 16.9 10.3.3.5.6.9 1.1 1.2v.2c1 10.7-5.8 22.6-15.3 23.5-12.5 1.1-19.4-7.6-20.3-17 0-.8.2-7.1 6.5-11.8z"/><g id="XMLID_2258_"><ellipse id="XMLID_3132_" transform="rotate(174.867 147.37 60.116) scale(1.00001)" cx="147.4" cy="60.1" rx="1.6" ry="2.5"/><ellipse id="XMLID_3131_" transform="matrix(-.996 .08907 -.08907 -.996 336.683 101.064)" cx="166.1" cy="58" rx="1.6" ry="2.5"/><path id="XMLID_3130_" class="st13" d="M156.1 63.9c0 .3 2.7.2 2.7-.1 0-.3-.6-.5-1.4-.5-.7.1-1.3.3-1.3.6z"/><path id="XMLID_2259_" class="st11" d="M161.7 51l.2 2.1s3.7-1.2 4.9-1.2c2.2.1 4.3.8 4.3.8l-.7-2.1s-1.9-.8-3.9-.8c-1-.1-4.8 1.2-4.8 1.2z"/><path id="XMLID_2260_" class="st11" d="M151.1 51l-.2 2.1s-3.7-1.2-4.9-1.2c-2.2.1-4.3.8-4.3.8l.7-2.1s1.9-.8 3.9-.8c1-.1 4.8 1.2 4.8 1.2z"/></g><path id="XMLID_3126_" class="st9" d="M144.7 61.5c1.4 2.9 1.6 5.2-.4 6.2-2 .9-6.4 0-7.8-2.9-1.4-2.9-1-6.1 1-7 1.9-1 5.8.8 7.2 3.7z"/><path id="XMLID_2261_" class="st11" d="M157.6 39.6s3.2 9.1 10.8 12.7c7.6 3.6 7.9 11.3 5.5 17-2.3 5.7 12.3-11.7 7.4-21.4s-22.7-20-23.7-8.3z"/><path id="XMLID_2262_" class="st10" d="M182.5 118.1l-12.8-5.5c-1.4-1.3-4.4-4.6-4.4-4.6l-8.3-3.1-.4 1 5.9 3.1-6.8-.7-.7.3.5 1.6.7.7-1.4.6.4 1.6 1.4.5-1.8.6.5 1 12.4 1.3 9.8 7.5c5.1-.7 5-5.9 5-5.9z"/><path id="XMLID_3123_" class="st9" d="M170.2 61.5c-1.4 2.9-1.6 5.2.4 6.2 2 .9 6.4 0 7.8-2.9 1.4-2.9 1-6.1-1-7-1.9-1-5.8.8-7.2 3.7z"/><path id="XMLID_3122_" transform="rotate(-45.001 157.302 98.099)" class="st14" d="M71.4 92.9h171.8v10.4H71.4z"/><path id="XMLID_3121_" transform="rotate(-45.001 142.85 73.47)" class="st14" d="M56.9 70.5h171.8v5.9H56.9z"/><ellipse id="XMLID_2263_" class="st15" cx="158.5" cy="122.8" rx="0.5" ry="0.6"/><path id="XMLID_3114_" class="st16" d="M154.2 69.7s2.9-1.7 6.5-.6"/><path id="XMLID_2264_" class="st17" d="M151.4 126.3"/><g id="XMLID_2265_"><path id="XMLID_2266_" class="st18" d="M157.8 142.7s1.7 8.6 1.9 8.6c1.7 0 6.3-1.5 10.2-3.2 4.4-1.9 5.3-2.8 5.3-2.8l-1.9-13.7-2-5.7-25.9.3-3.8 8.2-.8 12.2s4.7 2.1 6.9 2.8c3.8 1.1 8.7 1.1 10.5 1.4.3.1-.4-8.1-.4-8.1z"/><circle id="XMLID_2267_" class="st19" cx="157.8" cy="128.1" r="1.2"/><path id="XMLID_2268_" class="st20" d="M165.1 126.6l8.4 5.3"/><path id="XMLID_2269_" class="st20" d="M150.7 126.8l-5.8 3.9"/></g><path id="XMLID_2270_" class="st10" d="M144.8 129.9s-.2-2-1-3L120 111.1s-4.5 2.3-1.5 9.1l20.8 8.6-.5 11.1 2.4 5.9 1.7.1-.7-6.3 1.3-5.3 1.1 3 1-.4-.8-7z"/><path id="XMLID_540_" transform="rotate(-45.001 155.154 118.73)" class="st14" d="M69.2 115.2H241v7.1H69.2z"/></g></g><path id="XMLID_311_" class="st21" d="M125.9 38.2h62v2.9h-62z"/><path id="XMLID_310_" class="st22" d="M200.6 120.9h7.8v130.5h-7.8z"/><path id="XMLID_309_" class="st22" d="M105.7 120.6h7.8v130.5h-7.8z"/></g><g id="XMLID_2271_"><path id="XMLID_307_" class="st11" d="M109.4 49.6c-.6-1.2 26.5 35.7 13.8 53.1-10.3 14.2-8.7 19.2-6.4 27.1 2 6.9-15.2-17.9-17.3-29.7-2.1-11.9-1.6-28.6 1.6-36.1 3.2-7.7 10.1-10.5 8.3-14.4z"/><path id="XMLID_102_" class="st9" d="M102.3 92.3s4.8 12.2.2 14.1c-21.1 8.8-17.1-13.2-16.2-13.3 1.2-.2 7.7-1.5 7.7-1.5l8.3.7z"/><path id="XMLID_101_" class="st9" d="M99.1 93.4L96 70.6l-7.6.1 1.9 21.8 5.4 7z"/><path id="XMLID_100_" class="st9" d="M81.2 68.3c1.5 3.2 1.7 5.7-.4 6.8-2.1 1-7 0-8.6-3.2-1.5-3.2-1.1-6.7 1.1-7.7 2.1-1.1 6.3.8 7.9 4.1z"/><path id="XMLID_99_" class="st10" d="M115 134.6l-16.2-19 3.2-2.3 20.6 17c.1.1-2.3 6.3-7.6 4.3z"/><path id="XMLID_98_" class="st10" d="M102.6 113.8c-.4-.3-2.4-7.6-2.4-7.6L93.7 99l-.9.8 4.2 5.9-6.3-4.1h-.9l-.3 1.8.4 1-1.6-.2-.4 1.7 1.1 1.2-2.1-.3-.1 1.3 12.9 8.5 2.9-2.8z"/><path id="XMLID_2272_" class="st10" d="M108.9 111.7l6.9 22.5 6.9-3.8-9.2-35c-.4-1.6-1.8-2.7-3.4-2.8l-6.2-.3-6.9 12.6 9.9 7.6 2-.8z"/><path id="XMLID_2273_" class="st9" d="M149.6 258.6s-15.8-1.1-20.7-2.9c0 0-.1 0-.2.1L115.1 173c-1.4-14.1-1.6-22.2-3-26.9l-2-9.1-1.4-5.1-25.3.6-.3 4.5-4.5 10.7c-1.6 7.2 3.1 27.5 3.1 27.5l11.9 79.5c-2 .2-20.4 2.1-20.4 2.1s-1.2 1.9-.7 2.1c.8.2 6.9 3.6 7.6 3.7 8.7.6 20-1.3 20-1.3l-.9-5.5h-.1l-3-81-.6-17.4h.2v.1l4.7 16.8 23.6 83.5v6.7s9.2.4 17.4-.3c.7-.1 7.9-3.1 8.7-3.3.6-.3-.5-2.3-.5-2.3z"/><path id="XMLID_26_" class="st10" d="M78.3 94.3l-26.2 30.4 2.8 6.8 4.2-1.6 21-24 .8 7.6s7.6-1.6 8.8-5.7c1.6-5.3-3.1-13.6-4.2-14.6-.4-.4-6.7.9-7.2 1.1z"/><path id="XMLID_2274_" class="st12" d="M85.5 93.1l1.4-.2s2.3 3.4 8.9 3.4c5 0 7-4.2 7-4.2l1.8.2c.4.1-2.6 2.5-3.2 11-.4 6 9.1 6.9 9.1 6.9l-.5 23.1-27.5.9-2.8-23.5s8.7-2.8 8.6-7.4c-.1-6.7-3.1-10.1-2.8-10.2z"/><path id="XMLID_2275_" class="st18" d="M95.5 157.3s1.3 7.5 1.5 7.5c1.8.1 18.1-4.6 17.9-5.7l-2.7-14.4-1.8-5.7-28.5.3-3.5 8.2v15l5 1.3c3.8.9 10.2 1.1 12.5 1.1.3.1-.4-7.6-.4-7.6z"/><path id="XMLID_2276_" class="st10" d="M81.3 143.3s-.2-2.2-1.1-3.3l-26.1-17.3s-4.9 2.5-1.6 9.9l22.8 9.4-.6 12.2 2.7 6.4 1.8.1-.8-6.9 1.4-5.8 1.5-4.7z"/><path id="XMLID_2277_" class="st11" d="M94.9 33.8c1.1.1 12.1-7 22.3 11.4 5.7 10.2 3 24-4.6 37.6 0 0-7 12.2-11.9 12.2-18 0-26.3-20.5-26.3-20.5-5.7-10.1-4.9-44 20.5-40.7z"/></g></g></g></svg>