<svg version="1.1" id="Capa_1" xmlns="http://www.w3.org/2000/svg" xmlns:xlink="http://www.w3.org/1999/xlink" x="0px" y="0px" width="270px" height="270px" viewBox="0 0 270 270" xml:space="preserve"><style type="text/css">.st0{fill:#ED5463;} .st1{fill:#FFEBBB;} .st2{fill:#FFE298;} .st3{clip-path:url(#SVGID_2_);} .st4{fill:#5D9BEC;} .st5{opacity:0.2;} .st6{fill:#4B89DC;} .st7{fill:#D79266;} .st8{fill:#A1D469;} .st9{fill:#512E17;} .st10{fill:#8F4C11;} .st11{fill:#DC4453;} .st12{fill:#FFFFFF;} .st13{fill:#8DC050;} .st14{fill:#CF7B46;} .st15{fill:#42322B;} .st16{fill:#49CFAE;} .st17{fill:#E1996A;} .st18{fill:#FB6E52;} .st19{fill:#543924;} .st20{fill:#DB844C;} .st21{fill:#FFCE54;} .st22{fill:#F6BB43;} .st23{fill:#E9AD46;} .st24{fill:#E6AB84;} .st25{fill:#9C6C4D;} .st26{fill:#A4795C;} .st27{fill:#FFC535;} .st28{fill:#E5E8D9;}</style><circle class="st0" cx="135" cy="135" r="135"/><circle class="st1" cx="135" cy="135" r="129.7"/><path class="st2" d="M26.7 206.4l36.9 36.9c5 3.3 10.3 6.3 15.8 8.9l-61.6-61.6c2.6 5.5 5.6 10.8 8.9 15.8zM9.3 167l93.8 93.8c2.9.7 5.8 1.4 8.8 1.9L7.3 158.2c.6 3 1.2 5.9 2 8.8zM5.3 134.2v.8c0 2.1.1 4.1.2 6.2l123.4 123.4c2.1.1 4.1.2 6.2.2h.8L5.3 134.2zM6.1 119.9L150 263.8c2-.2 4-.5 6-.8L7 113.9l-.9 6zM9.7 101.5l158.9 158.9c1.8-.5 3.6-1 5.3-1.5L11.2 96.1c-.6 1.8-1.1 3.6-1.5 5.4zM15.2 85.1l169.7 169.7 4.8-2.1L17.3 80.3l-2.1 4.8zM22.5 70.4l177.1 177.1c1.4-.8 2.9-1.7 4.3-2.6L25.1 66.1c-.9 1.4-1.8 2.8-2.6 4.3zM31.2 57.1l181.6 181.6 3.9-3L34.3 53.3c-1.1 1.2-2.1 2.5-3.1 3.8zM224.7 228.7c1.2-1.1 2.3-2.3 3.4-3.4L44.8 41.8c-1.2 1.1-2.3 2.3-3.4 3.4l183.3 183.5zM52.7 34.7l182.6 182.6c1-1.3 2-2.5 3-3.8L56.6 31.7c-1.3.9-2.6 2-3.9 3zM65.5 25.5l179.1 179.1c.9-1.4 1.8-2.8 2.6-4.3L69.7 22.9c-1.4.8-2.8 1.7-4.2 2.6zM79.6 17.7l172.7 172.7c.7-1.6 1.5-3.1 2.1-4.7L84.4 15.5c-1.6.7-3.2 1.4-4.8 2.2zM95.4 11.4l163.2 163.2c.6-1.8 1.1-3.5 1.6-5.3L100.7 9.9c-1.8.5-3.6 1-5.3 1.5zM113.1 7.1l149.8 149.8.9-6L119.1 6.2c-2.1.3-4.1.6-6 .9zM135 5.3h-1.8l131.5 131.5V135c0-1.7 0-3.4-.1-5.2L140.2 5.4c-1.8-.1-3.5-.1-5.2-.1zM157 7.1L262.9 113c-.5-2.9-1.1-5.8-1.8-8.7L165.7 8.9c-2.9-.7-5.8-1.3-8.7-1.8zM188.7 16.9l64.4 64.4c-2.3-5.2-5-10.1-8-14.9l-41.5-41.5c-4.7-3-9.7-5.7-14.9-8z"/><g><defs><circle id="SVGID_1_" cx="135" cy="135" r="129.7"/></defs><clipPath id="SVGID_2_"><use xlink:href="#SVGID_1_" overflow="visible"/></clipPath><g class="st3"><path class="st4" d="M146.8 209.4h100v13.3h-100zM146.8 181.1h100v20h-100zM169.5 140c1.3-3 4.1-4.9 7.3-4.9 3.1 0 5.8 1.6 7.2 4.2.4-6.8 6.1-12.3 13-12.3 6.8 0 12.4 5.2 12.9 11.9 1.4-2.4 4-3.7 7.1-3.7 3.2 0 6 1.8 7.3 4.8H247v23H147v-23h22.5z"/><path class="st5" d="M147 140h11v23h-11zM147 181h11v20h-11zM236 140h11v23h-11zM236 181h11v20h-11z"/><g><path class="st4" d="M144.2 129.7h10.3v5.5h-10.3z"/><path class="st5" d="M144.2 129.7h10.3v.8h-10.3z"/><path class="st6" d="M155.8 129.7h-13c-.6 0-1-.4-1-1v-3c0-.6.4-1 1-1h13c.6 0 1 .4 1 1v3c0 .5-.4 1-1 1zM153.8 137h2c.6 0 1-.4 1-1s-.4-1-1-1h-13c-.6 0-1 .4-1 1s.4 1 1 1h2c-1.7 0-2.8 1.5-2.8 3.1v22.8c0 1.7 1.2 3.1 2.8 3.1h9c1.7 0 3.2-1.4 3.2-3.1v-22.8c0-1.6-1.5-3.1-3.2-3.1zM142 223v-41c0-.6.4-1 1-1-.6 0-1-.4-1-1v-3c0-.6.4-1 1-1-.6 0-1-.4-1-1v-3c0-.6.4-1 1-1-.6 0-1-.4-1-1v-3c0-.6.3-1 .8-1h13c.6 0 1.2.4 1.2 1v3c0 .6-.4 1-1 1 .6 0 1 .4 1 1v3c0 .6-.4 1-1 1 .6 0 1 .4 1 1v3c0 .6-.4 1-1 1 .6 0 1 .4 1 1v41h-15z"/><circle class="st6" cx="149.3" cy="117.2" r="7.5"/><path class="st5" d="M155.8 170.9h-13c-.6 0-1-.4-1-1.4h15c0 1-.5 1.4-1 1.4zM155.8 175.9h-13c-.6 0-1-.4-1-1.4h15c0 1-.5 1.4-1 1.4zM155.8 180.9h-13c-.6 0-1-.4-1-1.4h15c0 1-.5 1.4-1 1.4zM156.7 164c-.4 1-1.5 2-2.8 2h-9c-1.3 0-2.4-1-2.8-2h14.6z"/></g><g><path class="st4" d="M239.8 129.7h10.3v5.5h-10.3z"/><path class="st5" d="M239.8 129.7h10.3v.8h-10.3z"/><path class="st6" d="M251.5 129.7h-13c-.6 0-1-.4-1-1v-3c0-.6.4-1 1-1h13c.6 0 1 .4 1 1v3c0 .5-.5 1-1 1zM249.5 137h2c.6 0 1-.4 1-1s-.4-1-1-1h-13c-.6 0-1 .4-1 1s.4 1 1 1h2c-1.7 0-3.5 1.5-3.5 3.1v22.8c0 1.7 1.8 3.1 3.5 3.1h9c1.7 0 2.5-1.4 2.5-3.1v-22.8c0-1.6-.9-3.1-2.5-3.1zM237 223v-41c0-.6.4-1 1-1-.6 0-1-.4-1-1v-3c0-.6.4-1 1-1-.6 0-1-.4-1-1v-3c0-.6.4-1 1-1-.6 0-1-.4-1-1v-3c0-.6.9-1 1.5-1h13c.6 0 .5.4.5 1v3c0 .6-.4 1-1 1 .6 0 1 .4 1 1v3c0 .6-.4 1-1 1 .6 0 1 .4 1 1v3c0 .6-.4 1-1 1 .6 0 1 .4 1 1v41h-15z"/><path class="st5" d="M251.4 170.9h-13c-.6 0-1-.4-1-1.4h15c0 1-.4 1.4-1 1.4zM251.4 175.9h-13c-.6 0-1-.4-1-1.4h15c0 1-.4 1.4-1 1.4zM251.4 180.9h-13c-.6 0-1-.4-1-1.4h15c0 1-.4 1.4-1 1.4zM252.3 164c-.4 1-1.5 2-2.8 2h-9c-1.3 0-2.4-1-2.8-2h14.6z"/><circle class="st6" cx="245" cy="117.2" r="7.5"/></g><g><path class="st4" d="M27.8 209.4h100v13.3h-100zM27.8 181.1h100v20h-100zM50.5 140c1.3-3 4.1-4.9 7.3-4.9 3.1 0 5.8 1.6 7.2 4.2.4-6.8 6.1-12.3 13-12.3 6.8 0 12.4 5.2 12.9 11.9 1.4-2.4 4-3.7 7.1-3.7 3.2 0 6 1.8 7.3 4.8H128v23H28v-23h22.5z"/><path class="st5" d="M28 140h11v23H28zM28 181h11v20H28zM117 140h11v23h-11zM117 181h11v20h-11z"/><g><path class="st4" d="M25.2 129.7h10.3v5.5H25.2z"/><path class="st5" d="M25.2 129.7h10.3v.8H25.2z"/><path class="st6" d="M36.8 129.7h-13c-.6 0-1-.4-1-1v-3c0-.6.4-1 1-1h13c.6 0 1 .4 1 1v3c0 .5-.4 1-1 1zM34.8 137h2c.6 0 1-.4 1-1s-.4-1-1-1h-13c-.6 0-1 .4-1 1s.4 1 1 1h2c-1.7 0-2.8 1.5-2.8 3.1v22.8c0 1.7 1.2 3.1 2.8 3.1h9c1.7 0 3.2-1.4 3.2-3.1v-22.8c0-1.6-1.5-3.1-3.2-3.1zM23 223v-41c0-.6.4-1 1-1-.6 0-1-.4-1-1v-3c0-.6.4-1 1-1-.6 0-1-.4-1-1v-3c0-.6.4-1 1-1-.6 0-1-.4-1-1v-3c0-.6.3-1 .8-1h13c.6 0 1.2.4 1.2 1v3c0 .6-.4 1-1 1 .6 0 1 .4 1 1v3c0 .6-.4 1-1 1 .6 0 1 .4 1 1v3c0 .6-.4 1-1 1 .6 0 1 .4 1 1v41H23z"/><circle class="st6" cx="30.3" cy="117.2" r="7.5"/><path class="st5" d="M36.8 170.9h-13c-.6 0-1-.4-1-1.4h15c0 1-.5 1.4-1 1.4zM36.8 175.9h-13c-.6 0-1-.4-1-1.4h15c0 1-.5 1.4-1 1.4zM36.8 180.9h-13c-.6 0-1-.4-1-1.4h15c0 1-.5 1.4-1 1.4zM37.7 164c-.4 1-1.5 2-2.8 2h-9c-1.3 0-2.4-1-2.8-2h14.6z"/></g><g><path class="st4" d="M120.8 129.7h10.3v5.5h-10.3z"/><path class="st5" d="M120.8 129.7h10.3v.8h-10.3z"/><path class="st6" d="M132.5 129.7h-13c-.6 0-1-.4-1-1v-3c0-.6.4-1 1-1h13c.6 0 1 .4 1 1v3c0 .5-.5 1-1 1zM130.5 137h2c.6 0 1-.4 1-1s-.4-1-1-1h-13c-.6 0-1 .4-1 1s.4 1 1 1h2c-1.7 0-3.5 1.5-3.5 3.1v22.8c0 1.7 1.8 3.1 3.5 3.1h9c1.7 0 2.5-1.4 2.5-3.1v-22.8c0-1.6-.9-3.1-2.5-3.1zM118 223v-41c0-.6.4-1 1-1-.6 0-1-.4-1-1v-3c0-.6.4-1 1-1-.6 0-1-.4-1-1v-3c0-.6.4-1 1-1-.6 0-1-.4-1-1v-3c0-.6.9-1 1.5-1h13c.6 0 .5.4.5 1v3c0 .6-.4 1-1 1 .6 0 1 .4 1 1v3c0 .6-.4 1-1 1 .6 0 1 .4 1 1v3c0 .6-.4 1-1 1 .6 0 1 .4 1 1v41h-15z"/><path class="st5" d="M132.4 170.9h-13c-.6 0-1-.4-1-1.4h15c0 1-.4 1.4-1 1.4zM132.4 175.9h-13c-.6 0-1-.4-1-1.4h15c0 1-.4 1.4-1 1.4zM132.4 180.9h-13c-.6 0-1-.4-1-1.4h15c0 1-.4 1.4-1 1.4zM133.3 164c-.4 1-1.5 2-2.8 2h-9c-1.3 0-2.4-1-2.8-2h14.6z"/><circle class="st6" cx="126" cy="117.2" r="7.5"/></g></g><g><path class="st7" d="M21.7 227.9l17.4-48.6c-3.6-8.1-7.8-19.2-14.9-20.7-.5.4-.9.7-1.3 1.3L5.4 219.1l.2.1c-.2 2.7 0 5 0 5l16.1 3.7zM121.4 231.6L107.3 182c4.2-7.8 9-18.7 16.3-19.6.5.4.8.7 1.2 1.4l13.5 60.2h-.3c0 2.7-.3 5-.3 5l-16.3 2.6z"/><path class="st8" d="M121.7 150.8c-10.6-8.5-35.6-17.2-49.1-16.7-15.9.7-38.8 13.8-46.5 21.9-2.2 2.1-3.8 3.8-4.5 5.1L9.7 187.6c4.9 3.7 18.4 9.5 24.1 12.1l.8-1.4c0 2.7 0 5.5.4 10.3.5 5.6.3 13-.2 21-.7 10.9 80 11.3 81.2.2l-.4.6c.7-14 .4-23.4 1.3-31.6 0 0 17-9.4 21.1-12.2 0 0-9.5-25.5-16.3-35.8z"/><path class="st9" d="M55 59.5S40.8 56 40.3 70.6c-.5 14.7 2.5 43 6.1 46 3.5 3 52.9 6.3 55.4 1.3 2.5-5.1 7.3-47.8 3.8-53.4C102 59 61 53.4 55 59.5z"/><path class="st7" d="M71.8 57.2c-18.7-.1-29.6 18.2-29 37.9.5 17.3 3.9 33.7 19.6 38.6l.1 4.7 12.4 6.2 10.9-6.3-.1-4.9c10.2-3.3 18-11 18.7-24.3 1.9-35.8-4-51.7-32.6-51.9z"/><path class="st7" d="M49.9 102c2.1 4.7 2.2 8.4-1 9.8-3.1 1.4-10.1-.4-12.1-5.1-2.1-4.7-1.2-9.7 1.9-11.1 3.2-1.4 9.1 1.7 11.2 6.4z"/><path d="M93.8 95.9c-.1 2.1-1.3 3.7-2.7 3.7-1.5 0-2.6-1.8-2.5-3.8.1-2.1 1.3-3.7 2.7-3.7 1.5 0 2.6 1.7 2.5 3.8zM67.6 96.2c-.1 2.1-1.3 3.7-2.7 3.7-1.5 0-2.6-1.8-2.5-3.8.1-2.1 1.3-3.7 2.7-3.7 1.4 0 2.5 1.7 2.5 3.8z"/><path class="st9" d="M72.2 82.9s-7-.1-10.9 1.1c-2.8.9-7.1 2.7-7.1 2.7l2 3.2s3.9-.3 7.1-.8c4.7-.7 8.2-.3 8.2-.3l.7-5.9zM85.3 83.5s6.3-.5 9.8.3c2.6.6 6.5 1.9 6.5 1.9l-1.7 3s-3.6 0-6.4-.3c-4.3-.4-7.4.3-7.4.3l-.8-5.2z"/><path class="st10" d="M107.3 60.3c-.3 0-.7.1-1 .2.3 0 .7-.1 1-.2z"/><path class="st9" d="M104.2 60.3c-.3.1-.6.1-1 .2.3-.1.7-.1 1-.2 2.1-.6 1.4-2.5-1-2.8 1.4-3.6-2.1-5.1-5.2-4.7-.5-4.1-4.2-4.3-6.7-1.6.7-4.9-8.6-4.5-8.1-.3-1.2-1.5-4.7.1-6.5 1.9-1.6-2.2-4.3-3.2-6.6-1.5-.9-3.5-5.6-3-8.1-1.5-3.4-4.4-8-3.2-9.6 1.9-3.9-3.4-6.9 2.8-6.5 6.6-.7-.8-2.5-.7-3.2 1.2-3.7-.4-4.7 4.4-2.9 6.9-4.5.5-1.5 9 .5 8.5.6 8.7 2.2 28.4 3.1 29.9 1.1 1.8 2.8 1.4 3.4 0 .5-1.2.1-23.3 1.4-32 1.7-.8 3.1-1.7 3-3.2 2.6.2 5.2-.6 5.1-3.5 1.1-.4 2.8-.8 3.9-1 1.1 2.3 3.6 2.4 5.6 1.5.9 3.3 4.3 4.2 7.1 2.5-.1 4.8 9.9 4.6 8.7-1 2.5.4 4.7-.7 4.5-3.5.2 2 1.5 3 3.5 3-.6 4.5 2.4 6.4 6.2 4.2 1.2 1.9 3.5 1.7 5.6.7-.1-.4-.3-.8-.4-1.3 3.2-.4 7.6-.2 5.2-4 4.5-1.9 2.3-7.2-2-6.9z"/><path class="st11" d="M80.1 123.3c-5.2.6-11.7-1.1-13.4-8.2h22.7c.1 0-2.3 7.4-9.3 8.2z"/><path class="st12" d="M67 115c2.7 2.9 7.1 3.8 12.7 3.4 8.7-.6 9.6-3.3 9.6-3.3L67 115z"/><path class="st13" d="M92.8 140.3c-.2-.3.4-1.1 0-1.2l-9.2 15.2s-9.2-10.3-9.9-9.5l-9.5 9.9-13.1-14.4c-.1.5.2.6.1 1l11.9 17.9 10.7-11.6 9.7 10.4 9.3-17.7z"/><path class="st14" d="M76.6 106.4c0-.7 1.3-1.3 2.7-1.2s2.6.7 2.6 1.5c0 .7-5.3.5-5.3-.3z"/></g><g><path class="st15" d="M228 94s16.9 34.7 17.2 91.7c.1 10.5-65.1 7.4-81.1 3.2-4.4-1.1-9.2-74.5 1.4-93.5 8-14.3 37-28.7 62.5-1.4z"/><path class="st16" d="M175.4 197.4l-8.2 14.7-10.2-2.6 16.1-42.7c1.1-1.5 3.1-2.7 5.6-3.3 5.3-1.2 14.9-3 21.6-2.5 8 .6 19.6 3.6 24.4 5 1.9.7 3.6 1.9 5 3.7l24.4 36.9s-1.7 3.2-2.7 3.8c-1.6 1-7.4 1.7-7.4 1.7l-22.9-26.8c-.1.4 2 25 2.5 42.2.2 7-54.9 8.8-53.5.2 1.9-11.2 3.5-21.5 5.3-30.3z"/><path class="st17" d="M162.7 116c.8-17.3 12.3-29.4 29.6-28.6 17.3.8 29.4 10.6 28.6 27.9-.5 10.7-4.8 22.8-12.7 30.3l-.4 16.2c2.5.5 3.9 2 3.5 7.2-.6 8.5-6.3 11.2-12.2 10.9-9-.5-9.7-6.3-9.8-14.8 0-3 2.1-3.9 5-4.1l.8-8.6c-1.9.4-4 .5-6.1.4-15.3-.6-27.1-19.5-26.3-36.8z"/><path class="st18" d="M180.8 194.6c5.9-13.9 15.4-4.4 17.1-2.1 1.9-1.7 13.8-10.9 16.3 4.6 2.2 13.6-16.8 23.5-18 25.1 0 .1-.1.1-.1 0 0 .1-.1.1-.1 0-1.1-1.8-20.8-14.5-15.2-27.6z"/><ellipse transform="rotate(2.55 203.04 122.144) scale(.99999)" cx="203" cy="122.2" rx="2.6" ry="4"/><ellipse transform="rotate(2.55 172.627 120.149) scale(.99999)" cx="172.6" cy="120.2" rx="2.6" ry="4"/><path class="st15" d="M194.8 76.3c-36.4.9-32 34.8-32 34.8s13.8-11 22.8-16.5c3.8 13.2 27.6 35.1 27.6 35.1s-1.4-8.1-5.4-22.3c7.2 11 12.5 23.8 14.1 28.2 1.8 4.6 5-11.8 5-11.8 9.9-30.4-4.4-48.2-32.1-47.5z"/><path class="st19" d="M178.5 113.1l.6-.8c-6.3-4.4-10.9-.3-10.9-.3l.7.7c.1-.1 3.9-3.5 9.6.4z"/><path class="st20" d="M187.6 130.6c0-.7-1.2-1.2-2.6-1.2-1.4 0-2.6.5-2.6 1.2s5.2.6 5.2 0z"/><path class="st17" d="M154.1 213.5l-3.1-60.1 7.3-.1 7.9 59.8s-9.2 9.6-12.1.4z"/><path class="st17" d="M157 163.8c.5-2.3 2.7-11.7 2.7-11.7l-5.2-15.2-2 .9 2.5 12-6.9-9.8-5.7-10.5-2.5 1.4 6.3 14.9-7.3-4-1.4 2.9 1.4 1.8-2-.2-.9 2.1 16.9 20.5 4.1-5.1z"/><ellipse class="st17" cx="219.8" cy="129.9" rx="4.3" ry="5.6"/><path class="st11" d="M185 146c5.4.2 9.2-2.5 10.8-8.6l-19.6-.5c.1.1 1.7 8.9 8.8 9.1z"/><path class="st12" d="M195.6 137.3c-2.4 2.4-6.1 3.5-11 3.4-3.9-.1-6.4-1.5-8-3.1-.2-.4-.2-.7-.2-.7l19.2.4z"/><path class="st21" d="M205 205.5c-.8 2.1-2.9 2.1-3.6 0l-8.8-25.4h20.9l-8.5 25.4z"/><path class="st22" d="M200.4 186.8v4.2h-4.1l.2.5h3.9v4.2H198l.2.5h2.3v4.2h-.8l.2.5h.7v1.9l.5 1.5v-3.4h4.2v4l.5-1.5v-2.5h.8l.2-.5h-1v-4.2h2.4l.2-.5h-2.6v-4.2h4l.2-.5h-4.2v-4.2h4.2v4.2l.5-1.5v-2.7h.9l.2-.5h-1.1v-4.2h2.5l.2-.5h-2.7v-1.4h-.5v1.4h-4.2v-1.4h-.5v1.4h-4.2v-1.4h-.5v1.4h-4.2v-1.4h-.5v1.4h-2.6l.2.5h2.5v4.2h-1l.2.5h.8v2.4l.5 1.5v-3.9h3.9zm0-.5h-4.2v-4.2h4.2v4.2zm5.3-4.2h4.2v4.2h-4.2v-4.2zm-.5 4.2H201v-4.2h4.2v4.2zm-4.3 9.9h4.2v4.2h-4.2v-4.2zm0-4.7h4.2v4.2h-4.2v-4.2zm0-.5v-4.2h4.2v4.2h-4.2z"/><path class="st23" d="M201.3 205.5l-.1-.3h3.9l-.1.3c0 .1 0 .1-.1.2h-3.5c0-.1 0-.2-.1-.2z"/><g><circle class="st0" cx="195.3" cy="176.9" r="4.4"/><circle class="st0" cx="203" cy="172.2" r="9.2"/><circle class="st0" cx="210.8" cy="176.9" r="4.4"/></g><g><path class="st24" d="M248.8 219.3L215 199.4l3.9-6.1 32.5 15.7z"/><path class="st24" d="M221.3 196.3c-1.3-2-6.6-10.1-6.6-10.1l-2.5-1.5-1.8 2-.6 1.2-15.5-2.9-.1 3.8 6.9.8-6.9.5.5 2.7 7.5.4-7.3.7.7 3.4 6-.2-5.8.7.8 2.9 25.3 2-.6-6.4z"/></g><path class="st0" d="M193.9 187.2c0 .7.6 1.3 1.3 1.3.7 0 1.3-.6 1.3-1.3v-10.3c0-.7-.6-1.3-1.3-1.3-.7 0-1.3.6-1.3 1.3v10.3z"/></g><g><path class="st25" d="M7.6 228.8h260v37.8H7.6z"/><path class="st5" d="M7.6 224.4h260v8.6H7.6z"/><path class="st26" d="M7.6 222.1h260v8.6H7.6z"/></g></g></g><g><path class="st0" d="M81.1 200.7c-.4.7-1.3 1-2.1.6-.7-.4-1-1.3-.6-2.1l9.1-16.7c.4-.7 1.3-1 2.1-.6.7.4 1 1.3.6 2.1l-9.1 16.7z"/><path class="st22" d="M64.6 203.6c-.8-.9-.9-2.4-.1-3.7 1-1.7 3.2-2 4.8-1l13.3 8.9-20-2.4c0-1.4 2-1.8 2-1.8z"/><path class="st21" d="M69.9 192.7c-1.1 1.6-.6 3.8 1 4.8l6.9 4.6c1.6 1.1 3.8.6 4.8-1 1.1-1.6.6-3.8-1-4.8l-6.9-4.6c-1.5-1-3.7-.6-4.8 1z"/><path class="st21" d="M78.6 202.2s7.8-8.5-4.5-15.6c0 0 1.7 3-.5 4.9-2.2 1.9-5.4 5.3-1 7.1 4.4 1.9 6 3.6 6 3.6z"/><path class="st27" d="M67.4 196.3c-1.1 1.6-.6 3.8 1 4.8l11.1 7.4c1.6 1.1 3.8.7 4.8-1 1.1-1.6.6-3.8-1-4.8l-11.1-7.4c-1.5-1-3.7-.6-4.8 1z"/><path class="st12" d="M64.9 219.9l-3.2-14.6h25l-3.2 14.6z"/><path class="st28" d="M62.2 207.8l-.4-1.8h24.7l-.4 1.8z"/><path class="st12" d="M61.7 205.3h25v1.8h-25zM64.8 219.9h18.7v1.8H64.8z"/><path class="st28" d="M64.8 219.9h18.7v.3H64.8z"/></g></svg>