<svg version="1.1" id="IMG_x5F_actividad" xmlns="http://www.w3.org/2000/svg" xmlns:xlink="http://www.w3.org/1999/xlink" x="0px" y="0px" width="274px" height="274px" viewBox="0 0 274 274" xml:space="preserve"><style type="text/css">.st0{fill:#FBD6D9;} .st1{fill:#FFFFFF;} .st2{fill:#F498A1;} .st3{fill:#F1848E;} .st4{fill:#ED5463;} .st5{fill:#3BAFDA;} .st6{fill:#16A0D3;} .st7{fill:#B7BBC4;} .st8{fill:#2E2E2B;} .st9{fill:#F6F7FA;} .st10{fill:#E1996A;} .st11{fill:#482D21;} .st12{fill:#DA8249;} .st13{fill:none;stroke:#DA8249;stroke-width:2;stroke-linecap:round;stroke-miterlimit:10;} .st14{fill:#F9B500;} .st15{fill:#F7E4C3;} .st16{fill:#FFDC00;} .st17{opacity:0.54;fill:#F6A500;} .st18{fill:#333333;} .st19{fill:#451A00;} .st20{fill:#BB825C;} .st21{fill:#CE7021;} .st22{fill:#C38256;} .st23{fill:#4B89DC;} .st24{fill:#3867A5;} .st25{fill:#6FA1E3;} .st26{fill:#1A1A1A;} .st27{fill:#B16F43;} .st28{fill:#DC4453;} .st29{fill:#42281C;} .st30{fill:#977BDC;} .st31{fill:#AC6841;} .st32{fill:#434A54;} .st33{clip-path:url(#XMLID_19_);} .st34{fill-rule:evenodd;clip-rule:evenodd;fill:#565C65;} .st35{fill-rule:evenodd;clip-rule:evenodd;fill:#AD92ED;} .st36{fill-rule:evenodd;clip-rule:evenodd;fill:#00A380;} .st37{fill-rule:evenodd;clip-rule:evenodd;fill:#C2AB94;} .st38{fill:#49CFAE;} .st39{fill:#A86037;} .st40{fill:#B06F4A;} .st41{fill:#6FD9BF;} .st42{fill:#D79266;} .st43{fill:#4D4246;} .st44{fill:#A1D469;} .st45{fill:#66585E;} .st46{fill:#543924;} .st47{fill:#DE7663;} .st48{fill:#D1814E;} .st49{fill:#CE1F33;}</style><g id="XMLID_1825_"><g id="XMLID_1826_"><path id="XMLID_3548_" class="st0" d="M0 0h274v274H0z"/><g id="XMLID_1827_"><circle id="XMLID_1828_" class="st1" cx="195.7" cy="208.2" r="8.9"/><circle id="XMLID_1829_" class="st1" cx="195.7" cy="151.3" r="8.9"/><path id="XMLID_1830_" class="st1" d="M223.9 57.2c-4.9 0-8.9 4-8.9 8.9s4 8.9 8.9 8.9 8.9-4 8.9-8.9c0-5-4-8.9-8.9-8.9z"/><circle id="XMLID_1831_" class="st1" cx="195.7" cy="37.8" r="8.9"/><path id="XMLID_1832_" class="st1" d="M223.9.3c-4.9 0-8.9 4-8.9 8.9s4 8.9 8.9 8.9 8.9-4 8.9-8.9-4-8.9-8.9-8.9z"/><circle id="XMLID_1833_" class="st1" cx="195.7" cy="94.6" r="8.9"/><path id="XMLID_1834_" class="st1" d="M166.8.3c-4.9 0-8.9 4-8.9 8.9s4 8.9 8.9 8.9 8.9-4 8.9-8.9-4-8.9-8.9-8.9z"/><path id="XMLID_1835_" class="st1" d="M166.8 57.2c-4.9 0-8.9 4-8.9 8.9s4 8.9 8.9 8.9 8.9-4 8.9-8.9c0-5-4-8.9-8.9-8.9z"/><path id="XMLID_1836_" class="st1" d="M166.8 113.9c-4.9 0-8.9 4-8.9 8.9s4 8.9 8.9 8.9 8.9-4 8.9-8.9c0-5-4-8.9-8.9-8.9z"/><path id="XMLID_1837_" class="st1" d="M166.8 227.6c-4.9 0-8.9 4-8.9 8.9s4 8.9 8.9 8.9 8.9-4 8.9-8.9-4-8.9-8.9-8.9z"/><path id="XMLID_1838_" class="st1" d="M166.8 170.7c-4.9 0-8.9 4-8.9 8.9s4 8.9 8.9 8.9 8.9-4 8.9-8.9-4-8.9-8.9-8.9z"/><path id="XMLID_1839_" class="st1" d="M271.4 9.2c0 2.5 1 4.7 2.6 6.3V2.9c-1.6 1.6-2.6 3.8-2.6 6.3z"/><path id="XMLID_1840_" class="st1" d="M274 242.8v-12.6c-1.6 1.6-2.6 3.8-2.6 6.3 0 2.4 1 4.7 2.6 6.3z"/><path id="XMLID_1841_" class="st1" d="M274 72.3V59.8c-1.6 1.6-2.6 3.8-2.6 6.3 0 2.4 1 4.6 2.6 6.2z"/><path id="XMLID_1842_" class="st1" d="M274 129v-12.6c-1.6 1.6-2.6 3.8-2.6 6.3s1 4.7 2.6 6.3z"/><path id="XMLID_1843_" class="st1" d="M274 185.9v-12.6c-1.6 1.6-2.6 3.8-2.6 6.3 0 2.4 1 4.7 2.6 6.3z"/><path id="XMLID_1844_" class="st1" d="M223.9 113.9c-4.9 0-8.9 4-8.9 8.9s4 8.9 8.9 8.9 8.9-4 8.9-8.9c0-5-4-8.9-8.9-8.9z"/><path id="XMLID_1845_" class="st1" d="M223.9 170.7c-4.9 0-8.9 4-8.9 8.9s4 8.9 8.9 8.9 8.9-4 8.9-8.9-4-8.9-8.9-8.9z"/><path id="XMLID_1846_" class="st1" d="M223.9 227.6c-4.9 0-8.9 4-8.9 8.9s4 8.9 8.9 8.9 8.9-4 8.9-8.9-4-8.9-8.9-8.9z"/><circle id="XMLID_1847_" class="st1" cx="252.3" cy="94.6" r="8.9"/><circle id="XMLID_1848_" class="st1" cx="252.3" cy="37.8" r="8.9"/><circle id="XMLID_1849_" class="st1" cx="252.3" cy="151.3" r="8.9"/><circle id="XMLID_1850_" class="st1" cx="252.3" cy="208.2" r="8.9"/><circle id="XMLID_1851_" class="st1" cx="24.9" cy="208.1" r="8.9"/><circle id="XMLID_1852_" class="st1" cx="24.9" cy="37.8" r="8.9"/><circle id="XMLID_1853_" class="st1" cx="24.9" cy="94.6" r="8.9"/><path id="XMLID_1854_" class="st1" d="M0 17.1c2.9-1.5 4.9-4.4 4.9-7.9 0-3.4-2-6.4-4.9-7.9v15.8z"/><circle id="XMLID_1855_" class="st1" cx="24.9" cy="151.3" r="8.9"/><path id="XMLID_1856_" class="st1" d="M53.1 57.1c-4.9 0-8.9 4-8.9 8.9s4 8.9 8.9 8.9 8.9-4 8.9-8.9-4-8.9-8.9-8.9z"/><path id="XMLID_1857_" class="st1" d="M53.1 170.7c-4.9 0-8.9 4-8.9 8.9s4 8.9 8.9 8.9 8.9-4 8.9-8.9-4-8.9-8.9-8.9z"/><path id="XMLID_1858_" class="st1" d="M53.1 227.6c-4.9 0-8.9 4-8.9 8.9s4 8.9 8.9 8.9 8.9-4 8.9-8.9c0-5-4-8.9-8.9-8.9z"/><path id="XMLID_1859_" class="st1" d="M53.1 113.8c-4.9 0-8.9 4-8.9 8.9s4 8.9 8.9 8.9 8.9-4 8.9-8.9-4-8.9-8.9-8.9z"/><path id="XMLID_1860_" class="st1" d="M53.1.3c-4.9 0-8.9 4-8.9 8.9s4 8.9 8.9 8.9 8.9-4 8.9-8.9S58 .3 53.1.3z"/><path id="XMLID_1861_" class="st1" d="M0 171.7v15.8c2.9-1.5 4.9-4.4 4.9-7.9s-2-6.4-4.9-7.9z"/><path id="XMLID_1862_" class="st1" d="M0 114.8v15.8c2.9-1.5 4.9-4.4 4.9-7.9 0-3.4-2-6.4-4.9-7.9z"/><path id="XMLID_1863_" class="st1" d="M0 58.1v15.8c2.9-1.5 4.9-4.4 4.9-7.9 0-3.4-2-6.4-4.9-7.9z"/><path id="XMLID_1864_" class="st1" d="M0 228.6v15.8c2.9-1.5 4.9-4.4 4.9-7.9s-2-6.5-4.9-7.9z"/><path id="XMLID_1865_" class="st1" d="M110 113.9c-4.9 0-8.9 4-8.9 8.9s4 8.9 8.9 8.9 8.9-4 8.9-8.9c0-5-4-8.9-8.9-8.9z"/><path id="XMLID_1866_" class="st1" d="M110 227.6c-4.9 0-8.9 4-8.9 8.9s4 8.9 8.9 8.9 8.9-4 8.9-8.9-4-8.9-8.9-8.9z"/><path id="XMLID_1867_" class="st1" d="M110 170.7c-4.9 0-8.9 4-8.9 8.9s4 8.9 8.9 8.9 8.9-4 8.9-8.9-4-8.9-8.9-8.9z"/><circle id="XMLID_1868_" class="st1" cx="138.4" cy="208.2" r="8.9"/><path id="XMLID_1869_" class="st1" d="M110 57.2c-4.9 0-8.9 4-8.9 8.9s4 8.9 8.9 8.9 8.9-4 8.9-8.9c0-5-4-8.9-8.9-8.9z"/><path id="XMLID_1870_" class="st1" d="M110 .3c-4.9 0-8.9 4-8.9 8.9s4 8.9 8.9 8.9 8.9-4 8.9-8.9-4-8.9-8.9-8.9z"/><circle id="XMLID_1871_" class="st1" cx="138.4" cy="37.8" r="8.9"/><circle id="XMLID_1872_" class="st1" cx="138.4" cy="94.6" r="8.9"/><circle id="XMLID_1873_" class="st1" cx="138.4" cy="151.3" r="8.9"/><circle id="XMLID_1874_" class="st1" cx="81.5" cy="208.1" r="8.9"/><circle id="XMLID_1875_" class="st1" cx="81.5" cy="37.8" r="8.9"/><circle id="XMLID_1876_" class="st1" cx="81.5" cy="94.6" r="8.9"/><circle id="XMLID_1877_" class="st1" cx="81.5" cy="151.3" r="8.9"/></g><path id="XMLID_3496_" class="st2" d="M0 249.6h274v24.6H0z"/><g id="XMLID_1878_"><path id="XMLID_3495_" class="st3" d="M4.5 249.6h5v24.6h-5z"/><path id="XMLID_3494_" class="st3" d="M24.5 249.6h5v24.6h-5z"/><path id="XMLID_3493_" class="st3" d="M44.5 249.6h5v24.6h-5z"/><path id="XMLID_3492_" class="st3" d="M64.5 249.6h5v24.6h-5z"/><path id="XMLID_3491_" class="st3" d="M84.5 249.6h5v24.6h-5z"/><path id="XMLID_3490_" class="st3" d="M104.5 249.6h5v24.6h-5z"/><path id="XMLID_3489_" class="st3" d="M124.5 249.6h5v24.6h-5z"/><path id="XMLID_3488_" class="st3" d="M144.5 249.6h5v24.6h-5z"/><path id="XMLID_3487_" class="st3" d="M164.5 249.6h5v24.6h-5z"/><path id="XMLID_3486_" class="st3" d="M184.5 249.6h5v24.6h-5z"/><path id="XMLID_3485_" class="st3" d="M204.5 249.6h5v24.6h-5z"/><path id="XMLID_3484_" class="st3" d="M224.5 249.6h5v24.6h-5z"/><path id="XMLID_3483_" class="st3" d="M244.5 249.6h5v24.6h-5z"/><path id="XMLID_3482_" class="st3" d="M264.5 249.6h5v24.6h-5z"/></g><path id="XMLID_3480_" class="st4" d="M0 241.9h274v7.7H0z"/></g><g id="XMLID_1879_"><g id="XMLID_1880_"><path id="XMLID_1881_" class="st5" d="M135.6 246l-8.3-115.4c0-2.5-39.4-8.3-39.6-5.1l4.4 120.3 7.1-.3 8.3-91.7c.7-3.6 1.6-4.8 2.7-1l18.3 93.5 7.1-.3z"/><path id="XMLID_3475_" class="st6" d="M128.1 141.9h-.2c-1.7.1-4.6-3.2-6.1-3.7-1.3-.3-1.5 1.3-1.9-.4-.3-1.2-.4-2.3-.4-2.9 2.8-.1 5.4-.4 7.6-.7-.1-.4-.2-.9-.3-1.3-1.1.1-17.4.9-17.4.9-.4 0-10.3-.2-13.9-.5-.3 0-3.8-.3-4.8-.3-.1.4-.3.8-.4 1.2 1.1.1 2.5.2 4.2.3 0 .4 0 .9-.1 1.5-.1 1.8-.7 3.7-1.6 4.3-1.1.7-2.6 1.1-3.9 1.3-.2 0-.4.1-.6.1l.1 1c1.4-.2 3.5-.5 5-1.5s1.9-3.1 2.1-5c.1-.6.1-1.1.1-1.5 2.6.2 5.7.3 8.9.4 0 .6 0 1.3.1 2.2.1 2.1.3 4.8.9 6.9 1 4 3.5 5.3 3.6 5.3l.6.3.7-14.6c2.9 0 5.6-.1 8.2-.2 0 .6.1 1.8.4 3.1.5 1.8.6.5 2.6 1.1 1.9.5 4.9 3.8 6.8 3.7-.2-.3-.3-.6-.3-1zm-19.4 6.5c-.7-.6-1.9-1.9-2.6-4.4-.5-2-.7-4.6-.8-6.7 0-.9-.1-1.6-.1-2.2h4.1l-.6 13.3z"/><path id="XMLID_1882_" class="st7" d="M117.3 171c-.1.1-.1.1 0 0l-.2.2.2-.2z"/><path id="XMLID_3473_" class="st8" d="M101.6 244.6c-.2-2.7-.9-5.1-.9-5.1s-1.7.8-5 1.4c-20.4 4.1-24 5.1-24 5.1s-.3 4.7.2 5c2.8 1.6 8.8.8 9.6.7 8.7-1.3 20.1-2.9 20.1-2.9v-4.2z"/><path id="XMLID_3472_" class="st8" d="M125.7 245.2c.1-2.8.7-5.2.7-5.2s1.7.7 5.1 1.2c20.5 3.2 24.1 4.1 24.1 4.1s.5 4.7 0 5c-2.7 1.7-8.7 1.2-9.5 1.1-8.8-.9-20.2-2-20.2-2l-.2-4.2z"/><path id="XMLID_1885_" class="st9" d="M129.7 135.3c.4-8-2-29.4-1.5-34.1l-.8-15 5.4-13.1c-1.1-1.3-10.6-9.5-29.9-8.7-9.2.4-17.1 2-21.6 6.7-.7.6-1.5 1.4-2.3 2.3L66.6 96.9c3.6 1.8 8.7 3.4 12.5 4.4l5.6-11.5c.1.5.2 44 .3 46.1.9 2.2 44 .5 44.7-.6z"/><path id="XMLID_1886_" class="st10" d="M85.8 126.9l-12.7-15.6 4.2-10.1-10.4-4c-2.2 5.9-4 10.9-4 10.9-1.9 5.5 3.7 10.4 6 13.2C73 126.2 82 133.8 84.7 136c1 .8 4 1.1 4 1.1.6-.1.8-3.6.7-4.7l-3.6-5.5z"/><path id="XMLID_3469_" class="st10" d="M117.9 40.3c-1.2 2.9-1.3 5.1.7 5.9 1.9.8 6.1-.3 7.4-3.2 1.2-2.9.7-5.9-1.3-6.7-2-.8-5.6 1.1-6.8 4z"/><path id="XMLID_1887_" class="st10" d="M121.8 41.3c-.4-22.3-2.8-23.4-20.2-23.4-11.4 0-13.9 10.4-13.5 22.3.3 8.5 4.5 16.7 11.3 20.2-.3-.1 2.9 2.1 6.1 2.1 2.4.1 7-2.9 7-2.9 4.5-3.3 9.5-10 9.3-18.3z"/><path id="XMLID_3467_" class="st10" d="M92.9 41.6c1.2 2.9 1.3 5.1-.7 5.9-1.9.8-6.1-.3-7.4-3.2-1.2-2.9-.7-5.9 1.3-6.7 2-.8 5.6 1.1 6.8 4z"/><path id="XMLID_3466_" class="st8" d="M96.4 40.4c0 1.5.7 2.8 1.7 2.8s1.8-1.2 1.8-2.7c0-1.5-.7-2.8-1.7-2.8-1-.1-1.8 1.1-1.8 2.7z"/><path id="XMLID_3465_" class="st8" d="M112.2 40.1c0 1.5.7 2.8 1.7 2.8s1.8-1.2 1.8-2.7c0-1.5-.7-2.8-1.7-2.8-1-.1-1.8 1.1-1.8 2.7z"/><path id="XMLID_3464_" class="st11" d="M101.9 31.6s-2.5-.2-4.4.4c-1.4.4-3.3 1.5-3.3 1.5l1.1 1.8 3-.8c1.5-.5 3.7-.3 3.7-.3l-.1-2.6z"/><path id="XMLID_3463_" class="st11" d="M109.8 31.2s2.5-.1 4.4.4c1.4.4 3.3 1.5 3.3 1.5l-1.1 1.7s-1.5-.4-2.9-.9c-1.5-.5-3.7-.3-3.7-.3v-2.4z"/><path id="XMLID_1888_" class="st12" d="M104.7 47c0-.3.5-.5 1.2-.5.6 0 1.2.2 1.2.5s-2.4.3-2.4 0z"/><path id="XMLID_1889_" class="st11" d="M124.5 25.4c-.3-1.8-1.9-4.5-3.3-6.5.1-.2.1-.4.1-.6 0-6.8-3.6-4.5-8.8-8.8.2 1.1.6 1.9.7 2.9-1.6-1.1-2.8-4.4-3.7-6.2 0 .1-1.9 2.3-1.9 2.4-2.1-2-2.1-4.5-3.1-6.9-1.7 1.4-1.6 4.4-2.5 6.2-.9-1.6-1.8-3.1-2.9-4.6-1.2 2.1-2.3 4.6-3.5 6.7-.5-.4-1.3-.8-1.7-1.3-.7 4.4-2.8 4.5-2.8 9.1 0 .2 0 .3.1.5-1.7 2.1-4.1 5.4-4.5 7.5-.5 3.3-.6 11.6-.6 11.6 1.9-.9 2.9 3.9 2.9 3.9h1.8s-.5-4.8-.5-6.6c0-1.8-.5-7.4 1-8.7 1-.9 4-2.2 5.9-2.9 1.1.3 2.3.7 3.3 1.1 1.9.7 3.9 1.6 5.8 2.1 2.6.7 7.5-1.9 10.3-2.6 1.3.6 2.6 1.3 3.2 1.8 1.5 1.3 1 6.9 1 8.7 0 1.8-.5 6.6-.5 6.6h1.8s.1-5.5 2.1-4.7c0 .2.8-7.4.3-10.7z"/><path id="XMLID_1890_" class="st10" d="M100.3 60v6.6s1.6 3.2 5.3 3.2c3.7 0 6.2-2.9 6.2-2.9v-8L100.3 60z"/><path id="XMLID_3459_" class="st10" d="M88.8 131.8l9.5 6.4 2.5 8-2 .3-4.1-6.4-6.3 4.1-4.4-9.9c-.1.1 2.5-4.2 4.8-2.5z"/><path id="XMLID_3458_" class="st10" d="M137.1 110.3l-4.6-10.3 10.7-2.8c.7 1 4.3 11 4.2 11.1 1.4 5.7-10.3 2-10.3 2z"/><path id="XMLID_3457_" class="st9" d="M123.4 83.5l7.1 17.6 13.6-3.6-11.3-24.4z"/><path id="XMLID_3456_" class="st13" d="M101.2 52.3s3.5 3.1 8.5.4"/><g id="XMLID_1891_"><path id="XMLID_1892_" class="st14" d="M108.7 98.1H103v-2h5.7c1.2 0 2.2-1 2.2-2.2v-7.3c0-1.2-1-2.2-2.2-2.2h-5.3v-2h5.3c2.3 0 4.2 1.9 4.2 4.2v7.3c0 2.3-1.9 4.2-4.2 4.2z"/><circle id="XMLID_1893_" class="st1" cx="90.6" cy="80.2" r="3.1"/><ellipse id="XMLID_1894_" class="st1" cx="94.8" cy="78.3" rx="4.2" ry="3.5"/><circle id="XMLID_1895_" class="st1" cx="104.1" cy="80.3" r="2.4"/><ellipse id="XMLID_1896_" class="st1" cx="98.4" cy="79.3" rx="2.5" ry="2.5"/><circle id="XMLID_1897_" class="st1" cx="101.9" cy="78.8" r="2.4"/><path id="XMLID_1898_" class="st14" d="M106.5 80.7V101c0 1.7-1.4 3.1-3.1 3.1H90.7c-1.7 0-3.1-1.4-3.1-3.1V80.7h18.9z"/><path id="XMLID_1899_" class="st15" d="M105.5 100.5v.7c0 1.2-1.2 2.2-2.8 2.2H91.3c-1.5 0-2.8-1-2.8-2.2v-.7h17z"/><path id="XMLID_1900_" class="st15" d="M91 85.8h1v11.8h-1z"/><path id="XMLID_1901_" class="st15" d="M96.4 85.8h1v11.8h-1z"/><path id="XMLID_1902_" class="st15" d="M101.9 85.8h1v11.8h-1z"/><path id="XMLID_1903_" class="st16" d="M87.6 80.6h18.9V83H87.6z"/><path id="XMLID_1904_" class="st14" d="M94.6 76.4c2 0 3.6 1.4 3.7 3.2.1-.2.1-.5.1-.7 0-1.6-1.6-3-3.5-3-1.6 0-2.9.9-3.4 2.1.6-1 1.7-1.6 3.1-1.6z"/><path id="XMLID_1905_" class="st17" d="M88.6 99.8h16.9v.6H88.6z"/></g><path id="XMLID_3440_" class="st10" d="M119.6 94.9c-.4-.3-2.2-5.6-2.2-5.6l-4.4-5.7-.9.7 1 3.4-4.5-2.1-.3 1.6 1.3 1.4-1.4-.1-.4 1.9 1.4 1.1-1.5-.1-.1 1.8 1.4.9-1.4.2-.1 2 8.5 3.1 3.6-4.5z"/><path id="XMLID_1906_" class="st10" d="M147.5 108.3s.2 5.1-1.6 6.7c-1.8 1.6-8.1 1.5-8.1 1.5L116 99.2l3.6-4.3 27.9 13.4z"/></g><g id="XMLID_1907_"><g id="XMLID_1908_"><path id="XMLID_3437_" class="st18" d="M75.8 95.1l20.3 29.1-5.6 6.6-15-24.6z"/><path id="XMLID_1909_" class="st19" d="M61.7 41c1 .1 11.1-6.4 20.5 10.4 5.2 9.4 2.8 22-4.2 34.5 0 0-6.4 11.2-10.9 11.2C50.6 97.1 43 78.3 43 78.3 37.7 69 38.4 38 61.7 41z"/><path id="XMLID_1910_" d="M69 91.3l-15.3 1.1 3.2 9.6h12.5z"/><path id="XMLID_3434_" class="st20" d="M62.1 148.5l1.6 44.6 2 53.8-4.6.8-8.1-54-6.2-41.9c0 .1 12.8-9.7 15.3-3.3z"/><path id="XMLID_3433_" class="st21" d="M65.7 244.4l.8 5s-7.8 5.1-15.1 8.6c-.6.3-7 .3-7.7.5-.5.1-.4-2-.4-2s17.3-13.1 16.5-13c-.3.1-3-13.2-3-13.2l9.9-1.6-1 15.7z"/><path id="XMLID_3432_" class="st20" d="M62.5 154.3l11.7 41.4 15.2 53.7 3.8-1.6-8.5-51.9-6.9-42.4c0-.1-15.1-6.3-15.3.8z"/><path id="XMLID_3431_" class="st21" d="M88 247.3l-.8 4.7s9 2.1 16.4 3.4c.7.1 7.7-.8 8.5-.8.5 0 0-2 0-2s-14.7-6.5-19.2-8.2c-.2-.1-1.4-16.2-1.4-16.2l-9.5 1.6 6 17.5z"/><path id="XMLID_3430_" class="st22" d="M65.6 95.7l-2.9-20.9h-6.9l1.7 20 4.9 6.5z"/><path id="XMLID_3429_" class="st22" d="M68.5 94.6s1.7 5.4-2.5 7.1c-9 3.6-13-6.2-12.2-6.4 1.1-.2 7-1.4 7-1.4l7.7.7z"/><path id="XMLID_3428_" class="st22" d="M45.8 96.9l-23.4 27.3 2.5 6.2 3.8-1.5 20.7-23.6c.1.2.1-10.2-3.6-8.4z"/><path id="XMLID_3427_" class="st22" d="M22.1 130.2l20.3 10.5 1.7-4.2-19.9-14c.1 0-4.9 3.4-2.1 7.7z"/><g id="XMLID_1911_"><defs><path id="XMLID_1912_" d="M46.3 109.4l-6.7-5.6 5.5-6.6c.4-.4.8-.7 1.4-.8l7.5-1.2s3.6 4.3 9.6 4.1c6-.2 5.2-5 5.2-5l5 .8c.7.1 2.2 13.8 2.2 13.8l-.5 27.1-24.8.7-3.4-28.3-1 1z"/></defs><use xlink:href="#XMLID_1912_" overflow="visible" fill="#CEBEF4"/><clipPath id="XMLID_18_"><use xlink:href="#XMLID_1912_" overflow="visible"/></clipPath></g><path id="XMLID_1913_" class="st23" d="M66 169.6l-2.1-9.4-.7.1.2 9.8-15.2.4s-4.5-18.8-3-25.4l5.1-9.8 25.2.2s3.6 7.2 5 11.7c1.3 4.3-1 7.7.3 20.6.3 2-14.8 1.8-14.8 1.8z"/><path id="XMLID_1914_" class="st24" d="M64.1 137.3l.2 10.6-2.1 2.3v-13l-1 .2.1 15.4 4.1-4.5-.3-11.1z"/><path id="XMLID_1915_" class="st24" d="M76.8 137.9l-27.7.1.7-.7 26.9-.2z"/><path id="XMLID_1916_" class="st18" d="M68.9 94.2L67.3 99s4.3 32.5 4.8 37.8c.6 6.9 3.7 18.9 3.7 18.9s5.4-1.8 6.2-8.8l-5-38.3-1.3-13.5-6.8-.9z"/><path id="XMLID_1917_" class="st25" d="M64 170.1l-17 .8-.2-4 17.3-.7z"/><path id="XMLID_1918_" class="st25" d="M65.2 170l-.5-3.7 16.2-.8.1 3.9c.1 0-10.6 1.1-15.8.6z"/><path id="XMLID_1919_" class="st18" d="M55.5 94.5l-9.8 1.9L20.5 126c-.7 1.8.6 5 .6 5l9.7 4.8 5.1-5.8-4.2-3.1 15.7-17.6c.6 5.6 1.2 11.6 1.1 15.2-.3 6.8-12.6 25.8-12.6 25.8l8.9 4.9 4.4-17.4s6.2-10.1 7.8-14.7c1.4-4.1 3.2-24 3.2-24l-4.7-4.6z"/><path id="XMLID_1920_" class="st26" d="M35.9 130.1l-3.3-2.9-7.4 7.8 5.6.9z"/><path id="XMLID_3416_" class="st22" d="M51.9 138.8c0-.5-9-2.9-9-2.9l-2.1 3.1 7.6 9.2c0 .1 3.6-7.7 3.5-9.4z"/><path id="XMLID_1921_" class="st18" d="M60.1 99.2L53.7 92l-2.2 3.2 3 8.6z"/><path id="XMLID_3414_" class="st19" d="M75 55.5c-.5-1.1 24.2 32.7 12.7 48.7-9.4 13-8 17.6-5.9 24.9 1.8 6.3-13.9-16.4-15.8-27.3-1.9-10.9-1.5-26.2 1.5-33.1 2.9-7 9.2-9.6 7.5-13.2z"/><path id="XMLID_1922_" class="st22" d="M52.4 59.8c4.1-4.3 10.8-6.4 11.2-6.4 10.8 0 11.3-.5 17 10.3.3.5.7.9 1.1 1.2v.2c1 10.7-5.8 22.8-15.3 23.6-12.6 1.1-19.5-7.6-20.4-17.1-.2-.7 0-7 6.4-11.8z"/><ellipse id="XMLID_3412_" transform="rotate(174.867 56.688 71.213) scale(1.00001)" cx="56.7" cy="71.2" rx="1.6" ry="2.5"/><ellipse id="XMLID_3411_" transform="matrix(-.996 .08907 -.08907 -.996 156.87 131.258)" cx="75.5" cy="69.1" rx="1.6" ry="2.5"/><path id="XMLID_3410_" class="st27" d="M65.5 75c0 .3 2.7.2 2.7-.1 0-.3-.6-.5-1.4-.5-.7.1-1.4.3-1.3.6z"/><path id="XMLID_1923_" class="st19" d="M71.1 62l.2 2.1s3.7-1.2 4.9-1.2c2.2.1 4.3.8 4.3.8l-.7-2.1s-1.9-.8-3.9-.8c-1-.1-4.8 1.2-4.8 1.2z"/><path id="XMLID_1924_" class="st19" d="M60.5 62l-.2 2.1s-3.7-1.2-4.9-1.2c-2.3.1-4.4.8-4.4.8l.7-2.1s1.9-.8 3.9-.8c1-.1 4.9 1.2 4.9 1.2z"/><path id="XMLID_3407_" class="st28" d="M67.4 84.6c-3.1.1-5.2-1.4-6.1-4.8l11-.2s-.9 4.9-4.9 5z"/><path id="XMLID_3406_" class="st1" d="M61.4 79.7c1.3 1.4 3.4 2 6.2 2 2.2 0 3.6-.8 4.5-1.7.1-.2.1-.4.1-.4l-10.8.1z"/><path id="XMLID_3405_" class="st22" d="M49.1 72.6c1.4 2.9 1.6 5.3-.4 6.2-2 .9-6.4 0-7.9-3-1.4-2.9-1-6.1 1-7 2-1 5.9.9 7.3 3.8z"/><path id="XMLID_1925_" class="st19" d="M62.1 50.6s3.2 9.2 10.9 12.8c7.7 3.6 7.9 11.3 5.6 17.1S91 68.7 86.1 58.9s-22.9-20.1-24-8.3z"/><path id="XMLID_3403_" class="st22" d="M88.9 129l-12.4-13.6 2.8-2.3 16.3 11.5c0-.1-1.8 5.8-6.7 4.4z"/><path id="XMLID_3402_" class="st18" d="M85 124.6l4.1 5.4s4.5 2.4 6.8-1.2-.2-5.1-.2-5.1l-7.2-3.8-3.5 4.7z"/><path id="XMLID_3401_" class="st26" d="M86.9 117.7l-3.6 5.7 2.5 4.8 6.5-9.1z"/><g id="XMLID_1926_"><path id="XMLID_1927_" class="st14" d="M66.9 115.9h-5.6v-2h5.6c1.2 0 2.2-1 2.2-2.2v-7.2c0-1.2-1-2.2-2.2-2.2h-5.3v-2h5.3c2.3 0 4.2 1.9 4.2 4.2v7.2c0 2.3-1.9 4.2-4.2 4.2z"/><circle id="XMLID_1928_" class="st1" cx="49" cy="98.1" r="3"/><ellipse id="XMLID_1929_" class="st1" cx="53.1" cy="96.2" rx="4.1" ry="3.5"/><circle id="XMLID_1930_" class="st1" cx="62.3" cy="98.2" r="2.4"/><ellipse id="XMLID_1931_" class="st1" cx="56.6" cy="97.2" rx="2.5" ry="2.5"/><circle id="XMLID_1932_" class="st1" cx="60.1" cy="96.7" r="2.4"/><path id="XMLID_1933_" class="st14" d="M64.7 98.6v20.2c0 1.7-1.4 3.1-3.1 3.1H49c-1.7 0-3.1-1.4-3.1-3.1V98.6h18.8z"/><path id="XMLID_1934_" class="st15" d="M63.7 118.2v.7c0 1.2-1.2 2.2-2.7 2.2H49.6c-1.5 0-2.8-1-2.8-2.2v-.7h16.9z"/><path id="XMLID_1935_" class="st15" d="M49.3 103.6h1v11.7h-1z"/><path id="XMLID_1936_" class="st15" d="M54.7 103.6h1v11.7h-1z"/><path id="XMLID_1937_" class="st15" d="M60.1 103.6h1v11.7h-1z"/><path id="XMLID_1938_" class="st16" d="M45.9 98.5h18.8v2.4H45.9z"/><path id="XMLID_1939_" class="st14" d="M52.9 94.3c2 0 3.6 1.4 3.6 3.2.1-.2.1-.5.1-.7 0-1.6-1.6-2.9-3.5-2.9-1.6 0-2.9.9-3.4 2.1.7-1.1 1.8-1.7 3.2-1.7z"/><path id="XMLID_1940_" class="st17" d="M46.9 117.6h16.8v.6H46.9z"/></g><path id="XMLID_3385_" class="st22" d="M79.8 113.5c-.4-.3-2.7-6.8-2.7-6.8l-6.4-6.1-.8.8 4.2 5.1-6-3.3h-.8l-.2 1.7.4.9H66l-.3 1.6 1.1 1-1.9-.1v1.2l12.4 6.8 2.5-2.8z"/></g></g><g id="XMLID_1941_"><path id="XMLID_3382_" class="st29" d="M177.6 19.8c-1.9 5.5-9.2 11.8-14 11.1-4.8-.7-6.5-10.1-5.7-15.2.8-5.1 5.7-6.3 10.5-5.6 4.8.7 11 4.8 9.2 9.7z"/><path id="XMLID_3381_" class="st30" d="M156.1 30.6c.4-1 1.2-7.1 2.7-8 7.8-4.4 17.1.9 17.1.9s.1 5.5-.5 7.7-18.5-1.9-19.7-1.8"/><path id="XMLID_1942_" class="st29" d="M171.6 68c3.8-2.2 1.5.3 4.8-2.4 5.5-4.8 11.3-20 10.8-22-2.3-10.1-13.5-14.8-17.7-15.1-8-.5-10.5 23.3-4.7 42.3 4-1.5 3.1-.6 6.8-2.8z"/><path id="XMLID_3379_" class="st31" d="M167 156.2l-5.4 89 5 .9 14.3-86.7c0 .1-11.1-10-13.9-3.2z"/><path id="XMLID_3378_" class="st31" d="M136.5 194.3L150 148s17.9-3.6 17.4 3.3l-21.6 46.6c-3 .8-8.4-1-9.3-3.6z"/><g id="XMLID_1943_"><path id="XMLID_1944_" class="st32" d="M187.5 179.2s-25.5.4-52.5-5.5c-.7-.2 13.3-34.3 14.1-35.9 1-2.1 23.3-3.8 32.7 1.4.6.3 5.7 36.5 5.7 40z"/></g><g id="XMLID_1945_"><defs><path id="XMLID_1969_" d="M187.5 179.2s-25.5.4-52.5-5.5c-.7-.2 13.3-34.3 14.1-35.9 1-2.1 23.3-3.8 32.7 1.4.6.3 5.7 36.5 5.7 40z"/></defs><clipPath id="XMLID_19_"><use xlink:href="#XMLID_1969_" overflow="visible"/></clipPath><g id="XMLID_1946_" class="st33"><g id="XMLID_1947_"><path id="XMLID_3373_" class="st34" d="M147.5 139.9c.3 0 .5.3.4.5 0 .3-.3.5-.5.4l.1-.9zm-.8 1.8l1.2.1c.3 0 .5.3.4.5 0 .3-.3.5-.5.4l-1.4-.2.3-.8z"/><path id="XMLID_3372_" class="st34" d="M146.2 143.7l1.1.1c.3 0 .5.3.4.5 0 .3-.3.5-.5.4-.4 0-.9-.1-1.3-.1l.3-.9z"/></g><path id="XMLID_3370_" class="st34" d="M157.2 138.8l2.3.3c.3 0 .5.3.4.5 0 .3-.3.5-.5.4l-2.3-.3c-.3 0-.5-.3-.4-.5 0-.2.2-.4.5-.4z"/><path id="XMLID_3369_" class="st34" d="M155 140.5l3.3.4c.3 0 .5.3.4.5 0 .3-.3.5-.5.4l-1-.1c-.2 0-.4.2-.5.4 0 .3.2.5.4.5l.5.1.5.1c.3 0 .5.3.4.5 0 .3-.3.5-.5.4l-3-.3-.5-.1c-.3 0-.5.2-.5.4s.1.4.3.5l4.4.5c.3 0 .5.3.4.5 0 .3-.3.5-.5.4l-7.5-.8c-.3 0-.5-.3-.4-.5 0-.3.3-.5.5-.4l1.6.2c.2 0 .4-.2.4-.4 0-.3-.2-.5-.4-.5l-.5-.1-1.7-.2c-.3 0-.5-.3-.4-.5 0-.3.3-.5.5-.4l4.2.5.5.1c.3 0 .5-.2.5-.4s-.1-.5-.3-.5l-.7-.1c-.3 0-.5-.3-.4-.5 0-.5.3-.6.5-.6z"/><g id="XMLID_1948_"><path id="XMLID_3368_" class="st35" d="M148.2 137.2l2.1-.5c.9-.2 1 .1.3.6l-1.8 1.2c-.8.5-1.4-1.1-.6-1.3z"/><path id="XMLID_3367_" class="st35" d="M149.2 139.1l1.6-1.5c.6-.6.9-.4.5.4l-1 1.9c-.4.7-1.7-.2-1.1-.8z"/><path id="XMLID_3366_" class="st35" d="M151 140.2l.6-2.1c.2-.8.6-.8.6.1l.1 2.2c.1.8-1.5.6-1.3-.2z"/><path id="XMLID_3365_" class="st35" d="M153.1 140.2l-.5-2.1c-.2-.9.1-1 .6-.3l1.2 1.8c.4.8-1.1 1.4-1.3.6z"/><path id="XMLID_3364_" class="st35" d="M154.9 139.2l-1.5-1.6c-.6-.6-.4-.9.4-.5l1.9 1c.8.4-.2 1.7-.8 1.1z"/><path id="XMLID_3363_" class="st35" d="M156 137.4l-2.1-.6c-.8-.2-.8-.6.1-.6l2.2-.1c.8-.1.6 1.5-.2 1.3z"/></g><g id="XMLID_1949_"><path id="XMLID_3361_" class="st36" d="M165.6 138.9l-.6 2c-.2.8-.5.8-.6-.1l-.1-2c0-.9 1.5-.7 1.3.1z"/><path id="XMLID_3360_" class="st36" d="M163.6 138.8l.5 2c.2.8-.1.9-.5.2l-1.1-1.7c-.5-.6.9-1.3 1.1-.5z"/><path id="XMLID_3359_" class="st36" d="M161.9 139.8l1.4 1.5c.6.6.4.9-.4.5l-1.8-.9c-.7-.5.2-1.7.8-1.1z"/><path id="XMLID_3358_" class="st36" d="M160.9 141.5l2 .6c.8.2.8.5-.1.6l-2 .1c-.9 0-.7-1.6.1-1.3z"/><path id="XMLID_3357_" class="st36" d="M160.8 143.4l2-.5c.8-.2.9.1.2.5l-1.7 1.1c-.6.5-1.2-.9-.5-1.1z"/><path id="XMLID_3356_" class="st36" d="M161.8 145.2l1.5-1.4c.6-.6.9-.4.5.4l-.9 1.8c-.4.6-1.7-.3-1.1-.8z"/><path id="XMLID_3355_" class="st36" d="M163.5 146.2l.6-2c.2-.8.5-.8.6.1l.1 2c0 .8-1.5.6-1.3-.1z"/><path id="XMLID_3354_" class="st36" d="M165.5 146.2l-.5-2c-.2-.8.1-.9.5-.2l1.1 1.7c.5.7-1 1.3-1.1.5z"/><path id="XMLID_3353_" class="st36" d="M167.2 145.3l-1.4-1.5c-.6-.6-.4-.9.4-.5l1.8.9c.6.4-.3 1.6-.8 1.1z"/><path id="XMLID_3352_" class="st36" d="M168.2 143.6l-2-.6c-.8-.2-.8-.5.1-.6l2-.1c.8 0 .7 1.5-.1 1.3z"/><path id="XMLID_3351_" class="st36" d="M168.2 141.6l-2 .5c-.8.2-.9-.1-.2-.5l1.7-1.1c.7-.5 1.3.9.5 1.1z"/><path id="XMLID_3350_" class="st36" d="M167.3 139.9l-1.5 1.4c-.6.6-.9.4-.5-.4l.9-1.8c.4-.7 1.7.2 1.1.8z"/></g><path id="XMLID_3346_" class="st34" d="M170 141.4c-.3 0-.5-.3-.4-.5 0-.3.3-.5.5-.4 1.3.1 2.2.2 3.7.4.3 0 .5.3.4.5 0 .3-.3.5-.5.4h-.1c-.6-.1-.7.9-.1.9l1.3.1c.3 0 .5.3.4.5 0 .3-.3.5-.5.4-1.1-.1-1.5-.2-2.5-.3-.3 0-.5.2-.5.4s.1.5.4.5l3.2.4c.3 0 .5.3.4.5 0 .3-.3.5-.5.4l-5-.6c-.3 0-.5-.3-.4-.5 0-.3.3-.5.5-.4h.3c.2 0 .4-.2.5-.4 0-.3-.2-.5-.4-.5h-.2c-.3 0-.5-.3-.4-.5 0-.3.3-.5.5-.4l1.4.2c.6 0 .7-.9.1-1-.7.1-1.7-.1-2.1-.1zm2.6-1.6c-1.3-.1-2.5-.3-3.9-.4-.3 0-.5-.3-.4-.5 0-.3.3-.5.5-.4l3.9.4c.3 0 .5.3.4.5 0 .2-.2.4-.5.4z"/><path id="XMLID_3345_" class="st34" d="M182.2 143.5l3.3.4c.3 0 .5.3.4.5 0 .3-.3.5-.5.4l-1-.1c-.2 0-.4.2-.5.4 0 .3.2.5.4.5l.5.1.5.1c.3 0 .5.3.4.5 0 .3-.3.5-.5.4l-3-.3-.5-.1c-.3 0-.5.2-.5.4s.1.4.3.5l4.4.5c.3 0 .5.3.4.5 0 .3-.3.5-.5.4l-7.5-.8c-.3 0-.5-.3-.4-.5 0-.3.3-.5.5-.4l1.6.2c.2 0 .4-.2.4-.4 0-.3-.2-.5-.4-.5l-.5-.1-1.7-.2c-.3 0-.5-.3-.4-.5 0-.3.3-.5.5-.4l4.2.5.5.1c.3 0 .5-.2.5-.4s-.1-.5-.3-.5l-.7-.1c-.3 0-.5-.3-.4-.5 0-.4.3-.6.5-.6z"/><g id="XMLID_1950_"><path id="XMLID_3344_" class="st36" d="M178.3 135.4l.5 2.1c.2.9-.1 1-.6.3L177 136c-.4-.8 1.1-1.4 1.3-.6z"/><path id="XMLID_3343_" class="st36" d="M176.5 136.4l1.5 1.6c.6.6.4.9-.4.5l-1.9-1c-.8-.4.2-1.7.8-1.1z"/><path id="XMLID_3342_" class="st36" d="M175.4 138.2l2.1.6c.8.2.8.6-.1.6l-2.2.1c-.8.1-.6-1.6.2-1.3z"/><path id="XMLID_3341_" class="st36" d="M175.4 140.3l2.1-.5c.9-.2 1 .1.3.6l-1.8 1.2c-.8.4-1.5-1.1-.6-1.3z"/><path id="XMLID_3340_" class="st36" d="M176.4 142.1l1.6-1.5c.6-.6.9-.4.5.4l-1 1.9c-.4.8-1.7-.2-1.1-.8z"/><path id="XMLID_3339_" class="st36" d="M178.2 143.2l.6-2.1c.2-.8.6-.8.6.1l.1 2.2c.1.8-1.6.6-1.3-.2z"/><path id="XMLID_3338_" class="st36" d="M180.3 143.2l-.5-2.1c-.2-.9.1-1 .6-.3l1.2 1.8c.4.8-1.1 1.4-1.3.6z"/><path id="XMLID_3337_" class="st36" d="M182.1 142.2l-1.5-1.6c-.6-.6-.4-.9.4-.5l1.9 1c.8.4-.2 1.7-.8 1.1z"/><path id="XMLID_3336_" class="st36" d="M183.2 140.4l-2.1-.6c-.8-.2-.8-.6.1-.6l2.2-.1c.8-.1.6 1.6-.2 1.3z"/><path id="XMLID_3335_" class="st36" d="M183.2 138.3l-2.1.5c-.9.2-1-.1-.3-.6l1.8-1.2c.8-.4 1.4 1.1.6 1.3z"/></g><g id="XMLID_1951_"><path id="XMLID_3333_" class="st37" d="M179.4 138.6c.4 0 .7.4.7.8s-.4.7-.8.7-.7-.4-.7-.8c0-.5.4-.8.8-.7z"/></g><g id="XMLID_1952_"><path id="XMLID_3331_" class="st34" d="M140.1 158.6l4.3.5c.3 0 .5.3.4.5 0 .3-.3.5-.5.4l-1.3-.1c-.2 0-.4.2-.4.4 0 .3.2.5.4.5.8.1-.4 0 .4 0 .3 0 .5.3.4.5 0 .3-.3.5-.5.4l-4.3-.5.3-.9c.7.1 1.3.1 2 .2.3 0 .5-.2.5-.4s-.1-.4-.3-.5l-1.7-.2.3-.8z"/><path id="XMLID_3330_" class="st34" d="M141.4 153l2.2.2c.3 0 .5.3.4.5 0 .3-.3.5-.5.4l-1.7-.2c-.2 0-.4.2-.4.4 0 .3.2.5.4.5.3 0 7.7.9 8 .9.3 0 .5.3.4.5 0 .3-.3.5-.5.4l-8.7-1 .4-2.6z"/></g><path id="XMLID_3328_" class="st34" d="M142.4 157l4.4.5c.3 0 .5.3.4.5 0 .3-.3.5-.5.4l-4.4-.5c-.3 0-.5-.3-.4-.5 0-.3.2-.5.5-.4z"/><g id="XMLID_1953_"><path id="XMLID_3327_" class="st36" d="M148.9 146.6l-.6 2c-.2.8-.5.8-.6-.1l-.1-2c-.1-.8 1.5-.7 1.3.1z"/><path id="XMLID_3326_" class="st36" d="M146.9 146.6l.5 2c.2.8-.1.9-.5.2l-1.1-1.7c-.5-.7.9-1.3 1.1-.5z"/><path id="XMLID_3325_" class="st36" d="M145.2 147.5l1.4 1.5c.6.6.4.9-.4.5l-1.8-.9c-.7-.4.2-1.7.8-1.1z"/><path id="XMLID_3324_" class="st36" d="M144.1 149.2l2 .6c.8.2.8.5-.1.6l-2 .1c-.8 0-.6-1.5.1-1.3z"/><path id="XMLID_3323_" class="st36" d="M144.1 151.2l2-.5c.8-.2.9.1.2.5l-1.7 1.1c-.6.5-1.3-.9-.5-1.1z"/><path id="XMLID_3322_" class="st36" d="M145.1 152.9l1.5-1.4c.6-.6.9-.4.5.4l-.9 1.8c-.5.7-1.7-.3-1.1-.8z"/><path id="XMLID_3321_" class="st36" d="M146.7 153.9l.6-2c.2-.8.5-.8.6.1l.1 2c.1.8-1.5.7-1.3-.1z"/><path id="XMLID_3320_" class="st36" d="M148.7 154l-.5-2c-.2-.8.1-.9.5-.2l1.1 1.7c.5.6-.9 1.2-1.1.5z"/><path id="XMLID_3319_" class="st36" d="M150.4 153l-1.4-1.5c-.6-.6-.4-.9.4-.5l1.8.9c.7.4-.2 1.7-.8 1.1z"/><path id="XMLID_3318_" class="st36" d="M151.5 151.3l-2-.6c-.8-.2-.8-.5.1-.6l2-.1c.8 0 .6 1.5-.1 1.3z"/><path id="XMLID_3317_" class="st36" d="M151.5 149.3l-2 .5c-.8.2-.9-.1-.2-.5l1.7-1.1c.6-.5 1.3 1 .5 1.1z"/><path id="XMLID_3316_" class="st36" d="M150.5 147.6L149 149c-.6.6-.9.4-.5-.4l.9-1.8c.5-.6 1.7.3 1.1.8z"/></g><g id="XMLID_1954_"><path id="XMLID_3314_" class="st37" d="M147.9 149.6c.4 0 .7.4.6.8 0 .4-.4.7-.8.6-.4 0-.7-.4-.6-.8 0-.4.4-.7.8-.6z"/></g><g id="XMLID_1955_"><path id="XMLID_3312_" class="st35" d="M135.2 170.4l-.5-2c-.2-.8.1-.9.5-.2l1.1 1.7c.5.6-.9 1.2-1.1.5z"/><path id="XMLID_3311_" class="st35" d="M137 169.4l-1.4-1.5c-.6-.6-.4-.9.4-.5l1.8.9c.6.4-.3 1.7-.8 1.1z"/><path id="XMLID_3310_" class="st35" d="M138 167.7l-2-.6c-.8-.2-.8-.5.1-.6l2-.1c.8 0 .6 1.5-.1 1.3z"/><path id="XMLID_3309_" class="st35" d="M138 165.8l-2 .5c-.8.2-.9-.1-.2-.5l1.7-1.1c.7-.5 1.3.9.5 1.1z"/></g><g id="XMLID_1956_"><path id="XMLID_3305_" class="st34" d="M139.7 165.6c-.3 0-.5-.3-.4-.5 0-.3.3-.5.5-.4 1.3.1 2.2.2 3.7.4.3 0 .5.3.4.5 0 .3-.3.5-.5.4h-.1c-.6-.1-.7.9-.1.9l1.3.1c.3 0 .5.3.4.5 0 .3-.3.5-.5.4-1.1-.1-1.5-.2-2.5-.3-.3 0-.5.2-.5.4s.1.5.4.5l3.2.4c.3 0 .5.3.4.5 0 .3-.3.5-.5.4l-5-.6c-.3 0-.5-.3-.4-.5 0-.3.3-.5.5-.4h.3c.2 0 .4-.2.5-.4 0-.3-.2-.5-.4-.5h-.2c-.3 0-.5-.3-.4-.5 0-.3.3-.5.5-.4l1.4.2c.6 0 .7-.9.1-1-.6 0-1.6-.1-2.1-.1zm2.7-1.7c-1.3-.1-2.5-.3-3.9-.4-.3 0-.5-.3-.4-.5 0-.3.3-.5.5-.4l3.9.4c.3 0 .5.3.4.5 0 .3-.2.5-.5.4z"/><path id="XMLID_3304_" class="st34" d="M141.3 172.7l-.7-.1c-.2-.1-.4-.3-.3-.5 0-.3.3-.5.5-.4 1.1.1 2.3.2 3.4.4.3 0 .5-.2.5-.4 0-.3-.2-.5-.4-.5l-6.5-.7c-.3 0-.5.2-.5.4 0 .3.2.5.4.5l1.4.2c.3 0 .5.3.4.5 0 .2-.2.4-.4.4l-4.7-.5c-.3 0-.5.2-.5.4 0 .3.2.5.4.5l6.9.8c.3 0 .5-.2.5-.4 0-.4-.2-.6-.4-.6z"/></g><path id="XMLID_3302_" class="st34" d="M153.6 148.6l3.8.4c.2 0 .5-.2.5-.4 0-.3-.2-.5-.4-.5l-.5-.1-3.2-.4c-.3 0-.5-.3-.4-.5 0-.3.3-.5.5-.4l7.5.8c.3 0 .5.3.4.5 0 .3-.3.5-.5.4l-1.5-.2-.5-.1c-.3 0-.5.2-.5.4s.1.5.4.5l.5.1c.2.1.4.3.3.5 0 .3-.3.5-.5.4l-6-.7c-.3 0-.5-.3-.4-.5 0-.1.2-.2.5-.2z"/><path id="XMLID_3301_" class="st34" d="M153.1 152.4l1.3.1c.2 0 .4-.2.4-.4 0-.3-.2-.5-.4-.5l-.5-.1-.7-.1c-.3 0-.5-.3-.4-.5 0-.3.3-.5.5-.4l4.3.5c.3 0 .5.3.4.5 0 .3-.3.5-.5.4l-.8-.1-.5-.1c-.3 0-.5.2-.5.4s.1.4.3.5l4.7.5c.3 0 .5.3.4.5 0 .3-.3.5-.5.4l-7.5-.8c-.3 0-.5-.3-.4-.5-.1-.2.2-.3.4-.3z"/><path id="XMLID_3300_" class="st34" d="M152.5 158.1l4.4.5.5.1c.3 0 .5-.2.5-.4 0-.3-.2-.5-.4-.5l-5.7-.6c-.3 0-.5-.3-.4-.5 0-.3.3-.5.5-.4l.5.1.5.1c.3 0 .5-.2.5-.4s-.1-.5-.4-.5l-1.8-.2c-.3 0-.5-.3-.4-.5 0-.3.3-.5.5-.4l9.1 1c.3 0 .5.3.4.5 0 .3-.3.5-.5.4l-5.6-.6c-.2 0-.4.2-.5.4 0 .3.2.5.4.5l.5.1 8 .9c.3 0 .5.3.4.5 0 .3-.3.5-.5.4l-3.9-.4c-.3 0-.5.2-.5.4 0 .3.2.5.4.5l.5.1h.4c.3 0 .5.3.4.5 0 .3-.3.5-.5.4l-3-.3c-.2.1-.3.2-.3.4s.1.5.3.6l5.3.6c.3 0 .5.3.4.5 0 .3-.3.5-.5.4l-7.5-.8c-.3 0-.5-.3-.4-.5 0-.3.3-.5.5-.4l.7.1c.2 0 .4-.3.4-.5s-.1-.4-.2-.5l-3.2-.4c-.3 0-.5-.3-.4-.5.1-.5.3-.7.6-.7z"/><path id="XMLID_3299_" class="st34" d="M155.8 162.3c4.2.5 8.5.9 12.7 1.4.3 0 .5-.2.5-.4s-.1-.4-.3-.5l-4.8-.5c-.3 0-.5-.3-.4-.5 0-.3.3-.5.5-.4l.9.1c.2 0 .4-.2.4-.4 0-.3-.2-.5-.4-.5l-.5-.1h-.4c-.3 0-.5-.3-.4-.5 0-.3.3-.5.5-.4l3.2.4c.3 0 .5.3.4.5 0 .3-.3.4-.5.4l-.5-.1c-.3 0-.5.2-.5.4s.1.4.3.5l5.1.6c.3 0 .5.3.4.5 0 .3-.3.5-.5.4l-1.3-.1c-.2 0-.4.2-.4.4 0 .3.2.5.4.5.8.1-.4 0 .4 0 .3 0 .5.3.4.5 0 .3-.3.5-.5.4l-12.3-1.4c-.2 0-.4.2-.4.4 0 .3.2.5.4.5l.5.1c.3 0 .4.3.4.5 0 .3-.3.5-.5.4l-3.2-.4c-.3 0-.5-.3-.4-.5 0-.3.3-.5.5-.4h.4l.5.1c.3 0 .5-.2.5-.4s-.1-.4-.3-.5l-.9-.1c-.3 0-.5-.3-.4-.5 0-.2.2-.4.5-.4z"/><path id="XMLID_3298_" class="st34" d="M154.2 166l2.3.3c.3 0 .5.3.4.5 0 .3-.3.5-.5.4l-2.3-.3c-.3 0-.5-.3-.4-.5 0-.2.2-.4.5-.4z"/><path id="XMLID_3297_" class="st34" d="M152 167.7l3.3.4c.3 0 .5.3.4.5 0 .3-.3.5-.5.4l-1-.1c-.2 0-.4.2-.5.4 0 .3.2.5.4.5l.5.1.5.1c.3 0 .5.3.4.5 0 .3-.3.5-.5.4l-3-.3-.5-.1c-.3 0-.5.2-.5.4s.1.4.3.5l4.4.5c.3 0 .5.3.4.5 0 .3-.3.5-.5.4l-7.5-.8c-.3 0-.5-.3-.4-.5 0-.3.3-.5.5-.4l1.6.2c.2 0 .4-.2.4-.4 0-.3-.2-.5-.4-.5l-.5-.1-1.7-.2c-.3 0-.5-.3-.4-.5 0-.3.3-.5.5-.4l4.2.5.5.1c.3 0 .5-.2.5-.4s-.1-.5-.3-.5l-.7-.1c-.3 0-.5-.3-.4-.5 0-.5.2-.7.5-.6z"/><path id="XMLID_3296_" class="st34" d="M160.8 151.4l3.8.4c.2 0 .5-.2.5-.4 0-.3-.2-.5-.4-.5l-.5-.1-3.2-.4c-.3 0-.5-.3-.4-.5 0-.3.3-.5.5-.4l8.7 1c.3 0 .5.3.4.5 0 .3-.3.5-.5.4l-2.7-.3-.5-.1c-.3 0-.5.2-.5.4s.1.5.4.5l2 .2-1.5-.2 1.5.2c.2.1.4.3.3.5 0 .3-.3.5-.5.4l-7.5-.8c-.3 0-.5-.3-.4-.5 0-.2.2-.4.5-.3z"/><path id="XMLID_3295_" class="st34" d="M170.7 156.3l-5.3-.6-.5-.1c-.3 0-.5-.3-.4-.5 0-.2.2-.4.4-.4l4.8.5c.3 0 .5-.2.5-.4 0-.3-.2-.5-.4-.5l-7.5-.8c-.3 0-.5.2-.5.4 0 .3.2.5.4.5l1.2.1c.2.1.4.3.3.5 0 .3-.3.5-.5.4l-.5-.1h-.2c-.3 0-.5.2-.5.4 0 .3.2.5.4.5l5 .6c.2.1.4.3.3.5 0 .3-.3.5-.5.4l-2.4-.3c-.3 0-.5.2-.5.4 0 .3.2.5.4.5l12.1 1.3c.3 0 .5-.2.5-.4 0-.3-.2-.5-.4-.5-.3 0-7.6-.9-8-.9-.3 0-.5-.3-.4-.5 0-.2.2-.4.4-.4l1.7.2c.3 0 .5-.2.5-.4.1-.2-.1-.4-.4-.4z"/><path id="XMLID_3294_" class="st34" d="M169.5 160l4.4.5c.3 0 .5.3.4.5 0 .3-.3.5-.5.4l-4.4-.5c-.3 0-.5-.3-.4-.5 0-.2.3-.4.5-.4z"/><g id="XMLID_1957_"><path id="XMLID_3293_" class="st35" d="M176 149.6l-.6 2c-.2.8-.5.8-.6-.1l-.1-2c0-.8 1.6-.6 1.3.1z"/><path id="XMLID_3292_" class="st35" d="M174.1 149.6l.5 2c.2.8-.1.9-.5.2l-1.1-1.7c-.5-.7.9-1.3 1.1-.5z"/><path id="XMLID_3291_" class="st35" d="M172.4 150.5l1.4 1.5c.6.6.4.9-.4.5l-1.8-.9c-.7-.4.2-1.6.8-1.1z"/><path id="XMLID_3290_" class="st35" d="M171.3 152.2l2 .6c.8.2.8.5-.1.6l-2 .1c-.8 0-.6-1.5.1-1.3z"/><path id="XMLID_3289_" class="st35" d="M171.3 154.2l2-.5c.8-.2.9.1.2.5l-1.7 1.1c-.7.5-1.3-.9-.5-1.1z"/><path id="XMLID_3288_" class="st35" d="M172.2 155.9l1.5-1.4c.6-.6.9-.4.5.4l-.9 1.8c-.4.7-1.6-.2-1.1-.8z"/><path id="XMLID_3287_" class="st35" d="M173.9 156.9l.6-2c.2-.8.5-.8.6.1l.1 2c.1.9-1.5.7-1.3-.1z"/><path id="XMLID_3286_" class="st35" d="M175.9 157l-.5-2c-.2-.8.1-.9.5-.2l1.1 1.7c.5.6-.9 1.3-1.1.5z"/><path id="XMLID_3285_" class="st35" d="M177.6 156l-1.4-1.5c-.6-.6-.4-.9.4-.5l1.8.9c.7.5-.2 1.7-.8 1.1z"/><path id="XMLID_3284_" class="st35" d="M178.7 154.3l-2-.6c-.8-.2-.8-.5.1-.6l2-.1c.8 0 .6 1.6-.1 1.3z"/><path id="XMLID_3283_" class="st35" d="M178.7 152.4l-2 .5c-.8.2-.9-.1-.2-.5l1.7-1.1c.6-.5 1.3.9.5 1.1z"/><path id="XMLID_3282_" class="st35" d="M177.7 150.6l-1.5 1.4c-.6.6-.9.4-.5-.4l.9-1.8c.5-.6 1.7.3 1.1.8z"/></g><path id="XMLID_3280_" class="st37" d="M175.1 152.6c.4 0 .7.4.6.8 0 .4-.4.7-.8.6-.4 0-.7-.4-.6-.8 0-.4.4-.7.8-.6z"/><g id="XMLID_1958_"><path id="XMLID_3279_" class="st35" d="M150.2 159.6l-.6 2.1c-.2.8-.6.8-.6-.1l-.1-2.2c-.1-.8 1.5-.6 1.3.2z"/><path id="XMLID_3278_" class="st35" d="M148.1 159.5l.5 2.1c.2.9-.1 1-.6.3l-1.2-1.8c-.4-.7 1.1-1.4 1.3-.6z"/><path id="XMLID_3277_" class="st35" d="M146.3 160.5l1.5 1.6c.6.6.4.9-.4.5l-1.9-1c-.8-.3.2-1.7.8-1.1z"/><path id="XMLID_3276_" class="st35" d="M145.2 162.3l2.1.6c.8.2.8.6-.1.6l-2.2.1c-.8.1-.6-1.5.2-1.3z"/><path id="XMLID_3275_" class="st35" d="M145.1 164.4l2.1-.5c.9-.2 1 .1.3.6l-1.8 1.2c-.7.4-1.4-1.1-.6-1.3z"/><path id="XMLID_3274_" class="st35" d="M146.2 166.3l1.6-1.5c.6-.6.9-.4.5.4l-1 1.9c-.4.7-1.7-.2-1.1-.8z"/><path id="XMLID_3273_" class="st35" d="M148 167.4l.6-2.1c.2-.8.6-.8.6.1l.1 2.2c.1.7-1.6.6-1.3-.2z"/><path id="XMLID_3272_" class="st35" d="M150 167.4l-.5-2.1c-.2-.9.1-1 .6-.3l1.2 1.8c.5.8-1 1.4-1.3.6z"/><path id="XMLID_3271_" class="st35" d="M151.9 166.4l-1.5-1.6c-.6-.6-.4-.9.4-.5l1.9 1c.7.4-.2 1.7-.8 1.1z"/><path id="XMLID_3270_" class="st35" d="M153 164.6l-2.1-.6c-.8-.2-.8-.6.1-.6l2.2-.1c.8-.1.6 1.5-.2 1.3z"/><path id="XMLID_3269_" class="st35" d="M153 162.5l-2.1.5c-.9.2-1-.1-.3-.6l1.8-1.2c.8-.4 1.4 1.1.6 1.3z"/><path id="XMLID_3268_" class="st35" d="M152 160.7l-1.6 1.5c-.6.6-.9.4-.5-.4l1-1.9c.4-.8 1.7.2 1.1.8z"/></g><path id="XMLID_3266_" class="st37" d="M149.2 162.7c.4 0 .7.4.7.8s-.4.7-.8.7-.7-.4-.7-.8.4-.7.8-.7z"/><path id="XMLID_3265_" class="st37" d="M161.6 169c.4 0 .7.4.6.8 0 .4-.4.7-.8.6-.4 0-.7-.4-.6-.8.1-.4.4-.6.8-.6z"/><path id="XMLID_3262_" class="st34" d="M166.9 168.6c-.3 0-.5-.3-.4-.5 0-.3.3-.5.5-.4 1.3.1 2.2.2 3.7.4.3 0 .5.3.4.5 0 .3-.3.5-.5.4h-.1c-.6-.1-.7.9-.1.9l1.3.1c.3 0 .5.3.4.5 0 .3-.3.5-.5.4-1.1-.1-1.5-.2-2.5-.3-.3 0-.5.2-.5.4s.1.5.4.5l3.2.4c.3 0 .5.3.4.5 0 .3-.3.5-.5.4l-5-.6c-.3 0-.5-.3-.4-.5 0-.3.3-.5.5-.4h.3c.2 0 .4-.2.5-.4 0-.3-.2-.5-.4-.5h-.2c-.3 0-.5-.3-.4-.5 0-.3.3-.5.5-.4l1.4.2c.6 0 .7-.9.1-1-.6.1-1.7-.1-2.1-.1zm2.7-1.6c-1.3-.1-2.5-.3-3.9-.4-.3 0-.5-.3-.4-.5 0-.3.3-.5.5-.4l3.9.4c.3 0 .5.3.4.5 0 .2-.2.4-.5.4z"/><path id="XMLID_3261_" class="st34" d="M168.5 175.7l-.7-.1c-.2-.1-.4-.3-.3-.5 0-.3.3-.5.5-.4 1.1.1 2.3.2 3.4.4.3 0 .5-.2.5-.4 0-.3-.2-.5-.4-.5l-6.5-.7c-.3 0-.5.2-.5.4 0 .3.2.5.4.5l1.4.2c.3 0 .5.3.4.5 0 .2-.2.4-.4.4l-4.7-.5c-.3 0-.5.2-.5.4 0 .3.2.5.4.5l6.9.8c.3 0 .5-.2.5-.4 0-.4-.2-.6-.4-.6z"/><path id="XMLID_3260_" class="st34" d="M180.7 151.6l3.8.4c.2 0 .5-.2.5-.4 0-.3-.2-.5-.4-.5l-.5-.1-3.2-.4c-.3 0-.5-.3-.4-.5 0-.3.3-.5.5-.4l7.5.8c.3 0 .5.3.4.5 0 .3-.3.5-.5.4l-1.5-.2-.5-.1c-.3 0-.5.2-.5.4s.1.5.4.5l.5.1c.2.1.4.3.3.5 0 .3-.3.5-.5.4l-6-.7c-.3 0-.5-.3-.4-.5 0 0 .3-.2.5-.2z"/><g id="XMLID_1959_"><path id="XMLID_3259_" class="st34" d="M180.3 155.4l1.3.1c.2 0 .4-.2.4-.4 0-.3-.2-.5-.4-.5l-.5-.1-.7-.1c-.3 0-.5-.3-.4-.5 0-.3.3-.5.5-.4l4.3.5c.3 0 .5.3.4.5 0 .3-.3.5-.5.4l-.8-.1-.5-.1c-.3 0-.5.2-.5.4s.1.4.3.5l4.7.5c.3 0 .5.3.4.5 0 .3-.3.5-.5.4l-7.5-.8c-.3 0-.5-.3-.4-.5-.1-.1.2-.3.4-.3z"/><path id="XMLID_3258_" class="st34" d="M179.7 161.1l4.4.5.5.1c.3 0 .5-.2.5-.4 0-.3-.2-.5-.4-.5l-5.7-.6c-.3 0-.5-.3-.4-.5 0-.3.3-.5.5-.4l.5.1.5.1c.3 0 .5-.2.5-.4s-.1-.5-.4-.5l-1.8-.2c-.3 0-.5-.3-.4-.5 0-.3.3-.5.5-.4l9.1 1c.3 0 .5.3.4.5 0 .3-.3.5-.5.4l-5.6-.6c-.2 0-.4.2-.5.4 0 .3.2.5.4.5l.5.1 8 .9c.3 0 .5.3.4.5 0 .3-.3.5-.5.4l-3.9-.4c-.3 0-.5.2-.5.4 0 .3.2.5.4.5l.5.1h.4c.3 0 .5.3.4.5 0 .3-.3.5-.5.4l-3-.3c-.2.1-.3.2-.3.4s.1.5.3.6l5.3.6c.3 0 .5.3.4.5 0 .3-.3.5-.5.4l-7.5-.8c-.3 0-.5-.3-.4-.5 0-.3.3-.5.5-.4l.7.1c.2 0 .4-.3.4-.5s-.1-.4-.2-.5l-3.2-.4c-.3 0-.5-.3-.4-.5.1-.5.3-.7.6-.7z"/><path id="XMLID_3257_" class="st34" d="M186.5 165.7c-1.2-.1-2.4-.3-3.6-.4-.3 0-.5.2-.5.4 0 .3.2.5.4.5l.9.1c.2.1.4.3.3.5 0 .3-.3.5-.5.4l-.5-.1h-.4c-.3 0-.5.2-.5.4 0 .3.2.5.4.5l3.2.4c.3 0 .5-.2.5-.4 0-.3-.2-.5-.4-.5l-.5-.1c-.3 0-.5-.3-.4-.5 0-.2.2-.4.4-.4l1.4.2-.2-1z"/></g><path id="XMLID_3255_" class="st34" d="M181.4 169l2.3.3c.3 0 .5.3.4.5 0 .3-.3.5-.5.4l-2.3-.3c-.3 0-.5-.3-.4-.5 0-.2.2-.4.5-.4z"/><g id="XMLID_1960_"><path id="XMLID_3254_" class="st34" d="M179.2 170.7l3.3.4c.3 0 .5.3.4.5 0 .3-.3.5-.5.4l-1-.1c-.2 0-.4.2-.5.4 0 .3.2.5.4.5l.5.1.5.1c.3 0 .5.3.4.5 0 .3-.3.5-.5.4l-3-.3-.5-.1c-.3 0-.5.2-.5.4s.1.4.3.5l4.4.5c.3 0 .5.3.4.5 0 .3-.3.5-.5.4l-7.5-.8c-.3 0-.5-.3-.4-.5 0-.3.3-.5.5-.4l1.6.2c.2 0 .4-.2.4-.4 0-.3-.2-.5-.4-.5l-.5-.1-1.7-.2c-.3 0-.5-.3-.4-.5 0-.3.3-.5.5-.4l4.2.5.5.1c.3 0 .5-.2.5-.4s-.1-.5-.3-.5l-.7-.1c-.3 0-.5-.3-.4-.5 0-.4.2-.6.5-.6z"/></g><g id="XMLID_1961_"><path id="XMLID_3252_" class="st36" d="M162.6 166l-.6 2c-.2.8-.5.8-.6-.1l-.1-2c0-.8 1.5-.6 1.3.1z"/><path id="XMLID_3251_" class="st36" d="M160.6 166l.5 2c.2.8-.1.9-.5.2l-1.1-1.7c-.5-.6.9-1.3 1.1-.5z"/><path id="XMLID_3250_" class="st36" d="M158.9 167l1.4 1.5c.6.6.4.9-.4.5l-1.8-.9c-.7-.5.2-1.7.8-1.1z"/><path id="XMLID_3249_" class="st36" d="M157.9 168.6l2 .6c.8.2.8.5-.1.6l-2 .1c-.9.1-.7-1.5.1-1.3z"/><path id="XMLID_3248_" class="st36" d="M157.8 170.6l2-.5c.8-.2.9.1.2.5l-1.7 1.1c-.6.5-1.3-.9-.5-1.1z"/><path id="XMLID_3247_" class="st36" d="M158.8 172.3l1.5-1.4c.6-.6.9-.4.5.4l-.9 1.8c-.5.7-1.7-.2-1.1-.8z"/><path id="XMLID_3246_" class="st36" d="M160.5 173.4l.6-2c.2-.8.5-.8.6.1l.1 2c0 .8-1.6.6-1.3-.1z"/><path id="XMLID_3245_" class="st36" d="M162.4 173.4l-.5-2c-.2-.8.1-.9.5-.2l1.1 1.7c.5.6-.9 1.3-1.1.5z"/><path id="XMLID_3244_" class="st36" d="M164.2 172.4l-1.4-1.5c-.6-.6-.4-.9.4-.5l1.8.9c.6.5-.3 1.7-.8 1.1z"/><path id="XMLID_3243_" class="st36" d="M165.2 170.8l-2-.6c-.8-.2-.8-.5.1-.6l2-.1c.8-.1.6 1.5-.1 1.3z"/><path id="XMLID_3242_" class="st36" d="M165.2 168.8l-2 .5c-.8.2-.9-.1-.2-.5l1.7-1.1c.7-.5 1.3.9.5 1.1z"/><path id="XMLID_3241_" class="st36" d="M164.3 167.1l-1.5 1.4c-.6.6-.9.4-.5-.4l.9-1.8c.4-.7 1.6.2 1.1.8z"/><g id="XMLID_1962_"><path id="XMLID_3240_" class="st36" d="M177.4 162.6l-.6 2.1c-.2.8-.6.8-.6-.1l-.1-2.2c-.1-.8 1.5-.6 1.3.2z"/><path id="XMLID_3239_" class="st36" d="M175.3 162.6l.5 2.1c.2.9-.1 1-.6.3l-1.2-1.8c-.4-.8 1.1-1.5 1.3-.6z"/><path id="XMLID_3238_" class="st36" d="M173.5 163.6l1.5 1.6c.6.6.4.9-.4.5l-1.9-1c-.8-.4.2-1.7.8-1.1z"/><path id="XMLID_3237_" class="st36" d="M172.4 165.4l2.1.6c.8.2.8.6-.1.6l-2.2.1c-.8.1-.6-1.6.2-1.3z"/><path id="XMLID_3236_" class="st36" d="M172.3 167.5l2.1-.5c.9-.2 1 .1.3.6l-1.8 1.2c-.7.4-1.4-1.1-.6-1.3z"/><path id="XMLID_3235_" class="st36" d="M173.3 169.3l1.6-1.5c.6-.6.9-.4.5.4l-1 1.9c-.3.8-1.7-.2-1.1-.8z"/><path id="XMLID_3234_" class="st36" d="M175.1 170.4l.6-2.1c.2-.8.6-.8.6.1l.1 2.2c.1.8-1.5.6-1.3-.2z"/><path id="XMLID_3233_" class="st36" d="M177.2 170.4l-.5-2.1c-.2-.9.1-1 .6-.3l1.2 1.8c.4.8-1.1 1.4-1.3.6z"/><path id="XMLID_3232_" class="st36" d="M179.1 169.4l-1.5-1.6c-.6-.6-.4-.9.4-.5l1.9 1c.7.4-.2 1.7-.8 1.1z"/><path id="XMLID_3214_" class="st36" d="M180.2 167.6l-2.1-.6c-.8-.2-.8-.6.1-.6l2.2-.1c.7-.1.6 1.5-.2 1.3z"/><path id="XMLID_3213_" class="st36" d="M180.2 165.5l-2.1.5c-.9.2-1-.1-.3-.6l1.8-1.2c.8-.4 1.4 1.1.6 1.3z"/><path id="XMLID_3212_" class="st36" d="M179.2 163.7l-1.6 1.5c-.6.6-.9.4-.5-.4l1-1.9c.4-.8 1.7.2 1.1.8z"/></g></g><g id="XMLID_1963_"><path id="XMLID_3209_" class="st37" d="M176.4 165.7c.4 0 .7.4.7.8s-.4.7-.8.7-.7-.4-.7-.8.3-.7.8-.7z"/></g><g id="XMLID_1964_"><path id="XMLID_3207_" class="st35" d="M186.1 170l1.4 1.5c.6.6.4.9-.4.5l-1.8-.9c-.7-.4.2-1.7.8-1.1z"/><path id="XMLID_3206_" class="st35" d="M185 171.7l2 .6c.8.2.8.5-.1.6l-2 .1c-.8 0-.6-1.5.1-1.3z"/><path id="XMLID_3205_" class="st35" d="M185 173.6l2-.5c.8-.2.9.1.2.5l-1.7 1.1c-.6.5-1.3-.9-.5-1.1z"/><g id="XMLID_1965_"><path id="XMLID_3204_" class="st35" d="M186 175.4l1.5-1.4c.6-.6.9-.4.5.4l-.9 1.8c-.5.6-1.7-.3-1.1-.8z"/></g></g><g id="XMLID_1966_"><path id="XMLID_3201_" class="st36" d="M145.8 173.8l-.6 2c-.2.8-.5.8-.6-.1l-.1-2c0-.8 1.6-.7 1.3.1z"/><path id="XMLID_3200_" class="st36" d="M143.9 173.7l.5 2c.2.8-.1.9-.5.2l-1.1-1.7c-.5-.6.9-1.2 1.1-.5z"/><path id="XMLID_3199_" class="st36" d="M142.1 174.7l1.4 1.5c.6.6.4.9-.4.5l-1.8-.9c-.6-.4.3-1.7.8-1.1z"/><path id="XMLID_3198_" class="st36" d="M148.5 176.5l-2 .5c-.8.2-.9-.1-.2-.5l1.7-1.1c.6-.5 1.2.9.5 1.1z"/><path id="XMLID_3194_" class="st36" d="M147.5 174.8l-1.5 1.4c-.6.6-.9.4-.5-.4l.9-1.8c.4-.7 1.7.3 1.1.8z"/></g><path id="XMLID_3192_" class="st34" d="M150.5 175.8l3.8.4c.2 0 .5-.2.5-.4 0-.3-.2-.5-.4-.5l-.5-.1-3.2-.4c-.3 0-.5-.3-.4-.5 0-.3.3-.5.5-.4l7.5.8c.3 0 .5.3.4.5 0 .3-.3.5-.5.4l-1.5-.2-.5-.1c-.3 0-.5.2-.5.4s.1.5.4.5l.5.1c.2.1.4.3.3.5 0 .3-.3.5-.5.4l-6-.7c-.3 0-.5-.3-.4-.5 0-.1.3-.3.5-.2z"/><path id="XMLID_3190_" class="st34" d="M157.8 178.5l3.8.4c.2 0 .5-.2.5-.4 0-.3-.2-.5-.4-.5l-.5-.1-3.2-.4c-.3 0-.5-.3-.4-.5 0-.3.3-.5.5-.4l8.7 1c.3 0 .5.3.4.5 0 .3-.3.5-.5.4l-2.7-.3-.5-.1c-.3 0-.5.2-.5.4s.1.5.4.5l2 .2-1.5-.2 1.5.2c.2.1.4.3.3.5 0 .3-.3.5-.5.4l-7.5-.8c-.3 0-.5-.3-.4-.5 0-.1.2-.3.5-.3z"/><g id="XMLID_1967_"><path id="XMLID_3189_" class="st35" d="M173 176.8l-.6 2c-.2.8-.5.8-.6-.1l-.1-2c0-.8 1.5-.6 1.3.1z"/><path id="XMLID_3188_" class="st35" d="M171.1 176.8l.5 2c.2.8-.1.9-.5.2l-1.1-1.7c-.6-.7.9-1.3 1.1-.5z"/><path id="XMLID_3187_" class="st35" d="M169.3 177.7l1.4 1.5c.6.6.4.9-.4.5l-1.8-.9c-.6-.4.3-1.6.8-1.1z"/><path id="XMLID_3186_" class="st35" d="M175.7 179.6l-2 .5c-.8.2-.9-.1-.2-.5l1.7-1.1c.6-.5 1.2.9.5 1.1z"/><path id="XMLID_3185_" class="st35" d="M174.7 177.8l-1.5 1.4c-.6.6-.9.4-.5-.4l.9-1.8c.4-.6 1.7.3 1.1.8z"/></g><path id="XMLID_3183_" class="st34" d="M177.7 178.8l3.8.4c.2 0 .5-.2.5-.4 0-.3-.2-.5-.4-.5l-.5-.1-3.2-.4c-.3 0-.5-.3-.4-.5 0-.3.3-.5.5-.4l7.5.8c.3 0 .5.3.4.5 0 .3-.3.5-.5.4l-1.5-.2-.5-.1c-.3 0-.5.2-.5.4s.1.5.4.5l.5.1c.2.1.4.3.3.5 0 .3-.3.5-.5.4l-6-.7c-.3 0-.5-.3-.4-.5 0 0 .3-.2.5-.2z"/><g id="XMLID_1968_"><path id="XMLID_3182_" class="st34" d="M171.5 148.5l-.7-.1c-.2-.1-.4-.3-.3-.5 0-.3.3-.5.5-.4 1.1.1 2.3.2 3.4.4.3 0 .5-.2.5-.4 0-.3-.2-.5-.4-.5l-6.5-.7c-.3 0-.5.2-.5.4 0 .3.2.5.4.5l1.4.2c.3 0 .5.3.4.5 0 .2-.2.4-.4.4l-4.7-.5c-.3 0-.5.2-.5.4 0 .3.2.5.4.5l6.9.8c.3 0 .5-.2.5-.4 0-.3-.1-.6-.4-.6z"/></g><path id="XMLID_3180_" class="st37" d="M164.6 141.8c.4 0 .7.4.6.8 0 .4-.4.7-.8.6-.4 0-.7-.4-.6-.8.1-.4.4-.6.8-.6z"/></g></g><path id="XMLID_3176_" class="st38" d="M182.7 82.7s-10.6-2.4-17.2-1.8c-6.6.6-17 3.8-18.2 4.7-1.1.8 5.2 29.1 2.7 43-2 11.3-1.1 9.1-1.1 9.1s33.2 3.8 33.4 2.4c.3-1.9-.1-.3-.3-10.3v-4c-.1-5-.8-14.8-.7-17.8.4-10.8.6-20.6 1.4-25.3z"/><path id="XMLID_3175_" class="st31" d="M175.5 81.5s-3.2 5.9-12.3 5.6c-5.6-.2-8.8-4.1-8.8-4.1 3.3-.6 1.1-.6 12.2-2.9l8.9 1.4z"/><path id="XMLID_3174_" class="st31" d="M161.1 83.2l.7-22.6 7.5-.7.3 21.6-4.6 7.3z"/><path id="XMLID_3173_" class="st31" d="M142.6 50.3c-.7 11.5 6.9 24.2 17.1 24.9 13.5.8 21-13.1 21.7-24.6.7-11.5-8.5-20.2-20-20.9-11.5-.9-18.1 9-18.8 20.6z"/><ellipse id="XMLID_3172_" transform="matrix(.998 .06268 -.06268 .998 3.79 -10.523)" cx="169.6" cy="55.2" rx="1.7" ry="2.7"/><ellipse id="XMLID_3171_" transform="rotate(3.597 150.881 56.113) scale(.99997)" cx="150.9" cy="56.1" rx="1.7" ry="2.7"/><path id="XMLID_3170_" class="st31" d="M177.7 54.2c-.6 2.7-.3 4.6 1.5 5 1.7.4 5.1-1.3 5.7-4 .6-2.7-.3-5.1-2.1-5.5-1.8-.4-4.5 1.9-5.1 4.5z"/><path id="XMLID_3169_" class="st29" d="M142.3 47.9c0 1.2 16.4-8 17.7-11.4 1.3-3.3 2.3-8.2 1.7-8.7-.6-.6-9.5-.1-14.8 5.4-3.8 4-4.5 11.9-4.6 14.7z"/><path id="XMLID_3168_" class="st29" d="M181.9 49.6c-.2 1.1-19.5-9.5-20.8-12.7-1.3-3.2 0-8.5.6-9.1.6-.6 10.5-.4 15.8 4.9 3.8 3.8 5.3 11.7 4.4 16.9z"/><path id="XMLID_3167_" class="st31" d="M165 236.9c-.4-1.5-13.7-34.9-18-39-4.3-4.1-7.8-5.4-9.3-5.7-1.5-.3-2 4.8 0 9 2.1 4.2 21.1 33.5 23.1 35.5 2.1 2.1 5.1 3.4 4.2.2z"/><path id="XMLID_1970_" class="st29" d="M141.9 53.3c.2-1.4-2.8-11.8 5.8-20.5 3.5-3.6 17.3-1.9 17.3-1.9L152.2 48 145 73.2s-3.3-18.3-3.1-19.9z"/><path id="XMLID_3165_" class="st29" d="M167.4 48s2.4-.2 4.2.1c1.3.2 3.3.9 3.3.9l-.6.9s-1.1 0-2.6-.2c-1.4-.3-4.2.1-4.2.1l-.1-1.8z"/><path id="XMLID_3164_" class="st29" d="M153.7 48s-2.4-.2-4.2.1c-1.3.2-3.3.9-3.3.9l.6.9s1.1 0 2.6-.2c1.4-.3 4.2.1 4.2.1l.1-1.8z"/><path id="XMLID_1971_" d="M143.4 249.9l1.8 3.2 8.3-3.9 8.2-7.1 1-12.2-9.1-20.9-8.7 4.8 11 20.6z"/><path id="XMLID_1972_" class="st39" d="M160.9 62.4c0 .4-3.6.4-3.6 0s.8-.7 1.8-.7 1.8.4 1.8.7z"/><path id="XMLID_1973_" d="M172 219.8l-4.7 24.3 20.7 9.3v3.6l-9.2.2-18.6-4.5 1.9-34.7z"/><path id="XMLID_3160_" class="st31" d="M147.7 161.4c.1.5 4.9 5.1 4.9 5.1l2.8 8.1-1 .4-2.8-5.8.5 6.6-.1 2-1.4.4-1.1-3-.8 2.7-1.5-.4-.6-.8-.7.9-1-.5-.5-14 3.3-1.7z"/><path id="XMLID_3159_" class="st38" d="M142.7 131.1c1.9-10.6 6.6-29.2 8.3-28.3 1.2.7 3.6 23.2 3.6 23.2s14.2-29.3 10.5-34.8c0 0-7.3-1.8-14.9-6.1-8.6-4.9-15.2 44.6-15.2 44.6l9 36.4 5.7-3.1-7-31.9z"/><path id="XMLID_3158_" class="st38" d="M175.6 125.1c-2.1-10.6 5.1-23.8 3.4-22.8-1.2.7-2.4 21.7-2.4 21.7s-14.2-29.3-10.5-34.8c0 0 7.3-1.8 14.9-6.1 8.6-4.9 4.7 39.4 4.7 39.4s-.3 5-4.2 5c-1.2-.1-5.9-2.4-5.9-2.4z"/><path id="XMLID_3157_" class="st40" d="M183.8 125.1c2-2.1-1.2-7.3-2-9.6l-16-22.3-3.6 2.9 14.7 23.2c.1.2 5.3 7.5 6.9 5.8z"/><path id="XMLID_3156_" class="st41" d="M181.5 114.1l-12.8-18.8-6 4.5 13.8 23.1 2 2.9s3.3 1.9 5.5.5c2.8-1.8 2-5.4 2-5.4l-4.5-6.8z"/><path id="XMLID_3155_" class="st28" d="M160.3 72.3c3.7-.1 6.1-2 7-6.2l-13.2.4c.1 0 1.5 6 6.2 5.8z"/><path id="XMLID_3154_" class="st1" d="M167.2 66.1c-1.5 1.7-4 2.6-7.3 2.7-2.6.1-4.4-.8-5.5-1.8-.1-.3-.2-.5-.2-.5l13-.4z"/><g id="XMLID_1974_"><path id="XMLID_1975_" class="st14" d="M156.2 96.5h-5.6v-2h5.6c1.2 0 2.2-1 2.2-2.2V85c0-1.2-1-2.2-2.2-2.2h-5.3v-2h5.3c2.3 0 4.2 1.9 4.2 4.2v7.2c-.1 2.4-1.9 4.3-4.2 4.3z"/><circle id="XMLID_1976_" class="st1" cx="138.2" cy="78.7" r="3"/><ellipse id="XMLID_1977_" class="st1" cx="142.4" cy="76.8" rx="4.1" ry="3.5"/><circle id="XMLID_1978_" class="st1" cx="151.6" cy="78.8" r="2.4"/><ellipse id="XMLID_1979_" class="st1" cx="145.9" cy="77.8" rx="2.5" ry="2.5"/><circle id="XMLID_1980_" class="st1" cx="149.4" cy="77.3" r="2.4"/><path id="XMLID_1981_" class="st14" d="M153.9 79.2v20.2c0 1.7-1.4 3.1-3.1 3.1h-12.6c-1.7 0-3.1-1.4-3.1-3.1V79.2h18.8z"/><path id="XMLID_1982_" class="st15" d="M153 98.8v.7c0 1.2-1.2 2.2-2.7 2.2H139c-1.5 0-2.8-1-2.8-2.2v-.7H153z"/><path id="XMLID_1983_" class="st15" d="M138.6 84.2h1v11.7h-1z"/><path id="XMLID_1984_" class="st15" d="M144 84.2h1v11.7h-1z"/><path id="XMLID_1985_" class="st15" d="M149.4 84.2h1v11.7h-1z"/><path id="XMLID_1986_" class="st16" d="M135.2 79.1H154v2.4h-18.8z"/><path id="XMLID_1987_" class="st14" d="M142.1 74.9c2 0 3.6 1.4 3.6 3.2.1-.2.1-.5.1-.7 0-1.6-1.6-2.9-3.5-2.9-1.6 0-2.9.9-3.4 2.1.7-1.1 1.9-1.7 3.2-1.7z"/><path id="XMLID_1988_" class="st17" d="M136.2 98.2H153v.6h-16.8z"/></g><path id="XMLID_3138_" class="st40" d="M166.7 95.7c-.4-.3-1.9-6.8-1.9-6.8l-5.5-6.6-.9.7 3.5 5.4-5.4-3.8-1.8-1-.3 1.6 1.3 1.8-1.4-.2-.4 1.5 1 1.1-1.1.1-.1 1.1 9.9 7 3.1-1.9z"/></g><g id="XMLID_1989_"><path id="XMLID_3136_" class="st42" d="M195.3 140l-1.2 109.8 7.9.3 8.4-108c-.1 0-12.1-7.2-15.1-2.1z"/><path id="XMLID_1990_" class="st42" d="M223.6 147.2c3.4.2 2.5 1.1 5.9 1.6l-5.9 100.1-7 .3-2.3-101c4.7-.6 4.5-1.3 9.3-1z"/><path id="XMLID_1991_" class="st43" d="M194.4 149.1c5.5-.7 11.9-1.2 17.6-1.1l-4.8 48.9c-4.1-.1-8.3-.2-12.4-.2h-4.7l.1-47.1c.6-.2 3.7-.4 4.2-.5z"/><path id="XMLID_1992_" class="st43" d="M225.9 149.2c2.5.9 4.9 1.9 7.3 3.1 0 .2.1.4.1.6l-2.6 43.7c-5.5.4-12.3.4-17.9.3l-3.9-48.9c5.4-.2 11.6.1 17 1.2z"/><path id="XMLID_3132_" class="st23" d="M201.9 249.2l.2 7.2s-27.7 2.8-30 2.9c-.5 0-.9-2.7-.9-2.7s23.5-7.3 22.7-7.3c-.8 0 8-.1 8-.1z"/><path id="XMLID_3131_" class="st23" d="M216.3 248.4l-.1 8s18.8 4.5 21 4.8c.5.1 5.1-.3 5.1-.3s.8-2.2-.3-2.6c-7.1-2.5-18.3-9.4-17.7-9.4.7 0-8-.5-8-.5z"/><path id="XMLID_1993_" class="st44" d="M190.6 158.8c-.4-7.7 2.5-38.6 2.1-43.1l-5 13.1c-.2-.1-10.8-4.2-12.2-4.8l12.1-25.1c1.1-1.3 2.2-2 3.3-2.5 5.2-3.3 15.8-6.2 24.2-5.9 8.9.4 16.5 1.9 20.8 6.4.7.6 1.4 1.3 2.2 2.2l12 22.7c-3.4 1.7-8.3 3.2-12.1 4.2l-5.4-11c-.1.5 2.1 42.4 2 44.4-.9 2.2-43.3.5-44-.6z"/><path id="XMLID_3129_" class="st45" d="M231.8 194.9s-.3 3-.7 5.5c-.3 2.5-18.8 0-18.8 0l-.5-5.4c.1-.1 22.3-.8 20-.1z"/><path id="XMLID_3128_" class="st45" d="M189.7 194.7s0 3 .1 5.5c.1 2.6 17.9.9 17.9.9l.9-5.4c.1 0-20.9-1.8-18.9-1z"/><path id="XMLID_3127_" class="st42" d="M192.7 168.1c3-1.6 5.7-3.5 8.4-5.5l-5.1-6.4c-1.9-2.3-7 1.2-7 1.2l3.3 10.9.4-.2z"/><path id="XMLID_1994_" class="st42" d="M207.2 84.1c3.4-2.6 11.6-.7 11.8.3v5.9s.7 5.6-6.3 5.5c-6.8-.1-5.6-6.4-5.6-6.4s-.5-5 .1-5.3z"/><path id="XMLID_3125_" class="st1" d="M207.7 79c.2-.1.5-.1.8-.2 0-.2-.1-.4-.1-.4l-.7.6z"/><path id="XMLID_3124_" class="st42" d="M194.2 68.9c.6 11.5 7.9 18.5 19 18.4 10-.1 18-10.4 18.4-21.9.4-11.5-5.4-21.8-16.3-21.8-16.8.1-22.1 4.4-21.1 25.3z"/><path id="XMLID_3123_" class="st46" d="M234.5 49.5c-4.1-7.1-24.8-9.1-32.5-6.4-1.2.4-10.9 11.4-8.5 13.9 4.1 4.5 32.8-2.3 34.5-2.8 1 10.7.6 16.3-.2 23.6-.2 2.1 3.2 1.9 3.3 1.1 1.8-8.3 6.7-23.6 3.4-29.4z"/><path id="XMLID_3122_" class="st42" d="M226.2 68.8c-1.2 2.7-1.3 4.9.5 5.7 1.8.8 5.9-.2 7.1-2.9 1.2-2.7.7-5.6-1.1-6.5-1.7-.8-5.3 1-6.5 3.7z"/><path id="XMLID_3121_" d="M222.2 65.6c0 1.5-.7 2.7-1.6 2.7-.9 0-1.7-1.2-1.8-2.6 0-1.5.7-2.7 1.6-2.7 1-.1 1.8 1.1 1.8 2.6z"/><ellipse id="XMLID_3120_" transform="matrix(.9997 -.02351 .02351 .9997 -1.488 4.769)" cx="202" cy="65.6" rx="1.7" ry="2.7"/><g id="XMLID_1995_"><path id="XMLID_3114_" class="st47" d="M209.1 80.2c1.7-.1 3.6-.5 5.6-1.3l-.7-1.7c-1.9.7-3.6 1.1-5 1.1-1.9.1-3.4-.4-4.7-1.2l-1 1.5c1.7 1.2 3.6 1.7 5.8 1.6z"/></g><path id="XMLID_818_" class="st46" d="M216.7 58.9s2.4-.5 4.3-.3c1.3.2 3.3.9 3.3.9l-.8 1.8s-1.5-.1-2.9-.4c-1.5-.2-3.6.3-3.6.3l-.3-2.3z"/><path id="XMLID_586_" class="st46" d="M206.3 59s-2.4-.6-4.3-.5c-1.4.1-3.4.8-3.4.8l.7 1.9s1.5-.1 2.9-.3c1.5-.2 3.6.4 3.6.4l.5-2.3z"/><path id="XMLID_1996_" class="st48" d="M210.6 72.5c0-.4-.6-.8-1.4-.8-.8 0-1.4.4-1.4.8s2.8.5 2.8 0z"/><path id="XMLID_581_" class="st9" d="M231.7 40.4c-5.1-3.1-13.6-5.7-19.4-6-5.8-.2-6.9-.1-9.7 2.1-2.8 2.2-5.1 12-5.1 12l-.1 1c16.7-4.4 37.7 12.8 37.7 12.8s1.2-5.3 2.5-11c1.4-5.7-.7-7.8-5.9-10.9z"/><path id="XMLID_580_" class="st49" d="M193.1 55.6c-.6.7-7.3-4.5-7.5-7.2-.2-2.6.3-3.9 7.6-3.6 7.3.3 20.2 2.2 25.5 3.6 5.3 1.3 14.1 4.1 15.2 8.7 1.2 4.7 1.2 5.6 1.2 5.6s-7.2-6.7-16.2-8.9c-8.8-2.2-21.8-2.9-25.8 1.8z"/><path id="XMLID_1997_" class="st1" d="M216.1 254l20 4.9 6.4-.5.3 2.4-6.3.6-20.3-5z"/><path id="XMLID_1998_" class="st1" d="M202.3 253.9l-.2 2.5-28.2 3.3-3.3-.2.6-2.9 3.9.5z"/><path id="XMLID_1999_" class="st42" d="M184.6 134.3l2.3-5.8-10.5-4.1-3.3 7.5c-.4 1-.5 1.9-.5 2.6.1 2.4 12.9 20.1 18.4 27 0 0 4.2-5.2 4.9-5.3l-11.3-21.9zm68.9-1.7s-1.8-4.8-3.8-10.5l-10.2 3.6 4.3 10s11.5 2.3 9.7-3.1z"/><g id="XMLID_2002_"><path id="XMLID_2003_" class="st14" d="M215.1 123.4h-5.6v-2h5.6c1.2 0 2.2-1 2.2-2.2V112c0-1.2-1-2.2-2.2-2.2h-5.3v-2h5.3c2.3 0 4.2 1.9 4.2 4.2v7.2c0 2.3-1.9 4.2-4.2 4.2z"/><circle id="XMLID_2004_" class="st1" cx="197.2" cy="105.6" r="3"/><ellipse id="XMLID_2005_" class="st1" cx="201.3" cy="103.8" rx="4.1" ry="3.5"/><circle id="XMLID_2006_" class="st1" cx="210.5" cy="105.7" r="2.4"/><ellipse id="XMLID_2007_" class="st1" cx="204.9" cy="104.7" rx="2.5" ry="2.5"/><circle id="XMLID_2008_" class="st1" cx="208.3" cy="104.3" r="2.4"/><path id="XMLID_2009_" class="st14" d="M212.9 106.1v20.2c0 1.7-1.4 3.1-3.1 3.1h-12.6c-1.7 0-3.1-1.4-3.1-3.1v-20.2h18.8z"/><path id="XMLID_2010_" class="st15" d="M211.9 125.8v.7c0 1.2-1.2 2.2-2.7 2.2h-11.3c-1.5 0-2.8-1-2.8-2.2v-.7h16.8z"/><path id="XMLID_2011_" class="st15" d="M197.5 111.2h1v11.7h-1z"/><path id="XMLID_2012_" class="st15" d="M202.9 111.2h1v11.7h-1z"/><path id="XMLID_2013_" class="st15" d="M208.4 111.2h1v11.7h-1z"/><path id="XMLID_2014_" class="st16" d="M194.1 106h18.8v2.4h-18.8z"/><path id="XMLID_2015_" class="st14" d="M201.1 101.8c2 0 3.6 1.4 3.6 3.2.1-.2.1-.5.1-.7 0-1.6-1.6-2.9-3.5-2.9-1.6 0-2.9.9-3.4 2.1.7-1 1.8-1.7 3.2-1.7z"/><path id="XMLID_2016_" class="st17" d="M195.1 125.1h16.8v.6h-16.8z"/></g><path id="XMLID_8_" class="st42" d="M226 120.2c-.4-.3-2.2-5.6-2.2-5.6l-4.4-5.7-.9.7 1 3.4-4.4-2-.3 1.6 1.3 1.4-1.4-.1-.4 1.9 1.4 1.1-1.5-.1-.1 1.8 1.4.9-1.4.2-.1 2 8.4 3.1 3.6-4.6z"/><path id="XMLID_2017_" class="st42" d="M253.7 133.6s.2 5.1-1.6 6.7c-1.8 1.6-8 1.4-8 1.4l-21.7-17.2 3.5-4.3 27.8 13.4z"/></g></g></g></svg>