<svg version="1.1" id="IMG_x5F_01" xmlns="http://www.w3.org/2000/svg" xmlns:xlink="http://www.w3.org/1999/xlink" x="0px" y="0px" width="270px" height="270px" viewBox="0 0 270 270" xml:space="preserve"><style type="text/css">.st0{fill:#ED5463;} .st1{fill:#FFEBBB;} .st2{fill:#FFE298;} .st3{clip-path:url(#XMLID_51_);} .st4{fill:#F9D9EB;} .st5{fill:#4D4246;} .st6{fill:#BB825C;} .st7{fill:#A1D469;} .st8{fill:#D870AD;} .st9{fill:#312617;} .st10{fill:#B16F43;} .st11{fill:#B5784F;} .st12{fill:#8DC050;} .st13{fill:#3BAFDA;} .st14{fill:#2E2E2B;} .st15{fill:#977BDC;} .st16{fill:#C5863E;} .st17{fill:#CB6756;} .st18{fill:#C85D4B;} .st19{fill:#B27146;} .st20{fill:#42281C;} .st21{fill:#F6F7FA;} .st22{fill:#AC6841;} .st23{fill:#A86037;} .st24{fill:#646D78;} .st25{fill:#B06F4A;} .st26{fill:none;stroke:#A86037;stroke-width:2;stroke-linecap:round;stroke-miterlimit:10;} .st27{clip-path:url(#XMLID_51_);fill:#BB825C;} .st28{clip-path:url(#XMLID_51_);fill:#A1D469;} .st29{clip-path:url(#XMLID_51_);fill:#8DC050;}</style><g id="XMLID_3079_"><g id="XMLID_3082_"><g id="XMLID_3083_"><circle id="XMLID_3084_" class="st0" cx="135" cy="135" r="135"/><circle id="XMLID_3085_" class="st1" cx="135" cy="135" r="129.7"/><g id="XMLID_3086_"><g id="XMLID_3087_"><g id="XMLID_3088_"><path id="XMLID_3089_" class="st2" d="M26.7 206.4l36.9 36.9c5 3.3 10.3 6.3 15.8 8.9l-61.6-61.6c2.6 5.5 5.6 10.8 8.9 15.8z"/><path id="XMLID_3090_" class="st2" d="M9.3 167l93.8 93.8c2.9.7 5.8 1.4 8.8 1.9L7.3 158.2c.6 3 1.2 5.9 2 8.8z"/><path id="XMLID_3091_" class="st2" d="M5.3 134.2v.8c0 2.1.1 4.1.2 6.2l123.4 123.4c2.1.1 4.1.2 6.2.2h.8L5.3 134.2z"/><path id="XMLID_3092_" class="st2" d="M6.1 119.9L150 263.8c2-.2 4-.5 6-.8L7 113.9l-.9 6z"/><path id="XMLID_3093_" class="st2" d="M9.7 101.5l158.9 158.9c1.8-.5 3.6-1 5.3-1.5L11.2 96.1c-.6 1.8-1.1 3.6-1.5 5.4z"/><path id="XMLID_3094_" class="st2" d="M15.2 85.1l169.7 169.7 4.8-2.1L17.3 80.3l-2.1 4.8z"/><path id="XMLID_3095_" class="st2" d="M22.5 70.4l177.1 177.1c1.4-.8 2.9-1.7 4.3-2.6L25.1 66.1c-.9 1.4-1.8 2.8-2.6 4.3z"/><path id="XMLID_3096_" class="st2" d="M31.2 57.1l181.6 181.6 3.9-3L34.3 53.3c-1.1 1.2-2.1 2.5-3.1 3.8z"/><path id="XMLID_3097_" class="st2" d="M224.7 228.7c1.2-1.1 2.3-2.3 3.4-3.4L44.8 41.8c-1.2 1.1-2.3 2.3-3.4 3.4l183.3 183.5z"/><path id="XMLID_3098_" class="st2" d="M52.7 34.7l182.6 182.6c1-1.3 2-2.5 3-3.8L56.6 31.7c-1.3.9-2.6 2-3.9 3z"/><path id="XMLID_3099_" class="st2" d="M65.5 25.5l179.1 179.1c.9-1.4 1.8-2.8 2.6-4.3L69.7 22.9c-1.4.8-2.8 1.7-4.2 2.6z"/><path id="XMLID_3100_" class="st2" d="M79.6 17.7l172.7 172.7c.7-1.6 1.5-3.1 2.1-4.7L84.4 15.5c-1.6.7-3.2 1.4-4.8 2.2z"/><path id="XMLID_3101_" class="st2" d="M95.4 11.4l163.2 163.2c.6-1.8 1.1-3.5 1.6-5.3L100.7 9.9c-1.8.5-3.6 1-5.3 1.5z"/><path id="XMLID_3102_" class="st2" d="M113.1 7.1l149.8 149.8.9-6L119.1 6.2c-2.1.3-4.1.6-6 .9z"/><path id="XMLID_3103_" class="st2" d="M135 5.3h-1.8l131.5 131.5V135c0-1.7 0-3.4-.1-5.2L140.2 5.4c-1.8-.1-3.5-.1-5.2-.1z"/><path id="XMLID_3104_" class="st2" d="M157 7.1L262.9 113c-.5-2.9-1.1-5.8-1.8-8.7L165.7 8.9c-2.9-.7-5.8-1.3-8.7-1.8z"/><path id="XMLID_3105_" class="st2" d="M188.7 16.9l64.4 64.4c-2.3-5.2-5-10.1-8-14.9l-41.5-41.5c-4.7-3-9.7-5.7-14.9-8z"/></g></g></g></g></g><g id="XMLID_3106_"><defs><circle id="XMLID_3143_" cx="135" cy="135" r="129.7"/></defs><clipPath id="XMLID_51_"><use xlink:href="#XMLID_3143_" overflow="visible"/></clipPath><g id="XMLID_3107_" class="st3"><g id="XMLID_3108_"><path id="XMLID_3109_" class="st4" d="M192.6 131.6l17.9.4-8.4 13.7z"/><path id="XMLID_3110_" class="st5" d="M240.5 230.4l-68.4 4.9v34.5l68.5-20.7z"/><path id="XMLID_3796_" class="st6" d="M178 157.5l-12.3 53.1-15.3-3.9 7.1-51.5c-.1-.1 20.3-7.6 20.5 2.3z"/><g id="XMLID_3111_"><path id="XMLID_3112_" class="st7" d="M243.1 128.1c-4.7-1.2-13.9-2.7-23.9-3.7-5.3-.5-12.6 15.9-17.9 15.7-6-.2-10.2-16.4-15.5-15.5-11.6 1.9-20.2 5.3-20.2 5.3 0 .1 4.3 20.7 5.5 45.3 1.4 26.6-.2 57.9-.2 72.9 0 1 23.9-1.1 44.9-1.2 15.2 0 26.6-1.2 26.6-.8.4-3.4-2.4-56.4-.5-75.4-.1-.1 1.6-42.5 1.2-42.6z"/><path id="XMLID_3115_" class="st8" d="M234.6 240.6v0z"/></g><path id="XMLID_3116_" class="st6" d="M207 44.1c23.7.3 28.6 20.8 27.5 40-1 16.5-5.3 29.2-19.5 33.5l-.6 6.3c.6.1 2.5.4 3 .5 1.3.2-5 10.8-16.3 10.4-10.4-.4-12.5-11.1-12.5-11.1h3.7l.1-5.4c-9.5-3.4-16.7-11.2-17-24.4-.8-35.2 1.9-50.2 31.6-49.8z"/><path id="XMLID_3117_" class="st9" d="M225.5 53.5c4.1 2.3 5.9 10.1 6.1 20.1.1 5.8-2.8 10.5-2.9 12.3 0 1.3 2.8-3.1 2.8-3.1-.3 6.8-1.1 14.2-2 21.4-.5 3.6 3.2.6 5.4-3.9 4.3-8.9 9.7-41.3 2.5-51.7-2.7-3.8-6.4-4.1-6.4-4.1s-.9-5.3-5.8-7.6c-12.9-6-35.4 2-37.2 3.4-6.5 3.1-9.4 7.1-11.2 11.9-1 2.7-1.5 5.4-1.8 8.1-.6 8 1.1 12.5 1.1 12.5s1.2-7.7 2-10.3c6.4-21.8 17-5.4 17.2-5.3 4.9 4.5 11.5 2.7 17.2-1.3 0 .1 8.2-4.6 13-2.4z"/><path id="XMLID_3788_" class="st6" d="M229.7 85.6c-2.1 4.5-4.7 10.6-1.8 12 2.9 1.4 9.6-.1 11.7-4.6 2.1-4.5 1.4-9.3-1.5-10.8-3-1.4-6.3-1.1-8.4 3.4z"/><path id="XMLID_3118_" class="st7" d="M165.5 129.9l-15.8 49.6 21.2 10 12.8-43.9z"/><path id="XMLID_3786_" d="M216.3 84.7c.1 2.4-1.1 4.3-2.6 4.3s-2.7-1.8-2.8-4.2c-.1-2.4 1.1-4.3 2.6-4.3 1.5-.1 2.8 1.8 2.8 4.2z"/><path id="XMLID_3785_" d="M191 84.2c.1 2.4-1.1 4.3-2.6 4.3s-2.7-1.8-2.8-4.2c-.1-2.4 1.1-4.3 2.6-4.3 1.5-.1 2.7 1.8 2.8 4.2z"/><path id="XMLID_3784_" class="st9" d="M207.5 72.5s4 0 7.1.4c3.5.5 7.3 3.3 7.3 3.3l-1.7 1.9s-3.4-1-6.8-1.3c-2.5-.2-6-.3-6-.3l.1-4z"/><path id="XMLID_3783_" class="st9" d="M195.1 72.2s-4-.5-7.1.1c-2.2.5-7.4 3-7.4 3l1.6 2s4-1.2 6.6-1.5c3.4-.3 6.3.4 6.3.4v-4z"/><path id="XMLID_3119_" class="st10" d="M203.3 95.7c0-.5-1-1-2.2-1s-2.2.4-2.2 1c.1.5 4.4.5 4.4 0z"/><path id="XMLID_3120_" class="st11" d="M199.4 97.8s11.4-.9 14.6 4.4c3 4.9 15.7-.4 15.7-.4s.5 18.7-29.4 17.7c-24-.8-24.8-22.4-24.8-22.4l6.3 3.6c1.5.9 3.2 1.2 5 1.1 1.8-.1 3.7-.5 4.8-1.5 1.4-1.4 3.8-2.7 7.8-2.5z"/><path id="XMLID_3121_" class="st6" d="M209 104.6s-1.7 4.8-7.5 4.8c-5.7 0-6.9-5.1-6.9-5.1s7.7-3.1 14.4.3z"/><path id="XMLID_3779_" class="st10" d="M201.7 104.7c1.3 0 3.2-.2 5-.6.6-.1 1.5 1.8.7 2-2.1.6-4 .8-5.8.8-2.1 0-4.1-.5-5.8-1.3-.2-.1.4-2.2 1.2-1.9 1.5.5 3.3.9 4.7 1z"/><path id="XMLID_3122_" class="st12" d="M192.3 119.8l-.1 3.8-3.7.6 12.8 15.9-14.3-3 3.1-4.4-8.8-4.6 3-7.1z"/><path id="XMLID_3123_" class="st12" d="M214.7 120.4l-.4 3.4 2.5.4-15.5 15.9 16.1-2.6-3.1-4.4 8.8-4.6-3-7.1z"/><path id="XMLID_3124_" class="st12" d="M203.3 139.5l.1 107.6h-2.6l-.6-107.2 1.1.2z"/><path id="XMLID_3125_" class="st12" d="M170.9 189.5l.6-2.1-.5-2.6-21.3-9.8-1.2 4.3z"/><path id="XMLID_3126_" class="st12" d="M214.8 157.6h17l.2 14.8-6.7 7-10-6z"/></g><g id="XMLID_3127_"><g id="XMLID_3128_"><path id="XMLID_3129_" class="st13" d="M45.6 237l.8 15.1 68 24.6 1.6-41z"/><path id="XMLID_3771_" class="st14" d="M105.5 53.6c4.4 1.9 11.1 10.3 13.8 16.9 1.2 3 .3 6.2.3 7.4-.2 3.8 3.6 8.3 3.1 11.8-1.2 7.5-3.7 8.3-2.5 11.2s3.6 8 3.8 12.5c.2 4.6-4.7 7.8-4.7 7.8s3.1-2.4 2.5-6.3c-.6-3.8-1.3-6.2-1.3-6.2s2.7 9.1-2.7 12c0 0 8.5 6.8 8.7 12.1.1 5.3-.9 12.2-4.9 14.3s3.2 2.9 5.4 3.6c2.2.8 6.9 3.6 6.4 7.5s-9.2 7.7-9.2 7.7 8.4-3.9 7.5-8.4c-.9-4.6-4.6-4.1-4.6-4.1s6.2 5.3 1.1 7.7c-5.1 2.4-9.7 3.6-9.7 3.6s5.6-6.6-5-7.1c0 0 3.2 7.2 2.1 11.8-1.1 4.7-7.5 5.9-10.6 4.8-3.1-1.1-6.8-6.3-6.8-6.3s8 2.9 7.9-1.1c0-4-9.7-7.4-11-9.3s4.1-5.3.7-8-8.2-5.5-8.2-5.5l-8.8-26s3.4-42.2 3.5-45c.2-2.6 21.1-20.4 23.2-19.4z"/><path id="XMLID_3770_" class="st14" d="M35.2 92c0 .1-.2 2.2-1.2 4-.9 1.6-2.6 3-2.5 2.9 0 0-7.6 6.6-6.2 14.2s12.4 15.5 10.3 18.6-13.5 8.9-15.1 14.4 6.6 10.5 6.6 10.5-6.7-6.5-3.3-10.1c2.3-2.5 4.6-2.9 4.6-2.9s-3.3 3.4-2.7 6.8-.3 6.6-.3 6.6-3.1 1-2.9 3.7c.2 2.6 4 5 4.6 7.9.6 2.8-2.9 5.5-4.8 5.2 0 0 3.3 1.2 4.7-1.5 0 0 2.3 5.5 7.3 5.2 0 0-6-3.5-3.5-8.1s6-3 6-3 8.4 8.5 13.7 1.5c0 0 1.9-3.3-1.6-4.6 0 0 .9 2.6-1.5 3.1s-9.1-8.6 1.5-11.3c0 0 6-1.5 4.4 1.5S48 160 48 160s5.9 1.2 7.4-3.6c0 0 3.1 5.1 9 2.5 0 0-6.1-1.5-4.8-6.8 1.3-5.4 24.5-10.9 24.5-10.9S60.8 72.6 58.7 68.4c-1.5-3 14-24.1 4.5-22.1-2.7.6-13.1 6-20.9 22.8-1.5 3.2-7.3 6.1-8.4 11-1.2 5.1 2.1 8.5 1.3 11.9z"/><path id="XMLID_3130_" class="st6" d="M116.4 148.8c-2.6-5.4-9.8 22.2-9.4 23.8 2.9 10.8 8.2 37.6 8.6 39.5l3.2 12.7c0-.1-1.2-73.4-2.4-76z"/><path id="XMLID_3768_" class="st6" d="M34.1 212c.5-2.3 4.7-60.1 5.7-62.7 2.1-5.6 11.6 21.4 11.3 22.9-2 11-6 38.3-6.2 40.3l-10.8-.5z"/><path id="XMLID_3131_" class="st6" d="M111.8 81.4c-2.3-19-14.1-34.8-33-32.5-18.9 2.3-33.2 17.6-30.9 36.6 1.4 11.7 6 24.8 15 32.8 2.4 2.2 3.5 3.3 6.8 4.9l.4 11.2-13 2.6 22.7 27.2 14.6-26.6-9.5-2.4-1.1-10.6c.7 0 6.5-.8 10.3-2.5 9.7-4.3 20-21.7 17.7-40.7z"/><path id="XMLID_3132_" class="st15" d="M117.3 243.8c0-.9-1.1-9.8-2.5-19.7-1-6.6-4.2-14.2-5.3-21.1-2-11.8-1.7-21.8-1.5-22.2 0 0 2.8 14.2 4.5 14.5 0 0 12-2.6 12.1-2.8 1.3-2.5-4.7-33.4-8.2-43.7-.9-2.8-5.3-6.2-6.1-6.8-2.5-1.6-15.3-5.1-18.6-5.8 0 0 .3 15.2-12.5 15.6-15.8.6-16.5-16.8-16.5-16.8 1.1.2-11.2-.2-12.5 7.9-.8 4.8.3 28-.8 51.2-.9 19.2-6 32-5.5 49.7-.2.2 14.7 2.5 35.8 2.5 23 .1 37.6-2.5 37.6-2.5z"/><path id="XMLID_3765_" d="M67.7 92.1c.1 2.3 1.3 4.1 2.8 4.1 1.5 0 2.6-1.9 2.6-4.2-.1-2.3-1.3-4.1-2.8-4.1-1.5 0-2.6 1.9-2.6 4.2z"/><path id="XMLID_3764_" d="M96.1 92.6c.1 2.3 1.3 4.1 2.8 4.1 1.5 0 2.6-1.9 2.6-4.2-.1-2.3-1.3-4.1-2.8-4.1-1.5 0-2.6 1.9-2.6 4.2z"/><path id="XMLID_3763_" class="st14" d="M75 80.2s-4.5-1.5-7.7-1.2c-2.3.2-6.3 2.7-6.3 2.7l.4.7s3.2-.9 5.7-1.2c2.5-.3 7.4 1.4 7.4 1.4l.5-2.4z"/><path id="XMLID_3762_" class="st14" d="M93.7 80.1s4.5-1.5 7.7-1.2c2.3.2 6.3 2.7 6.3 2.7l-.4.7s-3.2-.9-5.7-1.2c-2.5-.3-7.4 1.4-7.4 1.4l-.5-2.4z"/><path id="XMLID_3133_" class="st16" d="M50.5 67.3h.1l.3.3-.4-.3z"/><path id="XMLID_3760_" class="st17" d="M94.7 110.1s-.2-1.5-6.2-2.5c-6-1.1-10.5-.2-11.6.9-1 1.1 12.1 4.6 17.8 1.6z"/><path id="XMLID_3759_" class="st18" d="M77.2 108.5c5.2 2.6 11.5 2.6 17.1 1.6h.1l.1.1s-1.6 4.1-7.6 4.8c-6 .7-9.3-4.9-10.1-6.5-.2-.3-.2.4.4 0z"/><path id="XMLID_3758_" class="st19" d="M85.6 101.6c0-.7 1.3-1.3 2.7-1.2 1.5.1 2.6.7 2.6 1.5s-5.3.4-5.3-.3z"/><path id="XMLID_3757_" class="st15" d="M35.5 190.7c.1.2 12.1 3.1 12.3 3 3.9-1 9.9-36.4 9.9-36.4s.7-11.5-6.8-14.7c-9.9-4.2-12.2 8.9-12.2 8.9s-5.2 36.2-3.2 39.2z"/><path id="XMLID_3756_" class="st14" d="M46.5 134.9c1.6 3.1 1.7 6.3 1.7 6.3s-2.6 1.9-1.7 4.4c1 2.5 5.3 3.6 6.7 6.1 1.4 2.5-1.1 6.1-3 6.4 0 0 3.5.2 4-2.8 0 0 3.9 4.6 8.6 2.8 0 0-6.7-1.5-5.8-6.6s4.8-4.7 4.8-4.7 10.6 5.5 13.5-2.8c0 0 .8-3.7-2.9-3.9 0 0 1.7 2.2-.5 3.4-2.2 1.2-11.2-5.4-2-11.2 0 0 .2-9.5-1.2-9.5-6.1-.1-23.5 9.6-22.2 12.1z"/><path id="XMLID_3134_" class="st14" d="M111 99.8s-4.8-23.1-9.3-28.8-9-6.8-9.3-9.5c-.3-2.8 2.1-11.3 2.1-11.3s9.5-2.1 15.4 4.3c2.9 3 14.4 28.5 1.1 45.3z"/><path id="XMLID_3135_" class="st14" d="M54.8 110.7c-1.2-4.5 1.8-16.5 5.7-21.5s-1.2-16.3 9.3-22 22.7-1.8 24.7-4.2 7.7-20.2-13.7-22.2c-17.3-1.6-28.5 12.5-31.5 19.7 0 0-4.8 11.3-1.3 28s6.8 22.2 6.8 22.2z"/></g></g><g id="XMLID_3136_"><path id="XMLID_3137_" class="st20" d="M111.9 86.3s8.8-16.7 30.8-17c22-.3 31.6 11.2 34.9 32.5C182.2 131 174 152 174 152s-30.4.3-58.3 2.7c0 0-20.3-36.9-3.8-68.4z"/><path id="XMLID_3138_" d="M112.6 271c3.2-11.2 5.6-19.2 5.6-19.2l49.7-4.9s3.6 4.8 7.3 25.1c.3 1.8-63.2 1.2-62.6-1z"/><path id="XMLID_3744_" class="st21" d="M170.9 160.8s-16.6-3.7-26.9-2.8c-10.3.9-26.5 6-28.3 7.4-.9.7 1 27.1 2 49.6.7 17-1.2 42.7-1.2 42.7s55.9 1.6 55.9 1.5c.4-3-2.7-91-1.5-98.4z"/><path id="XMLID_3743_" class="st22" d="M159.6 158.8s-5 9.2-19.1 8.8c-8.7-.3-13.7-6.4-13.7-6.4 5.2-.9 1.7-1 19-4.6l13.8 2.2z"/><path id="XMLID_818_" class="st22" d="M137.1 161.6l1.2-35.3 11.6-1.1.5 33.7-7 5.9z"/><path id="XMLID_586_" class="st22" d="M108.3 110.1c-1.1 18 10.8 37.8 26.7 38.8 21.1 1.3 32.7-20.5 33.9-38.5 1.1-18-13.2-31.6-31.2-32.7-18-1-28.3 14.5-29.4 32.4z"/><path id="XMLID_585_" d="M153.2 117.9c-.1 2.3-1.5 4.2-3 4.1-1.5-.1-2.6-2.1-2.5-4.4.1-2.3 1.5-4.2 3-4.1 1.6.1 2.7 2.1 2.5 4.4z"/><path id="XMLID_581_" d="M123.9 119.5c-.1 2.3-1.5 4.2-3 4.1-1.5-.1-2.6-2.1-2.5-4.4.1-2.3 1.5-4.2 3-4.1 1.6 0 2.7 2 2.5 4.4z"/><path id="XMLID_580_" class="st22" d="M163.1 116.3c-.9 4.2-.4 7.1 2.3 7.7 2.7.6 8-2 8.9-6.2.9-4.2-.5-8-3.2-8.6-2.8-.5-7.1 3-8 7.1z"/><path id="XMLID_541_" class="st20" d="M107.8 106.5c-.1 1.9 25.6-12.5 27.6-17.8 2-5.2 3.6-12.7 2.7-13.6-.9-.9-14.8-.2-23 8.5-6 6.1-7.2 18.5-7.3 22.9z"/><path id="XMLID_540_" class="st20" d="M169.6 109.1c-.3 1.8-30.5-14.8-32.5-19.8s0-13.3.9-14.2c.9-.9 16.5-.6 24.7 7.6 5.9 5.9 8.4 18.3 6.9 26.4z"/><path id="XMLID_3139_" class="st20" d="M107.2 114.9c.3-2.1-4.3-18.4 9-32.1 5.5-5.6 27-3 27-3l-20 26.7-16.2 24.8s-.1-14 .2-16.4z"/><path id="XMLID_538_" class="st20" d="M147.1 106.7s3.7-.3 6.6.2c2.1.3 5.1 1.4 5.1 1.4l-.9 1.3s-1.8.1-4-.4c-2.2-.4-6.5.1-6.5.1l-.3-2.6z"/><path id="XMLID_537_" class="st20" d="M125.6 106.7s-3.7-.3-6.6.2c-2.1.3-5.1 1.4-5.1 1.4l.9 1.3s1.8.1 4-.4c2.2-.4 6.5.1 6.5.1l.3-2.6z"/><path id="XMLID_3140_" class="st23" d="M136.9 129.2c0 .6-5.6.6-5.6 0s1.3-1.1 2.8-1.1 2.8.4 2.8 1.1z"/><path id="XMLID_310_" class="st24" d="M109.9 230.9c.2-1.1 7.9-30.8 8.1-31.2.3-.7.1-22.6-.2-22.7-11.5-4.1-19.8 40.2-22.2 56.1 0 .1 13.3 47.3 14.1 48.1.2.2 6.5-.4 6.4-1.4-.3-8.2-6.2-48.8-6.2-48.9z"/><path id="XMLID_309_" class="st24" d="M165.2 220c.7-8.7-1.8-18-1.6-31.8.2-13.7 4.2-26.4 4.6-26.7 7.6-4.3 9 15.8 8.7 34.1-.2 14.2-.6 25.8-.6 25.8l-11.1-1.4z"/><path id="XMLID_308_" class="st21" d="M162.6 190.1c-.1-6.3.9-9.8 1.4-14.3.8-8.7 3.5-15.6 3.8-15.7 9.3-.4 10.2 14.7 10.5 30-.1.5-15.7 1.4-15.7 0z"/><path id="XMLID_307_" class="st25" d="M172.6 227.1c3.1-3.2-1.9-11.4-3.1-14.9l-24.9-34.8-5.6 4.5 23 36.3c-.1 0 8.1 11.5 10.6 8.9z"/><path id="XMLID_102_" class="st24" d="M169 209.8l-21.5-28.2-6 4.5 19.7 37.5 3.2 4.6s5.2 2.9 8.5.8c4.4-2.8 3.2-8.5 3.2-8.5l-7.1-10.7z"/><path id="XMLID_101_" class="st25" d="M145.9 181c-.6-.5-2.9-10.7-2.9-10.7l-8.6-10.3-1.3 1 5.5 8.4-8.5-6-2.8-1.5-.5 2.5 2.1 2.9-2.2-.3-.7 2.3 1.5 1.7-1.7.2-.2 1.7 15.5 10.9 4.8-2.8z"/><path id="XMLID_3141_" class="st26" d="M128.4 137.6s5.5 5 13 0"/><path id="XMLID_3142_" class="st21" d="M115.7 165.4s-8.8 6.9-12.6 29.9l14.9 5.5 2.2-7.7c0 .1 2.9-24-4.5-27.7z"/></g><path id="XMLID_28_" class="st6" d="M92.8 222.5l-45.2-.3c-2.3-.5-4.5-.8-6.4-1.3-5.3-.1-11.3-12.4-3-11.8 1.3-.4 3-.5 4.9-.4l13 1.3 33.6 5.5c.7 0 9-5.3 9-5.3l12.9-2.1.4 1.7-9.4 2.8 10.1 1.1 3 .7.3 2.3-4.8.9 3.9 2.1-1 2.3-1.4.7 1.2 1.4-.7 3.3-20.4-4.9z"/></g><path id="XMLID_26_" class="st27" d="M229.3 147.6l-2.4 46.9 17.2-1.8 4.9-57.4c.1 0-16.6 3-19.7 12.3z"/><path id="XMLID_25_" class="st28" d="M250 138l-1.3 29.1-21.3 1.2 3.3-42.5 10.4 1.5c5.3.8 9.2 5.4 8.9 10.7z"/><path id="XMLID_24_" class="st27" d="M178.2 194.4c-2.2-.7-15.4.8-15.4.8s-.3 6.2 0 8.3c.8 4.8 2.6 7.5 2.6 7.5s1.1-.5 4.4-.2c3.4.3 7-1.4 10.5-3.1 7.9-3.9 10.1-9.3-2.1-13.3z"/><path id="XMLID_8_" class="st27" d="M244.1 192.7c-1.9-4.8-12.7-8.2-16.7-8.8l-49.8 13.4 1.7 8.1c-.1 0 67.8-5.1 64.8-12.7z"/><path id="XMLID_7_" class="st29" d="M224.8 172.4l.2-4.7 25.1-.6v4.7z"/></g></g></svg>