<svg version="1.1" id="IMG_x5F_01" xmlns="http://www.w3.org/2000/svg" xmlns:xlink="http://www.w3.org/1999/xlink" x="0px" y="0px" width="274px" height="274px" viewBox="0 0 274 274" xml:space="preserve"><style type="text/css">.st0{fill:#F7ADB4;} .st1{clip-path:url(#XMLID_19_);} .st2{fill:#F498A1;} .st3{fill:#42281C;} .st4{fill:#ED87C0;} .st5{fill:#B0704B;} .st6{fill:#A4582D;} .st7{fill:#FFFFFF;} .st8{fill:#B57856;} .st9{fill:none;stroke:#A15428;stroke-linecap:round;stroke-miterlimit:10;}</style><g id="XMLID_1889_"><circle id="XMLID_1890_" class="st0" cx="136.4" cy="136.4" r="136.4"/><g id="XMLID_1891_"><defs><circle id="XMLID_6_" cx="136.4" cy="136.4" r="136.4"/></defs><clipPath id="XMLID_19_"><use xlink:href="#XMLID_6_" overflow="visible"/></clipPath><g id="XMLID_1892_" class="st1"><path id="XMLID_2560_" transform="rotate(45.001 219.694 53.505)" class="st2" d="M69.4 44H370v19H69.4z"/><path id="XMLID_2559_" transform="rotate(45.001 52.855 220.348)" class="st2" d="M-97.5 210.8h300.6v19H-97.5z"/><path id="XMLID_2558_" transform="rotate(45.001 80.661 192.54)" class="st2" d="M-69.6 183H231v19H-69.6z"/><path id="XMLID_2557_" transform="rotate(45.001 108.468 164.734)" class="st2" d="M-41.8 155.2h300.6v19H-41.8z"/><path id="XMLID_2551_" transform="rotate(45.001 136.275 136.926)" class="st2" d="M-14 127.4h300.6v19H-14z"/><path id="XMLID_2550_" transform="rotate(45.001 164.081 109.12)" class="st2" d="M13.8 99.6h300.6v19H13.8z"/><path id="XMLID_818_" transform="rotate(45.001 191.888 81.312)" class="st2" d="M41.6 71.8h300.6v19H41.6z"/></g><g id="XMLID_1893_" class="st1"><path id="XMLID_585_" class="st3" d="M72.1 63.7s6.4-29.3 40-39.1 53.1 3.7 67.3 34.9c3.4 7.5 6.1 14.7 8.2 21.6 10.1 32.5-1.9 58.3-1.9 58.3s-57.5 15-99.3 30.5c-.1 0-26.2-51-14.3-106.2z"/><path id="XMLID_581_" class="st4" d="M190.5 157.6s-26.4-5.9-42.7-4.4c-16.3 1.5-42.1 9.5-45 11.8-1.5 1.1 1.6 43 3.2 78.8.4 8.3.4 17.8.2 26.9 0 .7 21.7 5.4 43 3.8 21.8-1.6 43.2-9.6 43.1-11.3-1.3-42.5-3-98.3-1.8-105.6z"/><path id="XMLID_580_" class="st5" d="M172.6 154.5s-7.9 14.7-30.4 13.9c-13.8-.4-21.7-10.1-21.7-10.1 8.2-1.5 2.7-1.5 30.2-7.2l21.9 3.4z"/><path id="XMLID_541_" class="st5" d="M136.8 162.1l2-56.1 18.4-1.7.8 53.4-11.2 9.5z"/><path id="XMLID_540_" class="st5" d="M76.7 101.7c5.9 28 32.6 53.4 57.4 48.1 32.9-6.9 41.4-45.3 35.5-73.3-5.9-28-33.6-42.7-61.6-36.8-28 6-37.3 34-31.3 62z"/><path id="XMLID_539_" d="M148.8 94.6c.8 3.6-.5 7-2.8 7.5s-4.9-2.1-5.6-5.7c-.8-3.6 1.4-3.9 3.7-4.4 2.3-.5 3.9-1.1 4.7 2.6z"/><path id="XMLID_538_" d="M104.6 109.3c.8 3.6-.5 7-2.8 7.5s-4.9-2.1-5.6-5.7c-.8-3.6 1.4-3.9 3.7-4.4 2.3-.5 4-1 4.7 2.6z"/><path id="XMLID_537_" class="st5" d="M163.2 87.9c.4 6.8 2.4 11.1 6.8 10.9 4.4-.2 11.3-6.5 11-13.2-.4-6.8-4.2-12.1-8.6-11.8-4.5.2-9.5 7.4-9.2 14.1z"/><path id="XMLID_311_" class="st3" d="M74.4 96.4c.7 2.9 33.8-30.1 34.7-38.9.8-8.8 0-21-1.7-22-1.8-1-22.7 6.1-31.7 22.8-6.4 11.8-2.9 31.3-1.3 38.1z"/><path id="XMLID_310_" class="st3" d="M170.2 74.1c.3 2.8-53-9.8-58.2-16.6-5.2-6.8-5.7-20.4-4.7-22.1 1-1.7 24.9-7.9 41.1 1.2 11.6 6.5 20.5 24.4 21.8 37.5z"/><path id="XMLID_309_" class="st3" d="M77.2 109.5c-.4-3.4-14.4-26.3.2-53 6-11 40.1-16 40.1-16L98.2 89.9l-14.4 44.8s-6.1-21.4-6.6-25.2z"/><path id="XMLID_308_" class="st3" d="M134.6 79.9s5.6-2 10.2-2.5c3.3-.4 8.5 0 8.5 0l-.8 2.4s-2.7.9-6.3 1.2c-3.6.3-10 2.9-10 2.9l-1.6-4z"/><path id="XMLID_307_" class="st3" d="M101.8 89s-5.8 1.1-10.1 3.1c-3 1.4-7.3 4.4-7.3 4.4l2 1.6s2.7-.7 6-2.3c3.3-1.6 10-2.6 10-2.6l-.6-4.2z"/><path id="XMLID_102_" class="st6" d="M128.6 118.7c.3.9-8.3 3.3-8.6 2.4-.3-.9 1.5-2.2 3.8-2.9 2.4-.7 4.5-.4 4.8.5z"/><path id="XMLID_101_" class="st7" d="M97.9 252.2c.4-1.8 8.3-32.1 8.5-32.7.4-1.1.2-35.8-.4-36-15.5-5.6-27.4 44.8-33 75.4-.5 2.8 27.3 14 31.5 11.6 22.2-13.2 48.3-31.4 48.8-32.3.2-.4-3.5-9.7-5.1-9.2-12.3 4.1-50.3 23.3-50.3 23.2z"/><path id="XMLID_100_" class="st7" d="M181.5 251.7c1.1-13.8-2.9-28.7-2.6-50.6.3-21.8 6.6-41.9 7.4-42.4 12.1-6.8 14.2 25 13.8 54.2-.3 22.6-8.1 41.6-8.1 41.6l-10.5-2.8z"/><path id="XMLID_99_" class="st4" d="M177.3 204.3c-.1-10 1.5-15.5 2.2-22.8 1.3-13.7 5.5-24.8 6.1-24.9 14.7-.7 16.1 23.4 16.6 47.7-.1.7-24.9 2.1-24.9 0z"/><g id="XMLID_1894_"><path id="XMLID_98_" class="st8" d="M186 256.2c6.2-3.6 1.9-18.3 1.6-24.2l-23.3-63.9-10.5 4.6 19.6 65.3c0 .1 7.6 21.1 12.6 18.2z"/><path id="XMLID_28_" class="st7" d="M187.9 228.3L167.1 176l-11.1 4.3 14.1 65.8 2.9 8.4s6.6 6.7 12.7 4.8c7.9-2.4 8.5-11.6 8.5-11.6l-6.3-19.4z"/><path id="XMLID_27_" class="st8" d="M164.7 174.3c-.7-1 .1-17.6.1-17.6l-8.8-19.4-2.5 1 4.8 15.2-10.3-12.6-3.6-3.5-1.9 3.7 1.9 5.3-3.3-1.4-2 3.3 1.6 3.2-2.7-.4-1 2.6 19 23.3 8.7-2.7z"/></g><path id="XMLID_25_" class="st9" d="M120.7 134.9s2 0 13.2-3.3"/><path id="XMLID_1895_" class="st4" d="M102.8 164.9s-14.1 10.9-20 47.5l23.7 8.8L110 209s4.6-38.1-7.2-44.1z"/><path id="XMLID_8_" class="st5" d="M152.3 227c1.1-.5 8.9-15.1 8.9-15.1l17.5-12.1 1.6 2.2-11.9 10.6 15.5-5.6 4.9-1.1 1.8 3-6.4 4.7 7.1.1.1 3.9-1.5 2 2.6 1.1-.5 2.7-33.2 10.5-5.6 3.5s-1.2-3-1.7-4c-.4-.8-1.8-3.2-1.8-3.2l2.6-3.2z"/></g></g></g></svg>