<svg version="1.1" id="Capa_1" xmlns="http://www.w3.org/2000/svg" xmlns:xlink="http://www.w3.org/1999/xlink" x="0px" y="0px" width="870px" height="122px" viewBox="0 0 870 122" xml:space="preserve"><style type="text/css">.st0{opacity:0.3;} .st1{fill:#A4795C;} .st2{fill:#956341;} .st3{fill:#FB6E52;} .st4{fill:#E74227;} .st5{fill:#FFCE54;} .st6{fill:#F6F7FA;} .st7{opacity:0.2;} .st8{fill:#36BB9B;} .st9{clip-path:url(#XMLID_5_);} .st10{clip-path:url(#XMLID_6_);} .st11{fill:#49CFAE;} .st12{fill:#92E2CE;} .st13{fill:#A1D469;} .st14{fill:#06008B;} .st15{clip-path:url(#XMLID_11_);fill:#FFFFFF;} .st16{clip-path:url(#XMLID_11_);} .st17{fill:#8DC050;} .st18{fill:#ED5463;} .st19{fill:#506C2D;} .st20{fill:#6A903C;} .st21{fill:#FC8B75;} .st22{fill:#EA573F;} .st23{fill:#F6BB43;} .st24{fill:#FFD876;} .st25{fill:#3BAFDA;} .st26{fill:#4FC1EA;} .st27{clip-path:url(#XMLID_12_);fill:#FFFFFF;} .st28{clip-path:url(#XMLID_12_);} .st29{fill:#5D9BEC;} .st30{fill:none;stroke:#8DC050;stroke-linecap:round;stroke-miterlimit:10;} .st31{fill:#DC4453;} .st32{fill:#A5333E;} .st33{fill:#FFF2D1;} .st34{opacity:0.2;fill:#F6F7FA;} .st35{opacity:0.1;} .st36{fill:#2B333E;} .st37{font-family:Arial;font-weight:bold;} .st38{font-size:22px;}</style><g id="XMLID_2_"><g id="XMLID_1013_"><path id="XMLID_1017_" class="st0" d="M11.6 122h732.9c.6 0 1-.4 1-1v-18c0-.6-.4-1-1-1H11.6c-.6 0-1 .4-1 1v18c0 .5.4 1 1 1z"/><path id="XMLID_1016_" class="st1" d="M11.6 120h732.9c.6 0 1-.4 1-1v-18c0-.6-.4-1-1-1H11.6c-.6 0-1 .4-1 1v18c0 .5.4 1 1 1z"/><path id="XMLID_1015_" class="st2" d="M11.6 108.5h732.9c.6 0 1-.4 1-1v-1c0-.6-.4-1-1-1H11.6c-.6 0-1 .4-1 1v1c0 .5.4 1 1 1z"/><path id="XMLID_1014_" class="st2" d="M11.6 115.5h732.9c.6 0 1-.4 1-1v-1c0-.6-.4-1-1-1H11.6c-.6 0-1 .4-1 1v1c0 .5.4 1 1 1z"/></g><g id="XMLID_230_"><path id="XMLID_1012_" class="st3" d="M517.7 0h117v100h-117z"/><path id="XMLID_1011_" class="st4" d="M519.7 2h113v96h-113z"/><path id="XMLID_1010_" class="st5" d="M527.2 9.5h98v81h-98z"/><path id="XMLID_1009_" class="st6" d="M530.7 12.5h91v75h-91z"/><path id="XMLID_1008_" class="st7" d="M530.7 12.5h91v2h-91z"/><path id="XMLID_1007_" class="st8" d="M539.2 21.1h74V79h-74z"/><g id="XMLID_231_"><defs><path id="XMLID_232_" d="M541.1 23h70.2v54.1h-70.2z"/></defs><use xlink:href="#XMLID_232_" overflow="visible" fill="#49CFAE"/><clipPath id="XMLID_5_"><use xlink:href="#XMLID_232_" overflow="visible"/></clipPath><g id="XMLID_619_" class="st9"><defs><path id="XMLID_620_" d="M541.1 23h70.2v54.1h-70.2z"/></defs><use xlink:href="#XMLID_620_" overflow="visible" fill="#49CFAE"/><clipPath id="XMLID_6_"><use xlink:href="#XMLID_620_" overflow="visible"/></clipPath><g id="XMLID_621_" class="st10"><g id="XMLID_622_"><g id="XMLID_882_"><g id="XMLID_1005_"><circle id="XMLID_1006_" class="st11" cx="602.5" cy="32.3" r="1.1"/></g><g id="XMLID_1003_"><circle id="XMLID_1004_" class="st11" cx="611.3" cy="23.5" r="1.1"/></g><g id="XMLID_966_"><g id="XMLID_986_"><g id="XMLID_995_"><g id="XMLID_998_"><g id="XMLID_999_"><path id="XMLID_1000_" class="st11" d="M600 21.1c-3.3.8-3.3 4.1 0 4.8.8 3.3 4.1 3.3 4.8 0 3.3-.8 3.3-4.1 0-4.8-.7-3.4-4-3.4-4.8 0zm.9.8l.1-.6c.2-.9.7-1.5 1.2-1.7.3-.1.7 0 1 .3.3.3.5.8.7 1.4l.1.6.6.1c.6.1 1.1.4 1.4.7.3.3.4.7.3 1-.2.5-.8 1-1.7 1.2l-.6.1-.1.6c-.2.9-.7 1.5-1.2 1.7-.3.1-.7 0-1-.3-.3-.3-.5-.8-.7-1.4l-.1-.6-.6-.1c-.6-.1-1.1-.4-1.4-.7-.3-.3-.4-.7-.3-1 .2-.5.8-1 1.7-1.2l.6-.1z"/></g></g><g id="XMLID_996_"><circle id="XMLID_997_" class="st11" cx="602.5" cy="23.5" r="1.1"/></g></g><g id="XMLID_987_"><g id="XMLID_990_"><g id="XMLID_991_"><path id="XMLID_992_" class="st11" d="M600 38.8c-3.3.8-3.3 4.1 0 4.8.8 3.3 4.1 3.3 4.8 0 3.3-.8 3.3-4.1 0-4.8-.7-3.3-4-3.3-4.8 0zm.9.8l.1-.6c.2-.9.7-1.5 1.2-1.7.3-.1.7 0 1 .3.3.3.5.8.7 1.4l.1.6.6.1c.6.1 1.1.4 1.4.7.3.3.4.7.3 1-.2.5-.8 1-1.7 1.2l-.6.1-.1.6c-.2.9-.7 1.5-1.2 1.7-.3.1-.7 0-1-.3-.3-.3-.5-.8-.7-1.4l-.1-.6-.6-.1c-.6-.1-1.1-.4-1.4-.7-.3-.3-.4-.7-.3-1 .2-.5.8-1 1.7-1.2l.6-.1z"/></g></g><g id="XMLID_988_"><circle id="XMLID_989_" class="st11" cx="602.5" cy="41.2" r="1.1"/></g></g></g><g id="XMLID_967_"><g id="XMLID_978_"><g id="XMLID_981_"><g id="XMLID_982_"><path id="XMLID_983_" class="st11" d="M613.7 29.9c-.8-3.3-4.1-3.3-4.8 0-3.3.8-3.3 4.1 0 4.8.8 3.3 4.1 3.3 4.8 0 3.3-.7 3.3-4 0-4.8zm-.8.9l.6.1c.9.2 1.5.7 1.7 1.2.1.3 0 .7-.3 1-.3.3-.8.5-1.4.7l-.6.1-.1.6c-.1.6-.4 1.1-.7 1.4-.3.3-.7.4-1 .3-.5-.2-1-.8-1.2-1.7l-.1-.6-.6-.1c-.9-.2-1.5-.7-1.7-1.2-.1-.3 0-.7.3-1 .3-.3.8-.5 1.4-.7l.6-.1.1-.6c.1-.6.4-1.1.7-1.4.3-.3.7-.4 1-.3.5.2 1 .8 1.2 1.7l.1.6z"/></g></g><g id="XMLID_979_"><circle id="XMLID_980_" class="st11" cx="611.3" cy="32.3" r="1.1"/></g></g><g id="XMLID_968_"><g id="XMLID_973_"><g id="XMLID_974_"><path id="XMLID_975_" class="st11" d="M596 29.9c-.8-3.3-4.1-3.3-4.8 0-3.3.8-3.3 4.1 0 4.8.8 3.3 4.1 3.3 4.8 0 3.3-.7 3.3-4 0-4.8zm-.8.9l.6.1c.9.2 1.5.7 1.7 1.2.1.3 0 .7-.3 1-.3.3-.8.5-1.4.7l-.6.1-.1.6c-.1.6-.4 1.1-.7 1.4-.3.3-.7.4-1 .3-.5-.2-1-.8-1.2-1.7l-.1-.6-.6-.1c-.9-.2-1.5-.7-1.7-1.2-.1-.3 0-.7.3-1 .3-.3.8-.5 1.4-.7l.6-.1.1-.6c.1-.6.4-1.1.7-1.4.3-.3.7-.4 1-.3.5.2 1 .8 1.2 1.7l.1.6z"/></g></g><g id="XMLID_971_"><circle id="XMLID_972_" class="st11" cx="593.6" cy="32.3" r="1.1"/></g><g id="XMLID_969_"><circle id="XMLID_970_" class="st11" cx="593.6" cy="23.5" r="1.1"/></g></g></g></g><g id="XMLID_964_"><circle id="XMLID_965_" class="st11" cx="584.7" cy="32.3" r="1.1"/></g><g id="XMLID_962_"><circle id="XMLID_963_" class="st11" cx="593.7" cy="41.3" r="1.1"/></g><g id="XMLID_960_"><circle id="XMLID_961_" class="st11" cx="611.3" cy="41.3" r="1.1"/></g><g id="XMLID_932_"><g id="XMLID_943_"><g id="XMLID_952_"><g id="XMLID_955_"><g id="XMLID_956_"><path id="XMLID_957_" class="st11" d="M582.3 21.1c-3.3.8-3.3 4.1 0 4.8.8 3.3 4.1 3.3 4.8 0 3.3-.8 3.3-4.1 0-4.8-.8-3.4-4.1-3.4-4.8 0zm.8.8l.1-.6c.2-.9.7-1.5 1.2-1.7.3-.1.7 0 1 .3.3.3.5.8.7 1.4l.1.6.6.1c.6.1 1.1.4 1.4.7.3.3.4.7.3 1-.2.5-.8 1-1.7 1.2l-.6.1-.1.6c-.2.9-.7 1.5-1.2 1.7-.4.1-.7 0-1-.3-.3-.3-.5-.8-.7-1.4l-.1-.6-.6-.1c-.6-.1-1.1-.4-1.4-.7-.3-.3-.4-.7-.3-1 .2-.5.8-1 1.7-1.2l.6-.1z"/></g></g><g id="XMLID_953_"><circle id="XMLID_954_" class="st11" cx="584.7" cy="23.5" r="1.1"/></g></g><g id="XMLID_944_"><g id="XMLID_947_"><g id="XMLID_948_"><path id="XMLID_949_" class="st11" d="M582.3 38.8c-3.3.8-3.3 4.1 0 4.8.8 3.3 4.1 3.3 4.8 0 3.3-.8 3.3-4.1 0-4.8-.8-3.3-4.1-3.3-4.8 0zm.8.8l.1-.6c.2-.9.7-1.5 1.2-1.7.3-.1.7 0 1 .3.3.3.5.8.7 1.4l.1.6.6.1c.6.1 1.1.4 1.4.7.3.3.4.7.3 1-.2.5-.8 1-1.7 1.2l-.6.1-.1.6c-.2.9-.7 1.5-1.2 1.7-.4.1-.7 0-1-.3-.3-.3-.5-.8-.7-1.4l-.1-.6-.6-.1c-.6-.1-1.1-.4-1.4-.7-.3-.3-.4-.7-.3-1 .2-.5.8-1 1.7-1.2l.6-.1z"/></g></g><g id="XMLID_945_"><circle id="XMLID_946_" class="st11" cx="584.7" cy="41.2" r="1.1"/></g></g></g><g id="XMLID_933_"><g id="XMLID_938_"><g id="XMLID_939_"><path id="XMLID_940_" class="st11" d="M578.2 29.9c-.8-3.3-4.1-3.3-4.8 0-3.3.8-3.3 4.1 0 4.8.8 3.3 4.1 3.3 4.8 0 3.4-.7 3.4-4 0-4.8zm-.8.9l.6.1c.9.2 1.5.7 1.7 1.2.1.3 0 .7-.3 1-.3.3-.8.5-1.4.7l-.6.1-.1.6c-.1.6-.4 1.1-.7 1.4-.3.3-.7.4-1 .3-.5-.2-1-.8-1.2-1.7l-.1-.6-.6-.1c-.9-.2-1.5-.7-1.7-1.2-.1-.3 0-.7.3-1 .3-.3.8-.5 1.4-.7l.6-.1.1-.6c.1-.6.4-1.1.7-1.4.3-.3.7-.4 1-.3.5.2 1 .8 1.2 1.7l.1.6z"/></g></g><g id="XMLID_936_"><circle id="XMLID_937_" class="st11" cx="575.8" cy="32.3" r="1.1"/></g><g id="XMLID_934_"><circle id="XMLID_935_" class="st11" cx="575.8" cy="23.5" r="1.1"/></g></g></g><g id="XMLID_930_"><circle id="XMLID_931_" class="st11" cx="602.5" cy="50.1" r="1.1"/></g><g id="XMLID_902_"><g id="XMLID_920_"><g id="XMLID_925_"><g id="XMLID_926_"><path id="XMLID_927_" class="st11" d="M600 56.5c-3.3.8-3.3 4.1 0 4.8.8 3.3 4.1 3.3 4.8 0 3.3-.8 3.3-4.1 0-4.8-.7-3.3-4-3.3-4.8 0zm.9.8l.1-.6c.2-.9.7-1.5 1.2-1.7.3-.1.7 0 1 .3.3.3.5.8.7 1.4l.1.6.6.1c.6.1 1.1.4 1.4.7.3.3.4.7.3 1-.2.5-.8 1-1.7 1.2l-.6.1-.1.6c-.2.9-.7 1.5-1.2 1.7-.3.1-.7 0-1-.3-.3-.3-.5-.8-.7-1.4l-.1-.6-.6-.1c-.6-.1-1.1-.4-1.4-.7-.3-.3-.4-.7-.3-1 .2-.5.8-1 1.7-1.2l.6-.1z"/></g></g><g id="XMLID_923_"><circle id="XMLID_924_" class="st11" cx="602.5" cy="58.9" r="1.1"/></g><g id="XMLID_921_"><circle id="XMLID_922_" class="st11" cx="611.3" cy="58.9" r="1.1"/></g></g><g id="XMLID_903_"><g id="XMLID_912_"><g id="XMLID_915_"><g id="XMLID_916_"><path id="XMLID_917_" class="st11" d="M613.7 47.7c-.8-3.3-4.1-3.3-4.8 0-3.3.8-3.3 4.1 0 4.8.8 3.3 4.1 3.3 4.8 0 3.3-.8 3.3-4.1 0-4.8zm-.8.8l.6.1c.9.2 1.5.7 1.7 1.2.1.3 0 .7-.3 1-.3.3-.8.5-1.4.7l-.6.1-.1.6c-.1.6-.4 1.1-.7 1.4-.3.3-.7.4-1 .3-.5-.2-1-.8-1.2-1.7l-.1-.6-.6-.1c-.9-.2-1.5-.7-1.7-1.2-.1-.3 0-.7.3-1 .3-.3.8-.5 1.4-.7l.6-.1.1-.6c.1-.6.4-1.1.7-1.4.3-.3.7-.4 1-.3.5.2 1 .8 1.2 1.7l.1.6z"/></g></g><g id="XMLID_913_"><circle id="XMLID_914_" class="st11" cx="611.3" cy="50.1" r="1.1"/></g></g><g id="XMLID_904_"><g id="XMLID_907_"><g id="XMLID_908_"><path id="XMLID_909_" class="st11" d="M596 47.7c-.8-3.3-4.1-3.3-4.8 0-3.3.8-3.3 4.1 0 4.8.8 3.3 4.1 3.3 4.8 0 3.3-.8 3.3-4.1 0-4.8zm-.8.8l.6.1c.9.2 1.5.7 1.7 1.2.1.3 0 .7-.3 1-.3.3-.8.5-1.4.7l-.6.1-.1.6c-.1.6-.4 1.1-.7 1.4-.3.3-.7.4-1 .3-.5-.2-1-.8-1.2-1.7l-.1-.6-.6-.1c-.9-.2-1.5-.7-1.7-1.2-.1-.3 0-.7.3-1 .3-.3.8-.5 1.4-.7l.6-.1.1-.6c.1-.6.4-1.1.7-1.4.3-.3.7-.4 1-.3.5.2 1 .8 1.2 1.7l.1.6z"/></g></g><g id="XMLID_905_"><circle id="XMLID_906_" class="st11" cx="593.6" cy="50.1" r="1.1"/></g></g></g></g><g id="XMLID_900_"><circle id="XMLID_901_" class="st11" cx="584.7" cy="50.1" r="1.1"/></g><g id="XMLID_883_"><g id="XMLID_892_"><g id="XMLID_895_"><g id="XMLID_896_"><path id="XMLID_897_" class="st11" d="M582.3 56.5c-3.3.8-3.3 4.1 0 4.8.8 3.3 4.1 3.3 4.8 0 3.3-.8 3.3-4.1 0-4.8-.8-3.3-4.1-3.3-4.8 0zm.8.8l.1-.6c.2-.9.7-1.5 1.2-1.7.3-.1.7 0 1 .3.3.3.5.8.7 1.4l.1.6.6.1c.6.1 1.1.4 1.4.7.3.3.4.7.3 1-.2.5-.8 1-1.7 1.2l-.6.1-.1.6c-.2.9-.7 1.5-1.2 1.7-.4.1-.7 0-1-.3-.3-.3-.5-.8-.7-1.4l-.1-.6-.6-.1c-.6-.1-1.1-.4-1.4-.7-.3-.3-.4-.7-.3-1 .2-.5.8-1 1.7-1.2l.6-.1z"/></g></g><g id="XMLID_893_"><circle id="XMLID_894_" class="st11" cx="584.7" cy="58.9" r="1.1"/></g></g><g id="XMLID_884_"><g id="XMLID_887_"><g id="XMLID_888_"><path id="XMLID_889_" class="st11" d="M578.2 47.7c-.8-3.3-4.1-3.3-4.8 0-3.3.8-3.3 4.1 0 4.8.8 3.3 4.1 3.3 4.8 0 3.4-.8 3.4-4.1 0-4.8zm-.8.8l.6.1c.9.2 1.5.7 1.7 1.2.1.3 0 .7-.3 1-.3.3-.8.5-1.4.7l-.6.1-.1.6c-.1.6-.4 1.1-.7 1.4-.3.3-.7.4-1 .3-.5-.2-1-.8-1.2-1.7l-.1-.6-.6-.1c-.9-.2-1.5-.7-1.7-1.2-.1-.3 0-.7.3-1 .3-.3.8-.5 1.4-.7l.6-.1.1-.6c.1-.6.4-1.1.7-1.4.3-.3.7-.4 1-.3.5.2 1 .8 1.2 1.7l.1.6z"/></g></g><g id="XMLID_885_"><circle id="XMLID_886_" class="st11" cx="575.8" cy="50.1" r="1.1"/></g></g></g></g><g id="XMLID_771_"><g id="XMLID_880_"><circle id="XMLID_881_" class="st11" cx="566.9" cy="32.3" r="1.1"/></g><g id="XMLID_878_"><circle id="XMLID_879_" class="st11" cx="575.8" cy="41.2" r="1.1"/></g><g id="XMLID_850_"><g id="XMLID_861_"><g id="XMLID_870_"><g id="XMLID_873_"><g id="XMLID_874_"><path id="XMLID_875_" class="st11" d="M564.5 21.1c-3.3.8-3.3 4.1 0 4.8.8 3.3 4.1 3.3 4.8 0 3.3-.8 3.3-4.1 0-4.8-.7-3.4-4-3.4-4.8 0zm.8.8l.1-.6c.2-.9.7-1.5 1.2-1.7.3-.1.7 0 1 .3.3.3.5.8.7 1.4l.1.6.6.1c.6.1 1.1.4 1.4.7.3.3.4.7.3 1-.2.5-.8 1-1.7 1.2l-.6.1-.1.6c-.2.9-.7 1.5-1.2 1.7-.3.1-.7 0-1-.3-.3-.3-.5-.8-.7-1.4l-.1-.6-.6-.1c-.6-.1-1.1-.4-1.4-.7-.3-.3-.4-.7-.3-1 .2-.5.8-1 1.7-1.2l.6-.1z"/></g></g><g id="XMLID_871_"><circle id="XMLID_872_" class="st11" cx="566.9" cy="23.5" r="1.1"/></g></g><g id="XMLID_862_"><g id="XMLID_865_"><g id="XMLID_866_"><path id="XMLID_867_" class="st11" d="M564.5 38.8c-3.3.8-3.3 4.1 0 4.8.8 3.3 4.1 3.3 4.8 0 3.3-.8 3.3-4.1 0-4.8-.7-3.3-4-3.3-4.8 0zm.8.8l.1-.6c.2-.9.7-1.5 1.2-1.7.3-.1.7 0 1 .3.3.3.5.8.7 1.4l.1.6.6.1c.6.1 1.1.4 1.4.7.3.3.4.7.3 1-.2.5-.8 1-1.7 1.2l-.6.1-.1.6c-.2.9-.7 1.5-1.2 1.7-.3.1-.7 0-1-.3-.3-.3-.5-.8-.7-1.4l-.1-.6-.6-.1c-.6-.1-1.1-.4-1.4-.7-.3-.3-.4-.7-.3-1 .2-.5.8-1 1.7-1.2l.6-.1z"/></g></g><g id="XMLID_863_"><circle id="XMLID_864_" class="st11" cx="566.9" cy="41.2" r="1.1"/></g></g></g><g id="XMLID_851_"><g id="XMLID_856_"><g id="XMLID_857_"><path id="XMLID_858_" class="st11" d="M560.5 29.9c-.8-3.3-4.1-3.3-4.8 0-3.3.8-3.3 4.1 0 4.8.8 3.3 4.1 3.3 4.8 0 3.3-.7 3.3-4 0-4.8zm-.9.9l.6.1c.9.2 1.5.7 1.7 1.2.1.3 0 .7-.3 1-.3.3-.8.5-1.4.7l-.6.1-.1.6c-.1.6-.4 1.1-.7 1.4-.3.3-.7.4-1 .3-.5-.2-1-.8-1.2-1.7l-.1-.6-.6-.1c-.9-.2-1.5-.7-1.7-1.2-.1-.3 0-.7.3-1 .3-.3.8-.5 1.4-.7l.6-.1.1-.6c.1-.6.4-1.1.7-1.4.3-.3.7-.4 1-.3.5.2 1 .8 1.2 1.7l.1.6z"/></g></g><g id="XMLID_854_"><circle id="XMLID_855_" class="st11" cx="558.1" cy="32.3" r="1.1"/></g><g id="XMLID_852_"><circle id="XMLID_853_" class="st11" cx="558.1" cy="23.5" r="1.1"/></g></g></g><g id="XMLID_848_"><circle id="XMLID_849_" class="st11" cx="549.2" cy="32.3" r="1.1"/></g><g id="XMLID_846_"><circle id="XMLID_847_" class="st11" cx="540.3" cy="23.5" r="1.1"/></g><g id="XMLID_844_"><circle id="XMLID_845_" class="st11" cx="558.2" cy="41.3" r="1.1"/></g><g id="XMLID_816_"><g id="XMLID_825_"><g id="XMLID_836_"><g id="XMLID_839_"><g id="XMLID_840_"><path id="XMLID_841_" class="st11" d="M546.8 21.1c-3.3.8-3.3 4.1 0 4.8.8 3.3 4.1 3.3 4.8 0 3.3-.8 3.3-4.1 0-4.8-.8-3.4-4.1-3.4-4.8 0zm.8.8l.1-.6c.2-.9.7-1.5 1.2-1.7.3-.1.7 0 1 .3.3.3.5.8.7 1.4l.1.6.6.1c.6.1 1.1.4 1.4.7.3.3.4.7.3 1-.2.5-.8 1-1.7 1.2l-.6.1-.1.6c-.2.9-.7 1.5-1.2 1.7-.3.1-.7 0-1-.3-.3-.3-.5-.8-.7-1.4l-.1-.6-.6-.1c-.6-.1-1.1-.4-1.4-.7-.3-.3-.4-.7-.3-1 .2-.5.8-1 1.7-1.2l.6-.1z"/></g></g><g id="XMLID_837_"><circle id="XMLID_838_" class="st11" cx="549.2" cy="23.5" r="1.1"/></g></g><g id="XMLID_826_"><g id="XMLID_831_"><g id="XMLID_832_"><path id="XMLID_833_" class="st11" d="M546.8 38.8c-3.3.8-3.3 4.1 0 4.8.8 3.3 4.1 3.3 4.8 0 3.3-.8 3.3-4.1 0-4.8-.8-3.3-4.1-3.3-4.8 0zm.8.8l.1-.6c.2-.9.7-1.5 1.2-1.7.3-.1.7 0 1 .3.3.3.5.8.7 1.4l.1.6.6.1c.6.1 1.1.4 1.4.7.3.3.4.7.3 1-.2.5-.8 1-1.7 1.2l-.6.1-.1.6c-.2.9-.7 1.5-1.2 1.7-.3.1-.7 0-1-.3-.3-.3-.5-.8-.7-1.4l-.1-.6-.6-.1c-.6-.1-1.1-.4-1.4-.7-.3-.3-.4-.7-.3-1 .2-.5.8-1 1.7-1.2l.6-.1z"/></g></g><g id="XMLID_829_"><circle id="XMLID_830_" class="st11" cx="549.2" cy="41.2" r="1.1"/></g><g id="XMLID_827_"><circle id="XMLID_828_" class="st11" cx="540.3" cy="41.2" r="1.1"/></g></g></g><g id="XMLID_817_"><g id="XMLID_820_"><g id="XMLID_821_"><path id="XMLID_822_" class="st11" d="M542.7 29.9c-.8-3.3-4.1-3.3-4.8 0-3.3.8-3.3 4.1 0 4.8.8 3.3 4.1 3.3 4.8 0 3.3-.7 3.3-4 0-4.8zm-.8.9l.6.1c.9.2 1.5.7 1.7 1.2.1.3 0 .7-.3 1-.3.3-.8.5-1.4.7l-.6.1-.1.6c-.1.6-.4 1.1-.7 1.4-.3.3-.7.4-1 .3-.5-.2-1-.8-1.2-1.7l-.1-.6-.6-.1c-.9-.2-1.5-.7-1.7-1.2-.1-.3 0-.7.3-1 .3-.3.8-.5 1.4-.7l.6-.1.1-.6c.1-.6.4-1.1.7-1.4.3-.3.7-.4 1-.3.5.2 1 .8 1.2 1.7l.1.6z"/></g></g><g id="XMLID_818_"><circle id="XMLID_819_" class="st11" cx="540.3" cy="32.3" r="1.1"/></g></g></g><g id="XMLID_814_"><circle id="XMLID_815_" class="st11" cx="566.9" cy="50.1" r="1.1"/></g><g id="XMLID_812_"><circle id="XMLID_813_" class="st11" cx="575.9" cy="59.1" r="1.1"/></g><g id="XMLID_810_"><circle id="XMLID_811_" class="st11" cx="558.1" cy="59.1" r="1.1"/></g><g id="XMLID_793_"><g id="XMLID_802_"><g id="XMLID_805_"><g id="XMLID_806_"><path id="XMLID_807_" class="st11" d="M564.5 56.5c-3.3.8-3.3 4.1 0 4.8.8 3.3 4.1 3.3 4.8 0 3.3-.8 3.3-4.1 0-4.8-.7-3.3-4-3.3-4.8 0zm.8.8l.1-.6c.2-.9.7-1.5 1.2-1.7.3-.1.7 0 1 .3.3.3.5.8.7 1.4l.1.6.6.1c.6.1 1.1.4 1.4.7.3.3.4.7.3 1-.2.5-.8 1-1.7 1.2l-.6.1-.1.6c-.2.9-.7 1.5-1.2 1.7-.3.1-.7 0-1-.3-.3-.3-.5-.8-.7-1.4l-.1-.6-.6-.1c-.6-.1-1.1-.4-1.4-.7-.3-.3-.4-.7-.3-1 .2-.5.8-1 1.7-1.2l.6-.1z"/></g></g><g id="XMLID_803_"><circle id="XMLID_804_" class="st11" cx="566.9" cy="58.9" r="1.1"/></g></g><g id="XMLID_794_"><g id="XMLID_797_"><g id="XMLID_798_"><path id="XMLID_799_" class="st11" d="M560.5 47.7c-.8-3.3-4.1-3.3-4.8 0-3.3.8-3.3 4.1 0 4.8.8 3.3 4.1 3.3 4.8 0 3.3-.8 3.3-4.1 0-4.8zm-.9.8l.6.1c.9.2 1.5.7 1.7 1.2.1.3 0 .7-.3 1-.3.3-.8.5-1.4.7l-.6.1-.1.6c-.1.6-.4 1.1-.7 1.4-.3.3-.7.4-1 .3-.5-.2-1-.8-1.2-1.7l-.1-.6-.6-.1c-.9-.2-1.5-.7-1.7-1.2-.1-.3 0-.7.3-1 .3-.3.8-.5 1.4-.7l.6-.1.1-.6c.1-.6.4-1.1.7-1.4.3-.3.7-.4 1-.3.5.2 1 .8 1.2 1.7l.1.6z"/></g></g><g id="XMLID_795_"><circle id="XMLID_796_" class="st11" cx="558.1" cy="50.1" r="1.1"/></g></g></g><g id="XMLID_791_"><circle id="XMLID_792_" class="st11" cx="549.2" cy="50.1" r="1.1"/></g><g id="XMLID_772_"><g id="XMLID_781_"><g id="XMLID_786_"><g id="XMLID_787_"><path id="XMLID_788_" class="st11" d="M546.8 56.5c-3.3.8-3.3 4.1 0 4.8.8 3.3 4.1 3.3 4.8 0 3.3-.8 3.3-4.1 0-4.8-.8-3.3-4.1-3.3-4.8 0zm.8.8l.1-.6c.2-.9.7-1.5 1.2-1.7.3-.1.7 0 1 .3.3.3.5.8.7 1.4l.1.6.6.1c.6.1 1.1.4 1.4.7.3.3.4.7.3 1-.2.5-.8 1-1.7 1.2l-.6.1-.1.6c-.2.9-.7 1.5-1.2 1.7-.3.1-.7 0-1-.3-.3-.3-.5-.8-.7-1.4l-.1-.6-.6-.1c-.6-.1-1.1-.4-1.4-.7-.3-.3-.4-.7-.3-1 .2-.5.8-1 1.7-1.2l.6-.1z"/></g></g><g id="XMLID_784_"><circle id="XMLID_785_" class="st11" cx="549.2" cy="58.9" r="1.1"/></g><g id="XMLID_782_"><circle id="XMLID_783_" class="st11" cx="540.3" cy="58.9" r="1.1"/></g></g><g id="XMLID_773_"><g id="XMLID_776_"><g id="XMLID_777_"><path id="XMLID_778_" class="st11" d="M542.7 47.7c-.8-3.3-4.1-3.3-4.8 0-3.3.8-3.3 4.1 0 4.8.8 3.3 4.1 3.3 4.8 0 3.3-.8 3.3-4.1 0-4.8zm-.8.8l.6.1c.9.2 1.5.7 1.7 1.2.1.3 0 .7-.3 1-.3.3-.8.5-1.4.7l-.6.1-.1.6c-.1.6-.4 1.1-.7 1.4-.3.3-.7.4-1 .3-.5-.2-1-.8-1.2-1.7l-.1-.6-.6-.1c-.9-.2-1.5-.7-1.7-1.2-.1-.3 0-.7.3-1 .3-.3.8-.5 1.4-.7l.6-.1.1-.6c.1-.6.4-1.1.7-1.4.3-.3.7-.4 1-.3.5.2 1 .8 1.2 1.7l.1.6z"/></g></g><g id="XMLID_774_"><circle id="XMLID_775_" class="st11" cx="540.3" cy="50.1" r="1.1"/></g></g></g></g><g id="XMLID_717_"><g id="XMLID_769_"><circle id="XMLID_770_" class="st11" cx="602.5" cy="67.8" r="1.1"/></g><g id="XMLID_767_"><circle id="XMLID_768_" class="st11" cx="593.6" cy="58.9" r="1.1"/></g><g id="XMLID_741_"><g id="XMLID_759_"><g id="XMLID_762_"><g id="XMLID_763_"><path id="XMLID_764_" class="st11" d="M600 74.2c-3.3.8-3.3 4.1 0 4.8.8 3.3 4.1 3.3 4.8 0 3.3-.8 3.3-4.1 0-4.8-.7-3.3-4-3.3-4.8 0zm.9.9l.1-.6c.2-.9.7-1.5 1.2-1.7.3-.1.7 0 1 .3.3.3.5.8.7 1.4l.1.6.6.1c.6.1 1.1.4 1.4.7.3.3.4.7.3 1-.2.5-.8 1-1.7 1.2l-.6.1-.1.6c-.2.9-.7 1.5-1.2 1.7-.3.1-.7 0-1-.3-.3-.3-.5-.8-.7-1.4l-.1-.6-.6-.1c-.6-.1-1.1-.4-1.4-.7-.3-.3-.4-.7-.3-1 .2-.5.8-1 1.7-1.2l.6-.1z"/></g></g><g id="XMLID_760_"><circle id="XMLID_761_" class="st11" cx="602.5" cy="76.7" r="1.1"/></g></g><g id="XMLID_742_"><g id="XMLID_751_"><g id="XMLID_754_"><g id="XMLID_755_"><path id="XMLID_756_" class="st11" d="M613.7 65.4c-.8-3.3-4.1-3.3-4.8 0-3.3.8-3.3 4.1 0 4.8.8 3.3 4.1 3.3 4.8 0 3.3-.8 3.3-4.1 0-4.8zm-.8.8l.6.1c.9.2 1.5.7 1.7 1.2.1.3 0 .7-.3 1-.3.3-.8.5-1.4.7l-.6.1-.1.6c-.1.6-.4 1.1-.7 1.4-.3.3-.7.4-1 .3-.5-.2-1-.8-1.2-1.7l-.1-.6-.6-.1c-.9-.2-1.5-.7-1.7-1.2-.1-.3 0-.7.3-1 .3-.3.8-.5 1.4-.7l.6-.1.1-.6c.1-.6.4-1.1.7-1.4.3-.3.7-.4 1-.3.5.2 1 .8 1.2 1.7l.1.6z"/></g></g><g id="XMLID_752_"><circle id="XMLID_753_" class="st11" cx="611.3" cy="67.8" r="1.1"/></g></g><g id="XMLID_743_"><g id="XMLID_746_"><g id="XMLID_747_"><path id="XMLID_748_" class="st11" d="M596 65.4c-.8-3.3-4.1-3.3-4.8 0-3.3.8-3.3 4.1 0 4.8.8 3.3 4.1 3.3 4.8 0 3.3-.8 3.3-4.1 0-4.8zm-.8.8l.6.1c.9.2 1.5.7 1.7 1.2.1.3 0 .7-.3 1-.3.3-.8.5-1.4.7l-.6.1-.2.7c-.1.6-.4 1.1-.7 1.4-.3.3-.7.4-1 .3-.5-.2-1-.8-1.2-1.7l-.1-.6-.6-.1c-.9-.2-1.5-.7-1.7-1.2-.1-.3 0-.7.3-1 .3-.3.8-.5 1.4-.7l.6-.1.1-.6c.1-.6.4-1.1.7-1.4.3-.3.7-.4 1-.3.5.2 1 .8 1.2 1.7l.2.5z"/></g></g><g id="XMLID_744_"><circle id="XMLID_745_" class="st11" cx="593.6" cy="67.8" r="1.1"/></g></g></g></g><g id="XMLID_739_"><circle id="XMLID_740_" class="st11" cx="584.7" cy="67.8" r="1.1"/></g><g id="XMLID_737_"><circle id="XMLID_738_" class="st11" cx="593.7" cy="76.8" r="1.1"/></g><g id="XMLID_735_"><circle id="XMLID_736_" class="st11" cx="611.3" cy="76.8" r="1.1"/></g><g id="XMLID_718_"><g id="XMLID_727_"><g id="XMLID_730_"><g id="XMLID_731_"><path id="XMLID_732_" class="st11" d="M582.3 74.2c-3.3.8-3.3 4.1 0 4.8.8 3.3 4.1 3.3 4.8 0 3.3-.8 3.3-4.1 0-4.8-.8-3.3-4.1-3.3-4.8 0zm.8.9l.1-.6c.2-.9.7-1.5 1.2-1.7.3-.1.7 0 1 .3.3.3.5.8.7 1.4l.1.6.6.1c.6.1 1.1.4 1.4.7.3.3.4.7.3 1-.2.5-.8 1-1.7 1.2l-.6.1-.1.6c-.2.9-.7 1.5-1.2 1.7-.4.1-.7 0-1-.3-.3-.3-.5-.8-.7-1.4l-.1-.6-.6-.1c-.6-.1-1.1-.4-1.4-.7-.3-.3-.4-.7-.3-1 .2-.5.8-1 1.7-1.2l.6-.1z"/></g></g><g id="XMLID_728_"><circle id="XMLID_729_" class="st11" cx="584.7" cy="76.7" r="1.1"/></g></g><g id="XMLID_719_"><g id="XMLID_722_"><g id="XMLID_723_"><path id="XMLID_724_" class="st11" d="M578.2 65.4c-.8-3.3-4.1-3.3-4.8 0-3.3.8-3.3 4.1 0 4.8.8 3.3 4.1 3.3 4.8 0 3.4-.8 3.4-4.1 0-4.8zm-.8.8l.6.1c.9.2 1.5.7 1.7 1.2.1.3 0 .7-.3 1-.3.3-.8.5-1.4.7l-.6.1-.1.6c-.1.6-.4 1.1-.7 1.4-.3.3-.7.4-1 .3-.5-.2-1-.8-1.2-1.7l-.1-.6-.6-.1c-.9-.2-1.5-.7-1.7-1.2-.1-.3 0-.7.3-1 .3-.3.8-.5 1.4-.7l.6-.1.1-.6c.1-.6.4-1.1.7-1.4.3-.3.7-.4 1-.3.5.2 1 .8 1.2 1.7l.1.6z"/></g></g><g id="XMLID_720_"><circle id="XMLID_721_" class="st11" cx="575.8" cy="67.8" r="1.1"/></g></g></g></g><g id="XMLID_623_"><g id="XMLID_668_"><g id="XMLID_715_"><path id="XMLID_716_" class="st11" d="M569.1 61.1c-.2.2.2 1 1 1.8l1.7 1.7c.8.8 1.6 1.2 1.8 1 .2-.2-.2-1-1-1.8l-1.7-1.7c-.8-.7-1.6-1.2-1.8-1z"/></g><g id="XMLID_713_"><path id="XMLID_714_" class="st11" d="M560.3 65.6c.2.2 1-.2 1.8-1l1.7-1.7c.8-.8 1.2-1.6 1-1.8-.2-.2-1 .2-1.8 1l-1.7 1.7c-.8.8-1.2 1.6-1 1.8z"/></g><g id="XMLID_711_"><path id="XMLID_712_" class="st11" d="M569.1 56.8c.2.2 1-.2 1.8-1l1.7-1.7c.8-.8 1.2-1.6 1-1.8-.2-.2-1 .2-1.8 1l-1.7 1.7c-.8.8-1.2 1.6-1 1.8z"/></g><g id="XMLID_709_"><path id="XMLID_710_" class="st11" d="M578 47.9c.2.2 1-.2 1.8-1l1.7-1.7c.8-.8 1.2-1.6 1-1.8-.2-.2-1 .2-1.8 1l-1.7 1.7c-.8.8-1.3 1.6-1 1.8z"/></g><g id="XMLID_707_"><path id="XMLID_708_" class="st11" d="M560.3 30.3c.2.2 1-.2 1.8-1l1.7-1.7c.8-.8 1.2-1.6 1-1.8-.2-.2-1 .2-1.8 1l-1.7 1.7c-.8.7-1.2 1.5-1 1.8z"/></g><g id="XMLID_705_"><path id="XMLID_706_" class="st11" d="M551.3 39.2c.2.2 1-.2 1.8-1l1.7-1.7c.8-.8 1.2-1.6 1-1.8-.2-.2-1 .2-1.8 1l-1.7 1.7c-.7.8-1.2 1.6-1 1.8z"/></g><g id="XMLID_703_"><path id="XMLID_704_" class="st11" d="M542.5 48c.2.2 1-.2 1.8-1l1.7-1.7c.8-.8 1.2-1.6 1-1.8-.2-.2-1 .2-1.8 1l-1.7 1.7c-.8.8-1.2 1.6-1 1.8z"/></g><g id="XMLID_701_"><path id="XMLID_702_" class="st11" d="M586.8 39.1c.2.2 1-.2 1.8-1l1.7-1.7c.8-.8 1.2-1.6 1-1.8-.2-.2-1 .2-1.8 1l-1.7 1.7c-.8.8-1.2 1.6-1 1.8z"/></g><g id="XMLID_699_"><path id="XMLID_700_" class="st11" d="M604.6 57c.2.2 1-.2 1.8-1l1.7-1.7c.8-.8 1.2-1.6 1-1.8-.2-.2-1 .2-1.8 1l-1.7 1.7c-.7.8-1.2 1.6-1 1.8z"/></g><g id="XMLID_697_"><path id="XMLID_698_" class="st11" d="M596.1 65.5c.2.2 1-.2 1.8-1l1.7-1.7c.8-.8 1.2-1.6 1-1.8-.2-.2-1 .2-1.8 1l-1.7 1.7c-.8.8-1.3 1.6-1 1.8z"/></g><g id="XMLID_695_"><path id="XMLID_696_" class="st11" d="M587 74.6c.2.2 1-.2 1.8-1l1.7-1.7c.8-.8 1.2-1.6 1-1.8-.2-.2-1 .2-1.8 1l-1.7 1.7c-.8.8-1.2 1.6-1 1.8z"/></g><g id="XMLID_693_"><path id="XMLID_694_" class="st11" d="M595.7 30.2c.2.2 1-.2 1.8-1l1.7-1.7c.8-.8 1.2-1.6 1-1.8-.2-.2-1 .2-1.8 1l-1.7 1.7c-.7.8-1.2 1.6-1 1.8z"/></g><g id="XMLID_691_"><path id="XMLID_692_" class="st11" d="M551.4 74.5c.2.2 1-.2 1.8-1l1.7-1.7c.8-.8 1.2-1.6 1-1.8-.2-.2-1 .2-1.8 1l-1.7 1.7c-.7.8-1.2 1.6-1 1.8z"/></g><g id="XMLID_689_"><path id="XMLID_690_" class="st11" d="M578.1 70.1c-.2.2.2 1 1 1.8l1.7 1.7c.8.8 1.6 1.2 1.8 1 .2-.2-.2-1-1-1.8l-1.7-1.7c-.8-.7-1.6-1.2-1.8-1z"/></g><g id="XMLID_687_"><path id="XMLID_688_" class="st11" d="M542.6 70.1c-.2.2.2 1 1 1.8l1.7 1.7c.8.8 1.6 1.2 1.8 1 .2-.2-.2-1-1-1.8l-1.7-1.7c-.8-.8-1.6-1.2-1.8-1z"/></g><g id="XMLID_685_"><path id="XMLID_686_" class="st11" d="M595.9 52.3c-.2.2.2 1 1 1.8l1.7 1.7c.8.8 1.6 1.2 1.8 1 .2-.2-.2-1-1-1.8l-1.7-1.7c-.8-.8-1.6-1.3-1.8-1z"/></g><g id="XMLID_683_"><path id="XMLID_684_" class="st11" d="M604.8 61.1c-.2.2.2 1 1 1.8l1.7 1.7c.8.8 1.6 1.2 1.8 1 .2-.2-.2-1-1-1.8l-1.7-1.7c-.8-.7-1.6-1.2-1.8-1z"/></g><g id="XMLID_681_"><path id="XMLID_682_" class="st11" d="M587.1 43.4c-.2.2.2 1 1 1.8l1.7 1.7c.8.8 1.6 1.2 1.8 1 .2-.2-.2-1-1-1.8l-1.7-1.7c-.8-.7-1.6-1.2-1.8-1z"/></g><g id="XMLID_679_"><path id="XMLID_680_" class="st11" d="M604.7 25.9c-.2.2.2 1 1 1.8l1.7 1.7c.8.8 1.6 1.2 1.8 1 .2-.2-.2-1-1-1.8l-1.7-1.7c-.8-.8-1.6-1.3-1.8-1z"/></g><g id="XMLID_677_"><path id="XMLID_678_" class="st11" d="M578.2 34.5c-.2.2.2 1 1 1.8l1.7 1.7c.8.8 1.6 1.2 1.8 1 .2-.2-.2-1-1-1.8l-1.7-1.7c-.8-.8-1.6-1.2-1.8-1z"/></g><g id="XMLID_675_"><path id="XMLID_676_" class="st11" d="M569.3 25.6c-.2.2.2 1 1 1.8l1.7 1.7c.8.8 1.6 1.2 1.8 1 .2-.2-.2-1-1-1.8l-1.7-1.7c-.8-.7-1.6-1.2-1.8-1z"/></g><g id="XMLID_673_"><path id="XMLID_674_" class="st11" d="M560.3 52.3c-.2.2.2 1 1 1.8l1.7 1.7c.8.8 1.6 1.2 1.8 1 .2-.2-.2-1-1-1.8l-1.7-1.7c-.8-.7-1.6-1.2-1.8-1z"/></g><g id="XMLID_671_"><path id="XMLID_672_" class="st11" d="M551.4 43.5c-.2.2.2 1 1 1.8l1.7 1.7c.8.8 1.6 1.2 1.8 1 .2-.2-.2-1-1-1.8l-1.7-1.7c-.8-.8-1.6-1.3-1.8-1z"/></g><g id="XMLID_669_"><path id="XMLID_670_" class="st11" d="M542.5 34.6c-.2.2.2 1 1 1.8l1.7 1.7c.8.8 1.6 1.2 1.8 1 .2-.2-.2-1-1-1.8l-1.7-1.7c-.8-.8-1.6-1.2-1.8-1z"/></g></g><g id="XMLID_666_"><circle id="XMLID_667_" class="st11" cx="566.9" cy="67.8" r="1.1"/></g><g id="XMLID_664_"><circle id="XMLID_665_" class="st11" cx="575.8" cy="76.7" r="1.1"/></g><g id="XMLID_647_"><g id="XMLID_656_"><g id="XMLID_659_"><g id="XMLID_660_"><path id="XMLID_661_" class="st11" d="M564.5 74.2c-3.3.8-3.3 4.1 0 4.8.8 3.3 4.1 3.3 4.8 0 3.3-.8 3.3-4.1 0-4.8-.7-3.3-4-3.3-4.8 0zm.8.9l.1-.6c.2-.9.7-1.5 1.2-1.7.3-.1.7 0 1 .3.3.3.5.8.7 1.4l.1.6.6.1c.6.1 1.1.4 1.4.7.3.3.4.7.3 1-.2.5-.8 1-1.7 1.2l-.6.1-.1.6c-.2.9-.7 1.5-1.2 1.7-.3.1-.7 0-1-.3-.3-.3-.5-.8-.7-1.4l-.1-.6-.6-.1c-.6-.1-1.1-.4-1.4-.7-.3-.3-.4-.7-.3-1 .2-.5.8-1 1.7-1.2l.6-.1z"/></g></g><g id="XMLID_657_"><circle id="XMLID_658_" class="st11" cx="566.9" cy="76.7" r="1.1"/></g></g><g id="XMLID_648_"><g id="XMLID_651_"><g id="XMLID_652_"><path id="XMLID_653_" class="st11" d="M560.5 65.4c-.8-3.3-4.1-3.3-4.8 0-3.3.8-3.3 4.1 0 4.8.8 3.3 4.1 3.3 4.8 0 3.3-.8 3.3-4.1 0-4.8zm-.9.8l.6.1c.9.2 1.5.7 1.7 1.2.1.3 0 .7-.3 1-.3.3-.8.5-1.4.7l-.6.1-.1.6c-.1.6-.4 1.1-.7 1.4-.3.3-.7.4-1 .3-.5-.2-1-.8-1.2-1.7l-.1-.6-.6-.1c-.9-.2-1.5-.7-1.7-1.2-.1-.3 0-.7.3-1 .3-.3.8-.5 1.4-.7l.6-.1.1-.6c.1-.6.4-1.1.7-1.4.3-.3.7-.4 1-.3.5.2 1 .8 1.2 1.7l.1.6z"/></g></g><g id="XMLID_649_"><circle id="XMLID_650_" class="st11" cx="558.1" cy="67.8" r="1.1"/></g></g></g><g id="XMLID_645_"><circle id="XMLID_646_" class="st11" cx="549.2" cy="67.8" r="1.1"/></g><g id="XMLID_643_"><circle id="XMLID_644_" class="st11" cx="558.2" cy="76.8" r="1.1"/></g><g id="XMLID_624_"><g id="XMLID_633_"><g id="XMLID_638_"><g id="XMLID_639_"><path id="XMLID_640_" class="st11" d="M546.8 74.2c-3.3.8-3.3 4.1 0 4.8.8 3.3 4.1 3.3 4.8 0 3.3-.8 3.3-4.1 0-4.8-.8-3.3-4.1-3.3-4.8 0zm.8.9l.1-.6c.2-.9.7-1.5 1.2-1.7.3-.1.7 0 1 .3.3.3.5.8.7 1.4l.1.6.6.1c.6.1 1.1.4 1.4.7.3.3.4.7.3 1-.2.5-.8 1-1.7 1.2l-.6.1-.1.6c-.2.9-.7 1.5-1.2 1.7-.3.1-.7 0-1-.3-.3-.3-.5-.8-.7-1.4l-.1-.6-.6-.1c-.6-.1-1.1-.4-1.4-.7-.3-.3-.4-.7-.3-1 .2-.5.8-1 1.7-1.2l.6-.1z"/></g></g><g id="XMLID_636_"><circle id="XMLID_637_" class="st11" cx="549.2" cy="76.7" r="1.1"/></g><g id="XMLID_634_"><circle id="XMLID_635_" class="st11" cx="540.3" cy="76.7" r="1.1"/></g></g><g id="XMLID_625_"><g id="XMLID_628_"><g id="XMLID_629_"><path id="XMLID_630_" class="st11" d="M542.7 65.4c-.8-3.3-4.1-3.3-4.8 0-3.3.8-3.3 4.1 0 4.8.8 3.3 4.1 3.3 4.8 0 3.3-.8 3.3-4.1 0-4.8zm-.8.8l.6.1c.9.2 1.5.7 1.7 1.2.1.3 0 .7-.3 1-.3.3-.8.5-1.4.7l-.6.1-.1.6c-.1.6-.4 1.1-.7 1.4-.3.3-.7.4-1 .3-.5-.2-1-.8-1.2-1.7l-.1-.6-.6-.1c-.9-.2-1.5-.7-1.7-1.2-.1-.3 0-.7.3-1 .3-.3.8-.5 1.4-.7l.6-.1.1-.6c.1-.6.4-1.1.7-1.4.3-.3.7-.4 1-.3.5.2 1 .8 1.2 1.7l.1.6z"/></g></g><g id="XMLID_626_"><circle id="XMLID_627_" class="st11" cx="540.3" cy="67.8" r="1.1"/></g></g></g></g></g></g></g><g id="XMLID_233_" class="st9"><g id="XMLID_234_"><g id="XMLID_494_"><g id="XMLID_617_"><circle id="XMLID_618_" class="st12" cx="602.5" cy="32.3" r="1.1"/></g><g id="XMLID_615_"><circle id="XMLID_616_" class="st12" cx="611.3" cy="23.5" r="1.1"/></g><g id="XMLID_578_"><g id="XMLID_598_"><g id="XMLID_607_"><g id="XMLID_610_"><g id="XMLID_611_"><path id="XMLID_612_" class="st12" d="M600 21.1c-3.3.8-3.3 4.1 0 4.8.8 3.3 4.1 3.3 4.8 0 3.3-.8 3.3-4.1 0-4.8-.7-3.4-4-3.4-4.8 0zm.9.8l.1-.6c.2-.9.7-1.5 1.2-1.7.3-.1.7 0 1 .3.3.3.5.8.7 1.4l.1.6.6.1c.6.1 1.1.4 1.4.7.3.3.4.7.3 1-.2.5-.8 1-1.7 1.2l-.6.1-.1.6c-.2.9-.7 1.5-1.2 1.7-.3.1-.7 0-1-.3-.3-.3-.5-.8-.7-1.4l-.1-.6-.6-.1c-.6-.1-1.1-.4-1.4-.7-.3-.3-.4-.7-.3-1 .2-.5.8-1 1.7-1.2l.6-.1z"/></g></g><g id="XMLID_608_"><circle id="XMLID_609_" class="st12" cx="602.5" cy="23.5" r="1.1"/></g></g><g id="XMLID_599_"><g id="XMLID_602_"><g id="XMLID_603_"><path id="XMLID_604_" class="st12" d="M600 38.8c-3.3.8-3.3 4.1 0 4.8.8 3.3 4.1 3.3 4.8 0 3.3-.8 3.3-4.1 0-4.8-.7-3.3-4-3.3-4.8 0zm.9.8l.1-.6c.2-.9.7-1.5 1.2-1.7.3-.1.7 0 1 .3.3.3.5.8.7 1.4l.1.6.6.1c.6.1 1.1.4 1.4.7.3.3.4.7.3 1-.2.5-.8 1-1.7 1.2l-.6.1-.1.6c-.2.9-.7 1.5-1.2 1.7-.3.1-.7 0-1-.3-.3-.3-.5-.8-.7-1.4l-.1-.6-.6-.1c-.6-.1-1.1-.4-1.4-.7-.3-.3-.4-.7-.3-1 .2-.5.8-1 1.7-1.2l.6-.1z"/></g></g><g id="XMLID_600_"><circle id="XMLID_601_" class="st12" cx="602.5" cy="41.2" r="1.1"/></g></g></g><g id="XMLID_579_"><g id="XMLID_590_"><g id="XMLID_593_"><g id="XMLID_594_"><path id="XMLID_595_" class="st12" d="M613.7 29.9c-.8-3.3-4.1-3.3-4.8 0-3.3.8-3.3 4.1 0 4.8.8 3.3 4.1 3.3 4.8 0 3.3-.7 3.3-4 0-4.8zm-.8.9l.6.1c.9.2 1.5.7 1.7 1.2.1.3 0 .7-.3 1-.3.3-.8.5-1.4.7l-.6.1-.1.6c-.1.6-.4 1.1-.7 1.4-.3.3-.7.4-1 .3-.5-.2-1-.8-1.2-1.7l-.1-.6-.6-.1c-.9-.2-1.5-.7-1.7-1.2-.1-.3 0-.7.3-1 .3-.3.8-.5 1.4-.7l.6-.1.1-.6c.1-.6.4-1.1.7-1.4.3-.3.7-.4 1-.3.5.2 1 .8 1.2 1.7l.1.6z"/></g></g><g id="XMLID_591_"><circle id="XMLID_592_" class="st12" cx="611.3" cy="32.3" r="1.1"/></g></g><g id="XMLID_580_"><g id="XMLID_585_"><g id="XMLID_586_"><path id="XMLID_587_" class="st12" d="M596 29.9c-.8-3.3-4.1-3.3-4.8 0-3.3.8-3.3 4.1 0 4.8.8 3.3 4.1 3.3 4.8 0 3.3-.7 3.3-4 0-4.8zm-.8.9l.6.1c.9.2 1.5.7 1.7 1.2.1.3 0 .7-.3 1-.3.3-.8.5-1.4.7l-.6.1-.1.6c-.1.6-.4 1.1-.7 1.4-.3.3-.7.4-1 .3-.5-.2-1-.8-1.2-1.7l-.1-.6-.6-.1c-.9-.2-1.5-.7-1.7-1.2-.1-.3 0-.7.3-1 .3-.3.8-.5 1.4-.7l.6-.1.1-.6c.1-.6.4-1.1.7-1.4.3-.3.7-.4 1-.3.5.2 1 .8 1.2 1.7l.1.6z"/></g></g><g id="XMLID_583_"><circle id="XMLID_584_" class="st12" cx="593.6" cy="32.3" r="1.1"/></g><g id="XMLID_581_"><circle id="XMLID_582_" class="st12" cx="593.6" cy="23.5" r="1.1"/></g></g></g></g><g id="XMLID_576_"><circle id="XMLID_577_" class="st12" cx="584.7" cy="32.3" r="1.1"/></g><g id="XMLID_574_"><circle id="XMLID_575_" class="st12" cx="593.7" cy="41.3" r="1.1"/></g><g id="XMLID_572_"><circle id="XMLID_573_" class="st12" cx="611.3" cy="41.3" r="1.1"/></g><g id="XMLID_544_"><g id="XMLID_555_"><g id="XMLID_564_"><g id="XMLID_567_"><g id="XMLID_568_"><path id="XMLID_569_" class="st12" d="M582.3 21.1c-3.3.8-3.3 4.1 0 4.8.8 3.3 4.1 3.3 4.8 0 3.3-.8 3.3-4.1 0-4.8-.8-3.4-4.1-3.4-4.8 0zm.8.8l.1-.6c.2-.9.7-1.5 1.2-1.7.3-.1.7 0 1 .3.3.3.5.8.7 1.4l.1.6.6.1c.6.1 1.1.4 1.4.7.3.3.4.7.3 1-.2.5-.8 1-1.7 1.2l-.6.1-.1.6c-.2.9-.7 1.5-1.2 1.7-.4.1-.7 0-1-.3-.3-.3-.5-.8-.7-1.4l-.1-.6-.6-.1c-.6-.1-1.1-.4-1.4-.7-.3-.3-.4-.7-.3-1 .2-.5.8-1 1.7-1.2l.6-.1z"/></g></g><g id="XMLID_565_"><circle id="XMLID_566_" class="st12" cx="584.7" cy="23.5" r="1.1"/></g></g><g id="XMLID_556_"><g id="XMLID_559_"><g id="XMLID_560_"><path id="XMLID_561_" class="st12" d="M582.3 38.8c-3.3.8-3.3 4.1 0 4.8.8 3.3 4.1 3.3 4.8 0 3.3-.8 3.3-4.1 0-4.8-.8-3.3-4.1-3.3-4.8 0zm.8.8l.1-.6c.2-.9.7-1.5 1.2-1.7.3-.1.7 0 1 .3.3.3.5.8.7 1.4l.1.6.6.1c.6.1 1.1.4 1.4.7.3.3.4.7.3 1-.2.5-.8 1-1.7 1.2l-.6.1-.1.6c-.2.9-.7 1.5-1.2 1.7-.4.1-.7 0-1-.3-.3-.3-.5-.8-.7-1.4l-.1-.6-.6-.1c-.6-.1-1.1-.4-1.4-.7-.3-.3-.4-.7-.3-1 .2-.5.8-1 1.7-1.2l.6-.1z"/></g></g><g id="XMLID_557_"><circle id="XMLID_558_" class="st12" cx="584.7" cy="41.2" r="1.1"/></g></g></g><g id="XMLID_545_"><g id="XMLID_550_"><g id="XMLID_551_"><path id="XMLID_552_" class="st12" d="M578.2 29.9c-.8-3.3-4.1-3.3-4.8 0-3.3.8-3.3 4.1 0 4.8.8 3.3 4.1 3.3 4.8 0 3.4-.7 3.4-4 0-4.8zm-.8.9l.6.1c.9.2 1.5.7 1.7 1.2.1.3 0 .7-.3 1-.3.3-.8.5-1.4.7l-.6.1-.1.6c-.1.6-.4 1.1-.7 1.4-.3.3-.7.4-1 .3-.5-.2-1-.8-1.2-1.7l-.1-.6-.6-.1c-.9-.2-1.5-.7-1.7-1.2-.1-.3 0-.7.3-1 .3-.3.8-.5 1.4-.7l.6-.1.1-.6c.1-.6.4-1.1.7-1.4.3-.3.7-.4 1-.3.5.2 1 .8 1.2 1.7l.1.6z"/></g></g><g id="XMLID_548_"><circle id="XMLID_549_" class="st12" cx="575.8" cy="32.3" r="1.1"/></g><g id="XMLID_546_"><circle id="XMLID_547_" class="st12" cx="575.8" cy="23.5" r="1.1"/></g></g></g><g id="XMLID_542_"><circle id="XMLID_543_" class="st12" cx="602.5" cy="50.1" r="1.1"/></g><g id="XMLID_514_"><g id="XMLID_532_"><g id="XMLID_537_"><g id="XMLID_538_"><path id="XMLID_539_" class="st12" d="M600 56.5c-3.3.8-3.3 4.1 0 4.8.8 3.3 4.1 3.3 4.8 0 3.3-.8 3.3-4.1 0-4.8-.7-3.3-4-3.3-4.8 0zm.9.8l.1-.6c.2-.9.7-1.5 1.2-1.7.3-.1.7 0 1 .3.3.3.5.8.7 1.4l.1.6.6.1c.6.1 1.1.4 1.4.7.3.3.4.7.3 1-.2.5-.8 1-1.7 1.2l-.6.1-.1.6c-.2.9-.7 1.5-1.2 1.7-.3.1-.7 0-1-.3-.3-.3-.5-.8-.7-1.4l-.1-.6-.6-.1c-.6-.1-1.1-.4-1.4-.7-.3-.3-.4-.7-.3-1 .2-.5.8-1 1.7-1.2l.6-.1z"/></g></g><g id="XMLID_535_"><circle id="XMLID_536_" class="st12" cx="602.5" cy="58.9" r="1.1"/></g><g id="XMLID_533_"><circle id="XMLID_534_" class="st12" cx="611.3" cy="58.9" r="1.1"/></g></g><g id="XMLID_515_"><g id="XMLID_524_"><g id="XMLID_527_"><g id="XMLID_528_"><path id="XMLID_529_" class="st12" d="M613.7 47.7c-.8-3.3-4.1-3.3-4.8 0-3.3.8-3.3 4.1 0 4.8.8 3.3 4.1 3.3 4.8 0 3.3-.8 3.3-4.1 0-4.8zm-.8.8l.6.1c.9.2 1.5.7 1.7 1.2.1.3 0 .7-.3 1-.3.3-.8.5-1.4.7l-.6.1-.1.6c-.1.6-.4 1.1-.7 1.4-.3.3-.7.4-1 .3-.5-.2-1-.8-1.2-1.7l-.1-.6-.6-.1c-.9-.2-1.5-.7-1.7-1.2-.1-.3 0-.7.3-1 .3-.3.8-.5 1.4-.7l.6-.1.1-.6c.1-.6.4-1.1.7-1.4.3-.3.7-.4 1-.3.5.2 1 .8 1.2 1.7l.1.6z"/></g></g><g id="XMLID_525_"><circle id="XMLID_526_" class="st12" cx="611.3" cy="50.1" r="1.1"/></g></g><g id="XMLID_516_"><g id="XMLID_519_"><g id="XMLID_520_"><path id="XMLID_521_" class="st12" d="M596 47.7c-.8-3.3-4.1-3.3-4.8 0-3.3.8-3.3 4.1 0 4.8.8 3.3 4.1 3.3 4.8 0 3.3-.8 3.3-4.1 0-4.8zm-.8.8l.6.1c.9.2 1.5.7 1.7 1.2.1.3 0 .7-.3 1-.3.3-.8.5-1.4.7l-.6.1-.1.6c-.1.6-.4 1.1-.7 1.4-.3.3-.7.4-1 .3-.5-.2-1-.8-1.2-1.7l-.1-.6-.6-.1c-.9-.2-1.5-.7-1.7-1.2-.1-.3 0-.7.3-1 .3-.3.8-.5 1.4-.7l.6-.1.1-.6c.1-.6.4-1.1.7-1.4.3-.3.7-.4 1-.3.5.2 1 .8 1.2 1.7l.1.6z"/></g></g><g id="XMLID_517_"><circle id="XMLID_518_" class="st12" cx="593.6" cy="50.1" r="1.1"/></g></g></g></g><g id="XMLID_512_"><circle id="XMLID_513_" class="st12" cx="584.7" cy="50.1" r="1.1"/></g><g id="XMLID_495_"><g id="XMLID_504_"><g id="XMLID_507_"><g id="XMLID_508_"><path id="XMLID_509_" class="st12" d="M582.3 56.5c-3.3.8-3.3 4.1 0 4.8.8 3.3 4.1 3.3 4.8 0 3.3-.8 3.3-4.1 0-4.8-.8-3.3-4.1-3.3-4.8 0zm.8.8l.1-.6c.2-.9.7-1.5 1.2-1.7.3-.1.7 0 1 .3.3.3.5.8.7 1.4l.1.6.6.1c.6.1 1.1.4 1.4.7.3.3.4.7.3 1-.2.5-.8 1-1.7 1.2l-.6.1-.1.6c-.2.9-.7 1.5-1.2 1.7-.4.1-.7 0-1-.3-.3-.3-.5-.8-.7-1.4l-.1-.6-.6-.1c-.6-.1-1.1-.4-1.4-.7-.3-.3-.4-.7-.3-1 .2-.5.8-1 1.7-1.2l.6-.1z"/></g></g><g id="XMLID_505_"><circle id="XMLID_506_" class="st12" cx="584.7" cy="58.9" r="1.1"/></g></g><g id="XMLID_496_"><g id="XMLID_499_"><g id="XMLID_500_"><path id="XMLID_501_" class="st12" d="M578.2 47.7c-.8-3.3-4.1-3.3-4.8 0-3.3.8-3.3 4.1 0 4.8.8 3.3 4.1 3.3 4.8 0 3.4-.8 3.4-4.1 0-4.8zm-.8.8l.6.1c.9.2 1.5.7 1.7 1.2.1.3 0 .7-.3 1-.3.3-.8.5-1.4.7l-.6.1-.1.6c-.1.6-.4 1.1-.7 1.4-.3.3-.7.4-1 .3-.5-.2-1-.8-1.2-1.7l-.1-.6-.6-.1c-.9-.2-1.5-.7-1.7-1.2-.1-.3 0-.7.3-1 .3-.3.8-.5 1.4-.7l.6-.1.1-.6c.1-.6.4-1.1.7-1.4.3-.3.7-.4 1-.3.5.2 1 .8 1.2 1.7l.1.6z"/></g></g><g id="XMLID_497_"><circle id="XMLID_498_" class="st12" cx="575.8" cy="50.1" r="1.1"/></g></g></g></g><g id="XMLID_383_"><g id="XMLID_492_"><circle id="XMLID_493_" class="st12" cx="566.9" cy="32.3" r="1.1"/></g><g id="XMLID_490_"><circle id="XMLID_491_" class="st12" cx="575.8" cy="41.2" r="1.1"/></g><g id="XMLID_462_"><g id="XMLID_473_"><g id="XMLID_482_"><g id="XMLID_485_"><g id="XMLID_486_"><path id="XMLID_487_" class="st12" d="M564.5 21.1c-3.3.8-3.3 4.1 0 4.8.8 3.3 4.1 3.3 4.8 0 3.3-.8 3.3-4.1 0-4.8-.7-3.4-4-3.4-4.8 0zm.8.8l.1-.6c.2-.9.7-1.5 1.2-1.7.3-.1.7 0 1 .3.3.3.5.8.7 1.4l.1.6.6.1c.6.1 1.1.4 1.4.7.3.3.4.7.3 1-.2.5-.8 1-1.7 1.2l-.6.1-.1.6c-.2.9-.7 1.5-1.2 1.7-.3.1-.7 0-1-.3-.3-.3-.5-.8-.7-1.4l-.1-.6-.6-.1c-.6-.1-1.1-.4-1.4-.7-.3-.3-.4-.7-.3-1 .2-.5.8-1 1.7-1.2l.6-.1z"/></g></g><g id="XMLID_483_"><circle id="XMLID_484_" class="st12" cx="566.9" cy="23.5" r="1.1"/></g></g><g id="XMLID_474_"><g id="XMLID_477_"><g id="XMLID_478_"><path id="XMLID_479_" class="st12" d="M564.5 38.8c-3.3.8-3.3 4.1 0 4.8.8 3.3 4.1 3.3 4.8 0 3.3-.8 3.3-4.1 0-4.8-.7-3.3-4-3.3-4.8 0zm.8.8l.1-.6c.2-.9.7-1.5 1.2-1.7.3-.1.7 0 1 .3.3.3.5.8.7 1.4l.1.6.6.1c.6.1 1.1.4 1.4.7.3.3.4.7.3 1-.2.5-.8 1-1.7 1.2l-.6.1-.1.6c-.2.9-.7 1.5-1.2 1.7-.3.1-.7 0-1-.3-.3-.3-.5-.8-.7-1.4l-.1-.6-.6-.1c-.6-.1-1.1-.4-1.4-.7-.3-.3-.4-.7-.3-1 .2-.5.8-1 1.7-1.2l.6-.1z"/></g></g><g id="XMLID_475_"><circle id="XMLID_476_" class="st12" cx="566.9" cy="41.2" r="1.1"/></g></g></g><g id="XMLID_463_"><g id="XMLID_468_"><g id="XMLID_469_"><path id="XMLID_470_" class="st12" d="M560.5 29.9c-.8-3.3-4.1-3.3-4.8 0-3.3.8-3.3 4.1 0 4.8.8 3.3 4.1 3.3 4.8 0 3.3-.7 3.3-4 0-4.8zm-.9.9l.6.1c.9.2 1.5.7 1.7 1.2.1.3 0 .7-.3 1-.3.3-.8.5-1.4.7l-.6.1-.1.6c-.1.6-.4 1.1-.7 1.4-.3.3-.7.4-1 .3-.5-.2-1-.8-1.2-1.7l-.1-.6-.6-.1c-.9-.2-1.5-.7-1.7-1.2-.1-.3 0-.7.3-1 .3-.3.8-.5 1.4-.7l.6-.1.1-.6c.1-.6.4-1.1.7-1.4.3-.3.7-.4 1-.3.5.2 1 .8 1.2 1.7l.1.6z"/></g></g><g id="XMLID_466_"><circle id="XMLID_467_" class="st12" cx="558.1" cy="32.3" r="1.1"/></g><g id="XMLID_464_"><circle id="XMLID_465_" class="st12" cx="558.1" cy="23.5" r="1.1"/></g></g></g><g id="XMLID_460_"><circle id="XMLID_461_" class="st12" cx="549.2" cy="32.3" r="1.1"/></g><g id="XMLID_458_"><circle id="XMLID_459_" class="st12" cx="540.3" cy="23.5" r="1.1"/></g><g id="XMLID_456_"><circle id="XMLID_457_" class="st12" cx="558.2" cy="41.3" r="1.1"/></g><g id="XMLID_428_"><g id="XMLID_437_"><g id="XMLID_448_"><g id="XMLID_451_"><g id="XMLID_452_"><path id="XMLID_453_" class="st12" d="M546.8 21.1c-3.3.8-3.3 4.1 0 4.8.8 3.3 4.1 3.3 4.8 0 3.3-.8 3.3-4.1 0-4.8-.8-3.4-4.1-3.4-4.8 0zm.8.8l.1-.6c.2-.9.7-1.5 1.2-1.7.3-.1.7 0 1 .3.3.3.5.8.7 1.4l.1.6.6.1c.6.1 1.1.4 1.4.7.3.3.4.7.3 1-.2.5-.8 1-1.7 1.2l-.6.1-.1.6c-.2.9-.7 1.5-1.2 1.7-.3.1-.7 0-1-.3-.3-.3-.5-.8-.7-1.4l-.1-.6-.6-.1c-.6-.1-1.1-.4-1.4-.7-.3-.3-.4-.7-.3-1 .2-.5.8-1 1.7-1.2l.6-.1z"/></g></g><g id="XMLID_449_"><circle id="XMLID_450_" class="st12" cx="549.2" cy="23.5" r="1.1"/></g></g><g id="XMLID_438_"><g id="XMLID_443_"><g id="XMLID_444_"><path id="XMLID_445_" class="st12" d="M546.8 38.8c-3.3.8-3.3 4.1 0 4.8.8 3.3 4.1 3.3 4.8 0 3.3-.8 3.3-4.1 0-4.8-.8-3.3-4.1-3.3-4.8 0zm.8.8l.1-.6c.2-.9.7-1.5 1.2-1.7.3-.1.7 0 1 .3.3.3.5.8.7 1.4l.1.6.6.1c.6.1 1.1.4 1.4.7.3.3.4.7.3 1-.2.5-.8 1-1.7 1.2l-.6.1-.1.6c-.2.9-.7 1.5-1.2 1.7-.3.1-.7 0-1-.3-.3-.3-.5-.8-.7-1.4l-.1-.6-.6-.1c-.6-.1-1.1-.4-1.4-.7-.3-.3-.4-.7-.3-1 .2-.5.8-1 1.7-1.2l.6-.1z"/></g></g><g id="XMLID_441_"><circle id="XMLID_442_" class="st12" cx="549.2" cy="41.2" r="1.1"/></g><g id="XMLID_439_"><circle id="XMLID_440_" class="st12" cx="540.3" cy="41.2" r="1.1"/></g></g></g><g id="XMLID_429_"><g id="XMLID_432_"><g id="XMLID_433_"><path id="XMLID_434_" class="st12" d="M542.7 29.9c-.8-3.3-4.1-3.3-4.8 0-3.3.8-3.3 4.1 0 4.8.8 3.3 4.1 3.3 4.8 0 3.3-.7 3.3-4 0-4.8zm-.8.9l.6.1c.9.2 1.5.7 1.7 1.2.1.3 0 .7-.3 1-.3.3-.8.5-1.4.7l-.6.1-.1.6c-.1.6-.4 1.1-.7 1.4-.3.3-.7.4-1 .3-.5-.2-1-.8-1.2-1.7l-.1-.6-.6-.1c-.9-.2-1.5-.7-1.7-1.2-.1-.3 0-.7.3-1 .3-.3.8-.5 1.4-.7l.6-.1.1-.6c.1-.6.4-1.1.7-1.4.3-.3.7-.4 1-.3.5.2 1 .8 1.2 1.7l.1.6z"/></g></g><g id="XMLID_430_"><circle id="XMLID_431_" class="st12" cx="540.3" cy="32.3" r="1.1"/></g></g></g><g id="XMLID_426_"><circle id="XMLID_427_" class="st12" cx="566.9" cy="50.1" r="1.1"/></g><g id="XMLID_424_"><circle id="XMLID_425_" class="st12" cx="575.9" cy="59.1" r="1.1"/></g><g id="XMLID_422_"><circle id="XMLID_423_" class="st12" cx="558.1" cy="59.1" r="1.1"/></g><g id="XMLID_405_"><g id="XMLID_414_"><g id="XMLID_417_"><g id="XMLID_418_"><path id="XMLID_419_" class="st12" d="M564.5 56.5c-3.3.8-3.3 4.1 0 4.8.8 3.3 4.1 3.3 4.8 0 3.3-.8 3.3-4.1 0-4.8-.7-3.3-4-3.3-4.8 0zm.8.8l.1-.6c.2-.9.7-1.5 1.2-1.7.3-.1.7 0 1 .3.3.3.5.8.7 1.4l.1.6.6.1c.6.1 1.1.4 1.4.7.3.3.4.7.3 1-.2.5-.8 1-1.7 1.2l-.6.1-.1.6c-.2.9-.7 1.5-1.2 1.7-.3.1-.7 0-1-.3-.3-.3-.5-.8-.7-1.4l-.1-.6-.6-.1c-.6-.1-1.1-.4-1.4-.7-.3-.3-.4-.7-.3-1 .2-.5.8-1 1.7-1.2l.6-.1z"/></g></g><g id="XMLID_415_"><circle id="XMLID_416_" class="st12" cx="566.9" cy="58.9" r="1.1"/></g></g><g id="XMLID_406_"><g id="XMLID_409_"><g id="XMLID_410_"><path id="XMLID_411_" class="st12" d="M560.5 47.7c-.8-3.3-4.1-3.3-4.8 0-3.3.8-3.3 4.1 0 4.8.8 3.3 4.1 3.3 4.8 0 3.3-.8 3.3-4.1 0-4.8zm-.9.8l.6.1c.9.2 1.5.7 1.7 1.2.1.3 0 .7-.3 1-.3.3-.8.5-1.4.7l-.6.1-.1.6c-.1.6-.4 1.1-.7 1.4-.3.3-.7.4-1 .3-.5-.2-1-.8-1.2-1.7l-.1-.6-.6-.1c-.9-.2-1.5-.7-1.7-1.2-.1-.3 0-.7.3-1 .3-.3.8-.5 1.4-.7l.6-.1.1-.6c.1-.6.4-1.1.7-1.4.3-.3.7-.4 1-.3.5.2 1 .8 1.2 1.7l.1.6z"/></g></g><g id="XMLID_407_"><circle id="XMLID_408_" class="st12" cx="558.1" cy="50.1" r="1.1"/></g></g></g><g id="XMLID_403_"><circle id="XMLID_404_" class="st12" cx="549.2" cy="50.1" r="1.1"/></g><g id="XMLID_384_"><g id="XMLID_393_"><g id="XMLID_398_"><g id="XMLID_399_"><path id="XMLID_400_" class="st12" d="M546.8 56.5c-3.3.8-3.3 4.1 0 4.8.8 3.3 4.1 3.3 4.8 0 3.3-.8 3.3-4.1 0-4.8-.8-3.3-4.1-3.3-4.8 0zm.8.8l.1-.6c.2-.9.7-1.5 1.2-1.7.3-.1.7 0 1 .3.3.3.5.8.7 1.4l.1.6.6.1c.6.1 1.1.4 1.4.7.3.3.4.7.3 1-.2.5-.8 1-1.7 1.2l-.6.1-.1.6c-.2.9-.7 1.5-1.2 1.7-.3.1-.7 0-1-.3-.3-.3-.5-.8-.7-1.4l-.1-.6-.6-.1c-.6-.1-1.1-.4-1.4-.7-.3-.3-.4-.7-.3-1 .2-.5.8-1 1.7-1.2l.6-.1z"/></g></g><g id="XMLID_396_"><circle id="XMLID_397_" class="st12" cx="549.2" cy="58.9" r="1.1"/></g><g id="XMLID_394_"><circle id="XMLID_395_" class="st12" cx="540.3" cy="58.9" r="1.1"/></g></g><g id="XMLID_385_"><g id="XMLID_388_"><g id="XMLID_389_"><path id="XMLID_390_" class="st12" d="M542.7 47.7c-.8-3.3-4.1-3.3-4.8 0-3.3.8-3.3 4.1 0 4.8.8 3.3 4.1 3.3 4.8 0 3.3-.8 3.3-4.1 0-4.8zm-.8.8l.6.1c.9.2 1.5.7 1.7 1.2.1.3 0 .7-.3 1-.3.3-.8.5-1.4.7l-.6.1-.1.6c-.1.6-.4 1.1-.7 1.4-.3.3-.7.4-1 .3-.5-.2-1-.8-1.2-1.7l-.1-.6-.6-.1c-.9-.2-1.5-.7-1.7-1.2-.1-.3 0-.7.3-1 .3-.3.8-.5 1.4-.7l.6-.1.1-.6c.1-.6.4-1.1.7-1.4.3-.3.7-.4 1-.3.5.2 1 .8 1.2 1.7l.1.6z"/></g></g><g id="XMLID_386_"><circle id="XMLID_387_" class="st12" cx="540.3" cy="50.1" r="1.1"/></g></g></g></g><g id="XMLID_329_"><g id="XMLID_381_"><circle id="XMLID_382_" class="st12" cx="602.5" cy="67.8" r="1.1"/></g><g id="XMLID_379_"><circle id="XMLID_380_" class="st12" cx="593.6" cy="58.9" r="1.1"/></g><g id="XMLID_353_"><g id="XMLID_371_"><g id="XMLID_374_"><g id="XMLID_375_"><path id="XMLID_376_" class="st12" d="M600 74.2c-3.3.8-3.3 4.1 0 4.8.8 3.3 4.1 3.3 4.8 0 3.3-.8 3.3-4.1 0-4.8-.7-3.3-4-3.3-4.8 0zm.9.9l.1-.6c.2-.9.7-1.5 1.2-1.7.3-.1.7 0 1 .3.3.3.5.8.7 1.4l.1.6.6.1c.6.1 1.1.4 1.4.7.3.3.4.7.3 1-.2.5-.8 1-1.7 1.2l-.6.1-.1.6c-.2.9-.7 1.5-1.2 1.7-.3.1-.7 0-1-.3-.3-.3-.5-.8-.7-1.4l-.1-.6-.6-.1c-.6-.1-1.1-.4-1.4-.7-.3-.3-.4-.7-.3-1 .2-.5.8-1 1.7-1.2l.6-.1z"/></g></g><g id="XMLID_372_"><circle id="XMLID_373_" class="st12" cx="602.5" cy="76.7" r="1.1"/></g></g><g id="XMLID_354_"><g id="XMLID_363_"><g id="XMLID_366_"><g id="XMLID_367_"><path id="XMLID_368_" class="st12" d="M613.7 65.4c-.8-3.3-4.1-3.3-4.8 0-3.3.8-3.3 4.1 0 4.8.8 3.3 4.1 3.3 4.8 0 3.3-.8 3.3-4.1 0-4.8zm-.8.8l.6.1c.9.2 1.5.7 1.7 1.2.1.3 0 .7-.3 1-.3.3-.8.5-1.4.7l-.6.1-.1.6c-.1.6-.4 1.1-.7 1.4-.3.3-.7.4-1 .3-.5-.2-1-.8-1.2-1.7l-.1-.6-.6-.1c-.9-.2-1.5-.7-1.7-1.2-.1-.3 0-.7.3-1 .3-.3.8-.5 1.4-.7l.6-.1.1-.6c.1-.6.4-1.1.7-1.4.3-.3.7-.4 1-.3.5.2 1 .8 1.2 1.7l.1.6z"/></g></g><g id="XMLID_364_"><circle id="XMLID_365_" class="st12" cx="611.3" cy="67.8" r="1.1"/></g></g><g id="XMLID_355_"><g id="XMLID_358_"><g id="XMLID_359_"><path id="XMLID_360_" class="st12" d="M596 65.4c-.8-3.3-4.1-3.3-4.8 0-3.3.8-3.3 4.1 0 4.8.8 3.3 4.1 3.3 4.8 0 3.3-.8 3.3-4.1 0-4.8zm-.8.8l.6.1c.9.2 1.5.7 1.7 1.2.1.3 0 .7-.3 1-.3.3-.8.5-1.4.7l-.6.1-.2.7c-.1.6-.4 1.1-.7 1.4-.3.3-.7.4-1 .3-.5-.2-1-.8-1.2-1.7l-.1-.6-.6-.1c-.9-.2-1.5-.7-1.7-1.2-.1-.3 0-.7.3-1 .3-.3.8-.5 1.4-.7l.6-.1.1-.6c.1-.6.4-1.1.7-1.4.3-.3.7-.4 1-.3.5.2 1 .8 1.2 1.7l.2.5z"/></g></g><g id="XMLID_356_"><circle id="XMLID_357_" class="st12" cx="593.6" cy="67.8" r="1.1"/></g></g></g></g><g id="XMLID_351_"><circle id="XMLID_352_" class="st12" cx="584.7" cy="67.8" r="1.1"/></g><g id="XMLID_349_"><circle id="XMLID_350_" class="st12" cx="593.7" cy="76.8" r="1.1"/></g><g id="XMLID_347_"><circle id="XMLID_348_" class="st12" cx="611.3" cy="76.8" r="1.1"/></g><g id="XMLID_330_"><g id="XMLID_339_"><g id="XMLID_342_"><g id="XMLID_343_"><path id="XMLID_344_" class="st12" d="M582.3 74.2c-3.3.8-3.3 4.1 0 4.8.8 3.3 4.1 3.3 4.8 0 3.3-.8 3.3-4.1 0-4.8-.8-3.3-4.1-3.3-4.8 0zm.8.9l.1-.6c.2-.9.7-1.5 1.2-1.7.3-.1.7 0 1 .3.3.3.5.8.7 1.4l.1.6.6.1c.6.1 1.1.4 1.4.7.3.3.4.7.3 1-.2.5-.8 1-1.7 1.2l-.6.1-.1.6c-.2.9-.7 1.5-1.2 1.7-.4.1-.7 0-1-.3-.3-.3-.5-.8-.7-1.4l-.1-.6-.6-.1c-.6-.1-1.1-.4-1.4-.7-.3-.3-.4-.7-.3-1 .2-.5.8-1 1.7-1.2l.6-.1z"/></g></g><g id="XMLID_340_"><circle id="XMLID_341_" class="st12" cx="584.7" cy="76.7" r="1.1"/></g></g><g id="XMLID_331_"><g id="XMLID_334_"><g id="XMLID_335_"><path id="XMLID_336_" class="st12" d="M578.2 65.4c-.8-3.3-4.1-3.3-4.8 0-3.3.8-3.3 4.1 0 4.8.8 3.3 4.1 3.3 4.8 0 3.4-.8 3.4-4.1 0-4.8zm-.8.8l.6.1c.9.2 1.5.7 1.7 1.2.1.3 0 .7-.3 1-.3.3-.8.5-1.4.7l-.6.1-.1.6c-.1.6-.4 1.1-.7 1.4-.3.3-.7.4-1 .3-.5-.2-1-.8-1.2-1.7l-.1-.6-.6-.1c-.9-.2-1.5-.7-1.7-1.2-.1-.3 0-.7.3-1 .3-.3.8-.5 1.4-.7l.6-.1.1-.6c.1-.6.4-1.1.7-1.4.3-.3.7-.4 1-.3.5.2 1 .8 1.2 1.7l.1.6z"/></g></g><g id="XMLID_332_"><circle id="XMLID_333_" class="st12" cx="575.8" cy="67.8" r="1.1"/></g></g></g></g><g id="XMLID_235_"><g id="XMLID_280_"><g id="XMLID_327_"><path id="XMLID_328_" class="st12" d="M569.1 61.1c-.2.2.2 1 1 1.8l1.7 1.7c.8.8 1.6 1.2 1.8 1 .2-.2-.2-1-1-1.8l-1.7-1.7c-.8-.7-1.6-1.2-1.8-1z"/></g><g id="XMLID_325_"><path id="XMLID_326_" class="st12" d="M560.3 65.6c.2.2 1-.2 1.8-1l1.7-1.7c.8-.8 1.2-1.6 1-1.8-.2-.2-1 .2-1.8 1l-1.7 1.7c-.8.8-1.2 1.6-1 1.8z"/></g><g id="XMLID_323_"><path id="XMLID_324_" class="st12" d="M569.1 56.8c.2.2 1-.2 1.8-1l1.7-1.7c.8-.8 1.2-1.6 1-1.8-.2-.2-1 .2-1.8 1l-1.7 1.7c-.8.8-1.2 1.6-1 1.8z"/></g><g id="XMLID_321_"><path id="XMLID_322_" class="st12" d="M578 47.9c.2.2 1-.2 1.8-1l1.7-1.7c.8-.8 1.2-1.6 1-1.8-.2-.2-1 .2-1.8 1l-1.7 1.7c-.8.8-1.3 1.6-1 1.8z"/></g><g id="XMLID_319_"><path id="XMLID_320_" class="st12" d="M560.3 30.3c.2.2 1-.2 1.8-1l1.7-1.7c.8-.8 1.2-1.6 1-1.8-.2-.2-1 .2-1.8 1l-1.7 1.7c-.8.7-1.2 1.5-1 1.8z"/></g><g id="XMLID_317_"><path id="XMLID_318_" class="st12" d="M551.3 39.2c.2.2 1-.2 1.8-1l1.7-1.7c.8-.8 1.2-1.6 1-1.8-.2-.2-1 .2-1.8 1l-1.7 1.7c-.7.8-1.2 1.6-1 1.8z"/></g><g id="XMLID_315_"><path id="XMLID_316_" class="st12" d="M542.5 48c.2.2 1-.2 1.8-1l1.7-1.7c.8-.8 1.2-1.6 1-1.8-.2-.2-1 .2-1.8 1l-1.7 1.7c-.8.8-1.2 1.6-1 1.8z"/></g><g id="XMLID_313_"><path id="XMLID_314_" class="st12" d="M586.8 39.1c.2.2 1-.2 1.8-1l1.7-1.7c.8-.8 1.2-1.6 1-1.8-.2-.2-1 .2-1.8 1l-1.7 1.7c-.8.8-1.2 1.6-1 1.8z"/></g><g id="XMLID_311_"><path id="XMLID_312_" class="st12" d="M604.6 57c.2.2 1-.2 1.8-1l1.7-1.7c.8-.8 1.2-1.6 1-1.8-.2-.2-1 .2-1.8 1l-1.7 1.7c-.7.8-1.2 1.6-1 1.8z"/></g><g id="XMLID_309_"><path id="XMLID_310_" class="st12" d="M596.1 65.5c.2.2 1-.2 1.8-1l1.7-1.7c.8-.8 1.2-1.6 1-1.8-.2-.2-1 .2-1.8 1l-1.7 1.7c-.8.8-1.3 1.6-1 1.8z"/></g><g id="XMLID_307_"><path id="XMLID_308_" class="st12" d="M587 74.6c.2.2 1-.2 1.8-1l1.7-1.7c.8-.8 1.2-1.6 1-1.8-.2-.2-1 .2-1.8 1l-1.7 1.7c-.8.8-1.2 1.6-1 1.8z"/></g><g id="XMLID_305_"><path id="XMLID_306_" class="st12" d="M595.7 30.2c.2.2 1-.2 1.8-1l1.7-1.7c.8-.8 1.2-1.6 1-1.8-.2-.2-1 .2-1.8 1l-1.7 1.7c-.7.8-1.2 1.6-1 1.8z"/></g><g id="XMLID_303_"><path id="XMLID_304_" class="st12" d="M551.4 74.5c.2.2 1-.2 1.8-1l1.7-1.7c.8-.8 1.2-1.6 1-1.8-.2-.2-1 .2-1.8 1l-1.7 1.7c-.7.8-1.2 1.6-1 1.8z"/></g><g id="XMLID_301_"><path id="XMLID_302_" class="st12" d="M578.1 70.1c-.2.2.2 1 1 1.8l1.7 1.7c.8.8 1.6 1.2 1.8 1 .2-.2-.2-1-1-1.8l-1.7-1.7c-.8-.7-1.6-1.2-1.8-1z"/></g><g id="XMLID_299_"><path id="XMLID_300_" class="st12" d="M542.6 70.1c-.2.2.2 1 1 1.8l1.7 1.7c.8.8 1.6 1.2 1.8 1 .2-.2-.2-1-1-1.8l-1.7-1.7c-.8-.8-1.6-1.2-1.8-1z"/></g><g id="XMLID_297_"><path id="XMLID_298_" class="st12" d="M595.9 52.3c-.2.2.2 1 1 1.8l1.7 1.7c.8.8 1.6 1.2 1.8 1 .2-.2-.2-1-1-1.8l-1.7-1.7c-.8-.8-1.6-1.3-1.8-1z"/></g><g id="XMLID_295_"><path id="XMLID_296_" class="st12" d="M604.8 61.1c-.2.2.2 1 1 1.8l1.7 1.7c.8.8 1.6 1.2 1.8 1 .2-.2-.2-1-1-1.8l-1.7-1.7c-.8-.7-1.6-1.2-1.8-1z"/></g><g id="XMLID_293_"><path id="XMLID_294_" class="st12" d="M587.1 43.4c-.2.2.2 1 1 1.8l1.7 1.7c.8.8 1.6 1.2 1.8 1 .2-.2-.2-1-1-1.8l-1.7-1.7c-.8-.7-1.6-1.2-1.8-1z"/></g><g id="XMLID_291_"><path id="XMLID_292_" class="st12" d="M604.7 25.9c-.2.2.2 1 1 1.8l1.7 1.7c.8.8 1.6 1.2 1.8 1 .2-.2-.2-1-1-1.8l-1.7-1.7c-.8-.8-1.6-1.3-1.8-1z"/></g><g id="XMLID_289_"><path id="XMLID_290_" class="st12" d="M578.2 34.5c-.2.2.2 1 1 1.8l1.7 1.7c.8.8 1.6 1.2 1.8 1 .2-.2-.2-1-1-1.8l-1.7-1.7c-.8-.8-1.6-1.2-1.8-1z"/></g><g id="XMLID_287_"><path id="XMLID_288_" class="st12" d="M569.3 25.6c-.2.2.2 1 1 1.8l1.7 1.7c.8.8 1.6 1.2 1.8 1 .2-.2-.2-1-1-1.8l-1.7-1.7c-.8-.7-1.6-1.2-1.8-1z"/></g><g id="XMLID_285_"><path id="XMLID_286_" class="st12" d="M560.3 52.3c-.2.2.2 1 1 1.8l1.7 1.7c.8.8 1.6 1.2 1.8 1 .2-.2-.2-1-1-1.8l-1.7-1.7c-.8-.7-1.6-1.2-1.8-1z"/></g><g id="XMLID_283_"><path id="XMLID_284_" class="st12" d="M551.4 43.5c-.2.2.2 1 1 1.8l1.7 1.7c.8.8 1.6 1.2 1.8 1 .2-.2-.2-1-1-1.8l-1.7-1.7c-.8-.8-1.6-1.3-1.8-1z"/></g><g id="XMLID_281_"><path id="XMLID_282_" class="st12" d="M542.5 34.6c-.2.2.2 1 1 1.8l1.7 1.7c.8.8 1.6 1.2 1.8 1 .2-.2-.2-1-1-1.8l-1.7-1.7c-.8-.8-1.6-1.2-1.8-1z"/></g></g><g id="XMLID_278_"><circle id="XMLID_279_" class="st12" cx="566.9" cy="67.8" r="1.1"/></g><g id="XMLID_276_"><circle id="XMLID_277_" class="st12" cx="575.8" cy="76.7" r="1.1"/></g><g id="XMLID_259_"><g id="XMLID_268_"><g id="XMLID_271_"><g id="XMLID_272_"><path id="XMLID_273_" class="st12" d="M564.5 74.2c-3.3.8-3.3 4.1 0 4.8.8 3.3 4.1 3.3 4.8 0 3.3-.8 3.3-4.1 0-4.8-.7-3.3-4-3.3-4.8 0zm.8.9l.1-.6c.2-.9.7-1.5 1.2-1.7.3-.1.7 0 1 .3.3.3.5.8.7 1.4l.1.6.6.1c.6.1 1.1.4 1.4.7.3.3.4.7.3 1-.2.5-.8 1-1.7 1.2l-.6.1-.1.6c-.2.9-.7 1.5-1.2 1.7-.3.1-.7 0-1-.3-.3-.3-.5-.8-.7-1.4l-.1-.6-.6-.1c-.6-.1-1.1-.4-1.4-.7-.3-.3-.4-.7-.3-1 .2-.5.8-1 1.7-1.2l.6-.1z"/></g></g><g id="XMLID_269_"><circle id="XMLID_270_" class="st12" cx="566.9" cy="76.7" r="1.1"/></g></g><g id="XMLID_260_"><g id="XMLID_263_"><g id="XMLID_264_"><path id="XMLID_265_" class="st12" d="M560.5 65.4c-.8-3.3-4.1-3.3-4.8 0-3.3.8-3.3 4.1 0 4.8.8 3.3 4.1 3.3 4.8 0 3.3-.8 3.3-4.1 0-4.8zm-.9.8l.6.1c.9.2 1.5.7 1.7 1.2.1.3 0 .7-.3 1-.3.3-.8.5-1.4.7l-.6.1-.1.6c-.1.6-.4 1.1-.7 1.4-.3.3-.7.4-1 .3-.5-.2-1-.8-1.2-1.7l-.1-.6-.6-.1c-.9-.2-1.5-.7-1.7-1.2-.1-.3 0-.7.3-1 .3-.3.8-.5 1.4-.7l.6-.1.1-.6c.1-.6.4-1.1.7-1.4.3-.3.7-.4 1-.3.5.2 1 .8 1.2 1.7l.1.6z"/></g></g><g id="XMLID_261_"><circle id="XMLID_262_" class="st12" cx="558.1" cy="67.8" r="1.1"/></g></g></g><g id="XMLID_257_"><circle id="XMLID_258_" class="st12" cx="549.2" cy="67.8" r="1.1"/></g><g id="XMLID_255_"><circle id="XMLID_256_" class="st12" cx="558.2" cy="76.8" r="1.1"/></g><g id="XMLID_236_"><g id="XMLID_245_"><g id="XMLID_250_"><g id="XMLID_251_"><path id="XMLID_252_" class="st12" d="M546.8 74.2c-3.3.8-3.3 4.1 0 4.8.8 3.3 4.1 3.3 4.8 0 3.3-.8 3.3-4.1 0-4.8-.8-3.3-4.1-3.3-4.8 0zm.8.9l.1-.6c.2-.9.7-1.5 1.2-1.7.3-.1.7 0 1 .3.3.3.5.8.7 1.4l.1.6.6.1c.6.1 1.1.4 1.4.7.3.3.4.7.3 1-.2.5-.8 1-1.7 1.2l-.6.1-.1.6c-.2.9-.7 1.5-1.2 1.7-.3.1-.7 0-1-.3-.3-.3-.5-.8-.7-1.4l-.1-.6-.6-.1c-.6-.1-1.1-.4-1.4-.7-.3-.3-.4-.7-.3-1 .2-.5.8-1 1.7-1.2l.6-.1z"/></g></g><g id="XMLID_248_"><circle id="XMLID_249_" class="st12" cx="549.2" cy="76.7" r="1.1"/></g><g id="XMLID_246_"><circle id="XMLID_247_" class="st12" cx="540.3" cy="76.7" r="1.1"/></g></g><g id="XMLID_237_"><g id="XMLID_240_"><g id="XMLID_241_"><path id="XMLID_242_" class="st12" d="M542.7 65.4c-.8-3.3-4.1-3.3-4.8 0-3.3.8-3.3 4.1 0 4.8.8 3.3 4.1 3.3 4.8 0 3.3-.8 3.3-4.1 0-4.8zm-.8.8l.6.1c.9.2 1.5.7 1.7 1.2.1.3 0 .7-.3 1-.3.3-.8.5-1.4.7l-.6.1-.1.6c-.1.6-.4 1.1-.7 1.4-.3.3-.7.4-1 .3-.5-.2-1-.8-1.2-1.7l-.1-.6-.6-.1c-.9-.2-1.5-.7-1.7-1.2-.1-.3 0-.7.3-1 .3-.3.8-.5 1.4-.7l.6-.1.1-.6c.1-.6.4-1.1.7-1.4.3-.3.7-.4 1-.3.5.2 1 .8 1.2 1.7l.1.6z"/></g></g><g id="XMLID_238_"><circle id="XMLID_239_" class="st12" cx="540.3" cy="67.8" r="1.1"/></g></g></g></g></g></g></g></g><g id="XMLID_77_"><path id="XMLID_229_" class="st13" d="M81.3 70.2h74.4v27.3H81.3z"/><path id="XMLID_228_" class="st14" d="M80 97.5h76.9c.7 0 1.2.6 1.2 1.2 0 .7-.6 1.2-1.2 1.2H80c-.7 0-1.2-.6-1.2-1.2 0-.7.5-1.2 1.2-1.2z"/><path id="XMLID_227_" class="st13" d="M96.1 52.8h44.6c8.2 0 14.9 6.7 14.9 14.9H81.3c0-8.2 6.6-14.9 14.8-14.9z"/><g id="XMLID_135_"><defs><path id="XMLID_136_" d="M81.3 70.2h74.4v27.3H81.3z"/></defs><clipPath id="XMLID_11_"><use xlink:href="#XMLID_136_" overflow="visible"/></clipPath><path id="XMLID_221_" class="st15" d="M156.7 79.2c-2-.9-4.3-1-6.6-.2.8-.9 1-1.9 1-2.8.5-.3 1.1-1 1.6-2.1.6-1.4.3-2.6-.2-3.4.3-.6.6-1.3.5-2.1 0-.5-17.5-1.4-17.8 1-.1.2-.2.5-.2 1-.7-.4-1.5-.5-2.3-.4-.2-.2-.3-.4-.4-.5-.3-1.8-29.7-1.8-30-1.1-.4 1.3-.5 2.7-.5 3.5-.3 0-.7.1-1 .3-.1-.4-.2-.7-.3-.8-.7-1.5-3.1-2.4-5.1-3.1-.6-.2-10-.3-10 0-.9.5-1.8 1.4-1.8 2.9 0 1 .3 2 1 2.7-.1.1-.2.2-.2.3-.3.5-.6 1.4-.1 2.7.5 1.3 1.2 1.9 1.8 2.1-1.8-.7-3.5-1-5.2-.7-.2 0-1.3 20.2-1.3 20.2s25.9 1 25.6-.5c-.7-3.8-2.3-6-3.9-7.5l.3-.5c.2-.3.7-1.3 1-2.5 1.8 1.7 4.5 2.6 7.7 2.6h.1c0 1 .2 1.2.4 1.4.5.7 1.1 1.3 1.6 1.6.1.6.5 1.4 1.5 2 .7.4 1.4.7 2.1.7.3.7.8 1.2 1.2 1.4.6.3 1.2.5 1.7.5 1.2 0 2.3-.7 2.8-1.9.4-.1 1-.3 1.5-.8.6-.6.9-1.4.8-2.2.7-.3 1.5-.8 1.9-1.6.3-.6.4-1.2.3-1.8 2.7-.3 5.2-1.6 7.5-3.8.4-.4.7-.7 1-1.1.3 1.3.9 2.6 1 2.9l.3.7.8-.2c.7-.2 4.4-1.1 5.1-3.5.2-.7.1-1.4-.1-2.1.6.3 1.5.3 2.6.1-.8 1-1.2 2-1.4 2.9-.4 0-.9 0-1.3.2-.7.3-1.2.8-1.4 1.5-.1.2-.1.4-.2.6-1.1-.1-2.1.2-3 .7-1.8 1-5.7 3.1-6.8 9.4-.2 1.2 27 1.1 27 .1-.2-6.5-.1-18.6-.6-18.8zm-20.1-3.5c.2.5.3 1.1.2 1.6-.1-.6-.1-1.1-.2-1.6zm-41.2 9.7c-.1.4-.2.8-.1 1.2.1.4.2 1 .8 1.5h-.7c0-.2-.1-.4-.2-.6-.3-.7-.8-1.2-1.4-1.5 0 0-.1 0-.1-.1.7 0 1.3-.3 1.7-.6-.2 0-.1.1 0 .1zm55.5 19.4l1.1-.7.9.4-.7 1.5-1.5-.7.2-.5zm-3.7-24.5c0-.1.1-.2.1-.3h.4c-.1.1-.3.2-.5.3z"/><g id="XMLID_137_" class="st16"><g id="XMLID_209_"><path id="XMLID_220_" class="st11" d="M103.8 74.2s-4.6 8.5.3 11.7c4.9 3.1 13.5.3 13.5.3s9.5 4.6 14.7-2.6c5.1-7.2-.9-13.3-.9-13.3l-14.1-.9-13.5 4.8z"/><g id="XMLID_210_"><path id="XMLID_219_" transform="scale(-1) rotate(58.29 144.596 -186.412)" class="st8" d="M103.3 78.9h1.2v3.5h-1.2z"/><path id="XMLID_218_" transform="scale(-1) rotate(58.29 145.25 -201.933)" class="st8" d="M112 72.5h1.2v17H112z"/><path id="XMLID_217_" transform="scale(-1) rotate(58.29 150.044 -210.752)" class="st8" d="M116.9 75.6h1.2v16.1h-1.2z"/><path id="XMLID_216_" transform="scale(-1) rotate(58.29 149.202 -228.693)" class="st8" d="M126.9 76.1h1.2v14.1h-1.2z"/><path id="XMLID_215_" transform="scale(-1) rotate(-31.71 -291.791 383.929)" class="st8" d="M108.4 77.4h1.2v10.9h-1.2z"/><path id="XMLID_214_" transform="scale(-1) rotate(-31.71 -289.976 402.92)" class="st8" d="M113.8 77.3h1.2v10.2h-1.2z"/><path id="XMLID_213_" transform="scale(-1) rotate(-31.71 -284.51 419.657)" class="st8" d="M118.6 76.3h1.2v8.9h-1.2z"/><path id="XMLID_212_" transform="scale(-1) rotate(-31.71 -294.025 445.65)" class="st8" d="M126 79.1h1.2v8.8H126z"/><path id="XMLID_211_" transform="scale(-1) rotate(-31.71 -272.542 452.489)" class="st8" d="M127.9 70.9h1.2v13h-1.2z"/></g></g><path id="XMLID_208_" class="st17" d="M88.6 67.1s1.6-1.6.7-3.8c-.9-2.1-3.6-2.3-3.6-2.3s-2.2 2.2-.9 4.4c1.3 2.3 3.8 1.7 3.8 1.7z"/><path id="XMLID_207_" class="st17" d="M96.9 84.6s-1.6 1.8.1 3c1.7 1.2 3.6 2.1 3.6 2.1s1.7-3 .7-4.5-3.8-1.6-3.8-1.6l-.6 1z"/><path id="XMLID_206_" class="st18" d="M91.6 68.1s-1.1-3.7-3.6-1.9c-2.3 1.6-1.4 2.9-1.4 2.9s-2 .5-2 2.3c0 1.8 1.3 2.7 2.2 2.7 0 0-2.5.2-1.6 2.6.9 2.4 2.5 1.4 2.5 1.4s-1.6 1.8.1 3.2c1.6 1.4 3 .8 3 .8s.4 2.4 2.4 2.6 2-1.4 2-1.4.5 2 2.7.9 1.2-2.1.7-3c-.5-.9.9-8.7.9-8.7l-7.9-4.4z"/><path id="XMLID_205_" class="st19" d="M96.2 79.6s-3.4.7-5.4-2.6 1.7-6.3 1.7-6.3l6.8 2-3.1 6.9z"/><path id="XMLID_204_" class="st14" d="M95.8 77.3s-1.6.5-2.5-1.2c-.9-1.7 1.1-3.8 1.1-3.8l4.9.3-3.5 4.7z"/><path id="XMLID_203_" class="st20" d="M99.6 72.1s.6 1.5.3 2.9-1.8 3.2-1.3 4.9c.5 1.7.7 2.2.7 2.2s-1.7.6-3.2-2.4.9-5.4 1.5-5.9.9-.9.9-.9-2.7 1.1-4.6.3c-1.8-.9-3.1-2.1-3.1-3.7s.5-2.9.5-2.9.4 1.6 2 2.3c1.7.7 5.5 1.6 6.3 3.2z"/><path id="XMLID_202_" class="st21" d="M117.7 86.2l-6.1 2.6s-.9 1.6-.2 2.6 1.7 1.3 1.7 1.3l2.7-2.5 1.9-4z"/><path id="XMLID_201_" class="st3" d="M117.7 86.2l-4.2 5.6s-1.1 1.7.7 2.8c1.8 1.1 3.1.1 3.1.1l.8-5.5-.4-3z"/><path id="XMLID_200_" class="st21" d="M119.7 86l4.3 2.4s1.6 1.3.9 2.6c-.7 1.3-2.8 1.6-2.8 1.6l-2.7-3.1-1.1-3.6 1.4.1z"/><path id="XMLID_199_" class="st3" d="M118.2 86.3l3.7 4.9s1.8 2 .4 3.4c-.9.9-1.9.3-1.9.3l-2.6-7.9.4-.7z"/><path id="XMLID_198_" class="st22" d="M117.7 86.2l-1 7.5s-.6 2.1.9 2.9c1.5.9 2.7.1 3.1-1 .4-1-.4-2.9-.4-2.9l-2.6-6.5z"/><path id="XMLID_197_" class="st5" d="M104.2 75.3s-2.2 6-.2 8.5c2 2.6 5.2 2.5 5.2 2.5s-.2-1.8.8-2.8c1-1 3-1.9 4.8-1.1 1.8.8 2 3 1.8 3.7s-1.9 3.7-6.6 3.6c-4.6-.1-8-2.2-9.2-6-1.3-4.3.3-8.9.3-8.9l3.1.5z"/><path id="XMLID_196_" class="st5" d="M131.4 72.8s2.5 3.3 1.7 6-1.8 4.4-4 5.7c-2.2 1.3-3.6 1.9-5.1 1.3 0 0 1.1-1.3.4-2.7-.8-1.4-2.6-2-3.8-1.3-1.3.6-2.2 2-1.9 3.5s1.8 3.2 3.9 3.4c2.1.2 6 .6 10.2-3.5 5.4-5.3 1.6-13.1 1.6-13.1l-3 .7z"/><circle id="XMLID_195_" class="st23" cx="117.7" cy="86.6" r="1.7"/><path id="XMLID_194_" class="st17" d="M139.1 80.6s-3.3 1-3.7 2.4c-.3 1.4 1 4.4 1 4.4s3.8-.9 4.3-2.8-1.6-4-1.6-4z"/><path id="XMLID_193_" class="st17" d="M147.9 65s-2.2-3-1.8-4.5c.4-1.5 3.2-2.6 3.2-2.6s2.1 2.6 1.9 3.9c-.4 1.9-3.3 3.2-3.3 3.2z"/><path id="XMLID_192_" class="st18" d="M144.5 65.8l1.1-2.3s1.1-1.3 3.3 0c2.2 1.4 1 3.4 1 3.4s1-.3 1.8.8-.5 2.9-.5 2.9 1.2 1.2.5 3-1.7 1.9-1.7 1.9.5 1.7-.7 2.8c-1.2 1.1-2.9.2-2.9.2s.5 2.6-2.1 3.2-2.5-.6-2.5-.6-.9 1.6-3.2.8c-2.3-.7-2-2.3-1.6-2.6.4-.4 2.5-4.7 2.5-4.7l-3.3-4.9 8.3-3.9z"/><path id="XMLID_191_" class="st19" d="M143.7 66.6s3 2.9 2 6.5-6.2 3.1-6.2 3.1l-3-6.2 7.2-3.4z"/><path id="XMLID_190_" class="st14" d="M142.2 67.9s1.9 2.5 1.1 4.6c-.8 2.3-4.5 1.4-4.5 1.4l-2.3-4 5.7-2z"/><path id="XMLID_189_" class="st20" d="M143.7 62.8s-.6 2.3-2.3 3-5.1 1.6-5.3 3.9c0 0-.9 2.4.3 3.7s2.3 3.4.4 6.1c0 0 3.2-.4 3.8-3.5.7-3.2-3.4-6-3.4-6s5.1.4 6.7-2.2-.2-5-.2-5z"/><g id="XMLID_174_"><g id="XMLID_183_"><path id="XMLID_188_" class="st24" d="M103.6 71.8c.2 5 1 5 1 5s4.5 4.5 8 3.6 4.6-3.9 4.6-3.9 3.2 4.5 7 3.6c3.8-.9 7.7-5.1 7.7-5.1s-.4-2.7-1.1-5c-.4-1.3-27.4-3.2-27.2 1.8z"/><circle id="XMLID_187_" class="st14" cx="121.6" cy="75.8" r="1.5"/><circle id="XMLID_186_" class="st14" cx="127.6" cy="74" r="1.5"/><circle id="XMLID_185_" class="st14" cx="107.5" cy="74.7" r="1.5"/><circle id="XMLID_184_" class="st14" cx="113" cy="75.1" r="1.5"/></g><path id="XMLID_182_" class="st14" d="M131.3 70.2c.2 1.5.6 1.3 1.3 1 .7-.3 2.4 0 2.6 1.4.3 1.5-1.3 3-2.8 2.8-1.4-.2-2.7-.7-3.2-3-.2-1.1-.3-2.4-.4-3.4-.2-1 2.3-.3 2.5 1.2z"/><path id="XMLID_181_" class="st14" d="M117.3 76.4s1.7 2.5 3.7 3.2 5-1 5.8-2c.7-1 2-2.7 3.2-2.8 1.2-.1 2.8.7 2.9 1.7s.1 1.9-.5 2.7-2.2.2-2.3-.2c-.1-.4-1 0-1.2.3s-2.8 2.4-5.5 1.8c-2.7-.6-4.6-1.6-6.1-4.6v-.1z"/><path id="XMLID_180_" class="st14" d="M117 76.5s-.7 2.1-3 2.5c-2.3.4-3.8-.8-4.8-1.3s-3.3-1.6-4.5-.7c-1.1.8-1.6 1.6-1.5 2.7.1 1.1.8 1.9 2.1 1.8s1.9-1 2-1.3c.1-.4.6-.4 1.2-.1.7.3 3.9 1.4 6.1.6 2.2-.9 2.5-3.8 2.5-3.8l-.1-.4z"/><path id="XMLID_179_" class="st14" d="M104.6 69.9c-.4 2.3 1.2 4.1 1.1 5.1-.2 1.2-.8 2-1.8 2.2s-2.7-.1-3.2-1.7c-.4-1.6.6-2.7 1-2.4.6.4.8 0 .9-.4.1-.3 0-2.2.5-4 .3-.5 1.6.7 1.5 1.2z"/><path id="XMLID_178_" class="st14" d="M116.6 69.1s-.4 2.4-2.2 3.3c-1.8.9-5 .8-5 .8s.5-2.3 2.1-3.3 4.9-1.1 4.9-1.1l.2.3z"/><path id="XMLID_177_" class="st14" d="M117.4 77.5s-1.8-2.1-1.6-4.4c.2-2.3 1.2-3.9 1.2-3.9h.6s1.7 1.8 1.8 3.7c.1 2.2-2 4.6-2 4.6z"/><path id="XMLID_176_" class="st14" d="M117.6 69.2s1.6 2.3 3.6 3.3 4.4.5 4.4.5-1-3.1-2.6-3.8c-1.7-.7-5-.3-5-.3l-.4.3z"/><circle id="XMLID_175_" class="st23" cx="117.2" cy="68.9" r="1.2"/></g><g id="XMLID_166_"><path id="XMLID_173_" class="st11" d="M81.1 81.2c5.8.3 11.2 7.6 11.2 7.6s10.4 1.8 10.5 10.6c0 1.2-22.8-.3-22.8-.3s.3-17.9 1.1-17.9z"/><g id="XMLID_167_"><path id="XMLID_172_" transform="scale(-1) rotate(-22.98 -423.694 410.516)" class="st8" d="M82.8 81.9H84v8.4h-1.2z"/><path id="XMLID_171_" transform="scale(-1) rotate(-22.98 -447.209 446.455)" class="st8" d="M90.2 82.7h1.2v16.4h-1.2z"/><path id="XMLID_170_" transform="scale(-1) rotate(-22.98 -463.653 479.396)" class="st8" d="M96.8 90.1H98v8.3h-1.2z"/><path id="XMLID_169_" transform="scale(-1) rotate(67.02 129.891 -127.683)" class="st8" d="M83.9 81.9h1.2v8.2h-1.2z"/><path id="XMLID_168_" transform="scale(-1) rotate(67.02 146.564 -144.763)" class="st8" d="M95.3 90.3h1.2v13.5h-1.2z"/></g></g><path id="XMLID_165_" class="st5" d="M79.7 82.9c3.1-.9 5.7 1 5.7 1s-1.2 1.3-1 2.7c.2 1.4 1.3 3.3 3.3 3.7 2 .4 3.3-1.3 3.6-2 .3-.7.5-4.1-3.3-6.7-2.9-2-5.8-2.6-8.4-1.7-.3.1-1.5 3.4.1 3z"/><path id="XMLID_164_" class="st5" d="M101.3 98.9c-.1-.7-.3-1.4-.6-2.1-1-2.3-1.9-3.6-3.4-4 0 0 .2 1.7-1.2 2.4s-3.2.1-3.9-1.1c-.7-1.3-.6-2.8.5-3.9s3.3-1.5 5.2-.5 5.3 3 6.3 8.7c.2 1.5-2.8.9-2.9.5z"/><g id="XMLID_157_"><g id="XMLID_160_"><path id="XMLID_163_" class="st24" d="M80.3 99s-.2-8.6 1.4-9.1c3.8-1.1 9.6.7 9.6.7s2.3 5.7 1.6 8.2c-.1.4-12.6.2-12.6.2z"/><circle id="XMLID_162_" class="st14" cx="81.8" cy="94.8" r="1.5"/><circle id="XMLID_161_" class="st14" cx="87.9" cy="93.5" r="1.5"/></g><path id="XMLID_159_" class="st14" d="M93.6 98.9c.1-1.5-.2-3-.5-3.8-.6-1.4-.1-1.4.7-1.5s2.1-1.1 1.6-2.5-2.6-2-3.8-1.1c-1.1.9-2.1 1.9-1.3 4.2.5 1.6 1.5 3.2 1.6 4.7-.1.1 1.7.2 1.7 0z"/><path id="XMLID_158_" class="st14" d="M80.8 91c1.6-.7 3.8-.5 4.7-.2 1.1.5 3.1 1.4 4.1.9 1.1-.5 1.9-1.9 1.7-2.9-.3-1.1-.7-1.9-1.8-2.1-1.2-.3-2 .9-1.9 1.3s-.8.5-1.2.3c-.4-.2-3.6-.7-5.7 1.1-.3.2-.1 1.7.1 1.6z"/></g><circle id="XMLID_156_" class="st23" cx="92.5" cy="88.4" r="1.7"/><g id="XMLID_148_"><path id="XMLID_155_" class="st11" d="M155.2 81.6c-5.8.3-12 7.6-12 7.6s-10.4 1.8-10.5 10.6c0 1.2 22.8-.3 22.8-.3s.5-18-.3-17.9z"/><g id="XMLID_149_"><path id="XMLID_154_" transform="rotate(22.98 152.057 86.543)" class="st8" d="M151.5 82.4h1.2v8.4h-1.2z"/><path id="XMLID_153_" transform="rotate(22.98 144.751 91.323)" class="st8" d="M144.1 83.1h1.2v16.4h-1.2z"/><path id="XMLID_152_" transform="rotate(22.98 138.055 94.666)" class="st8" d="M137.5 90.5h1.2v8.3h-1.2z"/><path id="XMLID_151_" class="st8" d="M147.4 84.3l-.4 1.1 8.9 3.7.4-1.1z"/><path id="XMLID_150_" transform="rotate(-67.02 139.651 97.461)" class="st8" d="M139.1 90.7h1.2v13.5h-1.2z"/></g></g><path id="XMLID_147_" class="st5" d="M155.8 83.3c-3.1-.9-5.7 1-5.7 1s1.2 1.3 1 2.7c-.2 1.4-1.3 3.3-3.3 3.7-2 .4-3.3-1.3-3.6-2s-.5-4.1 3.3-6.7c2.9-2 5.8-2.6 8.4-1.7.3.1 1.5 3.5-.1 3z"/><path id="XMLID_146_" class="st5" d="M134.2 99.3c.1-.7.3-1.4.6-2.1 1-2.3 1.9-3.6 3.4-4 0 0-.2 1.7 1.2 2.4s3.2.1 3.9-1.1c.7-1.3.6-2.8-.5-3.9s-3.3-1.5-5.2-.5c-1.9 1-5.3 3-6.3 8.7-.2 1.6 2.8.9 2.9.5z"/><g id="XMLID_139_"><g id="XMLID_142_"><path id="XMLID_145_" class="st24" d="M155.2 99.4s.2-8.6-1.4-9.1c-3.8-1.1-9.6.7-9.6.7s-2.3 5.7-1.6 8.2c.1.4 12.6.2 12.6.2z"/><circle id="XMLID_144_" class="st14" cx="153.7" cy="95.3" r="1.5"/><circle id="XMLID_143_" class="st14" cx="147.5" cy="94" r="1.5"/></g><path id="XMLID_141_" class="st14" d="M141.9 99.3c-.1-1.5.2-3 .5-3.8.6-1.4.1-1.4-.7-1.5-.7-.1-2.1-1.1-1.6-2.5s2.6-2 3.8-1.1c1.1.9 2.1 1.9 1.3 4.2-.5 1.6-1.5 3.2-1.6 4.7 0 .1-1.7.2-1.7 0z"/><path id="XMLID_140_" class="st14" d="M154.7 91.4c-1.6-.7-3.8-.5-4.7-.2-1.1.5-3.1 1.4-4.1.9-1.1-.5-1.9-1.9-1.7-2.9.3-1.1.7-1.9 1.8-2.1 1.2-.3 2 .9 1.9 1.3-.1.4.8.5 1.2.3.4-.2 3.6-.7 5.7 1.1.3.2.1 1.7-.1 1.6z"/></g><circle id="XMLID_138_" class="st23" cx="143" cy="88.8" r="1.7"/></g></g><path id="XMLID_134_" class="st7" d="M81.3 68.5h74.4v5.6H81.3z"/><path id="XMLID_133_" class="st25" d="M141 52.9c-.2.7-1.1 4.5 2.5 6.3 4.1 2.1 6.8-.5 7.6-1.4-.5.7-1.7 2.6-1.1 5.7.8 3.8 5.4 4.1 5.4 4.1l.1-.4c-.2-7.9-6.6-14.2-14.5-14.3z"/><g id="XMLID_130_"><path id="XMLID_132_" class="st26" d="M152 58.1c-.5 1.6-1 3.4-.7 4.9.5 2.6 3.1 3.1 4.1 3.3-.2-3.2-1.4-6-3.4-8.2z"/><path id="XMLID_131_" class="st26" d="M143.4 53.1l-.8.7s-1 2.5 2.4 3.9c1.5.6 3.7-.2 5.5-1.2-1.9-1.7-4.4-2.9-7.1-3.4z"/></g><circle id="XMLID_129_" class="st14" cx="145.1" cy="55" r="0.9"/><circle id="XMLID_128_" class="st14" cx="153.1" cy="63" r="0.9"/><path id="XMLID_127_" class="st25" d="M95.8 52.9c.2.7 1.1 4.5-2.5 6.3-4.1 2.1-6.8-.5-7.6-1.4.5.7 1.7 2.6 1.1 5.7-.8 3.8-5.4 4.1-5.4 4.1l-.1-.4c.3-7.9 6.6-14.2 14.5-14.3z"/><g id="XMLID_124_"><path id="XMLID_126_" class="st26" d="M84.8 58.1c.5 1.6 1 3.4.7 4.9-.5 2.6-3.1 3.1-4.1 3.3.3-3.2 1.5-6 3.4-8.2z"/><path id="XMLID_125_" class="st26" d="M93.5 53.1l.8.7s1 2.5-2.4 3.9c-1.5.6-3.7-.2-5.5-1.2 1.9-1.7 4.3-2.9 7.1-3.4z"/></g><circle id="XMLID_123_" class="st14" cx="91.7" cy="55" r="0.9"/><circle id="XMLID_122_" class="st14" cx="83.7" cy="63" r="0.9"/><g id="XMLID_80_"><defs><path id="XMLID_81_" d="M96.1 52.8h44.6c8.2 0 14.9 6.7 14.9 14.9H81.3c0-8.2 6.6-14.9 14.8-14.9z"/></defs><clipPath id="XMLID_12_"><use xlink:href="#XMLID_81_" overflow="visible"/></clipPath><path id="XMLID_121_" class="st27" d="M138 56.6c.6-1.3-.2-2.9-.5-3.4l-.3-.5h-.6c-.1 0-1.2.1-2.1.7l-.1-.8L133 55s-.7 1.1-1.7 1.3c-1.7.2-3 1.2-3.2 1.8v.2c-.1-.5-.3-1-.6-1.4 2.2-.4 3.6-1.6 4.7-2.8 1.8-1.9 1.6-4.9 1.3-5.8.4-.2.8-.6 1.1-.9.4-.6.5-1.3.3-1.9-.5-1.3-1.5-1.7-2.3-2.1h-.1c.1-.5.1-1-.1-1.5-.3-1-.9-1.8-1.8-2.1-.3-.1-.6-.2-.9-.2-1.4 0-2.4 1.2-2.6 2.1-.9-.4-2.1-.6-3.2-.6-1.3 0-2.6.3-3.6.9-.5.3-.9.6-1.1.9-.7-.9-1.6-1.5-2.7-1.8-.4-.1-.8-.2-1.3-.2-1.8 0-3.4.9-4.4 1.6-.4-.7-1.2-.8-1.7-.8h-.5c-1.1.1-2.1.9-2.5 2-.1.5-.2.9-.1 1.4-.2 0-.3.1-.5.2-1.8.8-2.3 2.4-2 3.5.2 1 1.3 2 2 2.2.1 0 .5.1.9.2.1 2.7.8 4.5 2.1 5.6-.3-.1-.6-.2-.9-.2-.8-.1-1.5-1-1.7-1.3l-1.5-2.3-.1.8c-.9-.6-1.9-.7-2.1-.7h-.6l-.3.5c-.3.5-1.1 2.1-.6 3.4.2.5.1.8 1.1.9-1 .4-1 .9-1 1.8 0 .7.2 1.3.5 1.7-.2.5-.2 1 .1 1.6.2.5.5.8.8 1 0 .5.1 1.1.7 1.5.3.3.8.5 1.3.5.3.6.9 1.1 1.6 1.1h.1c.3 0 .6-.1.8-.2 0 .1.1.3.1.4.5 1.4 1.9 1.8 2.6 1.9h.4l.3-.2c.7-.5 1.7-1.8 1-3.5-.1-.1-.1-.3-.2-.4h.1l-.2-1c-.1-.5-.2-1.4-.1-1.8.1-.6.4-3.4.1-4-.1-.2-.3-.4-.6-.6.3.1.7.1 1 .1h.4c-.4 1.4-.7 3.2-.1 4.5.7 1.8 2.5 3 3.5 3.6-.1.2-.2.5-.1.8.1.8.8 1.9 2.2 2.4.3.1.6.1.8.1.9 0 1.6-.4 2.2-1 .2.2.6.5.9.6.4.2.8.3 1.3.3 1 0 1.8-.6 2.3-1.5.5-1.1.4-2.1 0-2.8.3-.2 2.8-2.2 3.4-4.6 0 .9.2 1.7.2 2 .1.4 0 1.3-.1 1.8l-.2 1c-.1.1-.2.3-.2.4-.7 1.6.3 3 1 3.5l.3.2h.4c.7-.1 2.1-.6 2.6-1.9.1-.1.1-.3.1-.4.2.1.5.2.8.2h.1c.7 0 1.3-.5 1.6-1.1.5 0 1-.2 1.3-.5.5-.4.6-1 .6-1.5.3-.2.5-.5.8-1 .3-.6.2-1.1 0-1.6.3-.4.6-1 .5-1.7 0-.9-.1-1.4-1.1-1.8 1.1-.5 1.1-.7 1.3-1.2z"/><g id="XMLID_82_" class="st28"><g id="XMLID_83_"><g id="XMLID_84_"><g id="XMLID_114_"><path id="XMLID_120_" class="st17" d="M103.9 57s-2.1-.1-2.4-.8c-.4-.9.6-2.5.6-2.5s1.4.1 2 .9c.6.9-.2 2.4-.2 2.4z"/><path id="XMLID_119_" class="st17" d="M108.2 64.6s-.9.9-.5 2 1.8 1.3 1.8 1.3 1.2-.9.6-2.2-1.9-1.1-1.9-1.1z"/><path id="XMLID_118_" class="st18" d="M105.1 56.2s-.9-.5-1.8.1-.5 1.8-.5 1.8-1 .2-1 1.3c0 1 1 1.5 1 1.5s-.9.5-.5 1.3 1 .8 1 .8-.3.9.2 1.4c.5.4 1.3.2 1.3.2s.3 1.2 1 1.2 1.1-.5 1.1-.5.5 1.1 1.6.4c1.1-.7.4-2.6.4-2.6l.1-4.1-3.9-2.8z"/><path id="XMLID_117_" class="st19" d="M105.6 57.7s-1.3 1.6-.4 3.5c.8 1.9 3.2 1.9 3.2 1.9l.3-3.9-3.1-1.5z"/><path id="XMLID_116_" class="st14" d="M106.6 58.2s-.7 1.1-.1 2.3c.6 1.3 1.9 1.3 1.9 1.3l.3-2.6-2.1-1z"/><path id="XMLID_115_" class="st20" d="M108.9 58.9s-1.2.9-2.8.1c-1.5-.8-1.2-3.5-1.2-3.5s.9 1.5 2.4 1.7 2.4 1 2.5 1.2c.1.2 0 2.5-.2 3.3s.1 2.3.1 2.3-1.1.2-1.8-.9c-.5-.9-.6-2.8 1-4.2z"/></g><g id="XMLID_107_"><path id="XMLID_113_" class="st17" d="M134.9 57s2.1-.1 2.4-.8c.4-.9-.6-2.5-.6-2.5s-1.4.1-2 .9c-.6.9.2 2.4.2 2.4z"/><path id="XMLID_112_" class="st17" d="M130.6 64.6s.9.9.5 2-1.8 1.3-1.8 1.3-1.2-.9-.6-2.2 1.9-1.1 1.9-1.1z"/><path id="XMLID_111_" class="st18" d="M133.7 56.2s.9-.5 1.8.1.5 1.8.5 1.8 1 .2 1 1.3c0 1-1 1.5-1 1.5s.9.5.5 1.3-1 .8-1 .8.3.9-.2 1.4c-.5.4-1.3.2-1.3.2s-.3 1.2-1 1.2-1.1-.5-1.1-.5-.5 1.1-1.6.4c-1.1-.7-.4-2.6-.4-2.6l-.1-4.1 3.9-2.8z"/><path id="XMLID_110_" class="st19" d="M133.2 57.7s1.3 1.6.4 3.5c-.8 1.9-3.2 1.9-3.2 1.9l-.3-3.9 3.1-1.5z"/><path id="XMLID_109_" class="st14" d="M132.2 58.2s.7 1.1.1 2.3c-.6 1.3-1.9 1.3-1.9 1.3l-.3-2.6 2.1-1z"/><path id="XMLID_108_" class="st20" d="M129.9 58.9s1.2.9 2.8.1c1.5-.8 1.2-3.5 1.2-3.5s-.9 1.5-2.4 1.7c-1.5.2-2.4 1-2.5 1.2-.1.2 0 2.5.2 3.3.2.8-.1 2.3-.1 2.3s1.1.2 1.8-.9c.5-.9.6-2.8-1-4.2z"/></g><g id="XMLID_85_"><g id="XMLID_99_"><path id="XMLID_106_" class="st24" d="M119.1 44.5s-3.8-3-5.1-2.3c-1.3.7-5.4 3.2-5.6 4.2-.2 1 .3 6.8 1.5 8.4 1.2 1.6 3.3 1.3 3.3 1.3s-1.3 5.8 2.5 7.8c3.9 2.1 4.2 1.4 4.2 1.4s5.4-1.4 6.2-4.5c.9-3-1-5.2-1-5.2s4.8-.4 5.8-3.7c1-3.3-.5-8-.5-8s-4.9-2-7.2-1.5c-2.1.7-4.1 2.1-4.1 2.1z"/><circle id="XMLID_105_" class="st14" cx="111.9" cy="52.4" r="1.4"/><circle id="XMLID_104_" class="st14" cx="126.6" cy="52.2" r="1.4"/><circle id="XMLID_103_" class="st14" cx="119.5" cy="62.3" r="1.4"/><circle id="XMLID_102_" class="st14" cx="122.3" cy="58.4" r="1.4"/><circle id="XMLID_101_" class="st14" cx="116.4" cy="58.3" r="1.4"/><circle id="XMLID_100_" class="st14" cx="119.1" cy="54.5" r="1.4"/></g><path id="XMLID_98_" class="st14" d="M119.1 45.3s-.4-2.8-3.1-3.5c-2.7-.7-5.6 1.9-5.6 1.9s-.5.1-.5-.2 0-1.1-1.4-1c-1.4.2-2.6 1.9-.7 3.6s4.9-1.8 4.9-1.8 1.3-1.6 3.2-1.2c1.9.4 3 2.8 3 2.8l.2-.6z"/><path id="XMLID_97_" class="st14" d="M119.1 45.3s-.4-1.5 1.6-2.7 4.6-.8 5.9-.2 1.2.1 1.3-.6c.1-.6 1-1.8 2.2-1.4s1.7 2.3.9 3.3c-.8 1-1.7 1.8-3.7 1.1-1.8-.6-3.5-1.9-5.1-1.4s-2.4.8-3 2.3l-.1-.4z"/><path id="XMLID_96_" class="st14" d="M125.1 55.7s2.6-.2 4-1.4c1.4-1.1 1.4-4.2 1-5.2-.4-1-1.2-2.7-.7-3.6s1.7-1.8 2.6-1.4c.8.4 1.5.7 1.8 1.6.3.9-.8 1.7-1.1 1.6-.3-.1-.4.7-.3 1.1.2.3.6 3.2-1 4.9-1.6 1.8-3.2 2.8-6.1 2.6l-.2-.2z"/><path id="XMLID_95_" class="st14" d="M125.1 55.9s1.3 1.5.6 3.3c-.7 1.9-2.3 2.5-3.1 3-.8.5-2.6 1.8-2.5 3.1s.5 1.9 1.3 2.3c.8.4 1.8.2 2.3-.8s.1-1.9-.1-2.1c-.2-.2-.1-.6.4-1s2.8-2.3 3.1-4.4c.3-2.1-1.8-3.5-1.8-3.5l-.2.1z"/><path id="XMLID_94_" class="st14" d="M113.4 55.8s-1 2.8.4 5.5 4.4 1.9 5.2 2.6c.9.7 1.1 1.5.9 2.3-.2.8-1.3 2-2.7 1.6s-1.7-1.7-1.4-1.8c.6-.3.4-.6.1-.8-.2-.2-2.9-1.5-3.6-3.5-.8-2 .8-5.6.8-5.6l.3-.3z"/><path id="XMLID_93_" class="st14" d="M113.4 55.8s-2.2.6-3.2-1.1 0-4.5-.6-6.2-2.3-3.2-3.7-2.5-1.6 1.7-1.5 2.3.9 1.4 1.3 1.5c.4.1 1 .2 1.2 0 .1-.2.4 0 .5.4 0 .4 0 4.1 1.8 5.6 1.9 1.5 4 .2 4 .2l.2-.2z"/><path id="XMLID_92_" class="st29" d="M119 51.6s-.8-1.9-2.1-2.4c-1.3-.6-4.1-.4-4.1-.4s.7 2.2 2.8 3c2.1.8 3.2.2 3.2.2l.2-.4z"/><path id="XMLID_91_" class="st29" d="M118.9 52.7s-.8 2.3-2.4 3.3c-1.7 1-3.6.2-3.6.2s.5-2 2.1-3 3.8-.9 3.8-.9l.1.4z"/><path id="XMLID_90_" class="st29" d="M119.3 53s1.6 1.4 1.5 3.1-1.6 4.1-1.6 4.1-1.5-1.4-1.6-3c-.1-1.6 1.3-4.2 1.3-4.2h.4z"/><path id="XMLID_89_" class="st29" d="M126 56.1s-2.4.4-4-.8c-1.6-1.2-2.4-2.6-2.4-2.6l.3-.4s2.1-.5 3.6.2c1.6.9 2.5 3.6 2.5 3.6z"/><path id="XMLID_88_" class="st29" d="M119.4 51.8s-1.6-1.7-1.7-2.6c-.4-1.9 1.5-3.8 1.5-3.8s1.7 1.9 1.7 3.4c0 1.4-1 3.1-1 3.1l-.5-.1z"/><path id="XMLID_87_" class="st29" d="M119.8 52.3s2.5-.2 4.1-1.2c1.6-1.1 2.3-3.1 2.3-3.1s-2.7-.6-4 .3c-1.2.9-2.4 3.6-2.4 3.6v.4z"/><circle id="XMLID_86_" class="st23" cx="119.5" cy="52.5" r="1.1"/></g></g></g></g></g><path id="XMLID_79_" class="st14" d="M80 70.2h76.9c.7 0 1.2.6 1.2 1.2 0 .7-.6 1.2-1.2 1.2H80c-.7 0-1.2-.6-1.2-1.2s.5-1.2 1.2-1.2z"/><path id="XMLID_78_" class="st14" d="M80 67.7h76.9c.7 0 1.2.6 1.2 1.2 0 .7-.6 1.2-1.2 1.2H80c-.7 0-1.2-.6-1.2-1.2s.5-1.2 1.2-1.2z"/></g><g id="XMLID_67_"><path id="XMLID_76_" class="st13" d="M644.7 34.5s3 .3 6.8 7.3c3.7 6.7 3 9.9 3 9.9s-3.2-.2-7.3-7.8c-4.2-7.8-2.5-9.4-2.5-9.4z"/><path id="XMLID_75_" class="st13" d="M649.9 24s2.5.2 5.6 6c3.1 5.6 2.5 8.2 2.5 8.2s-2.6-.2-6-6.4c-3.5-6.4-2.1-7.8-2.1-7.8z"/><path id="XMLID_74_" class="st13" d="M654.9 18.9s2.2.2 5.1 5.5c2.8 5.1 2.2 7.4 2.2 7.4s-2.4-.1-5.5-5.8c-3.1-5.9-1.8-7.1-1.8-7.1z"/><path id="XMLID_73_" class="st13" d="M659.8 13.6s1.9.2 4.4 4.7c2.4 4.3 1.9 6.3 1.9 6.3s-2.1-.1-4.8-5c-2.6-5-1.5-6-1.5-6z"/><path id="XMLID_72_" class="st30" d="M653.9 50.6s2.8-14.3 16.1-31"/><path id="XMLID_71_" class="st17" d="M674.2 37s-1.6-1.9-8.1-1.3c-6.3.6-8.1 2.5-8.1 2.5s1.6 2.1 8.7 1.4c7.2-.6 7.5-2.6 7.5-2.6z"/><path id="XMLID_70_" class="st17" d="M676.7 27.8s-1.7-1.4-7.5.3c-5.5 1.7-6.8 3.7-6.8 3.7s1.8 1.6 8-.3c6.4-1.9 6.3-3.7 6.3-3.7z"/><path id="XMLID_69_" class="st17" d="M677.2 12.5s.4 1.9-3.3 5.6c-3.5 3.5-5.6 3.6-5.6 3.6s-.5-2 3.5-6c4.1-4 5.4-3.2 5.4-3.2z"/><path id="XMLID_68_" class="st26" d="M644.5 73h2.4V53h-1.6c-.5 0-.4-.3-.4-.8v-1.6c0-.5.1-.6.6-.6h12.7c.5 0 .7.2.7.7v1.5c0 .5 0 .9-.6.9h-1.4v20h1.8c3.3 0 6.2 1.8 6.2 5.1V97c0 1.1-1.1 2.9-2.2 2.9h-21.2c-1.3-.1-2.6-1.8-2.6-2.9V78.1c0-3.3 2.2-5.1 5.6-5.1z"/></g><g id="XMLID_54_"><path id="XMLID_66_" class="st11" d="M184.2 8h13.1v92h-13.1z"/><path id="XMLID_65_" class="st31" d="M171.1 13.5h13.1v86.3h-13.1z"/><path id="XMLID_64_" class="st18" d="M171.1 83.7h13.1v16.2h-13.1z"/><path id="XMLID_63_" class="st8" d="M184.2 90.9h13.1v2.3h-13.1z"/><path id="XMLID_62_" class="st32" d="M171.1 88.4h13.1v2.3h-13.1z"/><path id="XMLID_61_" class="st32" d="M171.1 81.6h13.1v2.3h-13.1z"/><path id="XMLID_60_" class="st32" d="M171.1 37.9h13.1v2.3h-13.1z"/><path id="XMLID_59_" class="st12" d="M187.3 29.6h6.7v50.3h-6.7z"/><path id="XMLID_58_" class="st3" d="M158.2 23.6h13.1v76.3h-13.1z"/><path id="XMLID_57_" class="st22" d="M158.2 90.9h13.1v2.3h-13.1z"/><path id="XMLID_56_" class="st22" d="M158.2 86.3h13.1v2.3h-13.1z"/><path id="XMLID_55_" class="st22" d="M158.2 32.7h13.1V35h-13.1z"/></g><g id="XMLID_3_"><path id="XMLID_53_" class="st3" d="M304.2 30h260v70h-260z"/><path id="XMLID_52_" class="st4" d="M306.2 32h256v66h-256z"/><path id="XMLID_51_" class="st5" d="M311.2 37h246v56h-246z"/><path id="XMLID_50_" class="st33" d="M314.2 40h240v50h-240z"/><path id="XMLID_42_" class="st5" d="M540.2 40v.7h2.1c-.5.2-.9.7-.9 1.3 0 1 1 1.4 1.4 1.4.7 0 1-.3 1-1 0-.8-.7-1-1.1-1-.2 0-.3.1-.4.3 0 .2.1.3.3.4 0 0 .5 0 .5.4 0 .3-.1.3-.4.3-.1 0-.7-.2-.7-.8 0-.6.7-1 1.2-1s1.1.4 1.3.6l1.3 1h-.1c-.5.2-.8.6-.8 1.1 0 .4.2.6.3.7.5.4 1.2.2 1.3.2.2 0 .3-.2.3-.4s-.2-.3-.4-.3-.6.1-.8-.1c0 0-.1-.1-.1-.2 0-.3.2-.4.4-.5.3-.1.6-.1.7.1.4.4.5.6.4 1.7 0 .8.2 1.5.7 2 .4.4.9.6 1.5.6.4 0 .6-.1.8-.2.2.6.7.9 1.2.9.6 0 1-.4 1-1 0-.5-.4-.7-.8-.8-.2 0-.3.1-.4.3 0 .2.1.3.3.4.1 0 .2.1.2.1 0 .2-.1.4-.4.4-.3 0-.6-.3-.6-.7 0-.4.4-.9.8-.9.5 0 1.8.2 1.8 2.3 0 2-1.3 2.3-1.8 2.3-.3 0-.8-.4-.8-.9 0-.4.4-.7.6-.7.3 0 .4.2.4.4 0 0-.1.1-.2.1-.2 0-.3.2-.3.4s.2.3.4.3c.4 0 .8-.3.8-.8 0-.6-.5-1-1-1-.6 0-1.3.6-1.3 1.4 0 .8.7 1.5 1.4 1.5s1.4-.3 1.9-.9v1.2h.7V40h-13.7zm13.3 3.5c-.2-.5-.6-.9-1.2-1.1.1-.2.1-.4.1-.7 0-.4-.4-1.1-1.2-1.1h2.2v2.9zm-7.2-2c0 .1 0 .3.1.6l-1.4-1c-.1-.1-.3-.2-.7-.4h2.3c-.2.2-.3.5-.3.8zm.6 0c0-.3.2-.5.7-.5.3 0 .4.3.4.5 0 .1 0 .3-.3.3-.2 0-.3.2-.3.3s.2.3.3.3c.5 0 .9-.4.9-1 0-.3-.1-.6-.3-.8h2.6c-.6 0-.9.5-1.1.9-.1.1-.1.2-.2.3-.3.4-.7.9-1.7.9-.6 0-1-1-1-1.2zm3.1 5.2c-.1.1-.3.2-.5.2-.4 0-.7-.1-1-.4-.4-.4-.6-.9-.5-1.5v-1l1.4 1c-.1 0-.1 0-.2.1-.7.3-.6.8-.6.9.1.4.5.8.8.8.2 0 .3-.1.3-.3s-.1-.3-.3-.3c-.1 0-.2-.1-.2-.2s.1-.2.2-.2c.4-.2.7.1.7.2.1.1.1.5-.1.7zm1.6-1.4c-.8 0-1.1-.3-1.1-.3l-2.4-1.7c1.3-.1 1.8-.8 2.1-1.1.1-.1.2-.3.2-.4.2-.4.3-.6.6-.6.5 0 .7.4.7.5 0 .4-.1.5-.3.5-.4 0-.5-.1-.6-.2-.1-.1-.3-.2-.5 0-.1.1-.2.3-.1.5 0 0 .1.1.3.2-.2.2-.3.5-.3.8 0 .4.3.8.7 1 .3.2.7.2 1 .1.2-.1.2-.3.2-.4-.1-.2-.3-.2-.4-.2-.1.1-.2 0-.4 0-.2-.1-.3-.4-.4-.5 0-.1 0-.2.1-.3.1-.1.3-.2.5-.2.7 0 1.2.5 1.2 1.1.2.7-.3 1.2-1.1 1.2zm1.2.3c.3-.2.5-.5.7-.9v1.5c-.2-.2-.4-.4-.7-.6z"/><path id="XMLID_34_" class="st5" d="M314.2 40v11.5h.7v-1.2c.5.6 1.2.9 1.9.9s1.4-.8 1.4-1.5c0-.8-.7-1.4-1.3-1.4-.6 0-1 .4-1 1 0 .5.4.7.8.8.2 0 .3-.1.4-.3 0-.2-.1-.3-.3-.4-.1 0-.2-.1-.2-.1 0-.2.1-.4.4-.4.3 0 .6.3.6.7 0 .4-.4.9-.8.9-.5 0-1.8-.2-1.8-2.3 0-2 1.3-2.3 1.8-2.3.3 0 .8.4.8.9 0 .4-.4.7-.6.7-.3 0-.4-.2-.4-.4 0 0 .1-.1.2-.1.2 0 .3-.2.3-.4s-.2-.3-.4-.3c-.4 0-.8.3-.8.8 0 .6.5 1 1 1s1-.4 1.2-.9c.2.1.4.2.8.2.6 0 1.1-.2 1.5-.6.5-.5.7-1.2.7-2 0-1.1.1-1.3.4-1.7.1-.1.5-.2.7-.1.2.1.4.2.4.5 0 .1 0 .2-.1.2-.2.1-.6.1-.8.1-.2 0-.3.1-.4.3 0 .2.1.3.3.4.1 0 .9.2 1.3-.2.1-.1.3-.3.3-.7 0-.5-.3-.9-.8-1.1h-.1l1.3-1c.2-.2.8-.6 1.3-.6.6 0 1.2.4 1.2 1s-.6.8-.7.8c-.3 0-.4 0-.4-.3 0-.4.4-.4.5-.4.2 0 .3-.2.3-.4s-.2-.3-.4-.3c-.4 0-1.1.3-1.1 1s.4 1 1 1c.4 0 1.4-.4 1.4-1.4 0-.6-.4-1.1-.9-1.3h2.1V40h-13.7zm.7.7h2.2c-.8 0-1.2.6-1.2 1.1 0 .3 0 .5.1.7-.5.2-1 .6-1.2 1.1v-2.9zm6.8 0h2.3c-.4.2-.6.4-.7.4l-1.4 1c.1-.2.1-.4.1-.6.1-.3 0-.6-.3-.8zm-1.3 2c-1 0-1.4-.4-1.7-.9-.1-.1-.1-.2-.2-.3-.2-.4-.4-.9-1.1-.9h2.6c-.2.2-.3.5-.3.8 0 .6.4 1 .9 1 .2 0 .3-.1.3-.3s-.1-.3-.3-.3c-.2 0-.3-.2-.3-.3 0-.2.1-.5.4-.5.5 0 .7.2.7.5 0 .2-.3 1.2-1 1.2zm-2.2 3.2c.1-.1.3-.4.7-.2.1 0 .2.1.2.2s-.2.2-.2.2c-.2 0-.3.1-.3.3s.2.3.3.3c.4 0 .8-.4.8-.8 0-.1.1-.6-.6-.9-.1 0-.1 0-.2-.1l1.4-1v1c0 .6-.2 1.2-.5 1.5-.3.3-.6.4-1 .4-.2 0-.4-.1-.5-.2-.1-.1-.1-.5-.1-.7zm-2.8-1.9c0-.6.6-1.1 1.2-1.1.2 0 .3.1.5.2.1.1.2.2.1.3 0 .2-.2.4-.4.5-.1.1-.2.1-.4 0s-.4 0-.4.2c-.1.2 0 .4.2.4.3.1.7.1 1-.1.4-.2.6-.6.7-1 0-.3-.1-.6-.3-.8.2-.1.3-.2.3-.2.1-.1.1-.3-.1-.5-.1-.1-.3-.1-.5 0 0 0-.2.2-.6.2-.2 0-.3 0-.3-.5 0-.1.2-.5.7-.5.3 0 .4.2.6.6.1.1.1.3.2.4.3.4.8 1.1 2.1 1.1l-2.4 1.7s-.3.3-1.1.3c-.6.1-1.1-.4-1.1-1.2zm-.5 2.2v-1.5c.1.4.4.7.7.9-.3.2-.6.4-.7.6z"/><path id="XMLID_26_" class="st5" d="M554.2 90V78.5h-.7v1.2c-.5-.6-1.2-.9-1.9-.9s-1.4.8-1.4 1.5c0 .8.7 1.4 1.3 1.4.6 0 1-.4 1-1 0-.5-.4-.7-.8-.8-.2 0-.3.1-.4.3 0 .2.1.3.3.4.1 0 .2.1.2.1 0 .2-.1.4-.4.4-.3 0-.6-.3-.6-.7 0-.4.4-.9.8-.9.5 0 1.8.2 1.8 2.3 0 2-1.3 2.3-1.8 2.3-.3 0-.8-.4-.8-.9 0-.4.4-.7.6-.7.3 0 .4.2.4.4 0 0-.1.1-.2.1-.2 0-.3.2-.3.4s.2.3.4.3c.4 0 .8-.3.8-.8 0-.6-.5-1-1-1s-1 .4-1.2.9c-.2-.1-.4-.2-.8-.2-.6 0-1.1.2-1.5.6-.5.5-.7 1.2-.7 2 0 1.1-.1 1.3-.4 1.7-.1.1-.5.2-.7.1-.2-.1-.4-.2-.4-.5 0-.1 0-.2.1-.2.2-.1.6-.1.8-.1.2 0 .3-.1.4-.3 0-.2-.1-.3-.3-.4-.1 0-.9-.2-1.3.2-.1.1-.3.3-.3.7 0 .5.3.9.8 1.1h.1l-1.3 1c-.2.2-.8.6-1.3.6-.6 0-1.2-.4-1.2-1s.6-.8.7-.8c.3 0 .4 0 .4.3 0 .4-.4.4-.5.4-.2 0-.3.2-.3.4s.2.3.4.3c.4 0 1.1-.3 1.1-1s-.4-1-1-1c-.4 0-1.4.4-1.4 1.4 0 .6.4 1.1.9 1.3h-2.1v.6h13.7zm-.7-.7h-2.2c.8 0 1.2-.6 1.2-1.1 0-.3 0-.5-.1-.7.5-.2 1-.6 1.2-1.1v2.9zm-6.8 0h-2.3c.4-.2.6-.4.7-.4l1.4-1c-.1.2-.1.4-.1.6-.1.3 0 .6.3.8zm1.3-2c1 0 1.4.4 1.7.9.1.1.1.2.2.3.2.4.4.9 1.1.9h-2.6c.2-.2.3-.5.3-.8 0-.6-.4-1-.9-1-.2 0-.3.1-.3.3 0 .2.1.3.3.3.2 0 .3.2.3.3 0 .2-.1.5-.4.5-.5 0-.7-.2-.7-.5-.1-.3.3-1.2 1-1.2zm2.2-3.2c-.1.1-.3.4-.7.2-.1 0-.2-.1-.2-.2s.2-.2.2-.2c.2 0 .3-.1.3-.3 0-.2-.2-.3-.3-.3-.4 0-.8.4-.8.8 0 .1-.1.6.6.9.1 0 .1 0 .2.1l-1.4 1v-1c0-.6.2-1.2.5-1.5.3-.3.6-.4 1-.4.2 0 .4.1.5.2.1.1.1.5.1.7zm2.7 1.9c0 .6-.6 1.1-1.2 1.1-.2 0-.3-.1-.5-.2-.1-.1-.2-.2-.1-.3 0-.2.2-.4.4-.5.1-.1.2-.1.4 0s.4 0 .4-.2c.1-.2 0-.4-.2-.4-.3-.1-.7-.1-1 .1-.4.2-.6.6-.7 1 0 .3.1.6.3.8-.2.1-.3.2-.3.2-.1.1-.1.3.1.5.1.1.3.1.5 0 0 0 .2-.2.6-.2.2 0 .3 0 .3.5 0 .1-.2.5-.7.5-.3 0-.4-.2-.6-.6-.1-.1-.1-.3-.2-.4-.3-.4-.8-1.1-2.1-1.1l2.4-1.7s.3-.3 1.1-.3c.6-.2 1.1.3 1.1 1.2zm.6-2.2v1.5c-.1-.4-.4-.7-.7-.9.3-.2.5-.4.7-.6z"/><path id="XMLID_18_" class="st5" d="M328.2 90v-.7H326c.5-.2.9-.7.9-1.3 0-1-1-1.4-1.4-1.4-.7 0-1 .3-1 1 0 .8.7 1 1.1 1 .2 0 .3-.1.4-.3 0-.2-.1-.3-.3-.4 0 0-.5 0-.5-.4 0-.3.1-.3.4-.3.1 0 .7.2.7.8 0 .6-.7 1-1.2 1s-1.1-.4-1.3-.6l-1.3-1h.1c.5-.2.8-.6.8-1.1 0-.4-.2-.6-.3-.7-.5-.4-1.2-.2-1.3-.2-.2 0-.3.2-.3.4s.2.3.4.3.6-.1.8.1c0 0 .1.1.1.2 0 .3-.2.4-.4.5-.3.1-.6.1-.7-.1-.4-.4-.5-.6-.4-1.7 0-.8-.2-1.5-.7-2-.4-.4-.9-.6-1.5-.6-.4 0-.6.1-.8.2-.2-.6-.7-.9-1.2-.9-.6 0-1 .4-1 1 0 .5.4.7.8.8.2 0 .3-.1.4-.3 0-.2-.1-.3-.3-.4-.1 0-.2-.1-.2-.1 0-.2.1-.4.4-.4.3 0 .6.3.6.7 0 .4-.4.9-.8.9-.5 0-1.8-.2-1.8-2.3 0-2 1.3-2.3 1.8-2.3.3 0 .8.4.8.9 0 .4-.4.7-.6.7-.3 0-.4-.2-.4-.4 0 0 .1-.1.2-.1.2 0 .3-.2.3-.4s-.2-.3-.4-.3c-.4 0-.8.3-.8.8 0 .6.5 1 1 1 .6 0 1.3-.6 1.3-1.4 0-.8-.7-1.5-1.4-1.5s-1.4.3-1.9.9v-1.2h-.7V90h13.8zm-13.3-3.5c.2.5.6.9 1.2 1.1-.1.2-.1.4-.1.7 0 .4.4 1.1 1.2 1.1H315v-2.9zm7.2 1.9c0-.1 0-.3-.1-.6l1.4 1c.1.1.3.2.7.4h-2.3c.2-.1.3-.4.3-.8zm-.7.1c0 .3-.2.5-.7.5-.3 0-.4-.3-.4-.5 0-.1 0-.3.3-.3.2 0 .3-.2.3-.3 0-.2-.2-.3-.3-.3-.5 0-.9.4-.9 1 0 .3.1.6.3.8h-2.6c.6 0 .9-.5 1.1-.9.1-.1.1-.2.2-.3.3-.4.7-.9 1.7-.9.7 0 1 .9 1 1.2zm-3-5.2c.1-.1.3-.2.5-.2.4 0 .7.1 1 .4.4.4.6.9.5 1.5v1l-1.4-1c.1 0 .1 0 .2-.1.7-.3.6-.8.6-.9-.1-.4-.5-.8-.8-.8-.2 0-.3.1-.3.3 0 .2.1.3.3.3.1 0 .2.1.2.2s-.1.2-.2.2c-.4.2-.7-.1-.7-.2-.1-.1-.1-.5.1-.7zm-1.7 1.3c.8 0 1.1.3 1.1.3l2.4 1.7c-1.3.1-1.8.8-2.1 1.1-.1.1-.2.3-.2.4-.2.4-.3.6-.6.6-.5 0-.7-.4-.7-.5 0-.4.1-.5.3-.5.4 0 .5.1.6.2.1.1.3.2.5 0 .1-.1.2-.3.1-.5 0 0-.1-.1-.3-.2.2-.2.3-.5.3-.8 0-.4-.3-.8-.7-1-.3-.2-.7-.2-1-.1-.2.1-.2.3-.2.4.1.2.3.2.4.2.1-.1.2 0 .4 0 .2.1.3.4.4.5 0 .1 0 .2-.1.3-.1.1-.3.2-.5.2-.7 0-1.2-.5-1.2-1.1-.2-.7.3-1.2 1.1-1.2zm-1.2-.3c-.3.2-.5.5-.7.9v-1.5c.2.3.5.5.7.6z"/><path id="XMLID_17_" class="st7" d="M314.2 40h240v1h-240z"/><path id="XMLID_15_" class="st34" d="M554.2 90l10 10h-260l10-10z"/><path id="XMLID_13_" class="st35" d="M554.2 40l10-10h-260l10 10z"/><g id="XMLID_7_"><path id="XMLID_10_" class="st5" d="M398.9 80.6c2.4-1 4.5.3 6.4 1.8 1.9 1.5 3.2 2 3.2 2s2.1.7 3.4-.8c.8-.9.5-1.9.2-2.5 0 .4-.4.8-.9.8s-.9-.4-.9-.9.4-.9.9-.9c.1 0 .3 0 .4.1v-.1c1.5.1 3 4.2-.7 5.3-3.7 1-5.9-1.9-7.5-3.2-1.6-1.3-4.8-1.5-5.5.4-.4 1.2.1 1.9.5 2.3v-.1c0-.5.4-.9.9-.9s.9.4.9.9-.4.9-.9.9c-.2 0-.3-.1-.5-.2-2.1-.9-2.3-3.8.1-4.9z"/><path id="XMLID_9_" class="st5" d="M429.4 80.6c-2.4-1-4.5.3-6.4 1.8-1.9 1.5-3.2 2-3.2 2s-2.1.7-3.4-.8c-.8-.9-.5-1.9-.2-2.5 0 .4.4.8.9.8s.9-.4.9-.9-.4-.9-.9-.9c-.1 0-.3 0-.4.1v-.1c-1.5.1-3 4.2.7 5.3 3.7 1 5.9-1.9 7.5-3.2 1.6-1.3 4.8-1.5 5.5.4.4 1.2-.1 1.9-.5 2.3v-.1c0-.5-.4-.9-.9-.9s-.9.4-.9.9.4.9.9.9c.2 0 .3-.1.5-.2 2.1-.9 2.4-3.8-.1-4.9z"/><circle id="XMLID_8_" class="st5" cx="414.2" cy="86.1" r="1.2"/></g><g id="XMLID_4_"><text id="XMLID_1025_" transform="translate(346.915 72.516)" class="st36 st37 st38">Sabas que...</text></g></g></g></svg>