<svg version="1.1" id="IMG_x5F_01" xmlns="http://www.w3.org/2000/svg" xmlns:xlink="http://www.w3.org/1999/xlink" x="0px" y="0px" width="273px" height="273px" viewBox="0 0 273 273" xml:space="preserve"><style type="text/css">.st0{fill:#F7ADB4;} .st1{clip-path:url(#XMLID_45_);} .st2{fill:#F498A1;} .st3{fill:#3BAFDA;} .st4{fill:#4FC1EA;} .st5{fill:#C37752;} .st6{fill:#482D21;} .st7{fill:#5C4439;} .st8{fill:#DD8D58;} .st9{fill:#E7E9EE;} .st10{fill:#6D4233;} .st11{fill:#FFCE54;} .st12{fill:#DF6864;}</style><g id="XMLID_2494_"><circle id="XMLID_2495_" class="st0" cx="136.4" cy="136.4" r="136.4"/><g id="XMLID_2496_"><defs><circle id="XMLID_6_" cx="136.4" cy="136.4" r="136.4"/></defs><clipPath id="XMLID_45_"><use xlink:href="#XMLID_6_" overflow="visible"/></clipPath><g id="XMLID_2497_" class="st1"><path id="XMLID_3131_" transform="rotate(45.001 219.694 53.505)" class="st2" d="M69.4 44H370v19H69.4z"/><path id="XMLID_3130_" transform="rotate(45.001 52.855 220.348)" class="st2" d="M-97.5 210.8h300.6v19H-97.5z"/><path id="XMLID_3129_" transform="rotate(45.001 80.661 192.54)" class="st2" d="M-69.6 183H231v19H-69.6z"/><path id="XMLID_3128_" transform="rotate(45.001 108.468 164.734)" class="st2" d="M-41.8 155.2h300.6v19H-41.8z"/><path id="XMLID_3127_" transform="rotate(45.001 136.275 136.926)" class="st2" d="M-14 127.4h300.6v19H-14z"/><path id="XMLID_3126_" transform="rotate(45.001 164.081 109.12)" class="st2" d="M13.8 99.6h300.6v19H13.8z"/><path id="XMLID_3125_" transform="rotate(45.001 191.888 81.312)" class="st2" d="M41.6 71.8h300.6v19H41.6z"/></g><g id="XMLID_2498_" class="st1"><g id="XMLID_2499_"><path id="XMLID_3123_" class="st3" d="M159.4 200.2l-39.3-6.7s2.8-47.3 22.2-48.6c17.2-1.1 25.8 19.2 17.1 55.3z"/><path id="XMLID_3122_" class="st4" d="M204.5 148l9.3 13.1L202.3 278s-27.5-2.9-84.7-12.2l12.3-93.5c2-21.1 12.5-27.2 12.5-27.2l29.9-2.5 32.2 5.4z"/><path id="XMLID_3121_" class="st3" d="M153.9 144.1s0 15 15.1 15.9c14.2.8 18.8-14.8 18.8-14.8l-16.1-2-17.8.9z"/><path id="XMLID_2500_" class="st5" d="M180.8 122.4c11.2-10.6 14.9-31.3 10.8-47.7-5.8-23-22.9-30.5-44.6-24.2-33.3 9.7-39.5 15.7-28.2 51.6.4 1.4 1.1 1.9 3.4 7.1-1.1 7.4-1.3 7.8-.7 9.9.7 2.4 2.6 2.7 5 2 .2 0 .3-.1.5-.2 4.6 8.5 10.8 16.8 17.6 18 2.9.5 7.7-1 12.9-3.4l.7 8.5s-.7 12.8 12.4 12c9.4-.6 12.3-11.4 12.3-11.4l-5.2-20.2c2-1.3 3.2-2.1 3.1-2z"/><path id="XMLID_3114_" d="M138.4 95.3c.9 2.9.2 5.7-1.7 6.3-1.8.6-4.1-1.3-5-4.1-.9-2.9 2.4 3.2 4.2 2.6 1.9-.6 1.6-7.6 2.5-4.8z"/><path id="XMLID_3113_" class="st6" d="M123.5 85.3s4.4-2.4 8.3-3.1c2.8-.5 7.2-.1 7.2-.1l-.5 4.1s-3 .6-6 .9c-3 .4-7 2.7-7 2.7l-2-4.5z"/><path id="XMLID_818_" class="st7" d="M195.8 51.2c10.1 22.5 3.2 51.3-10.4 67.7-.3.3-5-1-7.1-5.7-1.4-3.2-.6-10.7-.8-10.8-6.3-2.6-10.4-7.3-10.4-7.3l-3.4 1s-4.5-11.5-5.5-14.9c-1-3.4-7-12.7-10.6-14.3-1.9-.8-6.3-1.6-10-2-1.8-.2-3.6.1-5.2.9-6.2 3.2-15.8 11-18.1 11.6-1.8.5 12.8-26.3 36.6-34.1 16.5-5.6 44.3 6.7 44.9 7.9z"/><path id="XMLID_586_" class="st6" d="M175.9 50.8c-16.3.5-36.2 14.3-38.5 14-1.8-.2-3.6.1-5.2.9-6.2 3.2-15.8 11-18.1 11.6-3.1.8-12.8-3.2-11.2-17.8 1-8.8 20.6-33.7 58.5-29.1 10.4 1.3 21.6 4.9 29.5 12.5 0 0 5.6 6.7 7.3 15.5.2.1-7.7-8.1-22.3-7.6z"/><path id="XMLID_585_" class="st5" d="M166.9 95.8c-.7 6.2.4 10.4 4.5 10.9s11.6-4 12.3-10.2c.7-6.2-2-11.6-6.1-12.1s-10 5.2-10.7 11.4z"/><circle id="XMLID_2501_" class="st5" cx="131.2" cy="127.5" r="2.6"/><circle id="XMLID_2502_" class="st5" cx="134.3" cy="131.2" r="2.6"/></g><g id="XMLID_2503_"><path id="XMLID_540_" class="st8" d="M80.6 186c-3.8-7.3-3.1-16.3 4.9-18.3 16.3-4.2 32.2-.6 39.1 2.9 6.8 3.4 18.9 20.3 25.7 36.6 6.8 16.4 11.6 54.3 11.6 54.3s-49.9 2-51.3-.4c-1.3-2.3 10.1-12.3-3.8-34.4-13.3-21.1-18.7-26.3-26.2-40.7z"/><path id="XMLID_2504_" class="st5" d="M208 242.3s-45.1 2.6-72.2 2.7l-10.3-8.7-11.7-8.1-1 1.5.5 2.7 4.5 7.1-6.2.8-2.4.9-.1 4.1 1.5 1-1.5 2-.5 3.4 1.8 1.2-1.8 1.4-.3 3.9 2.2 1.1 15.5.7 6-3.6.1-.1 70.4 8 5.5-22z"/><path id="XMLID_2505_" class="st8" d="M126.8 117.7c.6-1.8-.5-3.8-2.4-4.2-1.3-.3-2.5-.6-4.4-.9-2.8-6.5-7.6-17.4-11.4-21.5-12.5-13.4-41.9-25.7-54.2-12.6-12 12.8-30.6 47.8 27.2 75.6l2.5-.1-5 21.6 18.7-3.5 4.7-19.1c8.5-1.4 14.5-2.9 16.9-7.5 1.9-3.7 7.8-11.4 4.1-23 1.8-1.4 2.5-2.5 3.3-4.8z"/><path id="XMLID_537_" class="st5" d="M88.9 206.2l-4.9-5.4s1.7-3.1 5.2-1.2c3.5 2-.3 6.6-.3 6.6z"/><path id="XMLID_311_" d="M106.5 106.2c1.2 2.7.8 5.4-.8 6.1-1.6.7-3.9-.8-5.1-3.5-1.2-2.7 2.6 2.1 4.2 1.4 1.6-.6.5-6.6 1.7-4z"/><path id="XMLID_310_" class="st9" d="M100.6 185c1.1-2.2 1.6-7.1 3.9-10.9 2.7-4.6 7.9-7.6 9.2-7.5 3.9.3 7.7 1.4 11.8 3.8 2.7 1.6 5.6 5.4 9.5 10.4 1.2 1.5-12.1-19.9-24.2-6.7-2.1 2.2-3.2 11.2-1.6 14.7 13 28.2 38.5 11.9 41.2 18.5 6.8 16.4 10.4 37.3 10.4 37.3s-18.7-4.6-35.1-8.1c-10.5-2.3-17.4 9.9-18 9-.8-1.3-2.1-3-1-5.6.5-1.1 5.6-1 3.8-4.7-1.3-2.7-3-5.8-5.1-9.4-7.2-12.1-12.1-19-16.7-26-1.2-1.8 5-1.7 7.3-4.1 3-3.2 3.1-7.9 4.6-10.7z"/><path id="XMLID_2506_" class="st8" d="M177.5 165.8l10.7-24.1-1.6-2.1-2.2 1.2 1.2-2.8-2.4-2.9-7.3 8 3.5-20.6-3.1-.6-9.3 29.8-.1-15.4-2.4-.2-2.1 20.4s2.3 6.6 3.8 11.4l3.8 44-27.7-25.9.2-.1s-12.4-18-24.2-12.5c-11.8 5.5 6.2 24.5 6.2 24.5l.2-.1c.1.2.1.5.2.7l48 33 .2-.1c3.3 1.3 15.7 4.8 15.7-13.8l-11.3-51.8z"/><path id="XMLID_308_" class="st5" d="M219.4 264.7c-1.5.5-17.5-.6-17.5-.6-2.7-25.4-12.2-93.1-12.2-93.1l30.6 8.6 3.2 74.3-.8 8.2-3.3 2.6z"/><path id="XMLID_307_" class="st3" d="M225 211.1l-32.2 2.3s-12.1-65.6 7.3-66c20.4-.4 22.4 38.7 24.9 63.7z"/><path id="XMLID_102_" class="st5" d="M100.6 217.6l3.5-12.1 3.8-7.6-.2-1.8-1.9-1.1-1.5 1.6-3.5 5.4-3.7 10 3.4-11.7 3.6-7v-2l-1.6-1.7-1.6.7-4.3 7.6-2.8 8.5 2.3-9.1 3.5-7.2-.4-2.2-1.9-1.1-.8 1.2-4.3 6.5-2.5 6.7s-2.6 5.2.3 10.8c2.9 5.6 8.4 12.6 8.4 12.6l11.3 8.7-9.1-15.7z"/><path id="XMLID_2507_" class="st10" d="M70 116.1c3.7-.9.7-46.9-2.9-44.2-9.5-.8-35.3 6-37.5 37.2-1.9 26.6 35.4 48 54.6 44.9 1.2-.2-9.8-26.6-10.3-28.7-1.9-7.7-12.6-7.2-3.9-9.2z"/><path id="XMLID_100_" class="st10" d="M103.5 91.1S93.2 94.9 92 96.3 89.7 99 89.7 99s2.1-5.8 3.7-6.6c1.6-.9 9.9-4.7 9.9-4.7l.2 3.4z"/><path id="XMLID_2508_" class="st11" d="M108.5 259.9s-10.7 4.6-13.7 23.8l78.2 1.1s-2.8-12.9-4.6-17.2c-.7-1.8-5.6-7.1-5.6-7.1l-54.3-.6z"/><path id="XMLID_2509_" d="M53.5 74.3s3.2-4.8 15.1-5.9c15.9-1.4 37.2 8.8 37.9 17.9.7 9-24.1 19.9-49.6 52.6l-3.4-64.6z"/><path id="XMLID_2510_" d="M53.5 74.3s-11.2-.6-19 6.7C8 105.8 22.7 167.2 22.7 167.2s16.6 16 54.6 4.2c5.8-1.8 8.4-4.3 9.1-7.7 2.1-10.2-13.6-28.3-17.3-58.6-4.9-40.3-15.6-30.8-15.6-30.8z"/><path id="XMLID_27_" class="st8" d="M80.4 125c0-4.9-4.5-8.8-10-8.7-5.5 0-8 2.5-8 7.4s2.6 10.2 8.1 10.2c5.5-.1 9.9-4.1 9.9-8.9z"/><circle id="XMLID_2511_" class="st12" cx="124.4" cy="135.1" r="2.1"/><circle id="XMLID_2512_" class="st12" cx="124.9" cy="131.2" r="2.1"/><path id="XMLID_2513_" class="st12" d="M124.5 129.1l-5.6 2.9 4.2 4.7 1.8-7.6"/></g></g></g></g></svg>