<svg version="1.1" id="IMG_x5F_01" xmlns="http://www.w3.org/2000/svg" xmlns:xlink="http://www.w3.org/1999/xlink" x="0px" y="0px" width="274px" height="274px" viewBox="0 0 274 274" xml:space="preserve"><style type="text/css">.st0{fill:#F7ADB4;} .st1{clip-path:url(#XMLID_18_);} .st2{fill:#F498A1;} .st3{fill:#3BAFDA;} .st4{fill:#16A0D3;} .st5{fill:#B7BBC4;} .st6{fill:#F6F7FA;} .st7{fill:#E1996A;} .st8{fill:#2E2E2B;} .st9{fill:#482D21;} .st10{fill:#DA8249;} .st11{fill:none;stroke:#DA8249;stroke-width:2;stroke-linecap:round;stroke-miterlimit:10;} .st12{fill:#F9B500;} .st13{fill:#FFFFFF;} .st14{fill:#F7E4C3;} .st15{fill:#FFDC00;} .st16{opacity:0.54;fill:#F6A500;} .st17{fill:#333333;} .st18{fill:#451A00;} .st19{fill:#C38256;} .st20{fill:#4B89DC;} .st21{fill:#3867A5;} .st22{fill:#6FA1E3;} .st23{fill:#B16F43;} .st24{fill:#DC4453;} .st25{fill:#1A1A1A;} .st26{fill:#42281C;} .st27{fill:#977BDC;} .st28{fill:#AC6841;} .st29{fill:#434A54;} .st30{clip-path:url(#XMLID_20_);} .st31{fill-rule:evenodd;clip-rule:evenodd;fill:#565C65;} .st32{fill-rule:evenodd;clip-rule:evenodd;fill:#AD92ED;} .st33{fill-rule:evenodd;clip-rule:evenodd;fill:#00A380;} .st34{fill-rule:evenodd;clip-rule:evenodd;fill:#C2AB94;} .st35{fill:#49CFAE;} .st36{fill:#A86037;} .st37{fill:#B06F4A;} .st38{fill:#6FD9BF;} .st39{fill:#4D4246;} .st40{fill:#A1D469;} .st41{fill:#D79266;} .st42{fill:#543924;} .st43{fill:#DE7663;} .st44{fill:#D1814E;} .st45{fill:#CE1F33;}</style><g id="XMLID_1889_"><circle id="XMLID_1890_" class="st0" cx="136.4" cy="136.4" r="136.4"/><g id="XMLID_1891_"><defs><circle id="XMLID_6_" cx="136.4" cy="136.4" r="136.4"/></defs><clipPath id="XMLID_18_"><use xlink:href="#XMLID_6_" overflow="visible"/></clipPath><g id="XMLID_1892_" class="st1"><path id="XMLID_3028_" transform="rotate(45.001 219.694 53.505)" class="st2" d="M69.4 44H370v19H69.4z"/><path id="XMLID_3027_" transform="rotate(45.001 52.855 220.348)" class="st2" d="M-97.5 210.8h300.6v19H-97.5z"/><path id="XMLID_3026_" transform="rotate(45.001 80.661 192.54)" class="st2" d="M-69.6 183H231v19H-69.6z"/><path id="XMLID_3025_" transform="rotate(45.001 108.468 164.734)" class="st2" d="M-41.8 155.2h300.6v19H-41.8z"/><path id="XMLID_3024_" transform="rotate(45.001 136.275 136.926)" class="st2" d="M-14 127.4h300.6v19H-14z"/><path id="XMLID_3023_" transform="rotate(45.001 164.081 109.12)" class="st2" d="M13.8 99.6h300.6v19H13.8z"/><path id="XMLID_3022_" transform="rotate(45.001 191.888 81.312)" class="st2" d="M41.6 71.8h300.6v19H41.6z"/></g><g id="XMLID_1893_" class="st1"><g id="XMLID_1894_"><path id="XMLID_1895_" class="st3" d="M143.6 274.7c-2.9-40-5.7-78.7-5.7-78.7 0-3.6-56.7-11.9-57-7.4l2.9 77.6 21.7 7.3 4-44.2c.9-5.2 2.4-7 3.9-1.5l9.3 47.5c-.1 0 20.9-.1 20.9-.6z"/><path id="XMLID_3017_" class="st4" d="M139.1 212.3h-.2c-2.5.2-6.6-4.6-8.8-5.3-1.9-.5-2.2 1.9-2.8-.6-.4-1.7-.5-3.3-.6-4.1 4.1-.2 7.8-.5 10.9-1-.1-.6-.2-1.3-.4-1.9-1.6.2-25 1.3-25 1.3v.1c-.6 0-14.8-.3-20-.7-.5 0-5.4-.4-6.9-.5-.2.6-.4 1.2-.6 1.7 1.6.1 3.6.3 6 .5 0 .6 0 1.3-.1 2.1-.2 2.6-1 5.4-2.3 6.2-1.5 1-3.7 1.6-5.6 1.8-.3 0-.6.1-.9.1l.2 1.5c2.1-.2 5-.8 7.2-2.2 2.1-1.5 2.7-4.5 3-7.2.1-.8.1-1.6.1-2.2 3.7.2 8.2.5 12.8.6 0 .8 0 1.9.1 3.2.1 3 .5 6.9 1.2 9.9 1.5 5.8 5 7.6 5.1 7.6l.8.4 1-21c4.1 0 8.1-.1 11.8-.2 0 .9.2 2.6.6 4.5.7 2.6.9.8 3.8 1.6 2.7.7 7.1 5.5 9.7 5.3 0-.5-.1-1-.1-1.5zm-27.9 9.3c-1-.8-2.8-2.7-3.7-6.3-.7-2.8-1.1-6.7-1.2-9.6-.1-1.2-.1-2.3-.1-3.1 1.5 0 3 .1 4.5.1h1.4l-.9 18.9z"/><path id="XMLID_1896_" class="st5" d="M123.5 254.2s-.1 0-.1.1-.1.1-.1.2l.2-.3z"/><path id="XMLID_1899_" class="st6" d="M141.4 202.7c.6-11.5-2.8-42.3-2.1-49l-1.1-21.6 7.7-18.8c-1.6-1.9-3.2-3.1-4.9-3.7-7.8-4.9-25.6-9.3-38.1-8.8-13.3.6-24.6 2.9-31 9.6-1 .9-2.1 2-3.3 3.3l-17.9 33.9c5.1 2.5 12.4 4.8 18 6.3l8-16.5c.1.7.2 63.3.5 66.2 1.3 3.2 63.1.7 64.2-.9z"/><path id="XMLID_1900_" class="st7" d="M78.2 190.6L60 168.2l6.1-14.6-14.9-5.7c-3.1 8.5-5.7 15.7-5.7 15.7-2.7 8 5.3 15 8.6 18.9 5.8 7 18.9 17.9 22.7 21.1 1.4 1.1 5.8 1.5 5.8 1.5.8-.1 1.1-5.1 1-6.8l-5.4-7.7z"/><path id="XMLID_3013_" class="st7" d="M124.4 66.1c-1.8 4.1-1.8 7.3 1 8.5 2.8 1.2 8.8-.5 10.6-4.6 1.8-4.1.9-8.4-1.8-9.6-2.9-1.2-8.1 1.6-9.8 5.7z"/><path id="XMLID_1901_" class="st7" d="M130.1 67.6c-.6-32.1-4-33.7-29-33.7-16.3 0-20 15-19.4 32.1.4 12.2 6.5 24 16.3 29.1-.5-.1 4.1 2.9 8.8 3.1 3.5.1 10.1-4.2 10.1-4.2 6.2-4.9 13.4-14.4 13.2-26.4z"/><path id="XMLID_3011_" class="st7" d="M88.5 68c1.8 4.1 1.8 7.3-1 8.5-2.8 1.2-8.8-.5-10.6-4.6-1.8-4.1-.9-8.4 1.8-9.6 2.8-1.2 8 1.5 9.8 5.7z"/><path id="XMLID_3010_" class="st8" d="M93.4 66.2c-.1 2.2 1 4 2.4 4s2.6-1.7 2.6-3.9c.1-2.2-1-4-2.4-4-1.3 0-2.5 1.8-2.6 3.9z"/><path id="XMLID_3009_" class="st8" d="M116.1 65.8c-.1 2.2 1 4 2.4 4s2.6-1.7 2.6-3.9c.1-2.2-1-4-2.4-4-1.3 0-2.5 1.7-2.6 3.9z"/><path id="XMLID_3008_" class="st9" d="M101.4 53.7s-3.6-.2-6.4.5c-2 .5-4.7 2.1-4.7 2.1l1.6 2.5s2.1-.5 4.2-1.2 5.4-.4 5.4-.4l-.1-3.5z"/><path id="XMLID_3007_" class="st9" d="M112.8 53.1s3.6-.2 6.4.6c1.9.6 4.7 2.2 4.7 2.2l-1.6 2.5s-2.1-.6-4.2-1.3c-2.1-.7-5.4-.4-5.4-.4l.1-3.6z"/><path id="XMLID_1902_" class="st10" d="M105.5 75.9c0-.4.8-.7 1.7-.7.9 0 1.7.3 1.7.7s-3.4.3-3.4 0z"/><path id="XMLID_1903_" class="st9" d="M133.8 44.8c-.4-2.6-2.8-6.5-4.8-9.4.1-.3.2-.6.2-.8 0-9.7-5.2-6.4-12.7-12.6.3 1.5.9 2.8 1 4.2-2.3-1.6-4-6.4-5.3-8.9-.1.2-2.7 3.3-2.7 3.5-3.1-2.8-3.1-6.5-4.4-9.9-2.5 2-2.2 6.3-3.5 8.9-1.3-2.3-2.6-4.4-4.1-6.6-1.7 3-3.4 6.7-5.1 9.6-.7-.6-1.9-1.1-2.4-1.9-1 6.3-4.1 6.5-4.1 13.1 0 .2.1.5.2.8-2.4 3-5.9 7.7-6.4 10.8-.7 4.8-.9 16.8-.9 16.8C81.6 61.2 83 68 83 68h2.6s-.7-7-.7-9.5c0-2.6-.7-10.6 1.5-12.5 1.5-1.2 5.8-3.1 8.4-4.2 1.6.5 3.3 1.1 4.8 1.6 2.8 1 5.6 2.2 8.3 3 3.7 1.1 10.7-2.7 14.9-3.7 1.9.9 3.7 1.8 4.6 2.6 2.2 1.8 1.5 9.9 1.5 12.5 0 2.6-.7 9.5-.7 9.5h2.6s.2-8 3-6.7c-.3-.2.8-11.1 0-15.8z"/><path id="XMLID_1904_" class="st7" d="M99.1 94.5v9.5s2.3 4.6 7.6 4.6 8.9-4.2 8.9-4.2V92.8l-16.5 1.7z"/><path id="XMLID_3003_" class="st7" d="M82.5 197.7l13.6 9.3 3.6 11.5-2.8.5-5.9-9.2-9.1 5.9-6.3-14.3c-.1 0 3.6-6.1 6.9-3.7z"/><path id="XMLID_3002_" class="st7" d="M152.1 166.9l-6.6-14.8 15.4-4c1 1.5 6.2 15.9 6.1 15.9 1.8 8.2-14.9 2.9-14.9 2.9z"/><path id="XMLID_3001_" class="st6" d="M132.3 128.3l10.2 25.3 19.6-5.2-16.3-35.1z"/><path id="XMLID_3000_" class="st11" d="M100.4 83.4s5.1 4.5 12.2.5"/><g id="XMLID_1905_"><path id="XMLID_1906_" class="st12" d="M111.2 149.3H103v-2.9h8.2c1.7 0 3.1-1.4 3.1-3.2v-10.5c0-1.8-1.4-3.2-3.1-3.2h-7.6v-2.9h7.6c3.3 0 6 2.7 6 6.1v10.5c0 3.3-2.7 6.1-6 6.1z"/><circle id="XMLID_1907_" class="st13" cx="85.2" cy="123.5" r="4.4"/><ellipse id="XMLID_1908_" class="st13" cx="91.2" cy="120.9" rx="6" ry="5"/><circle id="XMLID_1909_" class="st13" cx="104.5" cy="123.7" r="3.4"/><ellipse id="XMLID_1910_" class="st13" cx="96.3" cy="122.2" rx="3.6" ry="3.7"/><circle id="XMLID_1911_" class="st13" cx="101.3" cy="121.6" r="3.4"/><path id="XMLID_1912_" class="st12" d="M108 124.3v29.2c0 2.5-2 4.4-4.4 4.4H85.3c-2.4 0-4.4-2-4.4-4.4v-29.2H108z"/><path id="XMLID_1913_" class="st14" d="M106.6 152.7v1c0 1.7-1.8 3.2-4 3.2H86.2c-2.2 0-4-1.4-4-3.2v-1h24.4z"/><path id="XMLID_1914_" class="st14" d="M85.7 131.6h1.4v17h-1.4z"/><path id="XMLID_1915_" class="st14" d="M93.5 131.6h1.4v17h-1.4z"/><path id="XMLID_1916_" class="st14" d="M101.4 131.6h1.4v17h-1.4z"/><path id="XMLID_1917_" class="st15" d="M80.8 124.1H108v3.5H80.8z"/><path id="XMLID_1918_" class="st12" d="M90.9 118c2.9 0 5.2 2 5.3 4.6.1-.3.2-.7.2-1 0-2.4-2.3-4.3-5.1-4.3-2.3 0-4.2 1.3-4.9 3 .8-1.3 2.5-2.3 4.5-2.3z"/><path id="XMLID_1919_" class="st16" d="M82.2 151.7h24.3v.9H82.2z"/></g><path id="XMLID_2984_" class="st7" d="M126.9 144.6c-.5-.4-3.2-8.1-3.2-8.1l-6.3-8.3-1.2 1 1.5 4.9-6.4-3-.5 2.4 1.8 2-2-.2-.6 2.7 2.1 1.5-2.1-.2-.1 2.6 2 1.3-2 .2-.2 2.8 12.2 4.5 5-6.1z"/><path id="XMLID_1920_" class="st7" d="M167 164s.2 7.4-2.3 9.7-11.6 2.1-11.6 2.1l-31.4-24.9 5.1-6.2L167 164z"/></g><g id="XMLID_1921_"><g id="XMLID_1922_"><path id="XMLID_2981_" class="st17" d="M56.8 145l29.3 41.9-8.1 9.3L56.4 161z"/><path id="XMLID_1923_" class="st18" d="M36.7 67.1c1.5.2 15.9-9.2 29.4 15 7.5 13.5 4 31.6-6.1 49.6 0 0-9.3 16.1-15.7 16.1-23.8 0-34.7-27-34.7-27-7.5-13.3-6.5-58 27.1-53.7z"/><path id="XMLID_1924_" d="M47.1 139.1l-21.9 1.3 4.5 13.6h18z"/><path id="XMLID_2978_" class="st19" d="M42.2 145.8L38 115.7l-10 .1 2.5 28.8 7.1 9.2z"/><path id="XMLID_2977_" class="st19" d="M46.4 144.3s2.5 7.8-3.6 10.2c-13 5.2-18.7-9-17.5-9.2 1.5-.3 10.1-2 10.1-2l11 1z"/><g id="XMLID_1925_"><defs><path id="XMLID_1926_" d="M14.5 165.6l-9.6-8.1 7.9-9.5c.5-.6 1.2-1 1.9-1.2l10.8-1.8s5.2 6.1 13.8 5.9 7.5-7.3 7.5-7.3l7.2 1.1c1 .1 3.2 19.8 3.2 19.8l-.7 38.9-35.6 1.1-4.8-40.7-1.6 1.8z"/></defs><use xlink:href="#XMLID_1926_" overflow="visible" fill="#CEBEF4"/><clipPath id="XMLID_19_"><use xlink:href="#XMLID_1926_" overflow="visible"/></clipPath></g><path id="XMLID_1927_" class="st20" d="M13 216.9l7.4-14.1 36.2.3s5.1 10.3 7.1 16.9c1.9 6.2-1.4 11.1.4 29.7.1.8-1.6 1.3-4 1.7-2.4.3-47.4-33.2-47.1-34.5z"/><path id="XMLID_1928_" class="st21" d="M40 205.7l.3 15.1-3 3.4v-18.6l-1.5.2.2 22.2 6-6.5-.5-15.9z"/><path id="XMLID_1929_" class="st21" d="M58.3 206.5l-39.8.1.9-.9 38.7-.3z"/><path id="XMLID_1930_" class="st17" d="M46.9 143.7l-2.2 6.9s6.2 46.8 6.9 54.3c.9 9.9 5.3 27.2 5.3 27.2s7.8-2.5 9-12.7l-7.1-55-2-19.4-9.9-1.3z"/><path id="XMLID_1931_" class="st22" d="M55.9 252.4l-.9-6.1 9.3-.2.2 5.7s-1.2 1.4-8.6.6z"/><path id="XMLID_1932_" class="st17" d="M27.6 144.2l-14 2.8-12 14 4 16.3 10.5-11.8c.9 8 1.7 16.7 1.5 21.8-.1 3.2-2.1 8.2-4.7 13.6-.3.7 5.6 5.6 5.6 5.6s9-14.5 11.2-21.1c2-5.9 4.6-34.5 4.6-34.5l-6.7-6.7z"/><path id="XMLID_1933_" class="st17" d="M34.3 150.8l-9.2-10.3-3.2 4.6 4.3 12.4z"/><path id="XMLID_2967_" class="st18" d="M55.7 88c-.7-1.6 34.9 47 18.2 70-13.6 18.7-11.5 25.3-8.5 35.8 2.6 9.1-20-23.6-22.8-39.2-2.8-15.6-2.2-37.6 2.1-47.6 4.4-10.1 13.4-13.8 11-19z"/><path id="XMLID_1934_" class="st19" d="M23.3 94.2c5.9-6.1 15.6-9.2 16.1-9.2 15.6 0 16.3-.7 24.4 14.8.4.8.9 1.3 1.5 1.7v.3c1.4 15.4-8.4 32.7-22.1 34-18.1 1.6-28.1-11-29.4-24.6 0-1 .2-10.1 9.5-17z"/><ellipse id="XMLID_2965_" transform="rotate(174.867 29.382 110.615) scale(1.00001)" cx="29.4" cy="110.6" rx="2.3" ry="3.6"/><ellipse id="XMLID_2964_" transform="matrix(-.996 .08907 -.08907 -.996 122.248 209.782)" cx="56.4" cy="107.6" rx="2.3" ry="3.6"/><path id="XMLID_2963_" class="st23" d="M42 116.1c0 .4 3.9.3 3.9-.1s-.9-.8-2-.7c-1.1 0-1.9.4-1.9.8z"/><path id="XMLID_1935_" class="st18" d="M50.1 97.4l.3 3s5.3-1.7 7.1-1.7c3.2.1 6.2 1.1 6.2 1.1l-1-3s-2.8-1.1-5.6-1.2c-1.5 0-7 1.8-7 1.8z"/><path id="XMLID_1936_" class="st18" d="M34.8 97.4l-.3 3s-5.3-1.7-7.1-1.7c-3.2.1-6.2 1.1-6.2 1.1l1-3s2.8-1.1 5.6-1.2c1.5 0 7 1.8 7 1.8z"/><path id="XMLID_2960_" class="st24" d="M44.8 129.9c-4.4.1-7.5-2.1-8.7-7l15.8-.3s-1.4 7.2-7.1 7.3z"/><path id="XMLID_2959_" class="st13" d="M36.2 122.9c1.9 2 5 2.9 8.9 2.8 3.2 0 5.2-1.2 6.5-2.5l.2-.6-15.6.3z"/><path id="XMLID_2958_" class="st19" d="M18.5 112.6c2 4.2 2.3 7.5-.6 8.9-2.8 1.4-9.2 0-11.3-4.3-2-4.2-1.4-8.8 1.4-10.1 2.9-1.3 8.5 1.3 10.5 5.5z"/><path id="XMLID_1937_" class="st18" d="M37.2 80.9s4.6 13.2 15.7 18.4c11.1 5.2 11.4 16.3 8 24.6s17.8-16.9 10.7-31-32.8-28.9-34.4-12z"/><path id="XMLID_2956_" class="st19" d="M75.7 193.7l-17.8-19.6 4-3.4 23.4 16.5c0 .1-2.5 8.5-9.6 6.5z"/><path id="XMLID_2955_" class="st17" d="M70.2 187.4l5.9 7.7s6.4 3.5 9.7-1.7c3.3-5.2-.3-7.4-.3-7.4l-10.3-5.5-5 6.9z"/><path id="XMLID_2954_" class="st25" d="M72.8 177.4l-5.2 8.2 3.6 7 9.4-13.1z"/><g id="XMLID_1938_"><path id="XMLID_1939_" class="st12" d="M44.1 174.8H36V172h8.1c1.7 0 3.1-1.4 3.1-3.2v-10.4c0-1.8-1.4-3.2-3.1-3.2h-7.6v-2.9h7.6c3.3 0 6 2.7 6 6.1v10.4c0 3.3-2.7 6-6 6z"/><circle id="XMLID_1940_" class="st13" cx="18.3" cy="149.3" r="4.4"/><ellipse id="XMLID_1941_" class="st13" cx="24.2" cy="146.6" rx="5.9" ry="5"/><circle id="XMLID_1942_" class="st13" cx="37.4" cy="149.4" r="3.4"/><ellipse id="XMLID_1943_" class="st13" cx="29.3" cy="147.9" rx="3.6" ry="3.6"/><circle id="XMLID_1944_" class="st13" cx="34.3" cy="147.3" r="3.4"/><path id="XMLID_1945_" class="st12" d="M40.9 150v29c0 2.4-2 4.4-4.4 4.4H18.3c-2.4 0-4.4-2-4.4-4.4v-29h27z"/><path id="XMLID_1946_" class="st14" d="M39.5 178.2v.9c0 1.7-1.8 3.1-4 3.1H19.2c-2.2 0-4-1.4-4-3.1v-.9h24.3z"/><path id="XMLID_1947_" class="st14" d="M18.7 157.2h1.4v16.9h-1.4z"/><path id="XMLID_1948_" class="st14" d="M26.5 157.2h1.4v16.9h-1.4z"/><path id="XMLID_1949_" class="st14" d="M34.3 157.2h1.4v16.9h-1.4z"/><path id="XMLID_1950_" class="st15" d="M13.8 149.8h27v3.4h-27z"/><path id="XMLID_1951_" class="st12" d="M23.9 143.8c2.8 0 5.2 2 5.2 4.5.1-.3.2-.7.2-1 0-2.3-2.3-4.2-5.1-4.2-2.3 0-4.2 1.3-4.8 3 .9-1.4 2.6-2.3 4.5-2.3z"/><path id="XMLID_1952_" class="st16" d="M15.3 177.3h24.2v.9H15.3z"/></g><path id="XMLID_2938_" class="st19" d="M62.7 171.4c-.6-.4-3.9-9.8-3.9-9.8l-9.3-8.8-1.2 1.1 6.1 7.4-8.6-4.7-1.1.1-.2 2.5.6 1.3h-2.2l-.4 2.3 1.6 1.4-2.8-.2v1.7l17.9 9.8 3.5-4.1z"/></g></g><g id="XMLID_1953_"><path id="XMLID_2935_" class="st26" d="M191.8 36.6c-2.8 7.9-13.3 17-20.2 15.9-6.9-1.1-9.3-14.5-8.1-21.9 1.1-7.4 8.3-9.1 15.1-8 6.9 1.1 15.7 7 13.2 14z"/><path id="XMLID_2934_" class="st27" d="M160.9 52.2c.6-1.4 1.8-10.3 3.9-11.5 11.2-6.3 24.6 1.3 24.6 1.3s.2 7.9-.7 11.1c-.9 3.2-26.5-2.8-28.3-2.7"/><path id="XMLID_1954_" class="st26" d="M183.1 106.1c5.4-3.2 2.1.4 7-3.5 8-7 16.2-28.8 15.5-31.7-3.3-14.6-19.4-21.3-25.4-21.7-11.5-.7-15 33.4-6.8 60.8 5.7-2.1 4.5-.8 9.7-3.9z"/><path id="XMLID_2932_" class="st28" d="M176.6 232.9l-2.3 37.5 17-1 5.3-31.9c-.1 0-16.1-14.5-20-4.6z"/><path id="XMLID_2931_" class="st28" d="M135.9 276.7l16.2-55.6s25.7-5.1 25.1 4.7l-23 49.6-18.3 1.3z"/><g id="XMLID_1955_"><path id="XMLID_1956_" class="st29" d="M206 265.8s-36.7.6-75.5-8c-1-.2 19.1-49.3 20.2-51.6 1.5-3 33.5-5.5 47 2 1 .7 8.3 52.7 8.3 57.6z"/></g><g id="XMLID_1957_"><defs><path id="XMLID_1981_" d="M206 265.8s-36.7.6-75.5-8c-1-.2 19.1-49.3 20.2-51.6 1.5-3 33.5-5.5 47 2 1 .7 8.3 52.7 8.3 57.6z"/></defs><clipPath id="XMLID_20_"><use xlink:href="#XMLID_1981_" overflow="visible"/></clipPath><g id="XMLID_1958_" class="st30"><g id="XMLID_1959_"><path id="XMLID_2926_" class="st31" d="M148.6 209.3c.4 0 .6.4.6.8s-.4.6-.8.6l.2-1.4zm-1.2 2.7l1.7.2c.4 0 .6.4.6.8s-.4.6-.8.6l-2-.2.5-1.4z"/><path id="XMLID_2925_" class="st31" d="M146.6 214.9l1.6.2c.4 0 .6.4.6.8s-.4.6-.8.6c-.6-.1-1.3-.1-1.9-.2l.5-1.4z"/></g><path id="XMLID_2923_" class="st31" d="M162.5 207.8l3.3.4c.4 0 .6.4.6.8s-.4.6-.8.6l-3.3-.4c-.4 0-.6-.4-.6-.8s.4-.6.8-.6z"/><path id="XMLID_2922_" class="st31" d="M159.3 210.2l4.7.5c.4 0 .6.4.6.8s-.4.6-.8.6l-1.4-.2c-.3 0-.6.3-.7.6 0 .4.2.7.6.8l.8.1.7.1c.4 0 .6.4.6.8s-.4.6-.8.6l-4.3-.5-.8-.1c-.4 0-.7.2-.8.6 0 .3.2.6.5.7l6.3.7c.4 0 .6.4.6.8s-.4.6-.8.6l-10.8-1.2c-.4 0-.6-.4-.6-.8s.4-.6.8-.6l2.3.3c.3 0 .6-.3.6-.6 0-.4-.2-.7-.6-.8l-.8-.1-2.5-.3c-.4 0-.6-.4-.6-.8s.4-.6.8-.6l6.1.7.8.1c.4 0 .7-.2.8-.6 0-.3-.2-.7-.5-.7l-1-.1c-.4 0-.6-.4-.6-.8.1-.3.5-.6.8-.6z"/><g id="XMLID_1960_"><path id="XMLID_2921_" class="st32" d="M149.5 205.6l3-.8c1.2-.3 1.4.1.4.8l-2.6 1.7c-1 .7-2-1.4-.8-1.7z"/><path id="XMLID_2920_" class="st32" d="M150.9 208.2l2.2-2.2c.9-.9 1.3-.6.7.5l-1.4 2.8c-.4 1.2-2.3-.2-1.5-1.1z"/><path id="XMLID_2919_" class="st32" d="M153.5 209.8l.9-3c.3-1.2.8-1.2.9.1l.2 3.1c0 1.2-2.3.9-2-.2z"/><path id="XMLID_2918_" class="st32" d="M156.5 209.8l-.8-3c-.3-1.2.1-1.4.8-.4l1.7 2.6c.8 1.1-1.4 2-1.7.8z"/><path id="XMLID_2917_" class="st32" d="M159.2 208.4l-2.2-2.2c-.9-.9-.6-1.3.5-.7l2.8 1.4c1.1.4-.3 2.3-1.1 1.5z"/><path id="XMLID_2916_" class="st32" d="M160.7 205.8l-3-.9c-1.2-.3-1.2-.8.1-.9l3.1-.2c1.2 0 1 2.3-.2 2z"/></g><g id="XMLID_1961_"><path id="XMLID_2914_" class="st33" d="M174.5 207.9l-.8 2.8c-.3 1.1-.8 1.1-.9-.1l-.2-2.9c0-1.2 2.2-.9 1.9.2z"/><path id="XMLID_2913_" class="st33" d="M171.7 207.8l.7 2.8c.3 1.2-.1 1.3-.8.3l-1.6-2.5c-.6-.8 1.4-1.7 1.7-.6z"/><path id="XMLID_2912_" class="st33" d="M169.2 209.2l2 2.1c.8.9.6 1.2-.5.7l-2.6-1.3c-1-.5.3-2.3 1.1-1.5z"/><path id="XMLID_2911_" class="st33" d="M167.7 211.6l2.8.8c1.1.3 1.1.8-.1.9l-2.9.2c-1.1 0-.8-2.2.2-1.9z"/><path id="XMLID_2910_" class="st33" d="M167.7 214.5l2.8-.7c1.2-.3 1.3.1.3.8l-2.5 1.6c-.8.6-1.7-1.5-.6-1.7z"/><path id="XMLID_2909_" class="st33" d="M169.1 216.9l2.1-2c.9-.8 1.2-.6.7.5l-1.3 2.6c-.6 1-2.4-.3-1.5-1.1z"/><path id="XMLID_2908_" class="st33" d="M171.5 218.4l.8-2.8c.3-1.1.8-1.1.9.1l.2 2.9c0 1.1-2.2.9-1.9-.2z"/><path id="XMLID_2907_" class="st33" d="M174.3 218.5l-.7-2.8c-.3-1.2.1-1.3.8-.3l1.6 2.5c.6.8-1.4 1.7-1.7.6z"/><path id="XMLID_2906_" class="st33" d="M176.8 217.1l-2-2.1c-.8-.9-.6-1.2.5-.7l2.6 1.3c1 .5-.3 2.3-1.1 1.5z"/><path id="XMLID_2905_" class="st33" d="M178.3 214.7l-2.8-.8c-1.1-.3-1.1-.8.1-.9l2.9-.2c1.1 0 .9 2.2-.2 1.9z"/><path id="XMLID_2904_" class="st33" d="M178.3 211.8l-2.8.7c-1.2.3-1.3-.1-.3-.8l2.5-1.6c.8-.6 1.7 1.5.6 1.7z"/><path id="XMLID_2903_" class="st33" d="M177 209.3l-2.1 2c-.9.8-1.2.6-.7-.5l1.3-2.6c.5-1 2.3.4 1.5 1.1z"/></g><path id="XMLID_2899_" class="st31" d="M180.8 211.6c-.4 0-.6-.4-.6-.8s.4-.6.8-.6c1.8.2 3.1.3 5.3.6.4 0 .6.4.6.8s-.4.6-.8.6h-.1c-.9-.1-1.1 1.2-.2 1.4l1.9.2c.4 0 .6.4.6.8s-.4.6-.8.6c-1.5-.2-2.1-.2-3.6-.4-.4 0-.7.2-.8.6 0 .3.2.7.5.7l4.5.5c.4 0 .6.4.6.8s-.4.6-.8.6l-7.2-.8c-.4 0-.6-.4-.6-.8s.4-.6.8-.6h.4c.3 0 .6-.3.7-.6 0-.4-.2-.7-.6-.8-.5-.1.3 0-.2 0-.4 0-.6-.4-.6-.8s.4-.6.8-.6l2 .2c.9.1 1-1.3.1-1.4-.6 0-2.1-.2-2.7-.2zm3.8-2.4c-1.9-.2-3.6-.4-5.6-.6-.4 0-.6-.4-.6-.8s.4-.6.8-.6l5.6.6c.4 0 .6.4.6.8s-.4.6-.8.6z"/><path id="XMLID_2898_" class="st31" d="M198.4 214.6l4.7.5c.4 0 .6.4.6.8s-.4.6-.8.6l-1.4-.2c-.3 0-.6.3-.7.6 0 .4.2.7.6.8l.8.1.7.1c.4 0 .6.4.6.8s-.4.6-.8.6l-4.3-.5-.8-.1c-.4 0-.7.2-.8.6 0 .3.2.6.5.7l6.3.7c.4 0 .6.4.6.8s-.4.6-.8.6l-10.8-1.2c-.4 0-.6-.4-.6-.8s.4-.6.8-.6l2.3.3c.3 0 .6-.3.6-.6 0-.4-.2-.7-.6-.8l-.8-.1-2.3-.3c-.4 0-.6-.4-.6-.8s.4-.6.8-.6l6.1.7.8.1c.4 0 .7-.2.8-.6 0-.3-.2-.7-.5-.7l-1-.1c-.4 0-.6-.4-.6-.8-.1-.4.3-.7.6-.6z"/><g id="XMLID_1962_"><path id="XMLID_2897_" class="st33" d="M192.8 202.9l.8 3c.3 1.2-.1 1.4-.8.4l-1.7-2.6c-.7-1 1.4-2 1.7-.8z"/><path id="XMLID_2896_" class="st33" d="M190.2 204.3l2.2 2.2c.9.9.6 1.3-.5.7l-2.8-1.4c-1.1-.4.3-2.3 1.1-1.5z"/><path id="XMLID_2895_" class="st33" d="M188.6 206.9l3 .9c1.2.3 1.2.8-.1.9l-3.1.2c-1.2 0-.9-2.3.2-2z"/><path id="XMLID_2894_" class="st33" d="M188.6 209.9l3-.8c1.2-.3 1.4.1.4.8l-2.6 1.7c-1 .8-2-1.4-.8-1.7z"/><path id="XMLID_2893_" class="st33" d="M190 212.6l2.2-2.2c.9-.9 1.3-.6.7.5l-1.4 2.8c-.4 1.1-2.3-.3-1.5-1.1z"/><path id="XMLID_2892_" class="st33" d="M192.6 214.1l.9-3c.3-1.2.8-1.2.9.1l.2 3.1c0 1.2-2.3 1-2-.2z"/><path id="XMLID_2891_" class="st33" d="M195.6 214.2l-.8-3c-.3-1.2.1-1.4.8-.4l1.7 2.6c.8 1-1.4 2-1.7.8z"/><path id="XMLID_2890_" class="st33" d="M198.3 212.7l-2.2-2.2c-.9-.9-.6-1.3.5-.7l2.8 1.4c1.1.5-.3 2.4-1.1 1.5z"/><path id="XMLID_2889_" class="st33" d="M199.8 210.1l-3-.9c-1.2-.3-1.2-.8.1-.9l3.1-.2c1.2 0 1 2.4-.2 2z"/><path id="XMLID_2888_" class="st33" d="M199.9 207.1l-3 .8c-1.2.3-1.4-.1-.4-.8l2.6-1.7c1-.7 2 1.4.8 1.7z"/></g><g id="XMLID_1963_"><path id="XMLID_2886_" class="st34" d="M194.3 207.5c.6.1 1 .6 1 1.2-.1.6-.6 1-1.2 1-.6-.1-1-.6-1-1.2.1-.7.7-1.1 1.2-1z"/></g><g id="XMLID_1964_"><path id="XMLID_2884_" class="st31" d="M137.9 236.3l6.2.7c.4 0 .6.4.6.8s-.4.6-.8.6l-1.9-.2c-.3 0-.6.3-.6.6 0 .4.2.7.6.8 1.1.1-.6-.1.5.1.4 0 .6.4.6.8s-.4.6-.8.6l-6.1-.7.5-1.3c.9.1 1.9.2 2.8.3.4 0 .7-.2.8-.6 0-.3-.2-.6-.5-.7l-2.4-.3.5-1.5z"/><path id="XMLID_2883_" class="st31" d="M139.7 228.2l3.1.4c.4 0 .6.4.6.8s-.4.6-.8.6l-2.4-.3c-.3 0-.6.3-.6.6 0 .4.2.7.6.8.5.1 11 1.2 11.5 1.3.4 0 .6.4.6.8s-.4.6-.8.6l-12.5-1.4.7-4.2z"/></g><path id="XMLID_2881_" class="st31" d="M141.1 233.9l6.3.7c.4 0 .6.4.6.8s-.4.6-.8.6l-6.3-.7c-.4 0-.6-.4-.6-.8.1-.3.4-.6.8-.6z"/><g id="XMLID_1965_"><path id="XMLID_2880_" class="st33" d="M150.5 219l-.8 2.8c-.3 1.1-.8 1.1-.9-.1l-.2-2.9c0-1.1 2.2-.9 1.9.2z"/><path id="XMLID_2879_" class="st33" d="M147.6 219l.7 2.8c.3 1.2-.1 1.3-.8.3l-1.6-2.5c-.6-.8 1.5-1.7 1.7-.6z"/><path id="XMLID_2878_" class="st33" d="M145.1 220.3l2 2.1c.8.9.6 1.2-.5.7l-2.6-1.3c-1-.5.4-2.3 1.1-1.5z"/><path id="XMLID_2877_" class="st33" d="M143.7 222.8l2.8.8c1.1.3 1.1.8-.1.9l-2.9.2c-1.2 0-.9-2.2.2-1.9z"/><path id="XMLID_2876_" class="st33" d="M143.6 225.6l2.8-.7c1.2-.3 1.3.1.3.8l-2.5 1.6c-.8.6-1.7-1.4-.6-1.7z"/><path id="XMLID_2875_" class="st33" d="M145 228.1l2.1-2c.9-.8 1.2-.6.7.5l-1.3 2.6c-.5 1-2.3-.3-1.5-1.1z"/><path id="XMLID_2874_" class="st33" d="M147.4 229.5l.8-2.8c.3-1.1.8-1.1.9.1l.2 2.9c0 1.2-2.2.9-1.9-.2z"/><path id="XMLID_2873_" class="st33" d="M150.3 229.6l-.7-2.8c-.3-1.2.1-1.3.8-.3l1.6 2.5c.6.8-1.5 1.7-1.7.6z"/><path id="XMLID_2872_" class="st33" d="M152.7 228.2l-2-2.1c-.8-.9-.6-1.2.5-.7l2.6 1.3c1 .6-.3 2.4-1.1 1.5z"/><path id="XMLID_2871_" class="st33" d="M154.2 225.8l-2.8-.8c-1.1-.3-1.1-.8.1-.9l2.9-.2c1.1 0 .9 2.2-.2 1.9z"/><path id="XMLID_2870_" class="st33" d="M154.3 223l-2.8.7c-1.2.3-1.3-.1-.3-.8l2.5-1.6c.8-.6 1.7 1.4.6 1.7z"/><path id="XMLID_2869_" class="st33" d="M152.9 220.5l-2.1 2c-.9.8-1.2.6-.7-.5l1.3-2.6c.5-1 2.3.3 1.5 1.1z"/></g><g id="XMLID_1966_"><path id="XMLID_2867_" class="st34" d="M149.1 223.3c.6.1 1 .6.9 1.1-.1.6-.6 1-1.1.9-.6-.1-1-.6-.9-1.1 0-.6.5-1 1.1-.9z"/></g><g id="XMLID_1967_"><path id="XMLID_2865_" class="st32" d="M130.9 253.2l-.7-2.8c-.3-1.2.1-1.3.8-.3l1.6 2.5c.6.8-1.5 1.7-1.7.6z"/><path id="XMLID_2864_" class="st32" d="M133.4 251.8l-2-2.1c-.8-.9-.6-1.2.5-.7l2.6 1.3c1 .6-.4 2.4-1.1 1.5z"/><path id="XMLID_2863_" class="st32" d="M134.8 249.4l-2.8-.8c-1.1-.3-1.1-.8.1-.9l2.9-.2c1.2 0 .9 2.2-.2 1.9z"/><path id="XMLID_2862_" class="st32" d="M134.9 246.6l-2.8.7c-1.2.3-1.3-.1-.3-.8l2.5-1.6c.8-.6 1.7 1.4.6 1.7z"/></g><g id="XMLID_1968_"><path id="XMLID_2858_" class="st31" d="M137.4 246.3c-.4 0-.6-.4-.6-.8s.4-.6.8-.6c1.8.2 3.1.3 5.3.6.4 0 .6.4.6.8s-.4.6-.8.6h-.1c-.9-.1-1.1 1.2-.2 1.4l1.9.2c.4 0 .6.4.6.8s-.4.6-.8.6c-1.5-.2-2.1-.2-3.6-.4-.4 0-.7.2-.8.6 0 .3.2.7.5.7l4.5.5c.4 0 .6.4.6.8s-.4.6-.8.6l-7.2-.8c-.4 0-.6-.4-.6-.8s.4-.6.8-.6h.4c.3 0 .6-.3.7-.6 0-.4-.2-.7-.6-.8-.5-.1.3 0-.2 0-.4 0-.6-.4-.6-.8s.4-.6.8-.6l2 .2c.9.1 1-1.3.1-1.4-.7 0-2.1-.1-2.7-.2zm3.8-2.3c-1.9-.2-3.6-.4-5.6-.6-.4 0-.6-.4-.6-.8s.4-.6.8-.6l5.6.6c.4 0 .6.4.6.8-.1.3-.4.6-.8.6z"/><path id="XMLID_2857_" class="st31" d="M139.6 256.5l-1-.1c-.3-.1-.5-.4-.5-.7 0-.4.4-.6.8-.6 1.6.2 3.2.3 4.9.5.4 0 .7-.2.8-.6 0-.4-.2-.7-.6-.8l-9.3-1c-.4 0-.7.2-.8.6 0 .4.2.7.6.8l2 .2c.4 0 .6.4.6.8 0 .3-.3.6-.6.6l-6.7-.7c-.4 0-.7.2-.8.6 0 .4.2.7.6.8l10 1.1c.4 0 .7-.2.8-.6-.2-.5-.5-.9-.8-.9z"/></g><path id="XMLID_2855_" class="st31" d="M157.2 221.9l5.5.6c.4 0 .7-.3.7-.6 0-.4-.2-.7-.6-.8l-.8-.1-4.7-.5c-.4 0-.6-.4-.6-.8s.4-.6.8-.6l10.8 1.2c.4 0 .6.4.6.8s-.4.6-.8.6l-2.1-.2-.8-.1c-.4 0-.7.2-.8.6 0 .4.2.7.5.8l.7.1h.2c.3.1.5.4.5.7 0 .4-.4.6-.8.6l-8.6-1c-.4 0-.6-.4-.6-.8.2-.3.5-.6.9-.5z"/><path id="XMLID_2854_" class="st31" d="M156.6 227.3l1.9.2c.3 0 .6-.3.6-.6 0-.4-.2-.7-.6-.8l-.8-.1-.9-.1c-.4 0-.6-.4-.6-.8s.4-.6.8-.6l6.2.7c.4 0 .6.4.6.8s-.4.6-.8.6l-1.2-.1-.8-.1c-.4 0-.7.2-.8.6 0 .3.2.6.5.7l6.7.7c.4 0 .6.4.6.8s-.4.6-.8.6l-10.8-1.2c-.4 0-.6-.4-.6-.8.1-.2.4-.5.8-.5z"/><path id="XMLID_2853_" class="st31" d="M155.7 235.6l6.3.7.8.1c.4 0 .7-.2.8-.6 0-.4-.2-.7-.6-.8l-8.2-.9c-.4 0-.6-.4-.6-.8s.4-.6.8-.6l.7.1.8.1c.4 0 .7-.2.8-.6 0-.3-.2-.7-.5-.7l-2.6-.3c-.4 0-.6-.4-.6-.8s.4-.6.8-.6l13 1.5c.4 0 .6.4.6.8s-.4.6-.8.6l-8.1-.9c-.3 0-.6.3-.7.6 0 .4.2.7.6.8l.8.1 11.6 1.3c.4 0 .6.4.6.8s-.4.6-.8.6l-5.6-.6c-.4 0-.7.2-.7.6 0 .4.2.7.6.8l.8.1.5.1c.4 0 .6.4.6.8s-.4.6-.8.6l-4.2-.5c-.3.1-.5.3-.5.6s.1.7.4.8l7.6.8c.4 0 .6.4.6.8s-.4.6-.8.6l-10.7-1.2c-.4 0-.6-.4-.6-.8s.4-.6.8-.6l1.1.1c.3-.1.5-.4.6-.7 0-.3-.1-.5-.4-.7l-4.6-.5c-.4 0-.6-.4-.6-.8-.3-.6 0-.9.4-.8z"/><path id="XMLID_2852_" class="st31" d="M160.4 241.6c6.1.7 12.2 1.4 18.3 2 .4 0 .7-.2.8-.6 0-.3-.2-.6-.5-.7l-6.9-.8c-.4 0-.6-.4-.6-.8s.4-.6.8-.6l1.4.2c.3 0 .6-.3.6-.6 0-.4-.2-.7-.6-.8l-.8-.1-.6-.1c-.4 0-.6-.4-.6-.8s.4-.6.8-.6l4.6.5c.4 0 .6.4.6.8s-.4.6-.7.6l-.8-.1c-.4 0-.7.2-.8.6 0 .3.2.6.5.7l7.4.8c.4 0 .6.4.6.8s-.4.6-.8.6l-1.9-.2c-.3 0-.6.3-.6.6 0 .4.2.7.6.8 1.1.1-.6-.1.5.1.4 0 .6.4.6.8s-.4.6-.8.6l-17.7-2c-.3 0-.6.3-.6.6 0 .4.2.7.6.8l.8.1c.4.1.6.4.6.8s-.4.6-.8.6l-4.6-.5c-.4 0-.6-.4-.6-.8s.4-.6.8-.6l.6.1.8.1c.4 0 .7-.2.8-.6 0-.3-.2-.6-.5-.7l-1.4-.2c-.4 0-.6-.4-.6-.8 0-.3.3-.6.7-.6z"/><path id="XMLID_2851_" class="st31" d="M158.1 246.9l3.3.4c.4 0 .6.4.6.8s-.4.6-.8.6l-3.3-.4c-.4 0-.6-.4-.6-.8.1-.4.4-.6.8-.6z"/><path id="XMLID_2850_" class="st31" d="M155 249.3l4.7.5c.4 0 .6.4.6.8s-.4.6-.8.6l-1.4-.2c-.3 0-.6.3-.7.6 0 .4.2.7.6.8l.8.1.7.1c.4 0 .6.4.6.8s-.4.6-.8.6l-4.3-.5-.8-.1c-.4 0-.7.2-.8.6 0 .3.2.6.5.7l6.3.7c.4 0 .6.4.6.8s-.4.6-.8.6l-10.8-1.2c-.4 0-.6-.4-.6-.8s.4-.6.8-.6l2.3.3c.3 0 .6-.3.6-.6 0-.4-.2-.7-.6-.8l-.8-.1-2.5-.3c-.4 0-.6-.4-.6-.8s.4-.6.8-.6l6.1.7.8.1c.4 0 .7-.2.8-.6 0-.3-.2-.7-.5-.7l-1-.1c-.4 0-.6-.4-.6-.8.1-.3.4-.6.8-.6z"/><path id="XMLID_2849_" class="st31" d="M167.6 225.9l5.5.6c.4 0 .7-.3.7-.6 0-.4-.2-.7-.6-.8l-.8-.1-4.7-.5c-.4 0-.6-.4-.6-.8s.4-.6.8-.6l12.5 1.4c.4 0 .6.4.6.8s-.4.6-.8.6l-3.8-.4-.8-.1c-.4 0-.7.2-.8.6 0 .4.2.7.5.8l2.8.3-2.1-.2 2.2.2c.3.1.5.4.5.7 0 .4-.4.6-.8.6l-10.7-1.2c-.4 0-.6-.4-.6-.8.3-.3.6-.6 1-.5z"/><path id="XMLID_2848_" class="st31" d="M181.9 232.9l-7.6-.8-.8-.1c-.4 0-.6-.4-.6-.8 0-.3.3-.6.6-.6l6.8.8c.4 0 .7-.2.8-.6 0-.4-.2-.7-.6-.8l-10.8-1.2c-.4 0-.7.2-.8.6 0 .4.2.7.6.8l1.7.2c.3.1.5.4.5.7 0 .4-.4.6-.8.6l-.8-.1h-.2c-.4 0-.7.2-.8.6 0 .4.2.7.6.8l7.2.8c.3.1.5.4.5.7 0 .4-.4.6-.8.6l-3.5-.4c-.4 0-.7.2-.7.6 0 .4.2.7.6.8l17.4 1.9c.4 0 .7-.2.8-.6 0-.4-.2-.7-.6-.8-.5-.1-11-1.2-11.5-1.3-.4 0-.6-.4-.6-.8 0-.3.3-.6.6-.6l2.4.3c.4 0 .7-.2.8-.6.3-.3 0-.6-.4-.7z"/><path id="XMLID_2847_" class="st31" d="M180.2 238.3l6.3.7c.4 0 .6.4.6.8s-.4.6-.8.6l-6.3-.7c-.4 0-.6-.4-.6-.8.1-.4.4-.7.8-.6z"/><g id="XMLID_1969_"><path id="XMLID_2846_" class="st32" d="M189.6 223.4l-.8 2.8c-.3 1.1-.8 1.1-.9-.1l-.2-2.9c0-1.2 2.2-.9 1.9.2z"/><path id="XMLID_2845_" class="st32" d="M186.7 223.3l.7 2.8c.3 1.2-.1 1.3-.8.3l-1.6-2.5c-.6-.8 1.5-1.7 1.7-.6z"/><path id="XMLID_2844_" class="st32" d="M184.2 224.7l2 2.1c.8.9.6 1.2-.5.7l-2.6-1.3c-1-.5.4-2.3 1.1-1.5z"/><path id="XMLID_2843_" class="st32" d="M182.8 227.1l2.8.8c1.1.3 1.1.8-.1.9l-2.9.2c-1.2 0-.9-2.2.2-1.9z"/><path id="XMLID_2842_" class="st32" d="M182.7 230l2.8-.7c1.2-.3 1.3.1.3.8l-2.5 1.6c-.8.6-1.7-1.5-.6-1.7z"/><path id="XMLID_2841_" class="st32" d="M184.1 232.4l2.1-2c.9-.8 1.2-.6.7.5l-1.3 2.6c-.5 1-2.3-.3-1.5-1.1z"/><path id="XMLID_2840_" class="st32" d="M186.5 233.9l.8-2.8c.3-1.1.8-1.1.9.1l.2 2.9c0 1.1-2.2.9-1.9-.2z"/><path id="XMLID_2839_" class="st32" d="M189.4 234l-.7-2.8c-.3-1.2.1-1.3.8-.3l1.6 2.5c.6.8-1.5 1.7-1.7.6z"/><path id="XMLID_2838_" class="st32" d="M191.8 232.6l-2-2.1c-.8-.9-.6-1.2.5-.7l2.6 1.3c1 .5-.3 2.3-1.1 1.5z"/><path id="XMLID_2837_" class="st32" d="M193.3 230.2l-2.8-.8c-1.1-.3-1.1-.8.1-.9l2.9-.2c1.1 0 .9 2.2-.2 1.9z"/><path id="XMLID_2836_" class="st32" d="M193.4 227.3l-2.8.7c-1.2.3-1.3-.1-.3-.8l2.5-1.6c.8-.6 1.7 1.4.6 1.7z"/><path id="XMLID_2835_" class="st32" d="M192 224.8l-2.1 2c-.9.8-1.2.6-.7-.5l1.3-2.6c.5-1 2.3.4 1.5 1.1z"/></g><path id="XMLID_2833_" class="st34" d="M188.2 227.6c.6.1 1 .6.9 1.1-.1.6-.6 1-1.1.9-.6-.1-1-.6-.9-1.1 0-.5.5-.9 1.1-.9z"/><g id="XMLID_1970_"><path id="XMLID_2832_" class="st32" d="M152.4 237.7l-.9 3c-.3 1.2-.8 1.2-.9-.1l-.2-3.1c0-1.2 2.3-1 2 .2z"/><path id="XMLID_2831_" class="st32" d="M149.4 237.6l.8 3c.3 1.2-.1 1.4-.8.4l-1.7-2.6c-.8-1 1.4-2 1.7-.8z"/><path id="XMLID_2830_" class="st32" d="M146.7 239.1l2.2 2.2c.9.9.6 1.3-.5.7l-2.8-1.4c-1.1-.5.3-2.4 1.1-1.5z"/><path id="XMLID_2829_" class="st32" d="M145.2 241.7l3 .9c1.2.3 1.2.8-.1.9l-3.1.2c-1.2 0-1-2.4.2-2z"/><path id="XMLID_2828_" class="st32" d="M145.1 244.7l3-.8c1.2-.3 1.4.1.4.8l-2.6 1.7c-1 .7-1.9-1.4-.8-1.7z"/><path id="XMLID_2827_" class="st32" d="M146.6 247.3l2.2-2.2c.9-.9 1.3-.6.7.5l-1.4 2.8c-.5 1.2-2.4-.2-1.5-1.1z"/><path id="XMLID_2826_" class="st32" d="M149.2 248.9l.9-3c.3-1.2.8-1.2.9.1l.2 3.1c0 1.2-2.4.9-2-.2z"/><path id="XMLID_2825_" class="st32" d="M152.2 248.9l-.8-3c-.3-1.2.1-1.4.8-.4l1.7 2.6c.7 1.1-1.4 2-1.7.8z"/><path id="XMLID_2824_" class="st32" d="M154.8 247.5l-2.2-2.2c-.9-.9-.6-1.3.5-.7l2.8 1.4c1.2.4-.2 2.3-1.1 1.5z"/><path id="XMLID_2823_" class="st32" d="M156.4 244.9l-3-.9c-1.2-.3-1.2-.8.1-.9l3.1-.2c1.2 0 .9 2.3-.2 2z"/><path id="XMLID_2822_" class="st32" d="M156.4 241.9l-3 .8c-1.2.3-1.4-.1-.4-.8l2.6-1.7c1.1-.8 2 1.4.8 1.7z"/><path id="XMLID_2821_" class="st32" d="M155 239.2l-2.2 2.2c-.9.9-1.3.6-.7-.5l1.4-2.8c.4-1.1 2.3.3 1.5 1.1z"/></g><path id="XMLID_2819_" class="st34" d="M150.9 242.2c.6.1 1 .6 1 1.2-.1.6-.6 1-1.2 1-.6-.1-1-.6-1-1.2.1-.6.6-1.1 1.2-1z"/><path id="XMLID_2818_" class="st34" d="M168.8 251.2c.6.1 1 .6.9 1.1-.1.6-.6 1-1.1.9-.6-.1-1-.6-.9-1.1 0-.5.5-.9 1.1-.9z"/><path id="XMLID_2815_" class="st31" d="M176.5 250.7c-.4 0-.6-.4-.6-.8s.4-.6.8-.6c1.8.2 3.1.3 5.3.6.4 0 .6.4.6.8s-.4.6-.8.6h-.1c-.9-.1-1.1 1.2-.2 1.4l1.9.2c.4 0 .6.4.6.8s-.4.6-.8.6c-1.5-.2-2.1-.2-3.6-.4-.4 0-.7.2-.8.6 0 .3.2.7.5.7l4.5.5c.4 0 .6.4.6.8s-.4.6-.8.6l-7.2-.8c-.4 0-.6-.4-.6-.8s.4-.6.8-.6h.4c.3 0 .6-.3.7-.6 0-.4-.2-.7-.6-.8-.5-.1.3 0-.2 0-.4 0-.6-.4-.6-.8s.4-.6.8-.6l2 .2c.9.1 1-1.3.1-1.4-.7 0-2.2-.2-2.7-.2zm3.8-2.4c-1.9-.2-3.6-.4-5.6-.6-.4 0-.6-.4-.6-.8s.4-.6.8-.6l5.6.6c.4 0 .6.4.6.8-.1.4-.4.6-.8.6z"/><path id="XMLID_2814_" class="st31" d="M178.7 260.8l-1-.1c-.3-.1-.5-.4-.5-.7 0-.4.4-.6.8-.6 1.6.2 3.2.3 4.9.5.4 0 .7-.2.8-.6 0-.4-.2-.7-.6-.8l-9.3-1c-.4 0-.7.2-.8.6 0 .4.2.7.6.8l2 .2c.4 0 .6.4.6.8 0 .3-.3.6-.6.6l-6.7-.7c-.4 0-.7.2-.8.6 0 .4.2.7.6.8l10 1.1c.4 0 .7-.2.8-.6-.2-.5-.5-.8-.8-.9z"/><path id="XMLID_2813_" class="st31" d="M196.3 226.2l5.5.6c.4 0 .7-.3.7-.6 0-.4-.2-.7-.6-.8l-.8-.1-4.7-.5c-.4 0-.6-.4-.6-.8s.4-.6.8-.6l10.8 1.2c.4 0 .6.4.6.8s-.4.6-.8.6l-2.1-.2-.8-.1c-.4 0-.7.2-.8.6 0 .4.2.7.5.8l.7.1h.2c.3.1.5.4.5.7 0 .4-.4.6-.8.6l-8.6-1c-.4 0-.6-.4-.6-.8.2-.2.5-.5.9-.5z"/><g id="XMLID_1971_"><path id="XMLID_2812_" class="st31" d="M195.7 231.7l1.9.2c.3 0 .6-.3.6-.6 0-.4-.2-.7-.6-.8l-.8-.1-.9-.1c-.4 0-.6-.4-.6-.8s.4-.6.8-.6l6.2.7c.4 0 .6.4.6.8s-.4.6-.8.6l-1.2-.1-.8-.1c-.4 0-.7.2-.8.6 0 .3.2.6.5.7l6.7.7c.4 0 .6.4.6.8s-.4.6-.8.6l-10.8-1.2c-.4 0-.6-.4-.6-.8.1-.3.4-.5.8-.5z"/><path id="XMLID_2811_" class="st31" d="M194.8 239.9l6.3.7.8.1c.4 0 .7-.2.8-.6 0-.4-.2-.7-.6-.8l-8.2-.9c-.4 0-.6-.4-.6-.8s.4-.6.8-.6l.7.1.8.1c.4 0 .7-.2.8-.6 0-.3-.2-.7-.5-.7l-2.6-.3c-.4 0-.6-.4-.6-.8s.4-.6.8-.6l13 1.5c.4 0 .6.4.6.8s-.4.6-.8.6l-8.1-.9c-.3 0-.6.3-.7.6 0 .4.2.7.6.8l.8.1 11.6 1.3c.4 0 .6.4.6.8s-.4.6-.8.6l-5.6-.6c-.4 0-.7.2-.7.6 0 .4.2.7.6.8l.8.1.5.1c.4 0 .6.4.6.8s-.4.6-.8.6l-4.2-.5c-.3.1-.5.3-.5.6s.1.7.4.8l7.6.8c.4 0 .6.4.6.8s-.4.6-.8.6l-10.7-1.2c-.4 0-.6-.4-.6-.8s.4-.6.8-.6l1.1.1c.3-.1.5-.4.6-.7 0-.3-.1-.5-.4-.7l-4.6-.5c-.4 0-.6-.4-.6-.8-.3-.6 0-.8.4-.8z"/><path id="XMLID_2810_" class="st31" d="M204.6 246.6c-1.7-.2-3.5-.4-5.2-.6-.4 0-.7.2-.8.6 0 .4.2.7.6.8l1.4.2c.3.1.5.4.5.7 0 .4-.4.6-.8.6l-.8-.1-.6-.1c-.4 0-.7.2-.8.6 0 .4.2.7.6.8l4.6.5c.4 0 .7-.2.8-.6 0-.4-.2-.7-.6-.8l-.8-.1c-.4 0-.6-.4-.6-.8 0-.3.3-.6.6-.6l2 .2-.1-1.3z"/></g><path id="XMLID_2808_" class="st31" d="M197.2 251.3l3.3.4c.4 0 .6.4.6.8s-.4.6-.8.6l-3.3-.4c-.4 0-.6-.4-.6-.8.1-.4.4-.7.8-.6z"/><g id="XMLID_1972_"><path id="XMLID_2807_" class="st31" d="M194.1 253.7l4.7.5c.4 0 .6.4.6.8s-.4.6-.8.6l-1.4-.2c-.3 0-.6.3-.7.6 0 .4.2.7.6.8l.8.1.7.1c.4 0 .6.4.6.8s-.4.6-.8.6l-4.3-.5-.8-.1c-.4 0-.7.2-.8.6 0 .3.2.6.5.7l6.3.7c.4 0 .6.4.6.8s-.4.6-.8.6l-10.8-1.2c-.4 0-.6-.4-.6-.8s.4-.6.8-.6l2.3.3c.3 0 .6-.3.6-.6 0-.4-.2-.7-.6-.8l-.8-.1-2.5-.3c-.4 0-.6-.4-.6-.8s.4-.6.8-.6l6.1.7.8.1c.4 0 .7-.2.8-.6 0-.3-.2-.7-.5-.7l-1-.1c-.4 0-.6-.4-.6-.8.1-.4.4-.7.8-.6z"/></g><g id="XMLID_1973_"><path id="XMLID_2805_" class="st33" d="M170.2 247l-.8 2.8c-.3 1.1-.8 1.1-.9-.1l-.2-2.9c0-1.2 2.2-.9 1.9.2z"/><path id="XMLID_2804_" class="st33" d="M167.3 246.9l.7 2.8c.3 1.2-.1 1.3-.8.3l-1.6-2.5c-.6-.8 1.5-1.7 1.7-.6z"/><path id="XMLID_2803_" class="st33" d="M164.9 248.3l2 2.1c.8.9.6 1.2-.5.7l-2.6-1.3c-1-.5.3-2.3 1.1-1.5z"/><path id="XMLID_2802_" class="st33" d="M163.4 250.7l2.8.8c1.1.3 1.1.8-.1.9l-2.9.2c-1.1 0-.9-2.2.2-1.9z"/><path id="XMLID_2801_" class="st33" d="M163.3 253.6l2.8-.7c1.2-.3 1.3.1.3.8l-2.5 1.6c-.8.6-1.7-1.5-.6-1.7z"/><path id="XMLID_2800_" class="st33" d="M164.7 256l2.1-2c.9-.8 1.2-.6.7.5l-1.3 2.6c-.5 1-2.3-.3-1.5-1.1z"/><path id="XMLID_2799_" class="st33" d="M167.1 257.5l.8-2.8c.3-1.1.8-1.1.9.1l.2 2.9c0 1.1-2.2.9-1.9-.2z"/><path id="XMLID_2798_" class="st33" d="M170 257.6l-.7-2.8c-.3-1.2.1-1.3.8-.3l1.6 2.5c.6.8-1.5 1.7-1.7.6z"/><path id="XMLID_2797_" class="st33" d="M172.5 256.2l-2-2.1c-.8-.9-.6-1.2.5-.7l2.6 1.3c1 .5-.4 2.3-1.1 1.5z"/><path id="XMLID_2796_" class="st33" d="M173.9 253.8l-2.8-.8c-1.1-.3-1.1-.8.1-.9l2.9-.2c1.2 0 .9 2.2-.2 1.9z"/><path id="XMLID_2778_" class="st33" d="M174 250.9l-2.8.7c-1.2.3-1.3-.1-.3-.8l2.5-1.6c.8-.6 1.7 1.5.6 1.7z"/><path id="XMLID_2777_" class="st33" d="M172.6 248.4l-2.1 2c-.9.8-1.2.6-.7-.5l1.3-2.6c.5-1 2.3.4 1.5 1.1z"/><g id="XMLID_1974_"><path id="XMLID_2776_" class="st33" d="M191.5 242l-.9 3c-.3 1.2-.8 1.2-.9-.1l-.2-3.1c0-1.2 2.3-.9 2 .2z"/><path id="XMLID_2775_" class="st33" d="M188.5 242l.8 3c.3 1.2-.1 1.4-.8.4l-1.7-2.6c-.8-1.1 1.4-2 1.7-.8z"/><path id="XMLID_2774_" class="st33" d="M185.8 243.4l2.2 2.2c.9.9.6 1.3-.5.7l-2.8-1.4c-1.1-.4.3-2.3 1.1-1.5z"/><path id="XMLID_2773_" class="st33" d="M184.3 246l3 .9c1.2.3 1.2.8-.1.9l-3.1.2c-1.2 0-1-2.3.2-2z"/><path id="XMLID_2772_" class="st33" d="M184.2 249l3-.8c1.2-.3 1.4.1.4.8l-2.6 1.7c-1 .8-1.9-1.4-.8-1.7z"/><path id="XMLID_2771_" class="st33" d="M185.7 251.7l2.2-2.2c.9-.9 1.3-.6.7.5l-1.4 2.8c-.5 1.1-2.4-.3-1.5-1.1z"/><path id="XMLID_2770_" class="st33" d="M188.3 253.2l.9-3c.3-1.2.8-1.2.9.1l.2 3.1c0 1.2-2.4 1-2-.2z"/><path id="XMLID_2769_" class="st33" d="M191.3 253.3l-.8-3c-.3-1.2.1-1.4.8-.4l1.7 2.6c.7 1-1.4 2-1.7.8z"/><path id="XMLID_2768_" class="st33" d="M193.9 251.8l-2.2-2.2c-.9-.9-.6-1.3.5-.7l2.8 1.4c1.2.5-.2 2.4-1.1 1.5z"/><path id="XMLID_2767_" class="st33" d="M195.5 249.2l-3-.9c-1.2-.3-1.2-.8.1-.9l3.1-.2c1.2 0 .9 2.4-.2 2z"/><path id="XMLID_2766_" class="st33" d="M195.5 246.2l-3 .8c-1.2.3-1.4-.1-.4-.8l2.6-1.7c1.1-.7 2 1.4.8 1.7z"/><path id="XMLID_2765_" class="st33" d="M194.1 243.6l-2.2 2.2c-.9.9-1.3.6-.7-.5l1.4-2.8c.4-1.1 2.3.3 1.5 1.1z"/></g></g><g id="XMLID_1975_"><path id="XMLID_2762_" class="st34" d="M190 246.6c.6.1 1 .6 1 1.2-.1.6-.6 1-1.2 1-.6-.1-1-.6-1-1.2.1-.7.6-1.1 1.2-1z"/></g><g id="XMLID_1976_"><path id="XMLID_2757_" class="st32" d="M204 252.6l2 2.1c.8.9.6 1.2-.5.7l-2.6-1.3c-1.1-.5.3-2.3 1.1-1.5z"/><path id="XMLID_2756_" class="st32" d="M202.5 255.1l2.8.8c1.1.3 1.1.8-.1.9l-2.9.2c-1.1 0-.9-2.2.2-1.9z"/><path id="XMLID_2754_" class="st32" d="M202.4 257.9l2.8-.7c1.2-.3 1.3.1.3.8l-2.5 1.6c-.8.6-1.7-1.4-.6-1.7z"/><g id="XMLID_1977_"><path id="XMLID_2753_" class="st32" d="M203.8 260.4l2.1-2c.9-.8 1.2-.6.7.5l-1.3 2.6c-.5 1-2.3-.3-1.5-1.1z"/></g></g><g id="XMLID_1978_"><path id="XMLID_2750_" class="st33" d="M146.1 258.1l-.8 2.8c-.3 1.1-.8 1.1-.9-.1l-.2-2.9c0-1.1 2.2-.9 1.9.2z"/><path id="XMLID_2749_" class="st33" d="M143.3 258.1l.7 2.8c.3 1.2-.1 1.3-.8.3l-1.6-2.5c-.6-.8 1.4-1.7 1.7-.6z"/><path id="XMLID_2748_" class="st33" d="M140.8 259.4l2 2.1c.8.9.6 1.2-.5.7l-2.6-1.3c-1-.5.3-2.3 1.1-1.5z"/><path id="XMLID_2747_" class="st33" d="M149.9 262.1l-2.8.7c-1.2.3-1.3-.1-.3-.8l2.5-1.6c.8-.6 1.7 1.4.6 1.7z"/><path id="XMLID_2746_" class="st33" d="M148.5 259.6l-2.1 2c-.9.8-1.2.6-.7-.5l1.3-2.6c.6-1 2.4.3 1.5 1.1z"/></g><path id="XMLID_2744_" class="st31" d="M152.9 261l5.5.6c.4 0 .7-.3.7-.6 0-.4-.2-.7-.6-.8l-.8-.1-4.7-.5c-.4 0-.6-.4-.6-.8s.4-.6.8-.6l10.8 1.2c.4 0 .6.4.6.8s-.4.6-.8.6l-2.1-.2-.8-.1c-.4 0-.7.2-.8.6 0 .4.2.7.5.8l.7.1h.2c.3.1.5.4.5.7 0 .4-.4.6-.8.6l-8.6-1c-.4 0-.6-.4-.6-.8.1-.3.5-.6.9-.5z"/><path id="XMLID_2743_" class="st31" d="M163.3 265l5.5.6c.4 0 .7-.3.7-.6 0-.4-.2-.7-.6-.8l-.8-.1-4.7-.5c-.4 0-.6-.4-.6-.8s.4-.6.8-.6l12.5 1.4c.4 0 .6.4.6.8s-.4.6-.8.6l-3.8-.4-.8-.1c-.4 0-.7.2-.8.6 0 .4.2.7.5.8l2.8.3-2.1-.2 2.2.2c.3.1.5.4.5.7 0 .4-.4.6-.8.6l-10.7-1.2c-.4 0-.6-.4-.6-.8.2-.3.6-.6 1-.5z"/><g id="XMLID_1979_"><path id="XMLID_2742_" class="st32" d="M185.2 262.5l-.8 2.8c-.3 1.1-.8 1.1-.9-.1l-.2-2.9c0-1.2 2.2-.9 1.9.2z"/><path id="XMLID_2741_" class="st32" d="M182.4 262.4l.7 2.8c.3 1.2-.1 1.3-.8.3l-1.6-2.5c-.6-.8 1.4-1.7 1.7-.6z"/><path id="XMLID_2740_" class="st32" d="M179.9 263.8l2 2.1c.8.9.6 1.2-.5.7l-2.6-1.3c-1-.5.3-2.3 1.1-1.5z"/><path id="XMLID_2739_" class="st32" d="M189 266.4l-2.8.7c-1.2.3-1.3-.1-.3-.8l2.5-1.6c.8-.6 1.7 1.4.6 1.7z"/><path id="XMLID_2738_" class="st32" d="M187.6 263.9l-2.1 2c-.9.8-1.2.6-.7-.5l1.3-2.6c.6-1 2.4.4 1.5 1.1z"/></g><path id="XMLID_2736_" class="st31" d="M192 265.3l5.5.6c.4 0 .7-.3.7-.6 0-.4-.2-.7-.6-.8l-.8-.1-4.7-.5c-.4 0-.6-.4-.6-.8s.4-.6.8-.6l10.8 1.2c.4 0 .6.4.6.8s-.4.6-.8.6l-2.1-.2-.8-.1c-.4 0-.7.2-.8.6 0 .4.2.7.5.8l.7.1h.2c.3.1.5.4.5.7 0 .4-.4.6-.8.6l-8.6-1c-.4 0-.6-.4-.6-.8.1-.2.5-.5.9-.5z"/><g id="XMLID_1980_"><path id="XMLID_2735_" class="st31" d="M183 221.7l-1-.1c-.3-.1-.5-.4-.5-.7 0-.4.4-.6.8-.6 1.6.2 3.2.3 4.9.5.4 0 .7-.2.8-.6 0-.4-.2-.7-.6-.8l-9.3-1c-.4 0-.7.2-.8.6 0 .4.2.7.6.8l2 .2c.4 0 .6.4.6.8 0 .3-.3.6-.6.6l-6.7-.7c-.4 0-.7.2-.8.6 0 .4.2.7.6.8l10 1.1c.4 0 .7-.2.8-.6-.1-.5-.4-.8-.8-.9z"/></g><path id="XMLID_2733_" class="st34" d="M173.1 212.1c.6.1 1 .6.9 1.1-.1.6-.6 1-1.1.9-.6-.1-1-.6-.9-1.1.1-.5.6-.9 1.1-.9z"/></g></g><path id="XMLID_2729_" class="st35" d="M199.1 127.1s-15.3-3.4-24.7-2.6c-9.4.9-24.4 5.5-26.1 6.8-1.5 1.1 7.5 41.8 3.9 61.9-2.9 16.3-1.6 13-1.6 13s47.7 5.5 48 3.5c.4-2.7-.1-.4-.4-14.8v-5.8c-.1-7.1-1.1-21.3-1-25.5.4-15.6.8-29.7 1.9-36.5z"/><path id="XMLID_2728_" class="st28" d="M188.8 125.3s-4.6 8.5-17.6 8.1c-8-.3-12.6-5.9-12.6-5.9 4.7-.9 1.5-.9 17.5-4.2l12.7 2z"/><path id="XMLID_2727_" class="st28" d="M168 127.9l1.1-32.5 10.7-1 .5 31-6.6 10.6z"/><path id="XMLID_2726_" class="st28" d="M141.4 80.5c-1 16.5 9.9 34.9 24.6 35.8 19.4 1.2 30.2-18.9 31.2-35.4S185 51.8 168.5 50.8c-16.5-1.1-26 13.1-27.1 29.7z"/><path id="XMLID_2725_" d="M182.8 87.7c-.1 2.2-1.4 3.8-2.8 3.7-1.4-.1-2.4-1.9-2.3-4.1.1-2.2 1.4-3.8 2.8-3.7 1.5.1 2.5 1.9 2.3 4.1z"/><path id="XMLID_2724_" d="M155.9 89.1c-.1 2.2-1.4 3.8-2.8 3.7-1.4-.1-2.4-1.9-2.3-4.1.1-2.2 1.4-3.8 2.7-3.7 1.5.1 2.5 1.9 2.4 4.1z"/><path id="XMLID_2723_" class="st28" d="M191.9 86.2c-.8 3.8-.4 6.6 2.1 7.1s7.3-1.9 8.2-5.7c.8-3.8-.5-7.4-3-8-2.5-.5-6.4 2.8-7.3 6.6z"/><path id="XMLID_2722_" class="st26" d="M141 77.1c-.1 1.7 23.6-11.6 25.4-16.4 1.8-4.8 3.3-11.7 2.4-12.6-.8-.8-13.6-.1-21.2 7.8-5.4 5.8-6.5 17.2-6.6 21.2z"/><path id="XMLID_2721_" class="st26" d="M197.9 79.5c-.3 1.6-28.1-13.7-29.9-18.3-1.8-4.6 0-12.3.8-13.1.8-.8 15.2-.6 22.8 7 5.4 5.6 7.7 17 6.3 24.4z"/><path id="XMLID_1982_" class="st26" d="M140.5 84.9c.3-2-4-16.9 8.3-29.5 5.1-5.2 24.9-2.7 24.9-2.7l-18.4 24.6-10.4 36.3c-.1-.1-4.7-26.5-4.4-28.7z"/><path id="XMLID_2719_" class="st26" d="M177.2 77.3s3.4-.3 6.1.2c1.9.3 4.7 1.3 4.7 1.3l-.8 1.2s-1.6.1-3.7-.3-6 .1-6 .1l-.3-2.5z"/><path id="XMLID_2718_" class="st26" d="M157.4 77.3s-3.4-.3-6.1.2c-1.9.3-4.7 1.3-4.7 1.3l.8 1.2s1.6.1 3.7-.3 6 .1 6 .1l.3-2.5z"/><path id="XMLID_1983_" class="st36" d="M167.8 98c0 .6-5.2.6-5.2 0s1.2-1 2.6-1 2.6.4 2.6 1z"/><path id="XMLID_2716_" class="st28" d="M148.8 240.4c.1.7 7.1 7.3 7.1 7.3l4.1 11.7-1.5.6-4.1-8.3.7 9.5-.1 2.8-1.9.6-1.6-4.3-1.2 3.9-2.2-.6-.9-1.2-1 1.3-1.4-.7-.7-20.2 4.7-2.4z"/><path id="XMLID_2715_" class="st35" d="M141.6 196.7c2.8-15.2 9.5-42 11.9-40.6 1.7 1 5.2 33.3 5.2 33.3s20.4-42.1 15.1-50c0 0-10.4-2.5-21.4-8.7-12.4-7-21.8 64.2-21.8 64.2l12.9 52.4 8.3-4.5-10.2-46.1z"/><path id="XMLID_2714_" class="st35" d="M188.9 188.1c-3.1-15.2 7.3-34.2 4.9-32.8-1.7 1-3.5 31.2-3.5 31.2s-20.4-42.1-15.1-50c0 0 10.4-2.5 21.4-8.7 12.4-7 6.7 56.6 6.7 56.6s-.5 7.1-6.1 7.1c-1.5 0-8.3-3.4-8.3-3.4z"/><path id="XMLID_2713_" class="st37" d="M200.7 188.2c2.9-3-1.8-10.5-2.9-13.7l-23-32-5.1 4.2 21.2 33.4c0-.1 7.5 10.5 9.8 8.1z"/><path id="XMLID_2712_" class="st38" d="M197.4 172.3l-18.4-27-8.6 6.5 19.9 33.3 2.9 4.2s4.8 2.7 7.8.7c4.1-2.6 2.9-7.8 2.9-7.8l-6.5-9.9z"/><path id="XMLID_2711_" class="st24" d="M167 112.2c5.3-.1 8.8-2.9 10.1-8.9l-19 .5c0 .1 2 8.6 8.9 8.4z"/><path id="XMLID_2710_" class="st13" d="M176.8 103.3c-2.2 2.5-5.8 3.7-10.4 3.9-3.8.1-6.3-1.2-7.9-2.6-.2-.4-.3-.7-.3-.7l18.6-.6z"/><g id="XMLID_1984_"><path id="XMLID_1985_" class="st12" d="M161 146.9h-8.1V144h8.1c1.7 0 3.1-1.4 3.1-3.2v-10.4c0-1.8-1.4-3.2-3.1-3.2h-7.6v-2.9h7.6c3.3 0 6 2.7 6 6.1v10.4c0 3.4-2.7 6.1-6 6.1z"/><circle id="XMLID_1986_" class="st13" cx="135.2" cy="121.4" r="4.4"/><ellipse id="XMLID_1987_" class="st13" cx="141.1" cy="118.7" rx="5.9" ry="5"/><circle id="XMLID_1988_" class="st13" cx="154.4" cy="121.5" r="3.4"/><ellipse id="XMLID_1989_" class="st13" cx="146.2" cy="120" rx="3.6" ry="3.6"/><circle id="XMLID_1990_" class="st13" cx="151.2" cy="119.4" r="3.4"/><path id="XMLID_1991_" class="st12" d="M157.8 122.1v29.1c0 2.4-2 4.4-4.4 4.4h-18.1c-2.4 0-4.4-2-4.4-4.4v-29.1h26.9z"/><path id="XMLID_1992_" class="st14" d="M156.4 150.3v.9c0 1.7-1.8 3.1-4 3.1h-16.3c-2.2 0-4-1.4-4-3.1v-.9h24.3z"/><path id="XMLID_1993_" class="st14" d="M135.7 129.3h1.4v16.9h-1.4z"/><path id="XMLID_1994_" class="st14" d="M143.5 129.3h1.4v16.9h-1.4z"/><path id="XMLID_1995_" class="st14" d="M151.3 129.3h1.4v16.9h-1.4z"/><path id="XMLID_1996_" class="st15" d="M130.8 121.9h27v3.4h-27z"/><path id="XMLID_1997_" class="st12" d="M140.8 115.9c2.8 0 5.2 2 5.2 4.5.1-.3.2-.7.2-1 0-2.3-2.3-4.2-5.1-4.2-2.3 0-4.2 1.3-4.8 3 .9-1.4 2.6-2.3 4.5-2.3z"/><path id="XMLID_1998_" class="st16" d="M132.2 149.4h24.2v.9h-24.2z"/></g><path id="XMLID_2694_" class="st37" d="M176.1 145.8c-.5-.4-2.7-9.8-2.7-9.8l-7.9-9.5-1.2 1 5.1 7.8-7.8-5.5-2.6-1.4-.5 2.3 1.9 2.6-2.1-.3-.6 2.2 1.4 1.5-1.6.2-.1 1.6 14.2 10 4.5-2.7z"/></g><g id="XMLID_1999_"><path id="XMLID_2000_" class="st39" d="M204.6 222.6c7.8-1 17.1-1.7 25.4-1.6l-2.6 26-28.9 22.7.1-46.3c.8-.3 5.2-.6 6-.8z"/><path id="XMLID_2001_" class="st40" d="M199 236.6c-.5-11.1 3.6-55.5 3-62l-7.2 18.8c-.3-.1-15.5-6-17.5-6.9l17.4-36.1c1.5-1.8 3.1-2.9 4.7-3.6 7.5-4.7 22.8-9 34.8-8.5 12.8.5 23.7 2.8 29.9 9.3 1 .9 7.9 12.1 7.9 12.1l-6.5 26.3-6-12.3c-.1.7 3 60.9 2.8 63.8-1.3 3-62.3.6-63.3-.9z"/><path id="XMLID_2690_" class="st41" d="M202 249.9c4.2-2.3 8.2-5.1 12.1-7.9l-7.4-9.2c-2.7-3.3-10.1 1.7-10.1 1.7l4.8 15.6.6-.2z"/><path id="XMLID_2002_" class="st41" d="M222.9 129.1c5-3.7 16.7-1 16.9.5v8.5s1 8-9.1 7.9c-9.7-.2-8-9.2-8-9.2s-.7-7.2.2-7.7z"/><path id="XMLID_2688_" class="st13" d="M223.6 121.8c.3-.1.7-.2 1.1-.3-.1-.3-.1-.5-.1-.6l-1 .9z"/><path id="XMLID_2687_" class="st41" d="M204.2 107.3c.8 16.5 11.3 26.7 27.3 26.5 14.4-.1 25.8-14.9 26.5-31.4.6-16.5-7.7-31.3-23.5-31.3-24 0-31.7 6.1-30.3 36.2z"/><path id="XMLID_2686_" class="st42" d="M262.1 79.3c-5.8-10.2-35.7-13.1-46.7-9.2-1.7.6-15.6 16.4-12.2 20 6 6.4 47.2-3.3 49.6-4 1.4 15.4.9 23.4-.3 33.9-.4 3.1 4.6 2.7 4.8 1.6 2.5-11.8 9.6-33.9 4.8-42.3z"/><path id="XMLID_2685_" class="st41" d="M250.2 107.1c-1.8 3.9-1.9 7 .8 8.2 2.6 1.2 8.5-.3 10.3-4.2 1.8-3.9 1.1-8.1-1.6-9.3-2.6-1.2-7.7 1.4-9.5 5.3z"/><path id="XMLID_2684_" d="M244.4 102.5c0 2.1-1 3.9-2.4 3.9s-2.5-1.7-2.6-3.8c-.1-2.1 1-3.9 2.4-3.9 1.5 0 2.6 1.7 2.6 3.8z"/><ellipse id="XMLID_2678_" transform="matrix(.9997 -.02351 .02351 .9997 -2.353 5.095)" cx="215.5" cy="102.6" rx="2.5" ry="3.8"/><g id="XMLID_2003_"><path id="XMLID_2677_" class="st43" d="M225.6 123.6c2.5-.1 5.2-.7 8.1-1.8l-1-2.4c-2.7 1.1-5.1 1.6-7.2 1.6-2.7.1-4.9-.6-6.7-1.7l-1.4 2.2c2.3 1.4 5.1 2.2 8.2 2.1z"/></g><path id="XMLID_586_" class="st42" d="M236.5 92.9s3.4-.7 6.1-.4c1.9.2 4.8 1.3 4.8 1.3l-1.2 2.6s-2.1-.2-4.2-.5-5.2.4-5.2.4l-.3-3.4z"/><path id="XMLID_585_" class="st42" d="M221.6 93.1s-3.4-.9-6.1-.7c-1.9.1-4.9 1.1-4.9 1.1l1.1 2.7s2.1-.1 4.2-.4c2.1-.2 5.2.6 5.2.6l.5-3.3z"/><path id="XMLID_2004_" class="st44" d="M227.8 112.5c0-.6-.9-1.2-2.1-1.2s-2.1.5-2.1 1.2 4.2.6 4.2 0z"/><path id="XMLID_580_" class="st6" d="M258.2 66.3c-7.4-4.5-19.6-8.2-27.9-8.6-8.4-.4-10-.1-14 3.1S208.9 78 208.9 78l-.1 1.4c24-6.3 54.3 18.4 54.3 18.4s1.7-7.6 3.6-15.8c1.9-8.2-1.1-11.2-8.5-15.7z"/><path id="XMLID_541_" class="st45" d="M202.7 88.2c-.9 1.1-10.6-6.5-10.8-10.3-.2-3.8.5-5.6 11-5.2 10.5.4 29 3.2 36.7 5.2 7.6 1.9 20.2 5.8 21.9 12.6 1.7 6.7 1.7 8.1 1.7 8.1S252.8 89 240 85.8c-13-3.4-31.7-4.4-37.3 2.4z"/><path id="XMLID_2005_" class="st41" d="M190.4 201.3l3.4-8.3-15-5.8-4.7 10.7c-.6 1.5-.8 2.7-.7 3.8.1 3.4 18.5 28.8 26.4 38.8 0 0 6-7.5 7.1-7.6l-16.5-31.6z"/><g id="XMLID_2007_"><path id="XMLID_2008_" class="st12" d="M234.3 185.7h-8.1v-2.9h8.1c1.7 0 3.1-1.4 3.1-3.2v-10.4c0-1.8-1.4-3.2-3.1-3.2h-7.6v-2.9h7.6c3.3 0 6 2.7 6 6.1v10.4c0 3.4-2.7 6.1-6 6.1z"/><circle id="XMLID_2009_" class="st13" cx="208.5" cy="160.1" r="4.4"/><ellipse id="XMLID_2010_" class="st13" cx="214.4" cy="157.4" rx="5.9" ry="5"/><circle id="XMLID_2011_" class="st13" cx="227.7" cy="160.2" r="3.4"/><ellipse id="XMLID_2012_" class="st13" cx="219.5" cy="158.8" rx="3.6" ry="3.6"/><circle id="XMLID_2013_" class="st13" cx="224.5" cy="158.2" r="3.4"/><path id="XMLID_2014_" class="st12" d="M231.1 160.8v29.1c0 2.4-2 4.4-4.4 4.4h-18.1c-2.4 0-4.4-2-4.4-4.4v-29.1h26.9z"/><path id="XMLID_2015_" class="st14" d="M229.7 189v.9c0 1.7-1.8 3.1-4 3.1h-16.3c-2.2 0-4-1.4-4-3.1v-.9h24.3z"/><path id="XMLID_2016_" class="st14" d="M208.9 168.1h1.4V185h-1.4z"/><path id="XMLID_2017_" class="st14" d="M216.8 168.1h1.4V185h-1.4z"/><path id="XMLID_2018_" class="st14" d="M224.6 168.1h1.4V185h-1.4z"/><path id="XMLID_2019_" class="st15" d="M204.1 160.6h27v3.4h-27z"/><path id="XMLID_2020_" class="st12" d="M214.1 154.7c2.8 0 5.2 2 5.2 4.5.1-.3.2-.7.2-1 0-2.3-2.3-4.2-5.1-4.2-2.3 0-4.2 1.3-4.8 3 .9-1.4 2.6-2.3 4.5-2.3z"/><path id="XMLID_2021_" class="st16" d="M205.5 188.1h24.2v.9h-24.2z"/></g><path id="XMLID_25_" class="st41" d="M249.9 181.1c-.5-.4-3.1-8.1-3.1-8.1l-6.3-8.2-1.2 1 1.5 4.9-6.4-2.9-.5 2.3 1.8 2-2-.2-.6 2.7 2.1 1.5-2.1-.2-.1 2.6 2 1.3-2 .2-.2 2.8 12.1 4.5 5-6.2z"/><path id="XMLID_2022_" class="st41" d="M258.9 198.5l-14.1-11.2 5.1-6.2 14.6 7z"/></g></g></g></g></svg>