<svg version="1.1" id="IMG_x5F_actividad" xmlns="http://www.w3.org/2000/svg" x="0px" y="0px" width="274px" height="274px" viewBox="0 0 274 274" xml:space="preserve"><style type="text/css">.st0{fill:#FBD6D9;} .st1{fill:#FFFFFF;} .st2{fill:#F498A1;} .st3{fill:#F1848E;} .st4{fill:#ED5463;} .st5{fill:#42281C;} .st6{fill:#B0704B;} .st7{fill:#F6F7FA;} .st8{fill:#B8A48B;} .st9{fill:#ED87C0;} .st10{fill:#A4582D;} .st11{fill:#D870AD;} .st12{fill:#B57856;} .st13{fill:none;stroke:#A15428;stroke-linecap:round;stroke-miterlimit:10;}</style><g id="XMLID_2347_"><g id="XMLID_2348_"><path id="XMLID_3188_" class="st0" d="M0 0h274v274H0z"/><g id="XMLID_2349_"><circle id="XMLID_2350_" class="st1" cx="195.7" cy="208.2" r="8.9"/><circle id="XMLID_2351_" class="st1" cx="195.7" cy="151.3" r="8.9"/><path id="XMLID_2352_" class="st1" d="M223.9 57.2c-4.9 0-8.9 4-8.9 8.9s4 8.9 8.9 8.9 8.9-4 8.9-8.9c0-5-4-8.9-8.9-8.9z"/><circle id="XMLID_2353_" class="st1" cx="195.7" cy="37.8" r="8.9"/><path id="XMLID_2354_" class="st1" d="M223.9.3c-4.9 0-8.9 4-8.9 8.9s4 8.9 8.9 8.9 8.9-4 8.9-8.9-4-8.9-8.9-8.9z"/><circle id="XMLID_2355_" class="st1" cx="195.7" cy="94.6" r="8.9"/><path id="XMLID_2356_" class="st1" d="M166.8.3c-4.9 0-8.9 4-8.9 8.9s4 8.9 8.9 8.9 8.9-4 8.9-8.9-4-8.9-8.9-8.9z"/><path id="XMLID_2357_" class="st1" d="M166.8 57.2c-4.9 0-8.9 4-8.9 8.9s4 8.9 8.9 8.9 8.9-4 8.9-8.9c0-5-4-8.9-8.9-8.9z"/><path id="XMLID_2358_" class="st1" d="M166.8 113.9c-4.9 0-8.9 4-8.9 8.9s4 8.9 8.9 8.9 8.9-4 8.9-8.9c0-5-4-8.9-8.9-8.9z"/><path id="XMLID_2359_" class="st1" d="M166.8 227.6c-4.9 0-8.9 4-8.9 8.9s4 8.9 8.9 8.9 8.9-4 8.9-8.9-4-8.9-8.9-8.9z"/><path id="XMLID_2360_" class="st1" d="M166.8 170.7c-4.9 0-8.9 4-8.9 8.9s4 8.9 8.9 8.9 8.9-4 8.9-8.9-4-8.9-8.9-8.9z"/><path id="XMLID_2361_" class="st1" d="M271.4 9.2c0 2.5 1 4.7 2.6 6.3V2.9c-1.6 1.6-2.6 3.8-2.6 6.3z"/><path id="XMLID_2362_" class="st1" d="M274 242.8v-12.6c-1.6 1.6-2.6 3.8-2.6 6.3 0 2.4 1 4.7 2.6 6.3z"/><path id="XMLID_2363_" class="st1" d="M274 72.3V59.8c-1.6 1.6-2.6 3.8-2.6 6.3 0 2.4 1 4.6 2.6 6.2z"/><path id="XMLID_2364_" class="st1" d="M274 129v-12.6c-1.6 1.6-2.6 3.8-2.6 6.3s1 4.7 2.6 6.3z"/><path id="XMLID_2365_" class="st1" d="M274 185.9v-12.6c-1.6 1.6-2.6 3.8-2.6 6.3 0 2.4 1 4.7 2.6 6.3z"/><path id="XMLID_2366_" class="st1" d="M223.9 113.9c-4.9 0-8.9 4-8.9 8.9s4 8.9 8.9 8.9 8.9-4 8.9-8.9c0-5-4-8.9-8.9-8.9z"/><path id="XMLID_2367_" class="st1" d="M223.9 170.7c-4.9 0-8.9 4-8.9 8.9s4 8.9 8.9 8.9 8.9-4 8.9-8.9-4-8.9-8.9-8.9z"/><path id="XMLID_2368_" class="st1" d="M223.9 227.6c-4.9 0-8.9 4-8.9 8.9s4 8.9 8.9 8.9 8.9-4 8.9-8.9-4-8.9-8.9-8.9z"/><circle id="XMLID_2369_" class="st1" cx="252.3" cy="94.6" r="8.9"/><circle id="XMLID_2370_" class="st1" cx="252.3" cy="37.8" r="8.9"/><circle id="XMLID_2371_" class="st1" cx="252.3" cy="151.3" r="8.9"/><circle id="XMLID_2372_" class="st1" cx="252.3" cy="208.2" r="8.9"/><circle id="XMLID_2373_" class="st1" cx="24.9" cy="208.1" r="8.9"/><circle id="XMLID_2374_" class="st1" cx="24.9" cy="37.8" r="8.9"/><circle id="XMLID_2375_" class="st1" cx="24.9" cy="94.6" r="8.9"/><path id="XMLID_2376_" class="st1" d="M0 17.1c2.9-1.5 4.9-4.4 4.9-7.9 0-3.4-2-6.4-4.9-7.9v15.8z"/><circle id="XMLID_2377_" class="st1" cx="24.9" cy="151.3" r="8.9"/><path id="XMLID_2378_" class="st1" d="M53.1 57.1c-4.9 0-8.9 4-8.9 8.9s4 8.9 8.9 8.9 8.9-4 8.9-8.9-4-8.9-8.9-8.9z"/><path id="XMLID_2379_" class="st1" d="M53.1 170.7c-4.9 0-8.9 4-8.9 8.9s4 8.9 8.9 8.9 8.9-4 8.9-8.9-4-8.9-8.9-8.9z"/><path id="XMLID_2380_" class="st1" d="M53.1 227.6c-4.9 0-8.9 4-8.9 8.9s4 8.9 8.9 8.9 8.9-4 8.9-8.9c0-5-4-8.9-8.9-8.9z"/><path id="XMLID_2381_" class="st1" d="M53.1 113.8c-4.9 0-8.9 4-8.9 8.9s4 8.9 8.9 8.9 8.9-4 8.9-8.9-4-8.9-8.9-8.9z"/><path id="XMLID_2382_" class="st1" d="M53.1.3c-4.9 0-8.9 4-8.9 8.9s4 8.9 8.9 8.9 8.9-4 8.9-8.9S58 .3 53.1.3z"/><path id="XMLID_2383_" class="st1" d="M0 171.7v15.8c2.9-1.5 4.9-4.4 4.9-7.9s-2-6.4-4.9-7.9z"/><path id="XMLID_2384_" class="st1" d="M0 114.8v15.8c2.9-1.5 4.9-4.4 4.9-7.9 0-3.4-2-6.4-4.9-7.9z"/><path id="XMLID_2385_" class="st1" d="M0 58.1v15.8c2.9-1.5 4.9-4.4 4.9-7.9 0-3.4-2-6.4-4.9-7.9z"/><path id="XMLID_2386_" class="st1" d="M0 228.6v15.8c2.9-1.5 4.9-4.4 4.9-7.9s-2-6.5-4.9-7.9z"/><path id="XMLID_2387_" class="st1" d="M110 113.9c-4.9 0-8.9 4-8.9 8.9s4 8.9 8.9 8.9 8.9-4 8.9-8.9c0-5-4-8.9-8.9-8.9z"/><path id="XMLID_2388_" class="st1" d="M110 227.6c-4.9 0-8.9 4-8.9 8.9s4 8.9 8.9 8.9 8.9-4 8.9-8.9-4-8.9-8.9-8.9z"/><path id="XMLID_2389_" class="st1" d="M110 170.7c-4.9 0-8.9 4-8.9 8.9s4 8.9 8.9 8.9 8.9-4 8.9-8.9-4-8.9-8.9-8.9z"/><circle id="XMLID_2390_" class="st1" cx="138.4" cy="208.2" r="8.9"/><path id="XMLID_2391_" class="st1" d="M110 57.2c-4.9 0-8.9 4-8.9 8.9s4 8.9 8.9 8.9 8.9-4 8.9-8.9c0-5-4-8.9-8.9-8.9z"/><path id="XMLID_2392_" class="st1" d="M110 .3c-4.9 0-8.9 4-8.9 8.9s4 8.9 8.9 8.9 8.9-4 8.9-8.9-4-8.9-8.9-8.9z"/><circle id="XMLID_2393_" class="st1" cx="138.4" cy="37.8" r="8.9"/><circle id="XMLID_2394_" class="st1" cx="138.4" cy="94.6" r="8.9"/><circle id="XMLID_2395_" class="st1" cx="138.4" cy="151.3" r="8.9"/><circle id="XMLID_2396_" class="st1" cx="81.5" cy="208.1" r="8.9"/><circle id="XMLID_2397_" class="st1" cx="81.5" cy="37.8" r="8.9"/><circle id="XMLID_2398_" class="st1" cx="81.5" cy="94.6" r="8.9"/><circle id="XMLID_2399_" class="st1" cx="81.5" cy="151.3" r="8.9"/></g><path id="XMLID_3136_" class="st2" d="M0 249.6h274v24.6H0z"/><g id="XMLID_2400_"><path id="XMLID_3135_" class="st3" d="M4.5 249.6h5v24.6h-5z"/><path id="XMLID_3134_" class="st3" d="M24.5 249.6h5v24.6h-5z"/><path id="XMLID_3133_" class="st3" d="M44.5 249.6h5v24.6h-5z"/><path id="XMLID_3132_" class="st3" d="M64.5 249.6h5v24.6h-5z"/><path id="XMLID_3131_" class="st3" d="M84.5 249.6h5v24.6h-5z"/><path id="XMLID_3130_" class="st3" d="M104.5 249.6h5v24.6h-5z"/><path id="XMLID_3129_" class="st3" d="M124.5 249.6h5v24.6h-5z"/><path id="XMLID_3128_" class="st3" d="M144.5 249.6h5v24.6h-5z"/><path id="XMLID_3127_" class="st3" d="M164.5 249.6h5v24.6h-5z"/><path id="XMLID_3126_" class="st3" d="M184.5 249.6h5v24.6h-5z"/><path id="XMLID_3125_" class="st3" d="M204.5 249.6h5v24.6h-5z"/><path id="XMLID_3124_" class="st3" d="M224.5 249.6h5v24.6h-5z"/><path id="XMLID_3123_" class="st3" d="M244.5 249.6h5v24.6h-5z"/><path id="XMLID_3122_" class="st3" d="M264.5 249.6h5v24.6h-5z"/></g><path id="XMLID_3120_" class="st4" d="M0 241.9h274v7.7H0z"/></g><g id="XMLID_2401_"><path id="XMLID_3113_" class="st5" d="M110.5 44.6s2.6-12 16.5-16.1 21.9 1.5 27.7 14.4a84 84 0 0 1 3.4 8.9c4.1 13.4-.8 24-.8 24s-23.7 6.2-40.9 12.5c0-.1-10.8-21-5.9-43.7z"/><path id="XMLID_818_" class="st6" d="M143.3 158.3l-5.5 87.6 5.1.9 14.6-85.3c-.1.1-11.4-10.2-14.2-3.2z"/><path id="XMLID_586_" class="st6" d="M141.3 237.4c-.4-1.5-14-32.4-18.4-36.6-4.4-4.2-7.9-5.5-9.5-5.8-1.6-.3-2.1 4.9 0 9.2 2.1 4.3 21.6 30.9 23.6 33 2 2.1 5.2 3.4 4.3.2z"/><path id="XMLID_2402_" class="st7" d="M119.2 250.7l1.8 3.3 8.5-4.1 8.3-7.3 1-12.4-4.9 3.3z"/><path id="XMLID_2403_" class="st7" d="M143.6 244.7l21 9.5.1 3.7-9.4.2-19-4.6 1.2-10z"/><path id="XMLID_2404_" class="st8" d="M117.1 210.4s-7.8-7.2-7.2-13.1c.7-5.9 14.9-54.7 14.9-54.7l17.1-1.9 15.4-1.3s2.4 3.2 4.8 16.4c1.5 8.1-11.4 60.8-13.3 61.7s-9.8-2-9.8-2l2-51-16.7 33.1 2.1 7.8-9.3 5z"/><path id="XMLID_541_" class="st9" d="M159.3 83.2s-10.9-2.4-17.6-1.8c-6.7.6-17.3 3.9-18.5 4.8-.6.5.7 17.7 1.3 32.4.5 11.1-.6 27.2-.6 27.2l36.6 1c.2-2-2-58.8-1.2-63.6z"/><path id="XMLID_540_" class="st6" d="M151.9 81.9s-3.3 6-12.5 5.7c-5.7-.2-8.9-4.2-8.9-4.2 3.4-.6 1.1-.6 12.4-3l9 1.5z"/><path id="XMLID_539_" class="st6" d="M137.2 85l.8-23.1 7.6-.7.3 22-4.6 3.9z"/><path id="XMLID_538_" class="st6" d="M112.4 60.2c2.4 11.5 13.4 22 23.6 19.8 13.5-2.9 17-18.7 14.6-30.2-2.4-11.5-13.8-17.6-25.4-15.1-11.4 2.4-15.2 14-12.8 25.5z"/><path id="XMLID_537_" d="M142.1 57.2c.3 1.5-.2 2.9-1.2 3.1-1 .2-2-.8-2.3-2.3-.3-1.5.6-1.6 1.5-1.8 1-.2 1.7-.5 2 1z"/><path id="XMLID_311_" d="M123.9 63.3c.3 1.5-.2 2.9-1.2 3.1-1 .2-2-.8-2.3-2.3-.3-1.5.6-1.6 1.5-1.8 1-.3 1.7-.5 2 1z"/><path id="XMLID_310_" class="st6" d="M148 54.5c.2 2.8 1 4.6 2.8 4.5 1.8-.1 4.7-2.7 4.5-5.5-.2-2.8-1.7-5-3.6-4.9-1.7.2-3.8 3.1-3.7 5.9z"/><path id="XMLID_309_" class="st5" d="M111.5 58c.3 1.2 13.9-12.4 14.3-16 .3-3.6 0-8.7-.7-9.1-.7-.4-9.3 2.5-13 9.4-2.7 4.9-1.3 12.9-.6 15.7z"/><path id="XMLID_308_" class="st5" d="M150.9 48.8c.1 1.2-21.8-4-23.9-6.8-2.1-2.8-2.3-8.4-1.9-9.1.4-.7 10.3-3.3 16.9.5 4.7 2.7 8.4 10 8.9 15.4z"/><path id="XMLID_307_" class="st5" d="M112.6 63.4c-.2-1.4-5.9-10.8.1-21.8 2.5-4.5 16.5-6.6 16.5-6.6l-7.9 20.3-5.9 18.4c0 .1-2.6-8.7-2.8-10.3z"/><path id="XMLID_102_" class="st5" d="M136.3 51.2s2.3-.8 4.2-1c1.4-.2 3.5 0 3.5 0l-.3 1s-1.1.4-2.6.5c-1.5.1-4.1 1.2-4.1 1.2l-.7-1.7z"/><path id="XMLID_101_" class="st5" d="M122.8 55s-2.4.5-4.1 1.3c-1.3.6-3 1.8-3 1.8l.8.7s1.1-.3 2.5-.9c1.3-.7 4.1-1.1 4.1-1.1l-.3-1.8z"/><path id="XMLID_100_" class="st10" d="M133.8 67.2c.1.4-3.4 1.4-3.5 1s.6-.9 1.6-1.2c.9-.3 1.8-.2 1.9.2z"/><path id="XMLID_99_" class="st11" d="M121.2 122.1c.1-.7 3.4-13.2 3.5-13.5.2-.5.1-14.7-.2-14.8-7.5-2.7-12.9 26.3-14.5 36.7 0 0 .7 5.5 4.5 4 8.4-3.3 29.2-17.7 29.5-18.2.1-.2-1.5-4-2.1-3.8-5.1 1.7-20.7 9.6-20.7 9.6z"/><path id="XMLID_98_" class="st11" d="M155.6 121.9c.5-5.7-1.2-11.8-1.1-20.8.1-9 2.7-17.3 3-17.4 5-2.8 5.9 10.3 5.7 22.3-.1 9.3-3.3 17.1-3.3 17.1l-4.3-1.2z"/><path id="XMLID_28_" class="st9" d="M153.8 102.4c0-4.1.6-6.4.9-9.4.5-5.7 2.3-10.2 2.5-10.2 6.1-.3 6.6 9.6 6.8 19.6.1.3-10.2.9-10.2 0z"/><g id="XMLID_2405_"><path id="XMLID_27_" class="st12" d="M157.4 123.8c2.5-1.5.8-7.5.7-10l-9.6-26.3-4.3 1.9 8.1 26.9c-.1 0 3 8.7 5.1 7.5z"/><path id="XMLID_26_" class="st11" d="M158.2 112.3l-8.5-21.5-4.6 1.8 5.8 27.1 1.2 3.5s2.7 2.7 5.2 2c3.3-1 3.5-4.8 3.5-4.8l-2.6-8.1z"/><path id="XMLID_25_" class="st12" d="M148.7 90.1c-.3-.4.1-7.2.1-7.2l-3.6-8-1 .4 2 6.3-4.3-5.2-1.5-1.4-.8 1.5.8 2.2-1.4-.6-.8 1.4.7 1.3-1.1-.2-.4 1.1 7.8 9.6 3.5-1.2z"/></g><path id="XMLID_8_" class="st13" d="M130.5 73.8s.8 0 5.4-1.3"/><path id="XMLID_2406_" class="st9" d="M123.2 86.2s-5.8 4.5-8.2 19.6l9.8 3.6 1.4-5c-.1 0 1.8-15.8-3-18.2z"/><path id="XMLID_6_" class="st6" d="M143.6 111.7c.5-.2 3.7-6.2 3.7-6.2l7.2-5 .7.9-4.9 4.4 6.4-2.3 2-.5.8 1.2-2.6 1.9 2.9.1v1.6l-.6.8 1.1.4-.2 1.1-13.7 4.3-2.3 1.4s-.5-1.2-.7-1.6c-.2-.3-.8-1.3-.8-1.3l1-1.2z"/></g></g></svg>