<svg version="1.1" id="IMG_x5F_actividad" xmlns="http://www.w3.org/2000/svg" x="0px" y="0px" width="274px" height="274px" viewBox="0 0 274 274" xml:space="preserve"><style type="text/css">.st0{fill:#FBD6D9;} .st1{fill:#F498A1;} .st2{fill:#F1848E;} .st3{fill:#ED5463;}</style><g id="XMLID_2348_"><path id="XMLID_3188_" class="st0" d="M.1 0h274v274H.1z"/><path id="XMLID_3136_" class="st1" d="M.1 249.5h274v24.6H.1z"/><g id="XMLID_2400_"><path id="XMLID_3135_" class="st2" d="M4.6 249.5h5v24.6h-5z"/><path id="XMLID_3134_" class="st2" d="M24.6 249.5h5v24.6h-5z"/><path id="XMLID_3133_" class="st2" d="M44.6 249.5h5v24.6h-5z"/><path id="XMLID_3132_" class="st2" d="M64.6 249.5h5v24.6h-5z"/><path id="XMLID_3131_" class="st2" d="M84.6 249.5h5v24.6h-5z"/><path id="XMLID_3130_" class="st2" d="M104.6 249.5h5v24.6h-5z"/><path id="XMLID_3129_" class="st2" d="M124.6 249.5h5v24.6h-5z"/><path id="XMLID_3128_" class="st2" d="M144.6 249.5h5v24.6h-5z"/><path id="XMLID_3127_" class="st2" d="M164.6 249.5h5v24.6h-5z"/><path id="XMLID_3126_" class="st2" d="M184.6 249.5h5v24.6h-5z"/><path id="XMLID_3125_" class="st2" d="M204.6 249.5h5v24.6h-5z"/><path id="XMLID_3124_" class="st2" d="M224.6 249.5h5v24.6h-5z"/><path id="XMLID_3123_" class="st2" d="M244.6 249.5h5v24.6h-5z"/><path id="XMLID_3122_" class="st2" d="M264.6 249.5h5v24.6h-5z"/></g><path id="XMLID_3120_" class="st3" d="M.1 241.8h274v7.7H.1z"/></g></svg>