<svg version="1.1" id="Layer_1" xmlns="http://www.w3.org/2000/svg" xmlns:xlink="http://www.w3.org/1999/xlink" x="0px" y="0px" width="459px" height="128px" viewBox="0 0 459 128" xml:space="preserve"><style type="text/css">.st0{fill:#9F1B96;} .st1{fill:#A9BCD6;} .st2{fill:#CB2B99;} .st3{fill:#A3167F;} .st4{fill:none;stroke:#CB2B99;} .st5{clip-path:url(#XMLID_17_);fill:#532D6D;} .st6{fill:#FFFFFF;}</style><g id="XMLID_3169_"><path id="XMLID_4240_" class="st0" d="M219.94 17.43h3.44v105.52h-3.44z"/><path id="XMLID_4237_" class="st0" d="M246.75 37.5l1.17 4.2c.06.14.02.3-.22.3h-1.09c-.1 0-.26 0-.32-.22l-1.07-3.85c-.48-1.63-1.47-2.02-2.8-2.02h-3.11v5.83c0 .22-.06.26-.28.26h-1.01c-.22 0-.28-.04-.28-.26V29.01c0-.61.22-.93.93-.93h4.5c2.52 0 4.1 1.63 4.1 3.85 0 1.59-.81 2.92-2.32 3.45v.06c1.12.37 1.5 1.05 1.8 2.06zM243 29.51h-3.67v5.06h3.55c1.96 0 2.84-1.05 2.84-2.56-.01-1.3-.76-2.5-2.72-2.5z"/><path id="XMLID_4234_" class="st0" d="M257.93 35.81c0 1.11-.59 1.37-1.33 1.37h-6.05c0 2.78 1.47 3.77 3.31 3.77.87 0 1.76-.24 2.34-.56.16-.08.28-.06.34.08l.36.69c.08.16.04.28-.1.34-.93.56-2.02.71-3.03.71-2.91 0-4.68-1.63-4.68-5.37 0-3.55 1.9-5.47 4.52-5.47 2.99 0 4.32 1.84 4.32 4.44zm-4.32-3.21c-1.86 0-2.9 1.51-3 3.39h5.93c0-1.8-.63-3.39-2.93-3.39z"/><path id="XMLID_4197_" class="st0" d="M264.1 31.37c.69 0 1.61.06 2.54.36v-3.97c0-.22.06-.26.28-.26h.93c.18 0 .26.04.26.26v13.45c0 .16-.06.26-.2.32-1.35.58-2.84.69-4.02.69-3.25 0-4.52-2.02-4.52-5.27-.01-2.96 1.46-5.58 4.73-5.58zm.04 9.6c.69 0 1.8-.16 2.5-.42v-7.52c-1.09-.38-1.82-.42-2.44-.42-1.94 0-3.33 1.37-3.33 4.32 0 3.05 1.3 4.04 3.27 4.04z"/><path id="XMLID_4193_" class="st0" d="M279.66 31.37c.69 0 1.61.06 2.54.36v-3.97c0-.22.06-.26.28-.26h.93c.18 0 .26.04.26.26v13.45c0 .16-.06.26-.2.32-1.35.58-2.84.69-4.02.69-3.25 0-4.52-2.02-4.52-5.27 0-2.96 1.46-5.58 4.73-5.58zm.04 9.6c.69 0 1.8-.16 2.5-.42v-7.52c-1.09-.38-1.82-.42-2.44-.42-1.94 0-3.33 1.37-3.33 4.32 0 3.05 1.31 4.04 3.27 4.04z"/><path id="XMLID_4190_" class="st0" d="M294.4 35.81c0 1.11-.6 1.37-1.33 1.37h-6.05c0 2.78 1.47 3.77 3.31 3.77.87 0 1.76-.24 2.34-.56.16-.08.28-.06.34.08l.36.69c.08.16.04.28-.1.34-.93.56-2.02.71-3.03.71-2.92 0-4.68-1.63-4.68-5.37 0-3.55 1.9-5.47 4.52-5.47 2.99 0 4.32 1.84 4.32 4.44zm-4.32-3.21c-1.86 0-2.9 1.51-2.99 3.39h5.93c-.01-1.8-.64-3.39-2.94-3.39z"/><path id="XMLID_4188_" class="st0" d="M300.17 41.13c-.16-.1-.24-.16-.1-.4l.42-.77c.08-.14.2-.16.38-.06.97.61 2.3.93 3.51.93 2.56 0 3.53-1.43 3.53-4.2v-8.25c0-.22.1-.26.28-.26h.97c.22 0 .28.04.28.26v8.37c0 3.51-1.61 5.47-5.12 5.47-1.18 0-2.82-.22-4.15-1.09z"/><path id="XMLID_4184_" class="st0" d="M316.17 42.22c-2.93 0-4.52-1.86-4.52-5.41 0-3.51 1.9-5.43 4.58-5.43 2.96 0 4.54 1.98 4.54 5.37 0 3.54-1.64 5.47-4.6 5.47zm.06-9.62c-2.22 0-3.13 1.92-3.13 4.14 0 2.46.77 4.26 3.09 4.26 2.4 0 3.11-2.14 3.11-4.2.01-2.18-.61-4.2-3.07-4.2zm-.73-2.76l1.29-2.95c.06-.14.12-.22.34-.2l1.17.3c.2.04.24.14.12.28l-2 2.91c-.1.14-.22.18-.36.12l-.48-.18c-.14-.06-.18-.06-.08-.28z"/><path id="XMLID_4182_" class="st0" d="M326.47 42.08h-.66c-.46 0-.65-.14-.87-.75l-3.35-9.56c-.06-.12 0-.18.14-.18h1.11c.16 0 .18.06.24.16l2.08 5.95.95 3.01h.1l.91-2.97 2.02-5.99c.02-.1.1-.16.24-.16h1.09c.12 0 .16.06.14.18l-3.29 9.54c-.22.55-.32.77-.85.77z"/><path id="XMLID_4179_" class="st0" d="M340.27 35.81c0 1.11-.6 1.37-1.33 1.37h-6.05c0 2.78 1.47 3.77 3.31 3.77.87 0 1.77-.24 2.34-.56.16-.08.28-.06.34.08l.36.69c.08.16.04.28-.1.34-.93.56-2.02.71-3.03.71-2.91 0-4.68-1.63-4.68-5.37 0-3.55 1.9-5.47 4.52-5.47 2.99 0 4.32 1.84 4.32 4.44zm-4.33-3.21c-1.86 0-2.9 1.51-3 3.39h5.93c.01-1.8-.63-3.39-2.93-3.39z"/><path id="XMLID_4177_" class="st0" d="M350.24 42h-.91c-.18 0-.28-.04-.28-.26v-5.29c0-2.54-.67-3.79-3.39-3.79-.32 0-1.19.02-2.12.2v8.88c0 .22-.06.26-.28.26h-.89c-.18 0-.28-.04-.28-.26v-8.86c0-.75.36-1.19 1.07-1.31.63-.1 1.96-.2 2.6-.2 3.39 0 4.76 1.41 4.76 5v5.37c0 .22-.06.26-.28.26z"/><path id="XMLID_4174_" class="st0" d="M361.25 35.81c0 1.11-.6 1.37-1.33 1.37h-6.05c0 2.78 1.47 3.77 3.31 3.77.87 0 1.77-.24 2.34-.56.16-.08.28-.06.34.08l.36.69c.08.16.04.28-.1.34-.93.56-2.02.71-3.03.71-2.91 0-4.68-1.63-4.68-5.37 0-3.55 1.9-5.47 4.52-5.47 2.99 0 4.32 1.84 4.32 4.44zm-4.32-3.21c-1.86 0-2.9 1.51-3 3.39h5.93c0-1.8-.63-3.39-2.93-3.39z"/><path id="XMLID_4172_" class="st0" d="M366.37 42.22c-1.21 0-2.7-.22-3.75-.77-.14-.06-.22-.18-.12-.36l.32-.67c.06-.16.2-.2.38-.14 1.05.5 2.24.71 3.17.71 1.35 0 2.28-.56 2.28-1.67 0-1.05-.93-1.55-2.58-2.16-2.28-.79-3.13-1.51-3.13-2.99 0-1.61 1.23-2.8 3.47-2.8 1.09 0 2.06.16 3.07.57.14.06.2.18.14.34l-.32.77c-.08.14-.14.14-.28.08-1.01-.4-1.77-.54-2.66-.54-1.21 0-2 .61-2 1.49 0 .99.69 1.37 2.5 2 1.72.63 3.19 1.41 3.19 3.17 0 1.98-1.56 2.97-3.68 2.97z"/><path id="XMLID_4169_" class="st0" d="M241.71 64.88c-.77 0-1.71-.08-2.72-.38v3.95c0 .22-.04.24-.26.24h-.91c-.18 0-.28-.02-.28-.24V55.06c0-.16.08-.26.22-.32 1.27-.56 2.72-.71 3.99-.71 3.13 0 4.54 2.22 4.54 5.39 0 3.06-1.49 5.46-4.58 5.46zm-.2-9.6c-.71 0-1.8.14-2.52.44v7.5c1.11.38 1.88.42 2.5.42 1.9 0 3.29-1.17 3.29-4.2 0-3.13-1.33-4.16-3.27-4.16z"/><path id="XMLID_4166_" class="st0" d="M252.3 64.88c-2.93 0-4.52-1.86-4.52-5.41 0-3.51 1.9-5.43 4.58-5.43 2.95 0 4.54 1.98 4.54 5.37 0 3.55-1.65 5.47-4.6 5.47zm.06-9.62c-2.22 0-3.13 1.92-3.13 4.14 0 2.46.77 4.26 3.09 4.26 2.4 0 3.11-2.14 3.11-4.2 0-2.17-.61-4.2-3.07-4.2z"/><path id="XMLID_4164_" class="st0" d="M264.65 56.49a4.146 4.146 0 0 0-2.9-1.15c-.38 0-.83 0-1.37.14v8.92c0 .22-.06.26-.28.26h-.89c-.18 0-.26-.04-.26-.26v-8.94c0-.81.2-1.17 1.05-1.31.59-.08 1.15-.12 1.65-.12 1.55 0 2.84.46 3.89 1.37.1.1.1.18.02.28l-.61.79c-.14.14-.2.1-.3.02z"/><path id="XMLID_4162_" class="st0" d="M274.79 64.64c-.46.18-.99.22-1.39.22-1.27 0-1.68-.61-1.68-1.88V50.42c0-.22.06-.26.28-.26h.91c.22 0 .28.04.28.26v12.12c0 .77.16 1.03.73 1.03.26 0 .5-.04.71-.06.14-.02.22.02.24.16l.1.65c.01.22-.01.24-.18.32z"/><path id="XMLID_4159_" class="st0" d="M280.42 64.88c-2.94 0-4.52-1.86-4.52-5.41 0-3.51 1.9-5.43 4.58-5.43 2.95 0 4.54 1.98 4.54 5.37 0 3.55-1.65 5.47-4.6 5.47zm.06-9.62c-2.22 0-3.13 1.92-3.13 4.14 0 2.46.77 4.26 3.09 4.26 2.4 0 3.11-2.14 3.11-4.2 0-2.17-.61-4.2-3.07-4.2z"/><path id="XMLID_4157_" class="st0" d="M290.19 64.88c-1.21 0-2.7-.22-3.75-.77-.14-.06-.22-.18-.12-.36l.32-.67c.06-.16.2-.2.38-.14 1.05.5 2.24.71 3.17.71 1.35 0 2.28-.56 2.28-1.67 0-1.05-.93-1.55-2.58-2.16-2.28-.79-3.13-1.51-3.13-2.99 0-1.61 1.23-2.8 3.47-2.8 1.09 0 2.06.16 3.07.57.14.06.2.18.14.34l-.32.77c-.08.14-.14.14-.28.08-1.01-.4-1.77-.54-2.66-.54-1.21 0-2 .61-2 1.49 0 .99.69 1.37 2.5 2 1.73.63 3.19 1.41 3.19 3.17.01 1.98-1.55 2.97-3.68 2.97z"/><path id="XMLID_4154_" class="st0" d="M300.74 63.75V51.69c0-.61.22-.93.93-.93l3.49-.02c4.11 0 6.23 2.66 6.23 6.88 0 4.18-1.94 7.04-6.03 7.04h-3.69c-.65 0-.93-.26-.93-.91zm4.35-11.6h-2.8v11.11h2.89c3.43 0 4.62-2.38 4.62-5.59.01-3.02-1.14-5.52-4.71-5.52z"/><path id="XMLID_4151_" class="st0" d="M321.92 58.48c0 1.11-.59 1.37-1.33 1.37h-6.05c0 2.78 1.47 3.77 3.31 3.77.87 0 1.76-.24 2.34-.56.16-.08.28-.06.34.08l.36.69c.08.16.04.28-.1.34-.93.56-2.02.71-3.03.71-2.92 0-4.68-1.63-4.68-5.37 0-3.55 1.9-5.47 4.52-5.47 2.99-.01 4.32 1.84 4.32 4.44zm-4.32-3.22c-1.86 0-2.9 1.51-2.99 3.39h5.93c-.01-1.8-.64-3.39-2.94-3.39z"/><path id="XMLID_4149_" class="st0" d="M329.62 56.49a4.146 4.146 0 0 0-2.9-1.15c-.38 0-.83 0-1.37.14v8.92c0 .22-.06.26-.28.26h-.89c-.18 0-.26-.04-.26-.26v-8.94c0-.81.2-1.17 1.05-1.31.6-.08 1.15-.12 1.65-.12 1.55 0 2.84.46 3.89 1.37.1.1.1.18.02.28l-.61.79c-.14.14-.2.1-.3.02z"/><path id="XMLID_4146_" class="st0" d="M339.59 58.48c0 1.11-.6 1.37-1.33 1.37h-6.05c0 2.78 1.47 3.77 3.31 3.77.87 0 1.77-.24 2.34-.56.16-.08.28-.06.34.08l.36.69c.08.16.04.28-.1.34-.93.56-2.02.71-3.03.71-2.91 0-4.68-1.63-4.68-5.37 0-3.55 1.9-5.47 4.52-5.47 2.99-.01 4.32 1.84 4.32 4.44zm-4.32-3.22c-1.86 0-2.9 1.51-3 3.39h5.93c0-1.8-.63-3.39-2.93-3.39z"/><path id="XMLID_4144_" class="st0" d="M348.2 63.02c.22-.1.28-.04.36.1l.32.69c.14.16.06.26-.08.36-1.01.54-2.18.71-3.27.71-2.95 0-4.5-1.77-4.5-5.31 0-3.41 1.8-5.53 4.68-5.53 1.03 0 1.96.2 2.9.69.16.1.2.22.1.36l-.36.67c-.06.14-.12.2-.34.1-.65-.3-1.41-.54-2.3-.54-2.3 0-3.23 2.02-3.23 4.24 0 2.28.77 4.07 3.25 4.07.92 0 1.85-.28 2.47-.61z"/><path id="XMLID_4140_" class="st0" d="M358.67 64.66h-.93c-.22 0-.28-.04-.28-.26v-5.81c0-2.24-.89-3.29-2.88-3.29-.77 0-1.9.14-2.64.48v8.63c0 .22-.06.26-.28.26h-.89c-.18 0-.28-.04-.28-.26V50.42c0-.22.1-.26.28-.26h.89c.22 0 .28.04.28.26v4.1c.95-.38 2.1-.5 2.88-.5 2.99 0 4.12 1.74 4.12 4.6l-.02 5.77c.01.23-.07.27-.25.27z"/><path id="XMLID_4066_" class="st0" d="M365.33 64.88c-2.93 0-4.52-1.86-4.52-5.41 0-3.51 1.9-5.43 4.58-5.43 2.96 0 4.54 1.98 4.54 5.37 0 3.55-1.64 5.47-4.6 5.47zm.06-9.62c-2.22 0-3.13 1.92-3.13 4.14 0 2.46.77 4.26 3.09 4.26 2.4 0 3.11-2.14 3.11-4.2.01-2.17-.61-4.2-3.07-4.2z"/><path id="XMLID_4064_" class="st0" d="M375.11 64.88c-1.21 0-2.7-.22-3.75-.77-.14-.06-.22-.18-.12-.36l.32-.67c.06-.16.2-.2.38-.14 1.05.5 2.24.71 3.17.71 1.35 0 2.28-.56 2.28-1.67 0-1.05-.93-1.55-2.58-2.16-2.28-.79-3.13-1.51-3.13-2.99 0-1.61 1.23-2.8 3.47-2.8 1.09 0 2.06.16 3.07.57.14.06.2.18.14.34l-.32.77c-.08.14-.14.14-.28.08-1.01-.4-1.76-.54-2.66-.54-1.21 0-2 .61-2 1.49 0 .99.69 1.37 2.5 2 1.73.63 3.19 1.41 3.19 3.17.01 1.98-1.56 2.97-3.68 2.97z"/><path id="XMLID_4062_" class="st0" d="M389.88 64.88c-1.39 0-3.37-.26-4.94-1.07-.14-.06-.16-.18-.08-.34l.4-.87c.06-.14.16-.16.3-.1 1.33.63 3.13.99 4.34.99 1.76 0 3.29-.73 3.29-2.4 0-1.45-1.17-2.22-3.53-3.01-2.92-.95-4.26-1.84-4.26-3.89 0-2.14 1.63-3.65 4.46-3.65 1.29 0 2.68.2 3.97.81.14.06.18.16.12.3l-.38.93c-.06.1-.14.14-.24.1-1.35-.56-2.48-.75-3.51-.75-1.69 0-2.86.87-2.86 2.16 0 1.47 1.17 1.9 3.49 2.76 2.42.83 4.3 1.78 4.3 4.16.01 2.52-1.97 3.87-4.87 3.87z"/><path id="XMLID_4059_" class="st0" d="M404.76 58.48c0 1.11-.59 1.37-1.33 1.37h-6.05c0 2.78 1.47 3.77 3.31 3.77.87 0 1.76-.24 2.34-.56.16-.08.28-.06.34.08l.36.69c.08.16.04.28-.1.34-.93.56-2.02.71-3.03.71-2.91 0-4.68-1.63-4.68-5.37 0-3.55 1.9-5.47 4.52-5.47 2.99-.01 4.32 1.84 4.32 4.44zm-4.33-3.22c-1.86 0-2.9 1.51-2.99 3.39h5.93c0-1.8-.64-3.39-2.94-3.39z"/><path id="XMLID_4057_" class="st0" d="M414.12 64.42c.06.08.1.24-.12.24h-1.21c-.26 0-.3-.06-.38-.2l-2.64-4.3-2.72 4.28c-.08.14-.16.22-.38.22h-1.07c-.18 0-.22-.08-.12-.26l3.47-5.28-2.99-4.62c-.06-.08-.1-.26.12-.26h1.11c.22 0 .3.06.38.2l2.26 3.65 2.28-3.65c.08-.14.14-.2.36-.2h1.07c.22 0 .2.16.14.22l-3.05 4.6 3.49 5.36z"/><path id="XMLID_4055_" class="st0" d="M415.57 54.23h.89c.22 0 .28.04.28.26v5.39c0 2.58.5 3.69 3.29 3.69.32 0 1.17-.02 2.1-.2v-8.88c0-.22.06-.26.28-.26h.91c.18 0 .28.04.28.26v8.88c0 .73-.36 1.17-1.09 1.31-.73.1-1.94.18-2.58.18-3.41 0-4.64-1.29-4.64-4.86v-5.51c0-.22.06-.26.28-.26z"/><path id="XMLID_4052_" class="st0" d="M433.53 64.23c-1.19.5-2.6.65-3.85.65-3.37 0-4.22-1.59-4.22-3.25 0-1.98 1.35-3.51 4.24-3.51h2.64v-.54c0-1.35-.42-2.28-2.54-2.28-.87 0-2.04.2-2.78.44-.18.06-.28.06-.34-.12l-.2-.71c-.04-.14.02-.24.16-.3.95-.38 2.3-.57 3.39-.57 2.56 0 3.77 1.15 3.77 3.35v6.37c.01.23-.09.39-.27.47zm-3.77-4.84c-.97 0-2.86.18-2.86 2.24 0 1.61 1.33 2.04 2.76 2.04.48 0 1.74-.1 2.66-.42v-3.87h-2.56z"/><path id="XMLID_4050_" class="st0" d="M439.36 64.64c-.46.18-.99.22-1.39.22-1.27 0-1.69-.61-1.69-1.88V50.42c0-.22.06-.26.28-.26h.91c.22 0 .28.04.28.26v12.12c0 .77.16 1.03.73 1.03.26 0 .5-.04.71-.06.14-.02.22.02.24.16l.1.65c.03.22.01.24-.17.32z"/><path id="XMLID_4047_" class="st0" d="M449.32 58.48c0 1.11-.6 1.37-1.33 1.37h-6.05c0 2.78 1.47 3.77 3.31 3.77.87 0 1.76-.24 2.34-.56.16-.08.28-.06.34.08l.36.69c.08.16.04.28-.1.34-.93.56-2.02.71-3.03.71-2.91 0-4.68-1.63-4.68-5.37 0-3.55 1.9-5.47 4.52-5.47 2.99-.01 4.32 1.84 4.32 4.44zm-4.33-3.22c-1.86 0-2.9 1.51-2.99 3.39h5.93c0-1.8-.64-3.39-2.94-3.39z"/><path id="XMLID_4045_" class="st0" d="M454.43 64.88c-1.21 0-2.7-.22-3.75-.77-.14-.06-.22-.18-.12-.36l.32-.67c.06-.16.2-.2.38-.14 1.05.5 2.24.71 3.17.71 1.35 0 2.28-.56 2.28-1.67 0-1.05-.93-1.55-2.58-2.16-2.28-.79-3.13-1.51-3.13-2.99 0-1.61 1.23-2.8 3.47-2.8 1.09 0 2.06.16 3.07.57.14.06.2.18.14.34l-.32.77c-.08.14-.14.14-.28.08-1.01-.4-1.77-.54-2.66-.54-1.21 0-2 .61-2 1.49 0 .99.69 1.37 2.5 2 1.73.63 3.19 1.41 3.19 3.17.01 1.98-1.55 2.97-3.68 2.97z"/><path id="XMLID_4043_" class="st0" d="M238.62 91.47c-.38 0-.93 0-1.59-.22-.18-.06-.26-.16-.22-.3l.2-.73c.06-.18.14-.2.3-.14.56.14.75.16 1.07.16.83 0 1.37-.2 1.74-1.37l.6-1.63h-.34c-.3 0-.54-.02-.71-.57l-3.17-9.56c-.04-.14 0-.2.14-.2h1.09c.18 0 .2.04.26.18.38 1.17 1.53 4.74 1.94 5.89.16.4.81 2.84.97 3.27h.1c.32-.93.99-3.13 1.09-3.41.16-.36 1.11-3.27 2-5.73.06-.14.08-.2.26-.2h1.03c.14 0 .2.06.16.2l-4.08 11.96c-.62 1.81-1.44 2.4-2.84 2.4z"/><path id="XMLID_4040_" class="st0" d="M260.89 82.83l1.17 4.2c.06.14.02.3-.22.3h-1.09c-.1 0-.26 0-.32-.22l-1.07-3.85c-.48-1.63-1.47-2.02-2.8-2.02h-3.11v5.83c0 .22-.06.26-.28.26h-1.01c-.22 0-.28-.04-.28-.26V74.34c0-.61.22-.93.93-.93h4.5c2.52 0 4.11 1.63 4.11 3.85 0 1.59-.81 2.91-2.32 3.45v.06c1.11.37 1.49 1.04 1.79 2.06zm-3.75-8h-3.67v5.06h3.55c1.96 0 2.84-1.05 2.84-2.56-.01-1.29-.76-2.5-2.72-2.5z"/><path id="XMLID_4037_" class="st0" d="M272.07 81.14c0 1.11-.6 1.37-1.33 1.37h-6.05c0 2.78 1.47 3.77 3.31 3.77.87 0 1.77-.24 2.34-.56.16-.08.28-.06.34.08l.36.69c.08.16.04.28-.1.34-.93.56-2.02.72-3.03.72-2.91 0-4.68-1.63-4.68-5.37 0-3.55 1.9-5.47 4.52-5.47 2.99-.01 4.32 1.83 4.32 4.43zm-4.32-3.21c-1.86 0-2.9 1.51-2.99 3.39h5.93c-.01-1.81-.64-3.39-2.94-3.39z"/><path id="XMLID_4034_" class="st0" d="M278.06 87.55c-.77 0-1.7-.08-2.72-.38v3.95c0 .22-.04.24-.26.24h-.91c-.18 0-.28-.02-.28-.24V77.73c0-.16.08-.26.22-.32 1.27-.56 2.72-.72 3.99-.72 3.13 0 4.54 2.22 4.54 5.4 0 3.06-1.49 5.46-4.58 5.46zm-.2-9.6c-.71 0-1.8.14-2.52.44v7.49c1.11.38 1.88.42 2.5.42 1.9 0 3.29-1.17 3.29-4.2 0-3.12-1.33-4.15-3.27-4.15z"/><path id="XMLID_4032_" class="st0" d="M290.39 79.16a4.146 4.146 0 0 0-2.9-1.15c-.38 0-.83 0-1.37.14v8.92c0 .22-.06.26-.28.26h-.89c-.18 0-.26-.04-.26-.26v-8.94c0-.81.2-1.17 1.05-1.31.6-.08 1.15-.12 1.65-.12 1.55 0 2.84.46 3.89 1.37.1.1.1.18.02.28l-.61.79c-.14.14-.2.1-.3.02z"/><path id="XMLID_4029_" class="st0" d="M296.05 87.55c-2.93 0-4.52-1.86-4.52-5.41 0-3.51 1.9-5.43 4.58-5.43 2.96 0 4.54 1.98 4.54 5.38 0 3.53-1.65 5.46-4.6 5.46zm.05-9.62c-2.22 0-3.13 1.92-3.13 4.15 0 2.46.77 4.26 3.09 4.26 2.4 0 3.11-2.14 3.11-4.21.01-2.18-.61-4.2-3.07-4.2z"/><path id="XMLID_4026_" class="st0" d="M306.87 76.7c.69 0 1.61.06 2.54.36v-3.97c0-.22.06-.26.28-.26h.93c.18 0 .26.04.26.26v13.45c0 .16-.06.26-.2.32-1.35.57-2.84.69-4.02.69-3.25 0-4.52-2.02-4.52-5.27-.01-2.96 1.46-5.58 4.73-5.58zm.04 9.6c.69 0 1.8-.16 2.5-.42v-7.51c-1.09-.38-1.82-.42-2.44-.42-1.94 0-3.33 1.37-3.33 4.32 0 3.03 1.31 4.03 3.27 4.03z"/><path id="XMLID_4024_" class="st0" d="M313.44 76.9h.89c.22 0 .28.04.28.26v5.39c0 2.58.5 3.69 3.29 3.69.32 0 1.17-.02 2.1-.2v-8.88c0-.22.06-.26.28-.26h.91c.18 0 .28.04.28.26v8.88c0 .74-.36 1.17-1.09 1.31-.73.1-1.94.18-2.58.18-3.41 0-4.64-1.29-4.64-4.86v-5.51c0-.22.06-.26.28-.26z"/><path id="XMLID_4022_" class="st0" d="M330.53 85.68c.22-.1.28-.04.36.1l.32.69c.14.16.06.26-.08.36-1.01.54-2.18.72-3.27.72-2.95 0-4.5-1.76-4.5-5.31 0-3.41 1.8-5.53 4.68-5.53 1.03 0 1.96.2 2.9.7.16.1.2.22.1.36l-.36.67c-.06.14-.12.2-.34.1-.65-.3-1.41-.54-2.3-.54-2.3 0-3.23 2.02-3.23 4.24 0 2.28.77 4.07 3.25 4.07.92-.01 1.86-.29 2.47-.63z"/><path id="XMLID_4020_" class="st0" d="M331.94 77.85v-.48c0-.18.02-.24.24-.3l1.57-.26.28-1.92c.02-.24.08-.28.3-.36l.54-.2c.18-.04.28.04.28.22v2.36h2.32c.22 0 .24.1.24.26v.67c0 .16-.02.24-.24.24h-2.32v6.68c0 .97.32 1.47 1.45 1.47.32 0 1.03-.06 1.53-.16.22-.02.24 0 .26.14l.16.76c.02.14.04.22-.14.3-.73.22-1.65.26-2.02.26-2 0-2.7-.83-2.7-2.64v-6.8h-1.49c-.24 0-.26-.1-.26-.24z"/><path id="XMLID_4017_" class="st0" d="M340.84 75.03c-.54 0-.99-.42-.99-.97 0-.56.46-1.01.99-1.01.56 0 .99.46.99 1.01 0 .56-.43.97-.99.97zm.44 12.3h-.89c-.18 0-.28-.04-.28-.26v-9.89c0-.22.1-.26.28-.26h.89c.22 0 .28.04.28.26v9.89c0 .22-.06.26-.28.26z"/><path id="XMLID_3562_" class="st0" d="M348.08 87.41h-.65c-.46 0-.65-.14-.87-.75l-3.35-9.56c-.06-.12 0-.18.14-.18h1.11c.16 0 .18.06.24.16l2.08 5.95.95 3.01h.1l.91-2.97 2.02-5.99c.02-.1.1-.16.24-.16h1.09c.12 0 .16.06.14.18l-3.29 9.54c-.22.55-.32.77-.86.77z"/><path id="XMLID_3559_" class="st0" d="M357.56 87.55c-2.93 0-4.52-1.86-4.52-5.41 0-3.51 1.9-5.43 4.58-5.43 2.96 0 4.54 1.98 4.54 5.38 0 3.53-1.65 5.46-4.6 5.46zm.06-9.62c-2.22 0-3.13 1.92-3.13 4.15 0 2.46.77 4.26 3.09 4.26 2.4 0 3.11-2.14 3.11-4.21 0-2.18-.61-4.2-3.07-4.2z"/><path id="XMLID_3557_" class="st0" d="M367.34 87.55c-1.21 0-2.7-.22-3.75-.77-.14-.06-.22-.18-.12-.36l.32-.67c.06-.16.2-.2.38-.14 1.05.5 2.24.71 3.17.71 1.35 0 2.28-.56 2.28-1.67 0-1.05-.93-1.55-2.58-2.16-2.28-.79-3.13-1.51-3.13-2.99 0-1.61 1.23-2.8 3.47-2.8 1.09 0 2.06.16 3.07.58.14.06.2.18.14.34l-.32.77c-.08.14-.14.14-.28.08-1.01-.4-1.76-.54-2.66-.54-1.21 0-2 .61-2 1.49 0 .99.69 1.37 2.5 2 1.73.63 3.19 1.41 3.19 3.17 0 1.96-1.56 2.96-3.68 2.96z"/><path id="XMLID_3555_" class="st0" d="M373.42 89.77h-.48c-.24 0-.34-.1-.32-.28l.3-4.05c.02-.18.12-.34.36-.34h1.37c.24 0 .36.16.3.32l-1.17 4.05c-.06.22-.12.3-.36.3z"/><path id="XMLID_3552_" class="st0" d="M390.52 87.07l-1.05-3.05h-5.89c-.16.38-.89 2.7-1.05 3.05-.06.18-.18.26-.36.26h-1.13c-.22 0-.28-.16-.22-.32l4.58-12.91c.22-.56.34-.67.87-.69h.52c.61 0 .73.16.91.69l4.52 12.91c.06.14.02.32-.2.32h-1.11c-.21 0-.31 0-.39-.26zm-3.95-11.98h-.1l-.95 2.93-1.53 4.62h5.04l-1.49-4.54-.97-3.01z"/><path id="XMLID_3529_" class="st0" d="M394.58 87.57c-.69 0-1.21-.52-1.21-1.21 0-.7.52-1.19 1.21-1.19s1.21.49 1.21 1.19c0 .69-.51 1.21-1.21 1.21z"/><path id="XMLID_3527_" class="st0" d="M407.08 85.34c.26-.1.34 0 .4.14l.32.69c.14.26.08.34-.08.44-1.31.79-2.99.93-4.17.93-3.63 0-5.81-2.16-5.81-6.96 0-4.5 2.38-7.34 5.93-7.34 1.13 0 2.34.14 3.69.83.14.06.22.16.08.4l-.38.75c-.08.14-.14.2-.32.12-1.01-.48-2-.67-3.01-.67-3.09 0-4.42 2.84-4.42 5.91 0 3.17 1.15 5.53 4.5 5.53 1.19.01 2.26-.29 3.27-.77z"/><path id="XMLID_3525_" class="st0" d="M410.37 87.57c-.69 0-1.21-.52-1.21-1.21 0-.7.52-1.19 1.21-1.19s1.21.49 1.21 1.19c0 .69-.52 1.21-1.21 1.21z"/><path id="XMLID_3522_" class="st0" d="M246.75 106.91l1.17 4.21c.06.14.02.3-.22.3h-1.09c-.1 0-.26 0-.32-.22l-1.07-3.85c-.48-1.63-1.47-2.02-2.8-2.02h-3.11v5.83c0 .22-.06.26-.28.26h-1.01c-.22 0-.28-.04-.28-.26V98.42c0-.61.22-.93.93-.93h4.5c2.52 0 4.1 1.63 4.1 3.85 0 1.59-.81 2.91-2.32 3.45v.06c1.12.37 1.5 1.04 1.8 2.06zm-3.75-8h-3.67v5.06h3.55c1.96 0 2.84-1.05 2.84-2.56-.01-1.29-.76-2.5-2.72-2.5z"/><path id="XMLID_3520_" class="st0" d="M258.43 111.41h-5.51c-2.48 0-3.23-1.47-3.23-3.27v-7.34c0-1.83.91-3.29 3.23-3.29h5.37c.26 0 .32.12.32.36v.69c0 .26-.06.34-.32.34h-5.35c-1.21 0-1.73.56-1.73 1.69v2.78h6.44c.24 0 .3.08.3.34v.65c0 .22-.06.34-.3.34h-6.44v3.65c0 1.01.46 1.67 1.73 1.67h5.49c.26 0 .32.1.32.36v.69c-.01.22-.07.34-.32.34z"/><path id="XMLID_3517_" class="st0" d="M260.63 110.5V98.44c0-.61.22-.93.93-.93l3.49-.02c4.11 0 6.23 2.66 6.23 6.88 0 4.18-1.94 7.04-6.03 7.04h-3.69c-.65 0-.93-.26-.93-.91zm4.34-11.61h-2.8V110h2.89c3.43 0 4.62-2.38 4.62-5.59.01-3.02-1.14-5.52-4.71-5.52z"/><path id="XMLID_3515_" class="st0" d="M282.4 111.41h-5.65c-2.44 0-3.19-1.47-3.19-3.29V97.76c0-.18.1-.28.28-.28h.97c.18 0 .28.1.28.28v10.45c0 1.19.54 1.78 1.8 1.78h5.51c.22 0 .26.1.26.28v.83c0 .23-.04.31-.26.31z"/><path id="XMLID_3512_" class="st0" d="M292.56 111.15l-1.05-3.05h-5.89c-.16.38-.89 2.7-1.05 3.05-.06.18-.18.26-.36.26h-1.13c-.22 0-.28-.16-.22-.32l4.58-12.91c.22-.56.34-.67.87-.69h.52c.61 0 .73.16.91.69l4.52 12.91c.06.14.02.32-.2.32h-1.11c-.22 0-.31 0-.39-.26zm-3.95-11.98h-.1l-.95 2.94-1.53 4.62h5.04l-1.49-4.54-.97-3.02z"/><path id="XMLID_3510_" class="st0" d="M304.69 109.42c.26-.1.34 0 .4.14l.32.69c.14.26.08.34-.08.44-1.31.79-3 .93-4.17.93-3.63 0-5.81-2.16-5.81-6.96 0-4.5 2.38-7.34 5.93-7.34 1.13 0 2.34.14 3.69.83.14.06.22.16.08.4l-.38.75c-.08.14-.14.2-.32.12-1.01-.48-2-.68-3.02-.68-3.09 0-4.42 2.84-4.42 5.91 0 3.17 1.15 5.53 4.5 5.53 1.2.02 2.27-.28 3.28-.76z"/><path id="XMLID_3508_" class="st0" d="M319.7 105.5c.71-1.67 2.52-6.09 2.99-7.28.24-.61.46-.72.95-.72h.46c.69 0 .85.34.85.87v12.77c0 .22-.1.26-.28.26h-.93c-.22 0-.28-.04-.28-.26v-10.97h-.1l-.99 2.44c-.58 1.35-2.12 5.14-2.72 6.48-.22.54-.36.69-.89.69h-.54c-.53 0-.69-.16-.91-.69-.58-1.37-2.14-5.18-2.78-6.54l-.91-2.22h-.12v10.81c0 .22-.06.26-.28.26h-.91c-.22 0-.28-.04-.28-.26V98.38c0-.53.14-.87.83-.87h.46c.53 0 .71.1.95.72.16.38 2.58 6.32 2.97 7.2.22.48.97 2.46 1.19 2.94h.08c.22-.47 1-2.42 1.19-2.87z"/><path id="XMLID_3504_" class="st0" d="M335.89 105.22c0 1.11-.59 1.37-1.33 1.37h-6.05c0 2.78 1.47 3.77 3.31 3.77.87 0 1.76-.24 2.34-.56.16-.08.28-.06.34.08l.36.7c.08.16.04.28-.1.34-.93.56-2.02.71-3.03.71-2.91 0-4.68-1.63-4.68-5.37 0-3.55 1.9-5.47 4.52-5.47 2.99-.01 4.32 1.83 4.32 4.43zm-4.33-3.21c-1.86 0-2.9 1.51-3 3.39h5.93c.01-1.81-.63-3.39-2.93-3.39zm-.83-2.76l1.29-2.96c.06-.14.12-.22.34-.2l1.17.3c.2.04.24.14.12.28l-2 2.91c-.1.14-.22.18-.36.12l-.48-.18c-.14-.05-.18-.05-.08-.27z"/><path id="XMLID_3502_" class="st0" d="M345.25 111.17c.06.08.1.24-.12.24h-1.21c-.26 0-.3-.06-.38-.2l-2.64-4.3-2.72 4.28c-.08.14-.16.22-.38.22h-1.07c-.18 0-.22-.08-.12-.26l3.47-5.27-2.99-4.62c-.06-.08-.1-.26.12-.26h1.11c.22 0 .3.06.38.2l2.26 3.65 2.28-3.65c.08-.14.14-.2.36-.2h1.07c.22 0 .2.16.14.22l-3.05 4.6 3.49 5.35z"/><path id="XMLID_3499_" class="st0" d="M347.57 99.11c-.54 0-.99-.42-.99-.97 0-.56.46-1.01.99-1.01.55 0 .99.46.99 1.01 0 .56-.44.97-.99.97zm.43 12.3h-.89c-.18 0-.28-.04-.28-.26v-9.9c0-.22.1-.26.28-.26h.89c.22 0 .28.04.28.26v9.9c0 .22-.06.26-.28.26z"/><path id="XMLID_3497_" class="st0" d="M357.78 109.76c.22-.1.28-.04.36.1l.32.7c.14.16.06.26-.08.36-1.01.54-2.18.71-3.27.71-2.96 0-4.5-1.77-4.5-5.31 0-3.41 1.8-5.53 4.68-5.53 1.03 0 1.96.2 2.9.69.16.1.2.22.1.36l-.36.67c-.06.14-.12.2-.34.1-.65-.3-1.41-.54-2.3-.54-2.3 0-3.23 2.02-3.23 4.24 0 2.28.77 4.07 3.25 4.07.92 0 1.86-.28 2.47-.62z"/><path id="XMLID_3387_" class="st0" d="M364.21 111.63c-2.93 0-4.52-1.86-4.52-5.41 0-3.51 1.9-5.43 4.58-5.43 2.95 0 4.54 1.98 4.54 5.37 0 3.54-1.65 5.47-4.6 5.47zm.05-9.62c-2.22 0-3.13 1.92-3.13 4.14 0 2.46.77 4.26 3.09 4.26 2.4 0 3.11-2.14 3.11-4.2.01-2.18-.61-4.2-3.07-4.2z"/><path id="XMLID_3386_" class="st1" d="M204.47 61.01c0 33.69-43.05 61-96.16 61s-96.15-27.31-96.15-61C12.16 27.31 55.2 0 108.31 0c53.1 0 96.16 27.31 96.16 61.01"/><path id="XMLID_3385_" class="st2" d="M34.35 99.98C20.49 89.41 12.16 75.83 12.16 61c0-4.62.82-9.12 2.35-13.45C4.38 56.87 0 64.81 0 71.68v.02c.02 12.33 14.15 21.19 34.35 28.28z"/><path id="XMLID_3384_" class="st3" d="M0 71.7v-.02.02z"/><path id="XMLID_3383_" class="st2" d="M175.75 104.49c-14.38 8.98-33.18 15.1-54.15 16.94 46.36 10.82 48.55 10.27 54.15-16.94z"/><path id="XMLID_3382_" class="st0" d="M34.35 99.98c24.8 8.72 58.74 14.78 86.95 21.37.1.02.2.05.31.07 20.97-1.84 39.77-7.97 54.15-16.94 1.95-9.46 4.3-22.14 9.07-38.68C203.91-.45 109.07-20.22 29.07 36.02c-5.78 4.06-10.6 7.9-14.55 11.53-1.53 4.33-2.35 8.83-2.35 13.45-.01 14.83 8.32 28.41 22.18 38.98z"/><path id="XMLID_3381_" class="st4" d="M0 71.7v-.02.02z"/><g id="XMLID_3180_"><defs><path id="XMLID_3181_" d="M34.35 99.98c24.8 8.72 58.74 14.78 86.95 21.37.1.02.2.05.31.07 20.97-1.84 39.77-7.97 54.15-16.94 1.95-9.46 4.3-22.14 9.07-38.68C203.91-.45 109.07-20.22 29.07 36.02c-5.78 4.06-10.6 7.9-14.55 11.53-1.53 4.33-2.35 8.83-2.35 13.45-.01 14.83 8.32 28.41 22.18 38.98z"/></defs><clipPath id="XMLID_17_"><use xlink:href="#XMLID_3181_" overflow="visible"/></clipPath><path id="XMLID_3380_" class="st5" d="M150.9 121.49c-2.19 0-4.54-.31-7.06-.93-8.98-2.21-19.82-8.39-32.2-18.35-19.22-15.46-43.39-13.58-68.97-11.58-17.29 1.35-35.17 2.74-51.24-1.8-8.66-2.45-16.08-6.38-22.69-12.01-7.42-6.33-13.62-14.62-18.95-25.35-1-2.01-6.29-12.01-12.54-11.23-5.65.7-10.41 9.86-14.17 27.23l-.21-.04c3.78-17.46 8.6-26.68 14.35-27.39 6.39-.79 11.75 9.31 12.76 11.35C-27.9 95.94 7.97 93.14 42.65 90.44c12.28-.96 24.98-1.95 36.71-.74 13.15 1.36 23.75 5.4 32.41 12.37 12.36 9.94 23.16 16.1 32.12 18.3 8.06 1.99 14.47.76 19.04-3.65 7.36-7.11 9.39-22.16 5.58-41.29-3.82-19.18-12.92-39.41-24.96-55.5C131.09 3.26 96.94-32.5 49.07-5.27l-.11-.19c18.32-10.42 36.48-12.68 53.98-6.72 14.81 5.05 28.91 16.1 40.77 31.94 12.07 16.11 21.18 36.38 25 55.59 3.82 19.2 1.76 34.32-5.65 41.48-3.18 3.11-7.26 4.66-12.16 4.66z"/><path id="XMLID_3379_" class="st5" d="M150.36 119.85c-2.34 0-4.86-.35-7.57-1.06-9.17-2.4-20.2-8.88-32.8-19.24C89.8 82.93 64.24 86.09 39.53 89.16c-16.61 2.06-33.79 4.19-49.38.4-8.4-2.04-15.66-5.58-22.21-10.84-7.35-5.9-13.6-13.77-19.11-24.08-2.71-5.06-8.13-13.43-14.01-12.61-5.62.79-10.31 9.73-13.95 26.57l-.21-.04c3.66-16.94 8.42-25.94 14.13-26.74 6.01-.84 11.5 7.61 14.23 12.72 22.89 42.78 57.25 38.52 90.49 34.4 12.39-1.53 25.2-3.12 37.17-2.21 13.42 1.02 24.36 5.16 33.46 12.64 12.57 10.34 23.58 16.8 32.72 19.2 8.21 2.15 14.75 1.01 19.43-3.41 15.48-14.62 6.63-61.91-17.88-95.47-12.05-16.48-45.1-52.02-91.99-26.12l-.1-.19c17.93-9.91 35.65-11.83 52.68-5.72 14.43 5.18 28.11 16.21 39.56 31.9 24.56 33.65 33.4 81.08 17.85 95.76-3.18 3.01-7.22 4.52-12.05 4.53z"/><path id="XMLID_3378_" class="st5" d="M149.83 118.22c-2.49 0-5.18-.4-8.07-1.2-9.35-2.59-20.6-9.37-33.42-20.15-21.12-17.75-47-13.24-72.02-8.88-16.06 2.8-32.67 5.69-47.8 2.64-8.15-1.65-15.24-4.84-21.67-9.76-7.21-5.52-13.43-13.05-18.99-23.03-5.48-9.84-10.83-14.68-15.45-13.99-5.6.83-10.23 9.56-13.77 25.93l-.21-.05c3.56-16.47 8.25-25.25 13.95-26.09 4.72-.7 10.14 4.17 15.67 14.09 23.07 41.41 56.2 35.64 88.24 30.05 12.52-2.18 25.47-4.44 37.68-3.88 13.71.63 25 4.82 34.51 12.81 12.8 10.76 24.01 17.52 33.34 20.11 8.37 2.32 15.04 1.26 19.83-3.16 7.38-6.81 9.75-21.38 6.5-39.97-3.25-18.57-11.59-38.32-22.88-54.2-11.62-16.35-43.58-51.66-89.49-27.08l-.1-.19c17.54-9.39 34.83-10.98 51.4-4.73 14.05 5.3 27.31 16.32 38.37 31.85 11.31 15.9 19.67 35.69 22.92 54.29 3.26 18.67.87 33.31-6.56 40.17-3.2 2.94-7.21 4.42-11.98 4.42z"/><path id="XMLID_3377_" class="st5" d="M149.32 116.61c-2.63 0-5.49-.45-8.57-1.35-9.55-2.79-21-9.87-34.05-21.07-22.03-18.9-48.21-12.94-73.53-7.17-15.57 3.55-31.67 7.21-46.38 4.85-7.92-1.27-14.83-4.13-21.13-8.75-7.07-5.17-13.2-12.41-18.75-22.12-6.27-10.96-11.95-16.13-16.89-15.37-5.58.86-10.15 9.37-13.59 25.28l-.21-.05c3.46-16.01 8.09-24.57 13.77-25.45 5.03-.78 10.79 4.43 17.11 15.48 23.02 40.25 53.63 33.28 86.03 25.9 25.37-5.78 51.6-11.75 73.72 7.22 13.03 11.17 24.46 18.25 33.97 21.02 8.53 2.49 15.34 1.51 20.25-2.92 7.39-6.67 9.93-21.01 6.95-39.34-2.97-18.26-10.93-37.79-21.86-53.56-11.2-16.14-42.09-51.23-87.03-27.97l-.1-.19c17.15-8.88 34.01-10.14 50.12-3.75 13.67 5.42 26.53 16.42 37.18 31.81 10.95 15.8 18.92 35.36 21.89 53.65 2.99 18.41.43 32.81-7.02 39.53-3.19 2.88-7.17 4.32-11.88 4.32z"/><path id="XMLID_3376_" class="st5" d="M148.82 115.02c-2.78 0-5.81-.5-9.08-1.5-9.74-2.98-21.42-10.38-34.7-22-22.93-20.05-49.38-12.55-74.97-5.3-12.87 3.65-26.12 7.4-38.6 7.4-2.18 0-4.34-.12-6.46-.36-7.7-.9-14.44-3.45-20.61-7.78-6.91-4.85-12.96-11.81-18.47-21.28-6.96-11.94-13.12-17.57-18.32-16.75-5.56.88-10.08 9.17-13.42 24.64l-.21-.05c3.37-15.56 7.94-23.9 13.6-24.8 5.29-.84 11.53 4.83 18.53 16.86 10.41 17.86 22.78 27.06 38.92 28.95 14.26 1.67 29.18-2.55 44.98-7.03 25.64-7.27 52.16-14.78 75.17 5.35 13.26 11.6 24.91 18.98 34.63 21.95 8.69 2.66 15.65 1.76 20.69-2.68 7.41-6.53 10.11-20.64 7.41-38.72-2.69-17.96-10.28-37.25-20.84-52.93-10.79-16.01-40.61-50.87-84.59-28.91l-.1-.19c16.76-8.37 33.2-9.3 48.85-2.78 13.3 5.55 25.75 16.53 36 31.76 10.58 15.7 18.19 35.03 20.88 53.02 2.71 18.15-.01 32.33-7.48 38.91-3.19 2.81-7.14 4.22-11.81 4.22z"/><path id="XMLID_3211_" class="st5" d="M148.35 113.44c-2.92 0-6.12-.55-9.58-1.66-9.95-3.17-21.85-10.89-35.37-22.94-23.81-21.21-50.51-12.1-76.33-3.29-14 4.78-27.3 9.31-40.07 9.31-1.25 0-2.5-.04-3.75-.14-7.48-.55-14.06-2.79-20.11-6.86-6.76-4.55-12.71-11.25-18.18-20.49-7.64-12.92-14.28-19.02-19.75-18.13-5.54.9-10 8.97-13.25 23.99l-.21-.05c3.27-15.11 7.78-23.24 13.42-24.16 5.56-.9 12.27 5.24 19.96 18.23 10.31 17.44 22.43 26.09 38.12 27.25 13.87 1.02 28.38-3.93 43.74-9.17 25.88-8.83 52.64-17.96 76.54 3.34 13.5 12.03 25.37 19.73 35.29 22.9 8.86 2.83 15.97 2.01 21.13-2.44 7.43-6.4 10.3-20.29 7.87-38.1-2.41-17.66-9.64-36.72-19.83-52.3-10.37-15.85-39.14-50.48-82.17-29.82l-.09-.19c16.38-7.87 32.4-8.48 47.59-1.82 12.93 5.67 24.98 16.64 34.85 31.71 10.21 15.6 17.45 34.7 19.87 52.39 2.44 17.89-.45 31.84-7.94 38.3-3.2 2.76-7.13 4.14-11.75 4.14z"/><path id="XMLID_3210_" class="st5" d="M147.88 111.89c-3.07 0-6.43-.61-10.08-1.82-10.16-3.37-22.29-11.41-36.05-23.9-24.68-22.38-51.58-11.59-77.6-1.16-14.96 6-29.1 11.67-42.65 11.28-7.28-.21-13.7-2.16-19.62-5.97C-44.74 86.06-50.59 79.6-56 70.56c-8.32-13.89-15.45-20.46-21.18-19.51-5.52.91-9.92 8.76-13.07 23.34l-.21-.04c3.17-14.67 7.63-22.58 13.24-23.51 5.91-.97 12.91 5.44 21.4 19.61 10.2 17.05 22.06 25.19 37.32 25.63 13.5.38 27.62-5.27 42.56-11.27 26.08-10.46 53.05-21.27 77.83 1.2 13.74 12.46 25.85 20.49 35.98 23.85 9.03 3 16.3 2.26 21.59-2.2 7.45-6.28 10.49-19.94 8.33-37.5-2.13-17.36-9-36.2-18.83-51.68-9.97-15.7-37.69-50.11-79.78-30.73l-.09-.19c16-7.37 31.6-7.66 46.35-.86 12.56 5.79 24.22 16.75 33.7 31.67 9.85 15.51 16.72 34.38 18.86 51.77 2.17 17.63-.89 31.37-8.4 37.69-3.21 2.7-7.13 4.06-11.72 4.06z"/><path id="XMLID_3209_" class="st5" d="M147.44 110.35c-3.21 0-6.75-.66-10.59-1.99-10.37-3.57-22.74-11.94-36.75-24.86-25.54-23.56-52.62-11.03-78.8 1.08C6.73 91.32-7.03 97.69-20.23 97.92c-7.1.12-13.36-1.55-19.16-5.12-6.48-3.98-12.23-10.22-17.58-19.06-9-14.87-16.61-21.89-22.62-20.89-5.49.92-9.83 8.55-12.89 22.69l-.21-.04c3.08-14.23 7.47-21.92 13.06-22.86 6.19-1.04 13.66 5.83 22.84 20.99 22.16 36.59 49.28 24.04 78 10.76 26.25-12.14 53.39-24.7 79.04-1.05 13.99 12.91 26.33 21.26 36.68 24.82 9.21 3.17 16.64 2.52 22.07-1.96 7.47-6.15 10.68-19.6 8.79-36.9-1.86-17.07-8.36-35.68-17.83-51.07-9.57-15.55-36.26-49.76-77.42-31.65l-.09-.2c15.63-6.88 30.81-6.85 45.12.09 12.2 5.92 23.46 16.86 32.56 31.64 9.48 15.41 15.99 34.06 17.86 51.16 1.9 17.37-1.34 30.89-8.87 37.09-3.22 2.66-7.13 3.99-11.68 3.99z"/><path id="XMLID_3208_" class="st5" d="M147.02 108.83c-3.36 0-7.07-.72-11.11-2.16-10.59-3.78-23.2-12.47-37.46-25.85-26.39-24.74-53.6-10.42-79.92 3.43C3.64 92.09-10.81 99.69-24.38 99.7c-11.96 0-23.25-5.91-33.56-22.77C-67.63 61.09-75.72 53.6-82 54.66c-5.47.93-9.74 8.34-12.7 22.04l-.21-.04c2.98-13.79 7.31-21.26 12.88-22.2 6.38-1.08 14.55 6.44 24.28 22.36 21.9 35.82 48.27 21.95 76.18 7.25C31.44 77.22 44.9 70.13 58.36 67.9c15.21-2.53 28.37 1.65 40.23 12.77 14.25 13.35 26.82 22.04 37.39 25.8 9.39 3.35 16.99 2.77 22.56-1.71 7.5-6.03 10.87-19.27 9.26-36.31-1.59-16.77-7.72-35.16-16.83-50.45-9.17-15.41-34.85-49.42-75.09-32.57l-.08-.2c15.26-6.39 30.03-6.04 43.91 1.03 11.85 6.05 22.72 16.98 31.44 31.63 9.12 15.32 15.27 33.75 16.86 50.54 1.62 17.12-1.78 30.42-9.34 36.5-3.23 2.6-7.13 3.9-11.65 3.9z"/><path id="XMLID_3207_" class="st5" d="M146.61 107.33c-3.51 0-7.4-.78-11.63-2.34-10.82-3.98-23.66-13.01-38.19-26.84-12.18-11.6-25.56-15.72-40.89-12.59-13.58 2.78-27.05 10.75-40.08 18.46-15.05 8.91-29.64 17.54-43.35 17.54-11.11 0-21.65-5.67-31.38-21.46-10.37-16.8-18.95-24.75-25.51-23.63-5.44.93-9.64 8.13-12.51 21.39l-.21-.05c2.89-13.35 7.16-20.6 12.69-21.55 6.66-1.14 15.31 6.85 25.72 23.73 21.64 35.09 47.29 19.91 74.44 3.84 13.04-7.72 26.53-15.7 40.15-18.49 15.4-3.14 28.84 1 41.08 12.66 14.5 13.81 27.33 22.83 38.11 26.8 9.58 3.53 17.34 3.04 23.07-1.46 15.54-12.2 12.63-52.99-6.1-85.57-8.78-15.27-33.45-49.12-72.79-33.51l-.08-.2c14.9-5.91 29.27-5.25 42.72 1.98 11.5 6.18 21.99 17.11 30.33 31.63 8.76 15.23 14.54 33.44 15.86 49.94.65 8.19.19 15.43-1.39 21.54-1.67 6.46-4.5 11.29-8.42 14.37-3.24 2.54-7.14 3.81-11.64 3.81z"/><path id="XMLID_3206_" class="st5" d="M146.23 105.86c-3.67 0-7.73-.84-12.16-2.52-11.05-4.19-24.14-13.56-38.93-27.85-12.56-12.14-26.2-16.21-41.71-12.44-13.72 3.34-27.21 12.23-40.25 20.83-15.31 10.09-29.87 19.7-43.62 19.7-1.98 0-3.95-.2-5.9-.63-8.82-1.93-16.53-8.36-23.55-19.66C-70.93 65.51-80 57.1-86.84 58.28c-5.4.94-9.54 7.91-12.32 20.73l-.21-.04c2.79-12.91 6.99-19.94 12.49-20.9 6.93-1.2 16.07 7.25 27.18 25.1 6.99 11.24 14.65 17.64 23.41 19.56 15.37 3.37 31.88-7.52 49.35-19.04 13.06-8.61 26.56-17.51 40.32-20.86 15.58-3.79 29.29.29 41.91 12.49 14.76 14.27 27.83 23.63 38.85 27.81 9.77 3.71 17.71 3.3 23.59-1.2 3.9-2.99 6.76-7.7 8.5-14 1.65-5.98 2.22-13.09 1.7-21.13-1.05-16.17-6.45-34.12-14.83-49.24-8.39-15.15-32.06-48.83-70.52-34.46l-.07-.2c14.54-5.43 28.52-4.45 41.54 2.91 11.16 6.31 21.27 17.26 29.24 31.65 8.39 15.15 13.81 33.13 14.86 49.33.52 8.07-.05 15.2-1.71 21.2-1.75 6.35-4.64 11.1-8.58 14.12-3.26 2.49-7.15 3.75-11.63 3.75z"/><path id="XMLID_3205_" class="st5" d="M-33.17 105.67c-1.61 0-3.21-.14-4.8-.45-8.52-1.64-16-7.77-22.88-18.74-11.75-18.75-21.3-27.63-28.41-26.38-5.36.94-9.44 7.69-12.11 20.07l-.21-.04c2.7-12.47 6.83-19.28 12.29-20.24 7.2-1.26 16.84 7.64 28.63 26.47 6.84 10.91 14.28 17.01 22.73 18.64 15.11 2.91 31.29-8.88 48.42-21.37 13.06-9.52 26.56-19.36 40.45-23.29 15.75-4.45 29.72-.43 42.7 12.31 15.02 14.74 28.35 24.44 39.6 28.83 9.97 3.89 18.09 3.57 24.13-.94 7.7-5.76 11.49-18.03 10.68-34.54-.78-15.87-5.82-33.6-13.82-48.63-8.01-15.04-30.69-48.59-68.29-35.44l-.07-.2c14.19-4.96 27.78-3.67 40.39 3.85 10.82 6.45 20.56 17.41 28.16 31.69 8.02 15.06 13.07 32.82 13.85 48.73.81 16.59-3.01 28.92-10.77 34.72-6.1 4.57-14.29 4.89-24.33.97-11.28-4.4-24.63-14.12-39.68-28.88C80.57 60.13 66.67 56.12 51 60.55 37.14 64.47 23.66 74.3 10.62 83.81c-15.38 11.21-29.99 21.86-43.79 21.86z"/><path id="XMLID_3204_" class="st5" d="M-35.74 107.84c-1.3 0-2.59-.1-3.87-.32-8.22-1.38-15.48-7.22-22.2-17.87-12.45-19.71-22.5-29.05-29.88-27.74-5.32.94-9.32 7.47-11.91 19.41l-.21-.04c2.6-12.03 6.67-18.62 12.08-19.58 7.47-1.32 17.6 8.04 30.1 27.84 6.69 10.59 13.9 16.4 22.06 17.77 14.87 2.5 30.74-10.21 47.54-23.66C21.01 73.21 34.5 62.41 48.52 57.88c15.9-5.14 30.13-1.18 43.48 12.1 15.29 15.21 28.87 25.26 40.37 29.87 10.17 4.08 18.47 3.85 24.68-.68 7.73-5.64 11.7-17.69 11.16-33.95-.51-15.57-5.18-33.07-12.81-48.03-15.88-31.11-40.59-44.73-66.1-36.44l-.07-.2c13.85-4.5 27.06-2.89 39.26 4.79 10.49 6.6 19.86 17.58 27.09 31.76 7.65 14.98 12.33 32.52 12.84 48.12.53 16.32-3.46 28.44-11.25 34.12-6.27 4.57-14.64 4.81-24.88.7-11.52-4.62-25.13-14.69-40.44-29.92C78.56 56.91 64.4 52.97 48.58 58.08 34.6 62.6 21.13 73.39 8.1 83.82c-15.4 12.32-30.01 24.02-43.84 24.02z"/><path id="XMLID_3203_" class="st5" d="M-38.16 110.1c-1.03 0-2.06-.07-3.09-.22-7.92-1.14-14.97-6.71-21.53-17.04-13.15-20.68-23.7-30.47-31.35-29.11-5.27.94-9.21 7.25-11.69 18.75l-.21-.05c2.51-11.59 6.5-17.96 11.87-18.92 7.75-1.38 18.37 8.44 31.57 29.2 6.53 10.27 13.52 15.81 21.38 16.94C-26.58 111.78-11 98.16 5.5 83.73c13.02-11.38 26.49-23.16 40.62-28.3 16.05-5.84 30.52-1.95 44.23 11.88 15.56 15.69 29.4 26.09 41.14 30.92 10.37 4.27 18.86 4.13 25.24-.4 7.76-5.52 11.9-17.36 11.65-33.34-.24-15.26-4.54-32.54-11.8-47.41-15.09-30.93-39-44.94-63.94-37.48l-.06-.21c13.52-4.04 26.36-2.11 38.16 5.74 10.16 6.76 19.17 17.77 26.04 31.85 7.27 14.9 11.58 32.21 11.82 47.5.25 16.06-3.92 27.96-11.74 33.52-6.44 4.58-15.01 4.72-25.45.43-11.76-4.84-25.63-15.26-41.21-30.97C76.55 53.7 62.15 49.83 46.19 55.64 32.1 60.76 18.65 72.52 5.64 83.9c-15.38 13.44-29.97 26.2-43.8 26.2z"/><path id="XMLID_3202_" class="st5" d="M-40.45 112.42c-.81 0-1.62-.05-2.42-.14-7.64-.93-14.46-6.24-20.87-16.25-13.86-21.65-24.9-31.9-32.82-30.47-5.22.94-9.08 7.03-11.47 18.09l-.21-.04c2.41-11.15 6.33-17.29 11.65-18.25 8.01-1.44 19.13 8.84 33.04 30.57 6.37 9.95 13.15 15.24 20.72 16.16C-28.4 113.84-13.1 99.3 3.1 83.91c12.99-12.34 26.42-25.1 40.65-30.87 16.18-6.56 30.89-2.75 44.96 11.63 15.83 16.17 29.94 26.93 41.92 31.98 10.58 4.46 19.26 4.42 25.82-.12 7.8-5.39 12.11-17.01 12.14-32.72.03-14.94-3.89-32-10.77-46.79-14.31-30.78-37.42-45.2-61.83-38.56l-.06-.21c13.2-3.59 25.67-1.33 37.08 6.69 9.84 6.93 18.49 17.99 25 31.99 6.89 14.82 10.82 31.91 10.79 46.88-.03 15.78-4.38 27.46-12.24 32.9-6.62 4.58-15.38 4.63-26.03.14-12.01-5.06-26.14-15.84-41.99-32.03-14.01-14.31-28.64-18.1-44.73-11.58-14.2 5.75-27.61 18.5-40.59 30.83-15.33 14.54-29.86 28.35-43.67 28.35z"/><path id="XMLID_3201_" class="st5" d="M-42.63 114.8c-.62 0-1.24-.03-1.86-.09-7.36-.73-13.97-5.81-20.23-15.51-14.57-22.6-26.11-33.31-34.3-31.82-5.17.94-8.95 6.8-11.25 17.42l-.21-.04c2.32-10.71 6.16-16.63 11.42-17.59 8.28-1.5 19.9 9.24 34.52 31.92 6.22 9.64 12.78 14.68 20.07 15.41 14.23 1.42 29.27-14.04 45.18-30.4 8.73-8.97 17.76-18.26 27.14-25.3 10.61-7.96 20.19-11.83 29.28-11.83h.05c10.36.02 20.13 4.92 29.87 15 16.1 16.66 30.47 27.78 42.71 33.06 10.79 4.66 19.67 4.72 26.42.18 17.26-11.61 15.44-49.83 2.91-78.25-13.53-30.67-35.86-45.51-59.75-39.69l-.05-.21c12.88-3.14 25-.56 36.03 7.65 9.53 7.1 17.82 18.22 23.96 32.16 6.5 14.74 10.05 31.59 9.75 46.25-.32 15.5-4.84 26.96-12.73 32.26-6.81 4.58-15.77 4.52-26.62-.16-12.26-5.29-26.66-16.43-42.78-33.11-9.7-10.03-19.42-14.91-29.71-14.93h-.05c-20.22 0-38.55 18.84-56.27 37.06-15.26 15.7-29.72 30.56-43.5 30.56z"/><path id="XMLID_3200_" class="st5" d="M-44.71 117.24c-.46 0-.92-.02-1.38-.05-7.08-.56-13.49-5.4-19.59-14.8-15.3-23.57-27.34-34.74-35.79-33.19-5.11.94-8.82 6.57-11.02 16.75l-.21-.05c2.22-10.27 5.99-15.96 11.19-16.92 8.55-1.57 20.66 9.63 36.01 33.28 6.06 9.34 12.42 14.15 19.43 14.7 14.05 1.11 28.83-15.27 44.47-32.61 8.71-9.66 17.72-19.64 27.14-27.27 10.68-8.65 20.36-12.91 29.59-13.04 10.44-.15 20.34 4.84 30.28 15.24 16.38 17.15 31.01 28.63 43.51 34.15 11 4.85 20.09 5.02 27.03.49 7.87-5.14 12.53-16.3 13.14-31.44.57-14.3-2.59-30.89-8.68-45.51-12.74-30.6-34.31-45.88-57.7-40.88l-.04-.21c12.58-2.69 24.36.21 35.01 8.63C146.9-8.2 154.83 3 160.62 16.89c6.1 14.65 9.27 31.27 8.7 45.6-.61 15.21-5.31 26.43-13.23 31.61-7 4.57-16.16 4.41-27.23-.47-12.52-5.53-27.18-17.03-43.58-34.2-9.89-10.36-19.74-15.32-30.12-15.18-9.18.13-18.82 4.38-29.46 13-9.41 7.62-18.41 17.6-27.12 27.25-15.19 16.83-29.55 32.74-43.29 32.74z"/><path id="XMLID_3199_" class="st5" d="M-46.7 119.73c-.33 0-.65-.01-.98-.03-6.82-.41-13.03-5.03-18.97-14.13-16.03-24.53-28.57-36.16-37.29-34.54-5.05.93-8.67 6.34-10.78 16.08l-.21-.04c2.13-9.83 5.81-15.3 10.95-16.25 8.81-1.63 21.43 10.02 37.51 34.64 5.9 9.04 12.06 13.63 18.81 14.03 13.88.84 28.41-16.47 43.78-34.8 8.69-10.35 17.67-21.05 27.13-29.28 10.72-9.33 20.49-14 29.86-14.27 10.51-.31 20.53 4.76 30.65 15.48 16.65 17.64 31.56 29.5 44.31 35.25 11.22 5.06 20.52 5.33 27.66.81 17.62-11.16 16.84-47.93 6.02-75.61-11.96-30.58-32.78-46.33-55.7-42.14l-.04-.21c12.29-2.25 23.74.99 34.01 9.63 8.92 7.5 16.5 18.79 21.92 32.65 5.7 14.56 8.48 30.94 7.63 44.93-.9 14.91-5.78 25.89-13.74 30.93-7.2 4.56-16.57 4.29-27.86-.8-12.78-5.76-27.71-17.64-44.38-35.3-10.07-10.67-20.05-15.71-30.48-15.41-9.32.27-19.04 4.92-29.72 14.22-9.44 8.22-18.42 18.91-27.1 29.26-15.06 17.93-29.3 34.9-42.99 34.9z"/><path id="XMLID_3198_" class="st5" d="M-48.61 122.26c-.21 0-.42 0-.64-.01-6.57-.27-12.58-4.69-18.37-13.49-8.73-13.27-16.56-23.02-23.28-28.97-6.08-5.38-11.3-7.71-15.51-6.93-4.98.93-8.52 6.11-10.53 15.41l-.21-.04c2.03-9.39 5.63-14.63 10.7-15.57 9.07-1.69 22.19 10.42 39.01 35.99 5.75 8.75 11.71 13.13 18.2 13.4 13.73.57 28-17.66 43.12-36.97 8.66-11.06 17.62-22.49 27.1-31.33C31.75 43.7 41.6 38.63 51.1 38.22c10.56-.46 20.7 4.69 31.01 15.73 16.92 18.13 32.1 30.37 45.12 36.36 11.44 5.27 20.96 5.65 28.3 1.15 7.93-4.87 12.95-15.54 14.14-30.07 1.11-13.61-1.27-29.7-6.54-44.15-11.16-30.6-31.25-46.86-53.73-43.48l-.03-.21c12.02-1.81 23.14 1.78 33.05 10.65 8.63 7.72 15.86 19.12 20.91 32.97 5.28 14.47 7.67 30.59 6.55 44.24-1.19 14.59-6.25 25.33-14.24 30.23-7.4 4.54-16.99 4.16-28.5-1.14-13.04-6.01-28.24-18.26-45.18-36.41C71.69 43.1 61.61 37.98 51.11 38.43c-9.45.41-19.26 5.46-29.98 15.46C11.66 62.72 2.71 74.15-5.95 85.2c-14.92 19.05-29.03 37.06-42.66 37.06z"/><path id="XMLID_3197_" class="st5" d="M-50.45 124.83h-.35c-6.33-.15-12.15-4.37-17.79-12.89-9.17-13.87-17.39-24.03-24.41-30.2-6.25-5.49-11.59-7.86-15.88-7.05-4.84.91-8.4 6-10.28 14.73l-.21-.05c1.91-8.82 5.52-13.97 10.45-14.89 4.36-.82 9.76 1.57 16.06 7.1 7.04 6.18 15.26 16.35 24.45 30.23 5.6 8.46 11.36 12.65 17.61 12.8 13.58.32 27.61-18.84 42.48-39.12C.32 73.71 9.24 61.53 18.76 52.07c10.8-10.74 20.73-16.23 30.37-16.77 10.61-.6 20.86 4.62 31.34 15.97 17.19 18.63 32.64 31.24 45.92 37.48 11.66 5.48 21.4 5.99 28.95 1.51 17.61-10.45 18.5-45.2 9.2-72.76-8-23.69-25.8-47.92-51.79-44.9l-.02-.21c11.75-1.37 22.56 2.57 32.12 11.69 8.34 7.96 15.22 19.49 19.9 33.35 4.85 14.37 6.84 30.23 5.45 43.51-1.49 14.26-6.72 24.74-14.74 29.5-7.62 4.52-17.42 4.02-29.15-1.5-13.32-6.24-28.8-18.87-46.01-37.52-10.43-11.3-20.62-16.5-31.17-15.91-9.58.54-19.47 6.01-30.23 16.71C9.41 61.67.48 73.85-8.14 85.62c-14.78 20.16-28.75 39.21-42.31 39.21z"/><path id="XMLID_3196_" class="st5" d="M-52.23 127.44h-.1c-6.09-.04-11.73-4.08-17.22-12.33-9.63-14.46-18.23-25.03-25.56-31.41-6.42-5.59-11.89-8.01-16.25-7.18-4.77.9-8.23 5.76-10.02 14.05l-.21-.05c1.81-8.38 5.34-13.29 10.19-14.22 4.43-.84 9.96 1.59 16.43 7.23 7.34 6.4 15.95 16.98 25.6 31.46 5.45 8.18 11.03 12.19 17.04 12.23h.1c13.39 0 27.17-20.04 41.75-41.27 8.6-12.51 17.49-25.45 27.03-35.54C27.38 38.95 37.4 33.05 47.17 32.37c10.66-.73 21.01 4.57 31.64 16.22C96.27 67.73 112 80.72 125.55 87.22c11.88 5.7 21.85 6.33 29.62 1.88 7.99-4.57 13.36-14.72 15.14-28.57 1.65-12.88.07-28.43-4.33-42.66-7.37-23.79-24.34-48.48-49.88-46.42l-.02-.21c11.34-.92 22.14 3.5 31.22 12.78 8.06 8.23 14.59 19.91 18.88 33.8 4.41 14.26 5.99 29.84 4.34 42.75-1.78 13.92-7.2 24.12-15.24 28.73-7.83 4.49-17.87 3.86-29.82-1.87-13.57-6.51-29.32-19.51-46.8-38.66-10.6-11.62-20.89-16.9-31.48-16.17-9.72.67-19.69 6.55-30.48 17.97-9.52 10.08-18.41 23.01-27 35.52-14.62 21.26-28.43 41.35-41.93 41.35z"/><path id="XMLID_3195_" class="st5" d="M-53.96 130.09c-5.83 0-11.25-3.86-16.56-11.79-10.1-15.06-19.09-26.04-26.72-32.64-6.59-5.69-12.18-8.15-16.62-7.3-5.92 1.13-8.58 7.89-9.76 13.37l-.21-.04c1.2-5.54 3.89-12.38 9.93-13.54 4.51-.86 10.16 1.61 16.8 7.35 7.65 6.61 16.65 17.6 26.75 32.68 5.27 7.87 10.63 11.69 16.38 11.69h.11c13.28-.11 26.86-21.14 41.24-43.39 8.56-13.26 17.42-26.96 26.97-37.7 10.86-12.2 20.95-18.52 30.86-19.32 10.7-.86 21.14 4.52 31.93 16.47 17.73 19.62 33.73 33 47.54 39.75 12.11 5.92 22.31 6.68 30.3 2.27 8.12-4.48 13.53-14.09 15.63-27.77 1.95-12.68.81-27.54-3.21-41.85-6.72-23.94-22.84-49.14-47.99-48.06l-.01-.21c25.26-1.09 41.47 24.2 48.21 48.22 4.02 14.34 5.16 29.23 3.21 41.94-2.11 13.76-7.55 23.41-15.74 27.93-8.06 4.45-18.32 3.68-30.5-2.27-13.81-6.77-29.83-20.16-47.58-39.8-10.75-11.89-21.13-17.26-31.76-16.4-9.85.8-19.9 7.09-30.72 19.25C4.98 59.64-3.87 73.35-12.43 86.6c-14.41 22.31-28.02 43.38-41.42 43.49h-.11z"/><path id="XMLID_3194_" class="st5" d="M-55.64 132.76c-5.54 0-10.73-3.69-15.85-11.28-10.57-15.66-19.95-27.06-27.89-33.86-6.75-5.79-12.46-8.29-16.97-7.42-5.82 1.12-8.37 7.52-9.49 12.69l-.21-.04c1.13-5.23 3.73-11.71 9.66-12.85 4.58-.88 10.35 1.63 17.15 7.46 7.95 6.82 17.35 18.23 27.93 33.91 5.16 7.66 10.38 11.32 15.96 11.18 13.15-.31 26.5-22.27 40.64-45.51 8.52-14.01 17.34-28.5 26.91-39.89C23.09 34.2 33.26 27.46 43.3 26.54c10.73-.99 21.26 4.48 32.21 16.72 17.99 20.12 34.26 33.88 48.35 40.9 12.34 6.15 22.77 7.05 31 2.69 8.14-4.32 13.71-13.63 16.11-26.93 2.21-12.28 1.48-26.83-2.07-40.99-3.45-13.77-9.41-26.13-16.78-34.81-8.33-9.81-18.43-14.99-29.22-14.99h-.11v-.21h.11c10.85 0 21.01 5.21 29.39 15.07 7.39 8.71 13.37 21.1 16.83 34.9 3.55 14.19 4.29 28.78 2.07 41.08-2.41 13.37-8.02 22.74-16.22 27.08-8.29 4.4-18.78 3.49-31.19-2.69-14.11-7.03-30.4-20.8-48.41-40.94C64.47 31.24 54 25.79 43.34 26.77 20.97 28.8 2.12 59.8-14.52 87.15c-14.17 23.3-27.56 45.3-40.82 45.61h-.3z"/><path id="XMLID_3193_" class="st5" d="M-57.27 135.47c-5.28 0-10.26-3.54-15.19-10.8-25.6-37.7-39.36-43.99-46.4-42.62-6.01 1.17-8.35 8.02-9.21 12l-.21-.05c1.51-6.96 4.83-11.28 9.38-12.16 4.65-.9 10.54 1.65 17.5 7.58 8.26 7.03 18.06 18.85 29.11 35.13 5.03 7.4 10.08 10.9 15.45 10.7 13.02-.49 26.15-23.38 40.06-47.61C-8.3 72.86.47 57.58 10.05 45.53c10.91-13.7 21.15-20.87 31.33-21.91 10.76-1.1 21.38 4.45 32.47 16.98C92.1 61.21 108.64 75.36 123 82.65c12.57 6.38 23.24 7.43 31.7 3.13 8.15-4.14 13.89-13.15 16.59-26.05 2.48-11.86 2.15-26.09-.92-40.08-3.04-13.85-8.63-26.45-15.73-35.48-8.03-10.2-17.89-15.8-28.52-16.21l.01-.21c10.69.41 20.61 6.04 28.68 16.29 7.12 9.05 12.72 21.68 15.77 35.56 3.08 14.02 3.4 28.28.92 40.17-2.71 12.96-8.48 22.02-16.7 26.2-8.53 4.34-19.26 3.28-31.9-3.13-14.38-7.3-30.94-21.46-49.22-42.1-11.04-12.47-21.6-18-32.28-16.91C18.76 26.14-.02 58.87-16.58 87.74c-7.12 12.41-13.85 24.14-20.48 32.91-7.47 9.87-13.74 14.58-19.75 14.81-.16.01-.31.01-.46.01z"/><path id="XMLID_3192_" class="st5" d="M-58.86 138.2c-5.04 0-9.81-3.39-14.57-10.35-26.57-38.89-40.74-45.37-47.94-43.96-5.88 1.15-8.11 7.58-8.92 11.31l-.21-.04c.82-3.78 3.09-10.3 9.09-11.48 4.71-.92 10.72 1.66 17.85 7.69 8.57 7.24 18.77 19.48 30.31 36.36 4.89 7.16 9.79 10.51 14.96 10.24 12.9-.66 25.81-24.48 39.48-49.7 16.51-30.47 35.23-65 58.31-67.59 5.16-.58 10.43.47 15.66 3.12 5.58 2.83 11.32 7.58 17.06 14.12 18.51 21.11 35.32 35.64 49.95 43.2 12.81 6.62 23.71 7.83 32.42 3.59 18.46-8.98 21.9-39.59 17.28-64.23-4.41-23.52-18.15-51.7-42.38-53.7l.02-.21c10.51.87 20.15 6.94 27.88 17.57 6.85 9.42 12.07 22.31 14.69 36.3 2.59 13.83 2.5 27.75-.24 39.2-3.01 12.54-8.94 21.28-17.15 25.27-3.42 1.66-7.18 2.49-11.25 2.49-6.37 0-13.51-2.03-21.36-6.09-14.66-7.57-31.48-22.13-50.01-43.25-11.19-12.75-21.84-18.37-32.54-17.17-22.97 2.58-41.66 37.06-58.14 67.48-7.01 12.93-13.63 25.14-20.16 34.29-7.35 10.29-13.55 15.22-19.5 15.53-.2.01-.39.01-.59.01z"/><path id="XMLID_3191_" class="st5" d="M-60.41 140.96c-4.81 0-9.4-3.25-13.98-9.92-27.56-40.07-42.12-46.75-49.49-45.29-5.97 1.18-8.02 7.82-8.63 10.62l-.21-.04c.61-2.84 2.7-9.58 8.79-10.78 7.43-1.47 22.09 5.22 49.71 45.38 4.76 6.92 9.5 10.13 14.49 9.81 12.79-.82 25.48-25.58 38.92-51.78C-4.38 56.9 14.24 20.59 37.62 17.75c5.17-.63 10.46.42 15.73 3.11 5.62 2.87 11.41 7.71 17.22 14.39 18.76 21.59 35.83 36.52 50.74 44.36 13.04 6.86 24.19 8.23 33.15 4.08 8.15-3.78 14.2-12.14 17.48-24.16 2.99-10.97 3.49-24.49 1.39-38.07-2.17-14.07-6.98-27.22-13.54-37.02-7.36-10.99-16.68-17.5-26.95-18.83l.03-.21c10.33 1.33 19.7 7.87 27.1 18.92 6.58 9.83 11.4 23.01 13.58 37.11 2.1 13.6 1.6 27.15-1.4 38.15-3.3 12.09-9.38 20.49-17.59 24.3-9.02 4.18-20.24 2.81-33.34-4.09-14.93-7.86-32.02-22.8-50.8-44.41-11.33-13.02-22.05-18.72-32.77-17.42-23.28 2.83-41.87 39.08-58.27 71.08-6.89 13.44-13.4 26.14-19.84 35.66-7.23 10.7-13.35 15.86-19.26 16.24-.23.01-.46.02-.69.02z"/><path id="XMLID_3190_" class="st5" d="M-61.92 143.74c-4.6 0-9.01-3.12-13.43-9.52-28.55-41.25-43.52-48.12-51.05-46.63-5.83 1.16-7.76 7.33-8.32 9.93l-.21-.04c.57-2.64 2.54-8.91 8.49-10.09 7.59-1.51 22.65 5.37 51.27 46.72 4.63 6.69 9.22 9.77 14.03 9.4 5.78-.44 11.77-5.8 18.85-16.85 6.33-9.87 12.73-23.05 19.51-37 16.33-33.63 34.85-71.75 58.54-74.83 5.18-.67 10.5.37 15.8 3.1 5.66 2.91 11.51 7.84 17.37 14.66 19.01 22.08 36.34 37.39 51.52 45.52 13.27 7.11 24.68 8.66 33.89 4.6 8.14-3.59 14.33-11.6 17.89-23.16 3.24-10.51 4.14-23.64 2.54-36.96-1.7-14.2-6.1-27.66-12.39-37.9-7.02-11.43-16.07-18.43-26.18-20.23l.04-.21c10.17 1.81 19.27 8.84 26.32 20.33 6.3 10.27 10.72 23.76 12.42 37.98 1.6 13.35.69 26.51-2.55 37.05-3.58 11.62-9.8 19.68-18.01 23.29-9.28 4.09-20.74 2.54-34.08-4.61-15.2-8.14-32.55-23.48-51.58-45.57-11.45-13.3-22.24-19.09-32.99-17.69C12.2 18.09-6.29 56.15-22.6 89.74c-6.78 13.96-13.18 27.14-19.52 37.03-7.12 11.11-13.16 16.49-19.02 16.94-.26.02-.52.03-.78.03z"/><path id="XMLID_3189_" class="st5" d="M-63.41 146.54c-4.41 0-8.64-3-12.92-9.14-29.56-42.43-44.93-49.5-52.61-47.96-5.84 1.17-7.61 7.36-8.01 9.23l-.21-.04c.41-1.9 2.22-8.2 8.18-9.39 7.75-1.55 23.21 5.52 52.83 48.04 4.51 6.47 8.95 9.42 13.59 9.01 5.73-.51 11.65-6.08 18.62-17.53 6.23-10.24 12.52-23.9 19.19-38.37 16.24-35.25 34.64-75.2 58.63-78.52 5.19-.72 10.53.32 15.87 3.1 5.69 2.96 11.59 7.98 17.52 14.93 19.25 22.55 36.84 38.26 52.28 46.68 13.51 7.37 25.16 9.1 34.64 5.14 8.13-3.39 14.45-11.04 18.27-22.12 3.47-10.04 4.77-22.76 3.67-35.79-1.21-14.32-5.18-28.11-11.19-38.83-6.67-11.9-15.46-19.41-25.41-21.7l.05-.21c10.02 2.31 18.85 9.85 25.55 21.81 6.02 10.74 10 24.56 11.22 38.91 1.1 13.06-.2 25.81-3.68 35.88-3.85 11.14-10.21 18.83-18.39 22.25-9.54 3.98-21.25 2.25-34.82-5.15-15.47-8.44-33.08-24.16-52.34-46.73C55.53 16.47 44.67 10.6 33.91 12.09c-23.88 3.3-42.25 43.19-58.46 78.38-6.67 14.47-12.96 28.14-19.2 38.39-7.01 11.52-12.98 17.12-18.78 17.63-.3.03-.59.05-.88.05z"/><path id="XMLID_3188_" class="st5" d="M-64.86 149.35c-4.22 0-8.3-2.88-12.43-8.77-30.57-43.6-46.34-50.87-54.19-49.28-4.51.91-6.93 5-7.7 8.53l-.21-.05c.78-3.59 3.25-7.76 7.86-8.69 7.91-1.6 23.77 5.67 54.41 49.37 4.39 6.26 8.7 9.08 13.17 8.64 5.69-.57 11.53-6.36 18.39-18.21 6.13-10.6 12.32-24.75 18.87-39.74 16.13-36.88 34.4-78.67 58.7-82.22 5.2-.76 10.56.28 15.94 3.1 5.73 3 11.68 8.11 17.67 15.2 19.48 23.03 37.33 39.12 53.04 47.85 13.74 7.63 25.65 9.55 35.39 5.71 8.1-3.19 14.54-10.47 18.63-21.06 3.75-9.71 5.4-21.66 4.78-34.57-.7-14.45-4.23-28.58-9.94-39.8-6.31-12.4-14.84-20.43-24.65-23.24l.06-.21c9.87 2.83 18.44 10.9 24.78 23.35 5.73 11.25 9.27 25.41 9.96 39.89.62 12.93-1.03 24.92-4.79 34.66-4.11 10.64-10.59 17.97-18.75 21.18-3.27 1.29-6.79 1.93-10.54 1.93-7.47 0-15.85-2.56-25.04-7.66-15.74-8.73-33.6-24.85-53.1-47.89-11.69-13.84-22.62-19.8-33.4-18.23-24.18 3.53-42.43 45.27-58.53 82.09-6.55 14.99-12.74 29.14-18.88 39.76-6.9 11.92-12.79 17.74-18.55 18.32-.33.03-.64.04-.95.04z"/><path id="XMLID_3187_" class="st5" d="M-66.29 152.19c-4.05 0-7.98-2.77-11.97-8.43-31.6-44.78-47.77-52.23-55.77-50.61-4.38.89-6.71 4.77-7.37 7.83l-.21-.05c.67-3.12 3.05-7.08 7.54-7.99 8.06-1.64 24.32 5.82 55.99 50.69 4.27 6.05 8.45 8.76 12.77 8.28 5.64-.62 11.42-6.63 18.17-18.88 6.04-10.96 12.12-25.6 18.56-41.1 16-38.51 34.15-82.17 58.74-85.94 5.21-.8 10.59.25 16 3.1 5.76 3.04 11.76 8.25 17.81 15.47 19.71 23.49 37.8 39.98 53.78 49 13.98 7.89 26.14 10.02 36.16 6.31 18.64-6.9 25.03-32.05 24.8-53.28-.16-14.56-3.22-29.05-8.63-40.8-5.94-12.91-14.19-21.5-23.86-24.84l.07-.2c9.73 3.36 18.02 11.99 23.98 24.95 5.42 11.78 8.49 26.3 8.65 40.89.23 21.31-6.2 46.55-24.94 53.48-10.08 3.73-22.3 1.6-36.34-6.33-16-9.04-34.12-25.54-53.84-49.05C51.99 10.59 40.99 4.54 30.19 6.2 5.72 9.95-12.4 53.56-28.39 92.03c-13.1 31.51-24.4 58.72-36.9 60.11-.34.03-.67.05-1 .05z"/><path id="XMLID_3186_" class="st5" d="M-67.69 155.05c-3.89 0-7.67-2.66-11.54-8.1-32.64-45.95-49.21-53.6-57.36-51.93-4.54.93-6.56 4.91-7.03 7.12l-.21-.04c.49-2.26 2.55-6.33 7.2-7.29 8.21-1.68 24.87 5.97 57.58 52.02 4.16 5.85 8.21 8.45 12.38 7.95 5.6-.68 11.3-6.89 17.95-19.54 5.94-11.33 11.92-26.45 18.25-42.46C-14.59 52.58 3.42 7.03 28.31 3.04c5.22-.83 10.62.21 16.06 3.11 5.8 3.09 11.84 8.38 17.95 15.73 19.93 23.95 38.27 40.83 54.51 50.16 14.21 8.17 26.64 10.5 36.93 6.94 8.03-2.78 14.69-9.32 19.25-18.9 4.17-8.76 6.54-19.82 6.87-32 .75-27.48-9.42-59.77-30.31-68.31l.08-.2c20.98 8.58 31.2 40.96 30.45 68.51-.33 12.2-2.72 23.3-6.9 32.08-4.58 9.64-11.28 16.21-19.37 19.01-3.14 1.09-6.47 1.63-9.99 1.63-8.09 0-17.17-2.87-27.12-8.58-16.27-9.35-34.63-26.24-54.57-50.21-11.93-14.35-23-20.49-33.8-18.76-24.78 3.97-42.76 49.46-58.63 89.6-12.86 32.53-23.97 60.63-36.37 62.13-.35.05-.69.07-1.04.07z"/><path id="XMLID_3185_" class="st5" d="M-69.07 157.92c-3.74 0-7.39-2.56-11.13-7.79-15.16-21.2-28.32-36.33-39.12-44.99-8.14-6.52-14.82-9.3-19.84-8.26-4.39.91-6.3 4.59-6.69 6.41l-.21-.04c.4-1.87 2.36-5.65 6.86-6.58 8.36-1.73 25.42 6.12 59.18 53.34 4.05 5.66 7.98 8.16 12.01 7.63 5.56-.73 11.19-7.15 17.73-20.2 5.85-11.68 11.72-27.29 17.94-43.81C-16.59 51.75 1.27 4.29 26.47.09c5.22-.87 10.65.18 16.12 3.12 5.83 3.13 11.91 8.51 18.09 16 20.14 24.4 38.72 41.67 55.23 51.32 14.45 8.44 27.13 11 37.7 7.59 15.45-4.98 25.68-23.11 27.36-48.51.98-14.73-1.1-29.93-5.84-42.81-5.14-13.97-12.82-23.72-22.21-28.19l.09-.19c9.44 4.5 17.16 14.28 22.32 28.31 4.75 12.91 6.83 28.15 5.85 42.9-1.69 25.48-11.98 43.69-27.51 48.69-16.03 5.17-45.21-.87-93.16-58.97C48.45 4.73 37.32-1.5 26.5.3 1.43 4.48-16.41 51.88-32.14 93.7c-12.63 33.55-23.53 62.53-35.84 64.14-.37.05-.73.08-1.09.08z"/><path id="XMLID_3184_" class="st5" d="M-70.43 160.8c-3.59 0-7.12-2.46-10.74-7.49-15.72-21.83-29.33-37.39-40.46-46.24-8.28-6.58-15.04-9.38-20.11-8.33-4.36.91-6.08 4.51-6.34 5.7l-.21-.04c.27-1.23 2.03-4.94 6.5-5.87 5.13-1.07 11.95 1.75 20.28 8.37 11.15 8.86 24.78 24.43 40.5 46.28 3.94 5.48 7.75 7.87 11.65 7.32 12.11-1.7 22.81-31.53 35.2-66.07C-18.5 50.86-.78 1.47 24.68-2.9c5.22-.9 10.66.17 16.16 3.16 5.85 3.18 11.97 8.66 18.19 16.28 48.47 59.01 78.17 65.55 94.55 60.64 15.25-4.57 25.89-21.79 28.45-46.06 2.88-27.29-5.16-62.38-25.76-73.68l.1-.19c9.16 5.03 16.78 15.69 21.46 30.03 4.4 13.49 5.97 29.07 4.4 43.85-1.2 11.37-4.23 21.54-8.77 29.39-5.05 8.75-11.73 14.42-19.84 16.85-2.72.82-5.82 1.32-9.3 1.32-17.53 0-44.97-12.71-85.48-62.03C46.71 1.78 35.54-4.55 24.72-2.69-.62 1.66-18.32 50.99-33.93 94.51c-12.42 34.61-23.14 64.49-35.38 66.21-.37.06-.75.08-1.12.08z"/><path id="XMLID_3183_" class="st5" d="M-71.76 163.7c-3.46 0-6.86-2.37-10.37-7.21-16.29-22.48-30.36-38.46-41.83-47.5-8.41-6.63-15.26-9.45-20.36-8.38-4.24.89-5.84 4.35-5.97 4.99l-.21-.04c.01-.04 1.27-4.13 6.14-5.15 5.16-1.09 12.07 1.75 20.54 8.42 11.48 9.05 25.57 25.05 41.87 47.54 3.84 5.3 7.54 7.6 11.31 7.03 12.02-1.8 22.51-32.49 34.66-68.03C-20.51 50.08-2.96-1.25 22.82-5.84c5.23-.93 10.69.14 16.23 3.17C44.94.56 51.1 6.12 57.39 13.86c48.88 60.07 79.17 67.16 95.96 62.53 15.34-4.23 26.11-20.18 29.57-43.78 2.13-14.56 1.09-30.85-2.86-44.69-4.22-14.8-11.48-26.04-20.43-31.65l.11-.18c9 5.64 16.29 16.92 20.52 31.77 3.95 13.87 5 30.19 2.86 44.78-3.47 23.69-14.3 39.71-29.72 43.96-2.62.72-5.57 1.16-8.86 1.16-17.89 0-45.97-12.95-87.33-63.77C45.1-.93 33.54-7.53 22.85-5.63-2.8-1.06-20.32 50.21-35.79 95.44c-12.17 35.6-22.68 66.35-34.83 68.17-.38.06-.76.09-1.14.09z"/><path id="XMLID_3182_" class="st5" d="M-73.08 166.62c-3.33 0-6.62-2.28-10.01-6.94-16.4-22.48-30.6-38.62-42.23-47.98-8.54-6.88-15.54-10.02-20.81-9.34-4.84.62-6.38 4.39-6.39 4.42l-.2-.08c.02-.04 1.6-3.92 6.56-4.56 5.33-.68 12.38 2.47 20.97 9.39 11.64 9.37 25.86 25.53 42.27 48.02 3.74 5.13 7.33 7.34 10.98 6.76 11.93-1.9 22.21-33.44 34.12-69.97C-22.5 49.32-5.13-3.98 20.95-8.78c5.25-.96 10.73.11 16.3 3.18 5.92 3.27 12.14 8.92 18.48 16.78 49.29 61.11 80.15 68.78 97.36 64.44 15.22-3.83 26.37-18.99 30.61-41.59 2.73-14.54 2.26-31.14-1.29-45.55-3.76-15.3-10.67-27.16-19.45-33.39l.12-.17c8.82 6.27 15.76 18.17 19.54 33.52 3.55 14.44 4.02 31.07 1.29 45.64-1.98 10.57-5.6 19.88-10.47 26.9-5.42 7.83-12.25 12.83-20.3 14.85-17.27 4.35-48.22-3.31-97.58-64.52C43.33-3.84 31.7-10.53 20.99-8.56c-25.96 4.77-43.31 58-58.62 104.97-11.93 36.6-22.23 68.2-34.29 70.12-.38.05-.77.09-1.16.09z"/></g><path id="XMLID_3179_" class="st6" d="M70.03 63.52s.83 2.29 1.72 2.07c.89-.22 2.12-.65 3.11-5.91 1.35-7.12 3.65-25.7-8.31-26.01-2.34-.06-8.88-.44-12.97 6.6-8.53 14.65-7.82 49.02 12.11 54.56 8.21 2.28 18.2-7.11 20.83-14.35 1.26-3.47 2.31-7.66 2.31-7.66s1.31-2.58 1.79-.09c.49 2.49.2 3.94 4.23 5.54 4.03 1.59 3.51 1.8 4.78 2.1 1.27.29 2.06 1.69.61 1.41-1.45-.29-2.17-.25-2.17-.25s-1.25.07-.12 1.27c1.14 1.2 3.16 2 3.16 2s1.21 2.63-.44 1.82c-1.66-.82-3.3-1.27-3.3-1.27s-2.54-.41-1.38 1.15c1.15 1.56 2.44 2.03 2.44 2.03s1.21 2.63-.46 1.64-3.33-1.99-3.33-1.99-1.63-.28-1.03.95c.6 1.23 1.18 1.92 1.18 1.92s.25 1.43-1.07.24c-1.32-1.2-3.79-3.95-4.7-4.08-.9-.13-.73-.32-1.74 1.17-3.72 5.53-5.28 9.45-11.2 13.14-11.28 7.06-26.63-5.41-30.68-16.78-6.02-16.86-7.48-38.72 4.88-53.27 7.5-8.84 26.57-9.01 32.03 8.1.82 2.57 1.32 11.98.42 15.44-.9 3.46-3.56 11.32-7.68 15.12-4.12 3.81-6.86 6.46-8.78 7.63-1.92 1.18-4.73 2.4-2.86.14 1.86-2.25 2.22-2.27.79-2.01-1.43.25-3.18 1.06-4.09.93-.9-.14-1.8-.09-.07-1.44 1.73-1.35 2.96-1.95 2.96-1.95s.66-1.29-.95-1.03c-1.6.26-3.58.36-3.58.36s-2.72-.4-.44-1.59c2.28-1.2 3.7-1.45 3.7-1.45s1.21-.96-.59-1.05c-1.8-.09-2.89-.22-2.89-.22s-1.69-1.35.28-1.63c1.96-.28 7.69-.75 7.69-.75s1.24-.42.44-2c-.79-1.58-.84-2.48-.84-2.48s.09-1.8 1.41-.61c1.29 1.18 2.8 2.54 2.8 2.54"/><path id="XMLID_3178_" class="st6" d="M102.26 68.58c.17.03.31.06.46.08.04.1.04.21.05.27 2.45.79 2.66 3.47 1.47 5.53-.07.04-.17.08-.28.08.01.1.01.17.01.24-1.57.81-2.37.89-4.07.55 0-.07 0-.14-.01-.25-.46.02-1.05-.75-1.34-1.05-.61-1.54-.53-2.87.38-4.22 1.34-1.13 1.66-1.07 3.33-1.23"/><path id="XMLID_3170_" class="st6" d="M153.48 46.58l15.01-.76c-.6-1.58-1.62-2.8-3.04-3.65a8.144 8.144 0 0 0-4.65-1.15c-.07 0-.13.01-.2.01s-.13.01-.2.01c-1.57.18-3.02.76-4.36 1.76-1.32 1-2.17 2.26-2.56 3.78m21.57 4.73l-21.17 1.07c.57 1.58 1.55 2.82 2.92 3.7a7.38 7.38 0 0 0 4.52 1.2 9.65 9.65 0 0 0 3.49-.82c1.08-.48 1.91-1.1 2.5-1.85l7.24-.41c-.7 2.5-2.26 4.66-4.68 6.48-2.43 1.82-5.08 2.8-7.97 2.94-3.97.2-7.43-1.01-10.38-3.64-2.95-2.64-4.52-5.94-4.72-9.91-.21-4.04 1.02-7.57 3.66-10.6 2.64-3.03 6-4.64 10.07-4.85 3.91-.2 7.28 1.07 10.14 3.8 2.85 2.73 4.37 5.98 4.56 9.78.02.43.02.84-.01 1.25-.03.41-.07.81-.11 1.21-.03.14-.05.25-.05.35-.01.11-.02.21-.01.3m-38.31-.88c-.12-2.3-.99-4.2-2.64-5.69-1.64-1.5-3.62-2.19-5.95-2.07-1.05.05-2.05.32-3 .79a7.85 7.85 0 0 0-2.45 1.9c-.72.83-1.22 1.71-1.52 2.64-.3.94-.42 1.95-.36 3.03.12 2.36 1 4.29 2.64 5.79 1.64 1.5 3.64 2.18 6 2.07 2.16-.11 3.95-1.02 5.34-2.71 1.39-1.7 2.04-3.6 1.93-5.7l.01-.05zm-.54-13.74l6.01-.3 1.17 23.14c.11 2.13-.07 4.05-.52 5.75-.46 1.7-1.38 3.36-2.79 4.98a15.965 15.965 0 0 1-4.77 3.68c-1.85.93-3.79 1.45-5.82 1.55-2.89.14-5.65-.53-8.3-2.03-2.64-1.49-4.54-3.6-5.7-6.3l7.44-.37c.55.53 1.22.99 2.02 1.37.79.39 1.59.65 2.38.77a5.876 5.876 0 0 0 1.83.15c.23-.01.45-.03.67-.06.21-.03.43-.06.66-.11.88-.18 1.73-.47 2.54-.87.82-.4 1.53-.91 2.12-1.54.88-.9 1.44-1.79 1.69-2.68.25-.89.43-1.87.54-2.97.03-.07.05-.15.06-.25.01-.1.02-.2.01-.3l-.1-.15c-1.01 1.5-2.21 2.71-3.6 3.62-1.39.91-3.02 1.41-4.88 1.5-.39.02-.81.02-1.24-.01-.43-.03-.86-.08-1.29-.16-1.36-.23-2.71-.65-4.04-1.28-1.33-.62-2.46-1.39-3.4-2.3a13.457 13.457 0 0 1-3.21-4.53c-.76-1.74-1.22-3.54-1.38-5.41-.01-.1-.01-.19-.01-.27 0-.08-.01-.16-.01-.22-.09-1.8.15-3.54.72-5.19.58-1.66 1.39-3.16 2.44-4.49 1.21-1.47 2.69-2.68 4.43-3.61 1.75-.93 3.64-1.44 5.67-1.54 1.77-.09 3.45.2 5.03.88 1.58.68 2.82 1.78 3.72 3.32l.1-.06-.19-3.71zm-33.4-1.48l-.3-5.96 6.55-.33.3 5.95-6.55.34zm1.54 30.43l-1.38-27.28 6.55-.33 1.37 27.28-6.54.33zm-11.82.6l-1.84-36.39 6.55-.33 1.83 36.39-6.54.33z"/></g></svg>