<svg version="1.1" id="Layer_1" xmlns="http://www.w3.org/2000/svg" x="0px" y="0px" width="282px" height="128px" viewBox="0 0 282 128" xml:space="preserve"><style type="text/css">.st0{fill:#BDBCBC;} .st1{fill:#D13239;} .st2{fill-rule:evenodd;clip-rule:evenodd;fill:#656263;} .st3{fill:#656263;}</style><g id="XMLID_5118_"><path id="XMLID_5292_" class="st0" d="M21.28 60.7c-.03-15.44 16.95-27.99 37.93-28.03 4.56-.01 8.94.58 13 1.66l7.42-14.69c-6.38-1.71-13.26-2.64-20.45-2.63C26.45 17.07-.04 36.65 0 60.74c.03 18.63 15.94 34.51 38.28 40.72l7.42-14.69c-14.26-4-24.4-14.15-24.42-26.07z"/><path id="XMLID_5289_" class="st1" d="M66.82 60.72c2.96-8.24 5.17-14.45 5.8-16.28 2.57-7.55 6.04-15.71 2.82-30.07C72.69 2.15 62.55-.32 58.09.03c-7.62.59-12.62 5.49-14.95 14.78-2.93 11.69 2.33 30.23 4.33 36.11.38 1.11 1.61 4.56 3.36 9.41C40.46 83.44 29 108.46 29 108.46l13.8 18.84s8.26-22.86 16.11-44.64c7.74 21.3 16.5 45.34 16.5 45.34l13.28-18.96c.01 0-11.63-25.62-21.87-48.32zm-15.07-33.8c-4.76-11.92.74-18.81 7.08-18.2 7.34.71 10.09 7.6 8.32 13.85-.55 1.93-3.92 9.83-8.45 20.1-3.62-8.08-6.29-14.1-6.95-15.75z"/><path id="XMLID_5288_" class="st2" d="M87.51 22.25c-1.6-.64-3.24-1.22-4.92-1.75l1.98-3.13-27.17 2.99 13.8 18.07 2.37-3.73c2.61.78 5.07 1.76 7.35 2.93l6.59-15.38z"/><path id="XMLID_5287_" class="st3" d="M118.52 60.52c-.03-18.8-16.23-34.8-38.89-40.89l-7.42 14.69c14.58 3.88 25.01 14.15 25.03 26.23.03 15.45-16.95 28-37.93 28.04-4.79.01-9.38-.64-13.61-1.82l-7.42 14.69c6.55 1.82 13.64 2.81 21.06 2.8 32.73-.06 59.22-19.64 59.18-43.74z"/><path id="XMLID_5286_" class="st0" d="M55.37 98.81l-9.7-16.83-2.33 4.06c-2.33-.79-4.53-1.75-6.58-2.86l-6.64 15.48c1.6.66 3.24 1.27 4.93 1.82l-1.73 3.01 22.05-4.68z"/><path id="XMLID_5282_" class="st1" d="M135.67 51.29c-2.9-2.55-3.67-5.87-3.67-8.74 0-2.02.62-5.51 3.47-8.12 2.13-1.96 4.95-3.14 9.36-3.14 1.84 0 2.93.12 4.3.3 1.13.15 2.07.41 2.96.5.33.03.44.18.44.36 0 .24-.09.59-.15 1.63-.06.98-.03 2.61-.09 3.2-.03.44-.09.68-.36.68-.24 0-.3-.24-.3-.65-.03-.92-.42-1.96-1.16-2.73-.98-1.04-3.29-1.84-6.01-1.84-2.58 0-4.27.65-5.57 1.84-2.16 1.99-2.73 4.8-2.73 7.67 0 7.05 5.36 10.55 9.33 10.55 2.64 0 4.24-.3 5.42-1.66.5-.56.89-1.42 1.01-1.96.09-.47.15-.59.39-.59.21 0 .27.21.27.44 0 .36-.36 2.93-.65 3.94-.15.5-.27.65-.77.86-1.19.47-3.44.68-5.33.68-4.05.01-7.46-.88-10.16-3.22z"/><path id="XMLID_5280_" class="st1" d="M159.44 40.29c0-4.5 0-5.33-.06-6.28-.06-1.01-.3-1.48-1.27-1.69-.24-.06-.74-.09-1.16-.09-.33 0-.5-.06-.5-.27 0-.21.21-.27.65-.27.8 0 1.66.03 2.4.03.77.03 1.45.06 1.87.06.95 0 6.85 0 7.41-.03.56-.06 1.04-.12 1.27-.18.15-.03.33-.12.47-.12.15 0 .18.12.18.27 0 .21-.15.56-.24 1.93-.03.3-.09 1.6-.15 1.96-.03.15-.09.33-.3.33s-.27-.15-.27-.41c0-.21-.03-.71-.18-1.07-.21-.53-.5-.89-1.99-1.07-.5-.06-3.61-.12-4.21-.12-.15 0-.21.09-.21.3v7.5c0 .21.03.33.21.33.65 0 4.06 0 4.74-.06.71-.06 1.16-.15 1.42-.44.21-.24.33-.39.47-.39.12 0 .21.06.21.24s-.12.65-.24 2.16c-.03.59-.12 1.78-.12 1.99 0 .24 0 .56-.27.56-.21 0-.27-.12-.27-.27-.03-.3-.03-.68-.12-1.07-.15-.59-.56-1.04-1.66-1.16-.56-.06-3.5-.09-4.21-.09-.15 0-.18.12-.18.3v2.34c0 1.01-.03 3.73 0 4.59.06 2.05.53 2.49 3.56 2.49.77 0 2.02 0 2.79-.36s1.13-.98 1.33-2.19c.06-.33.12-.44.33-.44.24 0 .24.24.24.53 0 .68-.24 2.7-.39 3.29-.21.77-.47.77-1.6.77-2.22 0-3.85-.06-5.13-.09-1.27-.06-2.19-.09-3.08-.09-.33 0-.98 0-1.69.03-.68 0-1.45.06-2.05.06-.39 0-.59-.09-.59-.3 0-.15.12-.24.47-.24.44 0 .8-.06 1.07-.12.59-.12.74-.77.86-1.63.15-1.24.15-3.59.15-6.31v-5.21z"/><path id="XMLID_5278_" class="st1" d="M180.2 50.07c.06 2.31.44 3.08 1.04 3.29.5.18 1.07.21 1.54.21.33 0 .5.06.5.24 0 .24-.27.3-.68.3-1.93 0-3.11-.09-3.67-.09-.27 0-1.66.09-3.2.09-.39 0-.65-.03-.65-.3 0-.18.18-.24.47-.24.39 0 .92-.03 1.33-.15.77-.24.89-1.1.92-3.67l.27-17.54c0-.59.09-1.01.39-1.01.33 0 .59.39 1.1.92.36.39 4.86 5.21 9.19 9.51 2.02 2.02 6.02 6.28 6.52 6.76h.15l-.3-13.31c-.03-1.81-.3-2.37-1.01-2.67-.44-.18-1.16-.18-1.57-.18-.36 0-.47-.09-.47-.27 0-.24.33-.27.77-.27 1.54 0 2.96.09 3.59.09.33 0 1.45-.09 2.9-.09.38 0 .68.03.68.27 0 .18-.18.27-.53.27-.3 0-.53 0-.89.09-.83.24-1.07.86-1.1 2.52l-.33 18.7c0 .65-.12.92-.39.92-.33 0-.68-.33-1.01-.65-1.87-1.78-5.66-5.66-8.74-8.71-3.23-3.2-6.52-6.9-7.05-7.47h-.09l.32 12.44z"/><path id="XMLID_5276_" class="st1" d="M204.18 53.74c-.47-.21-.56-.36-.56-1.01 0-1.63.12-3.41.15-3.88.03-.44.12-.77.36-.77.27 0 .3.27.3.5 0 .39.12 1.01.27 1.51.65 2.19 2.4 2.99 4.24 2.99 2.67 0 3.97-1.81 3.97-3.38 0-1.45-.44-2.82-2.9-4.74l-1.36-1.07c-3.26-2.55-4.39-4.62-4.39-7.02 0-3.26 2.73-5.6 6.85-5.6 1.93 0 3.17.3 3.94.5.27.06.41.15.41.36 0 .39-.12 1.24-.12 3.56 0 .65-.09.89-.33.89-.21 0-.3-.18-.3-.53 0-.27-.15-1.19-.77-1.96-.44-.56-1.3-1.45-3.23-1.45-2.19 0-3.53 1.27-3.53 3.05 0 1.36.68 2.4 3.14 4.27l.83.62c3.58 2.7 4.86 4.74 4.86 7.56 0 1.72-.65 3.76-2.79 5.16-1.48.95-3.14 1.21-4.71 1.21-1.72.01-3.06-.2-4.33-.77z"/><path id="XMLID_5274_" class="st1" d="M222.7 40.29c0-4.5 0-5.33-.06-6.28-.06-1.01-.36-1.51-1.01-1.66-.33-.09-.71-.12-1.07-.12-.3 0-.47-.06-.47-.3 0-.18.24-.24.71-.24 1.13 0 2.99.09 3.85.09.74 0 2.49-.09 3.61-.09.39 0 .62.06.62.24 0 .24-.18.3-.47.3-.3 0-.53.03-.89.09-.8.15-1.04.65-1.1 1.69-.06.95-.06 1.78-.06 6.28v5.22c0 2.87 0 5.22.12 6.49.09.8.3 1.33 1.19 1.45.41.06 1.07.12 1.51.12.33 0 .47.09.47.24 0 .21-.24.3-.56.3-1.96 0-3.82-.09-4.62-.09-.68 0-2.55.09-3.73.09-.39 0-.59-.09-.59-.3 0-.15.12-.24.47-.24.44 0 .8-.06 1.07-.12.59-.12.77-.62.86-1.48.15-1.24.15-3.59.15-6.46v-5.22z"/><path id="XMLID_5271_" class="st1" d="M236.31 40.29c0-4.5 0-5.33-.06-6.28-.06-1.01-.3-1.48-1.27-1.69-.24-.06-.74-.09-1.16-.09-.33 0-.5-.06-.5-.27 0-.21.21-.27.65-.27 1.57 0 3.44.09 4.27.09.92 0 2.79-.09 4.56-.09 3.7 0 8.65 0 11.88 3.38 1.48 1.54 2.87 4 2.87 7.53 0 3.73-1.57 6.58-3.23 8.27-1.36 1.39-4.45 3.5-9.93 3.5-1.07 0-2.28-.09-3.41-.18-1.13-.09-2.16-.18-2.9-.18-.33 0-.98 0-1.69.03-.68 0-1.45.06-2.05.06-.38 0-.59-.09-.59-.3 0-.15.12-.24.47-.24.44 0 .8-.06 1.07-.12.59-.12.74-.77.86-1.63.15-1.24.15-3.59.15-6.31v-5.21zm3.7 3.26c0 3.14.03 5.42.06 5.99.03.74.09 1.93.33 2.25.39.56 1.54 1.19 3.88 1.19 3.02 0 5.04-.59 6.81-2.13 1.9-1.63 2.49-4.33 2.49-7.38 0-3.76-1.57-6.19-2.85-7.41-2.73-2.61-6.1-2.96-8.42-2.96-.59 0-1.69.09-1.93.21-.27.12-.36.27-.36.59-.03 1.01-.03 3.59-.03 5.93v3.72z"/><path id="XMLID_5268_" class="st1" d="M264.92 46.37c-.15 0-.21.06-.27.24l-1.6 4.24c-.3.74-.44 1.45-.44 1.81 0 .53.27.92 1.19.92h.44c.36 0 .44.06.44.24 0 .24-.18.3-.5.3-.95 0-2.22-.09-3.14-.09-.33 0-1.96.09-3.5.09-.39 0-.56-.06-.56-.3 0-.18.12-.24.36-.24.27 0 .68-.03.92-.06 1.36-.18 1.93-1.19 2.52-2.67l7.44-18.61c.36-.86.53-1.19.83-1.19.27 0 .44.27.74.95.71 1.63 5.45 13.72 7.35 18.22 1.13 2.67 1.99 3.08 2.61 3.23.44.09.89.12 1.24.12.24 0 .39.03.39.24 0 .24-.27.3-1.36.3-1.07 0-3.23 0-5.6-.06-.53-.03-.89-.03-.89-.24 0-.18.12-.24.41-.27.21-.06.42-.33.27-.68l-2.37-6.28c-.06-.15-.15-.21-.3-.21h-6.62zm6.05-1.49c.15 0 .18-.09.15-.18l-2.67-7.32c-.03-.12-.06-.27-.15-.27s-.15.15-.18.27l-2.73 7.29c-.03.12 0 .21.12.21h5.46z"/><path id="XMLID_5265_" class="st3" d="M136.09 72.87c-.71-.63-1.04-1.73-1.04-2.56 0-.99.32-1.88.99-2.6.55-.58 1.34-1.04 2.53-1.04.87 0 1.59.22 1.93.4.13.07.18.06.2-.01l.08-.24c.02-.06.04-.06.18-.06.14 0 .16.02.16.15 0 .18.17 1.81.22 2.1.01.07 0 .11-.05.12l-.21.06c-.05.02-.09-.02-.11-.11-.1-.38-.36-.87-.77-1.28-.41-.4-.92-.72-1.65-.72-1.4 0-1.99 1.27-1.98 2.69 0 .6.17 1.78.85 2.5.62.64 1.17.72 1.5.72 1.09 0 1.91-.5 2.26-1.03.05-.08.1-.11.14-.08l.16.14c.03.02.04.06 0 .11-.56.8-1.49 1.58-2.84 1.58-1.28.04-1.95-.3-2.55-.84z"/><path id="XMLID_5262_" class="st3" d="M143.4 71.22v.26c0 1 .57 1.48 1.26 1.48.47 0 .85-.22 1.05-.53.02-.05.06-.06.1-.03l.16.09c.04.02.07.07-.02.23-.17.35-.79 1.02-1.7 1.02-.61 0-1.12-.11-1.44-.45-.49-.53-.65-.9-.66-1.65 0-.27 0-.78.43-1.41.35-.51.93-.79 1.67-.79 1.55 0 1.64 1.48 1.64 1.64 0 .12-.09.13-.3.13h-2.19zm.93-.36c.21 0 .31-.05.31-.19 0-.42-.17-.83-.47-.83-.45 0-.69.36-.76 1.03h.92z"/><path id="XMLID_5260_" class="st3" d="M148.19 69.98h.08c.1-.12.28-.25.46-.34.21-.12.42-.18.74-.18.37 0 .74.04.99.27.4.37.43.61.43 1.09v1.02c0 .33-.02.78-.04 1.11-.01.29.14.34.23.34h.26c.09 0 .1.03.1.09v.17c0 .07-.02.11-.08.11-.07 0-.36-.03-1.13-.03-.63 0-.94.03-1.01.03-.06 0-.08-.03-.08-.11v-.17c0-.07.03-.09.12-.09h.1c.07 0 .15-.05.17-.22.04-.25.06-.56.06-1v-1.03c0-.36-.03-.61-.23-.79a.626.626 0 0 0-.47-.17c-.17 0-.3.05-.49.19-.11.09-.19.34-.19.74l-.02 1.96c0 .17.07.32.15.32h.12c.08 0 .1.03.1.1v.18c0 .06-.02.09-.07.09-.07 0-.32-.03-.96-.03-.68 0-.99.03-1.05.03-.05 0-.07-.03-.07-.09v-.19c0-.06.02-.09.1-.09h.14c.1 0 .27-.03.27-.19v-2.13c0-.29-.16-.45-.38-.56l-.09-.04c-.06-.03-.07-.07-.07-.11v-.09c0-.05.04-.08.09-.1l1.23-.56c.08-.03.14-.07.22-.07.06 0 .11.05.13.12l.14.42z"/><path id="XMLID_5258_" class="st3" d="M153.46 72.21c0 .79.3.96.53.96.2 0 .35-.03.5-.11.03-.02.06-.02.09.04l.07.14c.03.05 0 .1-.04.12-.16.11-.59.38-1.34.38-.65 0-1.06-.45-1.06-.89 0-.34.02-1.06.02-1.43l.01-1.27h-.53c-.09 0-.15-.04-.15-.13 0-.1.06-.16.21-.24.32-.14 1.12-.86 1.48-1.26.07-.08.13-.1.18-.1.09 0 .12.07.12.14l-.04 1.02h1.22c.06 0 .09.05.07.09l-.1.41c-.01.04-.03.08-.09.08h-1.12c-.02.39-.02.85-.02 1.29v.76z"/><path id="XMLID_5256_" class="st3" d="M156.94 72.88c0 .3.1.39.3.39h.39c.06 0 .07.03.07.09v.19c0 .06-.01.09-.05.09-.06 0-.5-.03-1.36-.03-.74 0-1.14.03-1.2.03-.04 0-.06-.02-.06-.1v-.18c0-.07.02-.09.11-.09h.28c.14 0 .23-.06.25-.23.02-.27.02-.6.02-1.08v-.79c0-.41-.1-.58-.38-.75l-.16-.1c-.06-.03-.08-.05-.08-.09v-.09c0-.04.02-.06.08-.08l1.34-.58c.06-.02.1-.04.15-.04.07 0 .11.06.11.12l.09.75h.07c.3-.63.72-.92 1.14-.92.29 0 .51.22.51.56 0 .26-.3.55-.61.55-.13 0-.26-.03-.34-.09a.442.442 0 0 0-.24-.07c-.1 0-.19.05-.25.17-.12.26-.16.44-.16.56v1.81z"/><path id="XMLID_5253_" class="st3" d="M159.18 73.04c-.36-.4-.51-.91-.51-1.51 0-.43.24-1.14.82-1.59.49-.38.98-.49 1.43-.49.66 0 1.11.2 1.54.6.47.42.66.94.66 1.52 0 .56-.24 1.09-.61 1.49-.46.48-1.02.67-1.67.67-.69.01-1.17-.13-1.66-.69zm2.49-1.53c0-1.11-.38-1.66-.81-1.66-.24 0-.39.07-.52.26-.19.3-.32.71-.32 1.48 0 .56.05.92.24 1.33.12.26.28.41.63.41.54.01.78-.76.78-1.82z"/><path id="XMLID_5251_" class="st3" d="M171.64 70.82c0-.85-.01-1.32-.03-1.8-.01-.37-.06-1.31-.09-1.46-.06-.24-.29-.37-.51-.37h-.31c-.05 0-.06-.03-.06-.09v-.24c0-.05.01-.07.09-.07.1 0 .41.03 1.12.03.57 0 .8-.03.91-.03.09 0 .1.02.1.08v.23c0 .05-.01.09-.05.09h-.27c-.16 0-.26.16-.29.51-.07.64-.22 2.81-.22 4.07v1.64c0 .14-.01.32-.14.32-.14 0-.27-.05-.37-.15-.16-.15-.63-.66-1.21-1.34-.69-.81-1.46-1.73-1.64-1.94-.16-.19-1.48-1.84-1.71-2.16h-.08v1.93c0 .8.09 1.97.1 2.34.02.56.19.84.59.84h.24c.07 0 .08.03.08.09v.23c0 .06-.01.08-.08.08-.1 0-.67-.03-1.12-.03-.3 0-.96.03-1.05.03-.04 0-.05-.02-.05-.09v-.26c0-.03.01-.06.06-.06h.34c.21 0 .36-.31.41-.95.01-.18.09-1.71.09-3.13v-.86c0-.56-.34-1.1-.82-1.11l-.24-.01c-.05 0-.06-.04-.06-.07v-.26c0-.04.01-.06.06-.06.05 0 .12.01.31.01.19.01.5.02 1 .02.33 0 .61-.02.73-.02.13 0 .2.04.28.12.05.06 1.93 2.37 2.22 2.72.13.16 1.53 1.92 1.64 2.04h.04v-.86z"/><path id="XMLID_5248_" class="st3" d="M175.48 70.55c0-.19-.02-.41-.14-.53-.1-.09-.25-.11-.4-.11a.91.91 0 0 0-.51.15c-.14.1-.03.26-.03.57 0 .33-.24.55-.62.55-.22 0-.41-.13-.41-.34 0-.21.07-.5.27-.67.4-.36 1.06-.71 1.84-.71.61 0 .77.1.98.28.21.19.27.47.27.81l.02 1.91c.01.5.04.65.22.65.13 0 .24-.11.28-.17.04-.06.07-.07.1-.05l.13.08c.04.02.07.05.03.13-.09.2-.37.65-.97.65-.37 0-.73-.13-.91-.58h-.05c-.24.22-.44.35-.82.5-.19.07-.41.09-.69.09-.34 0-.63-.36-.63-.88 0-.42.2-.86.82-1.17.75-.35.99-.46 1.24-.63v-.53zm.01.9c-.47.27-.86.41-.86 1.07 0 .44.2.62.41.63.26-.02.45-.26.45-.34v-1.36z"/><path id="XMLID_5246_" class="st3" d="M181.42 70.38c0 .27-.19.45-.5.45-.4 0-.61-.27-.69-.51-.11-.34-.3-.46-.56-.46-.26 0-.63.37-.63.98 0 .6-.02 1.03.31 1.63.24.43.59.56 1.02.56.44 0 .65-.09.96-.31.05-.03.08-.05.11-.01l.13.13c.03.04.02.08-.01.12-.18.32-.93.78-1.81.78-.72 0-1.2-.2-1.5-.58-.37-.46-.49-.83-.49-1.32 0-.65.21-1.35.72-1.82.43-.39.9-.57 1.42-.57 1.25 0 1.52.63 1.52.93z"/><path id="XMLID_5243_" class="st3" d="M183.47 69.51c.1-.04.19-.06.26-.06.08 0 .11.05.1.12-.02.16-.02.77-.02 1.61v1.02c0 .37 0 .72.01.82.02.18.07.25.17.25h.35c.08 0 .1.03.1.09v.18c0 .07-.02.1-.09.1-.08 0-.52-.03-1.35-.03-.56 0-.93.03-1.04.03-.05 0-.08-.02-.08-.1v-.19c0-.06.03-.08.1-.08h.35c.11 0 .17-.04.18-.19.02-.29.02-.58.02-.85l-.02-1.34c0-.27-.06-.46-.46-.6-.1-.04-.11-.08-.11-.13v-.11c0-.03.02-.05.11-.08l1.42-.46zm.27-1.78c.01.34-.24.7-.81.72-.42 0-.74-.28-.74-.69 0-.34.35-.65.8-.65.49 0 .75.32.75.62z"/><path id="XMLID_5240_" class="st3" d="M185.23 73.04c-.36-.4-.51-.91-.51-1.51 0-.43.24-1.14.82-1.59.49-.38.98-.49 1.43-.49.66 0 1.11.2 1.54.6.47.42.66.94.66 1.52 0 .56-.24 1.09-.61 1.49-.46.48-1.01.67-1.67.67-.7.01-1.18-.13-1.66-.69zm2.49-1.53c0-1.11-.38-1.66-.8-1.66-.24 0-.39.07-.52.26-.19.3-.32.71-.32 1.48 0 .56.05.92.24 1.33.13.26.28.41.63.41.53.01.77-.76.77-1.82z"/><path id="XMLID_5238_" class="st3" d="M191.4 69.98h.08c.1-.12.28-.25.46-.34.21-.12.42-.18.74-.18.37 0 .74.04.99.27.4.37.43.61.43 1.09v1.02c0 .33-.02.78-.04 1.11-.01.29.14.34.23.34h.26c.09 0 .1.03.1.09v.17c0 .07-.02.11-.08.11-.07 0-.36-.03-1.13-.03-.63 0-.94.03-1.01.03-.06 0-.08-.03-.08-.11v-.17c0-.07.03-.09.12-.09h.1c.07 0 .15-.05.17-.22.04-.25.06-.56.06-1v-1.03c0-.36-.03-.61-.23-.79a.626.626 0 0 0-.47-.17c-.17 0-.3.05-.49.19-.11.09-.19.34-.19.74l-.02 1.96c0 .17.07.32.15.32h.13c.08 0 .1.03.1.1v.18c0 .06-.02.09-.07.09-.07 0-.32-.03-.96-.03-.68 0-.99.03-1.05.03-.05 0-.07-.03-.07-.09v-.19c0-.06.02-.09.1-.09h.14c.1 0 .27-.03.27-.19v-2.13c0-.29-.16-.45-.38-.56l-.09-.04c-.06-.03-.07-.07-.07-.11v-.09c0-.05.04-.08.09-.1l1.23-.56c.08-.03.14-.07.22-.07.06 0 .11.05.13.12l.13.42z"/><path id="XMLID_5235_" class="st3" d="M197.24 70.55c0-.19-.02-.41-.14-.53-.1-.09-.25-.11-.4-.11a.91.91 0 0 0-.51.15c-.14.1-.03.26-.03.57 0 .33-.24.55-.62.55-.22 0-.41-.13-.41-.34 0-.21.07-.5.27-.67.4-.36 1.06-.71 1.84-.71.61 0 .77.1.98.28.21.19.27.47.27.81l.02 1.91c.01.5.04.65.22.65.13 0 .24-.11.28-.17.04-.06.07-.07.1-.05l.13.08c.04.02.07.05.03.13-.09.2-.37.65-.97.65-.37 0-.73-.13-.91-.58h-.05c-.24.22-.44.35-.82.5-.19.07-.41.09-.69.09-.34 0-.63-.36-.63-.88 0-.42.2-.86.82-1.17.75-.35.99-.46 1.24-.63v-.53zm.01.9c-.47.27-.86.41-.86 1.07 0 .44.2.62.41.63.26-.02.45-.26.45-.34v-1.36z"/><path id="XMLID_5233_" class="st3" d="M201.47 71.69c0 .38 0 1.01.03 1.28.01.16.04.3.24.3h.33c.09 0 .11.03.11.09v.18c0 .06-.02.1-.06.1-.07 0-.49-.03-1.25-.03-.81 0-1.19.03-1.27.03-.05 0-.07-.04-.07-.12v-.16c0-.07.02-.09.13-.09h.29c.1 0 .26-.07.26-.41v-3.05c0-.68 0-1.46-.02-1.7-.02-.33-.22-.46-.53-.56l-.17-.06c-.07-.03-.08-.06-.08-.11v-.14c0-.03.02-.07.09-.08.43-.09 1.43-.41 1.71-.56.11-.05.16-.07.21-.07.06 0 .1.05.09.17-.01.53-.02 2.52-.02 3.18v1.81z"/><path id="XMLID_5230_" class="st3" d="M204.88 71.05c0-.33-.03-.47-.32-.62l-.22-.11c-.05-.03-.07-.05-.07-.09v-.13c0-.03.02-.05.07-.07l1.25-.49c.12-.05.21-.1.3-.1.06 0 .09.07.11.2l.07.35h.04c.24-.3.74-.56 1.22-.56.52 0 .87.14 1.19.49.4.44.54.78.52 1.33.01 1.46-.97 2.47-2.18 2.47-.16 0-.47-.01-.72-.15l.01 1.47c.01.78.11.82.34.82h.24c.08 0 .09.04.09.1v.18c0 .06-.02.09-.09.09-.05 0-.37-.03-1.23-.03-.7 0-1.04.03-1.11.03-.07 0-.09-.03-.09-.1v-.19c0-.05.02-.08.12-.08h.22c.16 0 .23-.1.25-.25.02-.21.02-.5.02-1.04l-.03-3.52zm1.24 1.54c0 .15.07.4.26.56.14.12.35.22.57.22.4 0 .76-.35.76-1.27 0-.6-.07-1.98-1-1.98-.18 0-.44.08-.59.26v2.21z"/><path id="XMLID_5227_" class="st3" d="M211.76 70.55c0-.19-.02-.41-.14-.53-.1-.09-.25-.11-.4-.11a.91.91 0 0 0-.51.15c-.14.1-.03.26-.03.57 0 .33-.24.55-.62.55-.22 0-.41-.13-.41-.34 0-.21.07-.5.27-.67.4-.36 1.06-.71 1.84-.71.61 0 .77.1.98.28.21.19.27.47.27.81l.02 1.91c.01.5.04.65.22.65.13 0 .24-.11.28-.17.04-.06.07-.07.1-.05l.13.08c.04.02.07.05.03.13-.09.2-.37.65-.97.65-.37 0-.73-.13-.91-.58h-.05c-.24.22-.44.35-.82.5-.19.07-.41.09-.69.09-.34 0-.63-.36-.63-.88 0-.42.2-.86.82-1.17.75-.35.99-.46 1.24-.63v-.53zm.01.9c-.47.27-.86.41-.86 1.07 0 .44.2.62.41.63.26-.02.45-.26.45-.34v-1.36z"/><path id="XMLID_5213_" class="st3" d="M215.97 72.88c0 .3.1.39.3.39h.39c.06 0 .07.03.07.09v.19c0 .06-.01.09-.05.09-.06 0-.5-.03-1.36-.03-.74 0-1.14.03-1.2.03-.04 0-.06-.02-.06-.1v-.18c0-.07.02-.09.11-.09h.28c.14 0 .23-.06.25-.23.02-.27.02-.6.02-1.08v-.79c0-.41-.1-.58-.38-.75l-.16-.1c-.06-.03-.08-.05-.08-.09v-.09c0-.04.02-.06.08-.08l1.34-.58c.06-.02.1-.04.15-.04.07 0 .11.06.11.12l.09.75h.07c.3-.63.72-.92 1.14-.92.29 0 .51.22.51.56 0 .26-.3.55-.61.55-.13 0-.26-.03-.34-.09a.442.442 0 0 0-.24-.07c-.1 0-.19.05-.25.17-.12.26-.16.44-.16.56v1.81z"/><path id="XMLID_5210_" class="st3" d="M219.98 70.55c0-.19-.02-.41-.14-.53-.1-.09-.25-.11-.4-.11a.91.91 0 0 0-.51.15c-.14.1-.03.26-.03.57 0 .33-.24.55-.62.55-.22 0-.41-.13-.41-.34 0-.21.07-.5.27-.67.4-.36 1.06-.71 1.84-.71.61 0 .78.1.98.28.21.19.27.47.27.81l.02 1.91c.01.5.04.65.22.65.13 0 .24-.11.28-.17.04-.06.07-.07.1-.05l.13.08c.04.02.07.05.03.13-.09.2-.37.65-.97.65-.37 0-.73-.13-.91-.58h-.05c-.24.22-.44.35-.82.5-.19.07-.41.09-.69.09-.34 0-.63-.36-.63-.88 0-.42.2-.86.82-1.17.75-.35.99-.46 1.24-.63v-.53zm.01.9c-.47.27-.86.41-.86 1.07 0 .44.2.62.41.63.26-.02.45-.26.45-.34v-1.36z"/><path id="XMLID_5208_" class="st3" d="M225.85 71.69c0 .38 0 1.01.03 1.28.01.16.04.3.24.3h.33c.09 0 .1.03.1.09v.18c0 .06-.02.1-.06.1-.07 0-.49-.03-1.25-.03-.8 0-1.19.03-1.27.03-.05 0-.07-.04-.07-.12v-.16c0-.07.02-.09.12-.09h.29c.11 0 .26-.07.26-.41v-3.05c0-.68 0-1.46-.02-1.7-.02-.33-.22-.46-.53-.56l-.17-.06c-.07-.03-.08-.06-.08-.11v-.14c0-.03.02-.07.09-.08.43-.09 1.43-.41 1.71-.56a.5.5 0 0 1 .21-.07c.06 0 .1.05.09.17-.01.53-.02 2.52-.02 3.18v1.81z"/><path id="XMLID_5205_" class="st3" d="M229.09 70.55c0-.19-.02-.41-.14-.53-.1-.09-.25-.11-.4-.11a.91.91 0 0 0-.51.15c-.14.1-.03.26-.03.57 0 .33-.24.55-.62.55-.22 0-.41-.13-.41-.34 0-.21.07-.5.27-.67.4-.36 1.06-.71 1.84-.71.61 0 .77.1.98.28.21.19.27.47.27.81l.02 1.91c.01.5.04.65.22.65.13 0 .24-.11.28-.17.04-.06.07-.07.1-.05l.13.08c.04.02.07.05.03.13-.09.2-.37.65-.97.65-.37 0-.73-.13-.91-.58h-.05c-.24.22-.44.35-.82.5-.19.07-.41.09-.69.09-.34 0-.63-.36-.63-.88 0-.42.2-.86.82-1.17.75-.35.99-.46 1.24-.63v-.53zm.01.9c-.47.27-.86.41-.86 1.07 0 .44.2.62.41.63.26-.02.45-.26.45-.34v-1.36z"/><path id="XMLID_5202_" class="st3" d="M235.51 71.07c0 .45.01 1.75.02 1.87.02.21.11.31.27.31h.49c.07 0 .08.03.08.07v.25c0 .05-.01.08-.09.08-.13 0-.43-.03-1.55-.03-.84 0-1.22.03-1.32.03-.07 0-.08-.03-.08-.07v-.26c0-.05.01-.07.06-.07h.25c.32 0 .39-.05.42-.29.01-.1.04-1.59.04-2.7v-1.1c0-.63-.01-1.64-.02-1.75-.02-.19-.12-.21-.31-.21h-.45c-.05 0-.06-.02-.06-.08v-.25c0-.05.01-.07.06-.07.11 0 .45.03 1.46.03.17 0 .74-.03 1.05-.03 1.18 0 1.74.1 2.3.53.4.31.69.85.69 1.49 0 1.15-.92 1.93-2.53 1.93-.3 0-.52-.01-.78-.03v.35zm0-.73c.21.05.43.06.58.06.3 0 .78-.31.99-.64.19-.3.23-.66.23-1.02 0-1.32-.96-1.6-1.35-1.6-.16 0-.28.01-.45.05v3.15z"/><path id="XMLID_5200_" class="st3" d="M241.08 72.88c0 .3.1.39.3.39h.39c.06 0 .07.03.07.09v.19c0 .06-.01.09-.05.09-.06 0-.5-.03-1.36-.03-.74 0-1.14.03-1.2.03-.04 0-.06-.02-.06-.1v-.18c0-.07.02-.09.11-.09h.28c.14 0 .23-.06.25-.23.02-.27.02-.6.02-1.08v-.79c0-.41-.1-.58-.38-.75l-.16-.1c-.06-.03-.08-.05-.08-.09v-.09c0-.04.02-.06.08-.08l1.34-.58c.06-.02.1-.04.15-.04.07 0 .1.06.11.12l.09.75h.07c.3-.63.72-.92 1.14-.92.29 0 .51.22.51.56 0 .26-.3.55-.61.55-.14 0-.26-.03-.35-.09a.442.442 0 0 0-.24-.07c-.1 0-.19.05-.25.17-.12.26-.16.44-.16.56v1.81z"/><path id="XMLID_5197_" class="st3" d="M244.08 71.22v.26c0 1 .57 1.48 1.26 1.48.47 0 .85-.22 1.05-.53.02-.05.06-.06.1-.03l.16.09c.04.02.07.07-.02.23-.17.35-.79 1.02-1.7 1.02-.61 0-1.12-.11-1.44-.45-.49-.53-.65-.9-.66-1.65 0-.27 0-.78.43-1.41.35-.51.93-.79 1.67-.79 1.55 0 1.64 1.48 1.64 1.64 0 .12-.09.13-.3.13h-2.19zm.93-.36c.21 0 .31-.05.31-.19 0-.42-.17-.83-.47-.83-.45 0-.69.36-.76 1.03h.92z"/><path id="XMLID_5195_" class="st3" d="M246.74 69.63c0-.07.02-.08.11-.08.11 0 .27.03 1.26.03.65 0 .9-.03 1.01-.03.08 0 .1.02.1.08v.19c0 .06-.01.1-.07.1h-.12c-.13 0-.25.06-.25.16 0 .17.29.94.35 1.11l.41 1.03h.06c.08-.16.57-1.35.77-1.88.09-.24-.07-.43-.24-.43h-.17c-.03 0-.04-.05-.04-.1v-.19c0-.06.02-.08.06-.08.13 0 .35.03.93.03.5 0 .73-.03.81-.03.08 0 .09.01.09.09v.18c0 .07 0 .1-.05.1h-.16c-.13 0-.32.02-.44.14-.17.19-.59 1.04-.81 1.5-.11.25-.87 1.88-.93 1.99-.06.11-.11.19-.25.19-.12 0-.19-.1-.28-.24-.1-.14-.87-1.86-.91-1.95-.04-.1-.49-1.17-.55-1.28-.16-.27-.25-.35-.42-.35h-.19c-.05 0-.06-.04-.06-.1v-.18z"/><path id="XMLID_5192_" class="st3" d="M253.04 71.22v.26c0 1 .57 1.48 1.26 1.48.47 0 .85-.22 1.05-.53.02-.05.06-.06.1-.03l.16.09c.04.02.07.07-.02.23-.17.35-.79 1.02-1.7 1.02-.61 0-1.12-.11-1.44-.45-.49-.53-.65-.9-.66-1.65 0-.27 0-.78.43-1.41.35-.51.93-.79 1.67-.79 1.55 0 1.64 1.48 1.64 1.64 0 .12-.09.13-.3.13h-2.19zm.93-.36c.21 0 .31-.05.31-.19 0-.42-.17-.83-.47-.83-.45 0-.69.36-.76 1.03h.92z"/><path id="XMLID_5190_" class="st3" d="M257.83 69.98h.08c.1-.12.28-.25.46-.34.21-.12.42-.18.74-.18.37 0 .74.04.99.27.4.37.43.61.43 1.09v1.02c0 .33-.02.78-.04 1.11-.01.29.14.34.23.34h.26c.09 0 .1.03.1.09v.17c0 .07-.02.11-.08.11-.07 0-.36-.03-1.13-.03-.63 0-.94.03-1.01.03-.06 0-.08-.03-.08-.11v-.17c0-.07.03-.09.12-.09h.1c.07 0 .15-.05.17-.22.04-.25.06-.56.06-1v-1.03c0-.36-.03-.61-.23-.79a.626.626 0 0 0-.47-.17c-.17 0-.3.05-.49.19-.11.09-.19.34-.19.74l-.02 1.96c0 .17.07.32.15.32h.12c.08 0 .1.03.1.1v.18c0 .06-.02.09-.07.09-.07 0-.32-.03-.96-.03-.68 0-.99.03-1.05.03-.05 0-.07-.03-.07-.09v-.19c0-.06.02-.09.1-.09h.14c.1 0 .27-.03.27-.19v-2.13c0-.29-.16-.45-.38-.56l-.09-.04c-.06-.03-.07-.07-.07-.11v-.09c0-.05.04-.08.09-.1l1.23-.56c.08-.03.14-.07.22-.07.06 0 .11.05.13.12l.14.42z"/><path id="XMLID_5188_" class="st3" d="M265.1 70.38c0 .27-.19.45-.5.45-.4 0-.61-.27-.69-.51-.11-.34-.3-.46-.56-.46-.26 0-.63.37-.63.98 0 .6-.02 1.03.31 1.63.24.43.59.56 1.02.56.44 0 .65-.09.96-.31.05-.03.08-.05.11-.01l.13.13c.03.04.02.08-.01.12-.18.32-.93.78-1.81.78-.72 0-1.2-.2-1.5-.58-.37-.46-.49-.83-.49-1.32 0-.65.21-1.35.72-1.82.43-.39.9-.57 1.42-.57 1.25 0 1.52.63 1.52.93z"/><path id="XMLID_5185_" class="st3" d="M267.15 69.51c.1-.04.19-.06.26-.06.08 0 .11.05.1.12-.02.16-.02.77-.02 1.61v1.02c0 .37 0 .72.01.82.02.18.07.25.17.25h.35c.08 0 .1.03.1.09v.18c0 .07-.02.1-.09.1-.08 0-.52-.03-1.35-.03-.56 0-.93.03-1.04.03-.05 0-.08-.02-.08-.1v-.19c0-.06.03-.08.1-.08h.35c.11 0 .17-.04.18-.19.02-.29.02-.58.02-.85l-.02-1.34c0-.27-.06-.46-.46-.6-.1-.04-.11-.08-.11-.13v-.11c0-.03.02-.05.11-.08l1.42-.46zm.26-1.78c.01.34-.24.7-.81.72-.42 0-.74-.28-.74-.69 0-.34.35-.65.8-.65.5 0 .75.32.75.62z"/><path id="XMLID_5181_" class="st3" d="M268.91 73.04c-.36-.4-.51-.91-.51-1.51 0-.43.24-1.14.82-1.59.49-.38.98-.49 1.43-.49.66 0 1.11.2 1.54.6.47.42.66.94.66 1.52 0 .56-.24 1.09-.61 1.49-.46.48-1.02.67-1.67.67-.7.01-1.18-.13-1.66-.69zm2.49-1.53c0-1.11-.38-1.66-.81-1.66-.24 0-.39.07-.52.26-.19.3-.32.71-.32 1.48 0 .56.05.92.24 1.33.13.26.28.41.63.41.54.01.78-.76.78-1.82zm-1-2.66c-.02-.02-.02-.05 0-.08l.71-1.17c.12-.2.28-.33.48-.33.41 0 .61.55.22.82l-1.21.84c-.02.02-.05.03-.07.01l-.13-.09z"/><path id="XMLID_5179_" class="st3" d="M275.08 69.98h.08c.1-.12.28-.25.46-.34.21-.12.42-.18.74-.18.37 0 .74.04.99.27.4.37.43.61.43 1.09v1.02c0 .33-.02.78-.04 1.11-.01.29.14.34.23.34h.26c.09 0 .1.03.1.09v.17c0 .07-.02.11-.08.11-.07 0-.36-.03-1.13-.03-.63 0-.94.03-1.01.03-.06 0-.08-.03-.08-.11v-.17c0-.07.03-.09.12-.09h.1c.07 0 .15-.05.17-.22.04-.25.06-.56.06-1v-1.03c0-.36-.03-.61-.23-.79a.626.626 0 0 0-.47-.17c-.17 0-.3.05-.49.19-.11.09-.19.34-.19.74l-.02 1.96c0 .17.07.32.15.32h.12c.08 0 .1.03.1.1v.18c0 .06-.02.09-.07.09-.07 0-.32-.03-.96-.03-.68 0-.99.03-1.05.03-.05 0-.07-.03-.07-.09v-.19c0-.06.02-.09.1-.09h.14c.1 0 .27-.03.27-.19v-2.13c0-.29-.16-.45-.38-.56l-.09-.04c-.06-.03-.07-.07-.07-.11v-.09c0-.05.04-.08.09-.1l1.23-.56c.08-.03.14-.07.22-.07.06 0 .11.05.13.12l.14.42z"/><path id="XMLID_5177_" class="st3" d="M148.4 89.66c0-.32.23-.55.47-.55.13 0 .27.03.4.11.12.08.23.09.31.04.1-.07.59-1.11.71-1.45-.08-.34-1.27-3.32-1.34-3.48-.1-.24-.2-.41-.34-.41h-.15c-.07 0-.08-.03-.08-.09v-.21c0-.04.01-.07.08-.07.09 0 .32.03 1.15.03.58 0 .88-.03.99-.03.08 0 .09.03.09.09v.2c0 .05-.01.08-.06.08h-.13c-.11 0-.19.07-.17.22.03.16.57 2.01.63 2.22h.04c.24-.55.76-1.88.81-2.06.08-.26-.05-.38-.24-.38h-.15c-.06 0-.07-.03-.07-.08v-.21c0-.05.01-.08.06-.08.13 0 .33.03.86.03.4 0 .62-.03.73-.03.06 0 .06.04.06.1v.18c0 .06 0 .09-.05.09h-.11a.42.42 0 0 0-.35.19c-.17.23-.84 1.66-1.57 3.23-.49 1.04-.9 1.94-1.08 2.24-.15.26-.36.63-.9.63-.34 0-.6-.2-.6-.55z"/><path id="XMLID_5174_" class="st3" d="M156.26 85.22v.26c0 1 .57 1.48 1.26 1.48.47 0 .85-.22 1.04-.53.02-.05.06-.06.1-.03l.16.09c.04.02.07.07-.02.23-.17.35-.79 1.02-1.7 1.02-.61 0-1.12-.11-1.44-.45-.49-.53-.65-.9-.66-1.65 0-.27 0-.78.43-1.41.34-.51.93-.79 1.67-.79 1.55 0 1.64 1.48 1.64 1.64 0 .12-.09.13-.3.13h-2.18zm.93-.36c.21 0 .31-.05.31-.19 0-.42-.17-.83-.47-.83-.45 0-.69.35-.76 1.03h.92z"/><path id="XMLID_5172_" class="st3" d="M161.04 85.69c0 .38 0 1.01.03 1.28.01.16.04.3.24.3h.33c.09 0 .11.03.11.09v.18c0 .06-.02.1-.06.1-.07 0-.49-.03-1.25-.03-.8 0-1.19.03-1.27.03-.05 0-.07-.04-.07-.12v-.16c0-.07.02-.09.12-.09h.29c.11 0 .26-.07.26-.41v-3.05c0-.68 0-1.46-.02-1.71-.02-.33-.22-.46-.53-.56l-.17-.06c-.07-.03-.08-.06-.08-.11v-.14c0-.03.02-.07.09-.08.43-.09 1.43-.41 1.71-.56.11-.05.16-.07.21-.07.06 0 .1.05.09.17-.01.53-.02 2.52-.02 3.18v1.82z"/><path id="XMLID_5170_" class="st3" d="M165.25 86.87c-.71-.63-1.04-1.73-1.04-2.56 0-.99.32-1.88.99-2.6.55-.58 1.34-1.03 2.53-1.03.87 0 1.59.22 1.93.4.13.07.18.06.2-.01l.08-.24c.02-.06.04-.06.18-.06.14 0 .16.02.16.15 0 .18.17 1.81.22 2.1.01.07 0 .12-.05.12l-.21.06c-.05.02-.09-.02-.11-.11a3.1 3.1 0 0 0-.77-1.28c-.41-.4-.92-.72-1.65-.72-1.4 0-1.99 1.27-1.98 2.69 0 .6.17 1.78.85 2.5.62.64 1.17.72 1.49.72 1.09 0 1.91-.5 2.26-1.03.05-.08.1-.11.14-.08l.16.14c.03.02.04.06 0 .12-.56.8-1.48 1.58-2.84 1.58-1.26.02-1.93-.32-2.54-.86z"/><path id="XMLID_5167_" class="st3" d="M171.82 87.04c-.36-.4-.51-.91-.51-1.51 0-.43.24-1.14.82-1.59.49-.38.98-.49 1.43-.49.66 0 1.11.2 1.54.6.47.42.66.94.66 1.52 0 .56-.24 1.09-.61 1.49-.46.48-1.02.67-1.67.67-.69.01-1.17-.13-1.66-.69zm2.49-1.53c0-1.11-.38-1.66-.8-1.66-.24 0-.39.07-.52.26-.19.3-.32.71-.32 1.49 0 .56.05.92.24 1.33.12.26.28.41.63.41.53 0 .77-.78.77-1.83z"/><path id="XMLID_5165_" class="st3" d="M177.99 83.98h.08c.11-.12.28-.25.46-.34.21-.12.42-.18.74-.18.37 0 .74.04.99.27.4.37.43.61.43 1.09v1.02c0 .33-.02.78-.04 1.11-.01.29.14.34.23.34h.26c.09 0 .11.03.11.09v.17c0 .07-.02.11-.08.11-.07 0-.36-.03-1.13-.03-.63 0-.94.03-1.01.03-.06 0-.08-.03-.08-.11v-.17c0-.07.03-.09.12-.09h.11c.07 0 .15-.05.17-.22.04-.25.06-.56.06-1v-1.03c0-.36-.03-.61-.23-.8a.626.626 0 0 0-.47-.17c-.17 0-.3.05-.49.19-.11.09-.19.34-.19.74l-.02 1.96c0 .17.07.32.15.32h.12c.08 0 .1.03.1.1v.18c0 .06-.02.09-.07.09-.07 0-.33-.03-.96-.03-.68 0-.99.03-1.04.03-.05 0-.07-.03-.07-.09v-.19c0-.06.02-.09.1-.09h.14c.11 0 .27-.03.27-.19v-2.13c0-.29-.16-.45-.38-.56l-.09-.04c-.06-.03-.07-.07-.07-.11v-.09c0-.05.04-.08.09-.1l1.23-.56c.08-.03.14-.07.22-.07.06 0 .11.05.13.12l.11.43z"/><path id="XMLID_5163_" class="st3" d="M183.26 86.21c0 .79.3.96.53.96.2 0 .34-.03.5-.12.03-.02.06-.02.09.04l.07.14c.03.05 0 .1-.04.12-.16.12-.59.38-1.34.38-.65 0-1.06-.45-1.06-.89 0-.34.02-1.06.02-1.43l.01-1.26h-.53c-.09 0-.15-.04-.15-.13 0-.1.06-.16.21-.24.32-.14 1.12-.86 1.48-1.26.07-.08.13-.1.18-.1.09 0 .13.07.13.14l-.04 1.02h1.22c.06 0 .09.05.07.09l-.1.41c-.01.04-.03.08-.09.08h-1.12c-.02.39-.02.85-.02 1.29v.76z"/><path id="XMLID_5161_" class="st3" d="M186.75 86.88c0 .3.1.39.3.39h.39c.06 0 .07.03.07.09v.19c0 .06-.01.09-.05.09-.06 0-.5-.03-1.36-.03-.74 0-1.14.03-1.2.03-.04 0-.06-.02-.06-.1v-.18c0-.07.02-.09.11-.09h.28c.14 0 .23-.06.25-.23.02-.27.02-.6.02-1.08v-.8c0-.41-.1-.58-.38-.75l-.16-.1c-.06-.03-.08-.05-.08-.09v-.09c0-.04.02-.06.08-.08l1.34-.58c.06-.02.1-.04.15-.04.07 0 .11.06.11.12l.09.75h.07c.3-.63.72-.92 1.14-.92.29 0 .51.22.51.56 0 .26-.3.55-.61.55-.13 0-.26-.03-.34-.09a.442.442 0 0 0-.24-.07c-.1 0-.19.05-.25.17-.12.26-.16.44-.16.57v1.81z"/><path id="XMLID_5158_" class="st3" d="M188.99 87.04c-.36-.4-.51-.91-.51-1.51 0-.43.24-1.14.82-1.59.49-.38.98-.49 1.43-.49.66 0 1.11.2 1.54.6.47.42.66.94.66 1.52 0 .56-.24 1.09-.61 1.49-.46.48-1.02.67-1.67.67-.69.01-1.17-.13-1.66-.69zm2.49-1.53c0-1.11-.38-1.66-.81-1.66-.24 0-.39.07-.52.26-.19.3-.32.71-.32 1.49 0 .56.05.92.24 1.33.12.26.28.41.63.41.54 0 .78-.78.78-1.83z"/><path id="XMLID_5156_" class="st3" d="M195.14 85.69c0 .38 0 1.01.03 1.28.01.16.04.3.24.3h.33c.09 0 .11.03.11.09v.18c0 .06-.02.1-.06.1-.07 0-.49-.03-1.25-.03-.81 0-1.19.03-1.27.03-.05 0-.07-.04-.07-.12v-.16c0-.07.02-.09.13-.09h.29c.11 0 .26-.07.26-.41v-3.05c0-.68 0-1.46-.02-1.71-.02-.33-.22-.46-.53-.56l-.17-.06c-.07-.03-.08-.06-.08-.11v-.14c0-.03.02-.07.09-.08.43-.09 1.43-.41 1.71-.56.11-.05.16-.07.21-.07.06 0 .1.05.09.17-.01.53-.02 2.52-.02 3.18v1.82z"/><path id="XMLID_5153_" class="st3" d="M200.94 81.64c-.01-.27-.11-.42-.62-.55-.06-.01-.07-.03-.07-.07v-.18c0-.04.02-.07.08-.08.57-.05 1.3-.11 1.62-.17.13-.03.17-.05.25-.05.06 0 .1.07.09.17-.04.48-.06 1.87-.06 3.22v2.12c0 .35 0 .73.1.88.08.12.2.13.43.11.11-.01.14.02.15.07l.03.14c.01.06-.01.09-.07.11l-1.44.36c-.06.02-.11-.01-.13-.09l-.15-.48c-.31.35-.87.58-1.28.58-.5 0-.69-.04-1.14-.46-.37-.34-.6-.73-.6-1.36 0-.77.13-1.26.67-1.86.37-.41.81-.61 1.42-.61.32 0 .59.06.78.12l-.06-1.92zm.02 3.08c0-.17-.01-.34-.08-.46a.88.88 0 0 0-.73-.43c-.17 0-.36.07-.5.27-.23.32-.31.64-.31 1.1 0 1.13.49 1.92 1.08 1.92.26 0 .36-.1.46-.19.08-.08.1-.25.1-.46l-.02-1.75z"/><path id="XMLID_5150_" class="st3" d="M204.45 85.22v.26c0 1 .57 1.48 1.26 1.48.47 0 .85-.22 1.04-.53.02-.05.06-.06.1-.03l.16.09c.04.02.07.07-.02.23-.17.35-.79 1.02-1.7 1.02-.61 0-1.12-.11-1.44-.45-.49-.53-.65-.9-.66-1.65 0-.27 0-.78.43-1.41.34-.51.93-.79 1.67-.79 1.55 0 1.64 1.48 1.64 1.64 0 .12-.09.13-.3.13h-2.18zm.93-.36c.21 0 .31-.05.31-.19 0-.42-.17-.83-.47-.83-.45 0-.69.35-.76 1.03h.92z"/><path id="XMLID_5148_" class="st3" d="M209.23 85.69c0 .38 0 1.01.03 1.28.01.16.04.3.24.3h.33c.09 0 .11.03.11.09v.18c0 .06-.02.1-.06.1-.07 0-.49-.03-1.25-.03-.81 0-1.19.03-1.27.03-.05 0-.07-.04-.07-.12v-.16c0-.07.02-.09.12-.09h.29c.11 0 .26-.07.26-.41v-3.05c0-.68 0-1.46-.02-1.71-.02-.33-.22-.46-.53-.56l-.17-.06c-.07-.03-.08-.06-.08-.11v-.14c0-.03.02-.07.09-.08.43-.09 1.43-.41 1.71-.56.11-.05.16-.07.21-.07.06 0 .1.05.09.17-.01.53-.02 2.52-.02 3.18v1.82z"/><path id="XMLID_5146_" class="st3" d="M216.42 80.86c0-.05.01-.07.06-.07.09 0 .53.03 1.17.03.89 0 1.13-.03 1.22-.03.06 0 .07.02.07.09v.24c0 .04-.01.07-.07.07h-.22c-.16 0-.46.07-.71.5-.38.65-.8 1.78-1.16 2.59-.24.52-1.32 3.08-1.48 3.36-.07.12-.11.16-.22.16-.12 0-.16-.12-.22-.24-.36-.76-1.23-3.08-1.49-3.74-.27-.66-.75-2.05-.86-2.32-.1-.22-.21-.32-.41-.32h-.25c-.04 0-.05-.05-.05-.1v-.23c0-.05.01-.07.07-.07.1 0 .41.03 1.56.03 1 0 1.43-.03 1.51-.03.09 0 .1.03.1.09v.22c0 .05-.01.09-.08.09h-.41c-.23 0-.41.11-.41.23 0 .08 0 .19.03.33.08.34.44 1.48.64 2.04l.73 2.14h.04c.28-.64.75-1.84.87-2.18.18-.47.48-1.27.63-1.71.1-.25.1-.41.1-.53 0-.12-.11-.32-.39-.32h-.3c-.04 0-.05-.03-.05-.09v-.23z"/><path id="XMLID_5144_" class="st3" d="M220.26 83.6c0-.23-.03-1.95-.04-2.08-.02-.23-.11-.33-.32-.33h-.46c-.05 0-.08-.02-.08-.06v-.28c0-.04.03-.06.07-.06.12 0 .6.03 1.54.03.98 0 1.28-.03 1.42-.03.05 0 .07.03.07.09v.24c0 .05-.03.07-.08.07h-.28c-.24 0-.38.08-.38.25 0 .1-.03 2.21-.03 2.33v.74c0 .1.03 2.31.03 2.39 0 .3.14.35.33.35h.39c.05 0 .08.02.08.07v.27c0 .04-.03.06-.09.06-.11 0-.5-.03-1.41-.03-1.01 0-1.42.03-1.52.03-.05 0-.08-.02-.08-.08v-.27c0-.04.03-.06.08-.06h.28c.19 0 .39-.03.43-.26.02-.14.05-2.21.05-2.72v-.66z"/><path id="XMLID_5142_" class="st3" d="M224.2 83.83c0-.59-.02-1.89-.02-2.02 0-.49-.07-.62-.33-.62h-.39c-.11 0-.11-.04-.11-.1v-.18c0-.06.01-.11.11-.11.16 0 .47.03 1.43.03.94 0 1.28-.03 1.45-.03.11 0 .11.03.11.11v.2c0 .06-.01.09-.11.09h-.23c-.34 0-.39.16-.42.53-.01.13-.06 1.4-.06 1.93v.14c0 .05.03.08.15.08h2.86c.14 0 .19-.02.19-.12v-.1c0-.55-.07-1.88-.07-1.97-.01-.31-.05-.49-.22-.49h-.39c-.09 0-.1-.03-.1-.1v-.21c0-.06.01-.09.09-.09.17 0 .58.03 1.4.03.8 0 1.2-.03 1.32-.03.12 0 .12.03.12.11v.18c0 .07-.01.11-.12.11h-.29c-.28 0-.31.16-.31.49 0 .13-.02 1.75-.02 2.11v.33c0 .31.02 2.13.03 2.65 0 .35.1.48.38.48h.33c.08 0 .09.03.09.09v.21c0 .05-.01.1-.11.1-.15 0-.48-.03-1.34-.03-.98 0-1.28.03-1.5.03-.11 0-.12-.05-.12-.1v-.21c0-.06.01-.09.11-.09h.42c.23 0 .26-.18.27-.42.02-.45.04-1.99.04-2.3v-.12c0-.11-.1-.12-.21-.12h-2.86c-.11 0-.13.03-.13.12v.14c0 .24.04 1.71.07 2.37.01.23.11.33.32.33h.27c.08 0 .09.02.09.08v.23c0 .06-.01.09-.09.09-.17 0-.51-.03-1.31-.03-1.02 0-1.3.03-1.49.03-.09 0-.1-.03-.1-.11v-.2c0-.07.01-.09.1-.09h.44c.24 0 .27-.23.27-.44.01-.45.03-2.31.03-2.56v-.43z"/><path id="XMLID_5140_" class="st3" d="M233.13 89.66c0-.32.23-.55.47-.55.13 0 .27.03.4.11.12.08.23.09.31.04.1-.07.59-1.11.71-1.45-.08-.34-1.27-3.32-1.34-3.48-.1-.24-.2-.41-.34-.41h-.15c-.07 0-.08-.03-.08-.09v-.21c0-.04.01-.07.08-.07.09 0 .32.03 1.15.03.58 0 .88-.03.99-.03.08 0 .09.03.09.09v.2c0 .05-.01.08-.06.08h-.13c-.11 0-.19.07-.17.22.03.16.57 2.01.63 2.22h.05c.24-.55.76-1.88.81-2.06.08-.26-.05-.38-.24-.38h-.15c-.06 0-.07-.03-.07-.08v-.21c0-.05.01-.08.06-.08.13 0 .33.03.86.03.4 0 .62-.03.73-.03.06 0 .06.04.06.1v.18c0 .06 0 .09-.05.09h-.11a.42.42 0 0 0-.35.19c-.17.23-.84 1.66-1.57 3.23-.49 1.04-.9 1.94-1.08 2.24-.15.26-.36.63-.9.63-.35 0-.61-.2-.61-.55z"/><path id="XMLID_5137_" class="st3" d="M240.99 85.22v.26c0 1 .57 1.48 1.26 1.48.47 0 .85-.22 1.04-.53.02-.05.06-.06.1-.03l.16.09c.04.02.07.07-.02.23-.17.35-.79 1.02-1.7 1.02-.61 0-1.12-.11-1.44-.45-.49-.53-.65-.9-.66-1.65 0-.27 0-.78.43-1.41.34-.51.93-.79 1.67-.79 1.55 0 1.64 1.48 1.64 1.64 0 .12-.09.13-.3.13h-2.18zm.92-.36c.21 0 .31-.05.31-.19 0-.42-.17-.83-.47-.83-.45 0-.69.35-.76 1.03h.92z"/><path id="XMLID_5135_" class="st3" d="M245.76 85.69c0 .38 0 1.01.03 1.28.01.16.04.3.24.3h.33c.09 0 .11.03.11.09v.18c0 .06-.02.1-.06.1-.07 0-.49-.03-1.25-.03-.81 0-1.19.03-1.27.03-.05 0-.07-.04-.07-.12v-.16c0-.07.02-.09.12-.09h.29c.11 0 .26-.07.26-.41v-3.05c0-.68 0-1.46-.02-1.71-.02-.33-.22-.46-.53-.56l-.17-.06c-.07-.03-.08-.06-.08-.11v-.14c0-.03.02-.07.09-.08.43-.09 1.43-.41 1.71-.56.11-.05.16-.07.21-.07.06 0 .1.05.09.17-.01.53-.02 2.52-.02 3.18v1.82z"/><path id="XMLID_5133_" class="st3" d="M251.72 84.54c.01.05 0 .07-.04.09l-.17.08c-.03.02-.06.01-.1-.03l-.54-.57c-.12-.12-.31-.28-.59-.28-.29 0-.57.19-.57.52.02.34.13.43.84.62.47.12.7.19.99.5.25.25.31.48.31.81 0 .85-.67 1.47-1.71 1.47-.54 0-1.01-.19-1.12-.28-.04-.03-.05-.07-.06-.12l-.13-.92c0-.05.03-.07.07-.08l.17-.05c.03-.01.05 0 .07.04l.38.56c.17.25.39.49.83.49.35 0 .57-.25.57-.58 0-.38-.28-.51-.9-.7-.68-.2-1.17-.53-1.17-1.22 0-.45.13-.82.5-1.09.38-.28.65-.34 1.05-.34.52 0 .83.12 1.01.2.14.07.16.12.17.18l.14.7z"/><path id="XMLID_5130_" class="st3" d="M253.87 83.51c.11-.04.19-.06.26-.06.08 0 .11.05.1.12-.02.16-.02.77-.02 1.61v1.03c0 .37 0 .72.01.82.02.18.07.25.17.25h.34c.08 0 .1.03.1.09v.18c0 .07-.02.1-.09.1-.08 0-.52-.03-1.35-.03-.56 0-.93.03-1.03.03-.05 0-.08-.02-.08-.1v-.19c0-.06.03-.08.1-.08h.35c.11 0 .17-.04.18-.19.02-.29.02-.58.02-.85l-.02-1.34c0-.27-.06-.46-.46-.6-.11-.04-.11-.08-.11-.13v-.11c0-.03.02-.05.11-.08l1.42-.47zm.27-1.78c.01.34-.24.7-.81.72-.42 0-.74-.28-.74-.69 0-.34.35-.65.8-.65.49-.01.75.32.75.62z"/><path id="XMLID_5127_" class="st3" d="M257.98 81.64c-.01-.27-.11-.42-.62-.55-.06-.01-.07-.03-.07-.07v-.18c0-.04.02-.07.08-.08.57-.05 1.3-.11 1.62-.17.13-.03.17-.05.25-.05.06 0 .1.07.09.17-.04.48-.06 1.87-.06 3.22v2.12c0 .35 0 .73.1.88.08.12.2.13.43.11.11-.01.14.02.15.07l.03.14c.01.06-.01.09-.07.11l-1.44.36c-.06.02-.11-.01-.13-.09l-.15-.48c-.31.35-.87.58-1.28.58-.5 0-.69-.04-1.14-.46-.37-.34-.6-.73-.6-1.36 0-.77.13-1.26.67-1.86.37-.41.81-.61 1.42-.61.32 0 .59.06.78.12l-.06-1.92zm.03 3.08c0-.17-.01-.34-.08-.46a.88.88 0 0 0-.73-.43c-.17 0-.36.07-.5.27-.23.32-.31.64-.31 1.1 0 1.13.49 1.92 1.08 1.92.26 0 .36-.1.46-.19.08-.08.1-.25.1-.46l-.02-1.75z"/><path id="XMLID_5124_" class="st3" d="M262.52 84.55c0-.19-.02-.41-.14-.53-.1-.09-.25-.12-.4-.12a.91.91 0 0 0-.51.15c-.14.1-.03.26-.03.57 0 .33-.24.55-.62.55-.22 0-.41-.13-.41-.34 0-.21.07-.5.27-.67.4-.36 1.06-.71 1.84-.71.61 0 .78.1.98.28.21.19.27.47.27.81l.02 1.91c.01.5.04.65.22.65.13 0 .24-.11.28-.17.04-.06.07-.07.1-.05l.13.08c.04.02.07.05.03.13-.09.2-.37.65-.97.65-.37 0-.73-.13-.91-.58h-.05c-.24.22-.44.35-.82.5-.19.07-.41.09-.69.09-.34 0-.63-.36-.63-.88 0-.42.2-.86.82-1.17.75-.35.99-.46 1.24-.63v-.52zm.01.89c-.47.27-.86.41-.86 1.07 0 .44.2.62.41.63.26-.02.45-.26.45-.34v-1.36z"/><path id="XMLID_5121_" class="st3" d="M132 60.02h149.37v.86H132z"/></g></svg>