<svg version="1.1" id="Layer_1" xmlns="http://www.w3.org/2000/svg" x="0px" y="0px" width="512px" height="128px" viewBox="0 0 512 128" xml:space="preserve"><style type="text/css">.st0{fill:#002856;}</style><g id="XMLID_3530_"><path id="XMLID_3548_" class="st0" d="M37.47 81.63H19.09l-2.56 8.65H0l19.7-52.4h17.66l19.69 52.4H40.09l-2.62-8.65zM34.11 70.3l-5.78-18.84L22.6 70.3h11.51z"/><path id="XMLID_3547_" class="st0" d="M62.27 37.88h40.03v11.26H78.52v9.15h20.31v10.58H78.52v21.41H62.27z"/><path id="XMLID_3546_" class="st0" d="M111.02 37.88h16.19v39.5h25.27v12.9h-41.46z"/><path id="XMLID_3545_" class="st0" d="M192.05 37.88h16.15V69.1c0 3.1-.48 6.02-1.45 8.77a18.88 18.88 0 0 1-4.54 7.21c-2.06 2.06-4.22 3.51-6.49 4.34-3.15 1.16-6.92 1.75-11.33 1.75-2.55 0-5.33-.18-8.34-.53-3.02-.36-5.54-1.07-7.56-2.13-2.02-1.06-3.88-2.56-5.56-4.51-1.68-1.95-2.83-3.97-3.45-6.04-1-3.33-1.5-6.28-1.5-8.86V37.88h16.16v31.96c0 2.86.79 5.09 2.38 6.7 1.58 1.6 3.78 2.4 6.59 2.4 2.79 0 4.98-.79 6.56-2.38 1.59-1.58 2.38-3.82 2.38-6.73V37.88z"/><path id="XMLID_3544_" class="st0" d="M218.89 37.88h43.39v11.19h-27.17v8.33h25.2v10.69h-25.2v10.33h27.95v11.86h-44.17z"/><path id="XMLID_3543_" class="st0" d="M271.89 37.88h15.13l19.72 28.99V37.88H322v52.4h-15.26l-19.62-28.77v28.77h-15.23z"/><path id="XMLID_3542_" class="st0" d="M329.08 37.88h49.22v12.94h-16.51v39.46h-16.2V50.82h-16.51z"/><path id="XMLID_3541_" class="st0" d="M385.59 37.88h43.39v11.19h-27.16v8.33h25.19v10.69h-25.19v10.33h27.95v11.86h-44.18z"/><path id="XMLID_3540_" class="st0" d="M435.66 72.94l15.41-.96c.33 2.5 1.01 4.41 2.03 5.72 1.67 2.12 4.05 3.18 7.15 3.18 2.32 0 4.1-.55 5.35-1.63 1.25-1.08 1.88-2.34 1.88-3.77 0-1.36-.6-2.57-1.79-3.64-1.19-1.07-3.96-2.09-8.29-3.04-7.1-1.6-12.16-3.72-15.19-6.36-3.05-2.64-4.58-6.01-4.58-10.12 0-2.69.78-5.24 2.35-7.63 1.56-2.4 3.91-4.28 7.04-5.65s7.42-2.06 12.88-2.06c6.7 0 11.8 1.25 15.32 3.74 3.51 2.49 5.6 6.45 6.27 11.89l-15.25.89c-.41-2.35-1.26-4.07-2.56-5.14-1.3-1.07-3.09-1.61-5.38-1.61-1.88 0-3.3.4-4.26 1.2-.95.8-1.43 1.77-1.43 2.91 0 .83.39 1.58 1.18 2.25.76.69 2.57 1.33 5.43 1.93 7.07 1.53 12.15 3.07 15.21 4.63 3.06 1.56 5.29 3.49 6.68 5.81 1.4 2.31 2.09 4.89 2.09 7.76 0 3.36-.93 6.46-2.79 9.29-1.85 2.84-4.45 4.98-7.79 6.46-3.34 1.46-7.54 2.2-12.62 2.2-8.91 0-15.07-1.72-18.51-5.15-3.43-3.44-5.37-7.8-5.83-13.1"/><path id="XMLID_3538_" class="st0" d="M506.61 90.04l-.71-4.65c.9-.2 1.59-.6 2.05-1.2.47-.61.7-1.45.7-2.54 0-1.2-.22-2.1-.66-2.7-.31-.41-.72-.61-1.24-.61-.35 0-.64.11-.87.33-.22.23-.42.75-.61 1.55-.83 3.74-1.58 6.11-2.26 7.11-.95 1.38-2.26 2.08-3.94 2.08-1.52 0-2.79-.6-3.83-1.8-1.03-1.2-1.55-3.06-1.55-5.57 0-2.4.39-4.18 1.17-5.34.78-1.17 1.94-1.97 3.46-2.41l.81 4.37c-.68.19-1.2.54-1.57 1.06s-.54 1.27-.54 2.23c0 1.22.17 2.09.51 2.62.24.35.56.53.94.53.33 0 .61-.15.84-.46.31-.42.74-1.86 1.3-4.33.56-2.47 1.25-4.19 2.06-5.17.82-.97 1.97-1.45 3.45-1.45 1.61 0 2.98.67 4.14 2.01 1.16 1.34 1.73 3.33 1.73 5.95 0 2.39-.48 4.27-1.45 5.66-.96 1.39-2.27 2.3-3.93 2.73z"/><path id="XMLID_3536_" class="st0" d="M511.6 69.62h-4.63v-4.63h4.63v4.63z"/><path id="XMLID_3534_" class="st0" d="M499.27 44.97l.82 4.57c-.91.15-1.6.5-2.06 1.05-.46.54-.69 1.25-.69 2.12 0 1.15.4 2.07 1.2 2.76.8.69 2.13 1.03 4 1.03 2.08 0 3.55-.35 4.4-1.05.86-.7 1.29-1.63 1.29-2.81 0-.88-.25-1.6-.75-2.16s-1.36-.96-2.58-1.19l.78-4.55c2.09.47 3.67 1.38 4.73 2.72 1.07 1.34 1.6 3.14 1.6 5.39 0 2.56-.81 4.6-2.42 6.13-1.62 1.52-3.85 2.28-6.71 2.28-2.89 0-5.14-.76-6.75-2.29-1.61-1.53-2.42-3.59-2.42-6.2 0-2.13.46-3.83 1.38-5.09.9-1.26 2.3-2.16 4.18-2.71z"/><path id="XMLID_3532_" class="st0" d="M511.6 41.46h-4.63v-4.63h4.63v4.63z"/></g></svg>