<svg version="1.1" id="Layer_1" xmlns="http://www.w3.org/2000/svg" x="0px" y="0px" width="767px" height="128px" viewBox="0 0 767 128" xml:space="preserve"><style type="text/css">.st0{fill:#231F20;} .st1{fill:none;stroke:#231F20;stroke-width:0.74;} .st2{fill:none;stroke:#231F20;stroke-width:1.339;} .st3{fill:none;stroke:#231F20;stroke-width:1.494;} .st4{fill:none;stroke:#231F20;stroke-width:0.149;}</style><g id="XMLID_17_"><path id="XMLID_3030_" class="st0" d="M539.96 122.55h-6.24l-1.37 5.18h-4.5l6.61-23.2h5.13l6.38 23.2h-4.79l-1.22-5.18zm-2.97-13.56h-.05l-2.36 9.64h4.47l-2.06-9.64z"/><path id="XMLID_3029_" class="st0" d="M563.83 117.06c0-2-.71-2.72-1.71-2.72-1.34 0-1.85 1.13-1.85 2.43v10.97h-4.5v-10.67c0-2.19-.82-2.72-1.57-2.72-1.48 0-1.99 1.5-1.99 3.69v9.71h-4.5v-13.69c0-1.66-.03-2.72-.11-3.62h4.1c.06.76.11 1.73.11 2.89h.06c.69-1.89 1.82-3.15 4.19-3.15 2.14 0 3.22 1.16 3.85 2.89.65-1.63 1.71-2.89 4.07-2.89 3.28 0 4.36 2.79 4.36 6.25v11.33h-4.5v-10.7z"/><path id="XMLID_3026_" class="st0" d="M584.11 120.45h-8.75c0 2.06 1.14 3.95 3.68 3.95 1.54 0 3.07-.66 4.18-1.36l.09 3.96c-1.45.63-3.17 1-4.7 1-5.21 0-7.52-3.69-7.52-8.97 0-4.65 2.33-8.87 6.58-8.87 1.34 0 6.44 0 6.44 9.04v1.25zm-4.1-2.85c0-2.19-.48-4.25-2.34-4.25-2.31 0-2.31 3.32-2.31 4.25h4.65z"/><path id="XMLID_3025_" class="st0" d="M586.76 114.04c0-1.66-.03-2.72-.11-3.62h4.1c.03 1.03.09 2.09.11 3.13h.06c.91-1.86 1.54-3.39 4.13-3.39h.65V115c-.48-.13-.88-.2-1.51-.2-2.62 0-2.94 2.66-2.94 5.19v7.75h-4.5v-13.7z"/><path id="XMLID_2965_" class="st0" d="M597.99 102.81h4.5v4.65h-4.5v-4.65zm0 7.61h4.5v17.32h-4.5v-17.32z"/><path id="XMLID_2964_" class="st0" d="M616.25 127.27c-1.31.4-2.65.73-4.08.73-5.72 0-7.01-5.58-7.01-8.74 0-5.32 2.62-9.1 7.35-9.1 1.48 0 2.28.43 3.58.83l-.22 3.96c-.83-.36-1.68-.73-2.62-.73-3.42 0-3.42 4.38-3.42 5.05 0 3.65 1.94 4.82 3.65 4.82.94 0 1.79-.4 2.62-.76l.15 3.94z"/><path id="XMLID_2961_" class="st0" d="M619.44 111.25c1.16-.43 3.16-1.09 4.78-1.09 5.21 0 6.41 2.52 6.41 6.38v6.31c0 2.56.03 3.72.11 4.89h-4.1l-.12-2.39h-.06c-.2 1.06-1.93 2.66-4.08 2.66-2.76 0-4.58-2.09-4.58-5.25 0-5.78 5.78-5.82 7.35-5.82h1.37c0-3.32-2.11-3.32-2.76-3.32-1.14 0-2.36.3-4.13 1.53l-.19-3.9zm7.09 8.14c-1.8 0-4.62.13-4.62 3.03 0 2.26 1.57 2.26 1.94 2.26.4 0 2.68-.07 2.68-4.29v-1z"/><path id="XMLID_2960_" class="st0" d="M642.54 114.77c-1.2-.56-2.31-.93-3.62-.93-1.16 0-1.68.66-1.68 1.26 0 1.07.65 1.43 3.11 2.49 1.54.67 3.1 1.79 3.1 5.05 0 3.85-2.48 5.35-5.47 5.35-1.31 0-3.3-.17-4.87-.83l.12-4.05c1.08.76 2.45 1.2 3.71 1.2 2.1 0 2.25-.87 2.25-1.63 0-.76-1.17-1.1-3.11-2.03-1.57-.76-3.11-2.22-3.11-5.32 0-1.86 1.14-5.18 5.55-5.18 1.85 0 3.39.4 4.13.7l-.11 3.92z"/><path id="XMLID_2959_" class="st1" d="M766.32 93.1H500.69"/><path id="XMLID_2914_" class="st0" d="M471.43 17.86c2.12 2.52 5.81 4.01 7.98 6.54-1.55-7.47-7.32-13.58-14.14-15.03 3.33 2.5 4.04 5.97 6.16 8.49m-81.99 18.95c4.7-10.22 11.71-8.06 14.68-17.8-1.67 2.99-9.34 4.24-12.89 11.91 1.82-4.55.91-11.51 3.97-15.27-9.17 6.76-5.26 17.72-5.76 21.16m8.51 24.52c.84 3.99-1.63 9.73 2.3 15.22-4.08-4.57-12.71-5.73-16.24-12.68 4.4 16.99 15.87 13.49 21.05 17.18-4.25-6.12-.77-10.19-7.11-19.72m-1.32 10.66c-2.54-9.5 1.97-12.77-1.46-21.88-.36 5.13-3.78 7.64-1.47 17.02-4.07-7.95-10.37-10.91-12.2-16.36.13 14.9 12.11 17.11 15.13 21.22m18.39 15.92c-3.52-4.88-1.12-7.64-11.02-16.5 2.1 3.24-.06 7.3 6.62 13.63-6.54-3.86-15.55-2.21-19.89-7.36 7.45 14.29 20.57 8.45 24.29 10.23m47.93-2.87c6.68-6.33 4.51-10.4 6.61-13.63-9.9 8.86-7.5 11.62-11.03 16.5 3.72-1.78 16.84 4.06 24.31-10.22-4.34 5.15-13.36 3.5-19.89 7.35m10.36-8.49c3.93-5.49 1.46-11.23 2.3-15.22-6.34 9.54-2.85 13.6-7.11 19.72 5.18-3.69 16.64-.19 21.05-17.18-3.54 6.94-12.16 8.11-16.24 12.68m-15.82 12.03c-3.87-1.03-7.86-1.55-10.83-1.62-3.7-.09-7.01.61-9.88 1.68-2.87-1.07-6.17-1.77-9.88-1.68-2.97.07-6.96.59-10.83 1.62-5.96 1.59-11.11 2.81-15.6.54 4.3 3.82 9.32 5.18 16.58 4.4 6.04-.65 10.91-3.67 16.6-3.63.08 0 .15 0 .22.01-6 3.03-9.39 7.3-9.39 7.3l2.75.37s2.89-5.81 9.53-7.32c6.65 1.51 9.54 7.32 9.54 7.32l2.75-.37s-3.39-4.27-9.38-7.3c.07 0 .14-.01.22-.01 5.69-.04 10.57 2.97 16.61 3.63 7.25.78 12.27-.58 16.57-4.4-4.47 2.28-9.63 1.05-15.58-.54m-61.91-48.76c-2.46 4.71-6.27 5.8-5.87 15.52-2.06-8.64-6.98-11.86-6.92-17.39-3.43 14.42 5.72 16.13 8.07 22.17-.34-8.65 5.19-10.4 4.72-20.3m3.43-11.13c-.86 1.2-1.45 1.71-3.74 3.58-3.11 2.56-5.59 5.93-6.64 10.84.24-5.28-3.02-12.88-.85-18.42-8.41 11.87.48 18.98.79 23.28 2.17-8.27 7.18-8.33 10.44-19.28m85.92 14.42c-1.04-4.91-3.53-8.28-6.64-10.84-2.28-1.88-2.88-2.38-3.74-3.58 3.25 10.95 8.26 11.01 10.44 19.29.32-4.3 9.21-11.41.79-23.28 2.18 5.54-1.09 13.13-.85 18.41m7.12 7.66c-1.83 5.45-8.13 8.41-12.2 16.36 2.31-9.38-1.12-11.89-1.47-17.02-3.42 9.12 1.08 12.39-1.45 21.88 3.02-4.11 15-6.32 15.12-21.22m-14.07-10.95c-.46 9.9 5.06 11.65 4.72 20.31 2.35-6.04 11.5-7.76 8.07-22.17.06 5.53-4.86 8.74-6.92 17.39.41-9.73-3.41-10.81-5.87-15.53m-75.85-21.96c2.12-2.52 2.84-5.99 6.16-8.5-6.82 1.45-12.59 7.56-14.14 15.03 2.17-2.52 5.87-4.01 7.98-6.53m67.31 1.15c2.96 9.74 9.98 7.58 14.68 17.8-.49-3.44 3.42-14.4-5.76-21.17 3.07 3.76 2.16 10.72 3.98 15.27-3.56-7.66-11.23-8.92-12.9-11.9m-23.81 5.53c-1.77-.73-3.64-1.25-5.59-1.52l-.03 1.25c1.8.26 3.53.74 5.15 1.42.23-.35.38-.73.47-1.15m-1.42-12.06l.38-.34-.71-.3-1.88-.04-.49.34-1.11-.09-.01.27c.7.05 1.39.11 1.93.21l.91-.08.98.03zm-3.61 40.43c0-.32-.42-.63-1.05-.92h-.11c0 .26-.03 1.53-.04 2.15.77-.36 1.2-.73 1.2-1.23m-21.73-23.83c.04-.25.09-.46.17-.69a2.8 2.8 0 0 1-.77.08l.6.61zm17.95 55.16c21.09 0 38.25-17.16 38.25-38.25 0-19.78-15.1-36.11-34.38-38.05-.01.07-.03.15-.04.22-.08.37-.15.71-.2 1 8.63.84 16.41 4.67 22.27 10.43l-4.22 4.22.16-.74-.55-.24-.76-.04.16-.49-.51-1.74-1.05-1.15-3.3-1.74-.28.3-.59.17c1.13 1.67 1.74 3.6 1.74 5.55 0 .26 0 .5-.02.75l1.64 2.05-.77.18.51.77-1.44 1.44-.58-1.1c-.28.77-.64 1.49-1.09 2.15.11.1.22.2.32.3l-4.44 4.44c-.27-.25-.55-.5-.84-.74-.43.2-.86.38-1.3.55.12.1.25.19.37.3l-.23.22-.52.29-.2.52-.32-.32-.94.31.26.41.65-.17.42.03.03-.23.32-.16.1-.19.58-.17.46-.02c.09.08.18.16.26.24L445 37.31l-.13-.19-1.84.3-.41.41-.41.05 1.15-1.09-.41-.2-1.07 1.43.32-.03-.02.52.39.15.08.56-.65-.13-.68.12-1.61-.83s-.09 4.34-.13 6.52c3.81 1.29 7.87 3.14 7.87 8.01 0 2.14-.92 3.87-2.74 5.14l.01.01c-.03.02-.06.04-.08.05h-.01c-.04.02-.08.06-.12.09-1.54 1.02-3.53 1.56-5.25 2.1-.01.01-.05 3.41-.05 3.41 2.74 1.36 6.05 3.34 5.75 9-.04 1.39-.58 1.78-1.04 1.9-1.6.4-3.26.66-4.95.78-.01.44-.02.86-.02 1.25 7.37-.5 14.03-3.61 19.07-8.42l4.44 4.44C455.8 79.06 446.76 83 436.82 83c-9.88 0-18.88-3.89-25.52-10.23l4.44-4.45c4.99 4.71 11.55 7.77 18.8 8.31-.01-.39-.02-.81-.02-1.25-6.9-.54-13.14-3.46-17.9-7.94l1.19-1.19 1.63.19.87-.93 2.27.08.34-.79-.08-.33c3.29 2.49 7.26 4.14 11.58 4.59-.01-.48-.02-.91-.02-1.25-4.77-.53-9.09-2.59-12.44-5.69l4.45-4.45c1.07.96 2.29 1.78 3.6 2.42.1-.42.25-.81.45-1.17-1.15-.57-2.22-1.29-3.17-2.13l4.45-4.46c.71.57 1.51 1.02 2.38 1.32l-.03-1.34a6.78 6.78 0 0 1-1.47-.87l1.26-1.26c-.44-.13-.89-.27-1.33-.43l-.84.84c-.43-.47-.79-1-1.07-1.58-.77-.34-1.51-.73-2.2-1.18-2.74-1.8-4.13-4.34-4.13-7.55 0-2.45.69-4.31 1.8-5.75l-4.43-4.43c3.19-3.05 7.3-5.15 11.86-5.84-.01-.43-.02-.85-.02-1.25-4.9.7-9.3 2.95-12.72 6.21l-.75-.75c-.17.3-.37.68-.6 1.16l.47.47a23.09 23.09 0 0 0-6.28 15.48h-6.29c.1-7.71 3.17-14.72 8.13-19.92l1.99 2c.09 0 .19 0 .29-.01.36-.02.75-.14 1.13-.33l-2.54-2.54c1.34-1.3 2.81-2.47 4.38-3.49.13-.42.24-.79.31-.92.08-.15.47-.68.96-1.29a31.023 31.023 0 0 0-6.53 4.83l-4.44-4.44c5.83-5.67 13.51-9.45 22.04-10.31-.03-.15-.05-.27-.05-.27-.06-.3-.12-.62-.19-.96-19.22 2-34.26 18.3-34.26 38.04 0 21.11 17.16 38.27 38.25 38.27m8.26-26.43v-.03l.02.02-.02.01m18.51-37.35c6.26 6.56 10.13 15.4 10.23 25.14h-6.28c-.06-4.82-1.24-9.37-3.28-13.42l.06-.11.43.23.1-.33-1.12-1.97-1.33-1.84-1.56-1.3c-.53-.67-1.09-1.32-1.68-1.94l4.43-4.46zm-8 8.06l1.51.07.36.44-.18.64 2.1 1.3.41-.05 2.69 3.07 1.09-.38c1.7 3.66 2.68 7.72 2.73 12h-6.29c-.02-1.64-.23-3.24-.58-4.78l.29-.39.39-1.97-.3-2.12-.76-2.43-1.75-2.57.43.23.21-.22-1.4-.95-.09.31 1.41 2.01.8 1.65.57 1.63.18 1.1.29 1.85-.55.04s-.61-1.13-.79-1.6l.28-.42-.54-.77v-.76l-.38-.49-.48.06c-.17-.32-.35-.63-.54-.94l.34.17.09-.09-.18-.4.41-.23-.19-.23-.61.23.22-.95-.36-.21-.32.76c-.69-1.03-1.45-2-2.28-2.91l1.77-1.7zm-1.26 14.73l1.13-.61 1.15-.18.25-.56.64-.39.25-.53.2-.93c.09.33.17.66.25.99l-.61 1.82-.02.62.89-1.18c.19 1.08.3 2.18.31 3.31h-5.51l-.13-.48.64-.51.13-.31.28-.2.74-.08.08-.33-.67-.45zm-7.54-4.32l.56-.13-.03-.13-.56-.38.19-1.19.67-.67c.42.48.81.98 1.17 1.51l-.24.73-.61-.44-.47.13.23.43h.23l-.25.64-.18-.25-.71-.25zm2.4 20.88l-1.36-.39-.41.15-.77-.59-.72-.26c.36-.26.7-.53 1.03-.81l1.12.79.85.45.42.42-.16.24zm-.69-24.25l4.45-4.45c1.04 1.13 1.96 2.37 2.75 3.69l-.56.15.03.99 1.67 1.05c.41.9.76 1.84 1.04 2.81l-.29.43-.6.38-.15.92-.41.23-.34.41-.35-.13-.61-.03.35-.48.26-1.25.41-.25-1.2-1.15-.9.31-.2.84-.57.61-.59-.49-.21-.52.33-.21.19.34.27-.1-.12-.57-.39-.02-.03.23-.26.05-1.38-1.61-.47-.36.18-.19.42-.15-.39-.15s-.49.11-.54.11l.28.35-.7-.01c-.4-.62-.86-1.22-1.37-1.78m2.27 23.66l-.6-.6.46-.6.58-1.18-.23-.33.39-.87-.04-.79-.24-.81-.55-.2-.2.46-.33-.09c.47-.75.97-1.46 1.31-2.3l.56-.24.32-.43.15.18.38-.46-.31-.38.28-.08.51.2.97.03.59-.31 1.53-.41-.28-.51-.1-.62.82.36.3-.18-.15-.64-1.02.38-1.11-.22-.85-1.73h4.81a21.841 21.841 0 0 1-6.07 14.3l-.66-.66.28-.88-.51-1.94-.99 1.55zm.85 12.26l.59-1.27-.23-.56.87-.77v-.46l-.74-.46.61-1.23.92-1.2-.92-1h-.69l-.43-.7c.37-.3.73-.62 1.09-.95l4.45 4.45a29.433 29.433 0 0 1-5.52 4.15m5.54-5.87l.49-.55-.46-2.43-.33-.13.2-.41-1.05-.33-.21.87-.1 1.1-.22.2-1.92-1.92c3.81-3.98 6.22-9.3 6.43-15.18h6.29c-.21 7.61-3.33 14.51-8.27 19.62l-.85-.84zm1.73 1.73c5.17-5.34 8.43-12.55 8.65-20.5h6.28c-.22 9.68-4.18 18.46-10.49 24.94l-4.44-4.44zm-37.84-6.09c-.46-.47-.89-.96-1.3-1.47l.19-1.59-.66-1.53-.16-2.39-.74-1.45.16-.9-.9-1.72-.78-.39.32-.91-.33-.73.32-.83h.86l.3-.5h1.47l.23.43-.28 1.5-.18.26.55 1.2-.36.2-.25-.32-.11.12.25.71.43.83.2-.02.12-.75-.21-.27-.02-.51-.06-1.04.3-1.85-.29-.5h1.05c.21 3.85 1.82 7.34 4.33 9.96l-4.45 4.46zm-4.15-12.29l-.59.93h-1.02l-.08-.06c-.17-.98-.28-1.98-.32-2.99h1.89l-.45 1.51.57.61zm2.07-4.31l.12-1.25.74-.43 1.33.23.2.24c-.12.71-.19 1.43-.2 2.16h-1.51l-.68-.95zm6.38 4.69l.32-.16.82.62-.36.29.92.61-.06-.66.49-.82.52.55.53.76-.95.21.43.86.66-.35-.09-.27.5-.34.29-1.37c.36.81.85 1.56 1.44 2.2l-4.44 4.44a14.378 14.378 0 0 1-3.9-8.34l.91.97.86-.02 1.11.82zM420.8 31l4.44 4.44a16.13 16.13 0 0 0-2.36 3.4l-.31-.02-.62.19-.22-.01-.67.62.84-.13.75-.19c-.04.1-.09.19-.13.29l-.66.41h-.31l-.98.74-.94-.08-1.36 2.54.27.51-.74.83-.11 1.07h-2.81c.09-5.65 2.32-10.77 5.92-14.61m-5.75 33.53l1.41.82.29.2-1.02 1.02c-.48-.49-.94-1.01-1.38-1.53l.7-.51zm-1.41-17.69c.02.61.08 1.22.14 1.82l-.77.17-.15.78-1.61 2.03.04 2.8-1.63.56-.9.01c-.83-2.59-1.32-5.33-1.4-8.17h6.28zm-6.2 8.13l-.37-.07-.35-.39-1.76-.16.55.74-1.64-.31.43-.39-.4-.39-1.18.51-.42.78.17 1.79 1.35 3.25.66 1.02.37.14-1.03-1.95-.22-.99.23-.24-.14-.55.61.08.95 1.43.24.1-.03-1.05.38.22.09.57 1 .26.41-.3.14.1-.02.76.44.54.53.12 1.17 1.97.7.2.22-.92c1.23 2.03 2.68 3.9 4.34 5.59l-4.44 4.44c-6.37-6.49-10.37-15.31-10.59-25.05h6.29c.07 2.84.53 5.57 1.32 8.15m2.71-34.61l4.44 4.44c-5.18 5.43-8.39 12.75-8.49 20.8h-6.29c.11-9.79 4.03-18.67 10.34-25.24m45.5-2.29l-.38-.61-.82-.41-.64.49.82.44.92.66.1-.57zm-3.81 17.73l.02.49 1.09-.33.33-.66-.75-.99.4-.6 1.02.72.18-.15-.2-.14-.23-.44.42-.24-.41-.54-.95.48-.33.58-.19.53.42.7-.15.33-.67.26zm-45.45 28.19l.08-.29-.57-1.23-.67-.25 1.16 1.77zm25.7-23.62c0 1.06.64 1.8 1.81 2.44 0 0-.01-.18-.01-.47l-.73-.73.39-.71.32-.09c-.03-1.23-.05-2.61-.06-2.8l-.06.01c-1.07.59-1.66 1.32-1.66 2.35"/><path id="XMLID_2913_" class="st0" d="M439.11 67.62c1.97 1 3.79 2.37 4.55 4.99.33-4.33-2.1-6.21-4.5-7.47.01 0-.05 2.48-.05 2.48"/><path id="XMLID_2912_" class="st0" d="M452.23 23.69c0-3.94-2.86-8.3-9.85-9.84-.52-.11-1.3-.19-2.13-.25-.01.59-.04 1.95-.04 1.95-.01.43-.05 2-.06 2.34.65.05 1.12.13 1.34.19 4.06.97 5.52 3.3 5.52 5.61 0 3.73-3.19 5.14-7.11 6.2-.43.11-.86.23-1.3.34-1.19.3-2.42.58-3.63.91-.43.12-.86.24-1.29.37-4.35 1.32-8.09 3.42-8.09 8.79 0 5.32 4.26 7.31 8.42 8.59-.02-1.53-.05-3.07-.08-4.61-1.84-.86-3.14-2-3.14-3.91 0-1.86 1.18-2.99 2.99-3.81.4-.18.83-.35 1.29-.5 1.03-.35 2.2-.65 3.42-.95.43-.1.86-.21 1.3-.32 5.86-1.41 12.44-3.24 12.44-11.1"/><path id="XMLID_2911_" class="st0" d="M431.16 61.22c.01 2.15 1.58 3.32 3.17 4.21 0-.36-.07-3.69-.07-3.75.03-.66.68-1.06 1.19-1.31.77-.36 1.54-.62 2.52-.96.47-.16.87-.32 1.32-.45 3.18-.96 6.86-2.18 6.86-6.05 0-3.87-3.15-5.46-6.6-6.65-.02 1.23-.06 3.03-.09 4.28 1.46.57 2.42 1.27 2.42 2.37 0 1.38-1.48 2.19-2.53 2.59-.43.17-1.11.39-1.28.45-.85.26-1.76.57-2.61.88-.45.17-.88.35-1.29.56-1.48.76-3.02 1.87-3.01 3.83"/><path id="XMLID_2907_" class="st0" d="M433.31 14.22c-2.12.61-3.36 1.4-3.83 1.56-1.37.45-3.3.53-5.3 2.71-.36.39-1.22 1.48-1.84 2.37-.6.87-.63 2.26-1.07 3.01-.64 1.09-.49 1.71-.49 1.71l.02.03c-.02.14-.15.71-.73 1.37-.67.74-1.55 1.15-2.59.98.91.45 2.16-.18 2.16-.18s-.24.69-.47 1.81c1.02-2.31 1.95-3.16 2.25-3.39.44.1 1.34.06 3.03-.91 1.9-1.09 4.77-2.88 5.59-4.01.88-1.22 2.08-2.02 3.38-2.55-.04-1.72-.08-3.23-.11-4.51m-8.05 7.21l-.99.21 1.18-1.92 1.38.05-1.57 1.66z"/><path id="XMLID_2906_" class="st0" d="M437.25 60.96c-.19.06-.66.27-.96.37-.32.11-.73.28-.73.39.01.03.31 16.67.31 17.04 0 3.43 1.75 3.45 1.75 0 0-.24.35-18.04.35-18.04s-.42.13-.72.24"/><path id="XMLID_2905_" class="st0" d="M435.45 55.47c.55-.19 1.09-.36 1.59-.51.38-.12.73-.22 1.06-.33.02-1.05.32-15.53.38-18.16-1.3.32-2.44.63-3.37.97.02 1.96.3 16.44.34 18.03"/><path id="XMLID_2904_" class="st0" d="M436.9 0c-4.9 0-2.82 7.27-2.43 9.64.02.11.4 16.43.47 20.17.74-.19 1.49-.38 2.2-.55.51-.12 1-.25 1.48-.37.07-3.6.43-19.17.45-19.28.29-2.53 2.86-9.61-2.17-9.61"/><path id="XMLID_2883_" class="st0" d="M565.24 38.76v-8.75c0-4.93-1.16-8.21-6.81-8.21-2.74 0-4.45.9-5.58 1.5l-.09.05.26 4.35.26-.24c.73-.71 2.54-1.9 4.65-1.9 2.78 0 3.08 2.55 3.08 3.65v.57h-.68c-4.34 0-9.31.79-9.31 6.97 0 3.96 2.7 6.03 5.37 6.03 2.46 0 3.81-1.35 4.78-2.78.01.82.05 1.65.23 2.35l.03.12h4.09l-.02-.18c-.11-.69-.26-2.04-.26-3.53M561 33.63c0 3.79-1.04 5.55-3.25 5.55-1.52 0-2.5-1.14-2.5-2.91 0-2.56 1.61-3.61 5.55-3.61h.2v.97zm-16.74-11.52l-.07 1.41-.06 1.49c-.87-1.63-2.11-3.21-4.58-3.21-4.09 0-6.44 3.84-6.44 10.55 0 9.39 4.78 10.12 6.24 10.12 2.56 0 3.79-1.56 4.49-2.95v1.31c0 2.86-.5 6.14-4.43 6.14-1.57 0-3.31-.58-5.05-1.69l-.23-.15-.26 4.67.11.04c1.98.83 4.01 1.26 6.04 1.26 7.27 0 8.2-5.82 8.2-10.9V25.42l.14-3.31-.17-.01h-3.93zm-3.93 16.49c-1.19 0-2.57-1.71-2.57-6.52 0-4.26.91-6.26 2.88-6.29.63-.01 1.18.22 1.66.68 1 .98 1.55 2.96 1.55 5.57-.01 4.59-1.06 6.56-3.52 6.56m37.44-16.8c-2.66 0-3.93 1.88-4.55 3.04l-.05-1.35-.07-1.37h-4.25l.02.18c.09.8.13 1.87.13 3.29v16.89h4.52V30.63c0-1.7.36-4.54 2.81-4.54 1.61 0 2.23 1.18 2.23 4.19v12.18h4.52V29.39c-.01-5.04-1.8-7.59-5.31-7.59m84.26-7.51h-4.32l-2.29 5.93h2.96l3.65-5.93zm-151.9.31c-4.61 0-9.55 3.71-9.55 14.12 0 10.42 4.93 14.13 9.55 14.13 4.62 0 9.56-3.71 9.56-14.13-.01-10.41-4.94-14.12-9.56-14.12m0 24.11c-3.07 0-4.76-3.55-4.76-9.99s1.69-9.98 4.76-9.98c3.08 0 4.77 3.54 4.77 9.98 0 6.45-1.7 9.99-4.77 9.99m20.66-16.91c-2.54 0-3.82 2.2-4.35 3.47l-.05-1.55-.06-1.61h-4.13l.02.18c.09.8.14 1.87.14 3.29v16.89h4.51V31.33c0-4.43 2.64-4.77 3.45-4.77.38 0 .72.06 1.13.18l.22.07v-4.87l-.36-.07-.52-.07zm110.87-3.14h4.65v-5.07h-4.65v5.07zm-3.28 19.19c-.53.39-1.87.94-2.87.94-2.88 0-4.6-2.41-4.6-6.45 0-4.42 1.44-6.56 4.4-6.56 1.06 0 2.04.48 2.85.95l.23.13.26-4.19-.1-.05c-.74-.34-2.34-.83-3.71-.83-5.37 0-8.57 3.93-8.57 10.51 0 6.55 3.12 10.47 8.33 10.47 1.99 0 3.48-.52 4.19-.83l.1-.05-.26-4.23-.25.19zm3.34 4.61h4.52V22.11h-4.52v20.35zm15.94-20.66c-2.35 0-7.83 1.02-7.83 10.47 0 9.14 4.9 10.51 7.83 10.51 2.91 0 7.79-1.37 7.79-10.51 0-9.45-5.45-10.47-7.79-10.47m0 17.22c-2.63 0-3.18-3.68-3.18-6.76 0-3.06.55-6.72 3.18-6.72 2.09 0 3.14 2.26 3.14 6.72 0 4.49-1.06 6.76-3.14 6.76m-70.53 3.44h4.52V22.11h-4.52v20.35zm-.07-23.8h4.65v-5.07h-4.65v5.07zm35.92 20.1v-8.75c0-4.93-1.16-8.21-6.82-8.21-2.74 0-4.45.9-5.58 1.5l-.09.05.27 4.35.25-.24c.74-.71 2.54-1.9 4.65-1.9 2.78 0 3.08 2.55 3.08 3.65v.57h-.68c-4.34 0-9.32.79-9.32 6.97 0 3.96 2.7 6.03 5.36 6.03 2.46 0 3.81-1.35 4.77-2.78.02.8.05 1.65.23 2.35l.03.12h4.1l-.03-.18c-.08-.69-.22-2.04-.22-3.53m-4.25-5.13c0 3.79-1.03 5.55-3.25 5.55-1.52 0-2.5-1.14-2.5-2.91 0-2.56 1.6-3.61 5.54-3.61h.21v.97zm-12.03-7.19v-4.33h-11.71v3.98h7.06c-.29.48-7.3 12-7.3 12v4.37h12.18v-3.98h-7.4c.29-.48 7.17-12.04 7.17-12.04m70.71-4.64c-2.66 0-3.92 1.88-4.55 3.04-.02-.53-.06-1.34-.06-1.34l-.07-1.38h-4.26l.02.18c.09.8.14 1.88.14 3.29v16.89h4.52V30.63c0-1.7.36-4.54 2.81-4.54 1.61 0 2.23 1.18 2.23 4.19v12.18h4.52V29.39c0-5.04-1.79-7.59-5.3-7.59"/><path id="XMLID_2858_" class="st0" d="M598.81 77.73v-8.29c0-4.67-1.1-7.78-6.46-7.78-2.59 0-4.21.85-5.28 1.42l-.09.04.25 4.12.24-.23c.7-.67 2.4-1.8 4.4-1.8 2.63 0 2.92 2.42 2.92 3.46v.54h-.65c-4.11 0-8.82.75-8.82 6.6 0 3.75 2.56 5.72 5.08 5.72 2.33 0 3.61-1.29 4.52-2.64.01.78.05 1.56.22 2.22l.03.11h3.88l-.02-.18c-.08-.61-.22-1.9-.22-3.31m-4.02-4.86c0 3.59-.98 5.26-3.08 5.26-1.44 0-2.37-1.08-2.37-2.75 0-2.43 1.52-3.42 5.25-3.42h.2v.91zm-42.97-11.21c-2.52 0-3.72 1.78-4.31 2.88l-.05-1.28-.07-1.3h-4.03l.02.17c.09.75.13 1.77.13 3.11v16h4.28V70.03c0-1.61.35-4.3 2.66-4.3 1.53 0 2.12 1.11 2.12 3.97v11.54h4.28V68.85c-.01-4.77-1.7-7.19-5.03-7.19m-39.17 12.38c-.23-.93-4.52-18.82-4.52-18.82h-6.38v26.03h4.02v-20.6c.44 1.78 5.13 20.58 5.13 20.58h3.15s4.95-18.95 5.39-20.63v20.63h4.02V55.21h-6.2s-4.38 17.9-4.61 18.83m27.4 3.91v-16h-4.28v11.02c0 2.05-.44 4.49-2.56 4.49-1.57 0-2.21-1.15-2.21-3.97V61.96h-4.28v12.38c0 4.77 1.69 7.19 5.02 7.19 2.47 0 3.59-1.63 4.31-2.91.02.5.05 1.32.05 1.32l.06 1.29h4.03l-.02-.17c-.08-.74-.12-1.76-.12-3.11m37.94-19.26h4.4v-4.81h-4.4v4.81zm-3.84 19.15V53.3h-4.28v10.97c-.54-1.05-1.74-2.61-4.16-2.61-3.66 0-5.85 3.72-5.85 9.96 0 6.21 2.22 9.92 5.95 9.92 2.02 0 3.42-1 4.32-2.96.02 1.15.07 2.07.13 2.53l.02.14h4.03l-.03-.18c-.1-.62-.13-1.68-.13-3.23m-7.26.03c-2.01 0-2.75-1.75-2.75-6.44 0-4.11.92-6.1 2.82-6.1 2.54 0 2.92 3.89 2.92 6.21-.01 2.89-.53 6.33-2.99 6.33m35.86 3.37h4.27V53.3h-4.27v27.94zm-24.69 0h4.28V61.96h-4.28v19.28zm145.4-3.51v-8.29c0-4.67-1.1-7.78-6.46-7.78-2.59 0-4.21.85-5.29 1.42l-.09.04.25 4.12.25-.23c.69-.67 2.4-1.8 4.4-1.8 2.63 0 2.91 2.42 2.91 3.46v.54h-.64c-4.11 0-8.82.75-8.82 6.6 0 3.75 2.55 5.72 5.08 5.72 2.33 0 3.6-1.28 4.52-2.63.01.78.05 1.56.22 2.22l.03.11h3.88l-.02-.18c-.1-.78-.22-2-.22-3.32m-4.02-4.86c0 3.59-.98 5.26-3.07 5.26-1.44 0-2.37-1.08-2.37-2.75 0-2.43 1.52-3.42 5.25-3.42h.19v.91zm29.42 5.08v-16h-4.28v11.02c0 2.05-.44 4.49-2.57 4.49-1.56 0-2.21-1.15-2.21-3.97V61.96h-4.28v12.38c0 4.77 1.69 7.19 5.02 7.19 2.47 0 3.59-1.63 4.31-2.91.02.5.05 1.33.05 1.33l.07 1.28h4.04l-.02-.17c-.09-.75-.13-1.77-.13-3.11m-21.45 3.29h4.27V53.3h-4.27v27.94zm38.88-.18c-.09-.63-.13-1.68-.13-3.22V53.3h-4.28v10.97c-.53-1.05-1.73-2.61-4.16-2.61-3.67 0-5.85 3.72-5.85 9.96 0 6.21 2.22 9.92 5.94 9.92 2.02 0 3.43-1 4.33-2.96.02 1.15.07 2.07.13 2.53l.02.14h4.03l-.03-.19zm-7.38-3.19c-2.01 0-2.76-1.75-2.76-6.44 0-4.11.92-6.1 2.82-6.1 2.53 0 2.91 3.89 2.91 6.21 0 2.89-.51 6.33-2.97 6.33M643.24 61.66c-4.08 0-6.94 4.2-6.94 10.21 0 4.67 2.05 9.66 7.77 9.66 2.46 0 4.23-.86 4.99-1.23l.09-.04-.22-4.03-.24.2c-.87.75-1.99 1.44-4.22 1.44-2.71 0-3.99-1.56-4.03-4.88h9.53v-1.04c.02-8.51-3.65-10.29-6.73-10.29m-2.78 8.14c.03-2.22.77-4.74 2.78-4.74 2.09 0 2.57 2.54 2.59 4.74h-5.37zm21.37 11.48h4.28v-28.3h-4.28v28.3zm-28.6-3.44V53.3h-4.28v10.97c-.54-1.05-1.74-2.61-4.16-2.61-3.67 0-5.85 3.72-5.85 9.96 0 6.21 2.22 9.92 5.94 9.92 2.02 0 3.43-1 4.33-2.97.01 1.15.07 2.07.12 2.54l.02.14h4.03l-.03-.18c-.08-.62-.12-1.68-.12-3.23m-7.26.03c-2.01 0-2.76-1.75-2.76-6.44 0-4.11.92-6.1 2.82-6.1 2.54 0 2.92 3.89 2.92 6.21 0 2.89-.52 6.33-2.98 6.33m77.69-11.21l-2.4-1.55c-1.23-.8-2.29-1.49-2.29-3.33 0-1.79 1.1-2.86 2.95-2.86 1.71 0 2.92.55 3.89.98l.45.2.21-4.29-.33-.12c-.76-.28-2.34-.85-4.5-.85-3.58 0-7.19 2.21-7.19 7.15 0 3.08 1.18 5.27 3.71 6.87l2.08 1.33c1.93 1.22 2.84 1.99 2.84 3.77 0 2.63-1.67 3.56-3.24 3.56-2.35 0-4.15-1.19-4.64-1.55l-.23-.17-.24 4.58.07.05c1.13.77 2.87 1.17 5.17 1.17 4.78 0 7.64-2.95 7.64-7.9-.02-3.77-1.4-5.39-3.95-7.04m-21.08 11.07v-8.29c0-4.67-1.1-7.78-6.46-7.78-2.59 0-4.21.85-5.28 1.42l-.09.04.25 4.12.24-.23c.69-.67 2.4-1.8 4.4-1.8 2.63 0 2.92 2.42 2.92 3.46v.54h-.64c-4.11 0-8.82.75-8.82 6.6 0 3.75 2.56 5.72 5.08 5.72 2.33 0 3.61-1.28 4.53-2.63.01.78.05 1.56.21 2.22l.03.11h3.88l-.02-.18c-.09-.63-.23-1.91-.23-3.32m-4.02-4.86c0 3.59-.98 5.26-3.07 5.26-1.44 0-2.37-1.08-2.37-2.75 0-2.43 1.52-3.42 5.25-3.42h.2v.91z"/><path id="XMLID_2855_" class="st0" d="M383.63 116.97c1.74 0 3.33 1.62 3.33 5.38s-1.59 5.38-3.33 5.38-3.33-1.62-3.33-5.38c-.01-3.76 1.59-5.38 3.33-5.38zm0 9.3c.97 0 1.75-1.04 1.75-3.91s-.78-3.91-1.75-3.91-1.75 1.04-1.75 3.91.78 3.91 1.75 3.91z"/><path id="XMLID_2853_" class="st0" d="M388.11 117.12h4.23v1.53h-2.7v2.85h2.58v1.53h-2.58v4.56h-1.53v-10.47z"/><path id="XMLID_2851_" class="st0" d="M393.37 117.12h1.53v10.46h-1.53v-10.46z"/><path id="XMLID_2849_" class="st0" d="M401.73 127.36c-.31.21-1.05.37-1.81.37-2.54 0-3.85-2.32-3.85-5.38s1.31-5.38 3.8-5.38c.85 0 1.55.28 1.86.43l-.08 1.72c-.31-.2-.8-.57-1.58-.57-1.27 0-2.36 1.08-2.36 3.79s1.09 3.79 2.36 3.79c.74 0 1.23-.22 1.58-.54l.08 1.77z"/><path id="XMLID_2847_" class="st0" d="M402.8 117.12h1.53v10.46h-1.53v-10.46z"/><path id="XMLID_2845_" class="st0" d="M405.81 117.12h1.82l2.78 8.21h.02v-8.21h1.39v10.46h-1.83l-2.77-8.15h-.02v8.15h-1.39v-10.46z"/><path id="XMLID_2842_" class="st0" d="M417.5 125.06h-2.88l-.6 2.52h-1.53l2.8-10.46h1.68l2.7 10.46h-1.58l-.59-2.52zm-.33-1.46l-1.05-4.88h-.02l-1.15 4.88h2.22z"/><path id="XMLID_2839_" class="st0" d="M423.09 117.12h2.61c1.49 0 2.49.84 2.49 2.76 0 1.36-.68 2.28-1.62 2.46v.05c.31.06.66.24.92 1.21l1.09 3.99h-1.63l-.83-3.4c-.2-.82-.6-1.09-1.16-1.09h-.35v4.5h-1.53v-10.48zm2.15 4.56c.82 0 1.37-.52 1.37-1.59 0-1.2-.5-1.5-1.37-1.5h-.62v3.09h.62z"/><path id="XMLID_2837_" class="st0" d="M429.52 117.12h4.4v1.53h-2.87v2.79h2.71v1.53h-2.71v3.09h2.99v1.53h-4.52v-10.47z"/><path id="XMLID_2835_" class="st0" d="M438.55 121.72h2.71v5.47c-.43.28-1.17.54-2.27.54-2.69 0-4.11-2.28-4.11-5.38s1.43-5.38 4.11-5.38c.96 0 1.71.27 2.04.45l-.08 1.72c-.49-.38-1.16-.65-1.93-.65-1.63 0-2.5 1.68-2.5 3.85 0 2.35.85 3.85 2.42 3.85.36 0 .68-.09.89-.19v-2.82h-1.27v-1.46z"/><path id="XMLID_2833_" class="st0" d="M442.7 117.12h1.53v10.46h-1.53v-10.46z"/><path id="XMLID_2830_" class="st0" d="M448.73 116.97c1.74 0 3.33 1.62 3.33 5.38s-1.59 5.38-3.33 5.38-3.33-1.62-3.33-5.38 1.59-5.38 3.33-5.38zm0 9.3c.97 0 1.75-1.04 1.75-3.91s-.78-3.91-1.75-3.91-1.75 1.04-1.75 3.91.78 3.91 1.75 3.91z"/><path id="XMLID_2828_" class="st0" d="M453.19 117.12h1.82l2.78 8.21h.02v-8.21h1.39v10.46h-1.83l-2.77-8.15h-.02v8.15h-1.39v-10.46z"/><path id="XMLID_2825_" class="st0" d="M464.88 125.06H462l-.6 2.52h-1.53l2.8-10.46h1.68l2.7 10.46h-1.58l-.59-2.52zm-.32-1.46l-1.05-4.88h-.02l-1.15 4.88h2.22z"/><path id="XMLID_2823_" class="st0" d="M467.64 117.12h1.53v8.93h2.76v1.53h-4.29v-10.46z"/><path id="XMLID_2820_" class="st0" d="M475.49 117.12h2.4c1.73 0 2.63 1.2 2.63 3.18s-.9 3.19-2.63 3.19h-.86v4.09h-1.53v-10.46zm2.11 4.9c.96 0 1.38-.58 1.38-1.72 0-1.14-.42-1.71-1.38-1.71h-.58v3.43h.58z"/><path id="XMLID_2817_" class="st0" d="M484.8 125.06h-2.88l-.6 2.52h-1.53l2.8-10.46h1.68l2.7 10.46h-1.58l-.59-2.52zm-.33-1.46l-1.05-4.88h-.02l-1.15 4.88h2.22z"/><path id="XMLID_2814_" class="st0" d="M487.56 117.12h2.61c1.49 0 2.49.84 2.49 2.76 0 1.36-.68 2.28-1.62 2.46v.05c.31.06.66.24.92 1.21l1.09 3.99h-1.63l-.83-3.4c-.2-.82-.6-1.09-1.16-1.09h-.35v4.5h-1.53v-10.48zm2.15 4.56c.82 0 1.37-.52 1.37-1.59 0-1.2-.5-1.5-1.37-1.5h-.62v3.09h.62z"/><path id="XMLID_2811_" class="st0" d="M498.2 125.06h-2.88l-.6 2.52h-1.53l2.8-10.46h1.68l2.7 10.46h-1.58l-.59-2.52zm-.32-1.46l-1.05-4.88h-.02l-1.15 4.88h2.22z"/><path id="XMLID_2809_" class="st0" d="M503.79 117.12h1.53v8.93h2.76v1.53h-4.29v-10.46z"/><path id="XMLID_2806_" class="st0" d="M513.09 125.06h-2.88l-.6 2.52h-1.53l2.8-10.46h1.68l2.7 10.46h-1.58l-.59-2.52zm-.32-1.46l-1.05-4.88h-.02l-1.15 4.88h2.22z"/><path id="XMLID_2804_" class="st0" d="M515.82 125.56c.3.24.96.64 1.77.64.67 0 1.27-.46 1.27-1.51 0-.75-.35-1.08-1.09-1.59l-.78-.54c-.83-.57-1.37-1.39-1.37-2.74 0-1.87 1.23-2.84 2.64-2.84.89 0 1.51.28 1.75.37l-.07 1.6c-.37-.18-.86-.45-1.57-.45-.77 0-1.16.51-1.16 1.23 0 .78.42 1.08.89 1.41l.9.63c.98.69 1.45 1.35 1.45 2.82 0 2.13-1.21 3.15-2.8 3.15-.84 0-1.49-.15-1.91-.47l.08-1.71z"/><path id="XMLID_2803_" class="st0" d="M576.61 108.38l2.5-6.29h3.77l-3.77 6.29z"/><path id="XMLID_2802_" class="st2" d="M55.64 119.21c30.73 0 55.63-24.88 55.63-55.56 0-30.69-24.9-55.56-55.63-55.56C24.9 8.09 0 32.97 0 63.65c0 30.69 24.9 55.56 55.64 55.56z"/><ellipse id="XMLID_2801_" class="st3" cx="55.64" cy="63.65" rx="40.94" ry="39.78"/><path id="XMLID_2800_" class="st0" d="M10.66 43.87l.75 2.78h2.72l-1.98 1.57.74 2.43-2.34-1.92-2.29 2.1.92-2.61-2.35-1.55 2.73.05z"/><path id="XMLID_2799_" class="st4" d="M10.66 43.87l.75 2.78h2.72l-1.98 1.57.74 2.43-2.34-1.92-2.29 2.1.92-2.61-2.35-1.55 2.73.05z"/><path id="XMLID_2798_" class="st0" d="M97.51 83.32l.75 2.78h2.71L99 87.67l.74 2.44-2.35-1.93-2.29 2.1.93-2.61-2.36-1.56 2.73.06z"/><path id="XMLID_2797_" class="st4" d="M97.51 83.32l.75 2.78h2.71L99 87.67l.74 2.44-2.35-1.93-2.29 2.1.93-2.61-2.36-1.56 2.73.06z"/><path id="XMLID_2796_" class="st0" d="M13.57 82.7l.75 2.78h2.72l-1.98 1.56.74 2.44-2.35-1.92-2.29 2.09.93-2.61-2.35-1.55 2.73.06z"/><path id="XMLID_2795_" class="st4" d="M13.57 82.7l.75 2.78h2.72l-1.98 1.56.74 2.44-2.35-1.92-2.29 2.09.93-2.61-2.35-1.55 2.73.06z"/><path id="XMLID_2772_" class="st0" d="M100.88 41.87l1 2.79h2.47l-1.98 1.55.74 2.44-2.23-2.06-2.4 2.24.92-2.62-2.35-1.55 2.73.06z"/><path id="XMLID_2769_" class="st4" d="M100.88 41.87l1 2.79h2.47l-1.98 1.55.74 2.44-2.23-2.06-2.4 2.24.92-2.62-2.35-1.55 2.73.06z"/><path id="XMLID_2768_" class="st0" d="M58.99 63.64c.23-.01.46-.01.68 0h-.68z"/><path id="XMLID_2767_" class="st0" d="M26.79 95.96l1.19 1.09-5.67 6.12-1.27-1.17 1.55-6.65-.02-.02-4.05 4.37-1.19-1.1 5.68-6.12 1.34 1.24-1.53 6.49.03.01z"/><path id="XMLID_2665_" class="st0" d="M57.76 20.12l-1.85-.18 3.82-7.92 2.02.2 2.13 8.51-1.9-.19-.37-1.75-3.1-.3-.75 1.63zm1.36-3.01l2.15.21-.72-3.35h-.02l-1.41 3.14z"/><path id="XMLID_2664_" class="st0" d="M69.12 20.52l3.99 1.26-.49 1.41-5.66-1.8 2.67-7.77 1.68.54z"/><path id="XMLID_2663_" class="st0" d="M81.96 25.57c-1.21 1.81-2.84 1.88-4.61.76-.64-.41-1.5-1.18-1.67-2.25-.1-.66.13-1.31.56-2.02l3.04-4.56 1.49.95-2.98 4.46c-.64.96-.35 1.74.33 2.17 1.01.64 1.74.43 2.29-.41l3.02-4.53 1.49.95-2.96 4.48z"/><path id="XMLID_2662_" class="st0" d="M85.78 32.11l-1.36-1.1 4.46-5.19-1.96-1.57.95-1.12 5.29 4.25-.96 1.12-1.96-1.58z"/><path id="XMLID_2661_" class="st0" d="M48.43 18.2c.09.45.46 1.29 1.98 1.07.82-.12 1.71-.45 1.56-1.32-.11-.64-.76-.72-1.67-.8l-.93-.07c-1.39-.11-2.74-.22-3.04-2.02-.15-.91.08-2.6 2.78-3 2.55-.37 3.5 1.17 3.68 2.17l-1.67.25c-.11-.36-.39-1.2-1.91-.98-.66.1-1.41.45-1.28 1.19.11.64.66.7 1.02.73l2.11.19c1.18.11 2.3.41 2.54 1.88.41 2.47-2.1 3.06-2.83 3.17-3.03.45-3.84-1.2-4.01-2.22l1.67-.24z"/><path id="XMLID_2658_" class="st0" d="M29.37 18.43c.99-.51 3.8-1.42 5.63 2.02s-.55 5.18-1.53 5.69c-.99.51-3.8 1.42-5.63-2.02s.54-5.18 1.53-5.69m3.41 6.42c.84-.43 1.75-1.55.66-3.6-1.09-2.05-2.54-1.96-3.39-1.52-.84.43-1.75 1.55-.66 3.59 1.09 2.05 2.55 1.96 3.39 1.53"/><path id="XMLID_2655_" class="st0" d="M17.24 28.4l2.93-3.02c1.55-1.59 3-.79 3.52-.3.66.62.9 1.48.53 2.26.69-.29 1.13-.38 2.25.66.87.82 1.09 1.02 1.45.85l.16.14-1.34 1.38c-.37-.18-.72-.42-1.34-.99-.82-.77-1.18-1.02-2.08-.09l-1.25 1.29 2.34 2.2L23.23 34l-5.99-5.6zm5.24-.23c.63-.65.71-1.18.12-1.73-.32-.3-.92-.59-1.63.15l-1.51 1.55 1.6 1.5 1.42-1.47z"/><path id="XMLID_2654_" class="st0" d="M78.49 100.83l1.43-.78 4.08 7.13-1.54.84-5.89-3.45-.02.02 2.9 5.08-1.42.78-4.08-7.13 1.61-.88 5.75 3.37.02-.01z"/><path id="XMLID_2651_" class="st0" d="M81.54 98.54l2.93-2.22c2.23-1.7 4.18-.18 5.16 1.05 1.11 1.39 2.13 3.83-.05 5.49l-2.87 2.18-5.17-6.5zm5.63 4.35l1.35-1.02c1.13-.86.63-2.26-.23-3.33-1.52-1.92-2.58-1.37-3.17-.92l-1.33 1.01 3.38 4.26z"/><path id="XMLID_2650_" class="st0" d="M95.57 97.34l-1.16 1.3-6.31-5.42 1.16-1.29z"/><path id="XMLID_2649_" class="st0" d="M98.26 36.18l-2.7-3.49-1.41 1.05 2.48 3.19-1.17.88-2.49-3.19-1.73 1.28 2.82 3.64-1.19.88-3.86-4.98 6.69-4.97 3.74 4.83z"/><path id="XMLID_2646_" class="st0" d="M32.37 100.22c.91.63 3.03 2.65.79 5.82-2.24 3.17-4.91 1.91-5.82 1.29-.91-.63-3.03-2.65-.79-5.82 2.24-3.17 4.91-1.91 5.82-1.29m-4.19 5.91c.77.53 2.2.81 3.54-1.08 1.34-1.89.58-3.11-.2-3.64-.78-.53-2.2-.81-3.54 1.08-1.34 1.89-.57 3.11.2 3.64"/><path id="XMLID_2645_" class="st0" d="M41.27 104.68l1.69.64-5.7 6.71-1.54-.59.43-8.69 1.74.66-.64 6.46.02.01z"/><path id="XMLID_2644_" class="st0" d="M44.12 114.03l-1.7-.44 2.17-7.89 1.7.44z"/><path id="XMLID_1260_" class="st0" d="M64.02 114.66l-1.64.11-.47-6.86h-.03l-1.09 6.97-1.72.11-2.01-6.76h-.03l.48 6.87-1.64.11-.57-8.21 2.56-.18 1.98 6.37h.02l1.05-6.58 2.55-.17z"/><path id="XMLID_1259_" class="st0" d="M73.76 109.55c.55 2.11-.51 3.34-2.56 3.85-.75.19-1.91.29-2.85-.32-.57-.38-.92-.99-1.15-1.79l-1.4-5.32 1.74-.44 1.36 5.21c.29 1.12 1.08 1.45 1.88 1.25 1.16-.29 1.5-.97 1.24-1.94l-1.39-5.29 1.74-.43 1.39 5.22z"/><path id="XMLID_1256_" class="st0" d="M18.09 40.43l-.98 1.44-6.94-4.65 2.15-3.15c.92-1.33 2.33-1.56 3.69-.65.63.42 1.98 1.83.71 3.68l-1.13 1.65 2.5 1.68zm-2.78-3.81c.73-1.07-.04-1.59-.35-1.8-.68-.45-1.21-.27-1.82.62l-.78 1.14 2.04 1.37.91-1.33z"/><path id="XMLID_1255_" class="st0" d="M63.94 96.06c.61 1.41-.98 1.06-1.6 1.56h-.51c.1-.8.98-2.12 2.11-1.56"/><path id="XMLID_1254_" class="st0" d="M54.9 70.94v.55h-2.15c-.21-1.21 1.64-1.41 2.15-.55"/><path id="XMLID_1232_" class="st0" d="M58.65 56.56l1.04-1.27 2.77-.23 1.27-.24-.57 1.16-1.51.58.23-.58-1.72-.12-.93.7z"/><path id="XMLID_1231_" class="st0" d="M65.47 54.94l.92-.12 1.04.47-.58.69-1.04.23-.46.58-.58-.46-.92.23-.12-.46.81-.23-.34-.47.34-.34z"/><path id="XMLID_1230_" class="st0" d="M68.32 56.03l.58-.46 1.04.11-.23.58-1.51.34z"/><path id="XMLID_1229_" class="st0" d="M60.16 57.36l1.15-.11-.24.69h-1.15z"/><path id="XMLID_1228_" class="st0" d="M68.01 57.19l.68-.53.38.38-.46.38z"/><path id="XMLID_1227_" class="st0" d="M67.41 58.31l.58.7.46-.23-.35-1.16z"/><path id="XMLID_1226_" class="st0" d="M69.52 58.75l.35-.46-1.04-.58z"/><path id="XMLID_1225_" class="st0" d="M69.52 58.75l.35-.46"/><path id="XMLID_1224_" class="st0" d="M70.68 58.23l.41.17-.16 1.69-.57-1.53z"/><path id="XMLID_1162_" class="st0" d="M52.23 32.28c.41-.46.11-2.42-.56-2.62-.77 1.21 1.59 1.76 0 2.62h.56zm3.7 6.29c-.09-.95-.33-2.94.55-4.19l.53-.54c-.2.16-.38.34-.53.54l-1.07-1.05.52-.55c-.77.25-1.03-.65-1.6-1.01-.72 1.96 3.9 4.48-.51 4.68-.31-.3-.72-.55-.57-1.06h-.51v.56h.51c-.3.25-.56.65-1.03.5-.05.6.11 1.26-.56 1.56h1.08c.31.3.72.55.51 1.06.72.2 1.8-.45 2.16.5-.15-.44.26-.69.52-1m5.66 25.07c1.14-.71 1.78-1.18 3.43-1.56-.16.5.25.75.51 1.06 1.17-1.34 1.9-.24 2.78.5.43.37.91.65 1.49.5.03-.17.11-.33.21-.5h.57c.79 1.94 3.79 3.08 4.05 5.24 1.85.91 4.42.14 5.85 2.06 3.75 4.18-4.51 5.69-3.19 9.97-.66 2.76-2.77 3.22-5.34 3.62-.82 2.11-2.47 2.97-4.26 4.18-2.67-.1-3.03 1.87-5.34 2.62-.82 2.72-3.08 3.47-3.75 6.29.41.86 1.85.35 1.59 1.56-1.84.05-4.21-1.05-4.25-3.12.72-5.84 4.98-10.27 5.34-16.21-2.88-2.11-3.34-6.14-3.18-9.92 1.85-.95 1.44-2.82 2.1-4.18l-1.03-1.06c-1.07 1.56-1.8-.81-3.23 0-.1-.39-.29-.74-.54-1.06-.59-.75-1.49-1.37-2.14-2.11-2.1-.66-4.46-.81-6.36-2.07-2.42-.2-1.03-2.92-3.19-3.67-.31.3-.72.55-.56 1.05-3.44-.91-2.05-4.68-3.7-6.8.36-1.49.43-2.87.11-4.18-.21-.9-.61-1.77-1.19-2.61-3.39-3.73-7.14 2.72-11.19.51 1.49-.1 2.72-.81 3.7-2.06-.31-.5-1.23-.81-1.03-1.56l.52-.55-.52-.5.52-.51c-.31-.3-.72-.55-.52-1.06 2.01-1.61 4.73-3.82 7.96-3.67 2.47-.91 5.8 2.01 8.02-1.05-1.13-.05-2.31-1.72-1.08-2.57.77.1 1.59-1.26 2.16 0 .66-.35.51-1.01.51-1.61 1.75-.96 3.65 2.01 4.27-.5h1.08c-.15.5.26.76.51 1.06l.57-.55.51.55c1.44-1.41 2.36 1.46 4.26.5 1.44.91 2.31 2.92 2.67 4.73-.56 0-1.23-.15-1.59.5l2.16 2.12c.66-.35.51-1.01.51-1.61 2.57 1.31 4.11 3.98 5.34 6.3-2.78.45-5.29 1.66-6.94 4.17 1.69 4.23-5.44 4.13-2.16 8.36l-1.06 1.07c-.12-.98-.43-1.85-1.05-2.63-2.77 1.76-7.6-1.76-6.93 3.68.71.6.67 1.51 1.59 2.06 1.33.6 1.8-1.06 2.67-1.56v-.5h2.11c1.12 1.91-2.37 4.18 1.07 4.68 0 .61.16 1.26-.52 1.56.27.73.73.99 1.26 1.05.39.06.81.03 1.23 0h.68c.42.04.8.16 1.09.5.32-.19.6-.36.84-.51"/><path id="XMLID_1159_" class="st0" d="M100.97 53.3c.4-.07.98-.11 1.83-.11.79 0 1.36.14 1.74.43.38.28.63.77.63 1.33s-.19 1.05-.53 1.36c-.45.4-1.1.57-1.84.57-.14 0-.27-.01-.36-.02v1.87h-1.46V53.3zm1.47 2.44c.08.01.18.02.34.02.58 0 .94-.3.94-.77 0-.41-.28-.68-.83-.68-.22 0-.37.02-.44.03v1.4z"/><path id="XMLID_1156_" class="st0" d="M103.37 65.11l-.31 1.28h-1.53l1.6-5.51h1.96l1.64 5.51h-1.59l-.35-1.28h-1.42zm1.22-1.1l-.25-.99c-.08-.31-.19-.76-.27-1.09h-.02c-.08.33-.16.78-.24 1.1l-.24.98h1.02z"/><path id="XMLID_1155_" class="st0" d="M102.18 68.74v2.03h1.79v-2.03h1.47v5.51h-1.47v-2.19h-1.79v2.19h-1.48v-5.51z"/><path id="XMLID_1152_" class="st0" d="M104.13 79.24c0 1.77-1.06 2.9-2.76 2.9-1.71 0-2.66-1.28-2.66-2.81 0-1.6 1.06-2.88 2.74-2.88 1.79 0 2.68 1.32 2.68 2.79m-3.85.06c0 1.03.45 1.67 1.16 1.67.7 0 1.13-.69 1.13-1.68 0-.95-.43-1.67-1.14-1.67-.7 0-1.15.67-1.15 1.68"/><path id="XMLID_1149_" class="st0" d="M11.07 58.86c0 1.78-1.06 2.9-2.76 2.9-1.71 0-2.65-1.28-2.65-2.81 0-1.6 1.05-2.87 2.73-2.87 1.78-.01 2.68 1.31 2.68 2.78m-3.86.06c0 1.03.46 1.67 1.17 1.67s1.13-.69 1.13-1.68c0-.95-.43-1.67-1.14-1.67-.7 0-1.16.67-1.16 1.68"/><path id="XMLID_905_" class="st0" d="M5.66 65.03c.4-.07.98-.11 1.82-.11.79 0 1.36.14 1.74.43.38.28.63.77.63 1.33 0 .55-.19 1.05-.53 1.36-.45.4-1.09.57-1.84.57-.14 0-.27-.01-.36-.01v1.87H5.66v-5.44zm1.46 2.43c.08.01.17.02.33.02.58 0 .94-.3.94-.77 0-.41-.28-.69-.83-.69-.22 0-.37.02-.44.03v1.41z"/><path id="XMLID_904_" class="st0" d="M8.03 76.72c.33.17.89.35 1.43.35.51 0 .75-.18.75-.45s-.25-.42-.86-.64c-.94-.32-1.55-.84-1.55-1.66 0-.97.82-1.72 2.21-1.72.66 0 1.13.12 1.5.29l-.31 1.18c-.24-.1-.64-.26-1.21-.26-.45 0-.69.17-.69.41 0 .28.3.39.99.65.99.36 1.44.89 1.44 1.66 0 .95-.74 1.76-2.35 1.76-.66 0-1.31-.18-1.62-.34l.27-1.23z"/><path id="XMLID_901_" class="st0" d="M131.98 13.68c5.46 0 10.48 4.41 10.48 14.66S137.45 43 131.98 43c-5.47 0-10.48-4.41-10.48-14.66s5.02-14.66 10.48-14.66m0 25.32c3.05 0 5.5-2.82 5.5-10.66s-2.45-10.66-5.5-10.66-5.5 2.82-5.5 10.66S128.93 39 131.98 39"/><path id="XMLID_900_" class="st0" d="M146.19 25.03c0-1.31-.04-2.53-.15-3.47h4.22c.03 1.27.15 2.57.15 3.84h.08c.56-1.63 2.03-4.17 4.94-4.17.3 0 .53.08.79.12v4.74c-.41-.12-.83-.2-1.32-.2-1.93 0-4.03 1.27-4.03 5.18v11.51h-4.67V25.03z"/><path id="XMLID_897_" class="st0" d="M159.27 45.85c1.1.65 3.28 1.8 5.73 1.8 4.41 0 5.12-3.31 5.12-6.61v-2h-.08c-.75 1.63-2.07 3.55-5.12 3.55-2.71 0-6.78-1.96-6.78-10.45 0-5.8 1.92-10.9 7.01-10.9 2.82 0 4.14 1.76 5.12 3.59h.15c0-1.1.11-2.16.15-3.26h4.22c-.08 1.1-.15 2.2-.15 3.31V40.4c0 6.57-1.85 11.27-8.97 11.27-3.09 0-5.54-.86-6.67-1.31l.27-4.51zm6.75-6.98c2.94 0 4.11-2.29 4.11-7.06 0-4.41-1.55-6.78-3.77-6.74-2.45.04-3.39 2.49-3.39 6.78 0 4.94 1.47 7.02 3.05 7.02"/><path id="XMLID_894_" class="st0" d="M179.59 22.79c1.32-.65 3.16-1.55 6.15-1.55 6.02 0 7.42 3.19 7.42 8.45v9.19c0 1.51.15 2.9.27 3.72h-4.22c-.23-.82-.27-1.84-.27-2.86h-.08c-1.17 1.71-2.63 3.18-5.43 3.18-3.01 0-5.8-2.25-5.8-6.16 0-5.72 4.3-7.15 10.21-7.15h.94v-.78c0-2.08-.94-4-3.61-4-2.34 0-4.41 1.22-5.32 2.04l-.26-4.08zm9.19 9.51h-.41c-3.99 0-6.37.9-6.37 3.96 0 1.92 1.17 3.22 2.98 3.22 2.79 0 3.81-2.24 3.81-6V32.3z"/><path id="XMLID_893_" class="st0" d="M197.23 25.03c0-1.31-.04-2.53-.15-3.47h4.37c.04 1.06.15 2.17.15 3.23h.12-.04c.68-1.27 2-3.55 5.16-3.55 4.41 0 5.73 3.55 5.73 7.8v13.55h-4.68V29.97c0-3.23-.75-4.57-2.68-4.57-2.45 0-3.32 2.25-3.32 4.94v12.25h-4.67V25.03z"/><path id="XMLID_890_" class="st0" d="M216.9 12.62h4.82v4.98h-4.82v-4.98zm.07 8.94h4.67v21.03h-4.67V21.56z"/><path id="XMLID_889_" class="st0" d="M225 38.22l8.29-12.82h-8.03v-3.84h12.7v4.33l-8.14 12.86h8.41v3.84H225z"/><path id="XMLID_886_" class="st0" d="M242.07 22.79c1.32-.65 3.16-1.55 6.15-1.55 6.03 0 7.42 3.19 7.42 8.45v9.19c0 1.51.15 2.9.26 3.72h-4.22c-.23-.82-.26-1.84-.26-2.86h-.08c-1.17 1.71-2.64 3.18-5.43 3.18-3.02 0-5.8-2.25-5.8-6.16 0-5.72 4.3-7.15 10.21-7.15h.94v-.78c0-2.08-.94-4-3.62-4-2.34 0-4.41 1.22-5.32 2.04l-.25-4.08zm9.2 9.51h-.41c-4 0-6.37.9-6.37 3.96 0 1.92 1.17 3.22 2.98 3.22 2.79 0 3.81-2.24 3.81-6V32.3z"/><path id="XMLID_885_" class="st0" d="M272.9 42.06c-1.1.45-2.71.86-4.6.86-6.41 0-9.12-4.86-9.12-10.82 0-6 2.87-10.86 9.39-10.86 1.47 0 3.2.49 4.07.86l-.26 4c-.83-.45-2-1.02-3.28-1.02-3.54 0-5.09 2.57-5.09 7.06 0 3.92 1.73 6.94 5.31 6.94 1.13 0 2.68-.57 3.32-1.02l.26 4z"/><path id="XMLID_882_" class="st0" d="M275.87 12.62h4.82v4.98h-4.82v-4.98zm.08 8.94h4.67v21.03h-4.67V21.56z"/><path id="XMLID_878_" class="st0" d="M293.05 21.23c3.96 0 8.52 2.25 8.52 10.82 0 8.82-4.56 10.86-8.52 10.86s-8.55-2.04-8.55-10.86c0-8.57 4.6-10.82 8.55-10.82m0 18.09c3.02 0 3.7-3.76 3.7-7.27s-.68-7.23-3.7-7.23c-3.01 0-3.73 3.72-3.73 7.23.01 3.52.72 7.27 3.73 7.27m.2-25.97h4.37l-3.85 5.88h-2.94l2.42-5.88z"/><path id="XMLID_877_" class="st0" d="M305 25.03c0-1.31-.04-2.53-.15-3.47h4.37c.04 1.06.15 2.17.15 3.23h.12-.04c.68-1.27 2-3.55 5.16-3.55 4.41 0 5.74 3.55 5.74 7.8v13.55h-4.68V29.97c0-3.23-.75-4.57-2.67-4.57-2.45 0-3.32 2.25-3.32 4.94v12.25H305V25.03z"/><path id="XMLID_874_" class="st0" d="M122.34 49.9h7.54c5.43 0 8.25 3.27 8.25 8.65 0 5.39-2.83 8.7-8.25 8.7h-2.71V78.4h-4.82V49.9zm6.63 13.35c3.02 0 4.34-1.59 4.34-4.7 0-3.1-1.32-4.65-4.34-4.65h-1.81v9.35h1.81z"/><path id="XMLID_871_" class="st0" d="M140.05 58.6c1.32-.65 3.16-1.55 6.15-1.55 6.03 0 7.42 3.19 7.42 8.45v9.19c0 1.51.15 2.9.26 3.72h-4.22c-.23-.82-.27-1.84-.27-2.86h-.07c-1.17 1.72-2.64 3.19-5.43 3.19-3.02 0-5.8-2.25-5.8-6.16 0-5.72 4.3-7.15 10.21-7.15h.94v-.78c0-2.08-.94-4-3.62-4-2.34 0-4.41 1.22-5.32 2.04l-.25-4.09zm9.2 9.51h-.41c-4 0-6.37.9-6.37 3.96 0 1.92 1.16 3.22 2.97 3.22 2.79 0 3.81-2.24 3.81-6v-1.18z"/><path id="XMLID_870_" class="st0" d="M157.69 60.85c0-1.31-.04-2.53-.15-3.47h4.37c.04 1.06.15 2.16.15 3.23h.12-.04c.68-1.27 2-3.55 5.16-3.55 4.41 0 5.73 3.55 5.73 7.8V78.4h-4.68V65.79c0-3.23-.75-4.57-2.67-4.57-2.45 0-3.32 2.25-3.32 4.94V78.4h-4.67V60.85z"/><path id="XMLID_867_" class="st0" d="M177.92 58.6c1.32-.65 3.16-1.55 6.15-1.55 6.03 0 7.42 3.19 7.42 8.45v9.19c0 1.51.15 2.9.27 3.72h-4.22c-.23-.82-.27-1.84-.27-2.86h-.08c-1.17 1.72-2.63 3.19-5.43 3.19-3.01 0-5.8-2.25-5.8-6.16 0-5.72 4.3-7.15 10.21-7.15h.94v-.78c0-2.08-.94-4-3.61-4-2.34 0-4.41 1.22-5.32 2.04l-.26-4.09zm9.2 9.51h-.41c-3.99 0-6.37.9-6.37 3.96 0 1.92 1.17 3.22 2.98 3.22 2.79 0 3.81-2.24 3.81-6v-1.18z"/><path id="XMLID_866_" class="st0" d="M195.45 60.8c0-1.51-.08-2.65-.15-3.43h4.68c.04 1.1.15 2.21.15 3.31h.08c.72-1.63 2.23-3.63 4.9-3.63 3.28 0 4.33 2.21 4.9 3.35.94-1.47 2.34-3.35 5.2-3.35 4.22 0 5.58 3.27 5.58 8.37V78.4h-4.67V65.13c0-2.61-.75-3.92-2.49-3.92-2.07 0-3.16 2.12-3.16 4.45V78.4h-4.67V65.13c0-2.61-.76-3.92-2.49-3.92-2.07 0-3.17 2.12-3.17 4.45V78.4h-4.67V60.8z"/><path id="XMLID_863_" class="st0" d="M238.86 77.38c-.98.45-3.01 1.35-5.8 1.35-6.26 0-8.97-4.86-8.97-10.53 0-6.29 3.05-11.15 7.99-11.15 4.18 0 7.76 2.65 7.76 11.23v.98h-11.23c0 3.59 1.32 5.76 4.93 5.76 2.87 0 4.23-.94 5.09-1.63l.23 3.99zm-3.54-11.31c0-3.72-1.13-5.59-3.24-5.59-2.45 0-3.46 2.82-3.46 5.59h6.7z"/><path id="XMLID_862_" class="st0" d="M243.35 60.85c0-1.31-.04-2.53-.15-3.47h4.22c.04 1.27.15 2.57.15 3.84h.08c.57-1.63 2.04-4.17 4.94-4.17.3 0 .53.08.79.12v4.74c-.41-.12-.82-.2-1.31-.2-1.93 0-4.04 1.27-4.04 5.18V78.4h-4.67V60.85z"/><path id="XMLID_859_" class="st0" d="M256.58 48.43h4.82v4.98h-4.82v-4.98zm.07 8.94h4.68V78.4h-4.68V57.37z"/><path id="XMLID_858_" class="st0" d="M278.92 77.87c-1.1.45-2.71.86-4.59.86-6.41 0-9.13-4.86-9.13-10.82 0-6 2.87-10.86 9.39-10.86 1.47 0 3.2.49 4.07.86l-.26 4c-.83-.45-2-1.02-3.28-1.02-3.54 0-5.09 2.57-5.09 7.06 0 3.92 1.73 6.94 5.31 6.94 1.13 0 2.68-.57 3.32-1.02l.26 4z"/><path id="XMLID_855_" class="st0" d="M282.46 58.6c1.32-.65 3.16-1.55 6.15-1.55 6.03 0 7.42 3.19 7.42 8.45v9.19c0 1.51.15 2.9.26 3.72h-4.22c-.23-.82-.26-1.84-.26-2.86h-.08c-1.17 1.72-2.64 3.19-5.43 3.19-3.02 0-5.8-2.25-5.8-6.16 0-5.72 4.3-7.15 10.21-7.15h.94v-.78c0-2.08-.94-4-3.62-4-2.34 0-4.41 1.22-5.32 2.04l-.25-4.09zm9.2 9.51h-.41c-4 0-6.37.9-6.37 3.96 0 1.92 1.17 3.22 2.98 3.22 2.79 0 3.81-2.24 3.81-6v-1.18z"/><path id="XMLID_854_" class="st0" d="M300.1 60.85c0-1.31-.04-2.53-.15-3.47h4.37c.04 1.06.15 2.16.15 3.23h.12-.04c.68-1.27 2-3.55 5.16-3.55 4.41 0 5.74 3.55 5.74 7.8V78.4h-4.68V65.79c0-3.23-.75-4.57-2.67-4.57-2.45 0-3.32 2.25-3.32 4.94V78.4h-4.67V60.85z"/><path id="XMLID_851_" class="st0" d="M320.33 58.6c1.32-.65 3.17-1.55 6.15-1.55 6.03 0 7.42 3.19 7.42 8.45v9.19c0 1.51.15 2.9.27 3.72h-4.22c-.23-.82-.27-1.84-.27-2.86h-.08c-1.17 1.72-2.63 3.19-5.43 3.19-3.01 0-5.8-2.25-5.8-6.16 0-5.72 4.3-7.15 10.21-7.15h.94v-.78c0-2.08-.94-4-3.61-4-2.34 0-4.41 1.22-5.32 2.04l-.26-4.09zm9.2 9.51h-.41c-3.99 0-6.37.9-6.37 3.96 0 1.92 1.17 3.22 2.98 3.22 2.79 0 3.81-2.24 3.81-6v-1.18z"/><path id="XMLID_848_" class="st0" d="M137.82 83.6v27.03c0 1.51.04 2.82.15 3.59h-4.37c-.07-.61-.15-1.84-.15-3.27h-.12c-.75 1.8-2.15 3.59-5.16 3.59-4.82 0-6.82-4.98-6.82-10.82 0-6.86 2.52-10.86 6.71-10.86 2.79 0 4.34 1.71 5.01 3.35h.07V83.6h4.68zm-8.36 27.23c2.75 0 3.69-3.23 3.69-7.19 0-4.08-1.05-7.07-3.61-7.07-2.6 0-3.51 2.74-3.51 6.94 0 4.87.71 7.32 3.43 7.32"/><path id="XMLID_845_" class="st0" d="M156.1 113.2c-.98.45-3.02 1.35-5.8 1.35-6.26 0-8.97-4.86-8.97-10.53 0-6.29 3.05-11.15 7.99-11.15 4.18 0 7.76 2.65 7.76 11.23v.98h-11.23c0 3.59 1.32 5.76 4.94 5.76 2.87 0 4.22-.94 5.09-1.63l.22 3.99zm-3.54-11.31c0-3.72-1.13-5.59-3.24-5.59-2.45 0-3.47 2.82-3.47 5.59h6.71z"/><path id="XMLID_844_" class="st0" d="M170.42 83.6h4.67v30.62h-4.67z"/><path id="XMLID_841_" class="st0" d="M180.44 94.41c1.32-.65 3.17-1.55 6.15-1.55 6.03 0 7.42 3.19 7.42 8.45v9.19c0 1.51.15 2.9.27 3.72h-4.22c-.22-.82-.26-1.84-.26-2.86h-.08c-1.17 1.72-2.64 3.19-5.43 3.19-3.01 0-5.8-2.25-5.8-6.16 0-5.72 4.3-7.15 10.21-7.15h.94v-.78c0-2.08-.94-4-3.61-4-2.34 0-4.41 1.22-5.32 2.04l-.27-4.09zm9.2 9.52h-.41c-4 0-6.37.9-6.37 3.96 0 1.92 1.17 3.22 2.98 3.22 2.79 0 3.81-2.24 3.81-6v-1.18z"/><path id="XMLID_840_" class="st0" d="M207.96 108.7c.94.65 3.02 1.76 5.58 1.76 2.11 0 3.99-1.27 3.99-4.12 0-2.04-1.09-2.94-3.43-4.33l-2.45-1.47c-2.6-1.55-4.3-3.8-4.3-7.47 0-5.1 3.89-7.76 8.29-7.76 2.79 0 4.75.78 5.5 1.02l-.23 4.37c-1.17-.49-2.71-1.23-4.93-1.23-2.41 0-3.66 1.39-3.66 3.35 0 2.12 1.32 2.94 2.79 3.84l2.82 1.71c3.09 1.88 4.56 3.68 4.56 7.68 0 5.8-3.81 8.57-8.82 8.57-2.63 0-4.67-.41-5.99-1.26l.28-4.66z"/><path id="XMLID_837_" class="st0" d="M227.13 94.41c1.32-.65 3.17-1.55 6.15-1.55 6.03 0 7.42 3.19 7.42 8.45v9.19c0 1.51.15 2.9.27 3.72h-4.22c-.23-.82-.27-1.84-.27-2.86h-.08c-1.17 1.72-2.63 3.19-5.43 3.19-3.01 0-5.8-2.25-5.8-6.16 0-5.72 4.3-7.15 10.21-7.15h.94v-.78c0-2.08-.94-4-3.61-4-2.34 0-4.41 1.22-5.32 2.04l-.26-4.09zm9.2 9.52h-.41c-3.99 0-6.37.9-6.37 3.96 0 1.92 1.17 3.22 2.98 3.22 2.79 0 3.81-2.24 3.81-6v-1.18z"/><path id="XMLID_836_" class="st0" d="M245.23 83.6h4.67v30.62h-4.67z"/><path id="XMLID_835_" class="st0" d="M269.65 110.75c0 1.31.04 2.53.15 3.47h-4.37c-.04-1.06-.15-2.16-.15-3.23l-.12-.04.04.04c-.9 1.55-2.11 3.55-5.16 3.55-4.41 0-5.74-3.55-5.74-7.8V93.19h4.68v12.61c0 3.23.82 4.57 2.79 4.57 2.49 0 3.2-2.45 3.2-5.14V93.19h4.67v17.56z"/><path id="XMLID_832_" class="st0" d="M289.54 83.6v27.03c0 1.51.04 2.82.15 3.59h-4.37c-.08-.61-.15-1.84-.15-3.27h-.11c-.76 1.8-2.15 3.59-5.17 3.59-4.83 0-6.82-4.98-6.82-10.82 0-6.86 2.53-10.86 6.71-10.86 2.79 0 4.34 1.71 5.01 3.35h.08V83.6h4.67zm-8.36 27.23c2.75 0 3.69-3.23 3.69-7.19 0-4.08-1.06-7.07-3.61-7.07-2.6 0-3.51 2.74-3.51 6.94 0 4.87.72 7.32 3.43 7.32"/></g></svg>