<svg version="1.1" id="Layer_1" xmlns="http://www.w3.org/2000/svg" x="0px" y="0px" width="286px" height="128px" viewBox="0 0 286 128" xml:space="preserve"><style type="text/css">.st0{fill:#0490C7;} .st1{fill:#F8991D;} .st2{fill:#FFFFFF;}</style><g id="XMLID_129_"><path id="XMLID_1330_" class="st0" d="M124.08 65.91c-.26-.13-.45.09-.45.09l-.36.28s-.11.14-.02.22c.08.07.28-.09.28-.09l.34-.21.24-.1c.01-.01.23-.09-.03-.19zm9.34-4.67c-.01.62-.1 1.23-.21 1.83.09.2.47.46.51.69.03.22-.37.51-.5.3-.07-.1-.13-.15-.19-.17-.56 2.18-1.66 4.16-3.17 5.75l1.08 1.08c.04-.1.04-.21.04-.32-.07-.38.05-.49.13-.49s.57.01.71.47c.05.16.08-.01.17.29-.06.15.06.47.06.47s.07.12.11.27c.02.08-.01.17-.04.32 2.63-2.78 4.27-6.45 4.43-10.5h-3.13v.01zm-4.01 12.83c.63-.44 1.23-.9 1.79-1.42l-.1-.1c-.12.02-.23.01-.29-.06-.07-.09-.11-.21-.15-.37l-1.64-1.62c-.15.19-.34.34-.34.34l-.01.41c1.03.49 1.27.93 1.26 1.14-.03.22-.74.84-.74 1.02 0 .19.27.34.26.54-.01.05-.03.09-.04.12zm-8.79.06v2.81c.85-.03 1.68-.13 2.48-.28-.46-.38-.65-.38-.76-.44-.16-.11-.32-.38-.49-.83-.17-.45.32-.48.2-.8-.12-.33-1.14-.21-1.14-.21s.15.19-.29-.25zm-1.19-.24c-3.14-.14-6-1.31-8.22-3.22.11.13.24.24.38.36.61.55.7.86.65 1.15-.04.3-1.42.26-1.42.26l-.02.02c-.47.23-1.2.37-1.49.33-.17-.03-.25-.14-.36-.24l-.13.13c2.81 2.54 6.51 4.12 10.6 4.25v-3.04h.01zm-12.77-11.5c-.05-.38-.1-.75-.11-1.14h-3.12c.06 1.52.32 2.99.78 4.38.01 0 .02-.01.03-.02.12-.07.02-.14.06-.3.06-.16.2.02.26-.1.05-.12-.06-.17-.06-.29 0-.11.16-.15.17-.26.03-.11-.06.07-.1-.19-.03-.27.14-.56.14-.6 0-.02.11-.25.25-.53.14-.29.66-.43.84-.63.04-.04.15-.37.48-.43.15-.01.27.03.38.11zm-.11-2.34c.14-3.26 1.47-6.22 3.58-8.45l-2.18-2.18c-2.69 2.79-4.38 6.52-4.52 10.63h3.12zm4.44-9.29c2.26-2.01 5.2-3.26 8.44-3.39v-3.06c-4.1.13-7.81 1.72-10.62 4.26l2.18 2.19zm9.63-3.39c2.51.12 4.84.91 6.81 2.2-.11-.16-.19-.36-.21-.41-.06-.11.16-.18.16-.18-.35-.48-.43-.7-.3-.8.12-.1.47.19.67.49.18.31.44.61.59.64.16.02.49.02.57.32.08.29.19.35.28.76.02.07.03.12.06.19l.91-.91c-.09-.19-.23-.43-.5-.56l-.66.22s-.24.11-.32-.04c-.08-.16-.08-.48-.08-.48s-.26-.16-.26-.29c0-.14.14-.56.03-.72-.09-.16-.29-.29-.29-.29s-.11-.53-.21-.77c-.09-.23-.63-.69-.63-.69s-.01-.05-.01-.1c-2.01-.98-4.24-1.54-6.61-1.63v3.05zm9.32 4.32c.08.1.16.18.25.28.23.28.47.56.68.85.11.15.22.3.33.46.09-.03.2-.14.31-.18.21-.13.32 0 .38.26.08.25-.38.23-.23.47.06.08.42-.02.47 0 .04.04.1.21-.03.36-.1.1-.2.15-.21.24l.13.23c.17.08.48-.07.48.2 0 .32.24.54.29.82.02.18-.06.29-.14.43.13.33.23.67.32 1.02.09-.07.2-.1.3-.08v.06s.04.32.02.45c-.02.1-.05.36-.07.53.02.17.06.32.07.48.06.19.1.44.13.68h-.03c.03.26.04.52.04.79h3.13c-.09-2.08-.53-4.04-1.32-5.85-.06-.01-.11-.02-.17-.02 0 0-.25.19-.45.19-.19 0-.29-.26-.29-.26s-.87-1.16-1.01-1.25c0 0-.15-.16-.5-.2-.36-.03-.3-.2-.3-.2s-.41-.19-.73-.3l-.26-.51s.02-.17-.02-.24c-.03-.06-.63-.07-.63-.07s-.26-.14-.4-.28l-.51.53c-.01.04-.01.07-.03.11zm12.21 8.94c0 12.07-9.92 21.84-22.15 21.84-12.24 0-22.18-9.77-22.18-21.84 0-12.08 9.94-21.87 22.18-21.87 12.23.01 22.15 9.79 22.15 21.87zm-22.11-3.7H120c-.28 0-.55.03-.81.09.06.03.14.06.09.18-.07.17.14.65.14.65-.3.56-1.38.74-1.38.74-.18.14-.1.37-.33.5-.24.14-.33.23-.46.4-.11.17-.08.33-.15.53-.07.21.1.32.04.46-.06.12-.12.57-.21.69-.09.11-.27-.05-.39-.09-.12-.03-.19-.63-.26-.71-.02-.03-.03-.03-.05 0-.01.08-.01.17-.01.26 0 .26.02.51.07.75.16-.06.13-.1.17-.11.37-.03.14.24.29.24.18 0 .29-.07.31-.41.01-.35.31-.37.43-.35.1.01.01.25.06.33.05.06.18 0 .18.21s-.38.45-.44.77-.15.38-.28.41c-.2.03-.15-.36-.27-.18-.07.14.25.52.25.52.21-.18.29-.33.35-.48.07-.15.23-.14.4-.24.17-.1.18-.61.17-.73-.02-.13.19-.09 1.01-.13.86-.05.78.22.73.44-.05.25.11-.04.11.21 0 .26-.31.49-.41.71-.07.22.14.25.02.34-.09.11-.16.24-.16.24-.43.51-.47.2-.74.31-.28.12-.58.07-.58.07-.06.01-.11.03-.17.05.63.46 1.39.72 2.24.72.19 0 .37-.02.55-.04.09-.42.24-1.12.57-1.29.36-.21.73.09.93.01.19-.08.25-.26.29-.38.05-.12.17-.46.09-.69-.09-.24-.26-.14-.3-.31-.06-.17.3-.18.12-.4-.28-.37-.22-.63-.32-.71-.11-.07-.18.03-.29-.14-.12-.15.05-.27.07-.43.01-.19.28-.21.25-.35-.03-.15-.19-.02-.22-.22-.02-.17.12-.46.12-.46s-.44.02-.49-.13c-.04-.17-.32-.54-.63-.7-.31-.15-.8-.04-.8-.04-.07-.25-.43-.5-.43-.5-.29-.38-.12-.33.04-.51.16-.15.46.03.51-.02.05-.03.04-.06.02-.08zm12.87-8.33c.7.73 1.34 1.52 1.9 2.37.16.14.43.41.48.61.02.09.02.15.04.2.05.08.11.17.15.26.01.01.05.04.06.06.25.26.31.39.47.71.07.15.1.29.11.43.98 2.08 1.56 4.38 1.64 6.81h3.19c-.14-5.3-2.32-10.1-5.78-13.68l-2.26 2.23zm-11.83-5.47c2.61.17 5.07.88 7.26 2.03l.62-.26s-.2-.04.09.02c.3.06.2.03.55.14.36.11.38 0 .53.06.14.06.18.3.36.44.18.13.14.02.38.13.24.12.53.48.62.64.07.16.22-.08.35.74 0 0 .28.29.44.48l2.01-2.03c-3.59-3.31-8.37-5.37-13.66-5.54v2.58c.03-.02.09-.02.15.02.22.14.32.12.3.36-.01.05 0 .12 0 .19zm-13.12 4.6c3.04-2.76 7.04-4.49 11.47-4.63v-3.12c-5.29.13-10.09 2.21-13.7 5.52l2.23 2.23zm-5.73 12.32c.15-4.45 1.98-8.47 4.87-11.48l-2.24-2.24c-3.48 3.59-5.68 8.4-5.82 13.72h3.19zm4.88 12.66c-.37-.4-.74-.81-1.08-1.25-.31-.12-.3-.2-.62-.46-.36-.29-.15-.57-.29-.64-.08-.02-.08.14-.11.17-.04.06-.21.08-.41.01-.2-.07-.4-.35-.4-.35-.34-.26-.3-.59-.36-.69-.07-.1-.29 0-.4-.03-.12-.04-.12-.23-.25-.31-.11-.06-.3-.02-.3-.02-.07-.13-.4-.59-.46-.63 0 0 0 .31-.26.31-.28 0-.64-.59-.77-.66-.11-.06-.18.14-.35.02-.16-.13-.33-.71-.34-.82-.02-.1-.14-.24-.2-.42-.07-.17.03-1.05.07-1.16.09-.22.17.02.24-.33.06-.33.27-.32.42-.33.15-.02.21.04.28.16.07.12.28.02.39-.03.1-.05 0-.19.01-.28.01-.09.24-.05.4-.13.16-.09.39-.13.44.01l.02.05c-.3-1.19-.49-2.41-.53-3.68h-3.19c.15 5.31 2.34 10.12 5.84 13.69l2.21-2.2zm12.32 5.43c-4.41-.13-8.42-1.85-11.45-4.6l-2.24 2.24c3.61 3.3 8.4 5.37 13.69 5.5v-3.14zm12.61-4.64a17 17 0 0 1-3.23 2.35c-.02.03-.03.07-.04.1-.23.61-.72 1.12-.84 1.33-.12.2-.18.07-.44.27s-.11.37-.4.48c-.31.11-.51.2-.51.2s-.87.91-1.74-.06c-.16-.12-.43-.16-.61-.35l-.11-.14c-1.13.26-2.3.42-3.5.46v3.14c5.28-.16 10.06-2.23 13.66-5.53l-2.24-2.25zm5.71-12.26c-.15 4.42-1.97 8.42-4.85 11.44l2.24 2.22c3.46-3.56 5.65-8.36 5.8-13.65h-3.19v-.01zm-7.34-1.19h1.82c-.02-.5-.07-.99-.17-1.48-.08.14-.14.27-.26.41-.18.21-.39.08-.6.19-.21.09-.06.29-.08.43-.04.13.17.09.09.28-.08.2-.29.08-.41.08-.09-.01-.24-.11-.39.09zm-3.6-5.36c.16.17.3.35.45.52.04-.04.14-.06.37-.01.37.07.93.16 1.2.19.35.05.46.7.65.78.2.08.16.16.17.34.03.19-.15.14-.12.26.03.15.15.28.29.15.13-.15.37-.33.74-.27.6.1.39.46.63.52.23.08.15.13.23.22.08.11-.03.25-.17.29-.13.05-.13.15-.13.25 0 .11-.14.23-.15.33-.02.08-.13.37 0 .37.12 0 .22.11.33-.02.09-.13.57-.59.56-.85v-.06a9.97 9.97 0 0 0-.47-1.43.7.7 0 0 0-.19-.26c-.21-.17-.99-.56-1.14-.76-.13-.2.04-.25.18-.38.1-.1.22-.33.17-.55-.07-.11-.15-.22-.22-.33-.15-.2-.42-.55-.74-.99-.15-.18-.29-.33-.44-.51l-2.2 2.2zm-6.19-3.02c2.04.14 3.9.94 5.35 2.19l2.2-2.2a12.26 12.26 0 0 0-7.55-3.08v3.09zm-6.57 2.14a9.054 9.054 0 0 1 5.37-2.15v-3.1c-2.91.13-5.55 1.26-7.59 3.04l2.22 2.21zm-1.51 1.64c.21-.28.42-.54.65-.78l-2.21-2.22c-1.89 2.02-3.09 4.66-3.22 7.6h1.35c-.05-.05-.17-.26-.13-.41.04-.15-.08-.69-.05-.79.04-.08.16-.19.24-.28.06-.11 0-.26.04-.33.04-.08.17-.22.28-.35.09-.11.07-.43.36-.56.28-.14.35.02.54-.02.21-.03.19-.3.19-.3s-.07-.09.05-.28c.12-.2.84-.38.84-.38s-.02-.19.43-.54c.29-.21.52-.32.64-.36zm-1.63 4.6c0-.14.01-.26.02-.4a.899.899 0 0 0-.36-.08c-.32 0-.61.19-.59.47h.93v.01zm-2.14 1.19h-1.02c.03.77.15 1.49.31 2.21.17-.08.16-.17.16-.28.02-.12.18-.1.23-.19.05-.1.04-.1-.02-.16-.04-.06-.21-.18-.25-.35-.03-.19.1-.34.17-.54.07-.21-.01-.28.09-.46.11-.18.05-.01.33-.23zm4.43 5.39a8.94 8.94 0 0 1-2.12-4.12c-.02-.01-.04-.03-.06-.07-.14-.22-.34-.15-.34-.15s-.1.67-.1.71c0 .03-.05.37-.21.36-.15-.02-.22-.18-.22-.18s-.24.01-.27-.07c-.04-.09-.25-.29-.03-.47.21-.2.19.18.34-.03.15-.2-.19-1.05.06-1.08.17-.01.43.39.49.41.04 0 .12-.02.2-.06-.01-.2-.05-.41-.05-.62h-1.36c-.06.14-.02.64-.15.73-.13.08-.63-.09-.68.22-.08.46.17.26.17.58 0 .32-.15.12-.06.42.11.31.59.41.67.77.09.37.23.53.27.62.04.08-.21.27-.05.52.15.25.3.67.26.81-.04.13-.04.54.12 1.19.15.65.16.22.39.65.11.22.14.45.13.64.11.15.24.28.37.42l2.23-2.2zm4.74 2.76c-1.46-.33-2.78-1-3.87-1.94l-2.21 2.22c1.69 1.48 3.8 2.51 6.14 2.87-.36-.21-.62-.34-.64-.36-.03-.09-.14-.29-.48-.7-.33-.41-.26-.7-.26-.7.23-.08.3-.21.3-.21s.14-.62.45-.87c.15-.12.35-.22.57-.31zm7.06-1.26c-.13.08-.26.18-.41.26.02 0 .02 0 .04.02.25.08 1.2.2 1.48.44.27.25.78.32.78.32.35-.04.57-.05.73-.07l-.4-.4c-.25-.07-.48-.18-.51-.2-.41-.19-.31.09-.68-.11-.25-.15-.74-.22-1.03-.26zm6.92-4.76c.16-.69.27-1.4.3-2.13h-1.85c.13.13.28.22.36.31.19.18.12.41.16.59.03.19.19.17.5.45.31.3.27.55.4.72.04.05.08.06.13.06zm-4.71 2.74c-.08.1-.15.18-.21.26.01-.01.04-.02.05-.04.18-.11.29.09.42-.09.11-.19.11-.33.21-.5.11-.17.43-.18.64-.17.2.01.19-.06.31.29.11.36.08.68.08.68.1.08-.18.36-.2.95-.02.32-.17.11-.16.51l-.06.06.22.22c.02-.03.05-.07.07-.14.14-.3.33-.46.42-.31.07.1.15.42.22.75 1.12-1.24 1.96-2.73 2.48-4.37l-.09.03c-.12 0-.53.1-.92.15-.37.05-.72.03-.72.03s-.21-.19-.29-.07c-.1.13-.16.5-.49.41-.31-.07-.15-.41-.25-.44-.11-.04.02.14-.11.33-.12.17-.45.64-.49.74-.06.1-.69.13-.79.29-.06.12-.18.33-.34.43zm-2.65-1.79l.89.89c.03-.18-.12-.53-.12-.53l-.41-.19-.16-.11.09-.19-.11-.04-.18.17zm-.54 3c.14-.07.26-.16.39-.24-.13-.02-.29.03-.34.16-.02.04-.03.07-.05.08zm-9.1-.72c1.1.92 2.45 1.53 3.94 1.73.02.05.02.1.02.16 0 0 .1.08.24.1.17.02.41 0 .59-.2.21-.21.17-.06.32-.1 0 0 .15-.24.29-.44.15-.08.22-.28.28-.3l.01.84c1.06-.08 2.07-.36 2.96-.82-.17-.02-.39-.28-.44-.28-.11-.03.08.31.1.39.02.09-.47.24-.51.18-.16-.26-.4-.3-.41-.25-.04.42-.22.31-.22.31-.42-.6-.55-.22-.76-.43-.2-.22-.3-.14-.3-.14-.16-.02-.27.15-.42.2-.07.02-.14.23-.29.31-.15.2-.29.44-.29.44-.15.03-.11-.12-.32.1-.19.2-.43.22-.59.2-.15-.02-.24-.09-.24-.09-.01-.06-.01-.11-.02-.16 0-.13-.02-.22-.01-.31.01-.58.1-.74.13-.78.07-.11.27-.06.45-.05v-.71l-.02-.1c-.02-.06 0-.09.02-.11v-.78c-.92-.1-1.75-.45-2.44-.96l-2.07 2.05zm.21-5.01c-.02-.08-.03-.15-.04-.23-.09.1-.38.06-.33.19 0 .05.16.05.37.04zm-2.79 1c.31 1.18.9 2.28 1.72 3.18l2.07-2.07c-.09-.11-.17-.22-.25-.33 0 0-.01 0-.01.01-.19.09-.06.33-.16.42-.1.08-.2.21-.26.34-.05.13-.38.45-.56.29-.15-.17-.03-.95-.27-.96-.11-.02-.05.06 0 .36.06.31-.16.17-.25.12-.11-.06-.18-.12-.42-.33-.26-.23-.07-.37-.07-.37s-.22-.17-.28-.16c-.06.02-.03.16-.2.1-.17-.08-.17-.38-.17-.38s-.17 0-.6-.12a.834.834 0 0 0-.29-.1zm7.09-9.73a8.1 8.1 0 0 0-4.53 1.8l1.19 1.2c.22.02.18.2.42.26.24.07.21-.04.4-.07.19-.01.07.11.14.21.07.09.2-.07.2-.07.19-.12.15.08.37-.03.25-.09.1-.24.22-.39.11-.14.09-.23.09-.4s.22-.34.3-.46c.09-.11.19-.11.28.03.09.14-.11.22-.06.33.04.08.4-.04.97-.13v-2.28h.01zm5.49 1.69a7.87 7.87 0 0 0-4.3-1.69v2.28c.48.08.83.23.83.23s.08-.02.08-.03c.27-.5.63-.43.73-.5.1-.07.07-.17.21-.31.14-.15.35.03.39.15.05.11.06.62-.24 1.05-.16.22-.38.33-.59.41.37.17.71.37 1.02.61l.22-.22c.02-.06.04-.11.04-.11s.1-.05.24-.16l.99-1c-.02 0-.05-.02-.09-.04-.11-.09-.42-.13.17-.52.1-.05.21-.11.3-.15zm1.25 1.22c-.06-.08-.12-.15-.2-.23l-.22.21c.12.14.33.37.28.27-.06-.09.06-.07.14-.25zm3.73-11.5c.14-.11.18.04.34.08.16.03.16-.11.39 0 .24.1.3.27.31.43.04.16.14.3.17.41.03.13-.26.29-.44.19-.18-.1-.38-.42-.38-.42l-.48-.36c.02.01-.05-.21.09-.33zm-8.97-1.98s.12-.18.24-.13c.11.05.39.06.39.06l.7-.26.56-.24.21-.12s.8-.15 1.57.47c.09.07.16.14.21.17l-.21-.22s.6.53.21.22l-.07.2s-.49.3-.67.34c-.19.04-.49-.04-.49-.04l-.41-.06-.89.24s-.57.06-.89-.19c-.32-.24-.43-.3-.43-.3l-.03-.14zm9.26 9.68c.11.13.48.59.63.75.03.03.05.09.05.1-.21-.29-.45-.57-.68-.85z"/><path id="XMLID_1298_" class="st0" d="M131.39 83.72c.12.02 1.72-.31 4.22-.57 2.51-.27 3.51-.15 5.31-.62 2-.51 3.01-1.56 3.53-2.14 0 0 .13-.06.08.07-.03.11-1.27 2.49-4.15 3.93-2.89 1.44-5.94 1.09-6.7.93-.76-.15-1.84-.49-2.96-.79-1.13-.3-2.58-.6-3.27-.56 0 0-.09-.15.14-.2.37-.06 1.78-.36 2.68-.77 1.57-.7 2.89-2.27 3.94-3.25 1.04-.98 2.77-2.74 3.77-3.18 0 0 .09.01 0 .11-.08.11-.82 1.13-1.22 2.12-.38.97-.89 2-1.62 2.84-.75.82-1.77 1.55-3.76 1.99.01.01-.12.09.01.09zm17.82-10.93c-.02 0-.33 2.97-3.2 5.55-2.15 1.96-3.98 2.69-5 2.95-.98.24-2.1.36-3.02.56-.93.17-2.31.54-2.57.68 0 0-.11.04-.05-.05.07-.1.43-.24 1.44-1.57 1.01-1.36 1.87-4.4 1.87-4.4s.5-1.57 1.03-2.66c.52-1.07 2.19-3.43 2.51-3.68 0 0 .15-.09.15.02-.02.1-.39.74-.6 1.77-.38 1.71-.46 3.48-.67 4.15-.22.69-.58 1.93-1.42 2.98-.96 1.18-.96 1.04-1.71 1.73-.16.1.02.08.02.08s.77-.45 1.33-.86c.55-.44 1.19-.99 2.25-1.63 1.06-.63 2.19-.93 4.27-2.14 2.08-1.21 2.85-2.57 3.26-3.47-.01-.01.09-.2.11-.01zm-4.88-8.86s-.14.93-.04 1.61c.11.68.84 3.47.82 4.99-.04 1.51-.41 2.82-1.34 4.17l.07.04s1.59-2.24 2.34-3.23c.77-.97 2.36-2.46 3.13-3.31.79-.88 1.46-2.12 1.74-3.81h.05s.42 2.55-.63 4.96c-1.06 2.42-2.18 3.3-2.93 4-.77.72-3.02 2.22-4.14 2.86-1.1.64-1.96 1.35-1.96 1.35s-.09-.03-.09-.06c0-.05.86-1.65 1.11-2.63.22-.99.42-2.61.49-3.85.07-1.24.44-5.71 1.27-7.1l.11.01zm-.4-6.98c-.03-.09-.15-.19-.17.01-.02.2-.02 2.19.58 4.65.41 1.62 1.43 5.04 1.57 5.52.23.8.18 2.64-.02 3.31 0 0 .02.19.12.08.09-.11 1.09-1.78 1.65-2.4.57-.63 1.93-2.31 2.32-3.2.37-.88 1.23-2.8 1.09-5.56-.11-2.49-.84-3.98-.84-3.98s-.1-.07-.07.03c.02.09.17 1.22.03 2.23-.15 1.01-.37 1.67-.95 2.92-.59 1.23-1.14 2.68-1.31 3.17-.15.5-.36 1.64-.46 2.45-.12.81-.48 1.41-.48 1.41l-.08-.06s.33-.65.42-2.1c.08-1.47-.52-3.01-.94-3.72-.67-1.15-2.4-3.64-2.46-4.76zm2.94-9.5c-.1-.12-.06.05-.06.05s.85 1.21.81 3.3c-.03 2.09-.33 2.19-.38 4.05-.04 1.85.23 4.12.23 4.12h-.1s-.05-1.17-.66-2.54c-.71-1.55-3.65-3.9-3.65-3.9s-1-.95-1.1-1.49c-.09-.12-.15-.02-.15-.02s.24 1.5 1.07 3.36c.82 1.86 2.73 3.71 3.3 4.81.56 1.08.89 1.21 1.3 3.29l.1.03s.02-.91.67-2.83c.66-1.93.8-1.75 1.15-3.51.36-1.78.1-3.57-.02-3.93-.1-.38-.74-2.91-2.51-4.79zm-.37 7.54s-.36-.77-1.08-1.55c-.37-.38-.97-1.05-1.75-1.67-.78-.62-1.67-1.18-2.22-1.69-1.14-1.05-2.37-2.97-2.33-4.7 0 0 .55 1.04 1.29 1.77s2.56 1.74 3.31 2.42c.75.68 1.55 1.59 1.87 2.68h.14s-.82-2.12-1-2.91c-.2-.79-.37-2.1-.84-3.38-.45-1.21-1.01-1.82-1.82-2.35-.04 0 .07-.07.07-.07s3.13.47 4.32 4.6c.34 1.2-.02 3.95.05 5.05.08 1.09.11 1.79.11 1.79h-.12v.01zM136 40.66s.96.33 2.04.74 2.3 1.01 3.18 1.98c1.47 1.59 1.83 3.03 2.18 4.23.11.43.38 1.05.43 1.04.05-.02-.04.1-.04.1s-2.75-2.18-3.55-3.1c-.79-.91-1.78-2.57-2.49-3.27-.73-.71-1.75-1.72-1.75-1.72zm-35.2 45.13s2.66 3.1 6.7 3.11c3.17.02 5.37-1.74 5.37-1.74s2.32-1.65 3.51-2.24c.99-.5 2.48-.1 2.48-.1s-1.65.61-3.25 1.77c-1.63 1.18-2.18 1.57-3.77 3.19l1.36 1.15s.99-1.39 2.88-3.02c1.87-1.62 2.96-2.21 4.13-2.69 0 0 3.81 1.71 6.93 5.67l1.38-1.16s-3.13-3.22-7-4.88c0 0 .37-.22 2.02-.06.73.07 1.39.64 2.2 1.21.81.55 2.33 1.62 3.39 2.06 1.06.44 2.45.73 3.6.77 1.15.02 4.41-.43 6.77-3.2 0 0-.01-.08-.09-.04-1.45.73-2.22 1.28-4.64 1.24-1.29-.04-2.9-.42-4.98-1.36-2.09-.94-3.46-1.56-5.88-1.6-2.41-.01-3.56.4-3.79.49 0 0-1.11-.5-3.3-.52-2.19-.02-4.15.62-5.39 1.23-1.22.59-3.58 1.91-6.3 1.9-2.59-.02-4.21-1.23-4.26-1.24-.03-.03-.07.06-.07.06zm8.13-1.96c-.13.03-1.76-.33-4.25-.6-2.51-.27-3.61-.12-5.43-.58-1.98-.5-2.96-1.51-3.48-2.09 0 0-.13-.06-.1.06.04.12 1.29 2.48 4.16 3.92 2.88 1.44 6.1 1 6.85.84.75-.15 1.83-.48 2.96-.79 1.11-.3 2.58-.59 3.27-.57 0 0 .09-.13-.15-.17-.36-.06-1.34-.1-2.68-.78-2.18-1.12-2.97-2.2-4.03-3.19-1.04-.99-2.82-2.7-3.82-3.15 0 0-.07.01 0 .12.09.11.82 1.1 1.23 2.07.38.99.89 1.96 1.65 2.8.74.82 1.85 1.56 3.83 1.99-.01.03.12.1-.01.12zM90.95 72.99c.01.01.39 2.98 3.24 5.57 2.17 1.95 4.14 2.7 5.18 2.93.99.22 2.09.34 3 .52.92.19 2.22.5 2.49.64 0 0 .09.04.04-.06-.06-.09-.42-.25-1.43-1.6-1.01-1.33-1.93-4.4-1.93-4.4s-.41-1.22-.93-2.3c-.52-1.07-2.37-3.71-2.68-3.94 0 0-.15-.1-.14 0 .01.1.37.69.6 1.74.21 1.03.52 3.48.75 4.16.21.68.59 2 1.44 3.04.96 1.19.96 1.03 1.7 1.73.16.08-.02.06-.02.06s-.85-.46-1.39-.9c-.56-.42-.78-.69-1.84-1.34-1.06-.64-2.53-1.14-4.61-2.37-2.08-1.22-2.95-2.56-3.37-3.47.01-.01-.09-.19-.1-.01zm4.75-8.85s.16.96.06 1.64c-.1.69-.77 3.44-.73 4.94.04 1.51.44 2.83 1.38 4.18l-.08.04s-1.58-2.23-2.35-3.21c-.76-.98-2.4-2.41-3.13-3.33-.72-.91-1.55-2.05-1.82-3.74h-.07s-.36 2.51.69 4.92c1.06 2.4 2.2 3.31 2.95 4.02.76.71 3.04 2.2 4.15 2.83 1.13.65 1.97 1.36 1.97 1.36s.09-.02.09-.06c0-.04-.87-1.65-1.1-2.63-.23-.97-.44-2.6-.5-3.84-.06-1.24-.56-5.73-1.39-7.13l-.12.01zm.37-7.09c.04-.1.15-.2.17.01 0 .21-.14 3.06-.51 4.69-.36 1.63-1.44 5.03-1.56 5.51-.11.48-.17 2.64.01 3.33 0 0-.01.19-.1.07-.1-.11-1.13-1.71-1.7-2.33-.57-.63-1.96-2.34-2.33-3.23-.39-.89-1.32-3.31-1.13-6.06.19-2.75.82-3.43.82-3.43s.11-.06.08.03c-.03.1-.18 1.18-.04 2.18.15 1 .47 2.06 1.12 3.23.66 1.2 1.05 2.44 1.2 2.94.17.48.4 1.51.53 2.32.13.81.46 1.41.46 1.41l.06-.03s-.35-.64-.38-2.13c-.04-1.48.32-2.55.93-3.71.62-1.19 2.31-3.7 2.37-4.8zm-3.11-9.4c.09-.11.16.02.16.02s-.87 1.04-.83 3.15c.04 2.1.39 2.46.44 4.32.04 1.85-.22 4.07-.22 4.07h.11s-.02-1.19.73-2.72c.75-1.53 3.65-3.9 3.65-3.9s.88-.91.98-1.43c.08-.13.14.02.14.02s-.15 1.36-.99 3.21c-.83 1.86-2.59 3.67-3.14 4.76-.56 1.09-1.04 1.48-1.46 3.56l-.1.01s-.06-.97-.72-2.89c-.65-1.93-.83-1.64-1.17-3.42-.35-1.75-.08-3.78.03-4.14.1-.38.62-2.72 2.39-4.62zm.49 7.52s.35-.77 1.09-1.54c.36-.38.98-1.05 1.74-1.67.78-.62 1.67-1.25 2.24-1.77 1.13-1.04 2.19-2.96 2.16-4.69 0 0-.42 1.02-1.17 1.74-.74.74-2.57 1.79-3.32 2.48-.76.69-1.58 1.63-1.9 2.73l-.06-.02s.77-2.16.97-2.95c.19-.79.37-2.1.84-3.38.46-1.22.95-1.78 1.76-2.32.02 0-.01-.09-.01-.09s-3.19.47-4.39 4.6c-.35 1.2.1 4 .02 5.09-.08 1.08-.08 1.77-.08 1.77h.11v.02zm10.25-14.32s-.74.26-1.83.65c-1.06.4-2.36 1.05-3.24 2.01-1.47 1.6-1.84 3.08-2.18 4.29-.19.65-.36 1.12-.36 1.12s2.74-2.18 3.56-3.09c.79-.91 1.74-2.65 2.46-3.34.71-.71 1.59-1.64 1.59-1.64z"/><path id="XMLID_1296_" class="st1" d="M80.36 64.03c0 7.63-6.17 13.8-13.8 13.8-7.62 0-13.81-6.17-13.81-13.8 0-7.63 6.19-13.8 13.81-13.8s13.8 6.17 13.8 13.8z"/><path id="XMLID_1294_" class="st1" d="M80.36 114.2c0 7.62-6.17 13.8-13.8 13.8-7.62 0-13.81-6.18-13.81-13.8 0-7.62 6.19-13.81 13.81-13.81s13.8 6.18 13.8 13.81z"/><path id="XMLID_1292_" class="st1" d="M80.36 13.81c0 7.63-6.17 13.8-13.8 13.8-7.62 0-13.81-6.17-13.81-13.8C52.74 6.19 58.93 0 66.55 0c7.63 0 13.81 6.19 13.81 13.81z"/><path id="XMLID_1290_" class="st1" d="M27.62 64.03c0 7.63-6.18 13.8-13.8 13.8C6.2 77.83 0 71.66 0 64.03c0-7.63 6.2-13.8 13.82-13.8s13.8 6.17 13.8 13.8z"/><path id="XMLID_1288_" class="st1" d="M27.62 114.2c0 7.62-6.17 13.8-13.8 13.8C6.2 128 0 121.82 0 114.2c0-7.62 6.2-13.81 13.82-13.81 7.63 0 13.8 6.18 13.8 13.81z"/><path id="XMLID_1286_" class="st1" d="M27.62 13.81c0 7.63-6.17 13.8-13.8 13.8C6.2 27.61 0 21.44 0 13.81 0 6.19 6.2 0 13.82 0c7.63 0 13.8 6.19 13.8 13.81z"/><path id="XMLID_1284_" class="st1" d="M133.09 114.2c0 7.62-6.18 13.8-13.81 13.8-7.63 0-13.8-6.18-13.8-13.8 0-7.62 6.17-13.81 13.8-13.81 7.63 0 13.81 6.18 13.81 13.81z"/><path id="XMLID_1282_" class="st1" d="M133.09 13.81c0 7.63-6.18 13.8-13.81 13.8-7.63 0-13.8-6.17-13.8-13.8 0-7.62 6.17-13.81 13.8-13.81 7.63 0 13.81 6.19 13.81 13.81z"/><path id="XMLID_1280_" class="st2" d="M285.21 64.04c0 35.33-28.66 63.96-64 63.96-35.36 0-64.01-28.63-64.01-63.96C157.2 28.7 185.85.02 221.21.02c35.34-.01 64 28.68 64 64.02z"/><path id="XMLID_1163_" class="st1" d="M279.72 74.15h-9.75l-2.32 9.79h-8l10.87-40.58h9.31l5.38 20.26C284.98 28.47 256.42 0 221.23 0c-28.18 0-52.08 18.2-60.65 43.47h4.6v28.18c0 4.16 1.81 6.33 5.01 6.33 3.2 0 5-2.18 5-6.33V43.47h8.1V71.6c0 8.95-5.49 13.05-13.1 13.05-4.86 0-8.86-1.67-11.11-5.22 6.9 27.89 32.09 48.58 62.15 48.58 28.42 0 52.51-18.53 60.84-44.18l-2.35-9.68zm-66.8 9.79h-6.55l-12.03-24.65v24.65h-7.42V43.47h7.73l10.86 23.55V43.47h7.41v40.47zM235.9 50.5h-11.28v9.81l8.81-.03v7.22h-8.81v16.44h-8.05V43.47h19.34v7.03h-.01zm11.58 18.97v14.48h-7.98V43.47h9.63c8.57 0 14.11 4.31 14.11 12.84 0 8.63-5.6 13.05-14.54 13.16h-1.22z"/><path id="XMLID_977_" class="st1" d="M248.86 63.02h-1.43V49.91h1.54c4.32 0 6.61 2.19 6.61 6.5 0 4.53-2.35 6.61-6.72 6.61z"/><path id="XMLID_139_" class="st1" d="M271.37 67.66l3.51-14.87 3.49 14.87h-7z"/></g></svg>