<svg version="1.1" id="Layer_1" xmlns="http://www.w3.org/2000/svg" x="0px" y="0px" width="405px" height="128px" viewBox="0 0 405 128" xml:space="preserve"><style type="text/css">.st0{fill:#00AC5D;} .st1{fill:#008DCE;} .st2{fill:#D55A81;} .st3{fill:#646569;} .st4{fill:#8A8A8D;}</style><g id="XMLID_16_"><path id="XMLID_141_" class="st0" d="M37.16 53.64c6.52-.24 11.57-6.85 11.28-14.75-.3-7.91-5.83-14.12-12.35-13.88-6.53.24-11.58 6.85-11.28 14.75.29 7.91 5.82 14.12 12.35 13.88zm-.89-23.75c4.3-.16 7.95 3.94 8.14 9.15.19 5.21-3.13 9.57-7.44 9.73-4.3.16-7.95-3.93-8.15-9.15-.18-5.21 3.14-9.57 7.45-9.73z"/><path id="XMLID_140_" class="st0" d="M68.91 48.17c-1.62.02-3 .32-3.17-1.05-.11-.91.38-1.26.26-1.45-.25-.42-2.6-.13-3.94.15-3.97.85-11.47 1.84-15.35 8.24-4.93 8.15-5.35 15.73-1.9 26.81-1.05-.22-5.41-.84-6.63 1.29C37 67.48 33.6 57.9 26.27 52.11 17.6 45.26 6.7 47.79 4.24 48.27 1.79 48.76-.04 49.4 0 51.22c.03 1.92 1.34 1.68 2.03 2.43 1.12 1.22 1.49 1.89 4.32 1.06 4.76-1.4 14.88-4.71 22.38 10.55 7.37 15.01 2.06 27.42-.36 37.17-.76 3.06-8.65 4.24-8.56 6.71.09 2.47 3.61 4.57 7.41 1.83 3.8-2.75 5.49-2.52 7.1-8.32 1.61-5.79 2.94-15.62 7.31-15.83 5.72-.27 12.17 11.83 13.39 13.09 1.22 1.26 2.84 5.28 9.23 2.64 5-2.06 4.77-7.91-.26-6.07-3.06 1.12-3.44.17-5.62-2.35S46.12 78.09 48.63 65.5c2.02-10.15 7.93-13.97 18.77-14.06 6.22-.06 3.69-3.3 1.51-3.27z"/><path id="XMLID_138_" class="st1" d="M136.48 49.29c-1.74-1.21-4.09-1.45-6.05-1.88-.87-.19-4.91-.64-8.11-.35-7.36.67-17.11 5.72-20.35 15.76-2.37 7.33-.85 12.66 1.13 18.6-3.55-1.34-7.88-1.96-10.57-2.03.82-1.86 8.14-8.28 6.98-17.68-1.42-11.38-16.4-15.85-30.29-16.28-3.13-.09-3.64.07-3.46 1.5.22 1.92 1.64.97 3.51 1.27 1.24.2 2.07 1.1 2 1.8-.14 1.21-1.81 1.2-1.76 1.38.16.58 5.14.11 7.09.15 3.2.07 9.59 3.05 12.03 4.52 5.78 3.5 4.52 10.69 3.07 13.56-.66 1.28-6.14 8.63-9.5 11.93-3.35 3.31-2.28 5.95 1.08 5.76.67-.04 5.9-.29 7.34-1.01 0 0-6.65 9.47-6.56 10.32-8.6-.53-9.17 4.39-5.96 5.79 3.2 1.4 8.9 1.15 10.09-1.79 1.19-2.94 7.33-13.83 7.33-13.83l2.92.81s-.91 15.34.53 18.13c1.08 2.09 7.64 7.78 9.9 5.15 2.26-2.63-2.95-6.88-4.39-7.81-.04-.3.18-11.04-.08-13.33 1.62.83 2.49 1.03 3.64 1.18 5.62 1.87 4.9-3.03 2.62-7.86-2.28-4.83-4.45-12.89-3.38-17.32 3.39-9.72 11.91-13.04 18.73-12.78 5.88.34 6.2.53 7.5.68 5.87.68 4.08-3.57 2.97-4.34z"/><path id="XMLID_135_" class="st1" d="M102.05 52.27c6.18.19 11.38-5.65 11.6-13.05.23-7.39-4.61-13.54-10.79-13.72-6.19-.19-11.37 5.65-11.6 13.05-.23 7.39 4.61 13.53 10.79 13.72zm.67-22.22c4.08.12 7.27 4.17 7.11 9.05-.15 4.88-3.57 8.73-7.65 8.61-4.08-.12-7.26-4.17-7.12-9.05.16-4.88 3.58-8.73 7.66-8.61z"/><path id="XMLID_134_" class="st2" d="M10.95 63.85c0-1.89.09-3.75.27-5.59l-6.45.65c-.12 1.68-.19 3.38-.19 5.09 0 15.01 5.14 28.82 13.76 39.73l5.21-3.85c-7.88-9.85-12.6-22.39-12.6-36.03z"/><path id="XMLID_133_" class="st2" d="M99.89 111.5a56.497 56.497 0 0 1-31.9 9.81c-12.69 0-24.41-4.17-33.88-11.23l-5.08 4.33C39.85 122.92 53.49 128 68.3 128c13.57 0 26.16-4.27 36.49-11.53l-4.9-4.97z"/><path id="XMLID_132_" class="st2" d="M131.78 58.6l-7.2-1.95c.3 2.36.45 4.76.45 7.2 0 14.85-5.6 28.39-14.79 38.59l3.83 6.06c11.1-11.52 17.92-27.21 17.92-44.5.02-1.82-.06-3.62-.21-5.4z"/><path id="XMLID_131_" class="st2" d="M68.3 0C40.21 0 16.36 18.26 7.88 43.62l6.78-.2C22.84 21.77 43.64 6.39 67.99 6.39c24.47 0 45.34 15.52 53.44 37.33l6.75-1.62C119.28 17.54 95.82 0 68.3 0z"/><path id="XMLID_128_" class="st3" d="M157.63 52.93c-.37-1.86-.7-6.07-.7-8.61h1.5c1.28 4.84 4.66 7.38 9.86 7.38 4.02 0 7.5-2.05 7.5-5.72 0-3.13-1.93-5.09-5.04-7.14l-4.61-3.04c-4.4-2.94-8.26-5.97-8.26-10.32 0-6.02 5.37-9.49 11.85-9.49 4.66 0 7.61 1.22 10.62 1.32 0 2.84-.32 6.36-1.02 9.1h-1.55c-.32-5.33-3.27-8.02-7.88-8.02-3.59 0-6.49 2.05-6.49 5.23 0 2.94 2.36 4.79 6.06 7.09l4.03 2.55c6.16 3.92 8.15 6.75 8.15 10.62 0 6.75-6.66 10.27-13.62 10.27-3.97 0-7.83-1.17-10.4-1.22"/><path id="XMLID_127_" class="st3" d="M187.76 53.42V52.2l2.74-.24c2.46-.25 2.84-1.32 2.84-8.76V27c0-7.48-.42-8.51-2.84-8.76l-2.74-.24v-1.27h17.21V18l-2.73.24c-2.47.25-2.85 1.27-2.85 8.76v16.2c0 7.44.38 8.51 2.85 8.76l2.73.24v1.22h-17.21z"/><path id="XMLID_124_" class="st3" d="M210.55 53.42V52.2l2.72-.24c2.47-.2 2.85-1.32 2.85-8.76V27c0-7.39-.42-8.41-2.85-8.61l-2.72-.24v-1.23c4.24-.2 12.17-.29 15.27-.29 9.82 0 14.64 3.72 14.64 9.88 0 7.19-7.24 11.5-15.07 11.5-1.18 0-2.2-.05-3.22-.15v5.33c0 7.44.38 8.56 2.85 8.76l3.16.24v1.23h-17.63zm23.54-26.03c0-4.94-3-8.22-7.66-8.22-1.56 0-3.38.34-4.24.59v15.9c1.01.1 1.99.1 3 .1 6 0 8.9-3.08 8.9-8.37"/><path id="XMLID_123_" class="st3" d="M244.97 53.42V52.2l2.73-.24c2.47-.25 2.85-1.32 2.85-8.76V27c0-7.48-.44-8.51-2.85-8.76l-2.73-.24v-1.27h17.21V18l-2.73.24c-2.47.25-2.84 1.27-2.84 8.76v16.2c0 7.44.37 8.51 2.84 8.76l2.73.24v1.22h-17.21z"/><path id="XMLID_122_" class="st3" d="M276.98 23.92l-.37.1.1 19.18c.05 7.88.59 8.56 3.22 8.76l2.84.24v1.22h-15.54V52.2l2.73-.24c2.68-.2 3.16-1.03 3.21-8.76l.11-20.5c0-2.94-1.6-4.21-4.51-4.5l-1.82-.2v-1.27h9.97c.92 0 2.15.98 3.49 2.3 6.22 6.16 15.66 16.24 22.79 24.17l.32-.1-.22-17.37c-.04-6.41-.69-7.29-3.16-7.48l-2.63-.25v-1.27h14.91V18l-2.36.24c-2.73.25-3.11 1.52-3.11 8.76v26.46c-.53.2-1.66.39-2.35.44-8-9.53-16.41-18.38-27.62-29.98"/><path id="XMLID_121_" class="st3" d="M326.15 23.92l-.36.1.1 19.18c.05 7.88.59 8.56 3.22 8.76l2.84.24v1.22H316.4V52.2l2.74-.24c2.68-.2 3.16-1.03 3.22-8.76l.1-20.5c0-2.94-1.6-4.21-4.5-4.5l-1.83-.2v-1.27h9.97c.91 0 2.14.98 3.49 2.3 6.22 6.16 15.65 16.24 22.78 24.17l.32-.1-.22-17.37c-.05-6.41-.7-7.29-3.16-7.48l-2.63-.25v-1.27h14.91V18l-2.36.24c-2.73.25-3.1 1.52-3.1 8.76v26.46c-.54.2-1.67.39-2.36.44-7.99-9.53-16.41-18.38-27.62-29.98"/><path id="XMLID_118_" class="st3" d="M362.61 53.42v-1.13c3.33-.63 4.51-1.27 6.27-5.03l14.53-30.77c.48-.15.96-.25 1.29-.25 2.41 5.72 12.97 30.28 15.12 33.51 1.29 1.91 2.41 2.21 4.28 2.4v1.27h-17.3V52.2l2.19-.1c2.52-.14 3.33-.64 3.33-2 0-.93-.48-2.45-1.61-5.14l-1.77-4.25c-1.5 0-12.12.1-13.35.1l-1.4 3.13c-.85 1.96-2.08 4.99-2.08 6.07 0 1.42 1.18 1.81 5.2 2.2v1.22h-14.7zm19.95-27.35h-.32c-1.76 3.77-3.91 8.51-5.57 12.23l11.26.1-5.37-12.33z"/><path id="XMLID_117_" class="st4" d="M157.08 78.26c-.09-.5-.17-1.63-.17-2.32h.37c.32 1.31 1.15 2 2.43 2 .99 0 1.84-.55 1.84-1.55 0-.84-.47-1.37-1.24-1.93l-1.13-.82c-1.09-.79-2.03-1.61-2.03-2.79 0-1.63 1.32-2.56 2.92-2.56 1.15 0 1.87.33 2.61.35 0 .77-.08 1.72-.26 2.46h-.38c-.08-1.44-.8-2.16-1.94-2.16-.88 0-1.6.55-1.6 1.41 0 .79.58 1.3 1.49 1.92l1 .69c1.52 1.06 2.01 1.83 2.01 2.87 0 1.82-1.64 2.78-3.36 2.78-.97-.01-1.92-.33-2.56-.35"/><path id="XMLID_116_" class="st4" d="M164.45 78.4v-.3l.61-.05c.53-.06.61-.3.61-1.98v-3.63c0-1.69-.09-1.93-.61-1.98l-.61-.07v-.3h3.83v.3l-.61.07c-.54.06-.62.29-.62 1.98v3.63c0 1.68.08 1.92.62 1.98l.61.05v.3h-3.83z"/><path id="XMLID_115_" class="st4" d="M169.67 78.32c-.08-.42-.15-1.4-.15-1.98h.34c.3 1.11 1.07 1.66 2.13 1.66.95 0 1.62-.5 1.62-1.28 0-.66-.43-1.08-1.07-1.53l-.99-.72c-.95-.69-1.81-1.41-1.81-2.39 0-1.39 1.19-2.21 2.59-2.21 1.02 0 1.69.29 2.32.32 0 .65-.08 1.49-.22 2.12h-.37c-.05-1.22-.69-1.86-1.69-1.86-.77 0-1.36.49-1.36 1.18 0 .63.52 1.07 1.29 1.59l.87.57c1.3.87 1.78 1.57 1.78 2.43 0 1.6-1.52 2.39-3.04 2.39-.86-.02-1.71-.29-2.24-.29"/><path id="XMLID_114_" class="st4" d="M178.04 78.4v-.3l.66-.07c.55-.05.67-.19.67-1.93v-5.3c-.34-.05-.98-.1-1.41-.1-.86 0-1.13.53-1.44 1.7h-.35c.01-.58.13-1.84.22-2.33h7.33c.09.49.21 1.74.22 2.33h-.37c-.32-1.18-.61-1.7-1.42-1.7-.44 0-1.09.05-1.4.1v5.3c0 1.77.08 1.88.67 1.93l.64.07v.3h-4.02z"/><path id="XMLID_113_" class="st4" d="M185.05 78.4v-.3l.61-.05c.51-.06.61-.3.61-1.98v-3.63c0-1.69-.09-1.93-.61-1.98l-.61-.07v-.3h5.77c.03.18.04.34.04.52 0 .54-.08 1.11-.18 1.52h-.33c-.06-.88-.27-1.44-1.28-1.44-.47 0-1.08.1-1.41.15v3.09h.58c1.27 0 1.45-.08 1.61-.75h.3l-.1 2.42h-.31l-.09-.47c-.1-.52-.3-.61-1.45-.61h-.54v1.53c0 1.72.18 1.82.95 1.82h.61c1.02 0 1.41-.51 1.68-1.4h.33c-.01.58-.15 1.4-.31 1.96h-5.87z"/><path id="XMLID_112_" class="st4" d="M192.03 78.4v-.3l.58-.05c.53-.06.67-.3.77-1.15l.61-5.77c-.28-.44-.51-.65-.81-.69l-.49-.05v-.3h2.03c.43 0 1.68 2.31 3.13 6.05h.07c.49-1.12 2.04-4.82 2.33-6.05h2.73v.3l-.52.05c-.43.04-.61.26-.61.71 0 .57.43 5.18.5 5.75.09.77.17 1.11.63 1.15l.61.05v.3h-3.77v-.3l.57-.05c.54-.04.61-.18.61-.62 0-.53-.28-3.48-.47-5.4h-.07c-.75 1.8-1.72 4.08-2.43 6.01a6.8 6.8 0 0 1-.8.07 68.253 68.253 0 0 0-2.57-6h-.07c-.19 1.9-.39 4.78-.39 5.32 0 .52.1.57.69.62l.54.05v.3h-3.4z"/><path id="XMLID_109_" class="st4" d="M209.2 78.09l.49-.01c.55-.03.71-.14.71-.46 0-.21-.12-.58-.34-1.17l-.34-.86c-.8 0-2.21.03-2.9.03l-.26.61c-.18.42-.45 1.12-.45 1.37 0 .32.29.44 1.16.5v.31h-3.25v-.27c.73-.16.99-.33 1.38-1.2l3.16-6.91c.1-.04.19-.06.27-.06.53 1.3 2.81 6.86 3.28 7.58.27.44.53.51.93.54v.31h-3.84v-.31zm-.87-5.76h-.08c-.16.38-1.01 2.29-1.16 2.67l2.39.01c-.2-.43-.95-2.23-1.15-2.68"/><path id="XMLID_108_" class="st4" d="M220.19 70.43l-.09.03.03 5.18c.01 2.13.14 2.31.79 2.36l.7.07v.33h-3.83v-.33l.67-.07c.66-.05.78-.28.79-2.36l.02-5.54c0-.79-.39-1.13-1.11-1.21l-.44-.05v-.34h2.46c.22 0 .53.26.86.62 1.54 1.67 3.86 4.38 5.62 6.53l.08-.03-.05-4.69c-.01-1.73-.18-1.97-.78-2.02l-.65-.06v-.34h3.67v.34l-.58.06c-.67.07-.76.41-.76 2.37v7.14c-.13.05-.41.11-.57.12-1.99-2.59-4.07-4.98-6.83-8.11"/><path id="XMLID_105_" class="st4" d="M234.61 78.09l.49-.01c.54-.03.71-.14.71-.46 0-.21-.12-.58-.35-1.17l-.33-.86c-.8 0-2.21.03-2.9.03l-.27.61c-.18.42-.45 1.12-.45 1.37 0 .32.3.44 1.17.5v.31h-3.25v-.27c.73-.16.98-.33 1.37-1.2l3.16-6.91c.11-.04.2-.06.28-.06.53 1.3 2.8 6.86 3.28 7.58.27.44.53.51.93.54v.31h-3.84v-.31zm-.87-5.76h-.08c-.16.38-1.01 2.29-1.16 2.67l2.39.01c-.2-.43-.94-2.23-1.15-2.68"/><path id="XMLID_104_" class="st4" d="M238.97 74.25c0-2.69 1.93-4.37 4.92-4.37 1.19 0 2.45.33 3.02.33.05.2.07.46.07.73 0 .55-.09 1.39-.16 1.88h-.4c-.01-1.67-.96-2.31-2.5-2.31-2.13 0-3.4 1.49-3.4 3.76 0 2.24 1.44 3.68 3.45 3.68 1.52 0 2.28-.81 2.54-1.83h.34c0 .47-.13 1.38-.36 1.88-.64.36-1.59.61-2.72.61-2.67-.02-4.8-1.42-4.8-4.36"/><path id="XMLID_103_" class="st4" d="M248.35 78.4v-.3l.61-.05c.53-.06.61-.3.61-1.98v-3.63c0-1.69-.09-1.93-.61-1.98l-.61-.07v-.3h3.83v.3l-.61.07c-.54.06-.62.29-.62 1.98v3.63c0 1.68.09 1.92.62 1.98l.61.05v.3h-3.83z"/><path id="XMLID_100_" class="st4" d="M253.23 74.3c0-2.69 2.05-4.42 4.68-4.42 2.76 0 4.57 1.78 4.57 4.31 0 2.68-2.06 4.41-4.67 4.41-2.76 0-4.58-1.76-4.58-4.3m7.7-.03c0-1.89-.96-3.76-3.17-3.76-2.02 0-2.98 1.61-2.98 3.67 0 1.95 1.01 3.79 3.21 3.79 2.01 0 2.94-1.7 2.94-3.7"/><path id="XMLID_99_" class="st4" d="M263.43 78.09l.61-.04c.6-.04.7-.23.72-2l.02-4.61c0-.66-.35-.95-.97-1.02l-.4-.06v-.3h2.22c.2 0 .47.23.76.51 1.34 1.39 3.37 3.63 4.91 5.42l.07-.02-.06-3.94c-.01-1.39-.17-1.55-.7-1.61l-.58-.07v-.3h3.29v.3l-.52.07c-.61.08-.68.36-.68 1.98v5.98c-.12.04-.39.09-.56.11-1.75-2.16-3.5-4.08-5.98-6.72l-.06.03.02 4.24c.01 1.81.13 1.95.71 2l.64.04v.3h-3.47v-.29z"/><path id="XMLID_96_" class="st4" d="M278.74 78.09l.49-.01c.55-.03.72-.14.72-.46 0-.21-.12-.58-.35-1.17l-.33-.86c-.81 0-2.22.03-2.91.03l-.26.61c-.18.42-.45 1.12-.45 1.37 0 .32.29.44 1.16.5v.31h-3.25v-.27c.73-.16.97-.33 1.37-1.2l3.16-6.91c.11-.04.2-.06.28-.06.53 1.3 2.8 6.86 3.27 7.58.28.44.53.51.94.54v.31h-3.85v-.31zm-.86-5.76h-.08c-.16.38-1 2.29-1.16 2.67l2.39.01c-.21-.43-.96-2.23-1.15-2.68"/><path id="XMLID_95_" class="st4" d="M283.44 78.4v-.3l.61-.05c.52-.06.61-.3.61-1.98v-3.63c0-1.69-.09-1.93-.61-1.98l-.61-.07v-.3h3.86v.3l-.64.07c-.54.06-.61.29-.61 1.98v3.49c0 1.77.09 1.92.83 1.92h.93c.94 0 1.41-.74 1.69-1.68h.34c0 .53-.15 1.67-.34 2.24h-6.06z"/><path id="XMLID_92_" class="st4" d="M294.9 78.11l.61-.07c.52-.05.6-.3.6-1.98v-3.63c0-1.69-.09-1.93-.6-1.98l-.61-.07v-.28c1.88-.01 3.11-.05 4.19-.05 2.59 0 5.09.96 5.09 3.99 0 2.55-2.02 4.36-5.29 4.36h-3.99v-.29zm2.6-1.33c0 .83.29 1.06 1.28 1.06 2.18 0 3.84-1.29 3.84-3.65 0-2.28-1.33-3.54-3.65-3.54-.35 0-.99.05-1.48.16v5.97z"/><path id="XMLID_91_" class="st4" d="M305.23 78.4v-.3l.61-.05c.51-.06.61-.3.61-1.98v-3.63c0-1.69-.09-1.93-.61-1.98l-.61-.07v-.3H311c.02.18.03.34.03.52 0 .54-.07 1.11-.17 1.52h-.33c-.06-.88-.28-1.44-1.28-1.44-.46 0-1.08.1-1.41.15v3.09h.58c1.27 0 1.45-.08 1.61-.75h.31l-.11 2.42h-.31l-.09-.47c-.1-.52-.3-.61-1.45-.61h-.55v1.53c0 1.72.19 1.82.95 1.82h.61c1.02 0 1.41-.51 1.68-1.4h.33c-.01.58-.14 1.4-.31 1.96h-5.86z"/><path id="XMLID_88_" class="st4" d="M316.67 78.4v-.33l.67-.07c.61-.05.7-.36.7-2.36v-4.37c0-1.99-.1-2.27-.7-2.32l-.67-.07v-.33c1.05-.05 3-.08 3.76-.08 2.42 0 3.61 1 3.61 2.67 0 1.94-1.78 3.1-3.71 3.1-.3 0-.55-.01-.79-.04v1.44c0 2.01.1 2.31.7 2.36l.78.07v.33h-4.35zm5.79-7.03c0-1.33-.73-2.22-1.89-2.22-.39 0-.83.09-1.04.16v4.29c.25.03.48.03.74.03 1.48 0 2.19-.84 2.19-2.26"/><path id="XMLID_85_" class="st4" d="M325.22 78.09l.61-.05c.53-.05.61-.3.61-1.98v-3.63c0-1.68-.09-1.9-.61-1.96l-.61-.06v-.29c.91-.06 2.72-.07 3.38-.07 2.14 0 3.15.74 3.15 2.13 0 1.15-.82 1.84-1.55 2.21 1.17 2.13 2.03 3.3 2.6 3.57.26.12.45.14.69.14v.3c-1.11.1-1.62.13-1.83.13-.18 0-.35-.05-.51-.16-.52-.38-1.21-1.59-1.82-2.81-.29-.57-.4-.73-.84-.73h-.67v1.25c0 1.69.09 1.9.62 1.96l.67.05v.3h-3.9v-.3zm3.86-3.77c.69 0 1.19-.88 1.19-1.83 0-1.08-.58-1.84-1.56-1.84-.33 0-.72.09-.9.16v3.5h1.27z"/><path id="XMLID_82_" class="st4" d="M333.8 74.3c0-2.69 2.05-4.42 4.69-4.42 2.76 0 4.57 1.78 4.57 4.31 0 2.68-2.07 4.41-4.68 4.41-2.76 0-4.58-1.76-4.58-4.3m7.7-.03c0-1.89-.97-3.76-3.17-3.76-2.02 0-2.98 1.61-2.98 3.67 0 1.95 1 3.79 3.21 3.79 2.02 0 2.94-1.7 2.94-3.7"/><path id="XMLID_81_" class="st4" d="M346.03 78.4v-.3l.66-.07c.56-.05.67-.19.67-1.93v-5.3c-.34-.05-.97-.1-1.4-.1-.86 0-1.14.53-1.44 1.7h-.36c.01-.58.13-1.84.23-2.33h7.31c.09.49.21 1.74.23 2.33h-.37c-.33-1.18-.61-1.7-1.43-1.7-.43 0-1.08.05-1.4.1v5.3c0 1.77.08 1.88.68 1.93l.64.07v.3h-4.02z"/><path id="XMLID_80_" class="st4" d="M353.05 78.4v-.3l.61-.05c.52-.06.6-.3.6-1.98v-3.63c0-1.69-.09-1.93-.6-1.98l-.61-.07v-.3h5.76c.02.18.04.34.04.52 0 .54-.08 1.11-.18 1.52h-.33c-.06-.88-.28-1.44-1.28-1.44-.46 0-1.08.1-1.41.15v3.09h.58c1.27 0 1.45-.08 1.62-.75h.3l-.11 2.42h-.3l-.09-.47c-.09-.52-.31-.61-1.46-.61h-.54v1.53c0 1.72.18 1.82.95 1.82h.6c1.03 0 1.42-.51 1.68-1.4h.34c-.01.58-.14 1.4-.32 1.96h-5.85z"/><path id="XMLID_79_" class="st4" d="M360.46 74.25c0-2.69 1.93-4.37 4.92-4.37 1.2 0 2.45.33 3.02.33.04.2.06.46.06.73 0 .55-.09 1.39-.15 1.88h-.41c-.01-1.67-.96-2.31-2.5-2.31-2.13 0-3.4 1.49-3.4 3.76 0 2.24 1.44 3.68 3.45 3.68 1.51 0 2.28-.81 2.55-1.83h.34c0 .47-.13 1.38-.37 1.88-.64.36-1.58.61-2.72.61-2.66-.02-4.79-1.42-4.79-4.36"/><path id="XMLID_78_" class="st4" d="M369.84 74.25c0-2.69 1.93-4.37 4.91-4.37 1.21 0 2.46.33 3.03.33.04.2.07.46.07.73 0 .55-.09 1.39-.16 1.88h-.39c-.02-1.67-.97-2.31-2.51-2.31-2.12 0-3.39 1.49-3.39 3.76 0 2.24 1.44 3.68 3.44 3.68 1.53 0 2.29-.81 2.55-1.83h.34c0 .47-.13 1.38-.36 1.88-.63.36-1.59.61-2.72.61-2.69-.02-4.81-1.42-4.81-4.36"/><path id="XMLID_77_" class="st4" d="M379.21 78.4v-.3l.62-.05c.52-.06.6-.3.6-1.98v-3.63c0-1.69-.09-1.93-.6-1.98l-.62-.07v-.3h3.84v.3l-.61.07c-.55.06-.63.29-.63 1.98v3.63c0 1.68.08 1.92.63 1.98l.61.05v.3h-3.84z"/><path id="XMLID_73_" class="st4" d="M384.09 74.3c0-2.69 2.04-4.42 4.69-4.42 2.76 0 4.57 1.78 4.57 4.31 0 2.68-2.06 4.41-4.67 4.41-2.77-.01-4.59-1.76-4.59-4.3m7.71-.03c0-1.89-.97-3.76-3.18-3.76-2.02 0-2.98 1.61-2.98 3.67 0 1.95 1.01 3.79 3.21 3.79 2.02.01 2.95-1.7 2.95-3.7m-4.67-5.45c.83-.34 2.15-1.06 2.71-1.58h.05c.23.15.59.61.59.84 0 .49-2.37.98-3.35 1v-.26z"/><path id="XMLID_72_" class="st4" d="M394.31 78.09l.6-.04c.59-.04.7-.23.7-2l.03-4.61c0-.66-.35-.95-.98-1.02l-.4-.06v-.3h2.22c.2 0 .46.23.76.51 1.35 1.39 3.36 3.63 4.91 5.42l.06-.02-.05-3.94c-.01-1.39-.18-1.55-.7-1.61l-.58-.07v-.3h3.29v.3l-.52.07c-.61.08-.69.36-.69 1.98v5.98c-.12.04-.39.09-.56.11-1.74-2.16-3.5-4.08-5.97-6.72l-.07.03.03 4.24c.01 1.81.13 1.95.71 2l.63.04v.3h-3.46v-.29z"/><path id="XMLID_71_" class="st4" d="M185.35 94.25v-.33l.68-.07c.61-.06.7-.36.7-2.37v-4.37c0-2.02-.11-2.3-.7-2.37l-.68-.06v-.35h4.24v.35l-.68.06c-.61.07-.7.35-.7 2.37v4.37c0 2.01.09 2.3.7 2.37l.68.07v.33h-4.24z"/><path id="XMLID_70_" class="st4" d="M190.81 93.94l.61-.04c.6-.04.7-.22.71-2l.03-4.61c0-.67-.35-.95-.97-1.02l-.39-.05v-.31h2.2c.2 0 .47.22.76.52 1.35 1.39 3.36 3.63 4.91 5.42l.07-.01-.05-3.93c-.01-1.39-.18-1.56-.7-1.62l-.58-.06v-.31h3.29v.31l-.52.06c-.61.08-.68.36-.68 1.98v5.98c-.12.04-.39.09-.56.11-1.74-2.16-3.5-4.08-5.97-6.72l-.07.03.03 4.24c.01 1.81.13 1.96.71 2l.63.04v.31h-3.46v-.32z"/><path id="XMLID_69_" class="st4" d="M203.46 94.25v-.31l.66-.06c.56-.06.67-.19.67-1.93v-5.3c-.34-.05-.97-.1-1.4-.1-.86 0-1.14.53-1.44 1.7h-.35c.01-.58.13-1.83.23-2.32h7.32c.09.49.22 1.74.22 2.32H209c-.33-1.17-.61-1.7-1.43-1.7-.44 0-1.08.05-1.4.1v5.3c0 1.77.08 1.87.68 1.93l.64.06v.31h-4.03z"/><path id="XMLID_68_" class="st4" d="M210.47 94.25v-.31l.61-.05c.51-.05.61-.3.61-1.98v-3.63c0-1.69-.09-1.93-.61-1.98l-.61-.07v-.3h5.77c.02.17.04.35.04.52 0 .54-.09 1.11-.18 1.52h-.33c-.06-.88-.27-1.44-1.28-1.44-.46 0-1.08.09-1.41.14v3.09h.58c1.27 0 1.45-.08 1.61-.75h.31l-.11 2.42h-.3l-.1-.48c-.09-.51-.31-.61-1.45-.61h-.54v1.53c0 1.72.18 1.82.95 1.82h.61c1.02 0 1.41-.51 1.68-1.39h.33c-.01.58-.15 1.39-.32 1.95h-5.86z"/><path id="XMLID_67_" class="st4" d="M217.88 90.1c0-2.69 1.95-4.37 4.93-4.37 1.19 0 2.63.34 3.2.34.02.17.06.5.06.7 0 .63-.11 1.6-.18 1.82h-.35c-.12-1.6-1.19-2.23-2.72-2.23-2.07 0-3.41 1.36-3.41 3.75 0 2.26 1.54 3.68 3.45 3.68 1.18 0 1.81-.4 1.81-1.16 0-1.63-.12-1.88-.6-1.92l-.67-.04v-.3h3.67v.32l-.42.02c-.53.03-.61.36-.61 1.74 0 .54.03 1.02.08 1.31-.7.37-2.25.69-3.42.69-2.66 0-4.82-1.41-4.82-4.35"/><path id="XMLID_64_" class="st4" d="M227.91 93.94l.61-.05c.53-.05.61-.3.61-1.99v-3.63c0-1.68-.09-1.9-.61-1.96l-.61-.06v-.29c.91-.05 2.72-.07 3.38-.07 2.14 0 3.14.74 3.14 2.13 0 1.15-.81 1.84-1.54 2.21 1.18 2.12 2.02 3.3 2.61 3.56.26.12.45.14.69.14v.31c-1.11.09-1.62.13-1.83.13-.18 0-.35-.06-.52-.16-.51-.38-1.2-1.58-1.82-2.82-.29-.56-.4-.72-.83-.72h-.67v1.25c0 1.69.08 1.9.62 1.96l.67.05v.31h-3.9v-.3zm3.88-3.77c.69 0 1.18-.87 1.18-1.83 0-1.08-.59-1.84-1.56-1.84-.33 0-.73.1-.89.16v3.5h1.27z"/><path id="XMLID_61_" class="st4" d="M241.81 93.94l.49-.01c.54-.02.71-.14.71-.46 0-.21-.12-.58-.34-1.17l-.33-.86c-.81 0-2.22.03-2.91.03l-.26.61c-.18.42-.45 1.12-.45 1.37 0 .32.3.44 1.16.5v.31h-3.25v-.27c.72-.16.98-.33 1.37-1.2l3.16-6.91c.1-.04.2-.05.27-.05.53 1.3 2.8 6.86 3.27 7.58.28.44.54.5.94.54v.31h-3.84v-.32zm-.87-5.76h-.09c-.16.38-1 2.29-1.16 2.67l2.39.01c-.2-.43-.94-2.23-1.14-2.68"/><path id="XMLID_60_" class="st4" d="M246.49 94.25v-.31l.61-.05c.53-.05.61-.3.61-1.98v-3.63c0-1.69-.09-1.93-.61-1.98l-.61-.07v-.3h3.86v.3l-.64.07c-.54.05-.61.29-.61 1.98v3.48c0 1.77.09 1.93.83 1.93h.94c.93 0 1.4-.73 1.69-1.68h.33c0 .53-.14 1.67-.33 2.23h-6.07z"/><path id="XMLID_57_" class="st4" d="M257.96 93.96l.61-.06c.53-.05.61-.3.61-1.98v-3.63c0-1.69-.09-1.93-.61-1.98l-.61-.07v-.28c1.87-.01 3.11-.05 4.19-.05 2.6 0 5.1.96 5.1 3.99 0 2.56-2.02 4.36-5.31 4.36h-3.99v-.3zm2.6-1.32c0 .83.3 1.05 1.28 1.05 2.19 0 3.85-1.29 3.85-3.64 0-2.28-1.33-3.54-3.64-3.54-.35 0-.99.05-1.48.16v5.97z"/><path id="XMLID_56_" class="st4" d="M268.29 94.25v-.31l.61-.05c.52-.05.61-.3.61-1.98v-3.63c0-1.69-.09-1.93-.61-1.98l-.61-.07v-.3h5.76c.02.17.04.35.04.52a7.5 7.5 0 0 1-.17 1.52h-.32c-.08-.88-.29-1.44-1.29-1.44-.46 0-1.08.09-1.41.14v3.09h.58c1.27 0 1.45-.08 1.61-.75h.31l-.11 2.42h-.3l-.1-.48c-.09-.51-.3-.61-1.45-.61h-.55v1.53c0 1.72.18 1.82.95 1.82h.61c1.02 0 1.41-.51 1.68-1.39h.33c-.01.58-.15 1.39-.32 1.95h-5.85z"/><path id="XMLID_55_" class="st4" d="M282 86.28l-.09.03.03 5.18c.02 2.13.14 2.31.79 2.37l.7.07v.33h-3.84v-.33l.67-.07c.66-.06.78-.27.79-2.37l.03-5.53c0-.79-.39-1.13-1.11-1.21l-.45-.05v-.34H282c.22 0 .52.26.86.62 1.53 1.66 3.86 4.38 5.61 6.52l.08-.02-.05-4.69c-.01-1.73-.17-1.97-.78-2.02l-.65-.07v-.34h3.67v.34l-.58.07c-.68.07-.77.41-.77 2.36v7.15c-.13.05-.41.11-.58.12-1.98-2.6-4.05-4.99-6.81-8.12"/><path id="XMLID_54_" class="st4" d="M291.77 94.25v-.31l.61-.05c.53-.05.61-.3.61-1.98v-3.63c0-1.69-.09-1.93-.61-1.98l-.61-.07v-.3h3.84v.3l-.61.07c-.54.05-.62.29-.62 1.98v3.63c0 1.68.09 1.93.62 1.98l.61.05v.31h-3.84z"/><path id="XMLID_51_" class="st4" d="M296.75 93.94l.61-.04c.6-.04.7-.22.71-2l.03-4.61c0-.67-.36-.95-.98-1.02l-.39-.05v-.31h2.22c.2 0 .46.22.76.52 1.35 1.39 3.36 3.63 4.92 5.41l.06-.01-.05-3.93c-.01-1.39-.18-1.56-.7-1.61l-.58-.07v-.31h3.29v.31l-.51.07c-.61.08-.69.35-.69 1.98v5.98c-.12.04-.38.09-.55.11-1.74-2.16-3.51-4.08-5.97-6.72l-.07.02.03 4.24c.02 1.81.13 1.96.71 2l.64.04v.31h-3.47v-.31zm2.82-9.03c.01-1 .45-1.58 1.21-1.58.7 0 1.76.44 2.29.44.32 0 .47-.19.58-.64h.31c-.02 1.01-.45 1.6-1.21 1.6-.7 0-1.76-.45-2.3-.45-.31 0-.47.19-.58.64h-.3z"/><path id="XMLID_48_" class="st4" d="M312.07 93.94l.48-.01c.54-.02.72-.14.72-.46 0-.21-.12-.58-.34-1.17l-.34-.86c-.8 0-2.22.03-2.91.03l-.26.61c-.18.42-.44 1.12-.44 1.37 0 .32.29.44 1.16.5v.31h-3.25v-.27c.72-.16.97-.33 1.37-1.2l3.15-6.91a.84.84 0 0 1 .29-.05c.53 1.3 2.8 6.86 3.27 7.58.28.44.53.5.94.54v.31h-3.84v-.32zm-.87-5.76h-.08c-.16.38-1.01 2.29-1.16 2.67l2.39.01c-.21-.43-.96-2.23-1.15-2.68"/><path id="XMLID_47_" class="st4" d="M316.9 94.17c-.09-.42-.14-1.4-.14-1.98h.32c.31 1.11 1.08 1.66 2.13 1.66.95 0 1.63-.5 1.63-1.28 0-.66-.43-1.09-1.07-1.53l-.99-.71c-.96-.68-1.82-1.42-1.82-2.39 0-1.39 1.2-2.21 2.59-2.21 1.02 0 1.69.29 2.33.32 0 .65-.08 1.49-.22 2.11h-.37c-.05-1.21-.69-1.86-1.68-1.86-.77 0-1.36.49-1.36 1.17 0 .64.52 1.08 1.29 1.59l.86.57c1.31.87 1.78 1.57 1.78 2.43 0 1.6-1.52 2.39-3.04 2.39-.85 0-1.7-.28-2.24-.28"/><path id="XMLID_46_" class="st4" d="M323.58 96.08c1.1-.16 1.48-.58 1.48-1.05 0-.78-1.23-1.09-1.23-1.55 0-.46.39-.91.75-.91.64 0 1.43.64 1.43 1.65 0 1.2-1.01 2.15-2.44 2.18v-.32z"/><path id="XMLID_45_" class="st4" d="M333.76 86.28l-.09.03.02 5.18c.01 2.13.14 2.31.8 2.37l.69.07v.33h-3.83v-.33l.67-.07c.66-.06.78-.27.79-2.37l.04-5.53c0-.79-.4-1.13-1.12-1.21l-.45-.05v-.34h2.46c.22 0 .53.26.86.62 1.53 1.66 3.86 4.38 5.62 6.52l.08-.02-.05-4.69c-.01-1.73-.17-1.97-.78-2.02l-.64-.07v-.34h3.67v.34l-.58.07c-.68.07-.77.41-.77 2.36v7.15c-.13.05-.4.11-.58.12-1.98-2.6-4.05-4.99-6.81-8.12"/><path id="XMLID_44_" class="st4" d="M343.53 94.25v-.31l.61-.05c.52-.05.6-.3.6-1.98v-3.63c0-1.69-.09-1.93-.6-1.98l-.61-.07v-.3h3.83v.3l-.61.07c-.55.05-.63.29-.63 1.98v3.63c0 1.68.08 1.93.63 1.98l.61.05v.31h-3.83z"/><path id="XMLID_41_" class="st4" d="M348.51 93.94l.61-.04c.59-.04.7-.22.71-2l.02-4.61c0-.67-.35-.95-.98-1.02l-.39-.05v-.31h2.22c.2 0 .46.22.76.52 1.34 1.39 3.37 3.63 4.91 5.41l.07-.01-.05-3.93c-.02-1.39-.17-1.56-.7-1.61l-.58-.07v-.31h3.3v.31l-.53.07c-.61.08-.69.35-.69 1.98v5.98c-.12.04-.38.09-.56.11-1.74-2.16-3.5-4.08-5.97-6.72l-.07.02.03 4.24c.01 1.81.13 1.96.71 2l.63.04v.31h-3.46v-.31zm2.81-9.03c.01-1 .45-1.58 1.2-1.58.7 0 1.76.44 2.3.44.31 0 .48-.19.58-.64h.31c-.01 1.01-.45 1.6-1.2 1.6-.7 0-1.76-.45-2.3-.45-.31 0-.47.19-.58.64h-.31z"/><path id="XMLID_38_" class="st4" d="M359.37 90.15c0-2.69 2.05-4.43 4.69-4.43 2.77 0 4.57 1.78 4.57 4.31 0 2.68-2.06 4.41-4.67 4.41-2.77.01-4.59-1.75-4.59-4.29m7.7-.03c0-1.89-.96-3.76-3.17-3.76-2.02 0-2.99 1.61-2.99 3.67 0 1.96 1.01 3.79 3.21 3.79 2.03 0 2.95-1.7 2.95-3.7"/><path id="XMLID_37_" class="st4" d="M370.15 94.17c-.08-.42-.14-1.4-.14-1.98h.34c.3 1.11 1.06 1.66 2.12 1.66.96 0 1.63-.5 1.63-1.28 0-.66-.43-1.09-1.07-1.53l-.99-.71c-.96-.68-1.82-1.42-1.82-2.39 0-1.39 1.19-2.21 2.59-2.21 1.02 0 1.69.29 2.33.32 0 .65-.08 1.49-.22 2.11h-.38c-.05-1.21-.69-1.86-1.69-1.86-.76 0-1.36.49-1.36 1.17 0 .64.52 1.08 1.3 1.59l.86.57c1.31.87 1.78 1.57 1.78 2.43 0 1.6-1.51 2.39-3.03 2.39-.87 0-1.71-.28-2.25-.28"/><path id="XMLID_36_" class="st4" d="M222.37 110.1v-.3l.66-.04c.58-.04.65-.15.65-1.91v-1.37c-.74-1.61-1.58-3.12-2.01-3.73-.33-.45-.59-.66-1.23-.66v-.3h1.83c.28 0 .59.28 1.09 1.09.36.6.88 1.64 1.28 2.5h.07c.89-1.75 1.18-2.47 1.18-2.78 0-.25-.13-.36-.51-.41l-.61-.09v-.3h3.51v.3c-.67.11-.87.16-1.15.48-.43.44-1.31 2.17-2.07 3.61v1.68c0 1.8.06 1.87.66 1.91l.64.04v.3h-3.99z"/><path id="XMLID_33_" class="st4" d="M232.77 110.1v-.3c.81-.17 1.1-.34 1.54-1.36l3.57-8.31c.12-.04.24-.07.32-.07.59 1.55 3.2 8.18 3.72 9.05.32.52.6.6 1.06.65v.34h-4.26v-.33l.54-.03c.62-.04.82-.17.82-.54 0-.26-.13-.67-.4-1.39l-.44-1.15c-.36 0-2.98.03-3.29.03l-.35.85c-.21.53-.51 1.35-.51 1.64 0 .39.29.49 1.28.6v.33h-3.6zm4.91-7.38h-.08a115.2 115.2 0 0 0-1.37 3.3l2.77.03-1.32-3.33z"/><path id="XMLID_30_" class="st4" d="M243.84 109.81l.61-.07c.53-.05.61-.3.61-1.99v-3.62c0-1.69-.09-1.93-.61-1.99l-.61-.07v-.28c1.87-.01 3.11-.05 4.19-.05 2.6 0 5.1.97 5.1 3.99 0 2.55-2.02 4.36-5.3 4.36h-3.99v-.28zm2.6-1.32c0 .83.3 1.06 1.28 1.06 2.18 0 3.84-1.3 3.84-3.65 0-2.29-1.33-3.54-3.65-3.54-.35 0-.98.05-1.48.16v5.97z"/><path id="XMLID_27_" class="st4" d="M254.63 106c0-2.69 2.05-4.43 4.69-4.43 2.76 0 4.57 1.79 4.57 4.31 0 2.68-2.06 4.41-4.68 4.41-2.76.01-4.58-1.75-4.58-4.29m7.71-.02c0-1.89-.97-3.76-3.17-3.76-2.02 0-2.98 1.61-2.98 3.67 0 1.95 1.01 3.79 3.22 3.79 2.01 0 2.93-1.71 2.93-3.7"/><path id="XMLID_26_" class="st4" d="M264.93 110.1v-.3l.61-.05c.51-.05.61-.3.61-1.99v-3.62c0-1.69-.09-1.93-.61-1.99l-.61-.07v-.3h3.86v.3l-.63.07c-.55.06-.62.29-.62 1.99v3.48c0 1.77.09 1.93.83 1.93h.94c.93 0 1.41-.74 1.69-1.68h.33c0 .53-.15 1.67-.33 2.23h-6.07z"/><path id="XMLID_25_" class="st4" d="M272.44 110.1v-.3l.61-.05c.52-.05.61-.3.61-1.99v-3.62c0-1.69-.09-1.93-.61-1.99l-.61-.07v-.3h5.76c.02.17.04.35.04.52 0 .54-.08 1.11-.18 1.52h-.32c-.07-.88-.28-1.44-1.28-1.44-.47 0-1.09.09-1.42.15v3.09h.58c1.27 0 1.46-.08 1.62-.75h.3l-.11 2.41h-.29l-.09-.47c-.09-.52-.31-.61-1.45-.61h-.54v1.53c0 1.72.18 1.83.95 1.83h.61c1.01 0 1.41-.52 1.68-1.4h.34c-.02.58-.16 1.4-.32 1.95h-5.88z"/><path id="XMLID_24_" class="st4" d="M280 110.02c-.08-.42-.15-1.4-.15-1.98h.33c.31 1.11 1.08 1.67 2.13 1.67.95 0 1.62-.5 1.62-1.28 0-.67-.41-1.08-1.06-1.53l-1-.71c-.95-.69-1.81-1.42-1.81-2.39 0-1.39 1.19-2.21 2.59-2.21 1.01 0 1.69.29 2.33.32 0 .65-.08 1.49-.22 2.11h-.37c-.05-1.22-.69-1.87-1.69-1.87-.76 0-1.36.49-1.36 1.18 0 .63.51 1.07 1.3 1.58l.86.57c1.31.87 1.78 1.58 1.78 2.43 0 1.6-1.51 2.39-3.04 2.39-.85 0-1.7-.28-2.24-.28"/><path id="XMLID_23_" class="st4" d="M286.77 105.95c0-2.7 1.93-4.38 4.91-4.38 1.21 0 2.46.33 3.03.33.04.2.06.46.06.72 0 .56-.09 1.39-.16 1.88h-.39c-.02-1.67-.96-2.31-2.52-2.31-2.12 0-3.39 1.49-3.39 3.76 0 2.24 1.44 3.68 3.45 3.68 1.52 0 2.29-.81 2.55-1.82h.34c0 .46-.13 1.38-.37 1.88-.63.36-1.58.61-2.72.61-2.66 0-4.79-1.4-4.79-4.35"/><path id="XMLID_22_" class="st4" d="M296.16 110.1v-.3l.6-.05c.51-.05.61-.3.61-1.99v-3.62c0-1.69-.1-1.93-.61-1.99l-.6-.07v-.3h5.75c.03.17.04.35.04.52 0 .54-.08 1.11-.18 1.52h-.33c-.07-.88-.27-1.44-1.28-1.44-.46 0-1.08.09-1.41.15v3.09h.58c1.27 0 1.45-.08 1.61-.75h.31l-.1 2.41h-.31l-.09-.47c-.09-.52-.31-.61-1.45-.61h-.54v1.53c0 1.72.18 1.83.96 1.83h.61c1.01 0 1.41-.52 1.67-1.4h.33c-.01.58-.15 1.4-.31 1.95h-5.86z"/><path id="XMLID_21_" class="st4" d="M303.47 109.8l.61-.04c.6-.04.7-.22.71-2l.03-4.61c0-.66-.36-.95-.98-1.01l-.4-.05v-.3h2.22c.2 0 .47.23.75.52 1.35 1.39 3.37 3.63 4.91 5.42l.06-.01-.05-3.94c-.01-1.39-.17-1.56-.7-1.61l-.58-.07v-.3h3.29v.3l-.51.07c-.61.08-.69.36-.69 1.99v5.98c-.13.05-.39.09-.56.11-1.74-2.16-3.5-4.08-5.97-6.72l-.06.02.02 4.24c.01 1.82.13 1.96.72 2l.63.04v.3h-3.46v-.33z"/><path id="XMLID_20_" class="st4" d="M316.12 110.1v-.3l.67-.07c.55-.05.66-.18.66-1.93v-5.3c-.34-.06-.98-.11-1.4-.11-.86 0-1.14.53-1.44 1.7h-.36c.02-.59.14-1.84.23-2.33h7.32c.09.49.21 1.74.22 2.33h-.37c-.33-1.18-.6-1.7-1.42-1.7-.44 0-1.1.05-1.4.11v5.3c0 1.77.08 1.88.67 1.93l.65.07v.3h-4.03z"/><path id="XMLID_19_" class="st4" d="M323.13 110.1v-.3l.61-.05c.51-.05.61-.3.61-1.99v-3.62c0-1.69-.09-1.93-.61-1.99l-.61-.07v-.3h5.77c.02.17.04.35.04.52 0 .54-.07 1.11-.17 1.52h-.34c-.06-.88-.27-1.44-1.27-1.44-.47 0-1.09.09-1.42.15v3.09h.57c1.27 0 1.45-.08 1.61-.75h.31l-.1 2.41h-.31l-.09-.47c-.09-.52-.31-.61-1.45-.61h-.54v1.53c0 1.72.18 1.83.95 1.83h.61c1.02 0 1.41-.52 1.67-1.4h.33c-.01.58-.14 1.4-.31 1.95h-5.86z"/><path id="XMLID_18_" class="st4" d="M330.7 110.02c-.09-.42-.15-1.4-.15-1.98h.34c.3 1.11 1.06 1.67 2.12 1.67.95 0 1.62-.5 1.62-1.28 0-.67-.43-1.08-1.07-1.53l-1-.71c-.95-.69-1.8-1.42-1.8-2.39 0-1.39 1.18-2.21 2.59-2.21 1.02 0 1.7.29 2.33.32 0 .65-.08 1.49-.23 2.11h-.36c-.05-1.22-.69-1.87-1.7-1.87-.75 0-1.36.49-1.36 1.18 0 .63.52 1.07 1.3 1.58l.86.57c1.31.87 1.79 1.58 1.79 2.43 0 1.6-1.52 2.39-3.04 2.39-.86 0-1.71-.28-2.24-.28"/></g></svg>