<svg version="1.1" id="HEADER_ROOF" xmlns="http://www.w3.org/2000/svg" xmlns:xlink="http://www.w3.org/1999/xlink" x="0px" y="0px" width="995px" height="268px" viewBox="0 0 995 268" xml:space="preserve"><style type="text/css">.st0{fill:#FFFFFF;} .st1{fill:#DE4F5D;} .st2{fill:#DC4453;} .st3{opacity:0.2;} .st4{fill:#784216;} .st5{fill:#502500;} .st6{fill:#EE5E6C;} .st7{opacity:0.2;clip-path:url(#RECT_1_);} .st8{clip-path:url(#RECT_1_);} .st9{fill:#FF5F68;} .st10{fill:#FB6E52;} .st11{fill:#DD4A3E;} .st12{fill:#C15A6C;} .st13{fill:#C93D51;} .st14{fill:#EA573F;}</style><path id="RECT_7_" class="st0" d="M0 182.3h980V268H0z"/><path id="RECT_24_" class="st1" d="M909.4 89.8H0v93.5h987.4c4.6 0 6.9-10.8 3.6-13.9l-81.6-79.6z"/><path id="RECT_19_" class="st2" d="M907.9 75H0v15h909.9V78c0-1.7-.9-3-2-3z"/><path id="XMLID_2061_" class="st3" d="M0 183.3h980v10H0z"/><g id="XMLID_3685_"><g id="XMLID_3688_"><g id="XMLID_3691_"><g id="XMLID_183_"><g id="XMLID_185_" class="st3"><path id="XMLID_187_" d="M457 176.5h-10c-2.8 0-6.8 1.9-9 4.2L422.6 197c-2.2 2.3-1.7 4.2 1.1 4.2h10c2.8 0 6.8-1.9 9-4.2l15.4-16.4c2.2-2.2 1.7-4.1-1.1-4.1z"/></g></g></g><g id="XMLID_3693_"><path id="XMLID_5576_" class="st4" d="M435.1 177.6H422c-2.2 0-4 1.8-4 4v15.7c0 2.2 1.8 4 4 4h13.1c2.2 0 4-1.8 4-4v-15.7c0-2.2-1.8-4-4-4z"/></g><g id="XMLID_3698_"><g id="XMLID_179_"><g id="XMLID_180_"><path id="XMLID_181_" class="st5" d="M418 183.6h21.1v8H418z"/></g></g></g></g><g id="XMLID_3700_"><g id="XMLID_3704_"><g id="XMLID_173_"><g id="XMLID_175_" class="st3"><path id="XMLID_176_" d="M557 176.5h-10c-2.8 0-6.8 1.9-9 4.2L522.6 197c-2.2 2.3-1.7 4.2 1.1 4.2h10c2.8 0 6.8-1.9 9-4.2l15.4-16.4c2.2-2.2 1.7-4.1-1.1-4.1z"/></g></g></g><g id="XMLID_3706_"><path id="XMLID_5555_" class="st4" d="M535.1 177.6H522c-2.2 0-4 1.8-4 4v15.7c0 2.2 1.8 4 4 4h13.1c2.2 0 4-1.8 4-4v-15.7c0-2.2-1.8-4-4-4z"/></g><g id="XMLID_3711_"><g id="XMLID_170_"><g id="XMLID_171_"><path id="XMLID_172_" class="st5" d="M518 183.6h21.1v8H518z"/></g></g></g></g><g id="XMLID_3713_"><g id="XMLID_3717_"><g id="XMLID_165_"><g id="XMLID_166_" class="st3"><path id="XMLID_168_" d="M657 176.5h-10c-2.8 0-6.8 1.9-9 4.2L622.6 197c-2.2 2.3-1.7 4.2 1.1 4.2h10c2.8 0 6.8-1.9 9-4.2l15.4-16.4c2.2-2.2 1.7-4.1-1.1-4.1z"/></g></g></g><g id="XMLID_3719_"><path id="XMLID_5534_" class="st4" d="M635.1 177.6H622c-2.2 0-4 1.8-4 4v15.7c0 2.2 1.8 4 4 4h13.1c2.2 0 4-1.8 4-4v-15.7c0-2.2-1.8-4-4-4z"/></g><g id="XMLID_3724_"><g id="XMLID_158_"><g id="XMLID_160_"><path id="XMLID_163_" class="st5" d="M618 183.6h21.1v8H618z"/></g></g></g></g><g id="XMLID_3726_"><g id="XMLID_3730_"><g id="XMLID_150_"><g id="XMLID_155_" class="st3"><path id="XMLID_157_" d="M757 176.5h-10c-2.8 0-6.8 1.9-9 4.2L722.6 197c-2.2 2.3-1.7 4.2 1.1 4.2h10c2.8 0 6.8-1.9 9-4.2l15.4-16.4c2.2-2.2 1.7-4.1-1.1-4.1z"/></g></g></g><g id="XMLID_3732_"><path id="XMLID_5513_" class="st4" d="M735.1 177.6H722c-2.2 0-4 1.8-4 4v15.7c0 2.2 1.8 4 4 4h13.1c2.2 0 4-1.8 4-4v-15.7c0-2.2-1.8-4-4-4z"/></g><g id="XMLID_3737_"><g id="XMLID_146_"><g id="XMLID_147_"><path id="XMLID_149_" class="st5" d="M718 183.6h21.1v8H718z"/></g></g></g></g><g id="XMLID_3739_"><g id="XMLID_3743_"><g id="XMLID_139_"><g id="XMLID_140_" class="st3"><path id="XMLID_142_" d="M857 176.5h-10c-2.8 0-6.8 1.9-9 4.2L822.6 197c-2.2 2.3-1.7 4.2 1.1 4.2h10c2.8 0 6.8-1.9 9-4.2l15.4-16.4c2.2-2.2 1.7-4.1-1.1-4.1z"/></g></g></g><g id="XMLID_3745_"><path id="XMLID_5492_" class="st4" d="M835.1 177.6H822c-2.2 0-4 1.8-4 4v15.7c0 2.2 1.8 4 4 4h13.1c2.2 0 4-1.8 4-4v-15.7c0-2.2-1.8-4-4-4z"/></g><g id="XMLID_3750_"><g id="XMLID_130_"><g id="XMLID_131_"><path id="XMLID_134_" class="st5" d="M818 183.6h21.1v8H818z"/></g></g></g></g><g id="XMLID_3752_"><g id="XMLID_3756_"><g id="XMLID_124_"><g id="XMLID_125_" class="st3"><path id="XMLID_127_" d="M957 176.5h-10c-2.8 0-6.8 1.9-9 4.2L922.6 197c-2.2 2.3-1.7 4.2 1.1 4.2h10c2.8 0 6.8-1.9 9-4.2l15.4-16.4c2.2-2.2 1.7-4.1-1.1-4.1z"/></g></g></g><g id="XMLID_3758_"><path id="XMLID_5471_" class="st4" d="M935.1 177.6H922c-2.2 0-4 1.8-4 4v15.7c0 2.2 1.8 4 4 4h13.1c2.2 0 4-1.8 4-4v-15.7c0-2.2-1.8-4-4-4z"/></g><g id="XMLID_3763_"><g id="XMLID_111_"><g id="XMLID_115_"><path id="XMLID_120_" class="st5" d="M918 183.6h21.1v8H918z"/></g></g></g></g></g><path id="XMLID_2018_" class="st2" d="M0 168.3h989.5c1.7 0 3 1.3 3 3v9c0 1.7-1.3 3-3 3H0v-15z"/><path id="XMLID_2017_" class="st6" d="M0 168.3h989.5c1.7 0 3 1.3 3 3v2H0v-5z"/><g id="XMLID_3765_"><defs><path id="RECT_12_" d="M893.7 75H.9L0 178.4h1000z"/></defs><clipPath id="RECT_1_"><use xlink:href="#RECT_12_" overflow="visible"/></clipPath><g id="XMLID_3816_" class="st7"><g id="XMLID_1840_"><g id="XMLID_1949_"><g id="XMLID_1950_"><g id="XMLID_2002_"><path id="XMLID_2003_" d="M122.8 143.4c6.7 0 12.2-5.5 12.2-12.2V119h-24.4v12.2c0 6.8 5.5 12.2 12.2 12.2z"/></g><path id="XMLID_2001_" d="M151 143.4c6.7 0 12.2-5.5 12.2-12.2V119h-24.4v12.2c0 6.8 5.4 12.2 12.2 12.2z"/><g id="XMLID_1999_"><path id="XMLID_2000_" d="M179.2 143.4c6.7 0 12.2-5.5 12.2-12.2V119H167v12.2c0 6.8 5.4 12.2 12.2 12.2z"/></g><path id="XMLID_1998_" d="M37.8 143.4c6.7 0 12.2-5.5 12.2-12.2V119H25.6v12.2c0 6.8 5.5 12.2 12.2 12.2z"/><path id="XMLID_1997_" d="M66 143.4c6.7 0 12.2-5.5 12.2-12.2V119H53.8v12.2c0 6.8 5.4 12.2 12.2 12.2z"/><g id="XMLID_1995_"><path id="XMLID_1996_" d="M94.2 143.4c6.7 0 12.2-5.5 12.2-12.2V119H82v12.2c0 6.8 5.4 12.2 12.2 12.2z"/></g><g id="XMLID_1993_"><path id="XMLID_1994_" d="M207.4 143.4c6.7 0 12.2-5.5 12.2-12.2V119h-24.4v12.2c-.1 6.8 5.4 12.2 12.2 12.2z"/></g><path id="XMLID_1992_" d="M235.5 143.4c6.7 0 12.2-5.5 12.2-12.2V119h-24.4v12.2c0 6.8 5.5 12.2 12.2 12.2z"/><g id="XMLID_1990_"><path id="XMLID_1991_" d="M263.7 143.4c6.7 0 12.2-5.5 12.2-12.2V119h-24.4v12.2c0 6.8 5.5 12.2 12.2 12.2z"/></g><g id="XMLID_1988_"><path id="XMLID_1989_" d="M291.9 143.4c6.7 0 12.2-5.5 12.2-12.2V119h-24.4v12.2c0 6.8 5.5 12.2 12.2 12.2z"/></g><g id="XMLID_1986_"><path id="XMLID_1987_" d="M320.1 143.4c6.7 0 12.2-5.5 12.2-12.2V119h-24.4v12.2c0 6.8 5.5 12.2 12.2 12.2z"/></g><g id="XMLID_1984_"><path id="XMLID_1985_" d="M348.3 143.4c6.7 0 12.2-5.5 12.2-12.2V119h-24.4v12.2c0 6.8 5.4 12.2 12.2 12.2z"/></g><g id="XMLID_1982_"><path id="XMLID_1983_" d="M376.5 143.4c6.7 0 12.2-5.5 12.2-12.2V119h-24.4v12.2c0 6.8 5.4 12.2 12.2 12.2z"/></g><path id="XMLID_1981_" d="M404.7 143.4c6.7 0 12.2-5.5 12.2-12.2V119h-24.4v12.2c-.1 6.8 5.4 12.2 12.2 12.2z"/><g id="XMLID_1979_"><path id="XMLID_1980_" d="M432.8 143.4c6.7 0 12.2-5.5 12.2-12.2V119h-24.4v12.2c0 6.8 5.5 12.2 12.2 12.2z"/></g><g id="XMLID_1977_"><path id="XMLID_1978_" d="M461 143.4c6.7 0 12.2-5.5 12.2-12.2V119h-24.4v12.2c0 6.8 5.5 12.2 12.2 12.2z"/></g><path id="XMLID_1976_" d="M489.2 143.4c6.7 0 12.2-5.5 12.2-12.2V119H477v12.2c0 6.8 5.5 12.2 12.2 12.2z"/><g id="XMLID_1974_"><path id="XMLID_1975_" d="M517.4 143.4c6.7 0 12.2-5.5 12.2-12.2V119h-24.4v12.2c0 6.8 5.5 12.2 12.2 12.2z"/></g><g id="XMLID_1972_"><path id="XMLID_1973_" d="M545.6 143.4c6.7 0 12.2-5.5 12.2-12.2V119h-24.4v12.2c0 6.8 5.4 12.2 12.2 12.2z"/></g><path id="XMLID_1971_" d="M573.8 143.4c6.7 0 12.2-5.5 12.2-12.2V119h-24.4v12.2c0 6.8 5.4 12.2 12.2 12.2z"/><g id="XMLID_1969_"><path id="XMLID_1970_" d="M602 143.4c6.7 0 12.2-5.5 12.2-12.2V119h-24.4v12.2c-.1 6.8 5.4 12.2 12.2 12.2z"/></g><g id="XMLID_1967_"><path id="XMLID_1968_" d="M630.1 143.4c6.7 0 12.2-5.5 12.2-12.2V119h-24.4v12.2c0 6.8 5.5 12.2 12.2 12.2z"/></g><path id="XMLID_1966_" d="M658.3 143.4c6.7 0 12.2-5.5 12.2-12.2V119h-24.4v12.2c0 6.8 5.5 12.2 12.2 12.2z"/><g id="XMLID_1964_"><path id="XMLID_1965_" d="M686.5 143.4c6.7 0 12.2-5.5 12.2-12.2V119h-24.4v12.2c0 6.8 5.5 12.2 12.2 12.2z"/></g><path id="XMLID_1963_" d="M714.7 143.4c6.7 0 12.2-5.5 12.2-12.2V119h-24.4v12.2c0 6.8 5.4 12.2 12.2 12.2z"/><g id="XMLID_1961_"><path id="XMLID_1962_" d="M742.9 143.4c6.7 0 12.2-5.5 12.2-12.2V119h-24.4v12.2c0 6.8 5.4 12.2 12.2 12.2z"/></g><path id="XMLID_1960_" d="M771.1 143.4c6.7 0 12.2-5.5 12.2-12.2V119h-24.4v12.2c-.1 6.8 5.4 12.2 12.2 12.2z"/><g id="XMLID_1958_"><path id="XMLID_1959_" d="M799.2 143.4c6.7 0 12.2-5.5 12.2-12.2V119H787v12.2c0 6.8 5.5 12.2 12.2 12.2z"/></g><path id="XMLID_1957_" d="M827.4 143.4c6.7 0 12.2-5.5 12.2-12.2V119h-24.4v12.2c0 6.8 5.5 12.2 12.2 12.2z"/><g id="XMLID_1955_"><path id="XMLID_1956_" d="M855.6 143.4c6.7 0 12.2-5.5 12.2-12.2V119h-24.4v12.2c0 6.8 5.5 12.2 12.2 12.2z"/></g><path id="XMLID_1954_" d="M883.8 143.4c6.7 0 12.2-5.5 12.2-12.2V119h-24.4v12.2c0 6.8 5.5 12.2 12.2 12.2z"/><path id="XMLID_1953_" d="M912 143.4c6.7 0 12.2-5.5 12.2-12.2V119h-24.4v12.2c0 6.8 5.4 12.2 12.2 12.2z"/><g id="XMLID_1951_"><path id="XMLID_1952_" d="M940.2 143.4c6.7 0 12.2-5.5 12.2-12.2V119H928v12.2c0 6.8 5.4 12.2 12.2 12.2z"/></g></g></g><g id="XMLID_1895_"><g id="XMLID_1896_"><path id="XMLID_1948_" d="M104 115.3c6.7 0 12.2-5.5 12.2-12.2V90.8H91.8V103c0 6.8 5.5 12.3 12.2 12.3z"/><g id="XMLID_1946_"><path id="XMLID_1947_" d="M132.2 115.3c6.7 0 12.2-5.5 12.2-12.2V90.8H120V103c0 6.8 5.5 12.3 12.2 12.3z"/></g><g id="XMLID_1944_"><path id="XMLID_1945_" d="M160.4 115.3c6.7 0 12.2-5.5 12.2-12.2V90.8h-24.4V103c0 6.8 5.4 12.3 12.2 12.3z"/></g><path id="XMLID_1943_" d="M19 115.3c6.7 0 12.2-5.5 12.2-12.2V90.8H6.8V103c0 6.8 5.5 12.3 12.2 12.3z"/><g id="XMLID_1941_"><path id="XMLID_1942_" d="M47.2 115.3c6.7 0 12.2-5.5 12.2-12.2V90.8H35V103c0 6.8 5.5 12.3 12.2 12.3z"/></g><g id="XMLID_1939_"><path id="XMLID_1940_" d="M75.4 115.3c6.7 0 12.2-5.5 12.2-12.2V90.8H63.2V103c0 6.8 5.4 12.3 12.2 12.3z"/></g><path id="XMLID_1938_" d="M188.6 115.3c6.7 0 12.2-5.5 12.2-12.2V90.8h-24.4V103c0 6.8 5.4 12.3 12.2 12.3z"/><g id="XMLID_1936_"><path id="XMLID_1937_" d="M216.8 115.3c6.7 0 12.2-5.5 12.2-12.2V90.8h-24.4V103c-.1 6.8 5.4 12.3 12.2 12.3z"/></g><path id="XMLID_1935_" d="M244.9 115.3c6.7 0 12.2-5.5 12.2-12.2V90.8h-24.4V103c0 6.8 5.5 12.3 12.2 12.3z"/><g id="XMLID_1933_"><path id="XMLID_1934_" d="M273.1 115.3c6.7 0 12.2-5.5 12.2-12.2V90.8h-24.4V103c0 6.8 5.5 12.3 12.2 12.3z"/></g><path id="XMLID_1932_" d="M301.3 115.3c6.7 0 12.2-5.5 12.2-12.2V90.8h-24.4V103c0 6.8 5.5 12.3 12.2 12.3z"/><g id="XMLID_1930_"><path id="XMLID_1931_" d="M329.5 115.3c6.7 0 12.2-5.5 12.2-12.2V90.8h-24.4V103c0 6.8 5.5 12.3 12.2 12.3z"/></g><g id="XMLID_1928_"><path id="XMLID_1929_" d="M357.7 115.3c6.7 0 12.2-5.5 12.2-12.2V90.8h-24.4V103c0 6.8 5.4 12.3 12.2 12.3z"/></g><path id="XMLID_1927_" d="M385.9 115.3c6.7 0 12.2-5.5 12.2-12.2V90.8h-24.4V103c0 6.8 5.4 12.3 12.2 12.3z"/><g id="XMLID_1925_"><path id="XMLID_1926_" d="M414.1 115.3c6.7 0 12.2-5.5 12.2-12.2V90.8h-24.4V103c-.1 6.8 5.4 12.3 12.2 12.3z"/></g><path id="XMLID_1924_" d="M442.2 115.3c6.7 0 12.2-5.5 12.2-12.2V90.8H430V103c0 6.8 5.5 12.3 12.2 12.3z"/><path id="XMLID_1923_" d="M470.4 115.3c6.7 0 12.2-5.5 12.2-12.2V90.8h-24.4V103c0 6.8 5.5 12.3 12.2 12.3z"/><g id="XMLID_1921_"><path id="XMLID_1922_" d="M498.6 115.3c6.7 0 12.2-5.5 12.2-12.2V90.8h-24.4V103c0 6.8 5.5 12.3 12.2 12.3z"/></g><path id="XMLID_1920_" d="M526.8 115.3c6.7 0 12.2-5.5 12.2-12.2V90.8h-24.4V103c0 6.8 5.4 12.3 12.2 12.3z"/><g id="XMLID_1918_"><path id="XMLID_1919_" d="M555 115.3c6.7 0 12.2-5.5 12.2-12.2V90.8h-24.4V103c0 6.8 5.4 12.3 12.2 12.3z"/></g><g id="XMLID_1916_"><path id="XMLID_1917_" d="M583.2 115.3c6.7 0 12.2-5.5 12.2-12.2V90.8H571V103c-.1 6.8 5.4 12.3 12.2 12.3z"/></g><g id="XMLID_1914_"><path id="XMLID_1915_" d="M611.3 115.3c6.7 0 12.2-5.5 12.2-12.2V90.8h-24.4V103c0 6.8 5.5 12.3 12.2 12.3z"/></g><path id="XMLID_1913_" d="M639.5 115.3c6.7 0 12.2-5.5 12.2-12.2V90.8h-24.4V103c0 6.8 5.5 12.3 12.2 12.3z"/><g id="XMLID_1911_"><path id="XMLID_1912_" d="M667.7 115.3c6.7 0 12.2-5.5 12.2-12.2V90.8h-24.4V103c0 6.8 5.5 12.3 12.2 12.3z"/></g><path id="XMLID_1910_" d="M695.9 115.3c6.7 0 12.2-5.5 12.2-12.2V90.8h-24.4V103c0 6.8 5.5 12.3 12.2 12.3z"/><g id="XMLID_1908_"><path id="XMLID_1909_" d="M724.1 115.3c6.7 0 12.2-5.5 12.2-12.2V90.8h-24.4V103c0 6.8 5.4 12.3 12.2 12.3z"/></g><path id="XMLID_1907_" d="M752.3 115.3c6.7 0 12.2-5.5 12.2-12.2V90.8h-24.4V103c0 6.8 5.4 12.3 12.2 12.3z"/><g id="XMLID_1905_"><path id="XMLID_1906_" d="M780.5 115.3c6.7 0 12.2-5.5 12.2-12.2V90.8h-24.4V103c-.1 6.8 5.4 12.3 12.2 12.3z"/></g><path id="XMLID_1904_" d="M808.6 115.3c6.7 0 12.2-5.5 12.2-12.2V90.8h-24.4V103c0 6.8 5.5 12.3 12.2 12.3z"/><g id="XMLID_1902_"><path id="XMLID_1903_" d="M836.8 115.3c6.7 0 12.2-5.5 12.2-12.2V90.8h-24.4V103c0 6.8 5.5 12.3 12.2 12.3z"/></g><path id="XMLID_1901_" d="M865 115.3c6.7 0 12.2-5.5 12.2-12.2V90.8h-24.4V103c0 6.8 5.5 12.3 12.2 12.3z"/><g id="XMLID_1899_"><path id="XMLID_1900_" d="M893.2 115.3c6.7 0 12.2-5.5 12.2-12.2V90.8H881V103c0 6.8 5.4 12.3 12.2 12.3z"/></g><g id="XMLID_1897_"><path id="XMLID_1898_" d="M921.4 115.3c6.7 0 12.2-5.5 12.2-12.2V90.8h-24.4V103c0 6.8 5.4 12.3 12.2 12.3z"/></g></g></g><g id="XMLID_1841_"><g id="XMLID_1842_"><path id="XMLID_1894_" d="M104 171.6c6.7 0 12.2-5.5 12.2-12.2v-12.2H91.8v12.2c0 6.8 5.5 12.2 12.2 12.2z"/><g id="XMLID_1892_"><path id="XMLID_1893_" d="M132.2 171.6c6.7 0 12.2-5.5 12.2-12.2v-12.2H120v12.2c0 6.8 5.5 12.2 12.2 12.2z"/></g><path id="XMLID_1891_" d="M160.4 171.6c6.7 0 12.2-5.5 12.2-12.2v-12.2h-24.4v12.2c0 6.8 5.4 12.2 12.2 12.2z"/><g id="XMLID_1889_"><path id="XMLID_1890_" d="M188.6 171.6c6.7 0 12.2-5.5 12.2-12.2v-12.2h-24.4v12.2c0 6.8 5.4 12.2 12.2 12.2z"/></g><g id="XMLID_1887_"><path id="XMLID_1888_" d="M216.8 171.6c6.7 0 12.2-5.5 12.2-12.2v-12.2h-24.4v12.2c-.1 6.8 5.4 12.2 12.2 12.2z"/></g><g id="XMLID_1885_"><path id="XMLID_1886_" d="M244.9 171.6c6.7 0 12.2-5.5 12.2-12.2v-12.2h-24.4v12.2c0 6.8 5.5 12.2 12.2 12.2z"/></g><g id="XMLID_1883_"><path id="XMLID_1884_" d="M273.1 171.6c6.7 0 12.2-5.5 12.2-12.2v-12.2h-24.4v12.2c0 6.8 5.5 12.2 12.2 12.2z"/></g><path id="XMLID_1882_" d="M301.3 171.6c6.7 0 12.2-5.5 12.2-12.2v-12.2h-24.4v12.2c0 6.8 5.5 12.2 12.2 12.2z"/><g id="XMLID_1880_"><path id="XMLID_1881_" d="M329.5 171.6c6.7 0 12.2-5.5 12.2-12.2v-12.2h-24.4v12.2c0 6.8 5.5 12.2 12.2 12.2z"/></g><path id="XMLID_1879_" d="M357.7 171.6c6.7 0 12.2-5.5 12.2-12.2v-12.2h-24.4v12.2c0 6.8 5.4 12.2 12.2 12.2z"/><g id="XMLID_1877_"><path id="XMLID_1878_" d="M385.9 171.6c6.7 0 12.2-5.5 12.2-12.2v-12.2h-24.4v12.2c0 6.8 5.4 12.2 12.2 12.2z"/></g><g id="XMLID_1875_"><path id="XMLID_1876_" d="M414.1 171.6c6.7 0 12.2-5.5 12.2-12.2v-12.2h-24.4v12.2c-.1 6.8 5.4 12.2 12.2 12.2z"/></g><path id="XMLID_1874_" d="M442.2 171.6c6.7 0 12.2-5.5 12.2-12.2v-12.2H430v12.2c0 6.8 5.5 12.2 12.2 12.2z"/><g id="XMLID_1872_"><path id="XMLID_1873_" d="M470.4 171.6c6.7 0 12.2-5.5 12.2-12.2v-12.2h-24.4v12.2c0 6.8 5.5 12.2 12.2 12.2z"/></g><path id="XMLID_1871_" d="M498.6 171.6c6.7 0 12.2-5.5 12.2-12.2v-12.2h-24.4v12.2c0 6.8 5.5 12.2 12.2 12.2z"/><g id="XMLID_1869_"><path id="XMLID_1870_" d="M526.8 171.6c6.7 0 12.2-5.5 12.2-12.2v-12.2h-24.4v12.2c0 6.8 5.4 12.2 12.2 12.2z"/></g><g id="XMLID_1867_"><path id="XMLID_1868_" d="M555 171.6c6.7 0 12.2-5.5 12.2-12.2v-12.2h-24.4v12.2c0 6.8 5.4 12.2 12.2 12.2z"/></g><g id="XMLID_1865_"><path id="XMLID_1866_" d="M583.2 171.6c6.7 0 12.2-5.5 12.2-12.2v-12.2H571v12.2c-.1 6.8 5.4 12.2 12.2 12.2z"/></g><path id="XMLID_1864_" d="M611.3 171.6c6.7 0 12.2-5.5 12.2-12.2v-12.2h-24.4v12.2c0 6.8 5.5 12.2 12.2 12.2z"/><g id="XMLID_1862_"><path id="XMLID_1863_" d="M639.5 171.6c6.7 0 12.2-5.5 12.2-12.2v-12.2h-24.4v12.2c0 6.8 5.5 12.2 12.2 12.2z"/></g><path id="XMLID_1861_" d="M667.7 171.6c6.7 0 12.2-5.5 12.2-12.2v-12.2h-24.4v12.2c0 6.8 5.5 12.2 12.2 12.2z"/><g id="XMLID_1859_"><path id="XMLID_1860_" d="M695.9 171.6c6.7 0 12.2-5.5 12.2-12.2v-12.2h-24.4v12.2c0 6.8 5.5 12.2 12.2 12.2z"/></g><g id="XMLID_1857_"><path id="XMLID_1858_" d="M724.1 171.6c6.7 0 12.2-5.5 12.2-12.2v-12.2h-24.4v12.2c0 6.8 5.4 12.2 12.2 12.2z"/></g><path id="XMLID_1856_" d="M752.3 171.6c6.7 0 12.2-5.5 12.2-12.2v-12.2h-24.4v12.2c0 6.8 5.4 12.2 12.2 12.2z"/><g id="XMLID_1854_"><path id="XMLID_1855_" d="M780.5 171.6c6.7 0 12.2-5.5 12.2-12.2v-12.2h-24.4v12.2c-.1 6.8 5.4 12.2 12.2 12.2z"/></g><path id="XMLID_1853_" d="M808.6 171.6c6.7 0 12.2-5.5 12.2-12.2v-12.2h-24.4v12.2c0 6.8 5.5 12.2 12.2 12.2z"/><g id="XMLID_1851_"><path id="XMLID_1852_" d="M836.8 171.6c6.7 0 12.2-5.5 12.2-12.2v-12.2h-24.4v12.2c0 6.8 5.5 12.2 12.2 12.2z"/></g><path id="XMLID_1850_" d="M865 171.6c6.7 0 12.2-5.5 12.2-12.2v-12.2h-24.4v12.2c0 6.8 5.5 12.2 12.2 12.2z"/><g id="XMLID_1848_"><path id="XMLID_1849_" d="M893.2 171.6c6.7 0 12.2-5.5 12.2-12.2v-12.2H881v12.2c0 6.8 5.4 12.2 12.2 12.2z"/></g><path id="XMLID_1847_" d="M921.4 171.6c6.7 0 12.2-5.5 12.2-12.2v-12.2h-24.4v12.2c0 6.8 5.4 12.2 12.2 12.2z"/><g id="XMLID_1845_"><path id="XMLID_1846_" d="M949.6 171.6c6.7 0 12.2-5.5 12.2-12.2v-12.2h-24.4v12.2c-.1 6.8 5.4 12.2 12.2 12.2z"/></g><g id="XMLID_1843_"><path id="XMLID_1844_" d="M977.7 171.6c6.7 0 12.2-5.5 12.2-12.2v-12.2h-24.4v12.2c0 6.8 5.5 12.2 12.2 12.2z"/></g></g></g></g></g><g id="XMLID_3944_" class="st8"><g id="XMLID_3967_"><g id="XMLID_833_"><g id="XMLID_959_"><path id="XMLID_960_" class="st9" d="M122.8 142.4c6.7 0 12.2-5.5 12.2-12.2V118h-24.4v12.2c0 6.8 5.5 12.2 12.2 12.2z"/></g><path id="XMLID_958_" class="st10" d="M151 142.4c6.7 0 12.2-5.5 12.2-12.2V118h-24.4v12.2c0 6.8 5.4 12.2 12.2 12.2z"/><g id="XMLID_956_"><path id="XMLID_957_" class="st11" d="M179.2 142.4c6.7 0 12.2-5.5 12.2-12.2V118H167v12.2c0 6.8 5.4 12.2 12.2 12.2z"/></g><path id="XMLID_955_" class="st10" d="M37.8 142.4c6.7 0 12.2-5.5 12.2-12.2V118H25.6v12.2c0 6.8 5.5 12.2 12.2 12.2z"/><path id="XMLID_954_" class="st10" d="M66 142.4c6.7 0 12.2-5.5 12.2-12.2V118H53.8v12.2c0 6.8 5.4 12.2 12.2 12.2z"/><g id="XMLID_925_"><path id="XMLID_926_" class="st11" d="M94.2 142.4c6.7 0 12.2-5.5 12.2-12.2V118H82v12.2c0 6.8 5.4 12.2 12.2 12.2z"/></g><g id="XMLID_923_"><path id="XMLID_924_" class="st12" d="M207.4 142.4c6.7 0 12.2-5.5 12.2-12.2V118h-24.4v12.2c-.1 6.8 5.4 12.2 12.2 12.2z"/></g><path id="XMLID_922_" class="st10" d="M235.5 142.4c6.7 0 12.2-5.5 12.2-12.2V118h-24.4v12.2c0 6.8 5.5 12.2 12.2 12.2z"/><g id="XMLID_920_"><path id="XMLID_921_" class="st13" d="M263.7 142.4c6.7 0 12.2-5.5 12.2-12.2V118h-24.4v12.2c0 6.8 5.5 12.2 12.2 12.2z"/></g><g id="XMLID_871_"><path id="XMLID_872_" class="st14" d="M291.9 142.4c6.7 0 12.2-5.5 12.2-12.2V118h-24.4v12.2c0 6.8 5.5 12.2 12.2 12.2z"/></g><g id="XMLID_869_"><path id="XMLID_870_" class="st9" d="M320.1 142.4c6.7 0 12.2-5.5 12.2-12.2V118h-24.4v12.2c0 6.8 5.5 12.2 12.2 12.2z"/></g><g id="XMLID_867_"><path id="XMLID_868_" class="st11" d="M348.3 142.4c6.7 0 12.2-5.5 12.2-12.2V118h-24.4v12.2c0 6.8 5.4 12.2 12.2 12.2z"/></g><g id="XMLID_865_"><path id="XMLID_866_" class="st14" d="M376.5 142.4c6.7 0 12.2-5.5 12.2-12.2V118h-24.4v12.2c0 6.8 5.4 12.2 12.2 12.2z"/></g><path id="XMLID_864_" class="st10" d="M404.7 142.4c6.7 0 12.2-5.5 12.2-12.2V118h-24.4v12.2c-.1 6.8 5.4 12.2 12.2 12.2z"/><g id="XMLID_862_"><path id="XMLID_863_" class="st13" d="M432.8 142.4c6.7 0 12.2-5.5 12.2-12.2V118h-24.4v12.2c0 6.8 5.5 12.2 12.2 12.2z"/></g><g id="XMLID_860_"><path id="XMLID_861_" class="st14" d="M461 142.4c6.7 0 12.2-5.5 12.2-12.2V118h-24.4v12.2c0 6.8 5.5 12.2 12.2 12.2z"/></g><path id="XMLID_859_" class="st10" d="M489.2 142.4c6.7 0 12.2-5.5 12.2-12.2V118H477v12.2c0 6.8 5.5 12.2 12.2 12.2z"/><g id="XMLID_857_"><path id="XMLID_858_" class="st12" d="M517.4 142.4c6.7 0 12.2-5.5 12.2-12.2V118h-24.4v12.2c0 6.8 5.5 12.2 12.2 12.2z"/></g><g id="XMLID_855_"><path id="XMLID_856_" class="st13" d="M545.6 142.4c6.7 0 12.2-5.5 12.2-12.2V118h-24.4v12.2c0 6.8 5.4 12.2 12.2 12.2z"/></g><path id="XMLID_854_" class="st10" d="M573.8 142.4c6.7 0 12.2-5.5 12.2-12.2V118h-24.4v12.2c0 6.8 5.4 12.2 12.2 12.2z"/><g id="XMLID_852_"><path id="XMLID_853_" class="st14" d="M602 142.4c6.7 0 12.2-5.5 12.2-12.2V118h-24.4v12.2c-.1 6.8 5.4 12.2 12.2 12.2z"/></g><g id="XMLID_850_"><path id="XMLID_851_" class="st14" d="M630.1 142.4c6.7 0 12.2-5.5 12.2-12.2V118h-24.4v12.2c0 6.8 5.5 12.2 12.2 12.2z"/></g><path id="XMLID_849_" class="st10" d="M658.3 142.4c6.7 0 12.2-5.5 12.2-12.2V118h-24.4v12.2c0 6.8 5.5 12.2 12.2 12.2z"/><g id="XMLID_847_"><path id="XMLID_848_" class="st9" d="M686.5 142.4c6.7 0 12.2-5.5 12.2-12.2V118h-24.4v12.2c0 6.8 5.5 12.2 12.2 12.2z"/></g><path id="XMLID_846_" class="st10" d="M714.7 142.4c6.7 0 12.2-5.5 12.2-12.2V118h-24.4v12.2c0 6.8 5.4 12.2 12.2 12.2z"/><g id="XMLID_844_"><path id="XMLID_845_" class="st12" d="M742.9 142.4c6.7 0 12.2-5.5 12.2-12.2V118h-24.4v12.2c0 6.8 5.4 12.2 12.2 12.2z"/></g><path id="XMLID_843_" class="st10" d="M771.1 142.4c6.7 0 12.2-5.5 12.2-12.2V118h-24.4v12.2c-.1 6.8 5.4 12.2 12.2 12.2z"/><g id="XMLID_841_"><path id="XMLID_842_" class="st13" d="M799.2 142.4c6.7 0 12.2-5.5 12.2-12.2V118H787v12.2c0 6.8 5.5 12.2 12.2 12.2z"/></g><path id="XMLID_840_" class="st10" d="M827.4 142.4c6.7 0 12.2-5.5 12.2-12.2V118h-24.4v12.2c0 6.8 5.5 12.2 12.2 12.2z"/><g id="XMLID_838_"><path id="XMLID_839_" class="st9" d="M855.6 142.4c6.7 0 12.2-5.5 12.2-12.2V118h-24.4v12.2c0 6.8 5.5 12.2 12.2 12.2z"/></g><path id="XMLID_837_" class="st10" d="M883.8 142.4c6.7 0 12.2-5.5 12.2-12.2V118h-24.4v12.2c0 6.8 5.5 12.2 12.2 12.2z"/><path id="XMLID_836_" class="st10" d="M912 142.4c6.7 0 12.2-5.5 12.2-12.2V118h-24.4v12.2c0 6.8 5.4 12.2 12.2 12.2z"/><g id="XMLID_834_"><path id="XMLID_835_" class="st11" d="M940.2 142.4c6.7 0 12.2-5.5 12.2-12.2V118H928v12.2c0 6.8 5.4 12.2 12.2 12.2z"/></g></g></g><g id="XMLID_4010_"><g id="XMLID_765_"><path id="XMLID_825_" class="st10" d="M104 114.3c6.7 0 12.2-5.5 12.2-12.2V89.8H91.8V102c0 6.8 5.5 12.3 12.2 12.3z"/><g id="XMLID_823_"><path id="XMLID_824_" class="st11" d="M132.2 114.3c6.7 0 12.2-5.5 12.2-12.2V89.8H120V102c0 6.8 5.5 12.3 12.2 12.3z"/></g><g id="XMLID_821_"><path id="XMLID_822_" class="st14" d="M160.4 114.3c6.7 0 12.2-5.5 12.2-12.2V89.8h-24.4V102c0 6.8 5.4 12.3 12.2 12.3z"/></g><path id="XMLID_820_" class="st10" d="M19 114.3c6.7 0 12.2-5.5 12.2-12.2V89.8H6.8V102c0 6.8 5.5 12.3 12.2 12.3z"/><g id="XMLID_818_"><path id="XMLID_819_" class="st13" d="M47.2 114.3c6.7 0 12.2-5.5 12.2-12.2V89.8H35V102c0 6.8 5.5 12.3 12.2 12.3z"/></g><g id="XMLID_816_"><path id="XMLID_817_" class="st14" d="M75.4 114.3c6.7 0 12.2-5.5 12.2-12.2V89.8H63.2V102c0 6.8 5.4 12.3 12.2 12.3z"/></g><path id="XMLID_807_" class="st10" d="M188.6 114.3c6.7 0 12.2-5.5 12.2-12.2V89.8h-24.4V102c0 6.8 5.4 12.3 12.2 12.3z"/><g id="XMLID_805_"><path id="XMLID_806_" class="st9" d="M216.8 114.3c6.7 0 12.2-5.5 12.2-12.2V89.8h-24.4V102c-.1 6.8 5.4 12.3 12.2 12.3z"/></g><path id="XMLID_804_" class="st10" d="M244.9 114.3c6.7 0 12.2-5.5 12.2-12.2V89.8h-24.4V102c0 6.8 5.5 12.3 12.2 12.3z"/><g id="XMLID_802_"><path id="XMLID_803_" class="st9" d="M273.1 114.3c6.7 0 12.2-5.5 12.2-12.2V89.8h-24.4V102c0 6.8 5.5 12.3 12.2 12.3z"/></g><path id="XMLID_801_" class="st10" d="M301.3 114.3c6.7 0 12.2-5.5 12.2-12.2V89.8h-24.4V102c0 6.8 5.5 12.3 12.2 12.3z"/><g id="XMLID_799_"><path id="XMLID_800_" class="st11" d="M329.5 114.3c6.7 0 12.2-5.5 12.2-12.2V89.8h-24.4V102c0 6.8 5.5 12.3 12.2 12.3z"/></g><g id="XMLID_797_"><path id="XMLID_798_" class="st9" d="M357.7 114.3c6.7 0 12.2-5.5 12.2-12.2V89.8h-24.4V102c0 6.8 5.4 12.3 12.2 12.3z"/></g><path id="XMLID_796_" class="st10" d="M385.9 114.3c6.7 0 12.2-5.5 12.2-12.2V89.8h-24.4V102c0 6.8 5.4 12.3 12.2 12.3z"/><g id="XMLID_794_"><path id="XMLID_795_" class="st14" d="M414.1 114.3c6.7 0 12.2-5.5 12.2-12.2V89.8h-24.4V102c-.1 6.8 5.4 12.3 12.2 12.3z"/></g><path id="XMLID_793_" class="st10" d="M442.2 114.3c6.7 0 12.2-5.5 12.2-12.2V89.8H430V102c0 6.8 5.5 12.3 12.2 12.3z"/><path id="XMLID_792_" class="st10" d="M470.4 114.3c6.7 0 12.2-5.5 12.2-12.2V89.8h-24.4V102c0 6.8 5.5 12.3 12.2 12.3z"/><g id="XMLID_790_"><path id="XMLID_791_" class="st9" d="M498.6 114.3c6.7 0 12.2-5.5 12.2-12.2V89.8h-24.4V102c0 6.8 5.5 12.3 12.2 12.3z"/></g><path id="XMLID_789_" class="st10" d="M526.8 114.3c6.7 0 12.2-5.5 12.2-12.2V89.8h-24.4V102c0 6.8 5.4 12.3 12.2 12.3z"/><g id="XMLID_787_"><path id="XMLID_788_" class="st14" d="M555 114.3c6.7 0 12.2-5.5 12.2-12.2V89.8h-24.4V102c0 6.8 5.4 12.3 12.2 12.3z"/></g><g id="XMLID_785_"><path id="XMLID_786_" class="st13" d="M583.2 114.3c6.7 0 12.2-5.5 12.2-12.2V89.8H571V102c-.1 6.8 5.4 12.3 12.2 12.3z"/></g><g id="XMLID_783_"><path id="XMLID_784_" class="st9" d="M611.3 114.3c6.7 0 12.2-5.5 12.2-12.2V89.8h-24.4V102c0 6.8 5.5 12.3 12.2 12.3z"/></g><path id="XMLID_782_" class="st10" d="M639.5 114.3c6.7 0 12.2-5.5 12.2-12.2V89.8h-24.4V102c0 6.8 5.5 12.3 12.2 12.3z"/><g id="XMLID_780_"><path id="XMLID_781_" class="st9" d="M667.7 114.3c6.7 0 12.2-5.5 12.2-12.2V89.8h-24.4V102c0 6.8 5.5 12.3 12.2 12.3z"/></g><path id="XMLID_779_" class="st10" d="M695.9 114.3c6.7 0 12.2-5.5 12.2-12.2V89.8h-24.4V102c0 6.8 5.5 12.3 12.2 12.3z"/><g id="XMLID_777_"><path id="XMLID_778_" class="st14" d="M724.1 114.3c6.7 0 12.2-5.5 12.2-12.2V89.8h-24.4V102c0 6.8 5.4 12.3 12.2 12.3z"/></g><path id="XMLID_776_" class="st10" d="M752.3 114.3c6.7 0 12.2-5.5 12.2-12.2V89.8h-24.4V102c0 6.8 5.4 12.3 12.2 12.3z"/><g id="XMLID_774_"><path id="XMLID_775_" class="st14" d="M780.5 114.3c6.7 0 12.2-5.5 12.2-12.2V89.8h-24.4V102c-.1 6.8 5.4 12.3 12.2 12.3z"/></g><path id="XMLID_773_" class="st10" d="M808.6 114.3c6.7 0 12.2-5.5 12.2-12.2V89.8h-24.4V102c0 6.8 5.5 12.3 12.2 12.3z"/><g id="XMLID_771_"><path id="XMLID_772_" class="st12" d="M836.8 114.3c6.7 0 12.2-5.5 12.2-12.2V89.8h-24.4V102c0 6.8 5.5 12.3 12.2 12.3z"/></g><path id="XMLID_770_" class="st10" d="M865 114.3c6.7 0 12.2-5.5 12.2-12.2V89.8h-24.4V102c0 6.8 5.5 12.3 12.2 12.3z"/><g id="XMLID_768_"><path id="XMLID_769_" class="st13" d="M893.2 114.3c6.7 0 12.2-5.5 12.2-12.2V89.8H881V102c0 6.8 5.4 12.3 12.2 12.3z"/></g><g id="XMLID_766_"><path id="XMLID_767_" class="st14" d="M921.4 114.3c6.7 0 12.2-5.5 12.2-12.2V89.8h-24.4V102c0 6.8 5.4 12.3 12.2 12.3z"/></g></g></g><g id="XMLID_4051_"><g id="XMLID_808_"><path id="XMLID_953_" class="st10" d="M104 170.6c6.7 0 12.2-5.5 12.2-12.2v-12.2H91.8v12.2c0 6.8 5.5 12.2 12.2 12.2z"/><g id="XMLID_951_"><path id="XMLID_952_" class="st12" d="M132.2 170.6c6.7 0 12.2-5.5 12.2-12.2v-12.2H120v12.2c0 6.8 5.5 12.2 12.2 12.2z"/></g><path id="XMLID_950_" class="st10" d="M160.4 170.6c6.7 0 12.2-5.5 12.2-12.2v-12.2h-24.4v12.2c0 6.8 5.4 12.2 12.2 12.2z"/><g id="XMLID_948_"><path id="XMLID_949_" class="st12" d="M188.6 170.6c6.7 0 12.2-5.5 12.2-12.2v-12.2h-24.4v12.2c0 6.8 5.4 12.2 12.2 12.2z"/></g><g id="XMLID_946_"><path id="XMLID_947_" class="st14" d="M216.8 170.6c6.7 0 12.2-5.5 12.2-12.2v-12.2h-24.4v12.2c-.1 6.8 5.4 12.2 12.2 12.2z"/></g><g id="XMLID_944_"><path id="XMLID_945_" class="st13" d="M244.9 170.6c6.7 0 12.2-5.5 12.2-12.2v-12.2h-24.4v12.2c0 6.8 5.5 12.2 12.2 12.2z"/></g><g id="XMLID_942_"><path id="XMLID_943_" class="st9" d="M273.1 170.6c6.7 0 12.2-5.5 12.2-12.2v-12.2h-24.4v12.2c0 6.8 5.5 12.2 12.2 12.2z"/></g><path id="XMLID_941_" class="st10" d="M301.3 170.6c6.7 0 12.2-5.5 12.2-12.2v-12.2h-24.4v12.2c0 6.8 5.5 12.2 12.2 12.2z"/><g id="XMLID_939_"><path id="XMLID_940_" class="st14" d="M329.5 170.6c6.7 0 12.2-5.5 12.2-12.2v-12.2h-24.4v12.2c0 6.8 5.5 12.2 12.2 12.2z"/></g><path id="XMLID_938_" class="st10" d="M357.7 170.6c6.7 0 12.2-5.5 12.2-12.2v-12.2h-24.4v12.2c0 6.8 5.4 12.2 12.2 12.2z"/><g id="XMLID_936_"><path id="XMLID_937_" class="st12" d="M385.9 170.6c6.7 0 12.2-5.5 12.2-12.2v-12.2h-24.4v12.2c0 6.8 5.4 12.2 12.2 12.2z"/></g><g id="XMLID_934_"><path id="XMLID_935_" class="st9" d="M414.1 170.6c6.7 0 12.2-5.5 12.2-12.2v-12.2h-24.4v12.2c-.1 6.8 5.4 12.2 12.2 12.2z"/></g><path id="XMLID_933_" class="st10" d="M442.2 170.6c6.7 0 12.2-5.5 12.2-12.2v-12.2H430v12.2c0 6.8 5.5 12.2 12.2 12.2z"/><g id="XMLID_931_"><path id="XMLID_932_" class="st13" d="M470.4 170.6c6.7 0 12.2-5.5 12.2-12.2v-12.2h-24.4v12.2c0 6.8 5.5 12.2 12.2 12.2z"/></g><path id="XMLID_930_" class="st10" d="M498.6 170.6c6.7 0 12.2-5.5 12.2-12.2v-12.2h-24.4v12.2c0 6.8 5.5 12.2 12.2 12.2z"/><g id="XMLID_928_"><path id="XMLID_929_" class="st14" d="M526.8 170.6c6.7 0 12.2-5.5 12.2-12.2v-12.2h-24.4v12.2c0 6.8 5.4 12.2 12.2 12.2z"/></g><g id="XMLID_919_"><path id="XMLID_927_" class="st9" d="M555 170.6c6.7 0 12.2-5.5 12.2-12.2v-12.2h-24.4v12.2c0 6.8 5.4 12.2 12.2 12.2z"/></g><g id="XMLID_917_"><path id="XMLID_918_" class="st12" d="M583.2 170.6c6.7 0 12.2-5.5 12.2-12.2v-12.2H571v12.2c-.1 6.8 5.4 12.2 12.2 12.2z"/></g><path id="XMLID_916_" class="st10" d="M611.3 170.6c6.7 0 12.2-5.5 12.2-12.2v-12.2h-24.4v12.2c0 6.8 5.5 12.2 12.2 12.2z"/><g id="XMLID_914_"><path id="XMLID_915_" class="st9" d="M639.5 170.6c6.7 0 12.2-5.5 12.2-12.2v-12.2h-24.4v12.2c0 6.8 5.5 12.2 12.2 12.2z"/></g><path id="XMLID_913_" class="st10" d="M667.7 170.6c6.7 0 12.2-5.5 12.2-12.2v-12.2h-24.4v12.2c0 6.8 5.5 12.2 12.2 12.2z"/><g id="XMLID_911_"><path id="XMLID_912_" class="st13" d="M695.9 170.6c6.7 0 12.2-5.5 12.2-12.2v-12.2h-24.4v12.2c0 6.8 5.5 12.2 12.2 12.2z"/></g><g id="XMLID_909_"><path id="XMLID_910_" class="st14" d="M724.1 170.6c6.7 0 12.2-5.5 12.2-12.2v-12.2h-24.4v12.2c0 6.8 5.4 12.2 12.2 12.2z"/></g><path id="XMLID_908_" class="st10" d="M752.3 170.6c6.7 0 12.2-5.5 12.2-12.2v-12.2h-24.4v12.2c0 6.8 5.4 12.2 12.2 12.2z"/><g id="XMLID_906_"><path id="XMLID_907_" class="st9" d="M780.5 170.6c6.7 0 12.2-5.5 12.2-12.2v-12.2h-24.4v12.2c-.1 6.8 5.4 12.2 12.2 12.2z"/></g><path id="XMLID_905_" class="st10" d="M808.6 170.6c6.7 0 12.2-5.5 12.2-12.2v-12.2h-24.4v12.2c0 6.8 5.5 12.2 12.2 12.2z"/><g id="XMLID_903_"><path id="XMLID_904_" class="st14" d="M836.8 170.6c6.7 0 12.2-5.5 12.2-12.2v-12.2h-24.4v12.2c0 6.8 5.5 12.2 12.2 12.2z"/></g><path id="XMLID_902_" class="st10" d="M865 170.6c6.7 0 12.2-5.5 12.2-12.2v-12.2h-24.4v12.2c0 6.8 5.5 12.2 12.2 12.2z"/><g id="XMLID_814_"><path id="XMLID_815_" class="st12" d="M893.2 170.6c6.7 0 12.2-5.5 12.2-12.2v-12.2H881v12.2c0 6.8 5.4 12.2 12.2 12.2z"/></g><path id="XMLID_813_" class="st10" d="M921.4 170.6c6.7 0 12.2-5.5 12.2-12.2v-12.2h-24.4v12.2c0 6.8 5.4 12.2 12.2 12.2z"/><g id="XMLID_811_"><path id="XMLID_812_" class="st14" d="M949.6 170.6c6.7 0 12.2-5.5 12.2-12.2v-12.2h-24.4v12.2c-.1 6.8 5.4 12.2 12.2 12.2z"/></g><g id="XMLID_809_"><path id="XMLID_810_" class="st13" d="M977.7 170.6c6.7 0 12.2-5.5 12.2-12.2v-12.2h-24.4v12.2c0 6.8 5.5 12.2 12.2 12.2z"/></g></g></g></g></g></svg>