<svg version="1.1" id="HEADER_LOGO" xmlns="http://www.w3.org/2000/svg" x="0px" y="0px" width="647px" height="268px" viewBox="0 0 647 268" preserveAspectRatio="none" xml:space="preserve"><style type="text/css">.st0{fill:#FFFFFF;} .st1{opacity:0.2;} .st2{fill:#FB785E;} .st3{fill:#FB8A74;} .st4{fill:#FB6446;} .st5{fill:#FB917C;} .st6{fill:#FF9F4C;} .st7{fill:#FFB26F;} .st8{fill:#FF8A25;} .st9{fill:#FC8E78;} .st10{fill:#EE5E6C;} .st11{fill:#DC4453;} .st12{fill:#F29100;} .st13{fill:#808080;} .st14{fill:#808285;} .st15{fill:#3B9B3B;} .st16{fill:#941B80;} .st17{fill:#35A8E0;} .st18{fill:#D60B51;} .st19{fill:#4D4D4D;}</style><g id="BACK_2_"><path id="XMLID_1815_" class="st0" d="M323.2 15.3L23 161v107h600V160.8z"/><g id="XMLID_4108_"><g id="XMLID_4111_"><path id="XMLID_4294_" class="st1" d="M75.3 233.5H43.8c-1.1 0-2-.9-2-2v-11.2c0-1.1.9-2 2-2h31.5c1.1 0 2 .9 2 2v11.2c0 1.1-.9 2-2 2z"/><path id="XMLID_4293_" class="st2" d="M76.3 232.5H42.8c-.6 0-1-.4-1-1v-13.2c0-.6.4-1 1-1h33.5c.6 0 1 .4 1 1v13.2c0 .6-.5 1-1 1z"/><path id="XMLID_4292_" class="st3" d="M77.3 218.3H41.8c0-.6.4-1 1-1h33.5c.5 0 1 .4 1 1z"/><path id="XMLID_4291_" class="st4" d="M76.3 232.5H42.8c-.6 0-1-.4-1-1h35.5c0 .6-.5 1-1 1z"/><circle id="XMLID_4112_" class="st5" cx="49.8" cy="223.1" r="0.8"/><circle id="XMLID_4114_" class="st5" cx="58.2" cy="225.3" r="1"/></g><g id="XMLID_4115_"><path id="XMLID_4290_" class="st1" d="M56.7 251.1H25.2c-1.1 0-2-.9-2-2v-11.2c0-1.1.9-2 2-2h31.5c1.1 0 2 .9 2 2v11.2c0 1.1-.9 2-2 2z"/><path id="XMLID_4289_" class="st6" d="M57.7 250.1H24.2c-.6 0-1-.4-1-1v-13.2c0-.6.4-1 1-1h33.5c.6 0 1 .4 1 1v13.2c0 .5-.4 1-1 1z"/><path id="XMLID_4288_" class="st7" d="M58.7 235.9H23.2c0-.6.4-1 1-1h33.5c.6 0 1 .4 1 1z"/><path id="XMLID_4287_" class="st8" d="M57.7 250.1H24.2c-.6 0-1-.4-1-1h35.5c0 .5-.4 1-1 1z"/><circle id="XMLID_4116_" class="st7" cx="28.7" cy="239.5" r="1.4"/><circle id="XMLID_4121_" class="st7" cx="41.2" cy="238.3" r="0.8"/><circle id="XMLID_4122_" class="st7" cx="55.2" cy="239.8" r="1.3"/><circle id="XMLID_4123_" class="st7" cx="52.1" cy="242.8" r="1.5"/></g><g id="XMLID_4124_"><path id="XMLID_4286_" class="st1" d="M94.2 251.2H62.7c-1.1 0-2-.9-2-2V238c0-1.1.9-2 2-2h31.5c1.1 0 2 .9 2 2v11.2c0 1.1-.9 2-2 2z"/><path id="XMLID_4285_" class="st2" d="M95.2 250.2H61.7c-.6 0-1-.4-1-1V236c0-.6.4-1 1-1h33.5c.6 0 1 .4 1 1v13.2c0 .5-.4 1-1 1z"/><path id="XMLID_4284_" class="st4" d="M95.2 250.2H61.7c-.6 0-1-.4-1-1h35.5c0 .5-.4 1-1 1z"/><path id="XMLID_4283_" class="st3" d="M96.2 236H60.7c0-.6.4-1 1-1h33.5c.6 0 1 .4 1 1z"/><circle id="XMLID_4125_" class="st5" cx="91.1" cy="245.3" r="0.8"/><circle id="XMLID_4127_" class="st5" cx="76.3" cy="239.1" r="0.8"/><circle id="XMLID_4128_" class="st5" cx="74.3" cy="243.5" r="0.6"/></g></g><g id="XMLID_4129_"><g id="XMLID_4130_"><path id="XMLID_4282_" class="st1" d="M589.6 234.4h31.5c1.1 0 2-.9 2-2v-11.2c0-1.1-.9-2-2-2h-31.5c-1.1 0-2 .9-2 2v11.2c0 1.1.9 2 2 2z"/><path id="XMLID_4281_" class="st6" d="M588.6 233.4h33.5c.6 0 1-.4 1-1v-13.2c0-.6-.4-1-1-1h-33.5c-.6 0-1 .4-1 1v13.2c0 .5.4 1 1 1z"/><path id="XMLID_4280_" class="st7" d="M587.6 219.2h35.5c0-.6-.4-1-1-1h-33.5c-.6 0-1 .4-1 1z"/><path id="XMLID_4274_" class="st8" d="M588.6 233.4h33.5c.6 0 1-.4 1-1h-35.5c0 .5.4 1 1 1z"/><circle id="XMLID_4131_" class="st7" cx="617.4" cy="223.9" r="0.8"/><circle id="XMLID_4136_" class="st7" cx="602" cy="229.3" r="0.5"/><circle id="XMLID_4137_" class="st7" cx="590.2" cy="229.8" r="0.8"/><circle id="XMLID_4138_" class="st7" cx="593.5" cy="220.8" r="0.4"/></g><g id="XMLID_4139_"><path id="XMLID_4273_" class="st1" d="M607.2 251h13.9c1.1 0 2-.9 2-2v-11.2c0-1.1-.9-2-2-2h-13.9c-1.1 0-2 .9-2 2V249c0 1.1.9 2 2 2z"/><path id="XMLID_4264_" class="st2" d="M606.1 249.6h16c.6 0 1-.4 1-1v-13c0-.6-.4-1-1-1h-16c-.6 0-1 .4-1 1v13c0 .5.4 1 1 1z"/><path id="XMLID_4241_" class="st3" d="M605 235.6h17.9c0-.6-.4-1-1-1H606c-.5 0-1 .4-1 1z"/><path id="XMLID_4240_" class="st4" d="M606 249.6h15.9c.6 0 1-.4 1-1H605c0 .5.5 1 1 1z"/><circle id="XMLID_4140_" class="st3" cx="619.6" cy="239.8" r="1"/><circle id="XMLID_4142_" class="st3" cx="608.1" cy="247.4" r="0.6"/><circle id="XMLID_4143_" class="st3" cx="610.3" cy="244" r="0.6"/></g></g><g id="XMLID_4144_"><g id="XMLID_4146_"><path id="XMLID_4228_" class="st1" d="M356.4 66.3h31.5c1.1 0 2-.9 2-2V53.1c0-1.1-.9-2-2-2h-31.5c-1.1 0-2 .9-2 2v11.2c0 1.1.9 2 2 2z"/><path id="XMLID_4227_" class="st2" d="M355.4 65.3h33.5c.6 0 1-.4 1-1V51.1c0-.6-.4-1-1-1h-33.5c-.6 0-1 .4-1 1v13.2c0 .5.4 1 1 1z"/><path id="XMLID_4226_" class="st3" d="M354.4 51.1h35.5c0-.6-.4-1-1-1h-33.5c-.6 0-1 .4-1 1z"/><circle id="XMLID_4147_" class="st9" cx="382.7" cy="55.5" r="1.1"/><circle id="XMLID_4149_" class="st9" cx="372.7" cy="56.7" r="0.5"/><circle id="XMLID_4150_" class="st9" cx="357.7" cy="53.5" r="0.8"/><path id="XMLID_4225_" class="st4" d="M355.4 65.3h33.5c.6 0 1-.4 1-1h-35.5c0 .5.4 1 1 1z"/></g><g id="XMLID_4151_"><path id="XMLID_4219_" class="st1" d="M339 83.4h31.5c1.1 0 2-.9 2-2V70.2c0-1.1-.9-2-2-2H339c-1.1 0-2 .9-2 2v11.2c0 1.1.9 2 2 2z"/><path id="XMLID_4193_" class="st6" d="M338 82.4h33.5c.6 0 1-.4 1-1V68.2c0-.6-.4-1-1-1H338c-.6 0-1 .4-1 1v13.2c0 .6.5 1 1 1z"/><path id="XMLID_4169_" class="st7" d="M337 68.2h35.5c0-.6-.4-1-1-1H338c-.6 0-1 .4-1 1z"/><path id="XMLID_4168_" class="st8" d="M338 82.4h33.5c.6 0 1-.4 1-1H337c0 .5.4 1 1 1z"/><circle id="XMLID_4152_" class="st8" cx="366" cy="75.3" r="0.8"/><circle id="XMLID_4157_" class="st8" cx="349.1" cy="72.3" r="0.7"/><circle id="XMLID_4158_" class="st8" cx="339" cy="80.2" r="0.4"/><circle id="XMLID_4159_" class="st8" cx="351.5" cy="76.6" r="0.3"/></g></g><path id="XMLID_2016_" class="st10" d="M646.2 156.7L323.8.1l-.4-.1c-.1 0-.4.1-.4.1L.6 156.7c-.5.2-.7.8-.5 1.3L8 174.3c.2.5.8.7 1.3.5L323.4 22.1l314.1 152.6c.5.2 1.1 0 1.3-.5l7.9-16.2c.2-.4 0-1-.5-1.3z"/><path id="XMLID_1917_" class="st1" d="M323.4 22.1L23.2 168v32.1c0 .6.4 1 1 1h13c.6 0 1-.4 1-1v-30.6L323.4 31l284.8 138.4v30.7c0 .6.4 1 1 1h13c.6 0 1-.4 1-1v-32.3L323.4 22.1z"/><path id="XMLID_1776_" class="st11" d="M323.3 15.1L5.8 169.5l3.1 6.3c.2.5.8.7 1.3.5l13-6.3v25.2c0 .6.4 1 1 1h13c.6 0 1-.4 1-1v-32.5L323.4 24l284.8 138.4v32.7c0 .6.4 1 1 1h13c.6 0 1-.4 1-1v-25.4l13.5 6.6c.5.2 1.1 0 1.3-.5l3.1-6.3L323.3 15.1z"/></g><g id="LOGO"><path id="XMLID_4167_" class="st12" d="M149.7 139.4c.5 16.9 5.6 22.9 9.8 23.3 9.1 1 20.1.8 24.4.1 4.3-.6 10-8.3 9.9-21.1-.1-12.8-3.7-21.6-10-22.5-6.3-.9-18.1-.9-25.9.3-4.4.8-8.6 8.9-8.2 19.9z"/><g id="XMLID_4170_"><ellipse id="XMLID_4166_" transform="rotate(1.146 269.729 199.144)" class="st13" cx="269.7" cy="199.1" rx="3.8" ry="5.5"/><path id="XMLID_4165_" class="st13" d="M206.5 203.9c-1.7 2.6-4.5 3.7-6.3 2.6-1.8-1.1-1.9-4.1-.2-6.7 1.7-2.6 4.5-3.7 6.3-2.6 1.8 1.1 1.9 4.1.2 6.7z"/><ellipse id="XMLID_4164_" transform="rotate(1.146 164.089 197.383)" class="st13" cx="164.1" cy="197.4" rx="3.6" ry="5.1"/><path id="XMLID_4171_" class="st13" d="M162.6 202.8c-7.5.7-12.8 26.1-13.3 26.8-.5.8 6.6-12.7 7.1-11.9.5.8.9 35.2 1.1 34.1s2.2-21.8 6.3-22c4.1-.3 6.2 21.5 6.2 21.5s-.2-40.4-.2-39.7c0 .8 12.9 18 12.1 17.7.6-.2-11.5-27.2-19.3-26.5z"/><ellipse id="XMLID_4163_" transform="rotate(1.146 189.9 194.568)" class="st13" cx="189.9" cy="194.6" rx="3.6" ry="5.1"/><ellipse id="XMLID_4162_" transform="rotate(1.174 173.914 189.57) scale(1.00001)" class="st13" cx="173.9" cy="189.6" rx="3.6" ry="5.3"/><path id="XMLID_4172_" class="st13" d="M173.9 195.2c-7.5.8-15.2 30.6-15.7 31.4-.5.8 9-16.9 9.5-16.1.5.8 1.8 42.1 2.1 41 .3-1 1.3-28.3 5.4-28.6 4.1-.3 7.7 26.8 7.7 26.8s-1.8-46.2-1.8-45.4c0 .8 12.9 18.4 12.1 18.2.6-.4-11.6-28.1-19.3-27.3z"/><g id="XMLID_4173_"><ellipse id="XMLID_4174_" transform="matrix(-.02077 .9998 -.9998 -.02077 448.472 -56.684)" class="st13" cx="252" cy="191.3" rx="5.3" ry="3.7"/><path id="XMLID_4175_" class="st14" d="M271.9 225.7s0-.1 0 0c0-.1 0-.1 0 0z"/><path id="XMLID_4176_" class="st13" d="M252 198.3c-.9.1-1.8.6-2.8 1.4-2.5-4.7-5.4-8.2-8.4-7.9-2.8.3-5.6 4-8.1 8.9-1.8-1.6-3.5-2.6-5.1-2.4-1.6.2-3.3 1.6-4.9 3.9-2.7-3.3-5.4-5.5-7.8-5.2-7.6.7-15.4 29.3-16.4 32 1-2 9.4-17 9.9-16.3.5.8 3 39.2 4.1 39.4 2.4.3 40.6-.2 40.6-.2s5.7-16.6 6.2-44.5c0 .8 12 16.9 12.5 18.2-.1-1.9-12.1-28-19.8-27.3z"/><ellipse id="XMLID_4177_" transform="matrix(-.02077 .9998 -.9998 -.02077 423.591 -32.314)" class="st13" cx="227.6" cy="191.3" rx="5.3" ry="3.7"/><ellipse id="XMLID_4178_" transform="matrix(-.02077 .9998 -.9998 -.02077 409.175 -21.239)" class="st13" cx="215" cy="189.8" rx="5.4" ry="3.8"/><path id="XMLID_4179_" class="st14" d="M198.5 229.1s0-.1.1-.2c-.2.2-.2.3-.1.2z"/><path id="XMLID_4180_" class="st13" d="M240.7 189.9c2.3 0 4.1-2.5 4.2-5.8.1-3.2-1.7-5.9-4-5.9s-4.1 2.5-4.2 5.8c0 3.2 1.7 5.9 4 5.9z"/></g><path id="XMLID_4181_" class="st13" d="M258.1 226.3s2.9-11.3 4.9-10.9c2.3.5-3.7 17.6 1.3 35.2l.3.9s2.1-16.6 4.1-16.1c2.1.5 2.8 16.6 2.8 16.6s4.4-10.8 4.4-18.4-1.3-18.2-1.3-18.2 2.6 8.9 7.5 14.2c.8 1-5.2-20.2-5.9-22-.8-1.8-3.4-3.5-7.7-2-4.5 1.5-9.7 3.5-10.4 20.7z"/><path id="XMLID_4182_" class="st13" d="M159.8 195.9l-5.3 1.4 4.8 2.1z"/><path id="XMLID_4183_" class="st13" d="M159.8 192.3l3.3-1.1-4-4.5z"/><path id="XMLID_4184_" class="st13" d="M166.2 191.2l2.4-1.9-.7 4.2z"/><path id="XMLID_4185_" class="st13" d="M181.4 202.7c.5.3 7 11.8 7 11.8l7.3-7.7s-2.2-6.4-6.2-6.2c-4.2.2-8.1 2.1-8.1 2.1z"/><path id="XMLID_4161_" class="st13" d="M192.7 252.9c-.2-.1 3.4-14.5 3.7-17.4.3-2.9.2-6.9-1.9-11.2-2.1-4.3 1.7-11.7 3.5-12.9 1.5 6.6 2.8 13.3 2.8 13.3s-.3-14.5-1-16.7c-.7-2.2-2.6-3.1-6.1-1.5-3.6 1.6-9.5 11.8-9.3 15 .2 3.1 1.7 5 1.4 10.2-.3 5.2-.9 21.1-.9 21.1s1.1-15 4.3-15.3c3.4-.2 3.5 15.4 3.5 15.4z"/><path id="XMLID_4160_" class="st13" d="M206 252.4c.7 0-1.4-22-1.7-25.1-.3-3.1-1.2-4.2-2.9-3.8-1.8.4-3 1.8-2.7 2.8 1.3-1.3 2.3-2 3.3-1.7 2.3.7 3.3 27.8 4 27.8z"/></g><g id="XMLID_4186_"><path id="XMLID_4187_" class="st0" d="M174.2 195.7L171 208l3.2 7.3 2.8-8.1z"/><g id="XMLID_4188_"><path id="XMLID_4189_" class="st0" d="M231 210.3c-9.2.4-8.9 27.5-8.9 27.5s4.6-15.1 5.8-15.6c1.3-.7-1.9 20.9-1.4 44.8 1.8-24.4 2.4-25.8 5.4-25.1 3.9 1 4.6 14.5 6.2 24.5l-2.3-51.8 8.5 20.2c0 .1-5.9-24.7-13.3-24.5z"/><ellipse id="XMLID_4190_" class="st0" cx="229.9" cy="203.7" rx="3.4" ry="4.9"/></g><ellipse id="XMLID_4145_" transform="rotate(8.467 218.53 205.498)" class="st0" cx="218.5" cy="205.5" rx="3.9" ry="5.6"/><path id="XMLID_4191_" class="st0" d="M217.2 239.5c2 .3 1.9 12.5 1.5 22 1.7-4.9 6.2-27.7 3.2-36 .1 3.9 2.6-11 0-11.6-2.6-.6-7.3-3-8.2-1.8-.9 1.2-9.4 14.3-9.1 21.7 3.5-7.1 7.3-12.8 7.3-12.8-1.8 27.5-1.6 22.9.9 35 0-10.7 2.6-16.8 4.4-16.5z"/><path id="XMLID_4194_" class="st0" d="M158.7 206s1.6 5.9.6 9.3c-1.1 3.3-2.6 6.5-2.6 6.5l2.8 3 4-7.6 2.8 7.2 3.8-4.2-5.2-4.6v-10.4s-2.5 5.3-2.7 4.7c0-.4-3.5-3.9-3.5-3.9z"/><path id="XMLID_4195_" class="st0" d="M266.9 227h-7.5s-.5 6.7 1.2 7.1c1.7.4 2-3.2 2-3.2s0 5.6 2.2 4.2c2.4-1.4 2.1-8.1 2.1-8.1z"/><path id="XMLID_4196_" class="st0" d="M266.2 227h7.7s.5 6.7-1.3 7.1c-1.8.4-2-3.2-2-3.2s0 5.6-2.3 4.2c-2.3-1.4-2.1-8.1-2.1-8.1z"/><path id="XMLID_4110_" class="st0" d="M242.6 225.2c.3 2.4 2 4.2 3.8 4 1.8-.2 2.9-2.4 2.6-4.8-.3-2.4-2-4.2-3.8-4-1.8.3-2.9 2.4-2.6 4.8z"/><path id="XMLID_4197_" class="st0" d="M246.2 246.5c3.9 0 2.3 7.6 2.6 4.9-.2.6 2.6.6 1.9-6.3-.5-4.8-2-11.5-2-11.5s5.7-3.5 4.7-8v-.2s-1.3 3.8-3.4 4.3c-2.1.5-7.2-.5-8.6.8-1.3 1.3-3.2 10.4-3.2 10.4l2.9-6.1c0 2.6-.1 11.8 2.8 16.5.4 2.7-1.8-4.8 2.3-4.8z"/><path id="XMLID_4198_" class="st0" d="M255.1 200l-.5 5.7-3.7-3.4-4.4 3.1.3-6.8 4.1 2.7z"/></g><path id="XMLID_4199_" class="st12" d="M174.6 178.1l-9.3-26.3h10.2z"/><path id="XMLID_4686_" class="st0" d="M183.7 135.4c-.7-3.8-4.4-6.4-8.3-5.6-2.7.5-4.8 2.6-5.5 5.1-1.6-2.1-4.2-3.2-7-2.7-3.8.7-6.4 4.4-5.6 8.3.3 1.5 1.1 2.9 2.1 3.8l15.3 12.4 8-15.8c1.1-2 1.4-3.5 1-5.5z"/><path id="XMLID_2184_" class="st15" d="M210 90.5c-8.5-.9-24.2-.8-34.7.4-5.7.6-11.3 8.6-10.9 19.4.7 16.6 7.5 22.4 13 22.8 3.4.3 7 .4 10.5.5l5.7 44.9 4.8-44.8c4.9-.1 9.1-.3 11.6-.5 5.8-.6 13.4-8.2 13.3-20.7-.1-12.5-4.8-21.2-13.3-22z"/><path id="XMLID_4679_" class="st0" d="M209.7 115.5c-2.1 9.1-11.1 14.8-20.2 12.7-9.1-2.1-14.8-11.1-12.7-20.2 2.1-9 11.2-14.7 20.2-12.7 9.1 2.1 14.8 11.1 12.7 20.2zm-12.1 9.6l.4-1.6c.1-.3-.1-.5-.4-.6l-13-3c-.3-.1-.5.1-.6.4l-.4 1.6c-.1.3.1.5.4.6l13 3c.3 0 .6-.2.6-.4zm-1.2-4.2l3.7-14.6c.4-1.6-2.1-5-3-5.3l.2-1c.2-1.1 0-2.1-1.1-2.3-1.1-.2-1.7.5-2 1.6l-.2 1c-2-.3-3.7 2.1-4 3.7l-3.7 14.6 10.1 2.3z"/><path id="XMLID_4201_" class="st16" d="M228 119.7c-6.4-.9-18.1-.9-26 .3-4.3.7-8.4 8.7-8.1 19.6.5 16.8 5.6 22.7 9.8 23.2 3.6.4 7.5.6 11.1.7l1.9 14.7 4.6-14.8c2.9-.1 5.3-.3 6.9-.5 4.3-.6 10-8.3 9.9-20.9-.2-12.7-3.8-21.4-10.1-22.3z"/><path id="XMLID_4488_" class="st17" d="M269.8 105.1c-8.1-.9-23-.8-33 .3-5.4.6-10.7 8.6-10.3 19.3.6 16.5 7.1 22.3 12.4 22.7 4.7.4 9.8.6 14.5.6l-.6 30.5 9.7-30.6c3.1-.1 5.7-.3 7.4-.5 5.5-.6 12.7-8.1 12.6-20.6-.1-12.3-4.6-20.8-12.7-21.7z"/><path id="XMLID_4205_" class="st0" d="M276.7 123.8l-6.6-5-1.9 2.5 2.5 1.9-5.3.8c-.6-2-1.9-3.7-3.5-5-1.6-1.2-3.6-2-5.6-2.1-.8-1.2-1.7-2.2-2.9-3-4.7-3.2-10.8-1.8-14 2.8-2.9 4.3-1.7 10.1 1.7 13.3l-1.4 2.1-3.8-2.6-2.1 3.1 3.8 2.6-2.6 3.8 3.1 2.1 2.6-3.8 3.8 2.6 2.1-3.1-3.8-2.6 1.4-2.1c1 .4 2 .7 3.1.8.6.9 1.3 1.7 2.2 2.3 2.2 1.6 4.9 2.4 7.6 2.1 5-.7 8.8-4.7 9-9.6l5.7-.6-2.4 3.1 2.5 1.9 5.6-7.3-.8-1zm-23.6 2.3c-1 1.5-2.5 2.4-4.1 2.8-.1-.3-.1-.5-.2-.8-.2-1.8.2-3.6 1.3-5 1-1.3 2.3-2.1 3.9-2.5.6 1.8.3 3.8-.9 5.5zm-9.4 1.8c-3.1-2.1-3.9-6.3-1.8-9.4 2.1-3.1 6.3-3.9 9.4-1.8.3.2.7.5.9.8-4.5 1.6-7.4 6.1-6.8 11v.3c-.5-.3-1.1-.6-1.7-.9zm17.3 3.3c-1.1 1.4-2.7 2.4-4.5 2.6-1.8.2-3.6-.2-5-1.3-.1 0-.1-.1-.2-.1 2-.7 3.8-2.1 5.2-4 1.5-2.3 1.9-5 1.4-7.6.6.2 1.3.6 1.8 1 1.4 1.1 2.4 2.7 2.6 4.5s-.2 3.5-1.3 4.9z"/><g id="XMLID_4208_"><path id="XMLID_4304_" class="st18" d="M297.1 133.7h19.1v5h-13.1v9.2h12.2v5h-12.2V167H297v-33.3z"/><path id="XMLID_4468_" class="st18" d="M335.2 166.9l-.4-2.7h-.1c-1.5 1.9-4 3.2-7.1 3.2-4.8 0-7.5-3.5-7.5-7.1 0-6.1 5.4-9.1 14.2-9.1v-.4c0-1.6-.6-4.2-4.9-4.2-2.4 0-4.8.7-6.4 1.8l-1.2-3.9c1.8-1.1 4.9-2.1 8.7-2.1 7.7 0 9.9 4.9 9.9 10.1v8.7c0 2.2.1 4.3.3 5.8h-5.5zm-.7-11.7c-4.3-.1-8.4.8-8.4 4.5 0 2.4 1.5 3.4 3.4 3.4 2.4 0 4.2-1.6 4.7-3.3.1-.4.2-.9.2-1.3v-3.3z"/><path id="XMLID_4471_" class="st18" d="M347.7 150.1c0-2.8 0-5.1-.2-7.1h5.2l.2 3.5h.1c1.2-1.9 3.3-4.1 7.4-4.1 3.1 0 5.6 1.8 6.6 4.4h.1c.8-1.3 1.8-2.3 3-3 1.3-.9 2.9-1.4 4.8-1.4 4 0 8 2.7 8 10.4v14.1H377v-13.3c0-4-1.4-6.4-4.3-6.4-2.1 0-3.6 1.5-4.2 3.2-.1.6-.3 1.3-.3 2v14.4h-5.9V153c0-3.4-1.3-5.7-4.1-5.7-2.3 0-3.8 1.8-4.3 3.4-.2.6-.3 1.3-.3 2v14.2h-5.9v-16.8z"/><path id="XMLID_4473_" class="st18" d="M396.9 136.2c0 1.8-1.3 3.3-3.4 3.3-2 0-3.3-1.4-3.3-3.3s1.4-3.3 3.4-3.3 3.2 1.5 3.3 3.3zm-6.5 30.7v-24h6.1v24h-6.1z"/><path id="XMLID_4476_" class="st18" d="M405 131.9h6.1v35H405v-35z"/><path id="XMLID_4478_" class="st18" d="M426.1 136.2c0 1.8-1.3 3.3-3.4 3.3-2 0-3.3-1.4-3.3-3.3s1.4-3.3 3.4-3.3c1.9 0 3.2 1.5 3.3 3.3zm-6.5 30.7v-24h6.1v24h-6.1z"/><path id="XMLID_4481_" class="st18" d="M446.7 166.9l-.4-2.7h-.1c-1.5 1.9-4 3.2-7.1 3.2-4.8 0-7.5-3.5-7.5-7.1 0-6.1 5.4-9.1 14.2-9.1v-.4c0-1.6-.6-4.2-4.9-4.2-2.4 0-4.8.7-6.4 1.8l-1.2-3.9c1.8-1.1 4.9-2.1 8.7-2.1 7.7 0 9.9 4.9 9.9 10.1v8.7c0 2.2.1 4.3.3 5.8h-5.5zm-.8-11.7c-4.3-.1-8.4.8-8.4 4.5 0 2.4 1.5 3.4 3.4 3.4 2.4 0 4.2-1.6 4.7-3.3.1-.4.2-.9.2-1.3v-3.3z"/><path id="XMLID_4484_" class="st18" d="M458.9 161.4c1.4.8 4 1.7 6.1 1.7 2.7 0 3.8-1.1 3.8-2.7s-1-2.5-3.9-3.5c-4.7-1.6-6.6-4.2-6.6-7 0-4.2 3.5-7.5 9.1-7.5 2.7 0 5 .7 6.3 1.4l-1.2 4.3c-1-.6-3-1.4-5.1-1.4-2.2 0-3.3 1-3.3 2.5s1.1 2.3 4.2 3.4c4.3 1.6 6.3 3.8 6.4 7.3 0 4.3-3.4 7.5-9.7 7.5-2.9 0-5.5-.7-7.3-1.7l1.2-4.3z"/><path id="XMLID_4486_" class="st18" d="M500.5 142.9l4.3 12.9c.5 1.5 1 3.3 1.3 4.7h.1c.4-1.4.8-3.2 1.3-4.7l3.7-12.8h6.5l-6 16.4c-3.3 9-5.5 13-8.4 15.4-2.4 2.1-4.8 2.9-6.3 3.1l-1.4-5.1c1-.2 2.3-.8 3.5-1.7 1.1-.7 2.5-2.2 3.3-3.8.2-.4.4-.8.4-1.1 0-.2 0-.6-.3-1.2l-8.8-22h6.8z"/></g><g id="XMLID_4209_"><g id="XMLID_268_"><path id="XMLID_298_" class="st18" d="M298.2 199.5c1 .6 3 1.3 4.7 1.3 2 0 2.9-.8 2.9-2s-.7-1.9-3-2.7c-3.6-1.2-5.1-3.2-5-5.3 0-3.2 2.7-5.7 6.9-5.7 2 0 3.8.5 4.8 1.1l-.9 3.3c-.8-.4-2.2-1-3.9-1-1.6 0-2.5.8-2.5 1.9 0 1.2.9 1.7 3.2 2.5 3.3 1.2 4.8 2.9 4.9 5.6 0 3.3-2.6 5.7-7.4 5.7-2.2 0-4.2-.5-5.5-1.3l.8-3.4z"/><path id="XMLID_295_" class="st18" d="M318 195.9c.1 3.3 2.7 4.7 5.6 4.7 2.1 0 3.7-.3 5.1-.8l.7 3.2c-1.6.6-3.7 1.1-6.4 1.1-5.9 0-9.4-3.6-9.4-9.2 0-5.1 3.1-9.8 8.9-9.8 5.9 0 7.9 4.9 7.9 8.9 0 .9-.1 1.5-.1 1.9H318zm8-3.2c0-1.7-.7-4.5-3.8-4.5-2.8 0-4 2.6-4.2 4.5h8z"/><path id="XMLID_293_" class="st18" d="M339.1 185.5l2.2 3.4c.6 1 1.1 1.9 1.6 2.8h.1c.5-1 1-1.9 1.6-2.9l2-3.4h5l-6.1 8.8 6.2 9.5h-5.2l-2.2-3.6c-.6-1-1.1-1.9-1.6-3h-.1c-.5 1-1 1.9-1.6 3l-2.1 3.6h-5.1l6.3-9.3-6.1-9h5.1z"/><path id="XMLID_291_" class="st18" d="M372.3 198.3c0 2.2.1 4 .1 5.5h-4l-.2-2.8h-.1c-.8 1.3-2.6 3.2-5.8 3.2-3.3 0-6.4-2-6.4-7.9v-10.7h4.6v9.9c0 3 1 5 3.4 5 1.8 0 3-1.3 3.5-2.5.1-.4.3-.9.3-1.4v-11h4.6v12.7z"/><path id="XMLID_288_" class="st18" d="M388.3 203.8l-.3-2h-.1c-1.1 1.4-3 2.4-5.4 2.4-3.7 0-5.7-2.7-5.7-5.4 0-4.6 4.1-6.9 10.8-6.9v-.3c0-1.2-.5-3.2-3.7-3.2-1.8 0-3.7.6-4.9 1.3l-.9-3c1.3-.8 3.7-1.6 6.6-1.6 5.8 0 7.5 3.7 7.5 7.7v6.6c0 1.6.1 3.3.3 4.4h-4.2zm-.6-9c-3.3-.1-6.4.6-6.4 3.4 0 1.8 1.2 2.6 2.6 2.6 1.8 0 3.2-1.2 3.6-2.5.1-.3.1-.7.1-1v-2.5z"/><path id="XMLID_286_" class="st18" d="M397.8 177.1h4.6v26.6h-4.6v-26.6z"/><path id="XMLID_283_" class="st18" d="M413.8 180.4c0 1.4-1 2.5-2.6 2.5-1.5 0-2.5-1.1-2.5-2.5s1-2.5 2.6-2.5c1.5 0 2.5 1.1 2.5 2.5zm-4.9 23.4v-18.3h4.6v18.3h-4.6z"/><path id="XMLID_280_" class="st18" d="M436.8 177.1v21.5c0 1.9.1 3.9.1 5.1h-4.1l-.2-2.9h-.1c-1.1 2-3.3 3.3-5.9 3.3-4.3 0-7.8-3.7-7.8-9.3 0-6.1 3.8-9.7 8.2-9.7 2.5 0 4.3 1 5.1 2.4h.1v-10.3h4.6zm-4.6 16c0-.4 0-.8-.1-1.2-.4-1.8-1.9-3.3-4-3.3-3 0-4.6 2.6-4.6 6 0 3.3 1.6 5.8 4.6 5.8 1.9 0 3.5-1.3 4-3.3.1-.4.1-.9.1-1.3v-2.7z"/><path id="XMLID_277_" class="st18" d="M452.7 203.8l-.3-2h-.1c-1.1 1.4-3 2.4-5.4 2.4-3.7 0-5.7-2.7-5.7-5.4 0-4.6 4.1-6.9 10.8-6.9v-.3c0-1.2-.5-3.2-3.7-3.2-1.8 0-3.7.6-4.9 1.3l-.9-3c1.3-.8 3.7-1.6 6.6-1.6 5.8 0 7.5 3.7 7.5 7.7v6.6c0 1.6.1 3.3.3 4.4h-4.2zm-.6-9c-3.3-.1-6.4.6-6.4 3.4 0 1.8 1.2 2.6 2.6 2.6 1.8 0 3.2-1.2 3.6-2.5.1-.3.1-.7.1-1v-2.5z"/><path id="XMLID_274_" class="st18" d="M479 177.1v21.5c0 1.9.1 3.9.1 5.1H475l-.2-2.9h-.1c-1.1 2-3.3 3.3-5.9 3.3-4.3 0-7.8-3.7-7.8-9.3 0-6.1 3.8-9.7 8.2-9.7 2.5 0 4.3 1 5.1 2.4h.1v-10.3h4.6zm-4.6 16c0-.4 0-.8-.1-1.2-.4-1.8-1.9-3.3-4-3.3-3 0-4.6 2.6-4.6 6 0 3.3 1.6 5.8 4.6 5.8 1.9 0 3.5-1.3 4-3.3.1-.4.2-.9.2-1.3v-2.7z"/><path id="XMLID_271_" class="st18" d="M487.9 195.9c.1 3.3 2.7 4.7 5.6 4.7 2.1 0 3.7-.3 5.1-.8l.7 3.2c-1.6.6-3.7 1.1-6.4 1.1-5.9 0-9.4-3.6-9.4-9.2 0-5.1 3.1-9.8 8.9-9.8 5.9 0 7.9 4.9 7.9 8.9 0 .9-.1 1.5-.1 1.9h-12.3zm8.1-3.2c0-1.7-.7-4.5-3.8-4.5-2.8 0-4 2.6-4.2 4.5h8z"/><path id="XMLID_269_" class="st18" d="M505.3 199.5c1 .6 3 1.3 4.7 1.3 2 0 2.9-.8 2.9-2s-.7-1.9-3-2.7c-3.6-1.2-5.1-3.2-5-5.3 0-3.2 2.7-5.7 6.9-5.7 2 0 3.8.5 4.8 1.1l-.9 3.3c-.8-.4-2.2-1-3.9-1-1.6 0-2.5.8-2.5 1.9 0 1.2.9 1.7 3.2 2.5 3.3 1.2 4.8 2.9 4.9 5.6 0 3.3-2.6 5.7-7.4 5.7-2.2 0-4.2-.5-5.5-1.3l.8-3.4z"/></g></g><g id="XMLID_2194_"><path id="XMLID_2300_" class="st19" d="M297.6 215.5c.8-.1 1.9-.3 3.3-.3 1.7 0 2.9.4 3.7 1.1.7.6 1.2 1.6 1.2 2.8 0 1.2-.4 2.2-1 2.9-.9 1-2.4 1.5-4.1 1.5-.5 0-1 0-1.4-.1v5.4h-1.7v-13.3zm1.7 6.4c.4.1.9.1 1.4.1 2.1 0 3.3-1 3.3-2.9 0-1.8-1.2-2.6-3.1-2.6-.8 0-1.3.1-1.6.1v5.3z"/><path id="XMLID_2568_" class="st19" d="M308.5 222.1c0-1.1 0-2.1-.1-3h1.5l.1 1.9h.1c.4-1.3 1.5-2.1 2.7-2.1.2 0 .3 0 .5.1v1.6c-.2 0-.4-.1-.6-.1-1.2 0-2.1.9-2.3 2.2 0 .2-.1.5-.1.8v5.1h-1.7v-6.5z"/><path id="XMLID_4113_" class="st19" d="M316.6 224.2c0 2.4 1.5 3.3 3.3 3.3 1.2 0 2-.2 2.7-.5l.3 1.2c-.6.3-1.7.6-3.2.6-2.9 0-4.7-1.9-4.7-4.8s1.7-5.2 4.5-5.2c3.1 0 4 2.8 4 4.5 0 .4 0 .6-.1.8h-6.8zm5.1-1.2c0-1.1-.5-2.8-2.4-2.8-1.8 0-2.5 1.6-2.7 2.8h5.1z"/><path id="XMLID_4322_" class="st19" d="M327 219.1l1.9 5.4c.3.9.6 1.7.8 2.5h.1c.2-.8.5-1.6.8-2.5l1.9-5.4h1.8l-3.8 9.6h-1.7l-3.6-9.6h1.8z"/><path id="XMLID_4327_" class="st19" d="M337.4 224.2c0 2.4 1.5 3.3 3.3 3.3 1.2 0 2-.2 2.7-.5l.3 1.2c-.6.3-1.7.6-3.2.6-2.9 0-4.7-1.9-4.7-4.8s1.7-5.2 4.5-5.2c3.1 0 4 2.8 4 4.5 0 .4 0 .6-.1.8h-6.8zm5.1-1.2c0-1.1-.5-2.8-2.4-2.8-1.8 0-2.5 1.6-2.7 2.8h5.1z"/><path id="XMLID_4330_" class="st19" d="M347.1 221.7c0-1 0-1.8-.1-2.6h1.5l.1 1.6c.5-.9 1.6-1.8 3.2-1.8 1.3 0 3.4.8 3.4 4.1v5.7h-1.7v-5.5c0-1.5-.6-2.8-2.2-2.8-1.1 0-2 .8-2.3 1.8-.1.2-.1.5-.1.8v5.8h-1.7v-7.1z"/><path id="XMLID_4332_" class="st19" d="M365.7 228.3c-.5.2-1.5.6-2.8.6-2.9 0-4.8-2-4.8-4.9 0-3 2-5.1 5.1-5.1 1 0 1.9.3 2.4.5l-.4 1.3c-.4-.2-1.1-.5-2-.5-2.2 0-3.4 1.6-3.4 3.6 0 2.2 1.4 3.6 3.3 3.6 1 0 1.6-.3 2.1-.5l.5 1.4z"/><path id="XMLID_4334_" class="st19" d="M370.5 216.4c0 .6-.4 1.1-1.1 1.1-.6 0-1-.5-1-1.1 0-.6.5-1.1 1.1-1.1.5 0 1 .5 1 1.1zm-2 12.3v-9.6h1.7v9.6h-1.7z"/><path id="XMLID_4337_" class="st19" d="M382.2 223.8c0 3.5-2.5 5.1-4.8 5.1-2.6 0-4.6-1.9-4.6-4.9 0-3.2 2.1-5.1 4.8-5.1 2.8 0 4.6 2 4.6 4.9zm-7.6.1c0 2.1 1.2 3.7 2.9 3.7s2.9-1.6 2.9-3.7c0-1.6-.8-3.7-2.9-3.7-2 0-2.9 1.9-2.9 3.7zm5.5-9l-2.4 2.8h-1.2l1.7-2.8h1.9z"/><path id="XMLID_4341_" class="st19" d="M384.8 221.7c0-1 0-1.8-.1-2.6h1.5l.1 1.6c.5-.9 1.6-1.8 3.2-1.8 1.3 0 3.4.8 3.4 4.1v5.7h-1.7v-5.5c0-1.5-.6-2.8-2.2-2.8-1.1 0-2 .8-2.3 1.8-.1.2-.1.5-.1.8v5.8h-1.7v-7.1z"/><path id="XMLID_4343_" class="st19" d="M408.6 214.6v11.6c0 .9 0 1.8.1 2.5h-1.6l-.1-1.7c-.5 1.1-1.7 1.9-3.3 1.9-2.3 0-4.1-2-4.1-4.9 0-3.2 2-5.2 4.3-5.2 1.5 0 2.5.7 2.9 1.5v-5.7h1.8zm-1.7 8.4c0-.2 0-.5-.1-.7-.3-1.1-1.2-2-2.5-2-1.8 0-2.9 1.6-2.9 3.7 0 1.9.9 3.5 2.8 3.5 1.2 0 2.2-.8 2.6-2.1.1-.2.1-.5.1-.8V223z"/><path id="XMLID_4363_" class="st19" d="M412.9 224.2c0 2.4 1.5 3.3 3.3 3.3 1.2 0 2-.2 2.7-.5l.3 1.2c-.6.3-1.7.6-3.2.6-2.9 0-4.7-1.9-4.7-4.8s1.7-5.2 4.5-5.2c3.1 0 4 2.8 4 4.5 0 .4 0 .6-.1.8h-6.8zm5.1-1.2c0-1.1-.5-2.8-2.4-2.8-1.8 0-2.5 1.6-2.7 2.8h5.1z"/><path id="XMLID_4366_" class="st19" d="M422.2 214.6h1.7v14.1h-1.7v-14.1z"/><path id="XMLID_4368_" class="st19" d="M432.5 224.2c0 2.4 1.5 3.3 3.3 3.3 1.2 0 2-.2 2.7-.5l.3 1.2c-.6.3-1.7.6-3.2.6-2.9 0-4.7-1.9-4.7-4.8s1.7-5.2 4.5-5.2c3.1 0 4 2.8 4 4.5 0 .4 0 .6-.1.8h-6.8zm5.1-1.2c0-1.1-.5-2.8-2.4-2.8-1.8 0-2.5 1.6-2.7 2.8h5.1z"/><path id="XMLID_4371_" class="st19" d="M442.2 221.7c0-1 0-1.8-.1-2.6h1.5l.1 1.5h.1c.5-.9 1.4-1.8 3-1.8 1.3 0 2.3.8 2.7 1.9.3-.5.7-1 1.1-1.2.6-.4 1.2-.7 2.1-.7 1.3 0 3.1.8 3.1 4.2v5.6h-1.7v-5.4c0-1.8-.7-3-2.1-3-1 0-1.8.7-2.1 1.6-.1.2-.1.6-.1.9v5.9h-1.7v-5.7c0-1.5-.7-2.6-2-2.6-1.1 0-1.9.9-2.2 1.7-.1.3-.1.6-.1.9v5.8h-1.7v-7z"/><path id="XMLID_4373_" class="st19" d="M459.4 228.7c0-.7.1-1.6.1-2.5v-11.6h1.7v6c.6-1.1 1.7-1.8 3.3-1.8 2.4 0 4.1 2 4 4.9 0 3.4-2.2 5.1-4.3 5.1-1.4 0-2.5-.5-3.2-1.8l-.1 1.6h-1.5zm1.8-3.9c0 .2 0 .4.1.6.3 1.2 1.3 2 2.6 2 1.8 0 2.9-1.5 2.9-3.7 0-1.9-1-3.6-2.9-3.6-1.2 0-2.3.8-2.7 2.1 0 .2-.1.4-.1.7v1.9z"/><path id="XMLID_4376_" class="st19" d="M476.8 228.7l-.1-1.2h-.1c-.5.8-1.6 1.4-2.9 1.4-1.9 0-2.9-1.4-2.9-2.8 0-2.3 2.1-3.6 5.8-3.6v-.2c0-.8-.2-2.2-2.2-2.2-.9 0-1.8.3-2.5.7l-.4-1.1c.8-.5 1.9-.9 3.1-.9 2.9 0 3.6 2 3.6 3.9v3.6c0 .8 0 1.6.2 2.3h-1.6zm-.2-4.9c-1.9 0-4.1.3-4.1 2.2 0 1.1.8 1.7 1.6 1.7 1.2 0 2-.8 2.3-1.6.1-.2.1-.4.1-.6v-1.7z"/><path id="XMLID_4379_" class="st19" d="M481.9 222.1c0-1.1 0-2.1-.1-3h1.5l.1 1.9h.1c.4-1.3 1.5-2.1 2.7-2.1.2 0 .3 0 .5.1v1.6c-.2 0-.4-.1-.6-.1-1.2 0-2.1.9-2.3 2.2 0 .2-.1.5-.1.8v5.1H482v-6.5z"/><path id="XMLID_4381_" class="st19" d="M494.7 228.7l-.1-1.2h-.1c-.5.8-1.6 1.4-2.9 1.4-1.9 0-2.9-1.4-2.9-2.8 0-2.3 2.1-3.6 5.8-3.6v-.2c0-.8-.2-2.2-2.2-2.2-.9 0-1.8.3-2.5.7l-.4-1.1c.8-.5 1.9-.9 3.1-.9 2.9 0 3.6 2 3.6 3.9v3.6c0 .8 0 1.6.2 2.3h-1.6zm-.2-4.9c-1.9 0-4.1.3-4.1 2.2 0 1.1.8 1.7 1.6 1.7 1.2 0 2-.8 2.3-1.6.1-.2.1-.4.1-.6v-1.7z"/><path id="XMLID_4384_" class="st19" d="M499.1 227.7l4.3-5.6 1.2-1.5h-5.2v-1.4h7.3v1.1l-4.3 5.6-1.2 1.5h5.6v1.4H499v-1.1z"/><path id="XMLID_4386_" class="st19" d="M518.3 223.8c0 3.5-2.5 5.1-4.8 5.1-2.6 0-4.6-1.9-4.6-4.9 0-3.2 2.1-5.1 4.8-5.1 2.8 0 4.6 2 4.6 4.9zm-7.6.1c0 2.1 1.2 3.7 2.9 3.7s2.9-1.6 2.9-3.7c0-1.6-.8-3.7-2.9-3.7-2 0-2.9 1.9-2.9 3.7z"/><path id="XMLID_4389_" class="st19" d="M298.5 247.5c0 2.4 1.5 3.3 3.3 3.3 1.2 0 2-.2 2.7-.5l.3 1.2c-.6.3-1.7.6-3.2.6-2.9 0-4.7-1.9-4.7-4.8s1.7-5.2 4.5-5.2c3.1 0 4 2.8 4 4.5 0 .4 0 .6-.1.8h-6.8zm5.1-1.3c0-1.1-.5-2.8-2.4-2.8-1.8 0-2.5 1.6-2.7 2.8h5.1z"/><path id="XMLID_4392_" class="st19" d="M307.8 244.9c0-1 0-1.8-.1-2.6h1.5l.1 1.6c.5-.9 1.6-1.8 3.2-1.8 1.3 0 3.4.8 3.4 4.1v5.7h-1.7v-5.5c0-1.5-.6-2.8-2.2-2.8-1.1 0-2 .8-2.3 1.8-.1.2-.1.5-.1.8v5.8h-1.7v-7.1z"/><path id="XMLID_4394_" class="st19" d="M328.3 251.9l-.1-1.2h-.1c-.5.8-1.6 1.4-2.9 1.4-1.9 0-2.9-1.4-2.9-2.8 0-2.3 2.1-3.6 5.8-3.6v-.2c0-.8-.2-2.2-2.2-2.2-.9 0-1.8.3-2.5.7l-.4-1.1c.8-.5 1.9-.9 3.1-.9 2.9 0 3.6 2 3.6 3.9v3.6c0 .8 0 1.6.2 2.3h-1.6zm-.3-4.9c-1.9 0-4.1.3-4.1 2.2 0 1.1.8 1.7 1.6 1.7 1.2 0 2-.8 2.3-1.6.1-.2.1-.4.1-.6V247z"/><path id="XMLID_4397_" class="st19" d="M341.2 237.9v11.6c0 .9 0 1.8.1 2.5h-1.6l-.1-1.7c-.5 1.1-1.7 1.9-3.3 1.9-2.3 0-4.1-2-4.1-4.9 0-3.2 2-5.2 4.3-5.2 1.5 0 2.5.7 2.9 1.5v-5.7h1.8zm-1.7 8.3c0-.2 0-.5-.1-.7-.3-1.1-1.2-2-2.5-2-1.8 0-2.9 1.6-2.9 3.7 0 1.9.9 3.5 2.8 3.5 1.2 0 2.2-.8 2.6-2.1.1-.2.1-.5.1-.8v-1.6z"/><path id="XMLID_4400_" class="st19" d="M353.2 247.1c0 3.5-2.5 5.1-4.8 5.1-2.6 0-4.6-1.9-4.6-4.9 0-3.2 2.1-5.1 4.8-5.1 2.7-.1 4.6 1.9 4.6 4.9zm-7.6.1c0 2.1 1.2 3.7 2.9 3.7s2.9-1.6 2.9-3.7c0-1.6-.8-3.7-2.9-3.7-2.1-.1-2.9 1.8-2.9 3.7z"/><path id="XMLID_4403_" class="st19" d="M355.7 237.9h1.7V252h-1.7v-14.1z"/><path id="XMLID_4405_" class="st19" d="M361.8 247.5c0 2.4 1.5 3.3 3.3 3.3 1.2 0 2-.2 2.7-.5l.3 1.2c-.6.3-1.7.6-3.2.6-2.9 0-4.7-1.9-4.7-4.8s1.7-5.2 4.5-5.2c3.1 0 4 2.8 4 4.5 0 .4 0 .6-.1.8h-6.8zm5.1-1.3c0-1.1-.5-2.8-2.4-2.8-1.8 0-2.5 1.6-2.7 2.8h5.1z"/><path id="XMLID_4408_" class="st19" d="M370.9 250.2c.5.3 1.4.7 2.3.7 1.3 0 1.9-.6 1.9-1.4 0-.8-.5-1.3-1.8-1.8-1.7-.6-2.5-1.6-2.5-2.7 0-1.5 1.2-2.8 3.3-2.8 1 0 1.8.3 2.4.6l-.4 1.3c-.4-.2-1.1-.6-2-.6-1 0-1.6.6-1.6 1.3 0 .8.6 1.1 1.8 1.6 1.7.6 2.5 1.5 2.5 2.9 0 1.7-1.3 2.9-3.6 2.9-1 0-2-.3-2.7-.7l.4-1.3z"/><path id="XMLID_4410_" class="st19" d="M386.2 251.6c-.5.2-1.5.6-2.8.6-2.9 0-4.8-2-4.8-4.9 0-3 2-5.1 5.1-5.1 1 0 1.9.3 2.4.5l-.4 1.3c-.4-.2-1.1-.5-2-.5-2.2 0-3.4 1.6-3.4 3.6 0 2.2 1.4 3.6 3.3 3.6 1 0 1.6-.3 2.1-.5l.5 1.4z"/><path id="XMLID_4412_" class="st19" d="M389.5 247.5c0 2.4 1.5 3.3 3.3 3.3 1.2 0 2-.2 2.7-.5l.3 1.2c-.6.3-1.7.6-3.2.6-2.9 0-4.7-1.9-4.7-4.8s1.7-5.2 4.5-5.2c3.1 0 4 2.8 4 4.5 0 .4 0 .6-.1.8h-6.8zm5.1-1.3c0-1.1-.5-2.8-2.4-2.8-1.8 0-2.5 1.6-2.7 2.8h5.1z"/><path id="XMLID_4416_" class="st19" d="M398.8 244.9c0-1 0-1.8-.1-2.6h1.5l.1 1.6c.5-.9 1.6-1.8 3.2-1.8 1.3 0 3.4.8 3.4 4.1v5.7h-1.7v-5.5c0-1.5-.6-2.8-2.2-2.8-1.1 0-2 .8-2.3 1.8-.1.2-.1.5-.1.8v5.8h-1.7v-7.1z"/><path id="XMLID_4418_" class="st19" d="M412.2 239.6v2.8h2.5v1.3h-2.5v5.2c0 1.2.3 1.9 1.3 1.9.5 0 .8-.1 1-.1l.1 1.3c-.3.1-.9.2-1.5.2-.8 0-1.5-.3-1.9-.7-.5-.5-.7-1.4-.7-2.5v-5.2H409v-1.3h1.5V240l1.7-.4z"/><path id="XMLID_4420_" class="st19" d="M417.9 247.5c0 2.4 1.5 3.3 3.3 3.3 1.2 0 2-.2 2.7-.5l.3 1.2c-.6.3-1.7.6-3.2.6-2.9 0-4.7-1.9-4.7-4.8s1.7-5.2 4.5-5.2c3.1 0 4 2.8 4 4.5 0 .4 0 .6-.1.8h-6.8zm5.1-1.3c0-1.1-.5-2.8-2.4-2.8-1.8 0-2.5 1.6-2.7 2.8h5.1z"/><path id="XMLID_4423_" class="st19" d="M427 250.2c.5.3 1.4.7 2.3.7 1.3 0 1.9-.6 1.9-1.4 0-.8-.5-1.3-1.8-1.8-1.7-.6-2.5-1.6-2.5-2.7 0-1.5 1.2-2.8 3.3-2.8 1 0 1.8.3 2.4.6l-.4 1.3c-.4-.2-1.1-.6-2-.6-1 0-1.6.6-1.6 1.3 0 .8.6 1.1 1.8 1.6 1.7.6 2.5 1.5 2.5 2.9 0 1.7-1.3 2.9-3.6 2.9-1 0-2-.3-2.7-.7l.4-1.3z"/></g><path id="XMLID_2066_" class="st0" d="M226.1 151.3s-3.8-2.5-7.5-5.9c1.5-3.2 2.4-6.2 2.3-8.7-.2-5.4-.9-11.5-7-11.3l-1.7.3c-5.9 1.7-4.9 7.6-3.4 12.9.7 2.4 2.4 5 4.8 7.6-2.6 4.3-5.4 7.8-5.4 7.8l4.4 2.1c1.4-2.2 2.9-4.5 4.1-6.8 1.9 1.8 3.9 3.6 5.9 5.2 0 .2 3.5-3.2 3.5-3.2zM212 135.9c-1-5.5 1.7-7.4 1.6-7.7 0 0-.1 0 .2-.1h.4-.1c1.1.1 2.7 1.3 3.4 6.9.3 2-.5 4.6-1.7 7.3-2-2-3.5-4.4-3.8-6.4z"/></g></svg>